<svg width="20" height="20" viewBox="0 0 20 20" xmlns="http://www.w3.org/2000/svg"><path d="M10.28 5L10 4.263V4h7v1h-6.72zm.38 1H17v1h-5.96l-.38-1zm.76 2H17v1h-5.199l-.38-1zm.761 2h4.82v1h-4.44l-.38-1zm1.615 6H8.89v-.59c.432-.027.79-.082 1.075-.165.285-.083.427-.186.427-.307a1.234 1.234 0 0 0-.066-.374l-.98-2.64H5.222c-.155.388-.28.725-.378 1.013-.096.288-.184.553-.261.797a5.681 5.681 0 0 0-.15.58c-.027.15-.041.272-.041.366 0 .222.174.393.523.515.349.122.741.194 1.179.216V16H1.66v-.59c.144-.01.324-.042.54-.095.215-.052.392-.123.53-.211.222-.15.394-.306.515-.47.122-.163.241-.388.357-.676a466.815 466.815 0 0 0 1.96-4.98c.713-1.843 1.35-3.484 1.909-4.923h.664l3.926 10.16c.083.216.177.39.282.523.105.133.252.263.44.39.127.078.293.143.498.195.205.053.376.082.515.088V16zm-4.748-4.814L7.263 6.62l-1.751 4.566h3.536z" fill="#333" fill-rule="evenodd"/></svg>