<svg width="20" height="20" viewBox="0 0 20 20" xmlns="http://www.w3.org/2000/svg"><path d="M16.995 14h1.5l-2 2-2-2h1.5V6.2h-1.5l2-2 2 2h-1.5V14zM13.38 7.417h-.573c-.05-.2-.14-.436-.27-.71a6.38 6.38 0 0 0-.436-.776 3.888 3.888 0 0 0-.543-.668c-.197-.191-.386-.3-.569-.328a7.808 7.808 0 0 0-.647-.05c-.26-.01-.501-.016-.722-.016h-.482v9.421c0 .183.039.35.116.502.078.152.213.27.407.353.1.039.309.091.627.158.318.066.566.102.743.108V16H5.469v-.59c.155-.01.392-.033.71-.066.318-.033.538-.074.66-.124a.806.806 0 0 0 .402-.312c.086-.135.129-.316.129-.543V4.869h-.481c-.172 0-.385.004-.64.012a8.538 8.538 0 0 0-.73.054c-.183.022-.372.131-.569.328-.196.196-.377.42-.543.668a5.642 5.642 0 0 0-.44.793 4.81 4.81 0 0 0-.266.693H3.12V4.221h10.26v3.196z" fill="#333" fill-rule="evenodd"/></svg>