<svg xmlns="http://www.w3.org/2000/svg" width="20" height="20" viewBox="0 0 20 20">
  <g fill="none" fill-rule="evenodd">
    <path fill="#7D7D7D" fill-rule="nonzero" d="M2.5,15 L2.5,16 L1.5,16 L1.5,15 L2.5,15 Z M4.5,15 L4.5,16 L3.5,16 L3.5,15 L4.5,15 Z M6.5,15 L6.5,16 L5.5,16 L5.5,15 L6.5,15 Z M8.5,15 L8.5,16 L7.5,16 L7.5,15 L8.5,15 Z M10.5,15 L10.5,16 L9.5,16 L9.5,15 L10.5,15 Z M12.5,15 L12.5,16 L11.5,16 L11.5,15 L12.5,15 Z M14.5,15 L14.5,16 L13.5,16 L13.5,15 L14.5,15 Z M16.5,15 L16.5,16 L15.5,16 L15.5,15 L16.5,15 Z M18.5,15 L18.5,16 L17.5,16 L17.5,15 L18.5,15 Z M1,13.5 L1,14.5 L0,14.5 L0,13.5 L1,13.5 Z M20,13.5 L20,14.5 L19,14.5 L19,13.5 L20,13.5 Z M1,11.5 L1,12.5 L0,12.5 L0,11.5 L1,11.5 Z M20,11.5 L20,12.5 L19,12.5 L19,11.5 L20,11.5 Z M1,9.5 L1,10.5 L0,10.5 L0,9.5 L1,9.5 Z M20,9.5 L20,10.5 L19,10.5 L19,9.5 L20,9.5 Z M1,7.5 L1,8.5 L0,8.5 L0,7.5 L1,7.5 Z M20,7.5 L20,8.5 L19,8.5 L19,7.5 L20,7.5 Z M1,5.5 L1,6.5 L0,6.5 L0,5.5 L1,5.5 Z M20,5.5 L20,6.5 L19,6.5 L19,5.5 L20,5.5 Z M1,3.5 L1,4.5 L0,4.5 L0,3.5 L1,3.5 Z M20,3.5 L20,4.5 L19,4.5 L19,3.5 L20,3.5 Z M20,1.5 L20,2.5 L19,2.5 L19,1.5 L20,1.5 Z M1,1.5 L1,2.5 L0,2.5 L0,1.5 L1,1.5 Z M14.5,0 L14.5,1 L13.5,1 L13.5,0 L14.5,0 Z M16.5,0 L16.5,1 L15.5,1 L15.5,0 L16.5,0 Z M18.5,0 L18.5,1 L17.5,1 L17.5,0 L18.5,0 Z M10.5,0 L10.5,1 L9.5,1 L9.5,0 L10.5,0 Z M8.5,0 L8.5,1 L7.5,1 L7.5,0 L8.5,0 Z M6.5,0 L6.5,1 L5.5,1 L5.5,0 L6.5,0 Z M4.5,0 L4.5,1 L3.5,1 L3.5,0 L4.5,0 Z M12.5,0 L12.5,1 L11.5,1 L11.5,0 L12.5,0 Z M2.5,0 L2.5,1 L1.5,1 L1.5,0 L2.5,0 Z" transform="translate(0 2)"/>
    <path fill="#000" fill-rule="nonzero" d="M13,6 L2,6 C0.8954305,6 0,6.8954305 0,8 L0,16 C0,17.1045695 0.8954305,18 2,18 L13,18 C14.1045695,18 15,17.1045695 15,16 L15,8 C15,6.8954305 14.1045695,6 13,6 Z M13,7.5 C13.2761424,7.5 13.5,7.72385763 13.5,8 L13.5,16 C13.5,16.2761424 13.2761424,16.5 13,16.5 L2,16.5 C1.72385763,16.5 1.5,16.2761424 1.5,16 L1.5,8 C1.5,7.72385763 1.72385763,7.5 2,7.5 L13,7.5 Z"/>
  </g>
</svg>
