<?xml version="1.0" encoding="UTF-8" standalone="no"?><!DOCTYPE svg PUBLIC "-//W3C//DTD SVG 1.1//EN" "http://www.w3.org/Graphics/SVG/1.1/DTD/svg11.dtd"><svg width="100%" height="100%" viewBox="0 0 20 20" version="1.1" xmlns="http://www.w3.org/2000/svg" xmlns:xlink="http://www.w3.org/1999/xlink" xml:space="preserve"><path d="M2,15l16,0l0,1l-16,0l0,-1Zm11,-3l5,0l0,1l-5,0l0,-1Zm-2,1l-9,0l0,-7l9,0l0,7Zm-1,-6l-7,0l0,5l7,0l0,-5Zm3,2l5,0l0,1l-5,0l0,-1Zm0,-3l5,0l0,1l-5,0l0,-1Zm-11,-3l16,0l0,1l-16,0l0,-1Z" style="fill:#343434;"/></svg>
