<svg viewBox="0 0 20 20" xmlns="http://www.w3.org/2000/svg"><path d="M3 8.5h5V4a1 1 0 0 1 1-1h.5a1 1 0 0 1 1 1v11.5a1 1 0 0 1-1 1H9a1 1 0 0 1-1-1V11H3v4.5a1 1 0 0 1-1 1h-.5a1 1 0 0 1-1-1V4a1 1 0 0 1 1-1H2a1 1 0 0 1 1 1v4.5zm9.989 7.53l1.726-.209c.055.44.203.777.445 1.01.24.232.533.349.876.349.368 0 .678-.14.93-.42.251-.279.377-.655.377-1.13 0-.448-.12-.803-.362-1.066a1.153 1.153 0 0 0-.882-.393c-.228 0-.501.044-.819.133l.197-1.453c.482.012.85-.092 1.105-.315.253-.222.38-.517.38-.885 0-.313-.093-.563-.279-.75-.186-.185-.434-.278-.743-.278a1.07 1.07 0 0 0-.78.317c-.216.212-.347.52-.394.927l-1.644-.28c.114-.562.287-1.012.517-1.348.231-.337.553-.601.965-.794a3.24 3.24 0 0 1 1.387-.289c.876 0 1.579.28 2.108.838.436.457.653.973.653 1.549 0 .817-.446 1.468-1.339 1.955.533.114.96.37 1.28.768.319.398.478.878.478 1.441 0 .817-.298 1.513-.895 2.088-.596.576-1.339.864-2.228.864-.842 0-1.54-.243-2.094-.727-.555-.485-.876-1.118-.965-1.901z"/></svg>