<svg viewBox="0 0 20 20" xmlns="http://www.w3.org/2000/svg"><path d="M3 8.5h5V4a1 1 0 011-1h.5a1 1 0 011 1v11.5a1 1 0 01-1 1H9a1 1 0 01-1-1V11H3v4.5a1 1 0 01-1 1h-.5a1 1 0 01-1-1V4a1 1 0 011-1H2a1 1 0 011 1v4.5zm16.076 8.343V18.5h-6.252c.067-.626.27-1.22.61-1.78.338-.561 1.006-1.305 2.005-2.232.804-.749 1.297-1.257 1.479-1.523.245-.368.368-.732.368-1.092 0-.398-.107-.703-.32-.917-.214-.214-.51-.32-.886-.32-.372 0-.669.111-.889.336-.22.224-.347.596-.38 1.117l-1.778-.178c.106-.982.438-1.686.997-2.114.558-.427 1.257-.64 2.095-.64.918 0 1.64.247 2.164.742.525.495.787 1.11.787 1.847 0 .419-.075.818-.225 1.197-.15.378-.388.775-.714 1.19-.216.275-.605.67-1.168 1.187-.563.516-.92.859-1.07 1.028a3.11 3.11 0 00-.365.495h3.542z"/></svg>