<svg viewBox="0 0 20 20" xmlns="http://www.w3.org/2000/svg"><g fill="none" fill-rule="evenodd"><g fill="#000"><path d="M20 9.2c0 .9-.3 1.8-1 2.6a19.8 19.8 0 0 1-3.4 3.5 234.8 234.8 0 0 0 4.1.3c.2.1.3.3.3.6 0 .2 0 .4-.3.5-.1.2-.3.3-.5.3h-5.5c-.2 0-.4 0-.6-.3a.8.8 0 0 1-.2-.5c0-.6.2-1 .6-1.4 1.7-1.4 2.9-2.4 3.5-3.2.5-.8.8-1.5.8-2.2 0-1.1-.6-1.7-1.7-1.7-.6 0-1.4.2-2.2.5h-.6a.5.5 0 0 1-.2-.5v-.2c0-.3 0-.5.2-.7.1-.2.3-.4.6-.4.8-.3 1.6-.4 2.5-.4a4 4 0 0 1 2.6.8 3 3 0 0 1 1 2.4zM1 17a1 1 0 0 1-.7-.3 1 1 0 0 1-.3-.8V4.1c0-.3.1-.6.3-.8.2-.2.5-.3.8-.3h.3c.3 0 .6.1.8.3.2.2.3.5.3.8v4.3c0 .1 0 .2.2.2h5V4.1c0-.3.2-.6.4-.8.2-.2.5-.3.8-.3h.3c.3 0 .6.1.8.3.2.2.3.5.3.8v11.8c0 .3-.1.6-.3.8a1 1 0 0 1-.8.3h-.3a1 1 0 0 1-.8-.3 1 1 0 0 1-.3-.8v-5c0-.2 0-.2-.2-.2h-5v5.2c0 .3-.2.6-.4.8a1 1 0 0 1-.8.3h-.3z"/></g></g></svg>