<svg width="20" height="20" xmlns="http://www.w3.org/2000/svg"><path d="M3.5 8.5h5V4a1 1 0 0 1 1-1h.5a1 1 0 0 1 1 1v11.5a1 1 0 0 1-1 1h-.5a1 1 0 0 1-1-1V11h-5v4.5a1 1 0 0 1-1 1H2a1 1 0 0 1-1-1V4a1 1 0 0 1 1-1h.5a1 1 0 0 1 1 1v4.5zM13.078 16.107l1.777-.184c.05.402.201.72.45.955a1.223 1.223 0 0 0 1.81-.101c.258-.303.387-.759.387-1.368 0-.572-.128-1-.384-1.286-.256-.285-.59-.428-1-.428-.512 0-.971.226-1.377.679l-1.448-.21.915-4.843h4.716v1.67H15.56l-.28 1.58a2.697 2.697 0 0 1 1.219-.298c.791 0 1.462.288 2.012.863.55.576.825 1.323.825 2.241a3.36 3.36 0 0 1-.666 2.05c-.605.821-1.445 1.232-2.52 1.232-.86 0-1.56-.23-2.101-.692-.542-.461-.866-1.081-.971-1.86z"/></svg>
