<svg viewBox="0 0 20 20" xmlns="http://www.w3.org/2000/svg"><path d="M3.5 8.5h5V4a1 1 0 0 1 1-1h.5a1 1 0 0 1 1 1v11.5a1 1 0 0 1-1 1h-.5a1 1 0 0 1-1-1V11h-5v4.5a1 1 0 0 1-1 1H2a1 1 0 0 1-1-1V4a1 1 0 0 1 1-1h.5a1 1 0 0 1 1 1v4.5zm15.595 2.973l-1.726.19c-.043-.355-.153-.617-.33-.787-.178-.169-.409-.253-.692-.253-.377 0-.695.169-.956.507-.26.339-.424 1.043-.492 2.114.445-.525.997-.787 1.657-.787.745 0 1.383.284 1.914.85.531.568.797 1.3.797 2.197 0 .952-.28 1.716-.838 2.291-.559.576-1.276.864-2.152.864-.94 0-1.712-.365-2.317-1.095-.605-.73-.908-1.927-.908-3.59 0-1.705.316-2.935.946-3.688.63-.753 1.45-1.13 2.457-1.13.706 0 1.291.198 1.755.594.463.395.758.97.885 1.723zm-4.043 3.891c0 .58.133 1.028.4 1.343.266.315.57.473.914.473.33 0 .605-.13.825-.388.22-.258.33-.68.33-1.27 0-.604-.118-1.047-.355-1.329a1.115 1.115 0 0 0-.89-.422c-.342 0-.632.134-.869.403s-.355.666-.355 1.19z"/></svg>