<svg viewBox="0 0 20 20" xmlns="http://www.w3.org/2000/svg"><path d="M9.75 11.875a.752.752 0 01.508.184l2.883 1.666a.75.75 0 01-.659 1.344l-.091-.044-1.892-1.093.001 4.318a.75.75 0 11-1.5 0v-4.317l-1.89 1.092a.75.75 0 01-.75-1.3l2.879-1.663a.752.752 0 01.51-.187zM15.25 9a.75.75 0 110 1.5H4.75a.75.75 0 110-1.5h10.5zM9.75.375a.75.75 0 01.75.75v4.318l1.89-1.093.092-.045a.75.75 0 01.659 1.344l-2.883 1.667a.752.752 0 01-.508.184.752.752 0 01-.511-.187L6.359 5.65a.75.75 0 01.75-1.299L9 5.442V1.125a.75.75 0 01.75-.75z"/></svg>