<?xml version="1.0" encoding="UTF-8" standalone="no"?>
<svg width="20px" height="20px" viewBox="0 0 20 20" version="1.1" xmlns="http://www.w3.org/2000/svg" xmlns:xlink="http://www.w3.org/1999/xlink" xmlns:sketch="http://www.bohemiancoding.com/sketch/ns">
    <!-- Generator: Sketch 3.5.2 (25235) - http://www.bohemiancoding.com/sketch -->
    <title>align-left</title>
    <desc>Created with Sketch.</desc>
    <defs></defs>
    <g id="Page-1" stroke="none" stroke-width="1" fill="none" fill-rule="evenodd" sketch:type="MSPage">
        <g id="align-left" sketch:type="MSArtboardGroup" fill="#444444">
            <g id="icon:align-left" sketch:type="MSLayerGroup" transform="translate(3.000000, 4.000000)">
                <path d="M0,6 L0,7 L12,7 L12,6 L0,6 L0,6 Z M0,12 L0,13 L10,13 L10,12 L0,12 L0,12 Z M0,9 L0,10 L15,10 L15,9 L0,9 L0,9 Z M0,0 L0,1 L12,1 L12,0 L0,0 L0,0 Z M0,3 L0,4 L15,4 L15,3 L0,3 L0,3 Z" id="path4634" sketch:type="MSShapeGroup"></path>
            </g>
        </g>
    </g>
</svg>