<?xml version="1.0" standalone="no"?>
<!DOCTYPE svg PUBLIC "-//W3C//DTD SVG 20010904//EN"
 "http://www.w3.org/TR/2001/REC-SVG-20010904/DTD/svg10.dtd">
<svg version="1.0" xmlns="http://www.w3.org/2000/svg"
 width="32.000000pt" height="35.000000pt" viewBox="0 0 32.000000 35.000000"
 preserveAspectRatio="xMidYMid meet">

<g transform="translate(0.000000,35.000000) scale(0.100000,-0.100000)"
fill="#000000" stroke="none">
<path d="M40 240 c-26 -26 -26 -74 0 -100 23 -23 88 -28 108 -8 9 9 15 9 24 0
20 -20 85 -15 108 8 26 26 26 74 0 100 -23 23 -88 28 -108 8 -9 -9 -15 -9 -24
0 -20 20 -85 15 -108 -8z m100 -9 c0 -6 -17 -11 -37 -13 -33 -3 -38 -6 -38
-28 0 -22 5 -25 38 -28 20 -2 37 -7 37 -13 0 -13 -74 -11 -88 3 -15 15 -15 61
0 76 14 14 88 16 88 3z m128 -3 c15 -15 15 -61 0 -76 -14 -14 -88 -16 -88 -3
0 6 17 11 38 13 32 3 37 6 37 28 0 22 -5 25 -37 28 -21 2 -38 7 -38 13 0 13
74 11 88 -3z m-28 -38 c0 -6 -33 -10 -80 -10 -47 0 -80 4 -80 10 0 6 33 10 80
10 47 0 80 -4 80 -10z"/>
</g>
</svg>
