<svg width="20" height="20" viewBox="0 0 20 20" xmlns="http://www.w3.org/2000/svg"><path d="M2.001 13.608l4.437-3.92a.75.75 0 0 1 1.033.038l3.953 3.737 2.638-2.434a.75.75 0 0 1 1.022.004L18 13.81V3.705H2v9.903zm0 2.001v1.186H18v-.915l-3.432-3.275-3.928 3.625a.75.75 0 1 1-1.018-1.102l.697-.643-3.422-3.2-4.895 4.324zM1.751 2.25H18.25c.69 0 1.251.543 1.251 1.212v13.576c0 .67-.56 1.212-1.251 1.212H1.75c-.69 0-1.251-.543-1.251-1.212V3.462c0-.67.56-1.212 1.251-1.212zM14.7 9.35a2.25 2.25 0 1 1 0-4.5 2.25 2.25 0 0 1 0 4.5zm0-1.5a.75.75 0 1 0 0-1.5.75.75 0 0 0 0 1.5z" fill="#000" fill-rule="nonzero"/></svg>