<svg viewBox="0 0 21 21" xmlns="http://www.w3.org/2000/svg"><path clip-rule="evenodd" d="M7.276 9.908a.678.678 0 0 0-.936-.032l-3.945 4.338V3.454h14.43v5.633a5.674 5.674 0 0 1 1.594.464V3.007c0-.617-.52-1.117-1.159-1.117H1.97C1.32 1.89.8 2.39.8 3.008v12.59c0 .627.521 1.127 1.16 1.127h8.715a5.704 5.704 0 0 1-.351-1.976c0-.607.094-1.191.27-1.74l-3.318-3.1Zm4.172-2.877a2.088 2.088 0 1 0 4.14-.542 2.088 2.088 0 0 0-4.14.542Z"/><path clip-rule="evenodd" d="M16.038 19.51a4.762 4.762 0 1 0 0-9.524 4.762 4.762 0 0 0 0 9.523Zm.58-1.801a.63.63 0 1 1-1.26 0v-4.132l-1.541 1.838a.63.63 0 1 1-.965-.81l2.67-3.18a.626.626 0 0 1 .238-.176.63.63 0 0 1 .793.143l2.671 3.183a.63.63 0 0 1-.965.809l-1.64-1.957v4.282Z"/></svg>