<svg viewBox="0 0 20 20" xmlns="http://www.w3.org/2000/svg"><path d="M1.64.713C.978.713.447 1.224.447 1.854v12.861c0 .641.532 1.153 1.183 1.153h6.24c.053-.074.108-.148.17-.223 1.049-1.256 1.624-2.074 2.673-3.33l-3.65-3.41a.694.694 0 0 0-.958-.033l-4.03 4.431V2.311h14.741v6.65c.065.064.127.133.188.206l1.443 1.736V1.854c0-.63-.534-1.14-1.186-1.14H1.641ZM13.37 3.56a2.137 2.137 0 0 0-1.623.83 2.14 2.14 0 0 0-.424 1.576 2.13 2.13 0 0 0 3.18 1.57 2.13 2.13 0 0 0-1.132-3.976Z"/><path d="M15.308 19.287a.79.79 0 0 0 .79-.79v-5.374l2.06 2.456a.79.79 0 0 0 1.21-1.016l-3.351-3.994a.79.79 0 0 0-.996-.18.787.787 0 0 0-.299.222l-3.35 3.99a.79.79 0 0 0 1.21 1.017l1.936-2.306v5.184c0 .437.354.79.79.79Z"/></svg>