<svg viewBox="0 0 20 20" xmlns="http://www.w3.org/2000/svg"><path d="M1.2 1C.536 1 0 1.47 0 2.1v12.863C0 15.603.547 16 1.199 16h6.3c.908-1.19 1.892-2.41 2.8-3.6L6.615 9.15a.694.694 0 0 0-.957-.033L1.5 13.5v-11h15v6c.6.6 1.012.857 1.5 1.5V2.1c0-.63-.55-1.1-1.201-1.1h-15.6Zm11.724 2.805a2.133 2.133 0 0 0-.998.283 2.129 2.129 0 0 0-.992 1.295c-.074.27-.095.55-.057.828a2.136 2.136 0 0 0 1.56 1.783 2.13 2.13 0 0 0 2.612-1.506 2.129 2.129 0 0 0-2.125-2.683Z"/><path d="M15.208 19.011c.436 0 .79-.327.79-.763v-5.4l2.059 2.455a.79.79 0 0 0 1.212-1.015l-3.352-3.995a.79.79 0 0 0-.996-.179.786.786 0 0 0-.299.221l-3.35 3.99a.79.79 0 1 0 1.21 1.017L14.5 12.9v5.3c0 .437.272.811.709.811Z"/></svg>