<svg viewBox="0 0 20 20" xmlns="http://www.w3.org/2000/svg" fill-rule="evenodd" clip-rule="evenodd" stroke-linejoin="round" stroke-miterlimit="1.414"><path d="M2.001 13.298l4.437-3.92a.753.753 0 0 1 1.033.038l3.953 3.737 2.638-2.434a.753.753 0 0 1 1.022.004L18 13.5V3.455H2v9.843h.001zm0 2.001v1.246H18v-.975l-3.432-3.275-3.928 3.625a.75.75 0 0 1-1.018-1.102l.697-.643-3.422-3.2-4.895 4.324h-.001zM1.751 2H18.25c.69 0 1.251.543 1.251 1.212v13.576c0 .67-.56 1.212-1.251 1.212H1.75c-.69 0-1.251-.543-1.251-1.212V3.212C.499 2.542 1.059 2 1.75 2h.001zM14.7 9.35a2.261 2.261 0 0 1-2.25-2.25 2.261 2.261 0 0 1 2.25-2.25 2.261 2.261 0 0 1 2.25 2.25 2.261 2.261 0 0 1-2.25 2.25zm0-1.5c.411 0 .75-.339.75-.75a.754.754 0 0 0-.75-.75.754.754 0 0 0-.75.75c0 .411.339.75.75.75z" fill-rule="nonzero"/></svg>