<svg width="20" height="20" viewBox="0 0 20 20" xmlns="http://www.w3.org/2000/svg"><path d="M2 14.994C2 16.102 2.895 17 3.994 17h12.012A2 2 0 0 0 18 14.994V5.006A2.001 2.001 0 0 0 16.006 3H3.994A2 2 0 0 0 2 5.006v9.988zm1-9.992C3 4.45 3.45 4 4.007 4h11.986A1.01 1.01 0 0 1 17 5.002v9.996C17 15.55 16.55 16 15.993 16H4.007A1.01 1.01 0 0 1 3 14.998V5.002zm1.024 10H16v-3.096l-2.89-4.263-3.096 5.257-3.003-2.103L4 13.96l.024 1.043zM6.406 6A1.4 1.4 0 0 0 5 7.393a1.4 1.4 0 0 0 1.406 1.393 1.4 1.4 0 0 0 1.407-1.393A1.4 1.4 0 0 0 6.406 6z" fill="#454545" fill-rule="evenodd"/></svg>