<svg viewBox="0 0 20 20" xmlns="http://www.w3.org/2000/svg"><g clip-path="url(#clip0_355_284)"><path d="M1.201 1C.54 1 0 1.47 0 2.1v12.863C0 15.603.548 16 1.2 16H8c.022-1.034.222-1.961.783-2.9L9.5 12 6.617 9.15a.694.694 0 0 0-.957-.033L1.5 13.5v-11h15v5.8c.58.188 1.012.43 1.5.8v-7c0-.63-.547-1.1-1.2-1.1H1.202Zm11.723 2.805a2.133 2.133 0 0 0-.996.283 2.131 2.131 0 0 0-.994 1.295 2.136 2.136 0 0 0 1.506 2.611 2.13 2.13 0 0 0 2.61-1.505 2.128 2.128 0 0 0-2.126-2.684Z"/><path d="M16.63 10.294a3.003 3.003 0 0 0-4.142.887l-.117.177a.649.649 0 0 0-.096.493.665.665 0 0 0 .278.417.7.7 0 0 0 .944-.233 1.741 1.741 0 0 1 2.478-.464 1.869 1.869 0 0 1 .476 2.55.634.634 0 0 0-.071.5.648.648 0 0 0 .309.397.628.628 0 0 0 .869-.19l.027-.042a3.226 3.226 0 0 0-.956-4.492Zm-6.061 3.781-.044.065a3.228 3.228 0 0 0 .82 4.404 3.005 3.005 0 0 0 4.275-.799l.13-.196a.626.626 0 0 0 .092-.475.642.642 0 0 0-.268-.402.713.713 0 0 0-.99.26l-.018.028a1.742 1.742 0 0 1-2.477.462 1.87 1.87 0 0 1-.476-2.551l.03-.047a.647.647 0 0 0 .086-.485.66.66 0 0 0-.275-.407l-.04-.027a.609.609 0 0 0-.845.17Z"/><path d="M15.312 13.925c.24-.36.154-.837-.19-1.067-.346-.229-.82-.123-1.059.237l-1.268 1.907c-.239.36-.153.837.192 1.066.345.23.818.124 1.057-.236l1.268-1.907Z"/></g><defs><clipPath id="clip0_355_284"><rect width="20" height="20"/></clipPath></defs></svg>