<svg width="27" height="21" viewBox="0 0 27 21" fill="none" xmlns="http://www.w3.org/2000/svg">
<path d="M24.4781 0H2.52189C1.13485 0 0 1.16397 0 2.58661V18.4134C0 19.836 1.13485 21 2.52189 21H24.4781C25.8651 21 27 19.836 27 18.4134V2.58661C27 1.16397 25.8809 0 24.4781 0ZM1.26095 2.58661C1.26095 1.87529 1.82837 1.2933 2.52189 1.2933H24.4781C25.1716 1.2933 25.7391 1.87529 25.7391 2.58661V15.8753L21.7355 10.7991C21.373 10.3464 20.8529 10.0716 20.2697 10.0393C19.7023 10.0069 19.1349 10.2171 18.7408 10.6374L16.8179 12.5935L12.8932 7.37182C12.5149 6.8545 11.9317 6.56351 11.3012 6.56351C10.6708 6.56351 10.0876 6.8545 9.70928 7.37182L1.26095 18.5427C1.26095 18.5104 1.26095 18.4619 1.26095 18.4296V2.58661ZM2.04904 19.6259L10.6865 8.18014C10.8284 7.98614 11.049 7.87298 11.2855 7.87298C11.5219 7.87298 11.7426 7.98614 11.8844 8.18014L20.6007 19.7229H2.52189C2.34851 19.7067 2.19089 19.6744 2.04904 19.6259ZM24.4781 19.7067H22.035L22.1454 19.6259L17.5902 13.5958L19.6235 11.5266C19.7811 11.3649 19.986 11.2841 20.2067 11.3002C20.4273 11.3164 20.6165 11.4134 20.7583 11.5912L25.7391 17.9122V18.4134C25.7391 19.1409 25.1716 19.7067 24.4781 19.7067Z" fill="#636363"/>
<path d="M18.5045 8.19618C19.8128 8.19618 20.8846 7.09687 20.8846 5.75507C20.8846 4.41327 19.8128 3.31396 18.5045 3.31396C17.1963 3.31396 16.1245 4.41327 16.1245 5.75507C16.1245 7.09687 17.1963 8.19618 18.5045 8.19618ZM18.5045 4.60727C19.1193 4.60727 19.6236 5.12459 19.6236 5.75507C19.6236 6.38556 19.1193 6.90288 18.5045 6.90288C17.8898 6.90288 17.3855 6.38556 17.3855 5.75507C17.3855 5.12459 17.8898 4.60727 18.5045 4.60727Z" fill="#636363"/>
</svg>
