<svg viewBox="0 0 21 21" xmlns="http://www.w3.org/2000/svg"><path clip-rule="evenodd" d="M10.676 18.15a5.973 5.973 0 0 1-1.126-3.5c0-.792.154-1.549.433-2.241l-2.05-1.903a.5.5 0 0 0-.721.044L2.55 16.06V3.65h4.5l2 2h9v3.544c.55.252 1.055.585 1.5.984V5.65a1.5 1.5 0 0 0-1.5-1.5H9.672L8.11 2.59a1.5 1.5 0 0 0-1.06-.44h-4.5a1.5 1.5 0 0 0-1.5 1.5v13a1.5 1.5 0 0 0 1.5 1.5h8.126Zm5.163-9.493a1.9 1.9 0 1 0-3.442.887 5.972 5.972 0 0 1 3.442-.887Z"/><path d="M15.55 19.65a5 5 0 1 1 0-10 5 5 0 0 1 0 10Zm.5-5.5v-2h-1v2h-2v1h2v2h1v-2h2v-1h-2Z"/></svg>