<svg viewBox="0 0 20 20" xmlns="http://www.w3.org/2000/svg"><path d="M1.267.83C.604.83.072 1.34.072 1.97v12.862c0 .64.531 1.152 1.183 1.152h6.453V9.976l-1.021-.955a.692.692 0 0 0-.955-.033L1.7 13.419V2.427h14.742v6.717h1.629V1.97c0-.63-.532-1.14-1.184-1.14H1.267Zm11.729 2.845a2.129 2.129 0 0 0-1.621.832 2.127 2.127 0 0 0 1.136 3.356 2.13 2.13 0 0 0 1.852-3.748 2.135 2.135 0 0 0-1.367-.44Z"/><path clip-rule="evenodd" d="M19.928 12.14v6.187a.844.844 0 0 1-.843.843h-8.72a.844.844 0 0 1-.843-.843v-7.313a.844.844 0 0 1 .844-.844h2.531c.224 0 .438.09.596.248l.879.877h4.713a.843.843 0 0 1 .843.844Zm-1.52.653h-4.386l-1.125-1.133H11v5.978h7.41v-4.845Z"/></svg>