<svg viewBox="0 0 20 20" xmlns="http://www.w3.org/2000/svg"><path d="M1.201 1C.54 1 0 1.47 0 2.1v12.86c0 .64.448 1.029 1.1 1.039h6.4v-6l-.885-.85a.692.692 0 0 0-.955-.033L1.5 13.5v-11h15V10H18V2.1c0-.63-.547-1.1-1.2-1.1H1.202Zm11.723 2.805a2.129 2.129 0 0 0-1.621.832A2.125 2.125 0 0 0 11.146 7a2.13 2.13 0 0 0 3.905-.512 2.135 2.135 0 0 0-.76-2.244 2.13 2.13 0 0 0-1.367-.44Z"/><path clip-rule="evenodd" d="M19.5 12.5v6.156c0 .224-.192.439-.35.597a.844.844 0 0 1-.597.247H9.834a.844.844 0 0 1-.843-.844v-7.312a.844.844 0 0 1 .843-.844h2.532c.223 0 .476.049.634.207l1 .793h4.5c.224 0 .491.214.65.372.158.158.35.404.35.628ZM18 13h-4.5l-1-1h-2v6H18v-5Z"/></svg>