<svg viewBox="0 0 20 20" xmlns="http://www.w3.org/2000/svg"><path d="M1.647.836c-.662 0-1.195.51-1.195 1.14V14.84c0 .641.532 1.15 1.184 1.15h8.109a5.343 5.343 0 0 1 .807-3.216l.166-.316v-.02l-3.65-3.41a.694.694 0 0 0-.958-.033l-4.029 4.433V2.433h14.74V8.23c.554.06 1.105.212 1.631.46V1.977c0-.63-.534-1.14-1.186-1.14H1.648ZM13.376 3.68a2.125 2.125 0 0 0-1.99 1.578 2.138 2.138 0 0 0 .21 1.618 2.134 2.134 0 0 0 2.913.78 2.13 2.13 0 0 0-1.133-3.976Z"/><path d="M18.06 10.349a3.003 3.003 0 0 0-4.141.887l-.118.177a.649.649 0 0 0-.096.492.665.665 0 0 0 .278.418.7.7 0 0 0 .944-.234 1.741 1.741 0 0 1 2.478-.463 1.869 1.869 0 0 1 .476 2.55.634.634 0 0 0-.07.5.646.646 0 0 0 .308.396.628.628 0 0 0 .869-.19l.027-.041a3.226 3.226 0 0 0-.956-4.492ZM12 14.129l-.044.066a3.228 3.228 0 0 0 .82 4.403 3.005 3.005 0 0 0 4.274-.798l.13-.197a.626.626 0 0 0 .093-.475.642.642 0 0 0-.269-.402.713.713 0 0 0-.99.26l-.018.029a1.742 1.742 0 0 1-2.477.462 1.87 1.87 0 0 1-.475-2.552l.03-.046a.647.647 0 0 0 .085-.485.66.66 0 0 0-.275-.408l-.04-.027a.609.609 0 0 0-.845.17Z"/><path d="M16.743 13.98c.239-.36.153-.838-.192-1.067-.345-.23-.818-.124-1.057.236l-1.268 1.907c-.24.36-.154.838.191 1.067.345.23.819.123 1.058-.236l1.268-1.907Z"/></svg>