<svg viewBox="0 0 20 20" xmlns="http://www.w3.org/2000/svg"><path clip-rule="evenodd" d="M6.476 9.208a.678.678 0 0 0-.936-.032l-3.945 4.338V2.754h14.43v5.633a5.673 5.673 0 0 1 1.594.464V2.307c0-.617-.521-1.117-1.159-1.117H1.17C.52 1.19 0 1.69 0 2.307v12.59c0 .627.521 1.127 1.159 1.127h8.716a5.703 5.703 0 0 1-.351-1.976c0-.607.094-1.191.27-1.74l-3.318-3.1Zm4.172-2.877a2.086 2.086 0 1 0 4.137-.541 2.086 2.086 0 0 0-4.137.541Z"/><path clip-rule="evenodd" d="M15.238 18.81a4.762 4.762 0 1 0 0-9.524 4.762 4.762 0 0 0 0 9.524Zm.58-1.801a.63.63 0 0 1-1.26 0v-4.132l-1.541 1.838a.63.63 0 0 1-.965-.81l2.67-3.18a.626.626 0 0 1 .238-.176.63.63 0 0 1 .793.143l2.671 3.183a.63.63 0 0 1-.965.809l-1.64-1.957v4.282Z"/></svg>