<svg viewBox="0 0 20 20" xmlns="http://www.w3.org/2000/svg" fill-rule="evenodd" clip-rule="evenodd" stroke-linejoin="round" stroke-miterlimit="1.414"><path d="M17.084 3.988l.053.005.076.008.097.014.096.019.093.022.09.026.091.029.09.034.087.038.084.041.083.044.082.049.079.053.075.055.073.059.071.063.067.066.064.067.062.073.057.075.054.078.05.081.046.081.042.085.039.088.033.088.03.09.025.092.021.094.016.095.011.095.007.096.002.083v8.025l-.002.09-.008.102-.013.1-.017.097-.023.097-.027.096-.032.094-.036.091-.039.088-.045.087-.048.084-.052.081-.056.078-.058.074-.063.074-.067.069-.069.066-.072.062-.076.06-.078.056-.08.051-.085.049-.087.045-.088.039-.09.036-.095.032-.095.027-.097.022-.098.018-.101.013-.101.007-.088.003H3.016l-.088-.003-.101-.007-.101-.013-.098-.018-.096-.022-.096-.027-.095-.032-.09-.036-.088-.039-.087-.045-.084-.049-.08-.051-.079-.056-.076-.06-.072-.062-.069-.066-.066-.069-.064-.074-.058-.074-.055-.078-.052-.081-.05-.085-.043-.086-.04-.088-.037-.092-.031-.093-.027-.095-.023-.097-.017-.098-.013-.101-.008-.102-.002-.089V5.975l.002-.085.007-.096.011-.094.017-.095.02-.093.025-.092.03-.092.034-.088.038-.087.042-.084.046-.082.05-.082.054-.077.057-.074.062-.074.065-.068.065-.064.072-.064.074-.059.075-.055.078-.052.082-.05.083-.044.084-.041.088-.038.089-.034.091-.029.091-.026.093-.022.095-.019.097-.014.077-.009.053-.004.053-.001h14l.054.001zM3.03 4.987l-.056.006-.055.008-.053.01-.052.013-.051.014-.049.016-.048.019-.047.02-.045.021-.043.024-.042.025-.041.027-.038.028-.037.03-.036.031-.033.033-.032.034-.03.036-.028.036-.027.038-.024.039-.023.041-.02.041-.019.042-.016.043-.014.044-.013.045-.01.046-.008.046-.005.048-.004.047-.001.049v8l.001.051.004.051.007.05.008.049.012.049.013.047.016.046.018.046.02.044.022.043.024.042.026.041.028.039.03.038.031.036.033.035.035.033.036.031.038.03.039.028.041.026.042.024.043.022.044.02.045.018.047.016.047.013.049.011.049.009.05.007.051.003.051.002h14l.052-.002.05-.003.05-.007.05-.009.048-.011.047-.013.047-.016.045-.018.044-.02.044-.022.041-.024.041-.026.039-.028.038-.03.036-.031.035-.033.033-.035.032-.036.029-.038.028-.039.026-.041.024-.042.022-.043.02-.044.018-.046.016-.046.014-.047.011-.049.009-.049.006-.05.004-.051.001-.051v-8l-.001-.049-.004-.047-.005-.048-.008-.046-.01-.046-.012-.045-.015-.044-.016-.043-.019-.042-.02-.041-.023-.041-.024-.039-.027-.038-.028-.036-.03-.036-.032-.034-.033-.033-.036-.031-.037-.03-.038-.028-.041-.027-.042-.025-.043-.024-.045-.021-.047-.02-.048-.019-.049-.016-.051-.014-.052-.013-.053-.01-.055-.008-.056-.006h-14zM7 8H6v4h1v1H4v-1h1V8H4V7h3v1z"/></svg>