<?xml version="1.0" encoding="UTF-8" standalone="no"?><svg width="100%" height="100%" viewBox="0 0 20 20" version="1.1" xmlns="http://www.w3.org/2000/svg" xmlns:xlink="http://www.w3.org/1999/xlink" xml:space="preserve" style="fill-rule:evenodd;clip-rule:evenodd;stroke-linejoin:round;stroke-miterlimit:1.41421;"><path d="M17.084,3.988l0.053,0.005l0.076,0.008l0.097,0.014l0.096,0.019l0.093,0.022l0.09,0.026l0.091,0.029l0.09,0.034l0.087,0.038l0.084,0.041l0.083,0.044l0.082,0.049l0.079,0.053l0.075,0.055l0.073,0.059l0.071,0.063l0.067,0.066l0.064,0.067l0.062,0.073l0.057,0.075l0.054,0.078l0.05,0.081l0.046,0.081l0.042,0.085l0.039,0.088l0.033,0.088l0.03,0.09l0.025,0.092l0.021,0.094l0.016,0.095l0.011,0.095l0.007,0.096l0.002,0.083l0,8.025l-0.002,0.09l-0.008,0.102l-0.013,0.1l-0.017,0.097l-0.023,0.097l-0.027,0.096l-0.032,0.094l-0.036,0.091l-0.039,0.088l-0.045,0.087l-0.048,0.084l-0.052,0.081l-0.056,0.078l-0.058,0.074l-0.063,0.074l-0.067,0.069l-0.069,0.066l-0.072,0.062l-0.076,0.06l-0.078,0.056l-0.08,0.051l-0.085,0.049l-0.087,0.045l-0.088,0.039l-0.09,0.036l-0.095,0.032l-0.095,0.027l-0.097,0.022l-0.098,0.018l-0.101,0.013l-0.101,0.007l-0.088,0.003l-14.028,0l-0.088,-0.003l-0.101,-0.007l-0.101,-0.013l-0.098,-0.018l-0.096,-0.022l-0.096,-0.027l-0.095,-0.032l-0.09,-0.036l-0.088,-0.039l-0.087,-0.045l-0.084,-0.049l-0.08,-0.051l-0.079,-0.056l-0.076,-0.06l-0.072,-0.062l-0.069,-0.066l-0.066,-0.069l-0.064,-0.074l-0.058,-0.074l-0.055,-0.078l-0.052,-0.081l-0.05,-0.085l-0.043,-0.086l-0.04,-0.088l-0.037,-0.092l-0.031,-0.093l-0.027,-0.095l-0.023,-0.097l-0.017,-0.098l-0.013,-0.101l-0.008,-0.102l-0.002,-0.089l0,-8.024l0.002,-0.085l0.007,-0.096l0.011,-0.094l0.017,-0.095l0.02,-0.093l0.025,-0.092l0.03,-0.092l0.034,-0.088l0.038,-0.087l0.042,-0.084l0.046,-0.082l0.05,-0.082l0.054,-0.077l0.057,-0.074l0.062,-0.074l0.065,-0.068l0.065,-0.064l0.072,-0.064l0.074,-0.059l0.075,-0.055l0.078,-0.052l0.082,-0.05l0.083,-0.044l0.084,-0.041l0.088,-0.038l0.089,-0.034l0.091,-0.029l0.091,-0.026l0.093,-0.022l0.095,-0.019l0.097,-0.014l0.077,-0.009l0.053,-0.004l0.053,-0.001l14,0l0.054,0.001Zm-14.054,0.999l-0.056,0.006l-0.055,0.008l-0.053,0.01l-0.052,0.013l-0.051,0.014l-0.049,0.016l-0.048,0.019l-0.047,0.02l-0.045,0.021l-0.043,0.024l-0.042,0.025l-0.041,0.027l-0.038,0.028l-0.037,0.03l-0.036,0.031l-0.033,0.033l-0.032,0.034l-0.03,0.036l-0.028,0.036l-0.027,0.038l-0.024,0.039l-0.023,0.041l-0.02,0.041l-0.019,0.042l-0.016,0.043l-0.014,0.044l-0.013,0.045l-0.01,0.046l-0.008,0.046l-0.005,0.048l-0.004,0.047l-0.001,0.049l0,8l0.001,0.051l0.004,0.051l0.007,0.05l0.008,0.049l0.012,0.049l0.013,0.047l0.016,0.046l0.018,0.046l0.02,0.044l0.022,0.043l0.024,0.042l0.026,0.041l0.028,0.039l0.03,0.038l0.031,0.036l0.033,0.035l0.035,0.033l0.036,0.031l0.038,0.03l0.039,0.028l0.041,0.026l0.042,0.024l0.043,0.022l0.044,0.02l0.045,0.018l0.047,0.016l0.047,0.013l0.049,0.011l0.049,0.009l0.05,0.007l0.051,0.003l0.051,0.002l14,0l0.052,-0.002l0.05,-0.003l0.05,-0.007l0.05,-0.009l0.048,-0.011l0.047,-0.013l0.047,-0.016l0.045,-0.018l0.044,-0.02l0.044,-0.022l0.041,-0.024l0.041,-0.026l0.039,-0.028l0.038,-0.03l0.036,-0.031l0.035,-0.033l0.033,-0.035l0.032,-0.036l0.029,-0.038l0.028,-0.039l0.026,-0.041l0.024,-0.042l0.022,-0.043l0.02,-0.044l0.018,-0.046l0.016,-0.046l0.014,-0.047l0.011,-0.049l0.009,-0.049l0.006,-0.05l0.004,-0.051l0.001,-0.051l0,-8l-0.001,-0.049l-0.004,-0.047l-0.005,-0.048l-0.008,-0.046l-0.01,-0.046l-0.012,-0.045l-0.015,-0.044l-0.016,-0.043l-0.019,-0.042l-0.02,-0.041l-0.023,-0.041l-0.024,-0.039l-0.027,-0.038l-0.028,-0.036l-0.03,-0.036l-0.032,-0.034l-0.033,-0.033l-0.036,-0.031l-0.037,-0.03l-0.038,-0.028l-0.041,-0.027l-0.042,-0.025l-0.043,-0.024l-0.045,-0.021l-0.047,-0.02l-0.048,-0.019l-0.049,-0.016l-0.051,-0.014l-0.052,-0.013l-0.053,-0.01l-0.055,-0.008l-0.056,-0.006l-14,0Zm3.97,3.013l-1,0l0,4l1,0l0,1l-3,0l0,-1l1,0l0,-4l-1,0l0,-1l3,0l0,1Z"/></svg>
