<svg viewBox="0 0 20 20" xmlns="http://www.w3.org/2000/svg" fill-rule="evenodd" clip-rule="evenodd" stroke-linejoin="round" stroke-miterlimit="1.414"><path d="M5.414 6.749L2.903 4.237a.49.49 0 1 1 .694-.694L6.394 6.34a10.662 10.662 0 0 1 2.127-.53c.366-.051.734-.081 1.103-.095a10.628 10.628 0 0 1 1.524.07c1.109.134 2.204.449 3.243.936a9.65 9.65 0 0 1 2.12 1.331c.276.231.542.484.784.766.18.211.349.439.488.692.169.307.301.664.301 1.039 0 .375-.132.732-.301 1.039a4.143 4.143 0 0 1-.488.691 6.668 6.668 0 0 1-.784.767 9.628 9.628 0 0 1-2.092 1.318l2.196 2.197a.49.49 0 1 1-.694.694l-2.485-2.484-.008.003-.931-.931.009-.003-6.215-6.215a9.887 9.887 0 0 0-.945.444l6.239 6.24-.006.005.78.78c-.388.094-.78.166-1.174.215l-1.11-1.11h.011L4.483 8.596a7.2 7.2 0 0 0-.665.514l-.112.098 4.897 4.897-.005.006 1.276 1.276a10.164 10.164 0 0 1-1.477-.117l-.479-.479-.009.009-4.863-4.863-.022.031a2.563 2.563 0 0 0-.124.2 1.497 1.497 0 0 0-.108.241.534.534 0 0 0-.028.133.29.29 0 0 0 .008.072.927.927 0 0 0 .082.226 2.613 2.613 0 0 0 .234.379l3.463 3.594a10.565 10.565 0 0 1-2.125-1 9.096 9.096 0 0 1-1.015-.721 6.672 6.672 0 0 1-.798-.764 4.325 4.325 0 0 1-.502-.69c-.184-.319-.329-.693-.329-1.089 0-.375.131-.732.301-1.039.139-.253.307-.481.488-.692.225-.263.471-.5.728-.719a9.538 9.538 0 0 1 2.096-1.341l.019-.009zm6.674.401a4.632 4.632 0 0 1 1.108 5.992l.345.344.046-.018a9.313 9.313 0 0 0 2-1.112 6.86 6.86 0 0 0 .727-.613c.137-.134.27-.277.392-.431.072-.091.141-.185.203-.286a1.966 1.966 0 0 0 .148-.292.72.72 0 0 0 .036-.12.29.29 0 0 0 .008-.072.492.492 0 0 0-.028-.133.999.999 0 0 0-.036-.096 2.165 2.165 0 0 0-.071-.145 2.917 2.917 0 0 0-.125-.2 3.592 3.592 0 0 0-.263-.335 5.444 5.444 0 0 0-.53-.523 7.955 7.955 0 0 0-1.054-.768 9.766 9.766 0 0 0-1.879-.891 10.119 10.119 0 0 0-1.027-.301zm-2.85.21l-.069.002a.508.508 0 0 0-.254.097.496.496 0 0 0-.104.679.498.498 0 0 0 .326.199l.045.005c.091.003.181.003.272.012a2.449 2.449 0 0 1 2.017 1.513c.024.061.043.125.069.185a.494.494 0 0 0 .45.287h.008a.496.496 0 0 0 .35-.158.482.482 0 0 0 .13-.335.638.638 0 0 0-.048-.219 3.379 3.379 0 0 0-.36-.723 3.438 3.438 0 0 0-2.791-1.543l-.028-.001h-.013z"/></svg>