<svg viewBox="0 0 20 20" xmlns="http://www.w3.org/2000/svg"><path d="M5.085 6.22 2.943 4.078a.75.75 0 1 1 1.06-1.06l2.592 2.59A11.094 11.094 0 0 1 10 5.068c4.738 0 8.578 3.101 8.578 5.083 0 1.197-1.401 2.803-3.555 3.887l1.714 1.713a.75.75 0 0 1-.09 1.138.488.488 0 0 1-.15.084.75.75 0 0 1-.821-.16L6.17 7.304c-.258.11-.51.233-.757.365l6.239 6.24-.006.005.78.78c-.388.094-.78.166-1.174.215l-1.11-1.11h.011L4.55 8.197a7.2 7.2 0 0 0-.665.514l-.112.098 4.897 4.897-.005.006 1.276 1.276a10.164 10.164 0 0 1-1.477-.117l-.479-.479-.009.009-4.863-4.863-.022.031a2.563 2.563 0 0 0-.124.2c-.043.077-.08.158-.108.241a.534.534 0 0 0-.028.133.29.29 0 0 0 .008.072.927.927 0 0 0 .082.226c.067.133.145.26.234.379l3.242 3.365.025.01.59.623c-3.265-.918-5.59-3.155-5.59-4.668 0-1.194 1.448-2.838 3.663-3.93zm7.07.531a4.632 4.632 0 0 1 1.108 5.992l.345.344.046-.018a9.313 9.313 0 0 0 2-1.112c.256-.187.5-.392.727-.613.137-.134.27-.277.392-.431.072-.091.141-.185.203-.286.057-.093.107-.19.148-.292a.72.72 0 0 0 .036-.12.29.29 0 0 0 .008-.072.492.492 0 0 0-.028-.133.999.999 0 0 0-.036-.096 2.165 2.165 0 0 0-.071-.145 2.917 2.917 0 0 0-.125-.2 3.592 3.592 0 0 0-.263-.335 5.444 5.444 0 0 0-.53-.523 7.955 7.955 0 0 0-1.054-.768 9.766 9.766 0 0 0-1.879-.891c-.337-.118-.68-.219-1.027-.301zm-2.85.21-.069.002a.508.508 0 0 0-.254.097.496.496 0 0 0-.104.679.498.498 0 0 0 .326.199l.045.005c.091.003.181.003.272.012a2.45 2.45 0 0 1 2.017 1.513c.024.061.043.125.069.185a.494.494 0 0 0 .45.287h.008a.496.496 0 0 0 .35-.158.482.482 0 0 0 .13-.335.638.638 0 0 0-.048-.219 3.379 3.379 0 0 0-.36-.723 3.438 3.438 0 0 0-2.791-1.543l-.028-.001h-.013z"/></svg>
