<?xml version="1.0" encoding="UTF-8" standalone="no"?><svg width="100%" height="100%" viewBox="0 0 20 20" version="1.1" xmlns="http://www.w3.org/2000/svg" xmlns:xlink="http://www.w3.org/1999/xlink" xml:space="preserve" style="fill-rule:evenodd;clip-rule:evenodd;stroke-linejoin:round;stroke-miterlimit:1.41421;"><path d="M5.414,6.749l-2.511,-2.512c-0.192,-0.191 -0.192,-0.502 0,-0.694c0.192,-0.192 0.503,-0.192 0.694,0l2.797,2.797c0.695,-0.251 1.407,-0.428 2.127,-0.53c0.366,-0.051 0.734,-0.081 1.103,-0.095c0.137,-0.003 0.275,-0.005 0.412,-0.004c0.371,0.006 0.742,0.029 1.112,0.074c1.109,0.134 2.204,0.449 3.243,0.936c0.743,0.347 1.464,0.782 2.12,1.331c0.276,0.231 0.542,0.484 0.784,0.766c0.18,0.211 0.349,0.439 0.488,0.692c0.169,0.307 0.301,0.664 0.301,1.039c0,0.375 -0.132,0.732 -0.301,1.039c-0.139,0.252 -0.308,0.481 -0.488,0.691c-0.242,0.283 -0.508,0.535 -0.784,0.767c-0.647,0.542 -1.359,0.973 -2.092,1.318l2.196,2.197c0.192,0.191 0.192,0.503 0,0.694c-0.191,0.192 -0.503,0.192 -0.694,0l-2.485,-2.484l-0.008,0.003l-0.931,-0.931l0.009,-0.003l-6.215,-6.215c-0.321,0.131 -0.636,0.278 -0.945,0.444l6.239,6.24l-0.006,0.005l0.78,0.78c-0.388,0.094 -0.78,0.166 -1.174,0.215l-1.11,-1.11l0.011,0l-5.603,-5.603c-0.229,0.157 -0.452,0.328 -0.665,0.514c-0.038,0.032 -0.075,0.065 -0.112,0.098l4.897,4.897l-0.005,0.006l1.276,1.276c-0.494,-0.003 -0.987,-0.042 -1.477,-0.117l-0.479,-0.479l-0.009,0.009l-4.863,-4.863c-0.007,0.01 -0.015,0.021 -0.022,0.031c-0.044,0.065 -0.086,0.131 -0.124,0.2c-0.026,0.047 -0.05,0.095 -0.071,0.145c-0.014,0.031 -0.026,0.063 -0.037,0.096c-0.013,0.042 -0.026,0.087 -0.028,0.133c-0.001,0.024 0.003,0.049 0.008,0.072c0.009,0.041 0.022,0.082 0.036,0.12c0.014,0.036 0.029,0.072 0.046,0.106c0.031,0.065 0.066,0.126 0.103,0.186c0.041,0.067 0.085,0.131 0.131,0.193l3.463,3.594c-0.281,-0.097 -0.56,-0.206 -0.835,-0.326c-0.44,-0.193 -0.872,-0.417 -1.29,-0.674c-0.35,-0.215 -0.69,-0.454 -1.015,-0.721c-0.281,-0.23 -0.551,-0.482 -0.798,-0.764c-0.184,-0.21 -0.357,-0.438 -0.502,-0.69c-0.184,-0.319 -0.329,-0.693 -0.329,-1.089c0,-0.375 0.131,-0.732 0.301,-1.039c0.139,-0.253 0.307,-0.481 0.488,-0.692c0.225,-0.263 0.471,-0.5 0.728,-0.719c0.647,-0.552 1.36,-0.99 2.096,-1.341l0.019,-0.009l0,0Zm6.674,0.401c1.069,0.849 1.755,2.16 1.755,3.63c0,0.833 -0.224,1.648 -0.647,2.362l0.345,0.344c0.015,-0.006 0.03,-0.012 0.046,-0.018c0.695,-0.285 1.372,-0.649 2,-1.112c0.252,-0.186 0.497,-0.388 0.727,-0.613c0.137,-0.134 0.27,-0.277 0.392,-0.431c0.072,-0.091 0.141,-0.185 0.203,-0.286c0.037,-0.06 0.072,-0.121 0.103,-0.186c0.016,-0.034 0.032,-0.07 0.045,-0.106c0.015,-0.039 0.028,-0.079 0.036,-0.12c0.005,-0.023 0.009,-0.048 0.008,-0.072c-0.002,-0.046 -0.014,-0.091 -0.028,-0.133c-0.01,-0.033 -0.023,-0.065 -0.036,-0.096c-0.022,-0.05 -0.046,-0.098 -0.071,-0.145c-0.039,-0.069 -0.081,-0.135 -0.125,-0.2c-0.081,-0.118 -0.17,-0.229 -0.263,-0.335c-0.166,-0.19 -0.345,-0.362 -0.53,-0.523c-0.333,-0.29 -0.689,-0.543 -1.054,-0.768c-0.601,-0.369 -1.232,-0.664 -1.879,-0.891c-0.338,-0.119 -0.681,-0.219 -1.027,-0.301Zm-2.85,0.21c-0.023,0 -0.046,0.001 -0.069,0.002c-0.092,0.01 -0.18,0.041 -0.254,0.097c-0.163,0.123 -0.234,0.34 -0.175,0.535c0.016,0.051 0.04,0.1 0.071,0.144c0.036,0.05 0.082,0.093 0.133,0.126c0.059,0.038 0.124,0.061 0.193,0.073c0.023,0.003 0.022,0.003 0.045,0.005c0.091,0.003 0.181,0.003 0.272,0.012c0.158,0.016 0.315,0.048 0.467,0.094c0.496,0.151 0.937,0.462 1.246,0.878c0.124,0.167 0.224,0.349 0.304,0.541c0.024,0.061 0.043,0.125 0.069,0.185c0.038,0.077 0.089,0.144 0.159,0.194c0.085,0.062 0.188,0.093 0.291,0.093l0.008,0c0.077,-0.002 0.154,-0.021 0.224,-0.059c0.047,-0.026 0.09,-0.059 0.126,-0.099c0.042,-0.045 0.075,-0.098 0.097,-0.155c0.022,-0.057 0.034,-0.119 0.033,-0.18c0,-0.077 -0.022,-0.147 -0.048,-0.219c-0.015,-0.043 -0.031,-0.085 -0.048,-0.127c-0.084,-0.209 -0.189,-0.409 -0.312,-0.596c-0.436,-0.664 -1.102,-1.164 -1.862,-1.395c-0.214,-0.066 -0.434,-0.11 -0.657,-0.132c-0.09,-0.009 -0.181,-0.014 -0.272,-0.016c-0.009,0 -0.018,0 -0.028,-0.001l-0.013,0Z"/></svg>
