<svg width="20" height="20" xmlns="http://www.w3.org/2000/svg" xmlns:xlink="http://www.w3.org/1999/xlink"><defs><path d="M14.787.18L14.16 0c-.269 0-.538 0-.717.269L1.344 12.278c-.358.358-.358.896 0 1.434.18.18.448.269.717.269.27 0 .538 0 .717-.27L14.877 1.704c.448-.359.448-.896 0-1.434l-.09-.09zM2.42 9.768c.269 0 1.165-.897 2.688-2.689 0-1.882 1.255-3.316 3.047-3.316C9.5 2.599 9.948 1.972 9.948 1.972H8.155C4.302 1.972 0 6.722 0 6.99 1.374 8.843 2.15 9.77 2.33 9.77h.09zm13.443-3.316c-.6-.858-1.255-1.793-2.062-2.33L11.113 6.81v.18c0 1.613-1.344 2.957-2.958 2.957h-.179c-1.165.896-1.792 1.613-1.792 1.613s1.254.269 1.971.269c3.854 0 8.066-4.66 8.066-4.84l-.358-.537z" id="a"/></defs><use fill="#000" fill-rule="nonzero" xlink:href="#a" transform="translate(1.427 3)"/></svg>
