<svg xmlns="http://www.w3.org/2000/svg" viewBox="0 0 20 20"><path d="M2.5 17v1h-1v-1h1zm2 0v1h-1v-1h1zm2 0v1h-1v-1h1zm2 0v1h-1v-1h1zm2 0v1h-1v-1h1zm2 0v1h-1v-1h1zm2 0v1h-1v-1h1zm2 0v1h-1v-1h1zm2 0v1h-1v-1h1zM1 15.5v1H0v-1h1zm19 0v1h-1v-1h1zm-19-2v1H0v-1h1zm19 0v1h-1v-1h1zm-19-2v1H0v-1h1zm19 0v1h-1v-1h1zm-19-2v1H0v-1h1zm19 0v1h-1v-1h1zm-19-2v1H0v-1h1zm19 0v1h-1v-1h1zm-19-2v1H0v-1h1zm19 0v1h-1v-1h1zm0-2v1h-1v-1h1zm-19 0v1H0v-1h1zM14.5 2v1h-1V2h1zm2 0v1h-1V2h1zm2 0v1h-1V2h1zm-8 0v1h-1V2h1zm-2 0v1h-1V2h1zm-2 0v1h-1V2h1zm-2 0v1h-1V2h1zm8 0v1h-1V2h1zm-10 0v1h-1V2h1z"/><path d="M18.095 2H1.905C.853 2 0 2.895 0 4v12c0 1.105.853 2 1.905 2h16.19C19.147 18 20 17.105 20 16V4c0-1.105-.853-2-1.905-2zm0 1.5c.263 0 .476.224.476.5v12c0 .276-.213.5-.476.5H1.905a.489.489 0 0 1-.476-.5V4c0-.276.213-.5.476-.5h16.19z"/></svg>
