<svg xmlns="http://www.w3.org/2000/svg" viewBox="0 0 159.53 141.82"><defs><style>.cls-1{fill:#636363;}</style></defs><g id="Layer_2" data-name="Layer 2"><g id="Layer_1-2" data-name="Layer 1"><path class="cls-1" d="M69.76,118H15A14,14,0,0,1,1,104V37.82a14,14,0,0,1,14-14H69.76a14,14,0,0,1,14,14V104A14,14,0,0,1,69.76,118ZM15,31.82a6,6,0,0,0-6,6V104a6,6,0,0,0,6,6H69.76a6,6,0,0,0,6-6V37.82a6,6,0,0,0-6-6Z"/><path class="cls-1" d="M153.56,8H4A4,4,0,0,1,4,0H153.56a4,4,0,0,1,0,8Z"/><path class="cls-1" d="M155.53,51.85H110.26a4,4,0,0,1,0-8h45.27a4,4,0,0,1,0,8Z"/><path class="cls-1" d="M155.53,95.71H110.26a4,4,0,0,1,0-8h45.27a4,4,0,0,1,0,8Z"/><path class="cls-1" d="M153.56,141.82H4a4,4,0,0,1,0-8H153.56a4,4,0,0,1,0,8Z"/></g></g></svg>
