<svg xmlns="http://www.w3.org/2000/svg" viewBox="0 0 157.56 141.82"><defs><style>.cls-1{fill:#636363;}</style></defs><g id="Layer_2" data-name="Layer 2"><g id="Layer_1-2" data-name="Layer 1"><path class="cls-1" d="M143.55,118H88.79a14,14,0,0,1-14-14V37.82a14,14,0,0,1,14-14h54.76a14,14,0,0,1,14,14V104A14,14,0,0,1,143.55,118ZM88.79,31.82a6,6,0,0,0-6,6V104a6,6,0,0,0,6,6h54.76a6,6,0,0,0,6-6V37.82a6,6,0,0,0-6-6Z"/><path class="cls-1" d="M153.56,8H4A4,4,0,0,1,4,0H153.56a4,4,0,0,1,0,8Z"/><path class="cls-1" d="M49.27,51.85H4a4,4,0,0,1,0-8H49.27a4,4,0,0,1,0,8Z"/><path class="cls-1" d="M49.27,95.71H4a4,4,0,0,1,0-8H49.27a4,4,0,0,1,0,8Z"/><path class="cls-1" d="M153.56,141.82H4a4,4,0,0,1,0-8H153.56a4,4,0,0,1,0,8Z"/></g></g></svg>
