<svg xmlns="http://www.w3.org/2000/svg" viewBox="0 0 20 20"><path d="M2.5 17v1h-1v-1h1zm2 0v1h-1v-1h1zm2 0v1h-1v-1h1zm2 0v1h-1v-1h1zm2 0v1h-1v-1h1zm2 0v1h-1v-1h1zm2 0v1h-1v-1h1zm2 0v1h-1v-1h1zm2 0v1h-1v-1h1zM1 15.5v1H0v-1h1zm19 0v1h-1v-1h1zm-19-2v1H0v-1h1zm19 0v1h-1v-1h1zm-19-2v1H0v-1h1zm19 0v1h-1v-1h1zm-19-2v1H0v-1h1zm19 0v1h-1v-1h1zm-19-2v1H0v-1h1zm19 0v1h-1v-1h1zm-19-2v1H0v-1h1zm19 0v1h-1v-1h1zm0-2v1h-1v-1h1zm-19 0v1H0v-1h1zM14.5 2v1h-1V2h1zm2 0v1h-1V2h1zm2 0v1h-1V2h1zm-8 0v1h-1V2h1zm-2 0v1h-1V2h1zm-2 0v1h-1V2h1zm-2 0v1h-1V2h1zm8 0v1h-1V2h1zm-10 0v1h-1V2h1z"/><path d="M7 10H2a2 2 0 0 0-2 2v4a2 2 0 0 0 2 2h5a2 2 0 0 0 2-2v-4a2 2 0 0 0-2-2zm0 1.5a.5.5 0 0 1 .5.5v4a.5.5 0 0 1-.5.5H2a.5.5 0 0 1-.5-.5v-4a.5.5 0 0 1 .5-.5h5z"/></svg>
