<svg width="20" height="20" viewBox="0 0 20 20" xmlns="http://www.w3.org/2000/svg"><path d="M15.498 5.663L7.3 17.37l-.002.004-.059.084-.003-.003c-.225.279-.55.478-.93.538l-4.179.663-.806-4.153a1.494 1.494 0 0 1 .187-1.058l-.003-.002.059-.084.002-.004L9.77 1.64h.002c.956-1.351 2.801-1.076 4.294-.03 1.497 1.047 2.387 2.693 1.433 4.055l-.001-.001zm-5.36-1.935l-6.544 9.346 3.277 2.294 6.544-9.346-3.276-2.294zM6.07 16.512l-3.276-2.295.53 2.73 2.746-.435zm4.924-14.006L14.271 4.8c.316-.452-.16-1.333-1.065-1.966-.905-.634-1.895-.78-2.212-.328zm-.825 2.167l.815.58-5.686 8.003-.816-.579 5.687-8.004zM8 18.5L9.375 17H19v1.5H8z" fill="#333" fill-rule="nonzero"/></svg>