<svg width="20" height="20" viewBox="0 0 20 20" xmlns="http://www.w3.org/2000/svg"><path d="M7.3 17.37l-.061.088a1.516 1.516 0 0 1-.934.535l-4.178.663-.806-4.153a1.494 1.494 0 0 1 .187-1.058l.056-.086L8.77 2.639c.958-1.351 2.803-1.076 4.296-.03 1.497 1.047 2.387 2.693 1.433 4.055L7.3 17.37zM9.14 4.728l-5.545 8.346 3.277 2.294 5.544-8.346L9.14 4.728zM6.07 16.512l-3.276-2.295.53 2.73 2.746-.435zM9.994 3.506L13.271 5.8c.316-.452-.16-1.333-1.065-1.966-.905-.634-1.895-.78-2.212-.328zM9.17 5.673l.815.58-4.686 7.003-.816-.579L9.17 5.673zM8 18.5L9.375 17H19v1.5H8z" fill="#333" fill-rule="nonzero"/></svg>