<svg xmlns="http://www.w3.org/2000/svg" viewBox="0 0 83.3 83.31"><defs><style>.cls-1{fill:#9e9e9e;}</style></defs><title>Asset 117</title><g id="Layer_2" data-name="Layer 2"><g id="Layer_1-2" data-name="Layer 1"><path class="cls-1" d="M78.8,4.51A15.15,15.15,0,0,0,68.69,0,13.33,13.33,0,0,0,58.57,3.89L53.68,8.78a2.83,2.83,0,0,0-.23.28,2.65,2.65,0,0,0-.26.21L6.51,56a3.22,3.22,0,0,0-.85,1.5L.1,79.26a3.25,3.25,0,0,0,3.15,4,3.08,3.08,0,0,0,.8-.1l21.81-5.56a3.22,3.22,0,0,0,1.5-.85L74,30.11a2.75,2.75,0,0,0,.22-.26l.27-.22,4.89-4.89h0C84.83,19.33,84.55,10.26,78.8,4.51ZM23.39,71.57l-15.64,4,4-15.64L55.49,16.16,67.15,27.82ZM74.82,20.14l-2.59,2.6L60.57,11.08l2.6-2.6a7,7,0,0,1,5.26-2,8.65,8.65,0,0,1,5.77,2.6C77.42,12.32,77.69,17.27,74.82,20.14Z"/></g></g></svg>
