<?xml version="1.0" encoding="utf-8"?>
<!-- Generator: Adobe Illustrator 22.0.0, SVG Export Plug-In . SVG Version: 6.00 Build 0)  -->
<svg version="1.1" id="Layer_1" xmlns="http://www.w3.org/2000/svg" xmlns:xlink="http://www.w3.org/1999/xlink" x="0px" y="0px"
	 viewBox="0 0 512 512" style="enable-background:new 0 0 512 512;" xml:space="preserve">
<style type="text/css">
	.st0{fill:#57656E;}
</style>
<path class="st0" d="M256,512c-68.4,0-132.6-26.6-181-75C26.6,388.7,0,324.5,0,256S26.6,123.3,75,75C123.3,26.6,187.5,0,256,0
	s132.7,26.6,181,75c48.4,48.3,75,112.6,75,181c0,68.4-26.6,132.6-75,181C388.7,485.4,324.5,512,256,512z M256,9.2
	C119.9,9.2,9.2,119.9,9.2,256c0,136.1,110.7,246.8,246.8,246.8c136.1,0,246.8-110.7,246.8-246.8C502.8,119.9,392.1,9.2,256,9.2z"/>
<path class="st0" d="M256,361.9c-5.5,0-10-4.5-10-10V266h-85.8c-5.5,0-10-4.5-10-10c0-5.5,4.5-10,10-10H246v-85.8
	c0-5.5,4.5-10,10-10s10,4.5,10,10V246h85.8c5.5,0,10,4.5,10,10s-4.5,10-10,10H266v85.8C266,357.4,261.5,361.9,256,361.9z"/>
</svg>
