<svg width="20" height="20" viewBox="0 0 20 20" xmlns="http://www.w3.org/2000/svg"><path d="M2 16.232v-3.784c0-1.851.169-3.31.507-4.38.337-1.07.963-2.03 1.875-2.88.749-.695 1.666-1.269 2.752-1.721a.834.834 0 0 1 1.069.386l.591 1.203a.78.78 0 0 1-.407 1.062c-.918.39-1.604.887-2.056 1.484-.574.758-.878 1.767-.91 3.027H8.18c.453 0 .82.355.82.79v4.813c0 .435-.367.79-.82.79H2.82c-.453 0-.82-.355-.82-.79zm9 0v-3.784c0-1.851.169-3.31.507-4.38.337-1.07.963-2.03 1.875-2.88.749-.695 1.666-1.269 2.752-1.721a.834.834 0 0 1 1.069.386l.591 1.203a.78.78 0 0 1-.407 1.062c-.918.39-1.604.887-2.056 1.484-.574.758-.878 1.767-.91 3.027h2.759c.453 0 .82.355.82.79v4.813c0 .435-.367.79-.82.79h-5.36c-.453 0-.82-.355-.82-.79z" fill="#000" fill-rule="nonzero"/></svg>