<svg width="20" height="20" viewBox="0 0 20 20" xmlns="http://www.w3.org/2000/svg"><g fill="#000" fill-rule="nonzero"><path d="M2.5 15.777v-3.504c0-1.715.168-3.066.503-4.057.335-.991.956-1.88 1.86-2.668.743-.643 1.344-1.039 2.422-1.458.4-.159.858-.124 1.056.236l.199.24c.093.179.102.386.026.573a.748.748 0 0 1-.43.41c-.91.362-1.943 1.077-2.65 2.014-.556.74-.82 1.858-.852 3.025h3.502c.45 0 .814.33.814.733v4.456c0 .404-.364.733-.814.733H3.313c-.449 0-.813-.33-.813-.733zM11 15.777v-3.504c0-1.715.168-3.066.503-4.057.335-.991.956-1.88 1.86-2.668.743-.643 1.344-1.039 2.422-1.458.4-.159.858-.124 1.056.236l.199.24c.093.179.102.386.026.573a.748.748 0 0 1-.43.41c-.91.362-1.943 1.077-2.65 2.014-.556.74-.82 1.858-.852 3.025h3.502c.45 0 .814.33.814.733v4.456c0 .404-.364.733-.814.733h-4.823c-.449 0-.813-.33-.813-.733z"/></g></svg>