<svg width="20" height="20" viewBox="0 0 20 20" xmlns="http://www.w3.org/2000/svg"><path d="M12.061 15.51v-.882c1.395-.847 2.345-1.633 2.85-2.358.37-.533.554-1.162.554-1.887 0-.437-.082-.759-.246-.964-.15-.205-.328-.307-.533-.307-.137 0-.328.048-.574.143-.37.123-.67.185-.902.185-.547 0-1.033-.205-1.456-.615-.424-.41-.636-.923-.636-1.538 0-.698.212-1.238.636-1.62a3.002 3.002 0 0 1 2.05-.78c.93 0 1.757.39 2.482 1.17.724.778 1.087 1.742 1.087 2.89 0 1.614-.602 3.084-1.805 4.41-.807.875-1.976 1.593-3.507 2.153zm-8.386 0v-.882c1.394-.847 2.345-1.633 2.85-2.358.37-.533.554-1.162.554-1.887 0-.437-.082-.759-.246-.964-.15-.205-.328-.307-.533-.307-.137 0-.328.048-.574.143-.37.123-.67.185-.903.185-.547 0-1.032-.205-1.456-.615-.424-.41-.636-.923-.636-1.538 0-.698.212-1.238.636-1.62a3.002 3.002 0 0 1 2.051-.78c.93 0 1.757.39 2.481 1.17.725.778 1.087 1.742 1.087 2.89 0 1.614-.601 3.084-1.804 4.41-.807.875-1.976 1.593-3.507 2.153z" fill="#454545" fill-rule="evenodd"/></svg>