<svg width="32" height="21" viewBox="0 0 32 21" fill="none" xmlns="http://www.w3.org/2000/svg">
<path d="M22.7685 20.9362C22.6251 20.9362 22.4976 20.8884 22.3861 20.8088C22.179 20.6494 22.0993 20.3945 22.1471 20.1555L23.4058 15.1047C22.9756 15.0409 22.5454 14.9613 22.1152 14.8338C18.7374 13.846 16.4908 10.5637 16.7457 7.01059C17.0007 3.53715 19.6934 0.637301 23.135 0.111505C25.3656 -0.223093 27.6122 0.430169 29.2852 1.89603C30.9582 3.36188 31.8983 5.49694 31.8664 7.75946C31.8505 8.97038 31.5477 10.1016 30.9901 11.1373C30.2253 12.5394 29.1896 14.3399 27.899 16.0129C26.959 17.2238 25.6843 18.7853 24.1388 20.1236C23.8042 20.4104 23.4536 20.6494 23.0872 20.8566C22.9756 20.9044 22.8641 20.9362 22.7685 20.9362ZM24.2822 1.27463C23.9635 1.27463 23.6448 1.29056 23.3262 1.3543C20.4582 1.78449 18.2275 4.19041 18.0204 7.09026C17.7973 10.0538 19.6775 12.7944 22.4817 13.607C22.8641 13.7185 23.2624 13.7822 23.6926 13.846C23.8998 13.8778 24.1069 13.9097 24.33 13.9575C24.5052 13.9893 24.6486 14.0849 24.7442 14.2443C24.8398 14.4036 24.8717 14.5789 24.8239 14.7382L23.852 18.6737C25.0788 17.5265 26.1145 16.2519 26.9112 15.2321C28.1539 13.6388 29.1577 11.8702 29.8907 10.5159C30.3527 9.67144 30.5917 8.73138 30.6077 7.72759C30.6395 5.84747 29.8588 4.07888 28.4726 2.85202C27.2936 1.83229 25.8118 1.27463 24.2822 1.27463Z" fill="#636363"/>
<path d="M6.03874 21C5.91128 21 5.78381 20.9682 5.67228 20.8885C5.44921 20.7451 5.35361 20.4742 5.41735 20.2034L6.69201 15.0729C6.35741 15.0251 6.00688 14.9613 5.65635 14.8817C2.1829 13.9894 -0.19115 10.755 0.0159817 7.18592C0.20718 3.56908 2.83616 0.637362 6.42114 0.0956325C8.74739 -0.254899 11.0577 0.446164 12.7626 2.05542C14.4674 3.64874 15.3278 5.89533 15.1207 8.22158C15.0251 9.25724 14.7383 10.2292 14.2762 11.1055C12.8741 13.7345 11.3445 15.9492 9.59185 17.909C8.79519 18.8012 7.91886 19.7413 6.85134 20.5539C6.77167 20.6176 6.67607 20.6814 6.56454 20.761C6.51674 20.7929 6.45301 20.8407 6.38927 20.8885C6.29367 20.9682 6.16621 21 6.03874 21ZM7.58427 1.27469C7.2656 1.27469 6.931 1.30656 6.61234 1.35436C3.63282 1.81642 1.44997 4.23827 1.29064 7.26559C1.11537 10.2292 3.09109 12.906 5.97501 13.6548C6.30961 13.7345 6.66014 13.7982 7.0266 13.846C7.2178 13.8779 7.39307 13.8938 7.58427 13.9257C7.75953 13.9575 7.91886 14.0531 8.01446 14.2125C8.11006 14.3559 8.14193 14.5471 8.09413 14.7223L7.10627 18.6738C7.66393 18.148 8.1738 17.6063 8.65179 17.0645C10.3248 15.1844 11.8066 13.0493 13.1609 10.516C13.5592 9.78304 13.7823 8.98638 13.862 8.12598C14.0213 6.18213 13.3043 4.30201 11.8862 2.97955C10.7072 1.88015 9.17759 1.27469 7.58427 1.27469Z" fill="#636363"/>
</svg>
