<?xml version="1.0" encoding="UTF-8" standalone="no"?>
<svg width="20px" height="20px" viewBox="0 0 20 20" version="1.1" xmlns="http://www.w3.org/2000/svg" xmlns:xlink="http://www.w3.org/1999/xlink" xmlns:sketch="http://www.bohemiancoding.com/sketch/ns">
    <!-- Generator: Sketch 3.5.2 (25235) - http://www.bohemiancoding.com/sketch -->
    <title>source</title>
    <desc>Created with Sketch.</desc>
    <defs></defs>
    <g id="Page-1" stroke="none" stroke-width="1" fill="none" fill-rule="evenodd" sketch:type="MSPage">
        <g id="source" sketch:type="MSArtboardGroup" fill="#232323">
            <g id="icon:source" sketch:type="MSLayerGroup" transform="translate(2.000000, 2.000000)">
                <g id="Path-199-+-Path-199-Copy-2" sketch:type="MSShapeGroup">
                    <path d="M13.1155362,5.96137107 L15.5420842,8.16727971 C15.5420842,8.16727971 15.5359174,7.88896426 15.532834,7.74980653 C15.5289593,7.57493346 15.5212098,7.22518734 15.5212098,7.22518734 L9.65170429,13.0562511 L10.567918,13.978505 L16.4374236,8.1474413 L16.9226298,7.66541293 L16.4165492,7.20534892 L13.9982879,5.00697343 L13.1155362,5.96137107 Z M10.1556393,3.27060948 L9.67257863,2.83147214 L10.5470437,1.86954136 L11.038391,2.31621184 L10.1556393,3.27060948 Z M3.11490302,10.8827864 L0.672578629,8.66253589 L0.166498111,8.20247188 L0.651704292,7.72044352 L6.52120984,1.88937977 L7.43742358,2.81163373 L1.56791804,8.64269748 L1.5470437,7.7006051 L3.99765471,9.9283888 L3.11490302,10.8827864 Z M6.07479988,13.573548 L6.54208418,13.9983435 L7.41654925,13.0364127 L6.95755158,12.6191504 L6.07479988,13.573548 Z M2.51844088,15.4303731 L15.4749228,1.4223165 L14.5205606,0.539597559 L1.56407865,14.5476542 L2.51844088,15.4303731 Z" id="Shape"></path>
                </g>
            </g>
        </g>
    </g>
</svg>