<svg width="20" height="20" viewBox="0 0 20 20" xmlns="http://www.w3.org/2000/svg"><path d="M15.116 7.961l2.426 2.206-.01-.417-.01-.525-5.87 5.831.916.923 5.87-5.832.485-.482-.506-.46-2.419-2.198-.882.954zm-2.96-2.69l-.483-.44.874-.961.491.446-.882.955zm-7.041 7.612l-2.442-2.22-.507-.46.486-.483 5.87-5.83.915.922-5.87 5.83-.02-.941 2.45 2.227-.882.955zm2.96 2.69l.467.425.875-.962-.46-.417-.882.955zM4.518 17.43L17.475 3.422l-.954-.882L3.564 16.548l.954.882z" fill="#232323" fill-rule="evenodd"/></svg>