<?xml version="1.0" encoding="UTF-8" standalone="no"?>
<svg width="20px" height="20px" viewBox="0 0 20 20" version="1.1" xmlns="http://www.w3.org/2000/svg" xmlns:xlink="http://www.w3.org/1999/xlink" xmlns:sketch="http://www.bohemiancoding.com/sketch/ns">
    <!-- Generator: Sketch 3.5.2 (25235) - http://www.bohemiancoding.com/sketch -->
    <title>table</title>
    <desc>Created with Sketch.</desc>
    <defs></defs>
    <g id="Page-1" stroke="none" stroke-width="1" fill="none" fill-rule="evenodd" sketch:type="MSPage">
        <g id="table" sketch:type="MSArtboardGroup" fill="#454545">
            <g id="icon:table" sketch:type="MSLayerGroup" transform="translate(2.000000, 4.000000)">
                <path d="M1.99406028,0 C0.892771196,0 0,0.897060126 0,2.00585866 L0,11.9941413 C0,13.1019465 0.894513756,14 1.99406028,14 L14.0059397,14 C15.1072288,14 16,13.1029399 16,11.9941413 L16,2.00585866 C16,0.898053512 15.1054862,0 14.0059397,0 L1.99406028,0 Z M1,2.01750603 L5,2.01750603 L5,5.01750603 L1,5.01750603 L1,2.01750603 Z M6,2.01750603 L10,2.01750603 L10,5.01750603 L6,5.01750603 L6,2.01750603 Z M11,2.01750603 L15,2.01750603 L15,5.01750603 L11,5.01750603 L11,2.01750603 Z M1,6.01750603 L5,6.01750603 L5,9.01750603 L1,9.01750603 L1,6.01750603 Z M6,6.01750603 L10,6.01750603 L10,9.01750603 L6,9.01750603 L6,6.01750603 Z M11,6.01750603 L15,6.01750603 L15,9.01750603 L11,9.01750603 L11,6.01750603 Z M1,10.017506 L5,10.017506 L5,13.017506 L1,13.017506 L1,10.017506 Z M6,10.017506 L10,10.017506 L10,13.017506 L6,13.017506 L6,10.017506 Z M11,10.017506 L15,10.017506 L15,13.017506 L11,13.017506 L11,10.017506 Z" id="path4770" sketch:type="MSShapeGroup"></path>
            </g>
        </g>
    </g>
</svg>