<svg viewBox="0 0 20 20" xmlns="http://www.w3.org/2000/svg"><path d="M3.035 1C2.446 1 2 1.54 2 2.098V10.5h1.5v-8h13v8H18V2.098C18 1.539 17.48 1 16.9 1H3.035Zm10.453 2.61a1.885 1.885 0 0 0-1.442.736 1.89 1.89 0 0 0 1.011 2.976 1.903 1.903 0 0 0 2.253-1.114 1.887 1.887 0 0 0-1.822-2.598ZM7.463 8.163a.611.611 0 0 0-.432.154L5.071 10.5h5.119L7.88 8.348a.628.628 0 0 0-.417-.185Zm6.236 1.059a.62.62 0 0 0-.42.164L12.07 10.5h2.969l-.92-1.113a.618.618 0 0 0-.42-.165ZM.91 11.5a.91.91 0 0 0-.91.912v6.877c0 .505.405.91.91.91h18.178a.91.91 0 0 0 .912-.91v-6.877a.908.908 0 0 0-.912-.912H.91ZM3.668 13h1.947l2.135 5.7H5.898l-.28-.946H3.601l-.278.945H1.516L3.668 13Zm4.947 0h1.801v4.3h2.7v1.4h-4.5V13h-.001Zm4.5 0h5.4v1.4h-1.798v4.3h-1.701v-4.3h-1.9V13h-.001Zm-8.517 1.457-.614 2.059h1.262l-.648-2.059Z"/></svg>