<svg viewBox="0 0 20 20" xmlns="http://www.w3.org/2000/svg"><path fill-rule="evenodd" clip-rule="evenodd" d="M1 10.5a1 1 0 0 0-1 1v7a1 1 0 0 0 1 1h18a1 1 0 0 0 1-1v-7a1 1 0 0 0-1-1H1Zm5.006 7.25-.221-.74h-1.84l-.22.74H2l1.915-5.25h1.961l1.916 5.25H6.006Zm-1.71-1.915h1.138l-.55-1.87h-.03l-.557 1.87ZM8.772 12.5h1.686v3.907h2.694v1.343h-4.38V12.5Zm8.067 5.25v-3.907h1.717V12.5h-5.128v1.343h1.725v3.907h1.686Z"/><path d="M8.013 7.326a.577.577 0 0 0-.797-.028L5.214 9.5h5.126L8.013 7.326ZM11.778 9.5h3.098l-1.015-1.197a.58.58 0 0 0-.788 0L11.778 9.5Zm4.364 0V1.83H3.858V9.5H2.5V1.45c0-.525.444-.95.996-.95h13.017c.543 0 .987.425.987.95V9.5h-1.358Zm-4.576-4.623a1.776 1.776 0 1 0 3.522-.462 1.776 1.776 0 0 0-3.522.462Z"/></svg>
