<svg viewBox="0 0 20 20" xmlns="http://www.w3.org/2000/svg"><path d="M.91 10.488A.909.909 0 0 0 0 11.4v6.877c0 .505.405.91.91.91h18.178a.909.909 0 0 0 .912-.91V11.4a.91.91 0 0 0-.912-.912H.91Zm2.758 1.5h1.947l2.135 5.7H5.898l-.28-.946H3.601l-.278.945H1.516l2.152-5.7Zm4.947 0h1.801v4.3h2.7v1.4h-4.5v-5.7Zm4.5 0h5.4v1.4h-1.798v4.3h-1.701v-4.3h-1.9v-1.4Zm-8.517 1.457-.614 2.059h1.262l-.648-2.06Z"/><path d="M3.035 0C2.446 0 2 .54 2 1.098V9.5h1.5v-8h13v8H18V1.098C18 .539 17.48 0 16.9 0H3.035Zm10.453 2.61a1.885 1.885 0 0 0-1.442.736 1.894 1.894 0 0 0-.376 1.396 1.89 1.89 0 0 0 1.387 1.58c.485.13 1.004.063 1.439-.187a1.887 1.887 0 0 0-1.008-3.526ZM7.463 7.163a.611.611 0 0 0-.432.154L5.071 9.5h5.119L7.88 7.348a.627.627 0 0 0-.417-.184Zm6.236 1.059a.62.62 0 0 0-.42.164L12.07 9.5h2.969l-.92-1.113a.617.617 0 0 0-.42-.164Z"/></svg>