<svg width="20" height="20" viewBox="0 0 20 20" xmlns="http://www.w3.org/2000/svg"><g fill="none" fill-rule="evenodd"><path d="M16.628 4.5c-.154.006-.38.039-.678.1a2.11 2.11 0 0 0-.726.272c-.188.127-.317.388-.388.785-.072.396-.108.88-.108 1.453v5.096c0 .65-.135 1.214-.405 1.693-.27.479-.624.873-1.065 1.18a4.49 4.49 0 0 1-1.375.641c-.482.13-.943.194-1.383.194-.705 0-1.333-.092-1.883-.277-.55-.184-1.013-.433-1.388-.747a3.143 3.143 0 0 1-.834-1.078 2.986 2.986 0 0 1-.28-1.268V5.615c0-.192-.032-.353-.096-.483-.063-.13-.191-.249-.384-.359a1.93 1.93 0 0 0-.528-.186 4.137 4.137 0 0 0-.529-.087v-.586H9.46V4.5c-.154.006-.348.03-.582.075a3.874 3.874 0 0 0-.516.124c-.188.066-.313.176-.376.33a1.313 1.313 0 0 0-.095.504v6.475c0 .313.034.642.103.987.069.344.205.664.409.962.215.303.506.55.875.743.37.193.876.29 1.52.29.606 0 1.114-.097 1.524-.29a2.54 2.54 0 0 0 .97-.76c.226-.297.386-.608.48-.933.093-.325.14-.652.14-.983V7.218c0-.612-.045-1.111-.133-1.5-.088-.388-.217-.642-.388-.763-.192-.138-.455-.245-.788-.322a5.096 5.096 0 0 0-.764-.133v-.586h4.79V4.5z" fill="#454545"/><path fill="#585858" d="M4 17h12v1H4z"/></g></svg>