<?xml version="1.0" encoding="UTF-8"?>
<!DOCTYPE svg PUBLIC "-//W3C//DTD SVG 1.1//EN" "http://www.w3.org/Graphics/SVG/1.1/DTD/svg11.dtd">
<!-- Creator: CorelDRAW -->
<svg xmlns="http://www.w3.org/2000/svg" xml:space="preserve" width="64px" height="64px" style="shape-rendering:geometricPrecision; text-rendering:geometricPrecision; image-rendering:optimizeQuality; fill-rule:evenodd; clip-rule:evenodd"
viewBox="0 -60 800 800"
 xmlns:xlink="http://www.w3.org/1999/xlink">
 <defs>
  <style type="text/css">
   <![CDATA[
    .fil0 {fill:black}
   ]]>
  </style>
 </defs>
 <g id="Layer_x0020_1">
  <metadata id="CorelCorpID_0Corel-Layer"/>
  <path class="fil0" d="M320 0c43.0753,0 78.0128,34.9374 78.0128,78.0128 0,43.0753 -34.9374,78.001 -78.0128,78.001 -43.0753,0 -78.0128,-34.9256 -78.0128,-78.001 0,-43.0753 34.9374,-78.0128 78.0128,-78.0128zm0 483.986c43.0753,0 78.0128,34.9374 78.0128,78.0128 0,43.0753 -34.9374,78.001 -78.0128,78.001 -43.0753,0 -78.0128,-34.9256 -78.0128,-78.001 0,-43.0753 34.9374,-78.0128 78.0128,-78.0128zm0 -241.987c43.0753,0 78.0128,34.9374 78.0128,78.001 0,43.0753 -34.9374,78.0128 -78.0128,78.0128 -43.0753,0 -78.0128,-34.9374 -78.0128,-78.0128 0,-43.0635 34.9374,-78.001 78.0128,-78.001z"/>
 </g>
</svg>
