<svg viewBox="0 0 20 20" xmlns="http://www.w3.org/2000/svg"><path d="M10 6.628a1.5 1.5 0 1 0 0-3 1.5 1.5 0 0 0 0 3Z"/><path d="M8.5 9.125a.3.3 0 0 0-.253-.296L5.11 8.327a.75.75 0 1 1 .388-1.449l4.04.716c.267.072.624.08.893.009l4.066-.724a.75.75 0 1 1 .388 1.45l-3.132.5a.3.3 0 0 0-.253.296v1.357a.3.3 0 0 0 .018.102l1.615 4.438a.75.75 0 0 1-1.41.513l-1.35-3.71a.3.3 0 0 0-.281-.197h-.209a.3.3 0 0 0-.282.198l-1.35 3.711a.75.75 0 0 1-1.41-.513l1.64-4.509a.3.3 0 0 0 .019-.103V9.125Z"/><path clip-rule="evenodd" d="M10 18.5a8.5 8.5 0 1 1 0-17 8.5 8.5 0 0 1 0 17Zm0 1.5c5.523 0 10-4.477 10-10S15.523 0 10 0 0 4.477 0 10s4.477 10 10 10Z"/></svg>