<svg xmlns="http://www.w3.org/2000/svg" viewBox="0 0 20 20"><path d="M4 1.5h12A3.5 3.5 0 0 1 19.5 5v8l-.005.192a3.5 3.5 0 0 1-2.927 3.262l-.062.008v1.813a1.5 1.5 0 0 1-2.193 1.33l-.371-.193-.38-.212a13.5 13.5 0 0 1-3.271-2.63l-.062-.07H4A3.5 3.5 0 0 1 .5 13V5A3.5 3.5 0 0 1 4 1.5M4 3a2 2 0 0 0-2 2v8a2 2 0 0 0 2 2h6.924a11.9 11.9 0 0 0 3.71 3.081l.372.194v-3.268L14.962 15H16a2 2 0 0 0 2-2V5a2 2 0 0 0-2-2z"/><path d="M9.75 5a.75.75 0 0 0-.75.75v2.5H6.5a.75.75 0 0 0 0 1.5H9v2.5a.75.75 0 0 0 1.5 0v-2.5H13a.75.75 0 0 0 0-1.5h-2.5v-2.5A.75.75 0 0 0 9.75 5"/></svg>