<svg width="21" height="21" viewBox="0 0 21 21" fill="none" xmlns="http://www.w3.org/2000/svg">
<path d="M1.2735 13.2655C1.66802 13.1405 2.08939 13.3585 2.2149 13.7528C2.2149 13.7528 2.21729 13.759 2.21881 13.7636C2.22232 13.7741 2.2282 13.7922 2.23639 13.8153C2.25295 13.8622 2.27934 13.9341 2.31549 14.0253C2.38825 14.2088 2.50075 14.4722 2.65728 14.7792C2.97299 15.3983 3.4555 16.1761 4.12994 16.8505C4.83093 17.5515 5.51016 18.0424 6.00982 18.3563C6.25927 18.5131 6.46357 18.6249 6.60162 18.6962C6.67041 18.7317 6.72256 18.7576 6.75592 18.7733C6.77257 18.7812 6.78522 18.7859 6.79205 18.789L6.79791 18.7919C7.17799 18.9558 7.3522 19.397 7.18853 19.7772C7.03477 20.1334 6.63773 20.3103 6.27545 20.1962L6.20318 20.1688L6.19439 20.1649C6.18984 20.1629 6.18304 20.1604 6.17584 20.1571C6.16142 20.1506 6.14164 20.1413 6.11725 20.1298C6.06806 20.1066 5.99897 20.0735 5.91314 20.0292C5.74118 19.9404 5.50045 19.8071 5.21197 19.6259C4.63561 19.2637 3.86379 18.7054 3.06939 17.911C2.24857 17.0902 1.68177 16.1667 1.32135 15.4599C1.14028 15.1047 1.00826 14.7982 0.920957 14.578C0.87738 14.4681 0.844663 14.3785 0.822324 14.3153C0.811213 14.2839 0.802039 14.2583 0.795957 14.2401C0.793068 14.2315 0.790875 14.2241 0.789121 14.2187C0.788318 14.2162 0.786191 14.2118 0.786191 14.2118V14.2089L0.785214 14.2079C0.785214 14.2079 0.785364 14.2072 1.50006 13.9804L0.785214 14.2079C0.660125 13.8132 0.878891 13.3909 1.2735 13.2655Z" fill="#333333"/>
<path d="M13.8141 1.68332C13.9678 1.32715 14.3649 1.15042 14.7272 1.26437L14.7995 1.29171L14.8083 1.29562C14.8128 1.2976 14.8197 1.30026 14.8268 1.30343C14.8412 1.3099 14.8611 1.31935 14.8854 1.33078C14.9345 1.35391 15.0038 1.38713 15.0895 1.43136C15.2614 1.52011 15.5023 1.65351 15.7907 1.83468C16.367 2.19679 17.1389 2.75524 17.9333 3.54953C18.754 4.37031 19.3209 5.29383 19.6813 6.0007C19.8624 6.35582 19.9944 6.66235 20.0817 6.88253C20.1253 6.99244 20.158 7.08208 20.1803 7.14523C20.1914 7.17662 20.2006 7.20228 20.2067 7.22043C20.2096 7.22903 20.2118 7.23651 20.2135 7.24191C20.2143 7.24435 20.2165 7.24875 20.2165 7.24875V7.25168L20.2174 7.25265C20.2151 7.25362 20.1747 7.26686 19.5026 7.48019L20.2174 7.25265C20.3425 7.64737 20.1239 8.06976 19.7292 8.19503C19.3347 8.31995 18.9132 8.102 18.7878 7.70773C18.7878 7.70773 18.7853 7.70147 18.7838 7.69699C18.7803 7.68648 18.7744 7.66835 18.7663 7.64523C18.7497 7.59841 18.7233 7.52644 18.6872 7.43527C18.6144 7.25176 18.5019 6.98836 18.3454 6.68136C18.0297 6.06226 17.5471 5.28448 16.8727 4.61007C16.1718 3.90919 15.4925 3.41813 14.9928 3.10421C14.7435 2.94758 14.539 2.83562 14.401 2.76437C14.3324 2.72894 14.28 2.7029 14.2467 2.68722C14.2302 2.67947 14.2174 2.67465 14.2106 2.6716L14.2047 2.66867C13.8249 2.50463 13.6505 2.06351 13.8141 1.68332Z" fill="#333333"/>
<path d="M11.7906 7.5701C12.171 8.59788 12.9816 9.40843 14.0093 9.78885L17.4996 11.0799L14.0093 12.3709C12.9815 12.7513 12.1709 13.5627 11.7906 14.5906L10.4996 18.0799L9.20855 14.5906C8.82816 13.5626 8.01683 12.7513 6.98883 12.3709L3.49957 11.0799L6.98883 9.78885C8.01676 9.40847 8.82813 8.598 9.20855 7.5701L10.4996 4.07986L11.7906 7.5701Z" fill="#333333"/>
<path d="M17.7994 16.2301C17.7994 15.8159 18.1352 15.4801 18.5494 15.4801C18.9636 15.4801 19.2994 15.8159 19.2994 16.2301C19.2994 16.6443 18.9636 16.9801 18.5494 16.9801C18.1352 16.9801 17.7994 16.6443 17.7994 16.2301Z" fill="#333333"/>
<path d="M15.3004 18.7303C15.3004 18.316 15.6361 17.9803 16.0504 17.9803C16.4646 17.9803 16.8004 18.316 16.8004 18.7303C16.8004 19.1445 16.4646 19.4803 16.0504 19.4803C15.6361 19.4803 15.3004 19.1445 15.3004 18.7303Z" fill="#333333"/>
<path d="M4.29889 2.73098C4.29889 2.31677 4.63467 1.98098 5.04889 1.98098C5.4631 1.98098 5.79889 2.31677 5.79889 2.73098C5.79889 3.1452 5.4631 3.48098 5.04889 3.48098C4.63467 3.48098 4.29889 3.1452 4.29889 2.73098Z" fill="#333333"/>
<path d="M1.79937 5.23111C1.79937 4.81689 2.13516 4.48111 2.54937 4.48111C2.96359 4.48111 3.29937 4.81689 3.29937 5.23111C3.29937 5.64532 2.96359 5.98111 2.54937 5.98111C2.13516 5.98111 1.79937 5.64532 1.79937 5.23111Z" fill="#333333"/>
</svg>
