<svg xmlns="http://www.w3.org/2000/svg" width="18" height="18" fill="none" viewBox="0 0 18 18"><path fill="currentColor" d="M.471 10.832a.675.675 0 0 1 .85.448l.017.047q.022.065.07.189c.066.165.168.402.309.678.284.557.718 1.257 1.325 1.864a9.8 9.8 0 0 0 1.692 1.356 7 7 0 0 0 .671.375l.033.014.005.003a.675.675 0 0 1-.47 1.264l-.065-.025-.008-.004-.017-.007-.052-.024-.184-.09c-.155-.08-.372-.2-.631-.364a11 11 0 0 1-1.929-1.543C1.35 14.274.84 13.443.514 12.807a9 9 0 0 1-.449-1.03l-.024-.068-.006-.02-.002-.005v-.003H.032l.643-.206-.643.205a.676.676 0 0 1 .44-.848M11.758.408a.676.676 0 0 1 .822-.377l.065.025.007.003.017.007.053.025q.066.03.184.09c.154.08.371.2.63.363.52.326 1.214.829 1.929 1.544.739.738 1.249 1.57 1.573 2.206a9 9 0 0 1 .45 1.03l.023.067.006.02.003.006v.003l-.643.205.644-.205a.676.676 0 0 1-1.287.41l-.004-.01-.015-.046-.072-.19a8 8 0 0 0-.307-.678c-.284-.557-.719-1.257-1.326-1.864a9.8 9.8 0 0 0-1.691-1.355 7 7 0 0 0-.672-.375l-.033-.015-.005-.002a.675.675 0 0 1-.351-.887M9.937 5.706a3.38 3.38 0 0 0 1.996 1.997l3.142 1.162-3.142 1.162a3.38 3.38 0 0 0-1.996 1.998l-1.162 3.14-1.162-3.14a3.38 3.38 0 0 0-1.998-1.998l-3.14-1.162 3.14-1.162a3.38 3.38 0 0 0 1.998-1.997l1.162-3.141zm5.407 7.794a.675.675 0 1 1 1.35 0 .675.675 0 0 1-1.35 0m-2.249 2.25a.675.675 0 1 1 1.35 0 .675.675 0 0 1-1.35 0M3.194 1.35a.675.675 0 1 1 1.35 0 .675.675 0 0 1-1.35 0M.944 3.601a.675.675 0 1 1 1.35 0 .675.675 0 0 1-1.35 0"/></svg>