<svg viewBox="0 0 20 20" fill="none" xmlns="http://www.w3.org/2000/svg">
<g transform="scale(0.95238)">
<path d="M14.249 16.3099L14.9408 14.4404C15.1446 13.8897 15.5788 13.4555 16.1295 13.2517L17.999 12.5599L16.1295 11.8682C15.5788 11.6644 15.1446 11.2302 14.9408 10.6794L14.249 8.80994L13.5572 10.6794C13.3535 11.2302 12.9193 11.6644 12.3685 11.8682L10.499 12.5599L12.3685 13.2517C12.9193 13.4555 13.3535 13.8897 13.5572 14.4404L14.249 16.3099Z" fill="#333333"/>
<path d="M14.7495 4.80994C15.1637 4.80994 15.4995 5.14572 15.4995 5.55994C15.4995 5.97415 15.1637 6.30994 14.7495 6.30994H3.74951C3.3353 6.30994 2.99951 5.97415 2.99951 5.55994C2.99951 5.14572 3.3353 4.80994 3.74951 4.80994H14.7495Z" fill="#333333"/>
<path d="M10.7495 8.80994C11.1637 8.80994 11.4995 9.14572 11.4995 9.55994C11.4995 9.97415 11.1637 10.3099 10.7495 10.3099H3.74951C3.3353 10.3099 2.99951 9.97415 2.99951 9.55994C2.99951 9.14572 3.3353 8.80994 3.74951 8.80994H10.7495Z" fill="#333333"/>
<path d="M7.74951 12.8099C8.16373 12.8099 8.49951 13.1457 8.49951 13.5599C8.49951 13.9741 8.16373 14.3099 7.74951 14.3099H3.74951C3.3353 14.3099 2.99951 13.9741 2.99951 13.5599C2.99951 13.1457 3.3353 12.8099 3.74951 12.8099H7.74951Z" fill="#333333"/>
</g>
</svg>
