<svg xmlns="http://www.w3.org/2000/svg" fill="none" viewBox="0 0 20 20"><path fill="#333" d="M1.213 12.634a.714.714 0 0 1 .9.474l.017.05q.023.068.075.2c.07.174.177.425.326.717.3.59.76 1.33 1.402 1.973a10.3 10.3 0 0 0 1.79 1.434 8 8 0 0 0 .711.397l.035.015.005.003a.714.714 0 0 1-.497 1.337l-.07-.026-.008-.003-.017-.008-.056-.026-.194-.096a9 9 0 0 1-.668-.384 11.8 11.8 0 0 1-2.04-1.633c-.783-.782-1.322-1.661-1.666-2.334a10 10 0 0 1-.475-1.09l-.025-.072-.006-.02-.003-.007v-.003H.748l.68-.217-.68.216a.716.716 0 0 1 .465-.897M13.156 1.603a.715.715 0 0 1 .87-.399l.069.026.008.004.018.007.056.026q.07.033.194.096c.164.085.393.212.668.384.549.345 1.284.877 2.04 1.634.782.781 1.322 1.66 1.665 2.334a10 10 0 0 1 .475 1.09l.025.072.007.02.003.007v.003c-.002.001-.04.014-.68.217l.68-.217a.715.715 0 0 1-1.36.434l-.005-.01-.016-.05-.076-.2a9 9 0 0 0-.325-.718c-.3-.59-.76-1.33-1.403-1.972a10.3 10.3 0 0 0-1.79-1.435 8 8 0 0 0-.71-.397l-.035-.015-.006-.002a.714.714 0 0 1-.372-.939M11.23 7.21a3.58 3.58 0 0 0 2.112 2.113l3.324 1.23-3.324 1.229a3.58 3.58 0 0 0-2.113 2.114L10 17.219l-1.23-3.323a3.58 3.58 0 0 0-2.114-2.114l-3.323-1.23 3.323-1.23A3.58 3.58 0 0 0 8.77 7.21L10 3.886zm5.722 8.247a.714.714 0 1 1 1.428 0 .714.714 0 0 1-1.428 0m-2.38 2.381a.714.714 0 1 1 1.428 0 .714.714 0 0 1-1.428 0M4.094 2.6a.714.714 0 1 1 1.429 0 .714.714 0 0 1-1.429 0m-2.38 2.382a.714.714 0 1 1 1.428 0 .714.714 0 0 1-1.428 0"/></svg>