<svg xmlns="http://www.w3.org/2000/svg" fill="none" viewBox="0 0 20 20"><path fill="#333" d="M15.466 12.78c0-.396.42-.613.713-.402l.058.047 3.14 3.079.034.037a.506.506 0 0 1 0 .634l-.034.037-3.14 3.079c-.275.269-.712.093-.765-.278l-.006-.077v-1.398a6 6 0 0 0-1.496.385l-.18.073c-.622.264-1.094.73-1.393 1.101l-.117.153a.46.46 0 0 1-.547.154.49.49 0 0 1-.299-.532l.06-.37c.072-.406.176-.91.32-1.404.187-.643.46-1.34.863-1.765l.108-.11c.938-.91 2.09-1.04 2.681-1.04zm-14.253-.45a.714.714 0 0 1 .9.474l.017.049q.023.069.075.2c.07.175.177.426.326.718.3.59.76 1.33 1.402 1.973a10.3 10.3 0 0 0 1.79 1.434 8 8 0 0 0 .711.397l.035.015.005.003a.714.714 0 0 1-.497 1.337l-.07-.026L5.9 18.9l-.017-.007-.056-.026a9 9 0 0 1-.862-.48 11.8 11.8 0 0 1-2.04-1.633c-.782-.782-1.322-1.662-1.666-2.335a10 10 0 0 1-.475-1.09l-.025-.071-.006-.02-.003-.007v-.003l-.001-.001a.716.716 0 0 1 .465-.898M11.23 6.904a3.58 3.58 0 0 0 2.113 2.113l3.324 1.23-3.324 1.23a3.58 3.58 0 0 0-2.113 2.114L10 16.914 8.77 13.59a3.58 3.58 0 0 0-2.114-2.115l-3.323-1.23 3.323-1.229A3.58 3.58 0 0 0 8.77 6.904L10 3.58zm1.927-5.606a.715.715 0 0 1 .87-.4l.068.027.008.004.018.007.056.026q.072.033.194.096c.164.085.394.212.668.384a11.8 11.8 0 0 1 2.04 1.633c.782.782 1.322 1.662 1.665 2.335a10 10 0 0 1 .476 1.09l.025.071.006.02.003.007v.003l.001.001a.716.716 0 0 1-1.362.433l-.003-.01-.017-.05a8 8 0 0 0-.4-.918c-.302-.589-.761-1.33-1.403-1.972a10.3 10.3 0 0 0-1.79-1.434 8 8 0 0 0-.711-.397l-.035-.015-.005-.003a.714.714 0 0 1-.372-.938M2.428 3.963a.715.715 0 1 1 0 1.43.715.715 0 0 1 0-1.43m2.38-2.381a.714.714 0 1 1 0 1.428.714.714 0 0 1 0-1.428"/></svg>