<svg xmlns="http://www.w3.org/2000/svg" fill="none" viewBox="0 0 20 20"><g fill="#333"><path fill-rule="evenodd" d="M11.221 3.11a4.07 4.07 0 0 1 5.206.444 4.026 4.026 0 0 1 .447 5.183.71.71 0 0 1-.107.864.714.714 0 0 1-.87.109 4.07 4.07 0 0 1-2.71.722l-2.5 2.25a1 1 0 0 1 .014.133v4.56a.715.715 0 0 1-1.429 0v-3.42l-2.55 2.297c-.28.251-.663.356-1.031.283l-1.08-.215L3.6 17.328a.715.715 0 0 1-1.008-1.013l1.01-1.005-.214-1.068c-.074-.37.033-.754.287-1.034l5.847-6.43a4.02 4.02 0 0 1 .725-2.695.712.712 0 0 1 .975-.973m-6.41 10.97.157.781a1 1 0 0 1 .092.092l.795.157 5.74-5.167a4.06 4.06 0 0 1-1.586-1.58zm6.457-8.943a2.6 2.6 0 0 0 .433 3.118 2.64 2.64 0 0 0 3.137.434zm4.151-.572a2.64 2.64 0 0 0-3.137-.434l3.57 3.551a2.6 2.6 0 0 0-.433-3.117" clip-rule="evenodd"/><path d="M4.706 2.247A1.92 1.92 0 0 0 5.838 3.38l1.781.658-1.781.659a1.92 1.92 0 0 0-1.132 1.132l-.658 1.78-.66-1.78a1.92 1.92 0 0 0-1.132-1.132l-1.78-.659 1.78-.658a1.92 1.92 0 0 0 1.132-1.133l.66-1.78z"/></g></svg>