<svg xmlns="http://www.w3.org/2000/svg" viewBox="0 0 18 18">
  <path d="M6.27479 14.9535C6.15109 14.9583 6.02774 14.9374 5.9125 14.8921C5.79727 14.8469 5.69264 14.7783 5.60519 14.6907L1.46879 10.5543C1.38283 10.4713 1.31427 10.372 1.2671 10.2622C1.21993 10.1524 1.1951 10.0343 1.19406 9.91476C1.19303 9.79526 1.2158 9.67675 1.26105 9.56614C1.3063 9.45554 1.37313 9.35505 1.45763 9.27054C1.54214 9.18604 1.64262 9.11921 1.75323 9.07396C1.86384 9.02871 1.98235 9.00594 2.10185 9.00697C2.22135 9.00801 2.33945 9.03284 2.44925 9.08001C2.55906 9.12718 2.65837 9.19574 2.74139 9.2817L6.27479 12.8151L15.2181 3.8718C15.387 3.70304 15.616 3.60828 15.8547 3.60837C16.0935 3.60845 16.3224 3.70337 16.4911 3.87225C16.6599 4.04113 16.7547 4.27013 16.7546 4.50887C16.7545 4.74761 16.6596 4.97654 16.4907 5.1453L6.94529 14.6907C6.85774 14.7784 6.75296 14.8471 6.63756 14.8923C6.52216 14.9375 6.39864 14.9584 6.27479 14.9535Z"/>
</svg>
