<svg xmlns="http://www.w3.org/2000/svg" fill="none" viewBox="0 0 20 20"><path fill="#333" d="M7.706 16.143a.72.72 0 0 1 .726.714.72.72 0 0 1-.726.714H2.868a.72.72 0 0 1-.725-.715.72.72 0 0 1 .725-.713zm3.145-8.516c0-.96 1.08-1.501 1.86-1.006l.15.113 4.587 3.984c.548.476.545 1.32-.008 1.792l-4.587 3.917c-.783.669-2.002.121-2.002-.899v-1.33H2.868a.72.72 0 0 1-.725-.713.72.72 0 0 1 .725-.715h8.225a1.2 1.2 0 0 1 1.21 1.19v1.046l3.977-3.397-3.977-3.454v1.11a1.2 1.2 0 0 1-1.21 1.191H2.868a.72.72 0 0 1-.725-.714.72.72 0 0 1 .725-.714h7.983zm5.759-5.418a1.92 1.92 0 0 0 1.133 1.132l1.78.659-1.78.658a1.92 1.92 0 0 0-1.132 1.133l-.66 1.78-.658-1.78a1.92 1.92 0 0 0-1.132-1.133L12.381 4l1.78-.659a1.92 1.92 0 0 0 1.132-1.132l.658-1.78zM7.706 5.667a.72.72 0 0 1 .726.714.72.72 0 0 1-.726.714H2.868a.72.72 0 0 1-.725-.714.72.72 0 0 1 .725-.714z"/></svg>