<svg viewBox="0 0 20 20" fill="none" xmlns="http://www.w3.org/2000/svg">
<g transform="scale(0.95238)">
<path d="M8.0918 16.95C8.51263 16.95 8.85352 17.2857 8.85352 17.7C8.85324 18.1139 8.51246 18.45 8.0918 18.45H3.01172C2.59102 18.4498 2.25001 18.1131 2.25 17.699C2.25027 17.2851 2.59117 16.9501 3.01172 16.95H8.0918Z" fill="#333333"/>
<path d="M11.3936 8.00854C11.3936 6.99941 12.5283 6.43197 13.3457 6.9519L13.5039 7.07104L18.3203 11.2537C18.8963 11.7541 18.8928 12.6399 18.3125 13.1355L13.4961 17.2488C12.6739 17.9505 11.3938 17.3756 11.3936 16.3044V14.9089H3.01172C2.59108 14.9088 2.25012 14.573 2.25 14.1589C2.25002 13.7448 2.59102 13.4091 3.01172 13.4089H11.6475C12.3488 13.4089 12.9179 13.9686 12.918 14.6589V15.7566L17.0938 12.1892L12.918 8.56226V9.72925C12.9178 10.4195 12.3488 10.9792 11.6475 10.9792H3.01172C2.59108 10.9791 2.25012 10.6433 2.25 10.2292C2.25017 9.81527 2.59111 9.47939 3.01172 9.47925H11.3936V8.00854Z" fill="#333333"/>
<path d="M17.4414 2.31909C17.6452 2.86981 18.0792 3.30476 18.6299 3.50854L20.499 4.19995L18.6299 4.89136C18.0792 5.09514 17.6452 5.53009 17.4414 6.08081L16.749 7.94995L16.0576 6.08081C15.8538 5.53009 15.4199 5.09514 14.8691 4.89136L13 4.19995L14.8691 3.50854C15.4199 3.30476 15.8538 2.86981 16.0576 2.31909L16.749 0.449951L17.4414 2.31909Z" fill="#333333"/>
<path d="M8.0918 5.94995C8.51263 5.94995 8.85352 6.28574 8.85352 6.69995C8.8535 7.11415 8.51262 7.44995 8.0918 7.44995H3.01172C2.59102 7.44981 2.25001 7.11407 2.25 6.69995C2.25 6.28583 2.59101 5.9501 3.01172 5.94995H8.0918Z" fill="#333333"/>
</g>
</svg>
