<svg xmlns="http://www.w3.org/2000/svg" viewBox="0 0 20 20"><path d="M7.591 16.502c.421 0 .762.336.762.75s-.341.75-.762.75h-5.08a.757.757 0 0 1-.761-.751c0-.414.34-.749.761-.749zm3.302-8.942c0-1.009 1.135-1.576 1.952-1.056l.158.12 4.817 4.182c.576.5.572 1.386-.008 1.882L12.996 16.8c-.823.702-2.103.127-2.103-.945V14.46H2.511a.756.756 0 0 1-.761-.75c0-.414.34-.75.761-.75h8.636c.701 0 1.27.56 1.27 1.25v1.098l4.176-3.568-4.175-3.627V9.28c0 .69-.57 1.25-1.271 1.25H2.511a.756.756 0 0 1-.761-.75c0-.414.34-.75.761-.75h8.382zm6.047-5.689c.205.55.639.986 1.19 1.19l1.869.691-1.87.691c-.55.204-.984.64-1.188 1.19l-.692 1.869-.692-1.87a2.01 2.01 0 0 0-1.188-1.189l-1.87-.691 1.87-.691c.55-.204.984-.64 1.188-1.19l.691-1.869zM7.591 5.502c.421 0 .762.336.762.75s-.34.75-.762.75h-5.08a.756.756 0 0 1-.761-.75c0-.414.34-.75.761-.75z"/></svg>