<svg xmlns="http://www.w3.org/2000/svg" viewBox="0 0 20 20"><path d="M.773 12.536a.75.75 0 0 1 .945.498l.018.051a9 9 0 0 0 .42.964c.317.62.799 1.397 1.473 2.072.701.7 1.38 1.191 1.88 1.505a8 8 0 0 0 .746.417l.037.016.005.003a.75.75 0 0 1-.522 1.404l-.072-.027-.01-.004-.018-.008-.058-.027a10 10 0 0 1-.905-.504 12.3 12.3 0 0 1-2.143-1.715c-.82-.82-1.388-1.744-1.748-2.451a10 10 0 0 1-.5-1.145l-.026-.075-.006-.021-.003-.007v-.003l-.001-.001L1 13.25l-.715.228a.75.75 0 0 1 .488-.942M13.314.953a.75.75 0 0 1 .913-.419l.072.028.009.004.018.007.059.028q.075.034.204.1c.172.09.413.223.701.404a12.3 12.3 0 0 1 2.143 1.715c.82.82 1.387 1.744 1.748 2.45a10 10 0 0 1 .499 1.145l.026.075.007.022.003.007v.003h.001c-.002.002-.043.015-.715.228l.715-.227a.751.751 0 0 1-1.43.455l-.004-.011-.017-.052a9 9 0 0 0-.42-.964c-.317-.619-.8-1.397-1.474-2.07a10.8 10.8 0 0 0-1.88-1.507 8 8 0 0 0-.746-.417l-.036-.015-.006-.003a.75.75 0 0 1-.39-.986M11.29 6.84a3.76 3.76 0 0 0 2.22 2.22L17 10.35l-3.49 1.292a3.76 3.76 0 0 0-2.219 2.22L10 17.35l-1.292-3.49a3.76 3.76 0 0 0-2.22-2.22L3 10.35l3.49-1.291A3.76 3.76 0 0 0 8.71 6.84L10 3.35zm6.009 8.66a.75.75 0 1 1 1.5 0 .75.75 0 0 1-1.5 0M14.8 18a.75.75 0 1 1 1.5 0 .75.75 0 0 1-1.5 0M3.798 2.001a.75.75 0 1 1 1.5 0 .75.75 0 0 1-1.5 0m-2.499 2.5a.75.75 0 1 1 1.5 0 .75.75 0 0 1-1.5 0"/></svg>