<svg width="21" height="21" viewBox="0 0 21 21" fill="none" xmlns="http://www.w3.org/2000/svg">
<path d="M16.2393 13.4185C16.2398 13.003 16.6797 12.7752 16.9883 12.9966L17.0489 13.0464L20.3457 16.2788L20.3819 16.3179C20.5384 16.5083 20.5385 16.7936 20.3819 16.9839L20.3457 17.023L17.0489 20.2554C16.7602 20.5379 16.3016 20.3528 16.2452 19.9634L16.2393 19.8824V18.4146C15.8967 18.4544 15.3411 18.5566 14.669 18.8189L14.4805 18.896C13.8261 19.1725 13.331 19.6617 13.0166 20.0523L12.8936 20.2124C12.7294 20.4348 12.4756 20.4377 12.3194 20.3745C12.1614 20.3105 11.9606 20.1167 12.0059 19.816L12.0694 19.4273C12.144 19.0011 12.2533 18.4721 12.4043 17.9527C12.6008 17.2774 12.888 16.5455 13.3106 16.0992L13.4239 15.9849C14.4094 15.0284 15.6182 14.8912 16.2393 14.8912V13.4185Z" fill="#333333"/>
<path d="M1.27348 12.9458C1.66801 12.8208 2.08938 13.0388 2.21489 13.4331C2.21489 13.4331 2.21749 13.44 2.2188 13.4439C2.22232 13.4544 2.22828 13.4728 2.23637 13.4956C2.25295 13.5425 2.27942 13.6146 2.31548 13.7056C2.38825 13.8891 2.50083 14.1527 2.65727 14.4595C2.97298 15.0786 3.4556 15.8565 4.12993 16.5308C4.83085 17.2317 5.5102 17.7228 6.00981 18.0367C6.25917 18.1933 6.46359 18.3053 6.60161 18.3765C6.67032 18.412 6.72258 18.438 6.75591 18.4537C6.77249 18.4614 6.78523 18.4662 6.79204 18.4693L6.7979 18.4722C7.17788 18.6362 7.35217 19.0773 7.18852 19.4576C7.03466 19.8134 6.63758 19.9905 6.27544 19.8765L6.20317 19.8492L6.19438 19.8453C6.18986 19.8433 6.18297 19.8406 6.17583 19.8374C6.16144 19.831 6.14156 19.8215 6.11723 19.8101C6.06808 19.787 5.99888 19.7538 5.91313 19.7095C5.7412 19.6208 5.50036 19.4874 5.21196 19.3062C4.63564 18.9441 3.86371 18.3856 3.06938 17.5913C2.24868 16.7706 1.68177 15.847 1.32134 15.1402C1.14036 14.7852 1.00825 14.4785 0.920945 14.2583C0.877451 14.1486 0.844648 14.0588 0.822312 13.9956C0.811274 13.9644 0.802027 13.9386 0.795945 13.9204C0.79312 13.912 0.790843 13.9043 0.789109 13.899C0.788437 13.8969 0.786179 13.8921 0.786179 13.8921V13.8892L0.785202 13.8882C0.660126 13.4936 0.878958 13.0712 1.27348 12.9458Z" fill="#333333"/>
<path d="M11.7911 7.24955C12.1715 8.27734 12.982 9.08788 14.0098 9.4683L17.5 10.7593L14.0098 12.0503C12.9821 12.4307 12.1715 13.2424 11.7911 14.2701L10.5 17.7593L9.20903 14.2701C8.82863 13.2423 8.0171 12.4307 6.9893 12.0503L3.50005 10.7593L6.9893 9.4683C8.01697 9.08784 8.82867 8.27727 9.20903 7.24955L10.5 3.75932L11.7911 7.24955Z" fill="#333333"/>
<path d="M13.8145 1.36283C13.9683 1.00698 14.3655 0.829987 14.7276 0.943886L14.7999 0.97123L14.8086 0.975136C14.8131 0.977106 14.8202 0.979815 14.8272 0.982948C14.8415 0.98941 14.8616 0.998915 14.8858 1.01029C14.9349 1.03342 15.0043 1.06669 15.0899 1.11088C15.2618 1.19963 15.5028 1.33308 15.7911 1.5142C16.3674 1.87631 17.1393 2.4348 17.9336 3.22904C18.7544 4.04977 19.3213 4.97337 19.6817 5.68021C19.8627 6.03523 19.9948 6.34188 20.0821 6.56205C20.1256 6.67182 20.1584 6.76161 20.1807 6.82475C20.1918 6.856 20.201 6.88181 20.2071 6.89994C20.2099 6.90842 20.2122 6.91604 20.2139 6.92142C20.2146 6.92358 20.2168 6.92826 20.2168 6.92826V6.93119L20.2178 6.93217C20.3429 7.32673 20.124 7.74909 19.7295 7.87455C19.3351 7.99946 18.9136 7.78152 18.7881 7.38725C18.7881 7.38725 18.7856 7.3805 18.7842 7.3765C18.7807 7.36596 18.7748 7.34769 18.7666 7.32475C18.7501 7.27792 18.7236 7.2058 18.6875 7.11478C18.6148 6.93128 18.5022 6.66776 18.3457 6.36088C18.03 5.7418 17.5474 4.96394 16.8731 4.28959C16.1722 3.58876 15.4928 3.09764 14.9932 2.78373C14.744 2.62714 14.5394 2.51513 14.4014 2.44389C14.3329 2.40851 14.2804 2.38242 14.2471 2.36674C14.2307 2.35905 14.2178 2.35417 14.211 2.35111L14.2051 2.34818C13.8252 2.18414 13.6509 1.74302 13.8145 1.36283Z" fill="#333333"/>
<path d="M2.54985 4.16068C2.96373 4.16094 3.29967 4.49678 3.29985 4.91068C3.29985 5.32474 2.96384 5.66042 2.54985 5.66068C2.13564 5.66068 1.79985 5.3249 1.79985 4.91068C1.80003 4.49662 2.13575 4.16068 2.54985 4.16068Z" fill="#333333"/>
<path d="M5.04887 1.66068C5.46302 1.66068 5.79876 1.99656 5.79887 2.41068C5.79887 2.8249 5.46309 3.16068 5.04887 3.16068C4.63467 3.16068 4.29887 2.82489 4.29887 2.41068C4.29899 1.99657 4.63473 1.66069 5.04887 1.66068Z" fill="#333333"/>
</svg>
