<svg xmlns="http://www.w3.org/2000/svg" viewBox="0 0 18 18">
  <path d="M10.4319 9.15932L14.2506 12.9771C14.4195 13.146 14.5144 13.375 14.5144 13.6139C14.5144 13.8527 14.4195 14.0817 14.2506 14.2506C14.0817 14.4195 13.8527 14.5144 13.6139 14.5144C13.375 14.5144 13.146 14.4195 12.9771 14.2506L9.15932 10.4319L5.34062 14.2506C5.17174 14.4194 4.94275 14.5141 4.704 14.5141C4.46526 14.514 4.23633 14.419 4.06757 14.2502C3.89881 14.0813 3.80405 13.8523 3.80414 13.6136C3.80422 13.3748 3.89914 13.1459 4.06802 12.9771L7.88672 9.15932L4.06802 5.34062C3.90408 5.17088 3.81336 4.94354 3.81541 4.70756C3.81746 4.47158 3.91212 4.24585 4.07898 4.07898C4.24585 3.91212 4.47158 3.81746 4.70756 3.81541C4.94354 3.81336 5.17088 3.90408 5.34062 4.06802L9.15932 7.88672L12.9771 4.06802C13.0607 3.9844 13.1599 3.91806 13.2691 3.87278C13.3783 3.82751 13.4953 3.80418 13.6136 3.80414C13.7318 3.8041 13.8488 3.82734 13.9581 3.87254C14.0673 3.91774 14.1666 3.98401 14.2502 4.06757C14.3338 4.15113 14.4001 4.25034 14.4454 4.35954C14.4907 4.46874 14.514 4.58579 14.5141 4.704C14.5141 4.82222 14.4909 4.93928 14.4457 5.04851C14.4005 5.15774 14.3342 5.257 14.2506 5.34062L10.4319 9.15932Z"/>
</svg>
