<svg xmlns="http://www.w3.org/2000/svg" viewBox="0 0 20 20"><path d="M15.739 13.009c0-.416.44-.644.749-.422l.06.05 3.297 3.232.036.039a.53.53 0 0 1 0 .666l-.036.039-3.297 3.232c-.288.283-.747.098-.803-.292l-.006-.08v-1.468c-.343.04-.898.142-1.57.404l-.189.077c-.654.276-1.15.766-1.464 1.156l-.123.16a.48.48 0 0 1-.574.163.516.516 0 0 1-.314-.56l.064-.388c.074-.426.184-.955.335-1.474.196-.676.483-1.408.906-1.854l.113-.114c.986-.957 2.195-1.094 2.816-1.094zM.773 12.536a.75.75 0 0 1 .945.498l.018.052a9 9 0 0 0 .42.964c.316.619.8 1.396 1.473 2.07.701.702 1.38 1.193 1.88 1.507a8 8 0 0 0 .746.417l.037.015.005.003a.75.75 0 0 1-.522 1.404l-.072-.027-.01-.004-.018-.008-.058-.027a10 10 0 0 1-.905-.504 12.3 12.3 0 0 1-2.143-1.715c-.82-.82-1.388-1.744-1.748-2.45a10 10 0 0 1-.5-1.145l-.026-.076-.006-.021-.003-.007v-.003H.285a.75.75 0 0 1 .488-.943M11.29 6.84a3.76 3.76 0 0 0 2.22 2.218L17 10.35l-3.49 1.291a3.76 3.76 0 0 0-2.22 2.22L10 17.35l-1.291-3.49a3.76 3.76 0 0 0-2.22-2.22l-3.49-1.29 3.49-1.292a3.76 3.76 0 0 0 2.22-2.218l1.29-3.49zM13.314.953a.75.75 0 0 1 .913-.42l.072.028.01.004.018.008.058.027q.076.035.204.1c.172.09.413.223.702.404.576.362 1.348.92 2.142 1.715.82.82 1.388 1.744 1.748 2.451a10 10 0 0 1 .5 1.145l.026.075.006.021.003.007v.003l.001.001a.75.75 0 0 1-1.43.455l-.003-.01-.018-.052-.079-.21a9 9 0 0 0-.342-.754c-.315-.62-.798-1.397-1.472-2.071a10.8 10.8 0 0 0-1.88-1.506 8 8 0 0 0-.746-.417l-.037-.016-.005-.003a.75.75 0 0 1-.391-.985M2.05 3.75a.75.75 0 1 1-.002 1.502.75.75 0 0 1 .001-1.501M4.548 1.25a.75.75 0 1 1 0 1.501.75.75 0 0 1 0-1.5"/></svg>