<svg xmlns="http://www.w3.org/2000/svg" viewBox="0 0 20 20"><path fill-rule="evenodd" d="M11.282 2.775a4.274 4.274 0 0 1 5.466.466 4.23 4.23 0 0 1 .47 5.443.75.75 0 0 1-.113.907.75.75 0 0 1-.913.114 4.27 4.27 0 0 1-2.846.759l-2.625 2.362a1 1 0 0 1 .015.14v4.788a.75.75 0 0 1-1.5 0v-3.59l-2.678 2.41a1.26 1.26 0 0 1-1.083.298l-1.134-.226-1.062 1.058a.75.75 0 0 1-1.059-1.063l1.06-1.056-.224-1.121c-.078-.39.035-.792.3-1.085l6.14-6.752c-.09-.983.165-1.99.761-2.83a.75.75 0 0 1 .113-.906.75.75 0 0 1 .912-.116m-6.73 11.519.164.82a1 1 0 0 1 .097.097l.834.165 6.027-5.426a4.26 4.26 0 0 1-1.665-1.658zm6.779-9.39a2.73 2.73 0 0 0 .455 3.274 2.77 2.77 0 0 0 3.294.456zm4.359-.6a2.77 2.77 0 0 0-3.294-.456l3.748 3.728a2.73 2.73 0 0 0-.454-3.272" clip-rule="evenodd"/><path d="M4.44 1.87c.205.55.639.985 1.19 1.189l1.87.691-1.87.691c-.551.204-.985.64-1.19 1.19L3.75 7.5l-.693-1.87A2.01 2.01 0 0 0 1.87 4.442L0 3.751l1.87-.691c.55-.204.984-.64 1.188-1.19L3.75 0z"/></svg>