<svg xmlns="http://www.w3.org/2000/svg" viewBox="0 0 17 16"><path d="M1.319 10.028a.6.6 0 0 1 .756.399l.014.041q.02.058.063.168a7 7 0 0 0 .274.603 6.6 6.6 0 0 0 1.178 1.657c.56.561 1.104.954 1.504 1.205a7 7 0 0 0 .597.334l.029.012.004.003a.6.6 0 0 1-.418 1.123l-.058-.022-.007-.003-.014-.006-.047-.022-.164-.08a8 8 0 0 1-.56-.323 10 10 0 0 1-1.715-1.372 7.8 7.8 0 0 1-1.398-1.961 8 8 0 0 1-.4-.916l-.02-.06-.006-.017-.002-.005v-.003l.57-.183-.57.182a.6.6 0 0 1 .39-.754M11.351.763a.6.6 0 0 1 .73-.335l.059.021.006.004.015.006q.018.007.047.022.06.027.163.08c.138.071.33.178.561.323a10 10 0 0 1 1.714 1.372 7.8 7.8 0 0 1 1.399 1.96 8 8 0 0 1 .4.916l.02.06.006.018.002.005v.003l-.571.182.572-.182a.601.601 0 0 1-1.144.364l-.003-.008-.014-.042-.063-.168a7 7 0 0 0-.274-.603 6.6 6.6 0 0 0-1.178-1.657A8.7 8.7 0 0 0 12.294 1.9a7 7 0 0 0-.597-.333l-.029-.013-.004-.002a.6.6 0 0 1-.313-.788M9.732 5.472c.305.822.953 1.47 1.775 1.775L14.3 8.28l-2.793 1.033a3 3 0 0 0-1.775 1.775L8.7 13.88l-1.033-2.792A3 3 0 0 0 5.89 9.314L3.1 8.28 5.89 7.247a3 3 0 0 0 1.776-1.775L8.7 2.68zM14.54 12.4a.6.6 0 1 1 1.2 0 .6.6 0 0 1-1.2 0M12.54 14.4a.6.6 0 1 1 1.2 0 .6.6 0 0 1-1.2 0M3.739 1.6a.6.6 0 1 1 1.2 0 .6.6 0 0 1-1.2 0M1.74 3.6a.6.6 0 1 1 1.2 0 .6.6 0 0 1-1.2 0"/></svg>