<svg viewBox="0 0 20 20" fill="none" xmlns="http://www.w3.org/2000/svg">
<g transform="scale(0.95238)">
<path fill-rule="evenodd" clip-rule="evenodd" d="M11.7822 3.26538C13.4441 2.09491 15.7594 2.25025 17.248 3.7312C18.7367 5.21291 18.8926 7.5181 17.7178 9.17358C17.8859 9.46015 17.8506 9.83406 17.6055 10.0808C17.3583 10.3291 16.9807 10.3658 16.6924 10.1951C15.8477 10.7899 14.8346 11.0439 13.8467 10.9539L11.2217 13.3162C11.2302 13.3612 11.2363 13.4083 11.2363 13.4558V18.2439C11.2359 18.6573 10.8997 18.9932 10.4863 18.9939C10.0724 18.9939 9.73678 18.6577 9.73633 18.2439V14.6531L7.05859 17.0642C6.76482 17.3285 6.36237 17.4387 5.97559 17.3621L4.8418 17.1365L3.7793 18.1941C3.48586 18.4858 3.01088 18.4841 2.71875 18.1912C2.4267 17.8976 2.42726 17.4228 2.7207 17.1306L3.78125 16.075L3.55664 14.9539C3.47841 14.5647 3.59102 14.162 3.85742 13.8689L9.99707 7.11694C9.90743 6.13444 10.1614 5.12697 10.7578 4.28687C10.5899 4.00032 10.625 3.62728 10.8701 3.38062C11.1171 3.13264 11.4941 3.09518 11.7822 3.26538ZM5.05176 14.7839L5.2168 15.6042C5.23492 15.6193 5.25356 15.636 5.27051 15.6531C5.28553 15.6682 5.30001 15.6849 5.31348 15.7009L6.14746 15.866L12.1748 10.4402C11.8359 10.2531 11.5153 10.0174 11.2275 9.7312C10.9377 9.44283 10.6987 9.12194 10.5098 8.78198L5.05176 14.7839ZM11.8311 5.39429C11.2436 6.43743 11.3941 7.78032 12.2861 8.66772C13.1784 9.55473 14.5297 9.70579 15.5801 9.12378L11.8311 5.39429ZM16.1904 4.7937C15.2983 3.90639 13.9469 3.75599 12.8965 4.33765L16.6445 8.06616C17.2314 7.02337 17.0816 5.68092 16.1904 4.7937Z" fill="#333333"/>
<path d="M4.94141 2.35913C5.14518 2.90982 5.5792 3.34479 6.12988 3.54858L8 4.23999L6.12988 4.9314C5.57924 5.13515 5.14522 5.57023 4.94141 6.12085L4.25 7.98999L3.55762 6.12085C3.3538 5.57023 2.91979 5.13515 2.36914 4.9314L0.5 4.23999L2.36914 3.54858C2.91982 3.34479 3.35384 2.90982 3.55762 2.35913L4.25 0.48999L4.94141 2.35913Z" fill="#333333"/>
</g>
</svg>
