<svg xmlns="http://www.w3.org/2000/svg" viewBox="0 0 20 20"><path d="M17.413 12.037 10.487 19l-3.421-3.446 1.053-1.058 2.37 2.386 5.873-5.902z"/><path fill-rule="evenodd" d="m12.976 12.465-1.004 1.009-.737-1.995H5.378l-1.39 3.492H2.5L7.463 3H9.05zm-7.1-2.183h4.764L8.257 4.496z" clip-rule="evenodd"/><path d="M16.958 1.87c.203.55.634.985 1.182 1.189l1.859.691-1.86.691a2.01 2.01 0 0 0-1.181 1.19L16.27 7.5l-.689-1.87A2 2 0 0 0 14.4 4.442l-1.858-.691L14.4 3.06c.548-.204.98-.64 1.182-1.19L16.27 0z"/></svg>