<svg viewBox="0 0 20 20" xmlns="http://www.w3.org/2000/svg">
<path d="M17.4133 12.0371L10.4873 19L7.06555 15.5537L8.11906 14.4961L10.4883 16.8818L16.3617 10.9805L17.4133 12.0371Z"/>
<path fill-rule="evenodd" clip-rule="evenodd" d="M12.9759 12.4648L11.9719 13.4736L11.2349 11.4795H5.37798L3.98851 14.9707H2.49902L7.46268 3H9.05121L12.9759 12.4648ZM5.87513 10.2822H10.6397L8.25694 4.49609L5.87513 10.2822Z"/>
<path d="M16.9579 1.86914C17.1605 2.41986 17.592 2.85481 18.1396 3.05859L19.999 3.75L18.1396 4.44141C17.592 4.64519 17.1605 5.08014 16.9579 5.63086L16.2705 7.5L15.582 5.63086C15.3794 5.08014 14.9479 4.64519 14.4003 4.44141L12.5419 3.75L14.4003 3.05859C14.9479 2.85481 15.3794 2.41986 15.582 1.86914L16.2705 0L16.9579 1.86914Z"/>
</svg>
