<svg width="21" height="21" viewBox="0 0 21 21" fill="none" xmlns="http://www.w3.org/2000/svg">
<path d="M17.9138 12.1671L10.9878 19.13L7.56604 15.6837L8.61955 14.6261L10.9887 17.0118L16.8622 11.1105L17.9138 12.1671Z" fill="#333333"/>
<path fill-rule="evenodd" clip-rule="evenodd" d="M13.4764 12.5948L12.4724 13.6036L11.7354 11.6095H5.87847L4.489 15.1007H2.99951L7.96317 3.13H9.5517L13.4764 12.5948ZM6.37561 10.4122H11.1402L8.75743 4.6261L6.37561 10.4122Z" fill="#333333"/>
<path d="M17.4584 1.99915C17.661 2.54986 18.0925 2.98482 18.6401 3.1886L20.4995 3.88L18.6401 4.57141C18.0925 4.77519 17.661 5.21015 17.4584 5.76086L16.7709 7.63L16.0825 5.76086C15.8799 5.21015 15.4484 4.77519 14.9008 4.57141L13.0424 3.88L14.9008 3.1886C15.4484 2.98482 15.8799 2.54986 16.0825 1.99915L16.7709 0.130005L17.4584 1.99915Z" fill="#333333"/>
</svg>
