<svg xmlns="http://www.w3.org/2000/svg" fill="none" viewBox="0 0 20 20"><g fill="#333"><path d="m17.06 11.588-6.595 6.631-3.26-3.282L8.21 13.93l2.256 2.272 5.594-5.62z"/><path fill-rule="evenodd" d="m12.835 11.995-.957.96-.701-1.898H5.599l-1.324 3.325H2.857L7.584 2.98h1.513zM6.072 9.916h4.538l-2.27-5.51z" clip-rule="evenodd"/><path d="M16.627 1.904c.193.524.604.939 1.125 1.133l1.771.658-1.77.659a1.91 1.91 0 0 0-1.126 1.133l-.655 1.78-.655-1.78a1.91 1.91 0 0 0-1.126-1.133l-1.77-.659 1.77-.658a1.91 1.91 0 0 0 1.126-1.133l.655-1.78z"/></g></svg>