<svg xmlns="http://www.w3.org/2000/svg" viewBox="0 0 21 19"><path d="M17.242 1.86c.204.55.637.985 1.188 1.19l1.87.69-1.87.691c-.55.204-.984.639-1.188 1.19l-.693 1.87-.69-1.87a2.01 2.01 0 0 0-1.19-1.19l-1.87-.69 1.87-.692c.55-.204.986-.638 1.19-1.19l.69-1.869zm2.03 5.43a.7.7 0 0 1 .672.483 7 7 0 0 1 .351 2.4 9 9 0 0 1-9.361 8.81 9 9 0 0 1-7.661-4.918L4.4 12.936A7.502 7.502 0 0 0 18.8 9.99c-.002-1.016-.1-1.266-.501-2.2-.096-.224.143-.5.387-.5z"/><path d="m11.8 9.989 3.195 3.196-1.06 1.06L10.4 10.71l-.1-.113V4.99h1.5zM11 .99q.168 0 .336.007a.703.703 0 0 1 .664.716c0 .45-.398.794-.848.784a7 7 0 0 0-.532.008c-1.015.051-1.71.308-2.623.756a7.5 7.5 0 0 0-4.17 6.124l.965-.737a.75.75 0 0 1 .979.057l.073.083a.75.75 0 0 1-.058.978l-.083.073-2.27 1.737a.75.75 0 0 1-.972-.052l-.074-.082-1.741-2.23a.75.75 0 0 1 1.107-1.005l.074.082.532.68a9 9 0 0 1 5.32-7.218C8.818 1.249 9.752.99 10.999.99"/></svg>