<svg xmlns="http://www.w3.org/2000/svg" viewBox="0 0 20 20"><path d="M16.942 1.87c.203.55.637.985 1.188 1.189L20 3.75l-1.87.691a2.01 2.01 0 0 0-1.188 1.19L16.249 7.5l-.691-1.87a2.01 2.01 0 0 0-1.19-1.189L12.5 3.75l1.87-.691c.55-.204.985-.639 1.189-1.19L16.249 0zm2.03 5.43c.305 0 .58.192.671.483a7 7 0 0 1 .352 2.4 9 9 0 0 1-9.361 8.809 9 9 0 0 1-7.662-4.917L4.1 12.946A7.502 7.502 0 0 0 18.5 10c0-1.017-.1-1.266-.5-2.2-.097-.224.143-.5.387-.5z"/><path d="m11.5 9.999 3.195 3.196-1.06 1.06-3.536-3.536-.1-.112V5h1.5zM10.7 1q.168 0 .336.006a.703.703 0 0 1 .664.716c0 .451-.398.795-.849.785a7 7 0 0 0-.531.007c-1.015.052-1.71.309-2.623.756a7.5 7.5 0 0 0-4.17 6.125l.965-.737a.75.75 0 0 1 .979.057l.073.083a.75.75 0 0 1-.058.978l-.083.072-2.27 1.738a.75.75 0 0 1-.972-.052l-.074-.082-1.741-2.23a.75.75 0 0 1 1.107-1.005l.074.082.531.68a9 9 0 0 1 5.32-7.218C8.519 1.259 9.453 1 10.7 1"/></svg>