<svg xmlns="http://www.w3.org/2000/svg" viewBox="0 0 20 20"><path d="M14.832 15.502a.75.75 0 0 1 .754.749.75.75 0 0 1-.755.749H7.28a.753.753 0 0 1-.756-.749c0-.414.339-.749.756-.749zm1.237-12.5a.946.946 0 0 1 .851 1.322c-.69 1.575-1.272 2.683-1.893 3.406-.563.655-1.17 1.005-1.884 1.126-.449 1.736-1.662 2.854-2.73 3.527a8.8 8.8 0 0 1-2.038.937q-.092.029-.146.042l-.042.012-.013.003H8.17l-.002.002a.76.76 0 0 1-.917-.546.75.75 0 0 1 .55-.908l.002-.001.023-.006.104-.03a7.3 7.3 0 0 0 1.673-.77c.952-.6 1.888-1.526 2.14-2.92a.97.97 0 0 1 .91-.792l.168-.014c.382-.05.694-.212 1.056-.633.377-.438.782-1.133 1.293-2.229-2.808.253-5.14 2.025-6.952 4.332-1.991 2.537-3.253 5.6-3.728 7.563a.757.757 0 0 1-.911.553.75.75 0 0 1-.559-.903c.519-2.144 1.867-5.409 4.007-8.134 2.136-2.72 5.164-5.024 9.042-4.939M4.44 1.87c.205.55.64.985 1.19 1.189l1.87.691-1.87.691c-.55.204-.985.64-1.19 1.19L3.75 7.5l-.692-1.87a2.01 2.01 0 0 0-1.19-1.189L0 3.75l1.869-.691c.55-.204.985-.64 1.19-1.19L3.748 0z"/></svg>