<svg xmlns="http://www.w3.org/2000/svg" fill="none" viewBox="0 0 20 20"><path fill="#333" d="M14.602 15.497c.397 0 .719.32.719.713a.717.717 0 0 1-.72.714H7.41a.717.717 0 0 1-.72-.714c0-.394.323-.713.72-.713zM15.78 3.592a.9.9 0 0 1 .811 1.26c-.657 1.499-1.211 2.555-1.803 3.244-.536.623-1.114.956-1.794 1.072-.428 1.653-1.583 2.718-2.6 3.358a8.4 8.4 0 0 1-1.942.893q-.087.027-.138.04l-.04.011-.012.003-.004.001-.002.001a.72.72 0 0 1-.873-.52.714.714 0 0 1 .522-.865h.003l.022-.006.1-.03a7 7 0 0 0 1.593-.734c.906-.57 1.797-1.451 2.038-2.779a.926.926 0 0 1 .866-.754l.16-.014c.364-.047.661-.202 1.006-.603.359-.417.745-1.079 1.232-2.122-2.675.24-4.896 1.928-6.621 4.126-1.897 2.415-3.1 5.333-3.551 7.202a.72.72 0 0 1-.868.527.714.714 0 0 1-.532-.86C3.847 14 5.13 10.89 7.169 8.296c2.034-2.59 4.918-4.785 8.611-4.704M4.706 2.513c.194.525.608.94 1.133 1.133l1.78.659-1.78.658a1.92 1.92 0 0 0-1.133 1.133l-.658 1.78-.659-1.78a1.92 1.92 0 0 0-1.133-1.133l-1.78-.658 1.78-.659A1.92 1.92 0 0 0 3.39 2.513l.659-1.78z"/></svg>