<svg viewBox="0 0 20 20" fill="none" xmlns="http://www.w3.org/2000/svg">
<g transform="scale(0.95238)">
<path d="M15.332 16.2719C15.7491 16.2719 16.0869 16.6071 16.0869 17.0209C16.0865 17.4343 15.7489 17.7699 15.332 17.7699H7.78027C7.36341 17.7699 7.0248 17.4343 7.02441 17.0209C7.02441 16.6071 7.36317 16.2719 7.78027 16.2719H15.332Z" fill="#333333"/>
<path d="M16.5693 3.77185C17.2552 3.78705 17.6863 4.48774 17.4209 5.09412C16.7309 6.66858 16.149 7.7771 15.5273 8.50037C14.9643 9.15531 14.3582 9.50503 13.6436 9.62634C13.1945 11.3621 11.9816 12.4803 10.9131 13.1527C10.336 13.5158 9.78256 13.7626 9.37402 13.9183C9.16898 13.9965 8.99707 14.0529 8.875 14.0902C8.81428 14.1088 8.76457 14.1226 8.72949 14.1322C8.71224 14.1369 8.69785 14.1412 8.6875 14.1439C8.68252 14.1452 8.67808 14.146 8.6748 14.1469L8.6709 14.1478L8.66895 14.1488C8.26459 14.2488 7.85327 14.0038 7.75195 13.6029C7.65134 13.2019 7.89695 12.7953 8.30078 12.6947L8.30371 12.6937C8.30784 12.6926 8.31564 12.6907 8.32617 12.6879C8.34821 12.6818 8.3843 12.6718 8.43066 12.6576C8.52391 12.6291 8.66257 12.5835 8.83203 12.5189C9.17266 12.3891 9.63113 12.1843 10.1035 11.8871C11.0556 11.288 11.9914 10.362 12.2441 8.96814C12.3245 8.52476 12.7051 8.19866 13.1533 8.17615L13.3213 8.1615C13.7035 8.11221 14.0158 7.94977 14.3779 7.52869C14.7542 7.09085 15.1596 6.39553 15.6709 5.30017C12.8625 5.55312 10.5309 7.32447 8.71875 9.6322C6.72723 12.1685 5.46499 15.2325 4.99023 17.1947C4.89258 17.5965 4.48431 17.8447 4.0791 17.7484C3.67394 17.6518 3.42366 17.2471 3.52051 16.8451C4.03927 14.7007 5.38791 11.436 7.52734 8.7113C9.66345 5.99106 12.6916 3.68676 16.5693 3.77185Z" fill="#333333"/>
<path d="M4.94141 2.63904C5.14519 3.18975 5.58014 3.62471 6.13086 3.82849L8 4.5199L6.13086 5.2113C5.58014 5.41509 5.14519 5.85004 4.94141 6.40076L4.25 8.2699L3.55859 6.40076C3.35481 5.85004 2.91986 5.41509 2.36914 5.2113L0.5 4.5199L2.36914 3.82849C2.91986 3.62471 3.35481 3.18975 3.55859 2.63904L4.25 0.769897L4.94141 2.63904Z" fill="#333333"/>
</g>
</svg>
