<svg xmlns="http://www.w3.org/2000/svg" viewBox="0 0 20 20"><path d="m16.25 0 .69 1.87c.205.55.639.984 1.19 1.188L20 3.75l-1.87.692a2.02 2.02 0 0 0-1.19 1.188l-.69 1.87-.693-1.87a2.01 2.01 0 0 0-1.188-1.188l-1.87-.692 1.87-.692c.55-.204.985-.638 1.188-1.188z"/><path d="M10 1c.704 0 1.053-.003 1.474.09.445.099.635.613.426 1.019-.163.315-.523.465-.875.423C10.712 2.495 10.42 2.5 10 2.5a7.5 7.5 0 1 0 7.5 7.5c0-.26-.047-.582-.102-.89a.82.82 0 0 1 .458-.89c.456-.214 1.007.027 1.08.525.053.375.064.746.064 1.255a9 9 0 1 1-9-9"/><path d="M7.05 10a1.25 1.25 0 1 1-2.5 0 1.25 1.25 0 0 1 2.5 0m4.2 0a1.25 1.25 0 1 1-2.5 0 1.25 1.25 0 0 1 2.5 0m4.2 0a1.25 1.25 0 1 1-2.5 0 1.25 1.25 0 0 1 2.5 0"/></svg>