<svg xmlns="http://www.w3.org/2000/svg" fill="none" viewBox="0 0 20 20"><path fill="#333" d="M7.817 5.68c.272.733.85 1.311 1.584 1.583l2.494.923-2.494.923a2.68 2.68 0 0 0-1.584 1.584l-.922 2.493-.923-2.493a2.68 2.68 0 0 0-1.584-1.584l-2.493-.923 2.493-.923A2.68 2.68 0 0 0 5.972 5.68l.923-2.493zm10.103 8.652a.715.715 0 0 1 0 1.422l-.073.003h-7.619a.715.715 0 0 1 0-1.428h7.62zm-.073-4.289a.715.715 0 0 1 0 1.429h-4.285a.715.715 0 0 1 0-1.43zm.003-4.286a.715.715 0 0 1 0 1.429h-4.286a.715.715 0 0 1 0-1.429zM3.763 12.945c.13.349.404.625.754.755l1.187.438-1.187.439a1.28 1.28 0 0 0-.754.755l-.44 1.187-.439-1.187a1.28 1.28 0 0 0-.754-.755l-1.188-.439L2.13 13.7c.35-.13.625-.406.754-.755l.44-1.188z"/></svg>