<svg width="21" height="21" viewBox="0 0 21 21" fill="none" xmlns="http://www.w3.org/2000/svg">
<path d="M8.20825 5.96316C8.49357 6.73367 9.10092 7.34103 9.87144 7.62634L12.4893 8.59534L9.87144 9.56433C9.10092 9.84965 8.49357 10.457 8.20825 11.2275L7.23926 13.8453L6.27026 11.2275C5.98495 10.457 5.37759 9.84965 4.60708 9.56433L1.98926 8.59534L4.60708 7.62634C5.37759 7.34103 5.98495 6.73367 6.27026 5.96316L7.23926 3.34534L8.20825 5.96316Z" fill="#333333"/>
<path d="M18.8169 15.049C19.1946 15.0879 19.4897 15.4071 19.4897 15.7951C19.4895 16.183 19.1945 16.5025 18.8169 16.5412L18.7397 16.5451H10.7397C10.3257 16.5451 9.99001 16.2091 9.98975 15.7951C9.98975 15.3809 10.3255 15.0451 10.7397 15.0451H18.7397L18.8169 15.049Z" fill="#333333"/>
<path d="M18.7397 10.5451C19.1538 10.5454 19.4897 10.8811 19.4897 11.2951C19.4895 11.709 19.1536 12.0449 18.7397 12.0451H14.2397C13.8257 12.0451 13.49 11.7091 13.4897 11.2951C13.4897 10.8809 13.8255 10.5451 14.2397 10.5451H18.7397Z" fill="#333333"/>
<path d="M18.7417 6.04514C19.1558 6.04532 19.4917 6.38103 19.4917 6.79514C19.4914 7.20901 19.1556 7.54495 18.7417 7.54514H14.2417C13.8276 7.54514 13.492 7.20912 13.4917 6.79514C13.4917 6.38092 13.8275 6.04514 14.2417 6.04514H18.7417Z" fill="#333333"/>
<path d="M3.9515 13.5919C4.08734 13.9586 4.37578 14.2486 4.74251 14.3845L5.98926 14.8451L4.74251 15.3057C4.37583 15.4416 4.08741 15.7317 3.9515 16.0984L3.48926 17.3451L3.02865 16.0984C2.89272 15.7315 2.60299 15.4415 2.236 15.3057L0.989258 14.8451L2.236 14.3845C2.60311 14.2487 2.89277 13.959 3.02865 13.5919L3.48926 12.3451L3.9515 13.5919Z" fill="#333333"/>
</svg>
