<svg xmlns="http://www.w3.org/2000/svg" viewBox="0 0 20 20"><path d="M7.718 5.12c.285.77.893 1.378 1.663 1.663l2.618.97-2.618.968a2.82 2.82 0 0 0-1.663 1.664l-.969 2.617-.969-2.617A2.82 2.82 0 0 0 4.117 8.72l-2.618-.969 2.618-.969A2.82 2.82 0 0 0 5.78 5.12l.969-2.618zm10.609 9.086a.75.75 0 0 1 0 1.492l-.078.004h-8a.75.75 0 0 1 0-1.5h8zm-.077-4.504a.75.75 0 0 1 0 1.5h-4.5a.75.75 0 0 1 0-1.5zm.002-4.5a.75.75 0 0 1 0 1.5h-4.5a.75.75 0 0 1 0-1.5zM3.461 12.749c.136.367.425.657.791.793l1.247.46-1.247.46a1.34 1.34 0 0 0-.79.793l-.463 1.247-.46-1.246a1.34 1.34 0 0 0-.793-.793l-1.247-.46 1.247-.461a1.34 1.34 0 0 0 .792-.793L3 11.502z"/></svg>