<svg xmlns="http://www.w3.org/2000/svg" fill="none" viewBox="0 0 20 20"><path fill="#333" d="m14.066 8.792-7.803 7.803H3.617v-2.643l7.802-7.808zm-.102-4.897a.7.7 0 0 1 .497.207l1.651 1.647a.7.7 0 0 1 0 .995l-1.29 1.293-2.648-2.648 1.292-1.287a.7.7 0 0 1 .498-.207M4.048.086l.658 1.78c.195.525.608.938 1.133 1.132l1.78.659-1.78.659a1.92 1.92 0 0 0-1.133 1.132l-.658 1.78-.66-1.78a1.92 1.92 0 0 0-1.131-1.132l-1.78-.659 1.78-.659a1.92 1.92 0 0 0 1.132-1.132zm11.419 12.389c0-.396.42-.614.714-.403l.057.048 3.14 3.079.034.037c.15.181.15.453 0 .634l-.035.037-3.14 3.079c-.274.27-.71.093-.764-.278l-.006-.077v-1.4a6 6 0 0 0-1.495.387l-.18.073c-.624.264-1.094.73-1.394 1.101l-.118.153a.46.46 0 0 1-.547.154.49.49 0 0 1-.298-.532l.06-.37c.071-.406.175-.91.32-1.404.186-.643.46-1.34.862-1.765l.108-.11c.939-.91 2.09-1.04 2.682-1.04z"/></svg>