<svg xmlns="http://www.w3.org/2000/svg" viewBox="0 0 20 20"><path d="m14.269 9.141-8.193 8.194H3.297v-2.776l8.193-8.198zM14.162 4a.74.74 0 0 1 .521.218l1.735 1.729a.735.735 0 0 1 0 1.044l-1.356 1.358-2.78-2.78 1.357-1.351A.74.74 0 0 1 14.162 4M3.75 0l.691 1.87c.204.55.638.984 1.189 1.188l1.87.692-1.87.692c-.55.204-.985.638-1.189 1.188L3.75 7.5l-.692-1.87a2.01 2.01 0 0 0-1.189-1.188l-1.87-.692 1.87-.692c.55-.204.985-.638 1.189-1.188zm11.99 13.009c0-.416.44-.645.75-.423l.059.05 3.297 3.233.036.039a.53.53 0 0 1 0 .666l-.036.039-3.297 3.232c-.289.283-.746.098-.803-.292l-.007-.08v-1.47c-.342.04-.897.144-1.569.406l-.19.077c-.654.276-1.148.766-1.462 1.156l-.124.16a.48.48 0 0 1-.575.163.516.516 0 0 1-.313-.56l.063-.388c.075-.426.184-.955.335-1.474.197-.676.484-1.407.907-1.854l.113-.114c.986-.957 2.194-1.094 2.815-1.094z"/></svg>