<svg width="21" height="21" viewBox="0 0 21 21" fill="none" xmlns="http://www.w3.org/2000/svg">
<path d="M14.7695 9.23121L6.57617 17.4246H3.79785V14.6492L11.9902 6.45093L14.7695 9.23121Z" fill="#333333"/>
<path d="M14.6621 4.08961C14.759 4.08964 14.8549 4.109 14.9443 4.14625C15.0339 4.18358 15.1153 4.23845 15.1836 4.30738L16.918 6.03687C16.9869 6.10517 17.0418 6.18659 17.0791 6.27613C17.1164 6.36572 17.1357 6.46227 17.1357 6.55933C17.1357 6.65619 17.1163 6.75213 17.0791 6.84156C17.0418 6.93105 16.9868 7.01253 16.918 7.08082L15.5625 8.43921L12.7832 5.65894L14.1396 4.30738C14.2079 4.23849 14.2894 4.18359 14.3789 4.14625C14.4685 4.1089 14.565 4.08961 14.6621 4.08961Z" fill="#333333"/>
<path d="M4.25 0.0898438L4.94178 1.95936C5.14557 2.51007 5.57977 2.94428 6.13049 3.14806L8 3.83984L6.13049 4.53163C5.57977 4.73541 5.14557 5.16962 4.94178 5.72033L4.25 7.58984L3.55822 5.72033C3.35443 5.16962 2.92023 4.73541 2.36951 4.53163L0.5 3.83984L2.36951 3.14806C2.92023 2.94428 3.35443 2.51007 3.55822 1.95936L4.25 0.0898438Z" fill="#333333"/>
<path d="M16.2399 13.0983C16.2403 12.6827 16.6812 12.4539 16.9899 12.6754L17.0495 12.7262L20.3463 15.9587L20.3825 15.9977C20.5393 16.1881 20.5394 16.4734 20.3825 16.6637L20.3463 16.7028L17.0495 19.9352C16.7608 20.2179 16.3031 20.0328 16.2467 19.6432L16.2399 19.5622V18.0934C15.8974 18.1333 15.3425 18.2365 14.6706 18.4987L14.4811 18.5758C13.8266 18.8523 13.3326 19.3415 13.0182 19.7321L12.8942 19.8922C12.7299 20.115 12.4763 20.1176 12.32 20.0544C12.162 19.9902 11.9611 19.7966 12.0065 19.4958L12.07 19.1071C12.1446 18.6808 12.2538 18.152 12.4049 17.6325C12.6015 16.957 12.8884 16.2253 13.3112 15.779L13.4245 15.6647C14.41 14.7082 15.6187 14.571 16.2399 14.571V13.0983Z" fill="#333333"/>
</svg>
