<svg width="21" height="21" viewBox="0 0 21 21" fill="none" xmlns="http://www.w3.org/2000/svg">
<path fill-rule="evenodd" clip-rule="evenodd" d="M19.5013 19.1699H18.014L16.7259 15.6699H10.8763L9.48859 19.1699H8.00128L12.9583 7.16992H14.5443L19.5013 19.1699ZM11.3714 14.4697H16.1312L13.7513 8.66992L11.3714 14.4697Z" fill="#333333"/>
<path d="M6.14874 0.669922C6.56283 0.670072 6.89874 1.00678 6.89874 1.4209V2.37012H11.2493C11.6632 2.3705 11.9993 2.70614 11.9993 3.12012C11.9993 3.5341 11.6632 3.86974 11.2493 3.87012H9.98566C9.64897 5.68776 8.73108 8.25127 6.92316 10.7881C7.15781 11.0377 7.34362 11.222 7.48273 11.3506C7.59629 11.4556 7.6786 11.5245 7.72784 11.5645C7.7518 11.5839 7.7681 11.597 7.77667 11.6035L7.77765 11.6045C8.1171 11.8413 8.20059 12.3088 7.96417 12.6484C7.72729 12.988 7.25992 13.0716 6.92023 12.835L6.91925 12.834L6.91632 12.833L6.91241 12.8301C6.90961 12.828 6.90633 12.8249 6.90265 12.8223C6.89516 12.8168 6.88535 12.8101 6.87433 12.8018C6.85153 12.7846 6.82025 12.7601 6.78253 12.7295C6.70684 12.6681 6.60093 12.5777 6.46515 12.4521C6.33559 12.3324 6.17823 12.1798 5.99347 11.9893C4.64835 13.5951 3.8996 14.2699 1.61749 15.5732C1.25671 15.7761 0.799255 15.6486 0.596008 15.2881C0.393074 14.9273 0.5206 14.4698 0.881165 14.2666C2.89962 13.2698 3.73333 12.3887 4.99152 10.8467C4.44543 10.109 4.00944 9.20995 3.70538 8.49023C3.52347 8.05958 3.38057 7.67408 3.28351 7.39648C3.23499 7.25771 3.19774 7.14425 3.17218 7.06543C3.15952 7.02637 3.14964 6.99519 3.14288 6.97363C3.13953 6.96299 3.13594 6.95422 3.13409 6.94824C3.13326 6.94549 3.13214 6.94141 3.13214 6.94141L3.13116 6.93848L3.11261 6.86328C3.03964 6.49033 3.2597 6.11475 3.63116 6.00195C4.0025 5.88943 4.39365 6.07933 4.54034 6.42969L4.56671 6.50195L4.56769 6.50586C4.56888 6.50971 4.57092 6.51699 4.57355 6.52539C4.57892 6.54254 4.58784 6.56929 4.59894 6.60352C4.62134 6.67259 4.6552 6.77459 4.69952 6.90137C4.78866 7.15631 4.9203 7.51108 5.08722 7.90625C5.32068 8.45889 5.61229 9.05829 5.93976 9.5752C7.3596 7.48406 8.12858 5.31703 8.45343 3.87012H1.44855C1.03455 3.86986 0.698547 3.53417 0.698547 3.12012C0.698547 2.70606 1.03455 2.37037 1.44855 2.37012H5.39874V1.4209C5.39874 1.00669 5.73454 0.669936 6.14874 0.669922Z" fill="#333333"/>
<path d="M17.4417 2.03906C17.6455 2.58975 18.0795 3.02374 18.6302 3.22754L20.4993 3.91992L18.6302 4.61133C18.0796 4.81505 17.6456 5.24934 17.4417 5.7998L16.7493 7.66992L16.0579 5.7998C15.8541 5.24934 15.4199 4.8151 14.8694 4.61133L12.9993 3.91992L14.8694 3.22754C15.42 3.02369 15.8542 2.58963 16.0579 2.03906L16.7493 0.169922L17.4417 2.03906Z" fill="#333333"/>
</svg>
