<svg xmlns="http://www.w3.org/2000/svg" viewBox="0 0 20 20"><path fill-rule="evenodd" d="M19 19h-1.486l-1.289-3.5h-5.85L8.989 19H7.501l4.957-12h1.586zm-8.13-4.7h4.76l-2.38-5.8z" clip-rule="evenodd"/><path d="M5.648.5c.414 0 .75.337.75.751v.95h4.35a.75.75 0 0 1 0 1.5H9.486c-.337 1.817-1.254 4.38-3.062 6.917.234.25.42.434.56.563a5 5 0 0 0 .293.253h.001a.75.75 0 0 1-.857 1.231H6.42l-.003-.002-.004-.003-.01-.008-.028-.02-.092-.072a7 7 0 0 1-.317-.278 12 12 0 0 1-.472-.463c-1.345 1.606-2.094 2.28-4.376 3.584a.75.75 0 0 1-.736-1.306c2.018-.997 2.852-1.878 4.11-3.42-.546-.738-.982-1.637-1.286-2.357a19 19 0 0 1-.563-1.516l-.008-.026-.002-.007-.001-.002-.019-.076A.75.75 0 0 1 4.04 6.26l.026.072.001.004.006.02.025.078.101.297c.09.255.22.61.388 1.005.233.553.525 1.152.852 1.67C6.86 7.313 7.63 5.146 7.953 3.7H.948a.75.75 0 0 1 0-1.5h3.95v-.949A.75.75 0 0 1 5.648.5m11.293 1.37c.204.55.638.984 1.189 1.188l1.869.692-1.87.691c-.55.204-.984.638-1.188 1.189L16.25 7.5l-.692-1.87a2.01 2.01 0 0 0-1.188-1.19l-1.87-.691 1.87-.692c.55-.204.985-.638 1.188-1.189L16.25 0z"/></svg>