<svg xmlns="http://www.w3.org/2000/svg" fill="none" viewBox="0 0 20 20"><g fill="#333"><path fill-rule="evenodd" d="M18.573 18.257h-1.417l-1.227-3.333h-5.57l-1.322 3.333H7.62l4.721-11.429h1.51zm-7.743-4.476h4.533l-2.267-5.524z" clip-rule="evenodd"/><path d="M5.856.638c.394 0 .714.32.714.715v.904h4.144a.715.715 0 0 1 0 1.429H9.51c-.32 1.73-1.195 4.172-2.917 6.588q.335.355.533.536a5 5 0 0 0 .28.24l.001.002a.715.715 0 0 1-.816 1.172l-.001-.001-.003-.001-.004-.003-.01-.007q-.01-.009-.026-.02l-.087-.069a6 6 0 0 1-.303-.264q-.185-.17-.449-.44c-1.281 1.529-1.994 2.171-4.168 3.413a.715.715 0 0 1-.7-1.245c1.922-.95 2.716-1.788 3.914-3.257-.52-.702-.935-1.559-1.225-2.244a18 18 0 0 1-.536-1.444l-.008-.025-.002-.006v-.003l-.019-.072a.715.715 0 0 1 1.36-.412l.025.068.001.004.006.019.024.074q.032.1.096.284c.085.243.21.58.369.957.222.526.5 1.097.812 1.59C7.009 7.127 7.74 5.063 8.05 3.685H1.38a.715.715 0 0 1 0-1.429h3.762v-.904c0-.394.32-.715.714-.715m10.755 1.305c.194.524.608.938 1.132 1.132l1.78.66-1.78.658a1.92 1.92 0 0 0-1.132 1.132l-.66 1.78-.658-1.78a1.92 1.92 0 0 0-1.132-1.132l-1.78-.659 1.78-.66a1.92 1.92 0 0 0 1.132-1.131l.659-1.78z"/></g></svg>