<svg viewBox="0 0 14 12"  xmlns="http://www.w3.org/2000/svg">
<path d="M4.12479 0.699951L4.62047 2.03949C4.76648 2.43409 5.0776 2.74521 5.4722 2.89122L6.81174 3.3869L5.4722 3.88257C5.0776 4.02859 4.76648 4.3397 4.62047 4.7343L4.12479 6.07384L3.62912 4.7343C3.4831 4.3397 3.17199 4.02859 2.77739 3.88257L1.43785 3.3869L2.77739 2.89122C3.17199 2.74521 3.4831 2.43409 3.62912 2.03949L4.12479 0.699951Z"/>
<path d="M8.93368 3.09168L9.7282 5.23885C9.96225 5.87135 10.4609 6.37005 11.0935 6.6041L13.2406 7.39862L11.0935 8.19315C10.4609 8.4272 9.96225 8.92589 9.7282 9.5584L8.93368 11.7056L8.13915 9.5584C7.9051 8.92589 7.40641 8.4272 6.7739 8.19315L4.62673 7.39862L6.7739 6.6041C7.40641 6.37005 7.9051 5.87135 8.13915 5.23885L8.93368 3.09168Z"/>
<path d="M3.04063 8.88509L2.66684 7.87495L2.29306 8.88509C2.18295 9.18266 1.94833 9.41727 1.65077 9.52738L0.640625 9.90117L1.65077 10.275C1.94833 10.3851 2.18295 10.6197 2.29306 10.9172L2.66684 11.9274L3.04063 10.9172C3.15074 10.6197 3.38535 10.3851 3.68292 10.275L4.69306 9.90117L3.68292 9.52738C3.38535 9.41727 3.15074 9.18266 3.04063 8.88509Z"/>
</svg>
