<svg xmlns="http://www.w3.org/2000/svg" viewBox="0 0 20 20"><path d="M5.893 2.429 6.6 4.343a2.06 2.06 0 0 0 1.217 1.216l1.915.708-1.915.709A2.06 2.06 0 0 0 6.6 8.19l-.707 1.915-.709-1.915a2.06 2.06 0 0 0-1.217-1.215l-1.914-.709 1.914-.708A2.06 2.06 0 0 0 5.184 4.34zm6.87 3.417 1.134 3.067a3.3 3.3 0 0 0 1.952 1.95l3.067 1.136-3.067 1.134a3.3 3.3 0 0 0-1.952 1.95l-1.134 3.069-1.136-3.069a3.3 3.3 0 0 0-1.95-1.95L6.61 12l3.067-1.136a3.3 3.3 0 0 0 1.95-1.95zm-8.42 8.276-.533-1.443-.534 1.443c-.157.425-.493.76-.917.917l-1.443.534 1.443.534c.424.158.76.493.917.918l.534 1.442.534-1.442c.158-.425.492-.76.918-.918l1.442-.534-1.442-.534a1.57 1.57 0 0 1-.918-.917"/></svg>