<svg xmlns="http://www.w3.org/2000/svg" viewBox="0 0 20 20"><path d="M13.903 7.617a3.35 3.35 0 0 0 1.98 1.98L19 10.752l-3.117 1.153a3.35 3.35 0 0 0-1.98 1.98l-1.154 3.117-1.153-3.116a3.35 3.35 0 0 0-1.98-1.98L6.5 10.75l3.116-1.153a3.35 3.35 0 0 0 1.98-1.98L12.75 4.5zm-9.647 4.755c.15.404.469.723.872.872l1.372.507-1.372.507c-.403.15-.722.468-.872.872L3.75 16.5l-.507-1.371a1.48 1.48 0 0 0-.872-.872L1 13.75l1.37-.507a1.48 1.48 0 0 0 .873-.872L3.75 11zM6.441 2.87c.204.55.639.985 1.19 1.189L9.5 4.75l-1.87.691A2.02 2.02 0 0 0 6.44 6.63L5.75 8.5l-.692-1.87a2.01 2.01 0 0 0-1.19-1.189L2 4.751l1.869-.692a2.02 2.02 0 0 0 1.19-1.189L5.748 1z"/></svg>