<svg xmlns="http://www.w3.org/2000/svg" viewBox="0 0 14 12"><path d="m4.125.7.495 1.34c.146.394.458.705.852.851l1.34.496-1.34.496a1.44 1.44 0 0 0-.852.851l-.495 1.34-.496-1.34a1.44 1.44 0 0 0-.852-.851l-1.34-.496 1.34-.496c.395-.146.706-.457.852-.852zM8.934 3.092l.794 2.147a2.31 2.31 0 0 0 1.366 1.365l2.147.795-2.147.794a2.31 2.31 0 0 0-1.366 1.365l-.794 2.148-.795-2.148a2.31 2.31 0 0 0-1.365-1.365L4.627 7.4l2.147-.795A2.31 2.31 0 0 0 8.139 5.24zM3.04 8.885l-.373-1.01-.374 1.01c-.11.298-.345.532-.642.642l-1.01.374 1.01.374c.297.11.532.345.642.642l.374 1.01.374-1.01c.11-.297.344-.532.642-.642l1.01-.374-1.01-.374a1.09 1.09 0 0 1-.642-.642"/></svg>