<svg xmlns="http://www.w3.org/2000/svg" viewBox="0 0 20 20"><path d="M10.187 17H5.773q-.956 0-1.364-.415-.41-.416-.409-1.323V4.738q0-.926.419-1.332.418-.405 1.354-.406h4.68q1.035 0 1.793.124.76.124 1.36.478.512.296.906.75a3.26 3.26 0 0 1 .808 2.162q0 2.102-2.167 3.075 2.846.879 2.847 3.421a3.76 3.76 0 0 1-2.296 3.504 6 6 0 0 1-1.517.377q-.857.11-2 .11zm-.217-6.217H7v4.087h3.069q2.965 0 2.965-2.072 0-1.061-.768-1.537-.768-.478-2.296-.478M7 5.13v3.619h2.606q1.093 0 1.69-.2a1.6 1.6 0 0 0 .91-.765q.247-.4.247-.897 0-1.06-.778-1.409-.778-.348-2.375-.348z"/></svg>