<svg xmlns="http://www.w3.org/2000/svg" viewBox="0 0 20 20"><path d="M3.95 4a.75.75 0 0 1 0 1.5H3a.5.5 0 0 0-.5.5v11a.5.5 0 0 0 .5.5h11a.5.5 0 0 0 .5-.5v-1.25a.75.75 0 0 1 1.5 0V17a2 2 0 0 1-2 2H3l-.204-.01A2 2 0 0 1 1 17V6a2 2 0 0 1 2-2z"/><path d="M17.483 3c.27 0 .529.107.72.296a1.007 1.007 0 0 1 0 1.429l-7.432 7.48a1.01 1.01 0 0 1-.758.294 1.02 1.02 0 0 1-.757-.295L6.31 9.381a1.01 1.01 0 0 1-.235-1.11 1 1 0 0 1 .556-.551 1.03 1.03 0 0 1 1.117.232l2.264 2.148 6.75-6.804c.191-.19.45-.296.72-.296"/></svg>
