<svg xmlns="http://www.w3.org/2000/svg" viewBox="0 0 20 20"><path d="M3.95 4a.75.75 0 0 1 0 1.5H3a.5.5 0 0 0-.5.5v11a.5.5 0 0 0 .5.5h11a.5.5 0 0 0 .5-.5v-1.25a.75.75 0 0 1 1.5 0V17a2 2 0 0 1-2 2H3l-.204-.01A2 2 0 0 1 1 17V6a2 2 0 0 1 2-2zm8.554-3a6.5 6.5 0 1 1 0 13 6.5 6.5 0 0 1 0-13m2.74 3.759a.81.81 0 0 0-1.148 0l-1.592 1.593-1.593-1.593a.812.812 0 1 0-1.148 1.15L11.355 7.5 9.763 9.092a.813.813 0 0 0 1.148 1.15l1.593-1.593 1.592 1.592a.812.812 0 1 0 1.148-1.15L13.652 7.5l1.592-1.592a.813.813 0 0 0 0-1.15"/><path d="M3.95 4a.75.75 0 0 1 0 1.5H3a.5.5 0 0 0-.5.5v11a.5.5 0 0 0 .5.5h11a.5.5 0 0 0 .5-.5v-1.25a.75.75 0 0 1 1.5 0V17a2 2 0 0 1-2 2H3l-.204-.01A2 2 0 0 1 1 17V6a2 2 0 0 1 2-2zm8.554-3a6.5 6.5 0 1 1 0 13 6.5 6.5 0 0 1 0-13m2.74 3.759a.81.81 0 0 0-1.148 0l-1.592 1.593-1.593-1.593a.812.812 0 1 0-1.148 1.15L11.355 7.5 9.763 9.092a.813.813 0 0 0 1.148 1.15l1.593-1.593 1.592 1.592a.812.812 0 1 0 1.148-1.15L13.652 7.5l1.592-1.592a.813.813 0 0 0 0-1.15Z"/></svg>