<svg xmlns="http://www.w3.org/2000/svg" viewBox="0 0 20 20"><path d="M3.95 4a.75.75 0 0 1 0 1.5H3a.5.5 0 0 0-.5.5v11a.5.5 0 0 0 .5.5h11a.5.5 0 0 0 .5-.5v-1.25a.75.75 0 0 1 1.5 0V17a2 2 0 0 1-2 2H3l-.204-.01A2 2 0 0 1 1 17V6a2 2 0 0 1 2-2z"/><path d="m6.923 13.22.205-.305q-.389-.198-.436-.371-.048-.18.101-.733.124-.329.147-.521a4 4 0 0 0 0-.634q-.274-.816-.248-1.102.026-.288.416-.756L13.033.56q.708-1.194 2.8.158 2.09 1.354 1.561 2.35l-5.143 9.067q-.209.541-.46.685-.255.141-1.08.183-.335.11-.646.279a2.7 2.7 0 0 0-.46.41q-.384.348-.552.349-.126 0-.46-.2l-.27.359-1.401-.98zm-.244.364 1.379.965-.344.451H5.728z"/></svg>