<svg xmlns="http://www.w3.org/2000/svg" viewBox="0 0 17 17"><path d="M9.587 15.083c.298.031.532.287.532.597s-.234.566-.532.597l-.06.003H6.765a.596.596 0 0 1-.591-.6c0-.331.264-.6.591-.6h2.762z"/><path fill-rule="evenodd" d="M8.143 3.481c.645 0 1.272.155 1.932.438l.323.149c.731.361 1.297.82 1.703 1.416.463.678.682 1.479.76 2.392l.012.207c.025 1.007-.43 1.647-.877 2.177-.45.532-.84.921-1.058 1.548l-.042.13c-.164.557-.317 1.363-.403 1.85a1.07 1.07 0 0 1-1.047.891H6.841a1.07 1.07 0 0 1-1.047-.891 25 25 0 0 0-.283-1.395l-.12-.456c-.207-.704-.62-1.109-1.1-1.677-.477-.565-.962-1.255-.866-2.384l.037-.337c.1-.775.32-1.462.724-2.055.465-.68 1.138-1.182 2.027-1.565l.246-.1c.57-.22 1.12-.338 1.684-.338m0 1.2c-.393 0-.801.081-1.265.26l-.204.083c-.741.319-1.21.696-1.515 1.144-.27.394-.44.885-.525 1.527l-.03.285c-.056.645.179 1.018.586 1.5.404.478 1.039 1.106 1.335 2.115l.068.246c.144.55.27 1.206.348 1.638h2.405c.09-.498.244-1.294.417-1.884l.06-.185c.314-.902.895-1.482 1.274-1.93.382-.452.612-.808.593-1.382l-.007-.118c-.067-.785-.247-1.362-.554-1.812-.268-.392-.66-.73-1.25-1.022l-.266-.122c-.551-.237-1.02-.343-1.47-.343" clip-rule="evenodd"/><path d="M2.937 11.389a.585.585 0 0 1 .837 0c.23.234.23.614 0 .848l-.84.851-.045.041a.586.586 0 0 1-.792-.041.61.61 0 0 1-.04-.803l.04-.045zm9.409 0a.586.586 0 0 1 .836 0l.84.85.04.046a.61.61 0 0 1-.04.803.586.586 0 0 1-.791.041l-.045-.041-.84-.85a.607.607 0 0 1 0-.85M2.038 7.085c.326 0 .591.268.591.6s-.265.6-.591.6H.85l-.06-.004a.597.597 0 0 1-.531-.597c0-.31.233-.566.531-.597l.06-.003zm13.291.002c.298.03.53.287.53.597s-.232.566-.53.597l-.06.003h-1.187a.596.596 0 0 1-.591-.6c0-.33.264-.6.59-.6h1.188zM2.727 2.544a.586.586 0 0 1 .792-.04l.044.04.839.853c.23.234.23.614 0 .848a.586.586 0 0 1-.836 0l-.839-.852-.04-.046a.61.61 0 0 1 .04-.803m9.874-.04a.586.586 0 0 1 .792.04c.216.22.23.568.04.803l-.04.046-.839.852a.586.586 0 0 1-.836 0 .606.606 0 0 1 0-.848l.838-.853zM8.066.68c.306 0 .558.237.588.54l.003.06v1.204c0 .331-.264.6-.59.6a.596.596 0 0 1-.592-.6V1.28l.002-.06a.596.596 0 0 1 .589-.54"/></svg>