<svg xmlns="http://www.w3.org/2000/svg" viewBox="0 0 20 20"><path d="M11.91 18.255a.747.747 0 0 1 .663.746.747.747 0 0 1-.664.746l-.075.004H8.382a.745.745 0 0 1-.74-.75c0-.414.331-.75.74-.75h3.452z"/><path fill-rule="evenodd" d="M10.104 3.752c.807 0 1.59.193 2.415.548l.404.185c.913.452 1.62 1.026 2.129 1.77.578.848.852 1.85.95 2.991l.014.258c.031 1.26-.537 2.059-1.096 2.722-.562.665-1.05 1.151-1.322 1.935l-.053.161c-.204.698-.397 1.704-.504 2.314a1.34 1.34 0 0 1-1.308 1.114H8.476c-.65 0-1.196-.476-1.308-1.114a31 31 0 0 0-.354-1.743l-.15-.57c-.258-.882-.776-1.387-1.375-2.097-.596-.707-1.203-1.57-1.082-2.98l.045-.422c.126-.968.4-1.827.906-2.568.58-.851 1.422-1.478 2.533-1.956l.307-.126c.713-.274 1.401-.422 2.106-.422m0 1.5c-.492 0-1.001.102-1.582.325l-.254.104c-.927.398-1.513.87-1.894 1.43-.337.492-.551 1.106-.656 1.909l-.038.356c-.07.806.224 1.272.732 1.874.506.599 1.299 1.384 1.67 2.645l.084.307c.181.688.338 1.508.435 2.048h3.007c.112-.624.304-1.619.52-2.355l.075-.232c.394-1.127 1.12-1.852 1.594-2.413.476-.565.764-1.01.74-1.727l-.008-.147c-.084-.981-.308-1.702-.693-2.266-.334-.49-.824-.912-1.563-1.277l-.332-.152c-.688-.296-1.274-.43-1.837-.43" clip-rule="evenodd"/><path d="M3.597 13.637a.73.73 0 0 1 1.045 0 .76.76 0 0 1 0 1.06l-1.05 1.064-.056.052a.73.73 0 0 1-.99-.052.76.76 0 0 1-.05-1.004l.05-.057zm11.761 0a.73.73 0 0 1 1.045 0l1.05 1.063.05.057c.237.294.22.73-.05 1.004a.73.73 0 0 1-.99.052l-.055-.052-1.05-1.064a.76.76 0 0 1 0-1.06M2.472 8.257c.409 0 .74.336.74.75s-.331.75-.74.75L.99 9.756l-.075-.004a.746.746 0 0 1-.664-.746c0-.388.291-.708.664-.746l.075-.004zm16.614.003a.747.747 0 0 1 .664.746.746.746 0 0 1-.664.746l-.075.004h-1.483a.745.745 0 0 1-.74-.75c0-.413.331-.75.74-.75h1.483zM3.334 2.581c.27-.274.7-.29.99-.05l.055.05 1.048 1.065a.76.76 0 0 1 0 1.061.73.73 0 0 1-1.045 0L3.334 3.642l-.05-.057a.76.76 0 0 1 .05-1.004m12.343-.051a.73.73 0 0 1 .989.051.76.76 0 0 1 .05 1.004l-.05.057-1.048 1.065a.73.73 0 0 1-1.046 0 .76.76 0 0 1 0-1.06l1.049-1.066zM10.007.251c.383 0 .698.296.736.674l.003.076.001 1.505c0 .414-.33.75-.738.75a.745.745 0 0 1-.74-.75L9.268 1l.004-.076a.745.745 0 0 1 .735-.674"/></svg>