<svg xmlns="http://www.w3.org/2000/svg" viewBox="0 0 20 20"><path d="M12.004 16.683a.601.601 0 0 1 0 1.194l-.06.003H9.14a.6.6 0 0 1 0-1.2h2.802z"/><path fill-rule="evenodd" d="M10.54 5.08c.654 0 1.29.156 1.959.44l.328.148c.742.361 1.316.82 1.728 1.416.47.678.691 1.478.771 2.392l.012.206c.025 1.008-.436 1.648-.89 2.178-.456.532-.853.921-1.073 1.548l-.043.129c-.166.558-.322 1.363-.409 1.85a1.08 1.08 0 0 1-1.062.892H9.218a1.08 1.08 0 0 1-1.062-.891c-.065-.366-.17-.91-.288-1.395l-.12-.456c-.21-.705-.63-1.11-1.117-1.677-.484-.566-.977-1.256-.878-2.384l.036-.337c.103-.775.325-1.462.736-2.055.471-.68 1.154-1.182 2.056-1.565l.25-.1c.578-.22 1.136-.338 1.709-.338m0 1.2c-.4 0-.814.082-1.285.26l-.206.084c-.752.319-1.228.696-1.538 1.144-.273.394-.447.885-.532 1.527l-.03.285c-.057.645.181 1.017.594 1.5.41.478 1.054 1.106 1.354 2.115l.069.246c.147.55.275 1.206.353 1.638h2.44c.091-.499.248-1.295.423-1.884l.06-.185c.32-.902.91-1.482 1.294-1.93.387-.453.62-.808.602-1.382l-.007-.118c-.069-.785-.25-1.362-.563-1.812-.27-.392-.669-.73-1.268-1.022l-.27-.122c-.559-.237-1.034-.343-1.49-.343" clip-rule="evenodd"/><path d="M5.257 12.989a.6.6 0 0 1 .849.848l-.852.85-.046.042a.6.6 0 0 1-.844-.844l.041-.046zm9.547 0a.6.6 0 0 1 .848 0l.852.85.04.046a.6.6 0 0 1-.843.844l-.045-.041-.853-.851a.6.6 0 0 1 0-.848M4.345 8.685a.6.6 0 0 1 0 1.2L3.14 9.884l-.06-.003a.6.6 0 0 1 0-1.194l.06-.003zm13.485.002a.6.6 0 0 1 0 1.194l-.062.003h-1.204a.6.6 0 0 1 0-1.2h1.204zM5.044 4.144a.6.6 0 0 1 .803-.04l.046.04.85.852a.6.6 0 0 1-.848.849l-.85-.852-.041-.046a.6.6 0 0 1 .04-.803m10.018-.041a.6.6 0 0 1 .844.844l-.04.045-.851.853a.6.6 0 0 1-.849-.849l.85-.852zM10.46 2.28a.6.6 0 0 1 .597.54l.003.06.001 1.204a.6.6 0 0 1-1.2 0V2.88l.003-.06a.6.6 0 0 1 .596-.54"/></svg>