<svg viewBox="0 0 20 20" xmlns="http://www.w3.org/2000/svg"><path d="M5.789 3 0 17h1.664l1.664-4.027h6.797l.227.548c.046-.172.112-.352.209-.545.217-.436.556-.609.898-.798L7.664 3H5.79Zm.938 1.758 2.777 6.715H3.949l2.778-6.715Z"/><path d="M15.956 7.5c-1.584-.02-3.226.824-3.843 2.882l1.495.106c.904-2.082 4.594-2.13 4.375.534-3.245 1.024-4.838.117-6.082 2.62-.208.418-.17 1.57.54 2.397.71.826 2.014 1.149 3.409.85 1.395-.299 2.24-1.386 2.24-1.386L18.205 17h1.493l-.059-1.72-.056-5.274C19.51 8.612 17.75 7.524 15.956 7.5Zm2.027 4.696s.641 2.453-1.528 3.27c-3.376 1.269-4.188-2.141-1.775-2.638 1.704-.352 1.873-.25 3.303-.632Z"/></svg>