<svg viewBox="0 0 8 8" xmlns="http://www.w3.org/2000/svg">
<path d="M4.61481 3.77624L7.16061 6.32144C7.2732 6.43402 7.33644 6.58672 7.33644 6.74594C7.33644 6.90516 7.2732 7.05785 7.16061 7.17044C7.04803 7.28302 6.89533 7.34627 6.73611 7.34627C6.57689 7.34627 6.4242 7.28302 6.31161 7.17044L3.76641 4.62464L1.22061 7.17044C1.10803 7.28294 0.955361 7.34612 0.796198 7.34606C0.637036 7.346 0.484416 7.28272 0.371911 7.17014C0.259406 7.05755 0.196233 6.90489 0.196289 6.74573C0.196345 6.58656 0.259626 6.43394 0.372211 6.32144L2.91801 3.77624L0.372211 1.23044C0.262916 1.11728 0.202439 0.965715 0.203806 0.808397C0.205173 0.651079 0.268274 0.500591 0.379519 0.389346C0.490764 0.278101 0.641252 0.215 0.79857 0.213633C0.955888 0.212266 1.10745 0.272742 1.22061 0.382037L3.76641 2.92784L6.31161 0.382037C6.36732 0.326291 6.43346 0.282063 6.50626 0.251878C6.57906 0.221694 6.65709 0.206144 6.7359 0.206116C6.81471 0.206088 6.89275 0.221583 6.96557 0.251716C7.03839 0.281849 7.10456 0.32603 7.16031 0.381737C7.21606 0.437444 7.26029 0.503585 7.29047 0.576385C7.32065 0.649184 7.33621 0.727216 7.33623 0.806025C7.33626 0.884834 7.32077 0.962877 7.29063 1.0357C7.2605 1.10852 7.21632 1.17469 7.16061 1.23044L4.61481 3.77624Z"/>
</svg>
