<svg xmlns="http://www.w3.org/2000/svg" viewBox="0 0 20 20"><path d="M12.87 12.61a.75.75 0 0 1-.089.976l-.085.07-3.154 2.254 3.412 2.414a.75.75 0 0 1 .237.95l-.057.095a.75.75 0 0 1-.95.237l-.096-.058-4.272-3.022-.003-1.223 4.01-2.867a.75.75 0 0 1 1.047.174m2.795-.231.095.057 4.011 2.867-.003 1.223-4.272 3.022-.095.058a.75.75 0 0 1-.88-.151l-.07-.086-.058-.095a.75.75 0 0 1 .15-.88l.087-.07 3.412-2.414-3.154-2.253-.085-.071a.75.75 0 0 1 .862-1.207M16 0a2 2 0 0 1 2 2v9.354l-.663-.492-.837-.001V2a.5.5 0 0 0-.5-.5H2a.5.5 0 0 0-.5.5v15a.5.5 0 0 0 .5.5h3.118L7.156 19H2a2 2 0 0 1-2-2V2a2 2 0 0 1 2-2zM5.009 15l.003 1H3v-1zm2.188-2-1.471 1H5v-1zM10 11v.095L8.668 12H7v-1zm4-2v1H7V9zm0-2v1H7V7zm-4-2v1H5V5zM6 3v1H3V3z"/></svg>