<svg xmlns="http://www.w3.org/2000/svg" viewBox="0 0 20 20"><path d="M14 3.5A3.5 3.5 0 0 1 17.5 7v6l-.005.192a3.5 3.5 0 0 1-2.927 3.262l-.062.008v1.813a1.5 1.5 0 0 1-2.193 1.33l-.37-.193-.38-.212a13.5 13.5 0 0 1-3.272-2.63l-.062-.07-4.729-.046a3.5 3.5 0 0 1-3.5-3.5v-6a3.5 3.5 0 0 1 3.5-3.5zM3.5 4.954a2 2 0 0 0-2 2v6a2 2 0 0 0 2 2L8.924 15a11.9 11.9 0 0 0 3.71 3.081l.372.194v-3.268L12.962 15H14a2 2 0 0 0 2-2V7a2 2 0 0 0-2-2z" clip-rule="evenodd"/><path d="M16.5.5h-10a3.5 3.5 0 0 0-3.162 2h1.84A2 2 0 0 1 6.5 2h10a2 2 0 0 1 2 2v8.873a3.5 3.5 0 0 0 1.495-2.681L20 10V4A3.5 3.5 0 0 0 16.5.5"/><path d="M12.013 7.453a.75.75 0 0 1 .034 1.06l-3.75 4a.75.75 0 0 1-1.045.048l-2.25-2a.75.75 0 0 1 .996-1.122l1.704 1.515 3.25-3.467a.75.75 0 0 1 1.061-.034" clip-rule="evenodd"/></svg>