<svg xmlns="http://www.w3.org/2000/svg" viewBox="0 0 20 20"><path d="M14.045 12.467a.5.5 0 1 1-.267.963l-4.817-1.337a.5.5 0 0 1 .267-.964zm.803-2.892a.5.5 0 0 1-.268.964L9.764 9.202a.5.5 0 0 1 .267-.964zm.803-2.89a.5.5 0 0 1-.267.963l-4.82-1.337a.5.5 0 0 1 .268-.964z"/><path fill-rule="evenodd" d="M15.61 1.353c.232.043.41.244.414.489l.022 1.309-6.199-1.712h-.006l9.787 2.702c.27.074.429.353.354.622l-4.07 14.618-.038.095a.51.51 0 0 1-.587.257L7.77 17.656l-3.156.055a.51.51 0 0 1-.503-.395l-.013-.102L3.84 2.047a.507.507 0 0 1 .5-.513l2.803-.05 3.87-1.209.1-.021a.51.51 0 0 1 .536.352l.251.798 3.607-.06zm-5.956 1.59-.256.004-3.517 12.632 8.851 2.444L18.27 5.322zm-4.274.09.14 8.25L7.827 2.99z" clip-rule="evenodd"/><path d="m3.874 4.098-2.093.654 2.224 7.055.09 5.35L.024 4.242a.506.506 0 0 1 .333-.633l3.492-1.093z"/></svg>