<svg xmlns="http://www.w3.org/2000/svg" viewBox="0 0 20 20"><path d="m9.42 10.725 4.829 1.295a.5.5 0 1 1-.259.965l-4.829-1.294a.5.5 0 0 1 .259-.966m.776-2.897 4.829 1.293a.5.5 0 0 1-.259.966L9.938 8.794a.5.5 0 1 1 .258-.965m.776-2.898 4.83 1.294a.5.5 0 0 1-.258.966l-4.83-1.295a.5.5 0 0 1 .258-.965"/><path fill-rule="evenodd" d="M11.398.73a.5.5 0 0 1 .612.353l.213.796h3.432c.275 0 .5.225.5.5v.606L12.03 1.88l7.374 1.975a.5.5 0 0 1 .352.613l-3.881 14.49-.037.093a.5.5 0 0 1-.475.275l-.1-.016-5.342-1.431-5.266.001h4.554l-4.296 1.151-.1.017a.5.5 0 0 1-.475-.275l-.038-.095L.419 4.188a.5.5 0 0 1 .354-.612l3.382-.907v-.29c0-.275.225-.5.5-.5h2.453l.99-.265.068-.252a.5.5 0 0 1 .613-.353l.787.211zM5.99 15.273l8.694 2.33 3.362-12.558-8.692-2.329zM2.125 4.766l2.029 7.574V4.221zm3.529 5.966L7.625 3.38h-1.97z" clip-rule="evenodd"/></svg>