<svg viewBox="0 0 20 20" xmlns="http://www.w3.org/2000/svg"><path d="M6.25 16a.75.75 0 1 1 0 1.5H.75a.75.75 0 1 1 0-1.5h5.5zm0-5a.75.75 0 1 1 0 1.5H.75a.75.75 0 1 1 0-1.5h5.5zm3-5a.75.75 0 0 1 0 1.5H.75a.75.75 0 0 1 0-1.5h8.5zm6-5a.75.75 0 1 1 0 1.5H.75a.75.75 0 0 1 0-1.5h14.5zm.25 5.5a3.5 3.5 0 0 1 3.143 1.959.75.75 0 0 1-1.36.636A2 2 0 0 0 13.5 10v2H19a1 1 0 0 1 1 1v5a1 1 0 0 1-1 1h-7a1 1 0 0 1-1-1v-5a1 1 0 0 1 1-1v-2l.005-.192A3.5 3.5 0 0 1 15.5 6.5zm0 7.5a.5.5 0 0 0-.492.41L15 14.5v2a.5.5 0 0 0 .992.09L16 16.5v-2a.5.5 0 0 0-.5-.5z"/></svg>