<svg xmlns="http://www.w3.org/2000/svg" viewBox="0 0 16 15"><path d="m7.536 8.08 3.863 1.036a.4.4 0 1 1-.207.772L7.329 8.853a.4.4 0 0 1 .207-.773m.621-2.318 3.863 1.035a.4.4 0 0 1-.207.773L7.95 6.534a.4.4 0 1 1 .207-.772m.621-2.318 3.864 1.035a.4.4 0 0 1-.207.773L8.571 4.216a.4.4 0 0 1 .207-.772"/><path fill-rule="evenodd" d="M9.118.084a.4.4 0 0 1 .49.282l.17.637h2.746c.22 0 .4.18.4.4v.485l-3.3-.884 5.899 1.58a.4.4 0 0 1 .282.49L12.7 14.666l-.03.075a.4.4 0 0 1-.38.22l-.08-.013-4.273-1.145-4.213.001h3.643l-3.437.921-.08.013a.4.4 0 0 1-.38-.22l-.03-.076L.335 2.851a.4.4 0 0 1 .283-.49l2.706-.726v-.232c0-.22.18-.4.4-.4h1.962l.793-.212.054-.201a.4.4 0 0 1 .49-.283l.63.169zM4.793 11.718l6.955 1.864 2.69-10.046-6.954-1.863zM1.7 3.313l1.623 6.059V2.877zm2.823 4.773L6.1 2.203H4.524z" clip-rule="evenodd"/></svg>