<svg width="20" height="20" viewBox="0 0 20 20" fill="none" xmlns="http://www.w3.org/2000/svg">
  <g transform="translate(0, 0) scale(1.176)">
    <path d="M2.19961 14.48C1.77526 14.48 1.3683 14.3114 1.06824 14.0114C0.76818 13.7113 0.599609 13.3044 0.599609 12.88V1.68002C0.599609 1.25567 0.76818 0.848704 1.06824 0.548646C1.3683 0.248588 1.77526 0.0800171 2.19961 0.0800171H14.9996C15.424 0.0800171 15.8309 0.248588 16.131 0.548646C16.431 0.848704 16.5996 1.25567 16.5996 1.68002V12.88C16.5996 13.3044 16.431 13.7113 16.131 14.0114C15.8309 14.3114 15.424 14.48 14.9996 14.48H2.19961ZM6.99961 13.28H14.9996C15.1057 13.28 15.2074 13.2379 15.2825 13.1629C15.3575 13.0878 15.3996 12.9861 15.3996 12.88V1.68002C15.3996 1.57393 15.3575 1.47219 15.2825 1.39717C15.2074 1.32216 15.1057 1.28002 14.9996 1.28002H6.99961V13.28ZM5.79961 1.28002H2.19961C2.09352 1.28002 1.99178 1.32216 1.91677 1.39717C1.84175 1.47219 1.79961 1.57393 1.79961 1.68002V12.88C1.79961 12.9861 1.84175 13.0878 1.91677 13.1629C1.99178 13.2379 2.09352 13.28 2.19961 13.28H5.79961V1.28002Z" fill="#333333"/>
  </g>
</svg>