<svg xmlns="http://www.w3.org/2000/svg" viewBox="0 0 20 20"><path fill-rule="evenodd" d="M1.95.001a.95.95 0 0 0-.95.95v16.6c0 .525.425.95.95.95h5.641c.415 0 .75-.32.75-.735a.763.763 0 0 0-.75-.765H2.5v-15.5h6v4.55c0 .525.425.95.95.95H14v1.25c0 .414.342.75.757.75a.744.744 0 0 0 .743-.75v-2.31L9.56 0zm10.99 5.5L10 2.561v2.94z"/><path d="M11.47 10.47a.75.75 0 0 1 1.06 0l2.97 2.97 2.97-2.97a.75.75 0 0 1 1.06 1.061l-2.97 2.97 2.97 2.97a.75.75 0 0 1-1.06 1.06l-2.97-2.97-2.97 2.97a.75.75 0 1 1-1.06-1.06l2.97-2.97-2.97-2.97a.75.75 0 0 1 0-1.06"/></svg>