<svg xmlns="http://www.w3.org/2000/svg" viewBox="0 0 20 20"><path d="M5 9.5a.5.5 0 0 0 .5-.5v-.5A.5.5 0 0 0 5 8H3.5a.5.5 0 0 0-.5.5V9a.5.5 0 0 0 .5.5zm.5 2.5a.5.5 0 0 1-.5.5H3.5A.5.5 0 0 1 3 12v-.5a.5.5 0 0 1 .5-.5H5a.5.5 0 0 1 .5.5zM5 6.5a.5.5 0 0 0 .5-.5v-.5A.5.5 0 0 0 5 5H3.5a.5.5 0 0 0-.5.5V6a.5.5 0 0 0 .5.5z"/><path d="M2 19a2 2 0 0 1-2-2V3a2 2 0 0 1 2-2h16a2 2 0 0 1 2 2v14a2 2 0 0 1-2 2zm6-1.5h10a.5.5 0 0 0 .5-.5V3a.5.5 0 0 0-.5-.5H8zm-1.5-15H2a.5.5 0 0 0-.5.5v14a.5.5 0 0 0 .5.5h4.5z" clip-rule="evenodd"/></svg>