<svg viewBox="0 0 20 20" xmlns="http://www.w3.org/2000/svg"><path clip-rule="evenodd" d="M5.972 3.115A.746.746 0 0 1 6.374 3c.14 0 .28.037.402.115l3.229 2.059 3.228-2.057a.75.75 0 0 1 .805 0l3.629 2.31h.002a.757.757 0 0 1 0 1.264h-.002L15.034 8.37l2.633 1.678h.002a.756.756 0 0 1 0 1.262h-.002l-3.63 2.312a.746.746 0 0 1-.161.076c.234.08.409.275.482.5a.75.75 0 0 1-.322.854l-3.629 2.308a.75.75 0 0 1-.805 0l-3.63-2.31a.75.75 0 0 1-.229-1.031l.076-.122h.022a.746.746 0 0 1 .32-.189.75.75 0 0 1-.19-.086l-3.63-2.312a.756.756 0 0 1 0-1.264l2.632-1.678-2.632-1.676a.757.757 0 0 1 0-1.263l3.63-2.313Zm2.64 2.946L6.374 4.635 4.136 6.06l2.238 1.423L8.612 6.06Zm7.262 0-2.236-1.426-2.239 1.426 2.237 1.423 2.238-1.423Zm-3.637 2.306-2.232-1.422-2.233 1.422 2.235 1.422 2.23-1.422Zm-3.625 2.31L6.374 9.253l-2.238 1.426 2.238 1.424 2.238-1.424Zm7.262 0-2.236-1.425-2.239 1.426 2.237 1.424 2.238-1.424Zm-2.64 2.944-3.23-2.056-3.228 2.056a.75.75 0 0 1-.185.084.724.724 0 0 1 .185.08l3.229 2.057 3.226-2.055a.827.827 0 0 1 .18-.084.746.746 0 0 1-.178-.082Z"/></svg>