<svg viewBox="0 0 20 20" xmlns="http://www.w3.org/2000/svg"><path clip-rule="evenodd" d="M8.5 8.25a1.25 1.25 0 1 1-2.499.001A1.25 1.25 0 0 1 8.5 8.25Z"/><path clip-rule="evenodd" d="M14 8.25a1.25 1.25 0 1 1-2.499.001A1.25 1.25 0 0 1 14 8.25Z"/><path clip-rule="evenodd" d="M7.127 12.088a.75.75 0 1 0-1.254.824C6.88 14.444 8.423 15.25 10 15.25c1.578 0 3.12-.805 4.127-2.338a.75.75 0 0 0-1.254-.824C12.13 13.221 11.048 13.75 10 13.75c-1.047 0-2.13-.529-2.873-1.662Z"/><path d="M10 19a9 9 0 1 0 0-18 9 9 0 0 0 0 18Zm0-1.5a7.5 7.5 0 1 1 0-15 7.5 7.5 0 0 1 0 15Z"/></svg>