<svg xmlns="http://www.w3.org/2000/svg" viewBox="0 0 20 20"><path d="M2.97 2.97a.75.75 0 0 1 1.06 0L5.56 4.5q.397-.254.807-.477c1.133-.614 2.388-1.052 3.652-1.02 1.25.032 2.492.494 3.618 1.116 1.133.625 2.2 1.44 3.109 2.235a29 29 0 0 1 2.858 2.898q.112.13.171.204l.046.055.012.015.004.004v.002q.07.091.11.193l.02.05q.013.045.02.09l.01.054a1 1 0 0 1 0 .146q-.002.033-.009.065l-.017.082-.024.061q-.014.039-.03.075l-.01.019a1 1 0 0 1-.06.093l-.003-.002.002.003h-.002l-.003.006-.012.015-.046.058-.17.21a27.5 27.5 0 0 1-2.861 2.978q-.508.452-1.072.892l1.35 1.35a.75.75 0 0 1-1.02 1.098 1 1 0 0 0-.08-.097l-13-13-.043-.039a.75.75 0 0 1 .083-.961m1.27 4.432a26 26 0 0 0-2.096 2.106l-.014.016a.695.695 0 0 0 .007.932 27 27 0 0 0 2.105 2.064c.861.753 1.838 1.495 2.846 2.051 1.013.56 2.014.906 2.931.93.612.015 1.26-.128 1.93-.39l1.14 1.14c-.984.466-2.043.776-3.109.749-1.249-.032-2.491-.494-3.618-1.116-1.132-.626-2.199-1.44-3.108-2.235a28.6 28.6 0 0 1-3.029-3.102l-.045-.055-.012-.016-.004-.004-.001-.002a1 1 0 0 1-.065-.092l-.007-.015a1 1 0 0 1-.041-.094l-.017-.042q-.014-.045-.02-.091-.007-.027-.01-.054Q0 10.042 0 10v-.064q.004-.04.013-.079l.013-.06a1 1 0 0 1 .031-.084q.011-.03.025-.058l.012-.022a1 1 0 0 1 .06-.09h.001V9.54l.004-.005.012-.016.046-.057.17-.211a27.6 27.6 0 0 1 2.788-2.913zm6.522 6.523a4 4 0 0 1-.762.077 4 4 0 0 1-3.926-4.766zM9.98 4.502c-.902-.023-1.89.293-2.897.84q-.218.117-.434.248l1.103 1.102a4 4 0 0 1 5.557 5.557l1.3 1.3c.397-.301.782-.619 1.145-.942a26 26 0 0 0 2.117-2.13.696.696 0 0 0-.008-.93 27 27 0 0 0-2.104-2.064c-.861-.753-1.84-1.495-2.847-2.052-1.014-.559-2.014-.906-2.932-.93m1.22 2.7c-.809 0-1.466.64-1.497 1.441l1.555 1.555a1.5 1.5 0 0 0-.058-2.996"/></svg>