<svg xmlns="http://www.w3.org/2000/svg" viewBox="0 0 20 20"><path fill-rule="evenodd" d="M10 6.002a4 4 0 1 1 0 8 4 4 0 0 1 0-8m1.2 1.2a1.5 1.5 0 1 0 0 3 1.5 1.5 0 0 0 0-3" clip-rule="evenodd"/><path fill-rule="evenodd" d="M10.02 3.003c1.249.032 2.49.494 3.617 1.116 1.133.625 2.2 1.44 3.109 2.235a28.6 28.6 0 0 1 2.858 2.898l.171.204.046.054.012.016.004.004v.002a.8.8 0 0 1 .11.193l.02.05q.013.045.02.09l.01.054a.7.7 0 0 1 0 .146q-.002.032-.009.065l-.017.082-.024.061q-.014.038-.03.075l-.01.019a1 1 0 0 1-.06.093l-.002-.002h-.001l.002.003h-.001l-.004.005-.012.016-.046.058-.17.21a27.5 27.5 0 0 1-2.861 2.977c-.912.811-1.981 1.635-3.12 2.252-1.132.614-2.387 1.053-3.652 1.02-1.249-.031-2.49-.493-3.618-1.115-1.133-.626-2.199-1.44-3.108-2.235a28.6 28.6 0 0 1-3.029-3.102l-.045-.055-.012-.016-.004-.004-.001-.002a1 1 0 0 1-.065-.092l-.007-.015q-.025-.045-.041-.094l-.017-.042q-.014-.044-.02-.092-.007-.026-.01-.053Q0 10.042 0 10q-.002-.033 0-.065.004-.04.013-.079l.013-.06a1 1 0 0 1 .031-.084q.011-.03.025-.058l.012-.022a1 1 0 0 1 .06-.09h.001V9.54l.004-.005.012-.016.046-.057.17-.211a27.5 27.5 0 0 1 2.86-2.977c.911-.81 1.98-1.635 3.119-2.252 1.133-.614 2.388-1.052 3.652-1.02m-.04 1.499c-.902-.023-1.89.293-2.897.84-1.002.543-1.976 1.289-2.836 2.054a26 26 0 0 0-2.103 2.112l-.014.016a.695.695 0 0 0 .007.932 27 27 0 0 0 2.105 2.064c.861.753 1.838 1.495 2.846 2.051 1.013.56 2.014.906 2.931.93.903.022 1.89-.293 2.898-.84 1.002-.544 1.977-1.288 2.837-2.054a26 26 0 0 0 2.117-2.13.695.695 0 0 0-.008-.93 27 27 0 0 0-2.104-2.064c-.862-.753-1.839-1.495-2.847-2.052-1.014-.56-2.014-.906-2.932-.93" clip-rule="evenodd"/></svg>