<svg xmlns="http://www.w3.org/2000/svg" viewBox="0 0 20 20"><path d="M10.01 2C5.59 2 2 5.59 2 10.01a8.01 8.01 0 0 0 6.775 7.914.75.75 0 0 0 .598-.17.75.75 0 0 0 .262-.565v-5.02a.75.75 0 0 0-.22-.524.75.75 0 0 0-.526-.221H7.77v-.627h1.12a.75.75 0 0 0 .525-.22c.14-.14.22-.329.22-.526V8.324c0-.466.122-1.083.524-1.48.33-.326 1.017-.6 2.332-.43v.408c-.152.012-.305.017-.457.04-.335.048-.662.136-.943.326-.313.21-.497.505-.59.804s-.107.602-.107.88v1.18a.746.746 0 0 0 .744.746h1.158l-.098.63h-1.06a.744.744 0 0 0-.744.744v5.017a.75.75 0 0 0 .26.567q.123.105.28.148a.75.75 0 0 0 .319.022A8.012 8.012 0 0 0 10.01 2m0 1.486a6.52 6.52 0 0 1 6.521 6.524c0 2.945-1.973 5.386-4.65 6.197v-3.291h.951a.75.75 0 0 0 .736-.63l.332-2.12a.74.74 0 0 0-.17-.6.75.75 0 0 0-.564-.26h-1.285V8.87c0-.252.024-.384.039-.433q.003-.011.002-.016c.016-.011.104-.055.326-.088a7 7 0 0 1 .984-.05.75.75 0 0 0 .528-.218.74.74 0 0 0 .217-.527V5.76a.75.75 0 0 0-.586-.729c-2.04-.438-3.433-.083-4.278.75-.818.807-.968 1.884-.968 2.543v.983H7.027a.74.74 0 0 0-.525.22.74.74 0 0 0-.219.526v2.119c0 .197.08.386.219.525.14.14.328.221.525.221h1.118v3.291c-2.681-.809-4.659-3.25-4.659-6.197a6.523 6.523 0 0 1 6.524-6.526"/></svg>