<svg xmlns="http://www.w3.org/2000/svg" width="20" height="20" viewBox="0 0 20 20"><path d="M19.832 7.469V1h-1.004q-.21.59-.778 1.03-.567.443-1.05.6v1.121a4.3 4.3 0 0 0 1.595-.936v4.654zM5.465 7.452q1.19 0 1.934.27t1.094.682q.35.405.49 1.029.08.387.08 1.398v2.021q0 2.115.095 2.68.105.556.404 1.07H7.916a3.1 3.1 0 0 1-.315-1.103q-.876.716-1.69 1.01a5 5 0 0 1-1.733.296q-1.531 0-2.355-.716-.822-.725-.823-1.846 0-.657.307-1.196.315-.547.814-.876a4 4 0 0 1 1.138-.497q.465-.118 1.4-.228 1.908-.219 2.81-.522.009-.312.009-.397 0-.926-.447-1.305-.603-.514-1.794-.514-1.111 0-1.646.379-.525.37-.779 1.322l-1.54-.202q.21-.953.69-1.533.483-.59 1.392-.902.911-.32 2.11-.32m7.048 1.034Q13.51 7.26 15.06 7.26q.858 0 1.62.343.77.334 1.26.952.5.61.78 1.475a6 6 0 0 1 .28 1.854q0 2.341-1.182 3.62t-2.837 1.278q-1.645 0-2.582-1.347v1.141h-1.461V4h1.575zm-5.044 3.625q-.858.337-2.573.574-.972.134-1.375.303a1.35 1.35 0 0 0-.622.497 1.24 1.24 0 0 0-.218.716q0 .606.472 1.01.482.405 1.4.405.912 0 1.62-.379.71-.387 1.043-1.052.253-.515.253-1.517zM14.92 8.53q-1.033 0-1.786.884-.753.875-.753 2.54 0 1.638.455 2.367.744 1.193 2.014 1.193 1.032 0 1.785-.875.753-.884.753-2.625 0-1.785-.727-2.634-.717-.85-1.741-.85"/></svg>