<svg viewBox="0 0 20 20" xmlns="http://www.w3.org/2000/svg"><path d="M11.5 5.75a.75.75 0 0 1 0-1.5H15a.75.75 0 0 1 .75.75v3.5a.75.75 0 0 1-1.5 0V6.81l-2.72 2.72a.75.75 0 0 1-1.06-1.06l2.72-2.72H11.5Z"/><path d="M9.53 10.47a.75.75 0 0 1 0 1.06l-2.72 2.72H8.5a.75.75 0 0 1 0 1.5H5a.75.75 0 0 1-.75-.75v-3.5a.75.75 0 0 1 1.5 0v1.69l2.72-2.72a.75.75 0 0 1 1.06 0Z"/><path d="M2 0h16a2 2 0 0 1 2 2v16a2 2 0 0 1-2 2H2a2 2 0 0 1-2-2V2a2 2 0 0 1 2-2Zm16 1.5H2a.5.5 0 0 0-.5.5v16a.5.5 0 0 0 .5.5h16a.5.5 0 0 0 .5-.5V2a.5.5 0 0 0-.5-.5Z"/></svg>