<svg xmlns="http://www.w3.org/2000/svg" viewBox="0 0 20 20"><path d="M9.258 3.082c0-.594.486-1.082 1.08-1.082a4.38 4.38 0 0 1 4.239 5.489c-.18.688-.633 1.245-1.109 1.767h3.468c.595 0 1.082.488 1.082 1.082a4.382 4.382 0 0 1-5.49 4.24v-.001c-.689-.18-1.246-.633-1.768-1.109v3.468c0 .595-.487 1.082-1.082 1.082a4.38 4.38 0 0 1-4.111-2.866 4.4 4.4 0 0 1-.125-2.624c.18-.689.632-1.246 1.108-1.768H3.082A1.085 1.085 0 0 1 2 9.68a4.382 4.382 0 0 1 5.49-4.238c.69.18 1.246.632 1.768 1.108zm3.164 1.32c-.435-.46-1.043-.667-1.662-.767v5.49c.619-.1 1.227-.307 1.662-.766a2.875 2.875 0 0 0 0-3.958ZM7.21 6.918a2.88 2.88 0 0 0-2.93.789c-.396.423-.569.983-.658 1.55h5.56c-.045-.295-.091-.59-.224-.859a2.88 2.88 0 0 0-1.748-1.48m9.254 3.841h-5.653l.013.1c.012.098.025.197.053.292a2.873 2.873 0 0 0 4.862 1.158 3 3 0 0 0 .398-.54v-.001q.167-.294.263-.619c.026-.092.038-.188.05-.283zm-8.872 4.86c.437.459 1.045.666 1.665.766V10.89c-1.369.222-2.456 1.314-2.456 2.747 0 .738.283 1.447.791 1.981Z" clip-rule="evenodd"/></svg>