<svg viewBox="0 0 20 20" xmlns="http://www.w3.org/2000/svg"><path d="M7.666 3a.736.736 0 0 0-.371.1.748.748 0 0 0-.275.267l-4.918 8.397a.743.743 0 0 0-.006.744l2.46 4.318a.747.747 0 0 0 .65.377h9.606a.754.754 0 0 0 .65-.377l2.46-4.318a.74.74 0 0 0 .002-.735l-4.688-8.392a.754.754 0 0 0-.654-.38H7.666Zm1.285 1.492h3.195l3.854 6.9h-3.1l-3.949-6.9Zm-1.293.742L9.223 7.97l-4.016 6.988-1.6-2.813 4.051-6.91Zm2.424 4.237 1.098 1.922H8.977l1.105-1.922ZM8.12 12.885h7.87l-1.61 2.825H6.494l1.625-2.826Z"/></svg>