<svg xmlns="http://www.w3.org/2000/svg" viewBox="0 0 20 20"><path d="M3 8.5h5V4a1 1 0 0 1 1-1h.5a1 1 0 0 1 1 1v11.5a1 1 0 0 1-1 1H9a1 1 0 0 1-1-1V11H3v4.5a1 1 0 0 1-1 1h-.5a1 1 0 0 1-1-1V4a1 1 0 0 1 1-1H2a1 1 0 0 1 1 1zm16.076 8.343V18.5h-6.252q.1-.94.61-1.78.507-.841 2.005-2.232 1.206-1.124 1.479-1.523.368-.552.368-1.092 0-.597-.32-.917-.321-.32-.886-.32-.559 0-.889.336t-.38 1.117l-1.778-.178q.159-1.473.997-2.114t2.095-.64q1.377 0 2.164.742t.787 1.847q0 .629-.225 1.197-.225.567-.714 1.19-.324.412-1.168 1.187-.845.774-1.07 1.028a3 3 0 0 0-.365.495z"/></svg>