<svg xmlns="http://www.w3.org/2000/svg" viewBox="0 0 20 20"><path d="M3 8.5h5V4a1 1 0 0 1 1-1h.5a1 1 0 0 1 1 1v11.5a1 1 0 0 1-1 1H9a1 1 0 0 1-1-1V11H3v4.5a1 1 0 0 1-1 1h-.5a1 1 0 0 1-1-1V4a1 1 0 0 1 1-1H2a1 1 0 0 1 1 1zm9.989 7.53 1.726-.209q.082.66.445 1.01.36.348.876.349.552 0 .93-.42.377-.418.377-1.13 0-.672-.362-1.066a1.15 1.15 0 0 0-.882-.393q-.342 0-.819.133l.197-1.453q.723.019 1.105-.315.38-.333.38-.885 0-.47-.279-.75-.28-.278-.743-.278a1.07 1.07 0 0 0-.78.317q-.324.317-.394.927l-1.644-.28q.172-.844.517-1.348.347-.505.965-.794a3.24 3.24 0 0 1 1.387-.289q1.314 0 2.108.838.654.685.653 1.549 0 1.225-1.339 1.955.8.171 1.28.768.478.597.478 1.441 0 1.226-.895 2.088-.894.864-2.228.864-1.263 0-2.094-.727-.832-.727-.965-1.901z"/></svg>