<svg xmlns="http://www.w3.org/2000/svg" viewBox="0 0 20 20"><path d="M3.5 8.5h5V4a1 1 0 0 1 1-1h.5a1 1 0 0 1 1 1v11.5a1 1 0 0 1-1 1h-.5a1 1 0 0 1-1-1V11h-5v4.5a1 1 0 0 1-1 1H2a1 1 0 0 1-1-1V4a1 1 0 0 1 1-1h.5a1 1 0 0 1 1 1zm9.578 7.607 1.777-.184q.076.603.45.955a1.223 1.223 0 0 0 1.81-.101q.387-.455.387-1.368 0-.857-.384-1.286-.384-.428-1-.428-.768 0-1.377.679l-1.448-.21.915-4.843h4.716v1.67H15.56l-.28 1.58a2.7 2.7 0 0 1 1.219-.298 2.68 2.68 0 0 1 2.012.863q.825.864.825 2.241a3.36 3.36 0 0 1-.666 2.05q-.907 1.232-2.52 1.232-1.29 0-2.101-.692-.813-.691-.971-1.86"/></svg>