<svg xmlns="http://www.w3.org/2000/svg" viewBox="0 0 20 20"><path d="M3.5 8.5h5V4a1 1 0 0 1 1-1h.5a1 1 0 0 1 1 1v11.5a1 1 0 0 1-1 1h-.5a1 1 0 0 1-1-1V11h-5v4.5a1 1 0 0 1-1 1H2a1 1 0 0 1-1-1V4a1 1 0 0 1 1-1h.5a1 1 0 0 1 1 1zm15.595 2.973-1.726.19q-.064-.532-.33-.787-.267-.253-.692-.253-.565 0-.956.507-.39.508-.492 2.114.667-.787 1.657-.787 1.117 0 1.914.85.797.852.797 2.197 0 1.428-.838 2.291-.838.864-2.152.864-1.41 0-2.317-1.095t-.908-3.59q0-2.558.946-3.688t2.457-1.13q1.059 0 1.755.594.694.593.885 1.723m-4.043 3.891q0 .87.4 1.343.398.473.914.473.495 0 .825-.388.33-.386.33-1.27 0-.906-.355-1.329a1.12 1.12 0 0 0-.89-.422q-.513 0-.869.403c-.356.403-.355.666-.355 1.19"/></svg>