<svg xmlns="http://www.w3.org/2000/svg" viewBox="0 0 20 20"><path d="M17 0a2 2 0 0 1 2 2v7a1 1 0 0 1 1 1v5a1 1 0 0 1-.883.993l-.118.006L19 17a2 2 0 0 1-2 2H3a2 2 0 0 1-2-2l-.001-1.001-.116-.006A1 1 0 0 1 0 15v-5a1 1 0 0 1 .999-1L1 2a2 2 0 0 1 2-2zm.499 15.999h-15L2.5 17a.5.5 0 0 0 .5.5h14a.5.5 0 0 0 .5-.5zm-3.478-6.013-.014.014H14v.007l-1.525 1.525-1.46-1.46-.015.013V10h-1v5h1v-3.53l1.428 1.43.048.043.131-.129L14 11.421V15h1v-5h-.965zM2 10H1v5h1v-2h2v2h1v-5H4v2H2zm7 0H6v1h1v4h1v-4h1zm8 0h-1v5h3v-1h-2zm0-8.5H3a.5.5 0 0 0-.5.5l-.001 6.999h15L17.5 2a.5.5 0 0 0-.5-.5M10 7v1H4V7zm3-2v1H4V5zm-3-2v1H4V3z"/></svg>