<svg viewBox="0 0 20 20" xmlns="http://www.w3.org/2000/svg"><path d="M1.201 1C.538 1 0 1.47 0 2.1v14.363c0 .64.534 1.037 1.186 1.037h7.029a5.401 5.401 0 0 1 .615-4.338l.762-1.232-2.975-2.78a.696.696 0 0 0-.957-.033L1.5 13.6V2.5h15v6.023c.449.131.887.32 1.307.573l.058.033c.046.028.09.057.135.086V2.1c0-.63-.547-1.1-1.2-1.1H1.202Zm11.713 2.803a2.15 2.15 0 0 0-1.611.834 2.118 2.118 0 0 0-.438 1.158 2.14 2.14 0 0 0 1.277 2.096 2.132 2.132 0 0 0 2.645-3.11 2.13 2.13 0 0 0-1.873-.978Z"/><path d="M16.63 10.294a3.003 3.003 0 0 0-4.142.887l-.117.177a.647.647 0 0 0-.096.492.664.664 0 0 0 .278.418.7.7 0 0 0 .944-.234 1.741 1.741 0 0 1 2.478-.463 1.869 1.869 0 0 1 .476 2.55.637.637 0 0 0-.071.5.646.646 0 0 0 .309.396.627.627 0 0 0 .869-.19l.027-.041a3.226 3.226 0 0 0-.956-4.492Zm-6.061 3.78-.044.066a3.228 3.228 0 0 0 .82 4.403 3.005 3.005 0 0 0 4.275-.798l.13-.197a.626.626 0 0 0 .092-.475.638.638 0 0 0-.268-.402.713.713 0 0 0-.99.26l-.018.029a1.741 1.741 0 0 1-2.477.461 1.87 1.87 0 0 1-.475-2.55l.029-.047a.647.647 0 0 0 .086-.485.66.66 0 0 0-.275-.408l-.04-.027a.609.609 0 0 0-.845.17Z"/><path d="M15.312 13.925c.24-.36.154-.838-.19-1.067-.346-.23-.82-.124-1.059.236l-1.268 1.907c-.239.36-.153.838.192 1.067.345.23.818.123 1.057-.236l1.268-1.907Z"/></svg>