<svg xmlns="http://www.w3.org/2000/svg" viewBox="0 0 20 20"><path d="M19 4.5 14 0H3v12.673l.868-1.041c.185-.222.4-.402.632-.54V1.5h8v5h5v7.626a2.24 2.24 0 0 1 1.5.822zM14 5V2l3.3 3zm-3.692 12.5q.093.157.213.303L11.52 19H8v-.876a2.24 2.24 0 0 0 1.82-.624zm7.518-.657a.75.75 0 0 0-1.152-.96L15.5 17.29V12H14v5.29l-1.174-1.408a.75.75 0 0 0-1.152.96l2.346 2.816a.95.95 0 0 0 1.46 0zm-15.056-.38a.75.75 0 0 1-.096-1.056l2.346-2.815a.95.95 0 0 1 1.46 0l2.346 2.815a.75.75 0 1 1-1.152.96L6.5 14.96V20H5v-5.04l-1.174 1.408a.75.75 0 0 1-1.056.096Z"/></svg>