<svg xmlns="http://www.w3.org/2000/svg" viewBox="0 0 20 20"><path d="m14 0 5 4.5v8.892l-1.5-1.8V6.5h-5v-5h-8v3H3V0zm0 2v3h3.3zm-3.26 16a2.8 2.8 0 0 1-.469-.5H3V19h9.25v-.374A2.74 2.74 0 0 1 10.74 18"/><path d="M8.5 6a1.5 1.5 0 0 1 1.493 1.356L10 7.5v7a1.5 1.5 0 0 1-1.356 1.493L8.5 16h-7a1.5 1.5 0 0 1-1.493-1.356L0 14.5v-7a1.5 1.5 0 0 1 1.356-1.493L1.5 6zM7.483 8.795l-.042.088-.986 2.534-.947-2.528-.043-.092a.601.601 0 0 0-1.042.008l-.042.093-.883 2.465-.937-2.475-.042-.089a.6.6 0 0 0-1.107.42l.027.093 1.514 4 .044.092a.6.6 0 0 0 1.041-.01l.041-.092.88-2.458.925 2.467.046.096a.602.602 0 0 0 1.032 0l.043-.09 1.554-4 .028-.093a.6.6 0 0 0-1.104-.43zm4.191 6.612a.75.75 0 1 0 1.152.96L14 14.96V20h1.5v-5.04l1.174 1.408a.75.75 0 1 0 1.152-.96l-2.346-2.816a.95.95 0 0 0-1.46 0z"/></svg>