<svg viewBox="0 0 20 20" xmlns="http://www.w3.org/2000/svg"><circle cx="10.0001" cy="9.79993" r="1.5"/><path d="M13.25 2.75V2h.035a6.272 6.272 0 0 1 .363.014c.21.013.517.041.785.109.397.1.738.281 1.007.55.268.269.429.587.524.907.182.608.15 1.314.108 1.913l-.03.408c-.038.487-.073.93-.053 1.353.026.527.136.879.333 1.112.223.263.494.428.72.528a2.077 2.077 0 0 0 .335.117l.01.002.613.109v.628h-2.402a3.34 3.34 0 0 1-.42-.415c-.509-.601-.655-1.345-.687-2.009-.025-.527.02-1.094.059-1.592.01-.12.018-.236.026-.347.044-.621.044-1.067-.049-1.377a.63.63 0 0 0-.148-.276.642.642 0 0 0-.313-.157 3.134 3.134 0 0 0-.512-.066 6.026 6.026 0 0 0-.286-.01h-.016L13.25 3.5h-.75V2h.75v.75Z"/><path d="M13.25 16.75v.75h.035a6.852 6.852 0 0 0 .363-.014 4.55 4.55 0 0 0 .785-.109c.397-.1.738-.28 1.007-.55.268-.269.429-.587.524-.907.182-.608.15-1.314.108-1.912l-.03-.41c-.038-.486-.073-.93-.053-1.352.026-.527.136-.879.333-1.112.223-.263.494-.428.72-.528a2.08 2.08 0 0 1 .335-.117l.01-.002.613-.109V9.75h-2.402a3.341 3.341 0 0 0-.42.416c-.509.6-.655 1.344-.687 2.008-.025.527.02 1.095.059 1.592.01.12.018.236.026.347.044.621.044 1.067-.049 1.378a.63.63 0 0 1-.148.275.643.643 0 0 1-.313.157 3.213 3.213 0 0 1-.512.066 6.178 6.178 0 0 1-.286.01l-.016.001H12.5v1.5h.75v-.75Z"/><path d="M6.75 2.75V2h-.035a6.278 6.278 0 0 0-.363.014 4.55 4.55 0 0 0-.785.109 2.13 2.13 0 0 0-1.008.55 2.119 2.119 0 0 0-.524.907c-.181.608-.15 1.314-.108 1.913l.031.408c.038.487.073.93.052 1.353-.025.527-.136.879-.333 1.112a2.013 2.013 0 0 1-.718.528 2.072 2.072 0 0 1-.337.117l-.01.002L2 9.122v.628h2.402a3.28 3.28 0 0 0 .42-.415c.509-.601.654-1.345.686-2.009.026-.527-.019-1.094-.058-1.592-.01-.12-.019-.236-.026-.347-.044-.621-.044-1.067.048-1.377a.63.63 0 0 1 .149-.276.642.642 0 0 1 .312-.157c.13-.032.323-.054.513-.066a6.027 6.027 0 0 1 .286-.01h.015L6.75 3.5h.75V2h-.75v.75Z"/><path d="M6.75 16.75v.75h-.035a6.86 6.86 0 0 1-.363-.014 4.549 4.549 0 0 1-.785-.109 2.131 2.131 0 0 1-1.008-.55 2.119 2.119 0 0 1-.524-.907c-.181-.608-.15-1.314-.108-1.912l.031-.41c.038-.486.073-.93.052-1.352-.025-.527-.136-.879-.333-1.112a2.013 2.013 0 0 0-.718-.528 2.075 2.075 0 0 0-.337-.117l-.01-.002L2 10.378V9.75h2.402c.144.119.286.257.42.416.509.6.654 1.344.686 2.008.026.527-.019 1.095-.058 1.592-.01.12-.019.236-.026.347-.044.621-.044 1.067.048 1.378a.63.63 0 0 0 .149.275.64.64 0 0 0 .312.157c.13.032.323.054.513.066a6.18 6.18 0 0 0 .286.01l.015.001H7.5v1.5h-.75v-.75Z"/></svg>