<svg xmlns="http://www.w3.org/2000/svg" viewBox="0 0 20 20"><circle cx="10" cy="9.8" r="1.5"/><path d="M13.25 2.75V2h.035a6 6 0 0 1 .363.014c.21.013.517.041.785.109.397.1.738.281 1.007.55s.429.587.524.907c.182.608.15 1.314.108 1.913l-.03.408c-.038.487-.073.93-.053 1.353.026.527.136.879.333 1.112.223.263.494.428.72.528a2 2 0 0 0 .335.117l.01.002.613.109v.628h-2.402a3.3 3.3 0 0 1-.42-.415c-.509-.601-.655-1.345-.687-2.009-.025-.527.02-1.094.059-1.592l.026-.347c.044-.621.044-1.067-.049-1.377a.63.63 0 0 0-.148-.276.64.64 0 0 0-.313-.157 3 3 0 0 0-.512-.066 6 6 0 0 0-.286-.01h-.016L13.25 3.5h-.75V2h.75z"/><path d="M13.25 16.75v.75h.035a7 7 0 0 0 .363-.014 4.6 4.6 0 0 0 .785-.109c.397-.1.738-.28 1.007-.55.268-.269.429-.587.524-.907.182-.608.15-1.314.108-1.912l-.03-.41c-.038-.486-.073-.93-.053-1.352.026-.527.136-.879.333-1.112.223-.263.494-.428.72-.528a2 2 0 0 1 .335-.117l.01-.002.613-.109V9.75h-2.402a3.3 3.3 0 0 0-.42.416c-.509.6-.655 1.344-.687 2.008-.025.527.02 1.095.059 1.592l.026.347c.044.621.044 1.067-.049 1.378a.63.63 0 0 1-.148.275.64.64 0 0 1-.313.157 3 3 0 0 1-.512.066 6 6 0 0 1-.286.01l-.016.001H12.5v1.5h.75zm-6.5-14V2h-.035a6 6 0 0 0-.363.014 4.6 4.6 0 0 0-.785.109 2.13 2.13 0 0 0-1.008.55 2.1 2.1 0 0 0-.524.907c-.181.608-.15 1.314-.108 1.913l.031.408c.038.487.073.93.052 1.353-.025.527-.136.879-.333 1.112a2 2 0 0 1-.718.528 2 2 0 0 1-.337.117l-.01.002L2 9.122v.628h2.402a3.3 3.3 0 0 0 .42-.415c.509-.601.654-1.345.686-2.009.026-.527-.019-1.094-.058-1.592q-.015-.18-.026-.347c-.044-.621-.044-1.067.048-1.377a.63.63 0 0 1 .149-.276.64.64 0 0 1 .312-.157c.13-.032.323-.054.513-.066a6 6 0 0 1 .286-.01h.015L6.75 3.5h.75V2h-.75zm0 14v.75h-.035a7 7 0 0 1-.363-.014 4.6 4.6 0 0 1-.785-.109 2.13 2.13 0 0 1-1.008-.55 2.1 2.1 0 0 1-.524-.907c-.181-.608-.15-1.314-.108-1.912l.031-.41c.038-.486.073-.93.052-1.352-.025-.527-.136-.879-.333-1.112a2 2 0 0 0-.718-.528 2 2 0 0 0-.337-.117l-.01-.002L2 10.378V9.75h2.402q.218.178.42.416c.509.6.654 1.344.686 2.008.026.527-.019 1.095-.058 1.592q-.015.18-.026.347c-.044.621-.044 1.067.048 1.378a.63.63 0 0 0 .149.275.64.64 0 0 0 .312.157c.13.032.323.054.513.066a6 6 0 0 0 .286.01l.015.001H7.5v1.5h-.75z"/></svg>