<svg viewBox="0 0 20 20" xmlns="http://www.w3.org/2000/svg"><path d="M8.978 2c-.945.004-1.73.02-2.4.086-.906.09-1.66.28-2.318.706A4.95 4.95 0 0 0 2.79 4.26c-.427.66-.615 1.412-.704 2.319C1.998 7.47 2 8.57 2 9.98v.057c0 1.41-.003 2.51.086 3.402.09.906.278 1.657.703 2.316.38.589.882 1.09 1.47 1.471.659.426 1.413.615 2.32.705.891.089 1.991.086 3.401.086h.057c1.41 0 2.51.003 3.402-.086.907-.089 1.658-.28 2.317-.705a4.958 4.958 0 0 0 1.47-1.47c.425-.66.614-1.41.704-2.317.088-.892.088-1.992.088-3.402V9.98c0-1.41 0-2.51-.088-3.402-.09-.907-.278-1.66-.703-2.319a4.95 4.95 0 0 0-1.471-1.468c-.659-.425-1.41-.616-2.316-.706C12.547 1.997 11.448 2 10.037 2H9.98c-.352 0-.686-.002-1.002 0Zm1.028 1.502c1.444 0 2.488.002 3.283.08.788.079 1.27.225 1.652.471.41.265.757.614 1.022 1.024.247.381.393.864.47 1.652.08.795.083 1.836.083 3.28 0 1.443-.004 2.487-.082 3.283-.079.787-.225 1.27-.471 1.65-.265.41-.612.759-1.022 1.023-.381.247-.866.393-1.654.471-.795.08-1.837.08-3.281.08-1.444 0-2.488-.003-3.283-.082-.787-.078-1.268-.222-1.649-.469a3.438 3.438 0 0 1-1.021-1.023c-.247-.383-.394-.865-.473-1.652-.079-.795-.08-1.838-.08-3.282 0-1.443 0-2.485.08-3.279.079-.788.225-1.27.47-1.65a3.45 3.45 0 0 1 1.024-1.026c.383-.246.862-.392 1.649-.47.795-.08 1.839-.08 3.283-.08ZM14.22 4.62a1.175 1.175 0 0 0-1.18 1.178c0 .312.123.613.344.833a1.185 1.185 0 0 0 1.668 0c.109-.109.196-.24.256-.382a1.212 1.212 0 0 0 0-.902 1.18 1.18 0 0 0-1.088-.727Zm-4.213 1.343a4.042 4.042 0 0 0-4.045 4.045 4.047 4.047 0 0 0 6.906 2.862 4.047 4.047 0 0 0-2.861-6.907Zm0 1.504a2.538 2.538 0 0 1 2.541 2.541c0 .675-.265 1.322-.742 1.8a2.543 2.543 0 0 1-1.8.741 2.54 2.54 0 0 1-1.796-.742 2.55 2.55 0 0 1-.55-2.771 2.54 2.54 0 0 1 2.347-1.569Z"/></svg>