<svg viewBox="0 0 44 44" xmlns="http://www.w3.org/2000/svg"><path d="M35 20a1 1 0 0 1 1 1v1a1 1 0 0 1-1 1h-8a1 1 0 0 1-1-1v-1a1 1 0 0 1 1-1h8Zm0-9a1 1 0 0 1 1 1v1a1 1 0 0 1-1 1H15.5a1 1 0 0 1-1-1v-1a1 1 0 0 1 1-1H35Z" fill-opacity="0.16"/><path d="M8.508 9.561c.378-.294.638-.637.778-1.03h1.004V15H9.053v-4.654a4.257 4.257 0 0 1-1.595.936v-1.121c.322-.105.672-.305 1.05-.6Z"/><path d="M13.033 13.765V15h-1.235v-1.235h1.235Z"/><path d="M14.332 23.969v-6.47h-1.004c-.14.394-.4.737-.778 1.03-.378.296-.728.496-1.05.6v1.122a4.257 4.257 0 0 0 1.595-.936v4.654h1.237Z"/><path d="M17.075 23.969v-1.235H15.84v1.235h1.235Z"/><path d="M21.174 23.969v-6.47H20.17c-.14.394-.4.737-.778 1.03-.378.296-.728.496-1.05.6v1.122a4.258 4.258 0 0 0 1.595-.936v4.654h1.237Z"/><path d="M23.917 23.969v-1.235h-1.235v1.235h1.235Z"/><path d="M19.032 27.5v6.469h-1.237v-4.654a4.257 4.257 0 0 1-1.595.936V29.13c.322-.105.672-.305 1.05-.6.378-.294.638-.637.778-1.03h1.004Z"/><path d="M21.775 32.734v1.235H20.54v-1.235h1.235Z"/><path d="M26.132 34.069v-6.47h-1.004c-.14.394-.4.737-.778 1.03-.378.296-.728.496-1.05.6v1.122a4.257 4.257 0 0 0 1.595-.936v4.654h1.237Z"/><path d="M28.875 34.069v-1.235H27.64v1.235h1.235Z"/><path d="M33.232 34.069v-6.47h-1.004c-.14.394-.4.737-.778 1.03-.378.296-.728.496-1.05.6v1.122a4.257 4.257 0 0 0 1.595-.936v4.654h1.237Z"/><path d="M35.975 34.069v-1.235H34.74v1.235h1.235Z"/></svg>