<svg xmlns="http://www.w3.org/2000/svg" viewBox="0 0 44 44"><path fill-opacity=".16" d="M35 20a1 1 0 0 1 1 1v1a1 1 0 0 1-1 1h-8a1 1 0 0 1-1-1v-1a1 1 0 0 1 1-1zm0-9a1 1 0 0 1 1 1v1a1 1 0 0 1-1 1H15.5a1 1 0 0 1-1-1v-1a1 1 0 0 1 1-1z"/><path d="M8.508 9.561q.567-.44.778-1.03h1.004V15H9.053v-4.654a4.26 4.26 0 0 1-1.595.936v-1.121q.483-.158 1.05-.6M13.033 13.765V15h-1.235v-1.235zM14.332 23.969v-6.47h-1.004q-.21.59-.778 1.03-.567.444-1.05.6v1.122a4.26 4.26 0 0 0 1.595-.936v4.654zM17.075 23.969v-1.235H15.84v1.235zM21.174 23.969v-6.47H20.17q-.21.59-.778 1.03-.567.444-1.05.6v1.122a4.26 4.26 0 0 0 1.595-.936v4.654zM23.917 23.969v-1.235h-1.235v1.235zM19.032 27.5v6.469h-1.237v-4.654a4.26 4.26 0 0 1-1.595.936V29.13q.483-.158 1.05-.6.568-.44.778-1.03zM21.775 32.734v1.235H20.54v-1.235zM26.132 34.069v-6.47h-1.004q-.21.59-.778 1.03-.567.444-1.05.6v1.122a4.26 4.26 0 0 0 1.595-.936v4.654zM28.875 34.069v-1.235H27.64v1.235zM33.232 34.069v-6.47h-1.004q-.21.59-.778 1.03-.567.444-1.05.6v1.122a4.26 4.26 0 0 0 1.595-.936v4.654zM35.975 34.069v-1.235H34.74v1.235z"/></svg>