<svg xmlns="http://www.w3.org/2000/svg" viewBox="0 0 20 20"><path d="m17.975 15.279.779-.779.707.707-2.265 2.265-2.193-2.265.707-.707.765.765V4.825q0-.063.002-.123l-.77.77L15 4.765 17.196 2.5l2.265 2.265-.707.707-.782-.782q.003.065.003.135zM1 15.75c0 .414.273.75.61.75h8.067a.56.56 0 0 0 .43-.22.85.85 0 0 0 .18-.53.85.85 0 0 0-.18-.53.56.56 0 0 0-.43-.22H1.609a.56.56 0 0 0-.43.22.85.85 0 0 0-.179.53m0-12c0 .414.273.75.61.75h11.78a.56.56 0 0 0 .431-.22.85.85 0 0 0 .179-.53.85.85 0 0 0-.178-.53.56.56 0 0 0-.431-.22H1.609a.56.56 0 0 0-.43.22.85.85 0 0 0-.179.53m0 4c0 .414.273.75.61.75h11.78a.56.56 0 0 0 .431-.22.85.85 0 0 0 .179-.53.85.85 0 0 0-.178-.53.56.56 0 0 0-.431-.22H1.609a.56.56 0 0 0-.43.22.85.85 0 0 0-.179.53m0 4c0 .414.273.75.61.75h11.78a.56.56 0 0 0 .431-.22.85.85 0 0 0 .179-.53.85.85 0 0 0-.178-.53.56.56 0 0 0-.431-.22H1.609a.56.56 0 0 0-.43.22.85.85 0 0 0-.179.53"/></svg>