<svg xmlns="http://www.w3.org/2000/svg" viewBox="0 0 20 20"><path d="m17.668 15.096.698-.677.634.614L16.97 17l-1.967-1.967.634-.614.686.665V6.019l.001-.107-.69.669L15 5.967 16.97 4 19 5.967l-.634.614-.701-.68q.003.058.003.118zM1 4.722c0 .399.252.722.563.722h10.875a.5.5 0 0 0 .397-.211.84.84 0 0 0 .165-.51.84.84 0 0 0-.165-.511.5.5 0 0 0-.398-.212H1.563a.5.5 0 0 0-.398.212.84.84 0 0 0-.165.51m0 7.704c0 .399.252.722.563.722h10.875a.46.46 0 0 0 .215-.055.6.6 0 0 0 .182-.156.8.8 0 0 0 .122-.235.9.9 0 0 0 0-.553.8.8 0 0 0-.122-.234.6.6 0 0 0-.182-.156.46.46 0 0 0-.216-.055H1.563a.5.5 0 0 0-.398.211.84.84 0 0 0-.165.51m0 3.852c0 .398.252.722.563.722h7.446c.15 0 .293-.076.398-.212a.84.84 0 0 0 .165-.51.84.84 0 0 0-.165-.51.5.5 0 0 0-.398-.212H1.563a.5.5 0 0 0-.398.211.84.84 0 0 0-.165.51m0-7.704c0 .399.252.722.563.722h10.875a.5.5 0 0 0 .397-.211.84.84 0 0 0 .165-.51.84.84 0 0 0-.165-.512.5.5 0 0 0-.398-.211H1.563a.5.5 0 0 0-.398.211.84.84 0 0 0-.165.511"/></svg>