<svg xmlns="http://www.w3.org/2000/svg" viewBox="0 0 44 44"><path fill-opacity=".163" d="M35 29a1 1 0 0 1 1 1v1a1 1 0 0 1-1 1H18a1 1 0 0 1-1-1v-1a1 1 0 0 1 1-1zm0-9a1 1 0 0 1 1 1v1a1 1 0 0 1-1 1H18a1 1 0 0 1-1-1v-1a1 1 0 0 1 1-1zm0-9a1 1 0 0 1 1 1v1a1 1 0 0 1-1 1H18a1 1 0 0 1-1-1v-1a1 1 0 0 1 1-1z"/><path d="M9.62 14.105q.408 0 .768-.153c.36-.153.466-.257.677-.462q.013.036.044.145.07.242.119.365h1.221a2.7 2.7 0 0 1-.222-.626q-.06-.293-.059-.908l.013-1.441q0-.804-.165-1.105-.165-.302-.569-.497-.405-.195-1.23-.195-.91 0-1.371.325-.462.325-.65 1.002l1.12.202q.114-.326.299-.455.184-.13.514-.13.488 0 .663.152.176.151.176.508v.123q-.333.14-1.2.303-.641.123-.982.288t-.53.474a1.33 1.33 0 0 0-.188.706q0 .598.415.988.416.391 1.136.391zm.368-.87a.68.68 0 0 1-.492-.189.6.6 0 0 1-.193-.448q0-.263.241-.435.159-.105.673-.215a7 7 0 0 0 .751-.19v.247q0 .443-.048.602a.77.77 0 0 1-.295.409 1.07 1.07 0 0 1-.637.22zm4.645.765v-1.235h-1.235V14zM10.2 25.105q.813 0 1.382-.646.57-.645.57-1.84 0-1.156-.559-1.774a1.82 1.82 0 0 0-1.41-.617q-.783 0-1.354.65v-2.32H7.594V25h1.147v-.686a1.9 1.9 0 0 0 .67.592q.39.2.79.2zm-.299-.975q-.531 0-.852-.492-.23-.348-.229-1.073 0-.703.295-1.048a.93.93 0 0 1 .738-.345q.453 0 .743.354t.29 1.154q0 .751-.288 1.1t-.697.35m4.478.87v-1.235h-1.234V25zm-4.017 9.105q.9 0 1.437-.426.536-.426.725-1.261l-1.213-.207q-.092.489-.316.688a.83.83 0 0 1-.576.2.92.92 0 0 1-.75-.343q-.278-.343-.278-1.173 0-.747.274-1.066.275-.318.736-.318.348 0 .565.184t.28.55l1.216-.22q-.22-.751-.722-1.119-.504-.366-1.356-.366-1.042 0-1.653.643-.61.645-.61 1.8 0 1.143.608 1.788.609.646 1.633.646M14.633 34v-1.235h-1.235V34z"/></svg>