<svg xmlns="http://www.w3.org/2000/svg" viewBox="0 0 44 44"><path fill-opacity=".163" d="M35 29a1 1 0 0 1 1 1v1a1 1 0 0 1-1 1H18a1 1 0 0 1-1-1v-1a1 1 0 0 1 1-1zm0-9a1 1 0 0 1 1 1v1a1 1 0 0 1-1 1H18a1 1 0 0 1-1-1v-1a1 1 0 0 1 1-1zm0-9a1 1 0 0 1 1 1v1a1 1 0 0 1-1 1H18a1 1 0 0 1-1-1v-1a1 1 0 0 1 1-1z"/><path d="M5.714 15.11q.935 0 1.46-.66.632-.799.632-2.627 0-1.832-.629-2.624-.527-.668-1.463-.668t-1.459.66q-.633.8-.633 2.619 0 1.854.576 2.577.577.723 1.516.723m0-1.024a.6.6 0 0 1-.398-.14q-.173-.141-.287-.565-.115-.424-.115-1.558c0-1.134.043-1.294.128-1.613q.096-.37.272-.512a.62.62 0 0 1 .4-.143.6.6 0 0 1 .398.143q.173.143.288.567t.114 1.558c0 1.134-.043 1.292-.128 1.608q-.096.37-.272.512a.62.62 0 0 1-.4.143m6.078.914V8.531H10.79q-.21.59-.778 1.03-.567.442-1.05.6v1.121a4.3 4.3 0 0 0 1.595-.936V15zm3.344 0v-1.235h-1.235V15zm-9.422 9.11q.935 0 1.46-.66.632-.799.632-2.627 0-1.833-.629-2.624-.527-.668-1.463-.668t-1.459.66q-.633.8-.633 2.619 0 1.854.576 2.577.577.723 1.516.723m0-1.024a.6.6 0 0 1-.398-.14q-.173-.142-.287-.565-.115-.424-.115-1.558c0-1.134.043-1.294.128-1.613q.096-.37.272-.512a.62.62 0 0 1 .4-.143.6.6 0 0 1 .398.143q.173.142.288.567t.114 1.558c0 1.134-.043 1.292-.128 1.608q-.096.37-.272.512a.62.62 0 0 1-.4.143m7.088.914v-1.147H10.35q.097-.167.253-.343.155-.175.74-.712t.81-.821q.338-.431.493-.824.156-.394.156-.829 0-.765-.544-1.279-.546-.514-1.499-.514-.87 0-1.45.444t-.69 1.463l1.23.124q.036-.54.264-.774t.615-.233q.391 0 .613.222t.222.635q0 .374-.255.756-.189.277-1.024 1.055-1.037.962-1.388 1.544-.352.583-.422 1.233zm2.334 0v-1.235h-1.235V24zM5.714 34.11q.935 0 1.46-.66.632-.799.632-2.627 0-1.832-.629-2.624-.527-.668-1.463-.668t-1.459.66q-.633.8-.633 2.619 0 1.854.576 2.577.577.723 1.516.723m0-1.024a.6.6 0 0 1-.398-.14q-.173-.142-.287-.565-.115-.424-.115-1.558c0-1.134.043-1.294.128-1.613q.096-.37.272-.512a.62.62 0 0 1 .4-.143.6.6 0 0 1 .398.143q.173.142.288.567t.114 1.558c0 1.134-.043 1.292-.128 1.608q-.096.37-.272.512a.62.62 0 0 1-.4.143m4.992 1.024q.924 0 1.543-.598.62-.597.62-1.446 0-.585-.332-.997a1.5 1.5 0 0 0-.886-.532q.927-.505.927-1.353 0-.598-.452-1.073-.55-.58-1.46-.58a2.25 2.25 0 0 0-.96.2 1.6 1.6 0 0 0-.667.55q-.24.349-.359.933l1.139.194q.048-.422.272-.642t.54-.22q.321 0 .515.194c.194.194.193.302.193.518q0 .383-.264.613-.263.231-.764.218l-.136 1.006q.33-.092.566-.092.36 0 .611.272.25.273.25.739 0 .492-.26.782a.83.83 0 0 1-.644.29.84.84 0 0 1-.607-.242q-.25-.241-.308-.698l-1.195.145q.093.813.668 1.316t1.45.503m4.43-.11v-1.235h-1.235V34z"/></svg>