<svg xmlns="http://www.w3.org/2000/svg" viewBox="0 0 44 44"><path fill-opacity=".163" d="M35 29a1 1 0 0 1 1 1v1a1 1 0 0 1-1 1H18a1 1 0 0 1-1-1v-1a1 1 0 0 1 1-1zm0-9a1 1 0 0 1 1 1v1a1 1 0 0 1-1 1H18a1 1 0 0 1-1-1v-1a1 1 0 0 1 1-1zm0-9a1 1 0 0 1 1 1v1a1 1 0 0 1-1 1H18a1 1 0 0 1-1-1v-1a1 1 0 0 1 1-1z"/><path d="M11.916 15V8.558h-1.301V15zm2.465 0v-1.235h-1.235V15zM9.665 25v-6.442h-1.3V25zm2.5 0v-6.442h-1.3V25zm2.466 0v-1.235h-1.235V25zm-7.216 9v-6.442h-1.3V34zm2.5 0v-6.442h-1.3V34zm2.501 0v-6.442h-1.3V34zm2.465 0v-1.235h-1.235V34z"/></svg>