<svg xmlns="http://www.w3.org/2000/svg" viewBox="0 0 44 44"><path fill-opacity=".163" d="M35 29a1 1 0 0 1 1 1v1a1 1 0 0 1-1 1H18a1 1 0 0 1-1-1v-1a1 1 0 0 1 1-1zm0-9a1 1 0 0 1 1 1v1a1 1 0 0 1-1 1H18a1 1 0 0 1-1-1v-1a1 1 0 0 1 1-1zm0-9a1 1 0 0 1 1 1v1a1 1 0 0 1-1 1H18a1 1 0 0 1-1-1v-1a1 1 0 0 1 1-1z"/><path d="M10.29 15V8.531H9.286q-.21.59-.778 1.03-.567.442-1.05.6v1.121a4.3 4.3 0 0 0 1.595-.936V15h1.235zm3.343 0v-1.235h-1.235V15zM11.3 24v-1.147H8.848q.096-.167.252-.343.156-.175.74-.712.585-.536.81-.821.338-.431.494-.824.156-.394.156-.829 0-.765-.545-1.279t-1.499-.514q-.87 0-1.45.444t-.69 1.463l1.23.124q.036-.54.264-.774.23-.233.616-.233.39 0 .613.222t.222.635q0 .374-.255.756-.19.277-1.024 1.055-1.038.962-1.389 1.544T6.971 24zm2.333 0v-1.235h-1.235V24zM9.204 34.11q.922 0 1.542-.598.62-.597.62-1.446 0-.585-.332-.997a1.5 1.5 0 0 0-.886-.532q.928-.505.928-1.353 0-.598-.453-1.073-.549-.58-1.459-.58a2.25 2.25 0 0 0-.96.2 1.6 1.6 0 0 0-.668.55q-.24.349-.358.933l1.138.194q.048-.422.272-.642t.54-.22q.322 0 .515.194c.193.194.193.302.193.518q0 .383-.263.613-.263.231-.765.218l-.136 1.006q.33-.092.567-.092.36 0 .61.272.251.273.251.739 0 .492-.261.782a.83.83 0 0 1-.644.29.84.84 0 0 1-.607-.242q-.251-.241-.307-.698l-1.196.145q.093.813.668 1.316t1.45.503zm4.43-.11v-1.235h-1.236V34h1.235z"/></svg>