<svg xmlns="http://www.w3.org/2000/svg" viewBox="0 0 44 44"><path fill-opacity=".163" d="M35 29a1 1 0 0 1 1 1v1a1 1 0 0 1-1 1H18a1 1 0 0 1-1-1v-1a1 1 0 0 1 1-1zm0-9a1 1 0 0 1 1 1v1a1 1 0 0 1-1 1H18a1 1 0 0 1-1-1v-1a1 1 0 0 1 1-1zm0-9a1 1 0 0 1 1 1v1a1 1 0 0 1-1 1H18a1 1 0 0 1-1-1v-1a1 1 0 0 1 1-1z"/><path d="m7.88 15 .532-1.463h2.575L11.549 15h1.415l-2.58-6.442H9.01L6.5 15zm2.69-2.549H8.811l.87-2.39.887 2.39zM14.88 15v-1.235h-1.234V15zM9.352 25q1.244-.009 1.569-.044.518-.057.872-.305.354-.249.558-.664t.205-.855q0-.558-.317-.97-.315-.414-.905-.585a1.5 1.5 0 0 0 .661-.567 1.5 1.5 0 0 0 .244-.83q0-.419-.197-.754a1.65 1.65 0 0 0-.495-.539 1.7 1.7 0 0 0-.672-.266q-.375-.063-1.14-.063H7.158V25zm.142-3.88H8.46v-1.49h.747q.918 0 1.112.022.325.04.49.226.165.188.165.486a.68.68 0 0 1-.192.503.86.86 0 0 1-.525.23 12 12 0 0 1-.944.023h.18zm.17 2.795H8.46v-1.723h1.05q.888 0 1.154.092.266.093.406.295a.84.84 0 0 1 .14.492q0 .342-.181.547a.8.8 0 0 1-.473.257q-.189.04-.892.04M14.88 25v-1.235h-1.234V25zm-5.018 9.11q1.037 0 1.711-.512t.965-1.567l-1.261-.4q-.163.708-.536 1.037-.375.33-.892.33-.704 0-1.143-.519-.44-.518-.44-1.74 0-1.15.447-1.665.445-.514 1.162-.514.52 0 .881.29.362.29.477.79l1.288-.307q-.22-.774-.66-1.187-.738-.698-1.92-.698-1.353 0-2.184.89-.83.89-.83 2.498 0 1.521.825 2.397.826.877 2.11.877M14.88 34v-1.235h-1.234V34z"/></svg>