<svg xmlns="http://www.w3.org/2000/svg" viewBox="0 0 44 44"><path fill-opacity=".163" d="M35 29a1 1 0 0 1 1 1v1a1 1 0 0 1-1 1H18a1 1 0 0 1-1-1v-1a1 1 0 0 1 1-1zm0-9a1 1 0 0 1 1 1v1a1 1 0 0 1-1 1H18a1 1 0 0 1-1-1v-1a1 1 0 0 1 1-1zm0-9a1 1 0 0 1 1 1v1a1 1 0 0 1-1 1H18a1 1 0 0 1-1-1v-1a1 1 0 0 1 1-1z"/><path d="M14.88 15v-1.235h-1.234V15zm0 10v-1.235h-1.234V25zm0 9v-1.235h-1.234V34z"/><text x="9" y="15" font-family="sans-serif" font-size="8" font-weight="bold" text-anchor="middle">١</text><text x="9" y="25" font-family="sans-serif" font-size="8" font-weight="bold" text-anchor="middle">٢</text><text x="9" y="34" font-family="sans-serif" font-size="8" font-weight="bold" text-anchor="middle">٣</text></svg>