<svg xmlns="http://www.w3.org/2000/svg" viewBox="0 0 44 44"><path fill-opacity=".163" d="M35 29a1 1 0 0 1 1 1v1a1 1 0 0 1-1 1H18a1 1 0 0 1-1-1v-1a1 1 0 0 1 1-1zm0-9a1 1 0 0 1 1 1v1a1 1 0 0 1-1 1H18a1 1 0 0 1-1-1v-1a1 1 0 0 1 1-1zm0-9a1 1 0 0 1 1 1v1a1 1 0 0 1-1 1H18a1 1 0 0 1-1-1v-1a1 1 0 0 1 1-1z"/><path d="M11.88 8.7V7.558h-1.234V8.7zm0 5.3V9.333h-1.234V14zm2.5 0v-1.235h-1.234V14zm-4.75 4.7v-1.142H8.395V18.7zm0 5.3v-4.667H8.395V24zm2.5-5.3v-1.142h-1.234V18.7zm0 5.3v-4.667h-1.234V24zm2.501 0v-1.235h-1.235V24zM7.38 28.7v-1.142H6.145V28.7zm0 5.3v-4.667H6.145V34zm2.5-5.3v-1.142H8.646V28.7zm0 5.3v-4.667H8.646V34zm2.5-5.3v-1.142h-1.234V28.7zm0 5.3v-4.667h-1.234V34zm2.501 0v-1.235h-1.235V34z"/></svg>