<svg xmlns="http://www.w3.org/2000/svg" viewBox="0 0 20 20"><path d="M5.085 6.22 2.943 4.078a.75.75 0 1 1 1.06-1.06l2.592 2.59A11.1 11.1 0 0 1 10 5.068c4.738 0 8.578 3.101 8.578 5.083 0 1.197-1.401 2.803-3.555 3.887l1.714 1.713a.75.75 0 0 1-.09 1.138.5.5 0 0 1-.15.084.75.75 0 0 1-.821-.16L6.17 7.304q-.387.166-.757.365l6.239 6.24-.006.005.78.78q-.582.141-1.174.215l-1.11-1.11h.011L4.55 8.197a7 7 0 0 0-.665.514l-.112.098 4.897 4.897-.005.006 1.276 1.276a10 10 0 0 1-1.477-.117l-.479-.479-.009.009-4.863-4.863-.022.031a3 3 0 0 0-.124.2q-.065.116-.108.241a.5.5 0 0 0-.028.133.3.3 0 0 0 .008.072 1 1 0 0 0 .082.226q.1.2.234.379l3.242 3.365.025.01.59.623c-3.265-.918-5.59-3.155-5.59-4.668 0-1.194 1.448-2.838 3.663-3.93m7.07.531a4.63 4.63 0 0 1 1.108 5.992l.345.344.046-.018a9.3 9.3 0 0 0 2-1.112q.385-.281.727-.613.207-.2.392-.431.109-.135.203-.286.086-.14.148-.292a1 1 0 0 0 .036-.12.3.3 0 0 0 .008-.072.5.5 0 0 0-.028-.133 1 1 0 0 0-.036-.096 2 2 0 0 0-.071-.145 3 3 0 0 0-.125-.2 4 4 0 0 0-.263-.335 5.4 5.4 0 0 0-.53-.523 8 8 0 0 0-1.054-.768 9.8 9.8 0 0 0-1.879-.891q-.506-.178-1.027-.301m-2.85.21-.069.002a.5.5 0 0 0-.254.097.496.496 0 0 0-.104.679.5.5 0 0 0 .326.199l.045.005c.091.003.181.003.272.012a2.45 2.45 0 0 1 2.017 1.513c.024.061.043.125.069.185a.49.49 0 0 0 .45.287h.008a.5.5 0 0 0 .35-.158.48.48 0 0 0 .13-.335.6.6 0 0 0-.048-.219 3.4 3.4 0 0 0-.36-.723 3.44 3.44 0 0 0-2.791-1.543l-.028-.001z"/></svg>