<svg viewBox="0 0 20 20" xmlns="http://www.w3.org/2000/svg"><path d="M15.346 9.422a.151.151 0 0 1 .284 0l.548 1.484a.152.152 0 0 0 .09.089l1.483.549a.151.151 0 0 1 0 .284l-1.483.548a.151.151 0 0 0-.09.09l-.548 1.483a.152.152 0 0 1-.142.1.151.151 0 0 1-.142-.1l-.549-1.483a.15.15 0 0 0-.09-.09l-1.483-.548a.15.15 0 0 1 0-.284l1.484-.549a.152.152 0 0 0 .089-.09l.549-1.483Z"/><path d="M16.306 1.742a.151.151 0 0 1 .284 0l.549 1.483a.15.15 0 0 0 .089.09l1.483.548a.151.151 0 0 1 .072.229.151.151 0 0 1-.072.055l-1.483.549a.15.15 0 0 0-.09.09l-.548 1.482a.151.151 0 0 1-.284 0l-.549-1.483a.15.15 0 0 0-.09-.09l-1.483-.548a.151.151 0 0 1 0-.284l1.484-.549a.152.152 0 0 0 .09-.089l.548-1.483Z"/><path d="M7.665 1.742a.151.151 0 0 1 .284 0l.549 1.483a.151.151 0 0 0 .09.09l1.482.548a.151.151 0 0 1 .072.229.151.151 0 0 1-.072.055l-1.483.549a.151.151 0 0 0-.09.09L7.95 6.267a.151.151 0 0 1-.284 0l-.549-1.483a.151.151 0 0 0-.089-.09l-1.483-.548a.151.151 0 0 1 0-.284l1.483-.549a.151.151 0 0 0 .09-.089l.548-1.483-.001.001Z"/><path d="M14.72 7.946a.848.848 0 0 0 .25-.591.824.824 0 0 0-.241-.588l-1.943-1.938a.812.812 0 0 0-.588-.241.838.838 0 0 0-.591.25l-1.545 1.539 3.115 3.115 1.542-1.546h.001Z"/><path clip-rule="evenodd" d="M1.19 15.636a.96.96 0 0 1 .281-.679l7.835-7.834 3.121 3.12-7.834 7.835a.959.959 0 0 1-1.358 0l-1.764-1.764a.96.96 0 0 1-.28-.678Zm9.22-5.391-1.121-1.12-6.479 6.478 1.121 1.121 6.479-6.479Z"/></svg>