<svg xmlns="http://www.w3.org/2000/svg" viewBox="0 0 20 20"><path d="M15.346 9.422a.151.151 0 0 1 .284 0l.548 1.484a.15.15 0 0 0 .09.089l1.483.549a.151.151 0 0 1 0 .284l-1.483.548a.15.15 0 0 0-.09.09l-.548 1.483a.15.15 0 0 1-.142.1.15.15 0 0 1-.142-.1l-.549-1.483a.15.15 0 0 0-.09-.09l-1.483-.548a.15.15 0 0 1 0-.284l1.484-.549a.15.15 0 0 0 .089-.09zm.96-7.68a.151.151 0 0 1 .284 0l.549 1.483a.15.15 0 0 0 .089.09l1.483.548a.15.15 0 0 1 .072.229.15.15 0 0 1-.072.055l-1.483.549a.15.15 0 0 0-.09.09l-.548 1.482a.151.151 0 0 1-.284 0l-.549-1.483a.15.15 0 0 0-.09-.09l-1.483-.548a.151.151 0 0 1 0-.284l1.484-.549a.15.15 0 0 0 .09-.089zm-8.641 0a.151.151 0 0 1 .284 0l.549 1.483a.15.15 0 0 0 .09.09l1.482.548a.15.15 0 0 1 .072.229.15.15 0 0 1-.072.055l-1.483.549a.15.15 0 0 0-.09.09L7.95 6.267a.151.151 0 0 1-.284 0l-.549-1.483a.15.15 0 0 0-.089-.09l-1.483-.548a.151.151 0 0 1 0-.284l1.483-.549a.15.15 0 0 0 .09-.089l.548-1.483zm7.055 6.204a.85.85 0 0 0 .25-.591.82.82 0 0 0-.241-.588l-1.943-1.938a.8.8 0 0 0-.588-.241.84.84 0 0 0-.591.25l-1.545 1.539 3.115 3.115z"/><path d="M1.19 15.636a.96.96 0 0 1 .281-.679l7.835-7.834 3.121 3.12-7.834 7.835a.96.96 0 0 1-1.358 0l-1.764-1.764a.96.96 0 0 1-.28-.678Zm9.22-5.391-1.121-1.12-6.479 6.478 1.121 1.121z" clip-rule="evenodd"/></svg>