<svg xmlns="http://www.w3.org/2000/svg" viewBox="0 0 20 20"><path d="M10.798 1.59 3.002 12.875l1.895 1.852 2.521 1.402 6.997-12.194z" class="ck-icon__fill"/><path d="m2.556 16.727.234-.348q-.445-.226-.498-.426-.054-.206.115-.837.14-.375.169-.595a4.5 4.5 0 0 0 0-.725q-.313-.931-.284-1.26.03-.327.475-.862l6.77-9.414q.808-1.365 3.199.18 2.39 1.549 1.784 2.686l-5.877 10.36q-.237.618-.526.782-.29.163-1.232.21-.543.196-.738.318t-.526.47q-.44.397-.632.397-.143 0-.524-.226l-.31.41zm-.279.415 1.575 1.103-.392.515H1.19zm8.1-13.656-4.953 6.9L8.75 12.57l4.247-7.574q.263-.375-1.092-1.192-1.354-.819-1.528-.32zM8.244 18.5 9.59 17h9.406v1.5z"/></svg>