<svg width="150" height="150" viewBox="0 0 13 13" fill="none" xmlns="http://www.w3.org/2000/svg">
<path d="M11.4835 0.700195C11.8149 0.700196 12.0835 0.968825 12.0835 1.3002V5.45983C12.0835 5.7912 11.8149 6.05983 11.4835 6.05983C11.1521 6.05983 10.8835 5.7912 10.8835 5.45983L10.8835 2.74872L7.66512 5.9671C7.4308 6.20142 7.05091 6.20142 6.81659 5.9671C6.58228 5.73279 6.58228 5.35289 6.81659 5.11857L10.035 1.9002H7.32386C6.99249 1.9002 6.72386 1.63157 6.72386 1.3002C6.72386 0.968824 6.99249 0.700195 7.32386 0.700195L11.4835 0.700195Z"></path>
<path d="M0.681055 12.7029C0.349684 12.7029 0.0810551 12.4343 0.0810549 12.1029L0.0810547 7.94327C0.0810549 7.6119 0.349684 7.34327 0.681055 7.34327C1.01243 7.34327 1.28105 7.6119 1.28105 7.94327V10.6544L4.49943 7.436C4.73375 7.20169 5.11364 7.20169 5.34796 7.436C5.58227 7.67031 5.58227 8.05021 5.34796 8.28453L2.12958 11.5029H4.84069C5.17206 11.5029 5.44069 11.7715 5.44069 12.1029C5.44069 12.4343 5.17206 12.7029 4.84069 12.7029H0.681055Z"></path>
</svg>