<svg viewBox="0 0 22 20" xmlns="http://www.w3.org/2000/svg"><path d="M1.587 1.5c-.612 0-.601-.029-.601.551v14.84c0 .59-.01.559.591.559h18.846c.602 0 .591.03.591-.56V2.052c0-.58.01-.55-.591-.55H1.587Zm.701.971h1.003v1H2.288v-1Zm16.448 0h1.003v1h-1.003v-1Zm-14.24 1h13.008v12H4.467l.029-12Zm-2.208 1h1.003v1H2.288v-1Zm16.448 0h1.003v1h-1.003v-1Zm-16.448 2h1.003v1H2.288v-1Zm16.448 0h1.003v1h-1.003v-1Zm-16.448 2h1.003v1H2.288v-1Zm16.448 0h1.003v1h-1.003v-1Zm-16.448 2h1.003v1H2.288v-1Zm16.448 0h1.003v1h-1.003v-1Zm-16.448 2h1.003l-.029 1h-.974v-1Zm16.448 0h1.003v1h-1.003v-1Zm-16.448 2h.974v1h-.974v-1Zm16.448 0h1.003v1h-1.003v-1Z"/><path d="M8.374 6.648a.399.399 0 0 1 .395-.4.402.402 0 0 1 .2.049l5.148 2.824a.4.4 0 0 1 0 .7l-5.148 2.824a.403.403 0 0 1-.595-.35V6.648Z"/></svg>