<svg viewBox="0 0 20 20" xmlns="http://www.w3.org/2000/svg"><path d="M2.5 16.5v1h-1v-1h1Zm2 0v1h-1v-1h1Zm2 0v1h-1v-1h1Zm2 0v1h-1v-1h1Zm2 0v1h-1v-1h1Zm2 0v1h-1v-1h1Zm2 0v1h-1v-1h1Zm2 0v1h-1v-1h1Zm2 0v1h-1v-1h1ZM1 15v1H0v-1h1Zm19 0v1h-1v-1h1ZM1 13v1H0v-1h1Zm19 0v1h-1v-1h1ZM1 11v1H0v-1h1Zm19 0v1h-1v-1h1ZM1 9v1H0V9h1Zm19 0v1h-1V9h1ZM1 7v1H0V7h1Zm19 0v1h-1V7h1ZM1 5v1H0V5h1Zm19 0v1h-1V5h1Zm0-2v1h-1V3h1ZM1 3v1H0V3h1Zm13.5-1.5v1h-1v-1h1Zm2 0v1h-1v-1h1Zm2 0v1h-1v-1h1Zm-8 0v1h-1v-1h1Zm-2 0v1h-1v-1h1Zm-2 0v1h-1v-1h1Zm-2 0v1h-1v-1h1Zm8 0v1h-1v-1h1Zm-10 0v1h-1v-1h1Z"/><path d="M10 7.5H2a2 2 0 0 0-2 2v6a2 2 0 0 0 2 2h8a2 2 0 0 0 2-2v-6a2 2 0 0 0-2-2ZM10 9a.5.5 0 0 1 .5.5v6a.5.5 0 0 1-.5.5H2a.5.5 0 0 1-.5-.5v-6A.5.5 0 0 1 2 9h8Z"/></svg>