<svg xmlns="http://www.w3.org/2000/svg" xmlns:v="https://vecta.io/nano" viewBox="0 0 20 20"><path d="M.95 1.43a.95.95 0 0 0-.95.95v3.1a.95.95 0 0 0 .95.95h.75v6.3H.95a.95.95 0 0 0-.95.95v3.1a.95.95 0 0 0 .95.95h3.1a.95.95 0 0 0 .95-.95v-.65h1.932l1.539-1.5H5v-.95a.95.95 0 0 0-.95-.95H3.2v-6.3h.85A.95.95 0 0 0 5 5.48v-.55h10v.55a.95.95 0 0 0 .95.95h3.1a.95.95 0 0 0 .95-.95v-3.1a.95.95 0 0 0-.95-.95h-3.1a.95.95 0 0 0-.95.95v1.05H5V2.38a.95.95 0 0 0-.95-.95H.95zm.55 3.5v-2h2v2h-2zm0 9.3v2h2v-2h-2zm15-11.3v2h2v-2h-2z"/><path d="M8.139 20.004v-2.388l7.045-7.048 2.391 2.391-7.046 7.046h-2.39zm11.421-9.101a.64.64 0 0 1-.138.206l-1.165 1.168-2.391-2.391 1.167-1.163a.63.63 0 0 1 .206-.138.635.635 0 0 1 .243-.049.63.63 0 0 1 .449.187l1.491 1.488c.059.059.108.129.138.206s.049.16.049.243a.6.6 0 0 1-.049.243z"/></svg>