<svg xmlns="http://www.w3.org/2000/svg" viewBox="0 0 20 20"><path d="M2.5 16.5v1h-1v-1zm2 0v1h-1v-1zm2 0v1h-1v-1zm2 0v1h-1v-1zm2 0v1h-1v-1zm2 0v1h-1v-1zm2 0v1h-1v-1zm2 0v1h-1v-1zm2 0v1h-1v-1zM1 15v1H0v-1zm19 0v1h-1v-1zM1 13v1H0v-1zm19 0v1h-1v-1zM1 11v1H0v-1zm19 0v1h-1v-1zM1 9v1H0V9zm19 0v1h-1V9zM1 7v1H0V7zm19 0v1h-1V7zM1 5v1H0V5zm19 0v1h-1V5zm0-2v1h-1V3zM1 3v1H0V3zm13.5-1.5v1h-1v-1zm2 0v1h-1v-1zm2 0v1h-1v-1zm-8 0v1h-1v-1zm-2 0v1h-1v-1zm-2 0v1h-1v-1zm-2 0v1h-1v-1zm8 0v1h-1v-1zm-10 0v1h-1v-1z"/><path d="M7 9.5H2a2 2 0 0 0-2 2v4a2 2 0 0 0 2 2h5a2 2 0 0 0 2-2v-4a2 2 0 0 0-2-2M7 11a.5.5 0 0 1 .5.5v4a.5.5 0 0 1-.5.5H2a.5.5 0 0 1-.5-.5v-4A.5.5 0 0 1 2 11z"/></svg>