<svg xmlns="http://www.w3.org/2000/svg" viewBox="0 0 20 20"><path d="M10.223 5.001a5.28 5.28 0 0 0-4.408 2.258c-3.224.423-4.908 4.123-3.032 6.814l.004.008.002.004c.48.627 1.712 1.84 3.588 1.84h7.936c.667 0 1.32-.179 1.894-.522a3.84 3.84 0 0 0 1.381-1.46v-.005c1.13-2.16-.133-4.777-2.488-5.298-.617-1.853-2.177-3.242-4.111-3.565a5 5 0 0 0-.766-.074m-.092 1.5a3 3 0 0 1 .23.008c.077.004.154.014.231.021l.226.035a5 5 0 0 1 .45.116 3 3 0 0 1 .433.166 4 4 0 0 1 .606.348 4 4 0 0 1 .37.293 4 4 0 0 1 .33.348 3.5 3.5 0 0 1 .505.778 3 3 0 0 0-.42.117q-.123.044-.244.094l-1.49.627-2.686-1.61a4.4 4.4 0 0 0-1.002-.445c.015-.01.032-.026.047-.039a4 4 0 0 1 .4-.289 4 4 0 0 1 .424-.23 3 3 0 0 1 .219-.094q.112-.043.225-.076a4 4 0 0 1 .222-.06q.117-.029.233-.05.112-.022.228-.033.115-.011.233-.02.116-.005.23-.005m-3.8 2.193h.003c.54.001 1.111.156 1.551.428l1.783 1.07-5.867 2.471c-.535-1.29-.15-2.788 1.059-3.537l.007-.004a2.9 2.9 0 0 1 1.463-.428Zm7.974 1.33.152.008q.13.011.258.033a2 2 0 0 1 .477.145 2.2 2.2 0 0 1 .918.756q.07.1.127.2a2.3 2.3 0 0 1 .269.919c.004.081.008.165.002.248q-.006.083-.02.166l-3.507-2.102.459-.193.015-.008a2 2 0 0 1 .41-.125 2.3 2.3 0 0 1 .44-.047m-3.008 1.112 4.506 2.699a2.2 2.2 0 0 1-.338.26 2.2 2.2 0 0 1-.668.275q-.116.027-.24.04c-.081.007-.164.015-.246.015H6.373a3 3 0 0 1-.168-.004 2 2 0 0 1-.164-.016l-.154-.023q-.077-.01-.15-.026a3 3 0 0 1-.77-.3 3 3 0 0 1-.21-.133c-.012-.008-.019-.016-.03-.024z"/></svg>