<svg viewBox="0 0 20 20" xmlns="http://www.w3.org/2000/svg"><path d="M10.223 5.001a5.277 5.277 0 0 0-4.408 2.258c-3.224.423-4.908 4.123-3.032 6.814l.004.008.002.004c.48.627 1.712 1.84 3.588 1.84h7.936c.667 0 1.32-.179 1.894-.522a3.838 3.838 0 0 0 1.381-1.46v-.005c1.13-2.16-.133-4.777-2.488-5.298-.617-1.853-2.177-3.242-4.111-3.565a5.273 5.273 0 0 0-.766-.074Zm-.092 1.5a2.5 2.5 0 0 1 .23.008c.077.004.154.014.231.021l.226.035a5.203 5.203 0 0 1 .45.116 3.31 3.31 0 0 1 .433.166 4.079 4.079 0 0 1 .606.348 4.195 4.195 0 0 1 .37.293 3.54 3.54 0 0 1 .33.348 3.517 3.517 0 0 1 .505.778 3.182 3.182 0 0 0-.42.117c-.082.03-.164.06-.244.094l-1.49.627-2.686-1.61a4.39 4.39 0 0 0-1.002-.445c.015-.01.032-.026.047-.039a3.744 3.744 0 0 1 .4-.289 3.713 3.713 0 0 1 .424-.23 3.02 3.02 0 0 1 .219-.094c.074-.03.15-.053.225-.076a3.77 3.77 0 0 1 .222-.06c.077-.02.157-.035.233-.05.075-.015.15-.025.228-.033.077-.007.154-.015.233-.02.078-.003.154-.005.23-.005Zm-3.8 2.193h.003c.54.001 1.111.156 1.551.428l1.783 1.07-5.867 2.471c-.535-1.29-.15-2.788 1.059-3.537l.007-.004a2.88 2.88 0 0 1 1.463-.428Zm7.974 1.33.152.008c.086.008.173.018.258.033a1.956 1.956 0 0 1 .477.145 2.179 2.179 0 0 1 .918.756c.046.066.09.133.127.2a2.284 2.284 0 0 1 .269.919c.004.081.008.165.002.248-.003.055-.012.111-.02.166l-3.507-2.102.459-.193.015-.008a2.118 2.118 0 0 1 .41-.125 2.297 2.297 0 0 1 .44-.047Zm-3.008 1.112 4.506 2.699a2.217 2.217 0 0 1-.338.26 2.228 2.228 0 0 1-.668.275c-.078.019-.157.03-.24.04-.081.007-.164.015-.246.015H6.373a3.09 3.09 0 0 1-.168-.004 1.904 1.904 0 0 1-.164-.016l-.154-.023c-.051-.008-.102-.014-.15-.026a2.942 2.942 0 0 1-.77-.3 2.889 2.889 0 0 1-.21-.133c-.012-.008-.019-.016-.03-.024l6.57-2.763Z"/></svg>