<svg viewBox="2 2 56 18" xmlns="http://www.w3.org/2000/svg"><path d="m12.527 14.733-.514.022-.057-.057-.058-.058.006-2.44.007-2.44-.834-.023-.833-.022.023-.406.024-.405.536-.1.536-.098.25-.145.25-.145.17-.429.172-.428.399-.024.398-.023v7.08l.02.059.02.059zm17.894.016h-.457l.043-.138.043-.137.635-2.004.636-2.004.437-1.375.436-1.375.055-.196.054-.197.38-.024.378-.024.07.069.07.07-1.162 3.667-1.16 3.667h-.458zm11.733 0h-.55V9.72h-1.65v-.864h.385l.4-.086.398-.086.233-.195.232-.196.138-.386.137-.387h.827v7.229zm6.404 0h-.51V13.02h-3.143v-1.01l1.044-1.44 1.045-1.44.59-.824.592-.825h.854l.02 2.298.021 2.298h1.02v.943H49.07v1.729zM47 12.06l1.008-.022.022-1.4.021-1.401-.07.044-.07.043-.901 1.279-.901 1.278-.058.1-.059.101z"/><path d="m12.256 22.893-10.53.01-.157-.038-.157-.038-.255-.12L.9 22.59v-.19l.228-.218.228-.218.16.086.16.085h20.922l.16-.085.16-.086.228.218.227.218v.189l-.294.146-.295.147z"/></svg>