<svg xmlns="http://www.w3.org/2000/svg" width="20" height="20" viewBox="0 0 20 20"><path d="M8.514.5c1.007 0 2.056.352 2.866.96.813.611 1.449 1.539 1.449 2.69v7.8c0 .777-.382 1.457-.888 1.93-.505.474-1.195.8-1.92.82-1.473.04-2.848-1.237-2.848-2.75v-3.7a.75.75 0 0 1 1.5 0v3.7c0 .642.65 1.268 1.306 1.25.312-.008.663-.157.938-.414.274-.256.412-.562.412-.836v-7.8c0-.556-.303-1.08-.85-1.49A3.4 3.4 0 0 0 8.513 2a3.4 3.4 0 0 0-1.946.65c-.556.41-.868.934-.868 1.5v.028l-.001.013-.002.055-.006.212-.02.787c-.015.67-.034 1.605-.046 2.663-.025 2.123-.025 4.729.074 6.704.058 1.155.628 1.948 1.466 2.478.864.547 2.017.81 3.135.81 1.114 0 2.092-.265 2.789-.785.671-.5 1.152-1.286 1.213-2.503a80 80 0 0 0 .074-5.299 82 82 0 0 0-.073-2.283L14.301 7v-.086A.75.75 0 0 1 15.8 6.91v.013l.002.033.005.127c.005.11.013.273.02.48.017.413.035 1.007.048 1.725a82 82 0 0 1-.075 5.4c-.082 1.63-.758 2.843-1.815 3.631-1.032.77-2.358 1.082-3.684 1.082-1.322 0-2.774-.306-3.939-1.044-1.191-.754-2.076-1.962-2.161-3.669-.101-2.024-.101-4.67-.076-6.796.012-1.066.03-2.006.047-2.68.007-.337.015-.608.02-.794l.006-.215.002-.056v-.02c.009-1.162.663-2.082 1.477-2.683A4.9 4.9 0 0 1 8.514.5"/></svg>