<svg xmlns="http://www.w3.org/2000/svg" viewBox="0 0 20 20"><path d="M5.106 4.946c.272.274.27.712.033 1.016a6.1 6.1 0 0 0-1.291 3.764c0 3.375 2.722 6.111 6.08 6.111q.418 0 .822-.057l-.964-.968-.048-.054a.71.71 0 0 1 .048-.943.7.7 0 0 1 .939-.05l.053.05 1.984 1.994c.143.144.21.335.204.523a.7.7 0 0 1-.156.495l-.048.053-1.984 1.994a.7.7 0 0 1-.992 0 .71.71 0 0 1 0-.997l.645-.647a8 8 0 0 1-.504.018c-4.132 0-7.482-3.368-7.482-7.522 0-1.803.632-3.458 1.684-4.754.248-.304.701-.304.977-.026M9.057.464a.7.7 0 0 1 .992 0 .71.71 0 0 1 0 .997l-.966.97q.46-.058.938-.058c4.132 0 7.483 3.367 7.483 7.521a7.5 7.5 0 0 1-1.685 4.754c-.247.304-.7.304-.977.026-.271-.273-.27-.712-.032-1.016a6.1 6.1 0 0 0 1.29-3.764c0-3.375-2.721-6.11-6.079-6.111a6 6 0 0 0-.673.039l.701.705.049.053a.71.71 0 0 1-.049.944.7.7 0 0 1-.939.048l-.053-.048L7.073 3.53a.7.7 0 0 1-.203-.524.7.7 0 0 1 .155-.495l.048-.053z"/></svg>