<svg xmlns="http://www.w3.org/2000/svg" viewBox="0 0 20 20"><path d="M8.69 14.915q.08.078.36.093a.366.366 0 0 1 .345.485l-.003.01a.74.74 0 0 1-.697.497h-2.67a.374.374 0 0 1-.353-.496l.013-.038a.68.68 0 0 1 .644-.458q.295-.018.386-.093a.3.3 0 0 0 .072-.11L9.592 4.5H6.269q-.538-.026-.75.09-.213.117-.442.563c-.192.29-.516.464-.864.464H4.17a.43.43 0 0 1-.407-.569L4.46 3h13.08l-.62 2.043a.81.81 0 0 1-.775.574h-.114a.486.486 0 0 1-.486-.486q.002-.426-.167-.54-.168-.114-.766-.091h-3.28l-2.68 10.257q-.009.111.038.158M3 17h8a.5.5 0 1 1 0 1H3a.5.5 0 1 1 0-1m11.299 1.17a.75.75 0 1 1-1.06-1.06l1.414-1.415-1.415-1.414a.75.75 0 0 1 1.06-1.06l1.415 1.414 1.414-1.415a.75.75 0 1 1 1.06 1.06l-1.413 1.415 1.414 1.415a.75.75 0 0 1-1.06 1.06l-1.415-1.414z"/></svg>