<svg xmlns="http://www.w3.org/2000/svg" viewBox="0 0 20 20"><path d="M9.61 2.66a1.406 1.406 0 1 0-1.407 0v.891H3.28a2.11 2.11 0 0 0-2.11 2.11v10.312a2.11 2.11 0 0 0 2.11 2.109h5.684l-.054-1.157.18-.25H3.28a.703.703 0 0 1-.703-.702V5.66c0-.389.315-.704.703-.704h11.25c.388 0 .703.315.703.704v2.484l.358-.497a2.5 2.5 0 0 1 1.048-.84V5.66a2.11 2.11 0 0 0-2.11-2.11H9.61z"/><path d="M5.625 10.817c.518 0 .937-.63.937-1.407 0-.776-.42-1.406-.937-1.406s-.938.63-.938 1.406c0 .777.42 1.407.938 1.407m7.5-1.407c0 .777-.42 1.407-.938 1.407s-.937-.63-.937-1.407c0-.776.42-1.406.937-1.406s.938.63.938 1.406M.937 8.004A.937.937 0 0 0 0 8.942v1.875c0 .517.42.937.937.937zm5.191 4.506a.78.78 0 0 1 1.085.216c.272.408.907.707 1.693.707s1.421-.3 1.693-.707a.782.782 0 0 1 1.302.868c-.666 1-1.906 1.403-2.995 1.403s-2.329-.404-2.995-1.403a.78.78 0 0 1 .217-1.085Zm10.859-3.6-.622.864 2.879 2.074.622-.864a.71.71 0 0 0-.161-.99l-1.728-1.245a.71.71 0 0 0-.99.161m-5.352 11.041a.355.355 0 0 1-.449-.31l-.214-2.38 4.978-6.911 2.88 2.074-4.978 6.91z"/></svg>