<svg viewBox="0 0 12 12" xmlns="http://www.w3.org/2000/svg">
<path d="M0.949883 0.27002C0.63508 0.27002 0.379883 0.525218 0.379883 0.84002V4.02002H1.27988V1.17002H4.12988V0.27002H0.949883Z" />
<path d="M11.1799 0.84002C11.1799 0.525217 10.9247 0.27002 10.6099 0.27002H7.42988V1.17002L10.2799 1.17002V4.02002L11.1799 4.02002V0.84002Z" />
<path d="M11.1799 10.5C11.1799 10.8148 10.9247 11.07 10.6099 11.07H7.42988V10.17H10.2799V7.32002H11.1799V10.5Z" />
<path d="M0.379883 10.5C0.379883 10.8148 0.635081 11.07 0.949883 11.07H4.12988L4.12988 10.17H1.27988L1.27988 7.32002H0.379883V10.5Z" />
<path d="M3.37988 4.02002C3.13135 4.02002 2.92988 4.22149 2.92988 4.47002C2.92988 4.71855 3.13135 4.92002 3.37988 4.92002H8.17988C8.42841 4.92002 8.62988 4.71855 8.62988 4.47002C8.62988 4.22149 8.42841 4.02002 8.17988 4.02002H3.37988Z" />
<path d="M3.37988 6.42002C3.13135 6.42002 2.92988 6.62149 2.92988 6.87002C2.92988 7.11855 3.13135 7.32002 3.37988 7.32002H5.77988C6.02841 7.32002 6.22988 7.11855 6.22988 6.87002C6.22988 6.62149 6.02841 6.42002 5.77988 6.42002H3.37988Z" />
</svg>
