<svg xmlns="http://www.w3.org/2000/svg" viewBox="0 0 20 20"><path d="M.75 15.5a.75.75 0 0 1 .75.75V18l.008.09A.5.5 0 0 0 2 18.5h1.75a.75.75 0 1 1 0 1.5H1.5l-.144-.007a1.5 1.5 0 0 1-1.35-1.349L0 18.5v-2.25a.75.75 0 0 1 .75-.75m18.5 0a.75.75 0 0 1 .75.75v2.25l-.007.144a1.5 1.5 0 0 1-1.349 1.35L18.5 20h-2.25a.75.75 0 1 1 0-1.5H18a.5.5 0 0 0 .492-.41L18.5 18v-1.75a.75.75 0 0 1 .75-.75m-10.45 3c.11 0 .2.09.2.2v1.1a.2.2 0 0 1-.2.2H7.2a.2.2 0 0 1-.2-.2v-1.1c0-.11.09-.2.2-.2zm4 0c.11 0 .2.09.2.2v1.1a.2.2 0 0 1-.2.2h-1.6a.2.2 0 0 1-.2-.2v-1.1c0-.11.09-.2.2-.2zm.45-5.5a.75.75 0 1 1 0 1.5h-8.5a.75.75 0 1 1 0-1.5zM1.3 11c.11 0 .2.09.2.2v1.6a.2.2 0 0 1-.2.2H.2a.2.2 0 0 1-.2-.2v-1.6c0-.11.09-.2.2-.2zm18.5 0c.11 0 .2.09.2.2v1.6a.2.2 0 0 1-.2.2h-1.1a.2.2 0 0 1-.2-.2v-1.6c0-.11.09-.2.2-.2zm-4.55-2a.75.75 0 1 1 0 1.5H4.75a.75.75 0 1 1 0-1.5zM1.3 7c.11 0 .2.09.2.2v1.6a.2.2 0 0 1-.2.2H.2a.2.2 0 0 1-.2-.2V7.2c0-.11.09-.2.2-.2zm18.5 0c.11 0 .2.09.2.2v1.6a.2.2 0 0 1-.2.2h-1.1a.2.2 0 0 1-.2-.2V7.2c0-.11.09-.2.2-.2zm-4.55-2a.75.75 0 1 1 0 1.5h-2.5a.75.75 0 1 1 0-1.5zm-5 0a.75.75 0 1 1 0 1.5h-5.5a.75.75 0 0 1 0-1.5zm-6.5-5a.75.75 0 0 1 0 1.5H2a.5.5 0 0 0-.492.41L1.5 2v1.75a.75.75 0 0 1-1.5 0V1.5l.007-.144A1.5 1.5 0 0 1 1.356.006L1.5 0zM18.5 0l.144.007a1.5 1.5 0 0 1 1.35 1.349L20 1.5v2.25a.75.75 0 1 1-1.5 0V2l-.008-.09A.5.5 0 0 0 18 1.5h-1.75a.75.75 0 1 1 0-1.5zM8.8 0c.11 0 .2.09.2.2v1.1a.2.2 0 0 1-.2.2H7.2a.2.2 0 0 1-.2-.2V.2c0-.11.09-.2.2-.2zm4 0c.11 0 .2.09.2.2v1.1a.2.2 0 0 1-.2.2h-1.6a.2.2 0 0 1-.2-.2V.2c0-.11.09-.2.2-.2z"/></svg>