<svg xmlns="http://www.w3.org/2000/svg" width="20" height="20" viewBox="0 0 20 20"><g fill-rule="evenodd" clip-rule="evenodd"><path d="M9.946 6.721a3.733 3.733 0 1 1 0 7.467 3.733 3.733 0 0 1 0-7.467m1.12 1.12a1.4 1.4 0 1 0 0 2.8 1.4 1.4 0 0 0 0-2.8"/><path d="M9.964 3.922c1.166.03 2.326.461 3.377 1.042 1.058.584 2.052 1.344 2.901 2.086a27 27 0 0 1 2.828 2.895l.043.05.01.015.004.004.001.002a.7.7 0 0 1 .102.18l.018.047.02.084.009.05a.7.7 0 0 1 0 .137q-.002.03-.009.06l-.016.076q-.01.03-.022.058-.012.035-.028.07l-.01.017a1 1 0 0 1-.056.087l-.002-.002.001.003-.004.005-.011.015-.043.053q-.055.072-.16.197a26 26 0 0 1-2.67 2.779c-.85.756-1.848 1.525-2.91 2.101-1.057.574-2.229.983-3.409.953-1.166-.03-2.325-.461-3.377-1.042C5.494 15.36 4.5 14.6 3.65 13.858a26.6 26.6 0 0 1-2.826-2.895l-.043-.051-.011-.015-.004-.003v-.002a1 1 0 0 1-.06-.087l-.008-.013a1 1 0 0 1-.038-.088l-.016-.04q-.013-.041-.019-.085l-.01-.05q-.002-.037-.001-.076v-.06q.004-.038.013-.074.004-.028.012-.056l.029-.079q.01-.026.023-.053l.01-.021a1 1 0 0 1 .056-.084H.76l-.001-.001H.76l.004-.005.01-.015.043-.054.16-.197a26 26 0 0 1 2.67-2.778c.85-.756 1.847-1.525 2.91-2.102 1.057-.573 2.228-.982 3.408-.952m-.036 1.4c-.842-.022-1.764.273-2.704.783-.936.507-1.844 1.203-2.647 1.918-.8.712-1.481 1.43-1.962 1.97l-.014.016a.65.65 0 0 0 .006.87 25 25 0 0 0 1.965 1.926c.804.703 1.716 1.395 2.656 1.914.946.522 1.88.846 2.736.868.843.02 1.764-.274 2.705-.784.935-.508 1.845-1.203 2.647-1.917a24 24 0 0 0 1.976-1.988.65.65 0 0 0-.007-.868 25 25 0 0 0-1.964-1.926c-.804-.703-1.716-1.396-2.657-1.915-.946-.522-1.88-.846-2.736-.868"/></g></svg>