<svg xmlns="http://www.w3.org/2000/svg" viewBox="0 0 20 20"><path d="M3.23 2.93a.88.88 0 0 1 1.248 0l1.47 1.468q.298-.186.605-.353c1.066-.58 2.247-.992 3.438-.961 1.176.03 2.344.464 3.405 1.05 1.066.588 2.069 1.355 2.925 2.104a27 27 0 0 1 2.852 2.918l.043.052.011.016.005.004a.7.7 0 0 1 .103.183l.018.047.02.083.01.05.002.078-.003.062-.01.06q-.005.038-.016.077l-.02.06-.03.07-.01.016-.056.087-.002-.001.002.002h-.002l-.003.006-.011.014-.044.054-.161.2a26 26 0 0 1-2.693 2.803q-.414.367-.868.73l1.256 1.256a.881.881 0 0 1-.785 1.49.87.87 0 0 0-.25-.55L3.444 3.872a.9.9 0 0 0-.465-.245.88.88 0 0 1 .252-.698m1.19 4.413A25 25 0 0 0 2.58 9.204l-.013.016a.654.654 0 0 0 .006.876c.484.53 1.173 1.236 1.98 1.943.812.708 1.73 1.407 2.679 1.93.954.527 1.896.853 2.76.876.52.013 1.07-.094 1.635-.298l1.082 1.082c-.877.395-1.812.651-2.754.626-1.176-.03-2.345-.464-3.406-1.05-1.066-.587-2.068-1.354-2.924-2.103a27 27 0 0 1-2.851-2.918l-.044-.052-.01-.014-.005-.004v-.002a1 1 0 0 1-.06-.087l-.008-.014q-.022-.044-.038-.089l-.016-.04-.02-.086q-.005-.024-.007-.05-.006-.039-.003-.075v-.06q.004-.038.012-.076l.012-.056q.013-.041.03-.08l.023-.054.012-.02.055-.086h.002l-.002-.001.003-.005.012-.015.043-.054.16-.2A26 26 0 0 1 3.42 6.343zm6.057 6.058q-.247.035-.506.035a3.765 3.765 0 0 1-3.73-4.27zm-.524-8.906c-.85-.021-1.779.276-2.727.79l-.25.142L8.011 6.46a3.77 3.77 0 0 1 1.96-.555 3.765 3.765 0 0 1 3.766 3.764 3.77 3.77 0 0 1-.558 1.96l1.272 1.271c.323-.25.637-.513.936-.778a25 25 0 0 0 1.977-1.988l.015-.016a.655.655 0 0 0-.006-.878 26 26 0 0 0-1.981-1.941c-.81-.708-1.73-1.407-2.679-1.932-.954-.526-1.896-.852-2.76-.874m1.148 2.541a1.41 1.41 0 0 0-1.384 1.132l1.662 1.662a1.412 1.412 0 0 0-.278-2.794"/></svg>