<svg xmlns="http://www.w3.org/2000/svg" width="20" height="20" viewBox="0 0 20 20"><path d="M2.967 3.074a1 1 0 0 1 1.414 0L5.86 4.552q.243-.148.49-.284c1.057-.573 2.229-.983 3.409-.953 1.165.03 2.325.462 3.377 1.043 1.057.584 2.052 1.344 2.901 2.086a27 27 0 0 1 2.668 2.704l.159.19.043.051.012.014.003.004v.003a.7.7 0 0 1 .103.18q.01.022.018.046.012.042.019.084l.009.05q.003.04.002.077v.06l-.01.06-.017.077-.02.057q-.014.036-.03.07l-.01.018q-.023.045-.055.087l-.002-.003-.001.001.002.002-.001.001-.004.005-.01.015-.043.053q-.055.07-.16.197a26 26 0 0 1-2.67 2.78c-.242.215-.5.43-.764.643l1.237 1.237a1 1 0 0 1 0 1.414 1 1 0 0 1-.742.287 1 1 0 0 0-.287-.77L3.353 4.007a1 1 0 0 0-.673-.29 1 1 0 0 1 .287-.642m1.176 4.55a25 25 0 0 0-1.734 1.762l-.015.016a.65.65 0 0 0 .007.87A25 25 0 0 0 4.366 12.2c.803.702 1.715 1.395 2.656 1.914.946.522 1.88.845 2.736.867.475.012.974-.08 1.49-.251l1.084 1.084c-.835.36-1.72.59-2.61.567-1.167-.03-2.325-.463-3.377-1.043-1.057-.584-2.052-1.343-2.901-2.085a27 27 0 0 1-2.827-2.895l-.043-.051-.01-.015-.004-.003-.001-.003a1 1 0 0 1-.06-.086l-.007-.014a1 1 0 0 1-.039-.088l-.016-.039q-.011-.042-.018-.086l-.009-.05-.002-.075q-.002-.03 0-.06.004-.038.013-.074.004-.029.011-.057l.029-.078q.01-.027.023-.054l.01-.02a1 1 0 0 1 .057-.085l.001.001v-.002l.004-.005.012-.015.043-.053q.055-.07.159-.197a26 26 0 0 1 2.38-2.517zm5.939 5.94q-.17.017-.343.018a3.735 3.735 0 0 1-3.716-4.077zm-.36-8.85c-.843-.02-1.764.275-2.704.785q-.067.036-.135.076l1.022 1.022a3.735 3.735 0 0 1 5.569 3.25 3.7 3.7 0 0 1-.486 1.834l1.293 1.293q.43-.34.83-.694c.8-.712 1.48-1.431 1.96-1.972l.015-.017a.65.65 0 0 0-.007-.868 25 25 0 0 0-1.965-1.926c-.804-.702-1.715-1.396-2.656-1.915-.946-.522-1.88-.845-2.737-.867m1.138 2.52c-.627 0-1.159.413-1.337.982l1.754 1.754a1.4 1.4 0 0 0-.417-2.736"/></svg>