<svg xmlns="http://www.w3.org/2000/svg" viewBox="0 0 20 20"><g transform="scale(1.17647)"><g clip-path="url(#a)"><path d="M2.746 2.49a.75.75 0 0 1 1.06 0l1.25 1.248q.253-.158.514-.3c.906-.492 1.91-.843 2.922-.817 1 .026 1.993.395 2.895.893.906.5 1.758 1.152 2.486 1.788a23 23 0 0 1 2.424 2.481l.037.044.009.013.004.004a.6.6 0 0 1 .088.155l.015.04.017.071.008.043.002.066-.002.052-.008.051q-.005.033-.014.066l-.018.05q-.011.03-.025.06l-.009.014-.047.074-.002-.001.002.002h-.002l-.002.005-.01.012-.037.046-.137.17a22 22 0 0 1-2.289 2.382q-.352.312-.738.62l1.068 1.068a.749.749 0 0 1-.667 1.266.74.74 0 0 0-.213-.466l-10.4-10.4a.75.75 0 0 0-.395-.208.75.75 0 0 1 .214-.593M3.758 6.24a21 21 0 0 0-1.566 1.583l-.011.014a.556.556 0 0 0 .005.745c.412.45.997 1.05 1.684 1.651.689.602 1.47 1.196 2.276 1.641.811.448 1.612.725 2.346.744.442.011.91-.08 1.39-.253l.92.92c-.746.335-1.54.553-2.341.532-1-.025-1.993-.395-2.895-.892-.906-.5-1.758-1.152-2.486-1.788A23 23 0 0 1 .657 8.656L.62 8.612.611 8.6l-.004-.003v-.002a1 1 0 0 1-.051-.074l-.007-.012Q.53 8.472.517 8.434L.503 8.4l-.017-.073Q.482 8.306.48 8.284.475 8.251.478 8.22v-.051q.003-.032.01-.064l.01-.048q.011-.035.025-.068l.02-.046.01-.017.047-.073h.002L.6 7.852l.003-.004.01-.013.036-.046.137-.169a22 22 0 0 1 2.121-2.229zm5.148 5.149q-.21.03-.43.03a3.2 3.2 0 0 1-3.17-3.63zm-.445-7.57c-.722-.018-1.512.235-2.318.672l-.213.12.88.88a3.2 3.2 0 0 1 1.667-.472 3.2 3.2 0 0 1 3.2 3.2 3.2 3.2 0 0 1-.474 1.666l1.081 1.08c.275-.213.542-.436.796-.661a21 21 0 0 0 1.68-1.69l.013-.014a.557.557 0 0 0-.005-.746 22 22 0 0 0-1.684-1.65c-.689-.602-1.471-1.196-2.277-1.642-.811-.447-1.612-.724-2.346-.743m.976 2.16a1.2 1.2 0 0 0-1.177.962l1.413 1.413a1.2 1.2 0 0 0-.236-2.375"/></g><defs><clipPath id="a"><path d="M.477.22h16v16h-16z"/></clipPath></defs></g></svg>