<svg xmlns="http://www.w3.org/2000/svg" viewBox="0 0 20 20"><g transform="scale(1.17647)"><g fill-rule="evenodd" clip-path="url(#a)" clip-rule="evenodd"><path d="M8.476 5.02a3.2 3.2 0 1 1 0 6.4 3.2 3.2 0 0 1 0-6.4m.96.96a1.2 1.2 0 1 0 0 2.4 1.2 1.2 0 0 0 0-2.4"/><path d="M8.492 2.621c1 .026 1.993.396 2.895.893.906.5 1.759 1.152 2.486 1.789a23 23 0 0 1 2.424 2.48q.023.03.037.045l.009.012.003.003v.002q.058.071.088.155l.016.04.016.071.008.043a.6.6 0 0 1 0 .117q-.001.027-.007.052l-.014.066q-.008.024-.019.049-.01.03-.024.06l-.009.015-.047.074-.002-.002v.001l.001.002-.004.005-.01.012-.036.046-.137.169a22 22 0 0 1-2.29 2.382c-.727.648-1.583 1.307-2.493 1.8-.906.492-1.91.843-2.922.817-1-.025-1.993-.395-2.895-.893-.906-.5-1.759-1.151-2.486-1.787A23 23 0 0 1 .657 8.657L.62 8.613.61 8.6l-.002-.003-.001-.001a1 1 0 0 1-.052-.075L.55 8.51l-.033-.075L.503 8.4q-.011-.037-.016-.073-.006-.022-.008-.043l-.002-.065v-.052q.004-.03.011-.063l.01-.048.025-.068.02-.046.01-.018.047-.071v.001h.001v-.002l.004-.004.009-.013.037-.046q.047-.06.136-.168A22 22 0 0 1 3.075 5.24c.73-.649 1.585-1.308 2.495-1.802.906-.492 1.91-.842 2.922-.817m-.031 1.2c-.722-.019-1.512.234-2.318.672-.802.434-1.58 1.031-2.269 1.643-.686.61-1.27 1.226-1.682 1.69l-.012.013a.556.556 0 0 0 .006.745c.412.45.997 1.05 1.684 1.652.69.602 1.47 1.195 2.277 1.64.81.448 1.61.725 2.345.744.722.018 1.512-.235 2.318-.672.802-.435 1.582-1.03 2.27-1.643a21 21 0 0 0 1.68-1.69l.013-.014a.556.556 0 0 0-.006-.744c-.412-.45-.996-1.05-1.683-1.651-.69-.603-1.471-1.196-2.278-1.642-.81-.447-1.61-.725-2.345-.743"/></g><defs><clipPath id="a"><path d="M.477.22h16v16h-16z"/></clipPath></defs></g></svg>