<svg xmlns="http://www.w3.org/2000/svg" viewBox="0 0 20 20"><path d="m6.395 9.196 2.545-.007V6.498a.6.6 0 0 1 .598-.598h.299a.6.6 0 0 1 .598.598v6.877a.6.6 0 0 1-.598.598h-.299a.6.6 0 0 1-.598-.598v-2.691l-2.545.007v2.691a.6.6 0 0 1-.598.598h-.299a.6.6 0 0 1-.598-.598V6.505a.6.6 0 0 1 .598-.598h.299a.6.6 0 0 1 .598.598zM15.094 13.417V6.462a.56.56 0 0 0-.562-.562h-.782a1 1 0 0 0-.39.08l-1.017.43a.56.56 0 0 0-.343.517v.197c0 .4.406.67.775.519l.819-.337v6.111c0 .31.251.562.561.562h.377c.31 0 .562-.251.562-.562M0 15.417v1.5h1.5v-1.5zM18.5 15.417v1.5H20v-1.5zM18.5 12.333v1.5H20v-1.5zM18.5 9.25v1.5H20v-1.5zM18.5 6.167v1.5H20v-1.5zM0 18.5v.5a1 1 0 0 0 1 1h.5v-1.5zM3.083 18.5V20h1.5v-1.5zM6.167 18.5V20h1.5v-1.5zM9.25 18.5V20h1.5v-1.5zM12.333 18.5V20h1.5v-1.5zM15.417 18.5V20h1.5v-1.5zM18.5 18.5V20h.5a1 1 0 0 0 1-1v-.5z"/><path d="M0 1a1 1 0 0 1 1-1h18a1 1 0 0 1 1 1v3.583h-1.5V1.5h-17v12.333H0z" clip-rule="evenodd"/></svg>