<svg xmlns="http://www.w3.org/2000/svg" viewBox="0 0 20 20"><path d="m12.5 0 5 4.5v15.003h-16V0zM3 1.5v3.25l-1.497 1-.003 8 1.5 1v3.254L7.685 18l-.001 1.504H17.5V8.002L16 9.428l-.004-4.22-4.222-3.692z"/><path d="M4.06 6.64a.75.75 0 0 1 .958 1.15l-.085.07L2.29 9.75l2.646 1.89c.302.216.4.62.232.951l-.058.095a.75.75 0 0 1-.951.232l-.095-.058-3.5-2.5V9.14zm4.194 6.22a.75.75 0 0 1-.958-1.149l.085-.07 2.643-1.89-2.646-1.89a.75.75 0 0 1-.232-.952l.058-.095a.75.75 0 0 1 .95-.232l.096.058 3.5 2.5v1.22zm7.644-.836 2.122 2.122-5.825 5.809-2.125-.005.003-2.116zm2.539-1.847 1.414 1.414a.5.5 0 0 1 0 .707l-1.06 1.06-2.122-2.12 1.061-1.061a.5.5 0 0 1 .707 0"/></svg>