<svg xmlns="http://www.w3.org/2000/svg" viewBox="0 0 20 20"><path d="M9.288 1.496c.244-.661 1.18-.661 1.424 0l1.513 4.09a3.7 3.7 0 0 0 2.188 2.188l4.091 1.514c.661.244.66 1.18 0 1.424l-4.09 1.513a3.7 3.7 0 0 0-2.189 2.19l-1.513 4.09c-.244.66-1.18.66-1.424 0l-1.513-4.09a3.7 3.7 0 0 0-2.19-2.19l-4.09-1.513c-.66-.244-.66-1.18 0-1.424l4.09-1.514a3.7 3.7 0 0 0 2.189-2.188zM9.168 6.1A5.2 5.2 0 0 1 6.1 9.167L3.851 10l2.25.832a5.2 5.2 0 0 1 3.066 3.067L10 16.148l.832-2.25a5.2 5.2 0 0 1 3.066-3.066L16.147 10l-2.25-.833a5.2 5.2 0 0 1-3.065-3.066L10 3.852z"/></svg>