<svg xmlns="http://www.w3.org/2000/svg" viewBox="0 0 20 20"><path d="M10 2.5a7.47 7.47 0 0 1 4.231 1.31 7.27 7.27 0 0 1 2.703 3.454 7.13 7.13 0 0 1 .199 4.353c-.39 1.436-1.475 2.72-2.633 3.677h2.013c0-.226.092-.443.254-.603a.876.876 0 0 1 1.229 0c.163.16.254.377.254.603v.853c0 .209-.078.41-.22.567a.87.87 0 0 1-.547.28l-.101.006h-4.695a.517.517 0 0 1-.516-.518v-1.265c0-.21.128-.398.317-.489a5.6 5.6 0 0 0 2.492-2.371 5.46 5.46 0 0 0 .552-3.693 5.53 5.53 0 0 0-1.955-3.2A5.7 5.7 0 0 0 10 4.206 5.7 5.7 0 0 0 6.419 5.46 5.53 5.53 0 0 0 4.46 8.663a5.46 5.46 0 0 0 .554 3.695 5.6 5.6 0 0 0 2.497 2.37.55.55 0 0 1 .317.49v1.264c0 .286-.23.518-.516.518H2.618a.88.88 0 0 1-.614-.25.85.85 0 0 1-.254-.603v-.853c0-.226.091-.443.254-.603a.876.876 0 0 1 1.228 0c.163.16.255.377.255.603h1.925c-1.158-.958-2.155-2.241-2.545-3.678a7.13 7.13 0 0 1 .199-4.352 7.27 7.27 0 0 1 2.703-3.455A7.5 7.5 0 0 1 10 2.5"/></svg>