<svg xmlns="http://www.w3.org/2000/svg" viewBox="0 0 20 20"><path d="m7.03 10.349 3.818-3.819a.8.8 0 1 1 1.132 1.132L8.16 11.48l3.819 3.818a.8.8 0 1 1-1.132 1.132L7.03 12.61l-3.818 3.82a.8.8 0 1 1-1.132-1.132L5.9 11.48 2.08 7.662A.8.8 0 1 1 3.212 6.53zm8.147 7.829h2.549q.38 0 .58.152a.49.49 0 0 1 .201.413.54.54 0 0 1-.159.393q-.158.162-.48.162h-3.594q-.367 0-.572-.197a.62.62 0 0 1-.205-.463q0-.171.132-.453a1.6 1.6 0 0 1 .288-.444q.65-.654 1.172-1.122t.747-.615q.401-.275.667-.553t.405-.57.139-.57a1.01 1.01 0 0 0-.554-.917 1.2 1.2 0 0 0-.56-.133q-.639 0-1.005.546a2.3 2.3 0 0 0-.164.39 1.6 1.6 0 0 1-.258.488q-.144.17-.423.17a.56.56 0 0 1-.405-.156.57.57 0 0 1-.161-.427q0-.327.151-.683.152-.357.452-.646c.3-.289.454-.349.762-.467a3 3 0 0 1 1.081-.178q.747 0 1.274.228a1.92 1.92 0 0 1 1.004 1.032 1.98 1.98 0 0 1-.156 1.794q-.3.48-.613.754-.312.273-1.048.857-.735.584-1.008.906a3 3 0 0 0-.24.309z"/></svg>