<svg xmlns="http://www.w3.org/2000/svg" width="20" height="20" viewBox="0 0 20 20"><path d="m7.184 10.353 3.818-3.819a.8.8 0 0 1 1.132 1.132l-3.82 3.818 3.82 3.818a.802.802 0 0 1-.873 1.306.8.8 0 0 1-.26-.174l-3.817-3.82-3.818 3.82a.8.8 0 0 1-1.305-.26.8.8 0 0 1 .173-.872l3.82-3.818-3.82-3.818a.8.8 0 0 1 1.132-1.132l3.818 3.82M15.68 6.88h2.549q.38 0 .58.153a.49.49 0 0 1 .201.413.54.54 0 0 1-.159.393q-.158.162-.48.162h-3.594q-.367 0-.572-.197A.62.62 0 0 1 14 7.34q0-.171.132-.453a1.6 1.6 0 0 1 .288-.444q.65-.654 1.172-1.122t.747-.615q.401-.275.667-.553.266-.277.405-.57.14-.291.139-.57a1.01 1.01 0 0 0-.554-.917 1.2 1.2 0 0 0-.56-.133q-.639 0-1.005.546a2.3 2.3 0 0 0-.164.39 1.6 1.6 0 0 1-.258.488q-.144.17-.423.17a.56.56 0 0 1-.405-.156.57.57 0 0 1-.161-.427q0-.327.151-.683.152-.357.452-.646t.762-.467A3 3 0 0 1 16.466 1q.747 0 1.274.228c.456.2.816.57 1.004 1.032a1.99 1.99 0 0 1-.156 1.794q-.3.48-.613.754-.312.273-1.048.857-.735.583-1.008.906-.131.146-.24.309z"/></svg>