<svg viewBox="0 0 20 20" xmlns="http://www.w3.org/2000/svg"><path d="M3 19a2 2 0 0 1-2-2V2a2 2 0 0 1 2-2h14a2 2 0 0 1 2 2v8.022a6.47 6.47 0 0 0-1.5-.709V2a.5.5 0 0 0-.5-.5H3a.5.5 0 0 0-.5.5v15a.5.5 0 0 0 .5.5h6.313c.173.534.412 1.037.709 1.5H3Z"/><path d="M9.174 14a6.489 6.489 0 0 0-.155 1H6v-1h3.174Z"/><path d="M10.022 12a6.51 6.51 0 0 0-.524 1H4v-1h6.022Z"/><path d="M12.034 10c-.448.283-.86.62-1.224 1H6v-1h6.034Z"/><path d="M12 4v1H4V4h8Z"/><path d="M14 7V6H6v1h8Z"/><path d="M15 9V8H7v1h8Z"/><path clip-rule="evenodd" d="M20 15.5a4.5 4.5 0 1 1-9 0 4.5 4.5 0 0 1 9 0ZM15.5 13a.5.5 0 0 0-.5.5V15h-1.5a.5.5 0 0 0 0 1H15v1.5a.5.5 0 0 0 1 0V16h1.5a.5.5 0 0 0 0-1H16v-1.5a.5.5 0 0 0-.5-.5Z"/></svg>