<svg xmlns="http://www.w3.org/2000/svg" viewBox="0 0 20 20"><path d="M3 19a2 2 0 0 1-2-2V2a2 2 0 0 1 2-2h14a2 2 0 0 1 2 2v8.022a6.5 6.5 0 0 0-1.5-.709V2a.5.5 0 0 0-.5-.5H3a.5.5 0 0 0-.5.5v15a.5.5 0 0 0 .5.5h6.313c.173.534.412 1.037.709 1.5z"/><path d="M9.174 14a6.5 6.5 0 0 0-.155 1H6v-1zm.848-2a6.5 6.5 0 0 0-.524 1H4v-1zm2.012-2c-.448.283-.86.62-1.224 1H6v-1zM12 4v1H4V4zm2 3V6H6v1zm1 2V8H7v1z"/><path d="M20 15.5a4.5 4.5 0 1 1-9 0 4.5 4.5 0 0 1 9 0M15.5 13a.5.5 0 0 0-.5.5V15h-1.5a.5.5 0 0 0 0 1H15v1.5a.5.5 0 0 0 1 0V16h1.5a.5.5 0 0 0 0-1H16v-1.5a.5.5 0 0 0-.5-.5" clip-rule="evenodd"/></svg>