<svg viewBox="0 0 20 20" xmlns="http://www.w3.org/2000/svg"><path clip-rule="evenodd" d="M8 0H3a2 2 0 0 0-2 2v15a2 2 0 0 0 2 2h5a2 2 0 0 0 2-2V2a2 2 0 0 0-2-2ZM2.5 2a.5.5 0 0 1 .5-.5h5a.5.5 0 0 1 .5.5v15a.5.5 0 0 1-.5.5H3a.5.5 0 0 1-.5-.5V2Z"/><path clip-rule="evenodd" d="M13 0h5a2 2 0 0 1 2 2v5a2 2 0 0 1-2 2h-5a2 2 0 0 1-2-2V2a2 2 0 0 1 2-2Zm0 1.5a.5.5 0 0 0-.5.5v5a.5.5 0 0 0 .5.5h5a.5.5 0 0 0 .5-.5V2a.5.5 0 0 0-.5-.5h-5Z"/><path clip-rule="evenodd" d="M13 10h5a2 2 0 0 1 2 2v5a2 2 0 0 1-2 2h-5a2 2 0 0 1-2-2v-5a2 2 0 0 1 2-2Zm0 1.5a.5.5 0 0 0-.5.5v5a.5.5 0 0 0 .5.5h5a.5.5 0 0 0 .5-.5v-5a.5.5 0 0 0-.5-.5h-5Z"/></svg>