<svg viewBox="0 0 20 20" xmlns="http://www.w3.org/2000/svg">
<path d="M14.5 10.001C14.5 10.8294 15.1716 11.501 16 11.501C16.8284 11.501 17.5 10.8294 17.5 10.001C17.5 9.17255 16.8284 8.50098 16 8.50098C15.1716 8.50098 14.5 9.17255 14.5 10.001Z"/>
<path d="M8.5 10.001C8.5 10.8294 9.17157 11.501 10 11.501C10.8284 11.501 11.5 10.8294 11.5 10.001C11.5 9.17255 10.8284 8.50098 10 8.50098C9.17157 8.50098 8.5 9.17255 8.5 10.001Z"/>
<path d="M2.5 10.001C2.5 10.8294 3.17157 11.501 4 11.501C4.82843 11.501 5.5 10.8294 5.5 10.001C5.5 9.17255 4.82843 8.50098 4 8.50098C3.17157 8.50098 2.5 9.17255 2.5 10.001Z"/>
</svg>
