<svg xmlns="http://www.w3.org/2000/svg" viewBox="0 0 20 20"><path d="m5.977 2 .708 1.914A2.06 2.06 0 0 0 7.902 5.13l1.914.708-1.914.709a2.06 2.06 0 0 0-1.217 1.216l-.708 1.914-.708-1.914a2.06 2.06 0 0 0-1.216-1.216l-1.914-.709 1.914-.708a2.06 2.06 0 0 0 1.216-1.216zm6.87 3.417 1.135 3.067a3.3 3.3 0 0 0 1.95 1.95L19 11.57l-3.067 1.135a3.3 3.3 0 0 0-1.95 1.95l-1.136 3.067-1.135-3.067a3.3 3.3 0 0 0-1.95-1.95l-3.068-1.136 3.068-1.135a3.3 3.3 0 0 0 1.95-1.95zm-8.418 8.276-.534-1.443-.534 1.443c-.158.425-.493.76-.918.918L1 15.145l1.443.534c.425.157.76.492.918.917l.534 1.443.534-1.443a1.55 1.55 0 0 1 .917-.917l1.443-.534-1.443-.534a1.55 1.55 0 0 1-.917-.918"/></svg>