<svg xmlns="http://www.w3.org/2000/svg" width="20" height="20" viewBox="0 0 20 20"><path fill-rule="evenodd" d="M6 8.663V17a2 2 0 0 0 2 2h7.49a2 2 0 0 0 1.92-1.438l2.342-8A2 2 0 0 0 17.832 7h-4.316l.781-2.604a2 2 0 0 0-1.283-2.473l-.692-.23a2 2 0 0 0-2.25.72l-3.69 5.073A2 2 0 0 0 6 8.662M7.5 17V8.663a.5.5 0 0 1 .096-.295l3.689-5.072a.5.5 0 0 1 .562-.18l.693.23a.5.5 0 0 1 .32.619l-1.167 3.891a.5.5 0 0 0 .479.644h5.66a.5.5 0 0 1 .48.64l-2.342 8a.5.5 0 0 1-.48.36H8a.5.5 0 0 1-.5-.5M3.3 7H1.7A1.7 1.7 0 0 0 0 8.7v8.6A1.7 1.7 0 0 0 1.7 19h1.6A1.7 1.7 0 0 0 5 17.3V8.7A1.7 1.7 0 0 0 3.3 7M1.5 8.7c0-.11.09-.2.2-.2h1.6c.11 0 .2.09.2.2v8.6a.2.2 0 0 1-.2.2H1.7a.2.2 0 0 1-.2-.2z" clip-rule="evenodd"/></svg>