<svg xmlns="http://www.w3.org/2000/svg" viewBox="0 0 20 20"><path fill-rule="evenodd" d="M6.05 8.609v8.38c0 1.11.903 2.01 2.017 2.01h7.553c.896 0 1.684-.588 1.936-1.445l2.361-8.041a2.012 2.012 0 0 0-1.935-2.575h-4.353l.788-2.618a2.01 2.01 0 0 0-1.294-2.485l-.698-.232a2.02 2.02 0 0 0-2.269.725l-3.72 5.098c-.25.344-.386.758-.386 1.183m1.513 8.38V8.61c0-.107.034-.21.096-.296l3.72-5.099a.505.505 0 0 1 .567-.18l.699.231a.5.5 0 0 1 .323.621l-1.177 3.912a.503.503 0 0 0 .483.647h5.708c.336 0 .578.322.484.644l-2.362 8.041a.504.504 0 0 1-.484.362H8.067a.503.503 0 0 1-.504-.503M3.328 6.937H1.714C.767 6.937 0 7.703 0 8.647v8.644C0 18.234.767 19 1.714 19h1.614c.946 0 1.714-.766 1.714-1.71V8.647c0-.943-.768-1.709-1.714-1.709m-1.815 1.71c0-.112.09-.202.201-.202h1.614c.111 0 .201.09.201.201v8.645a.2.2 0 0 1-.201.2H1.714a.2.2 0 0 1-.201-.2z" clip-rule="evenodd"/></svg>