<svg xmlns="http://www.w3.org/2000/svg" viewBox="0 0 20 20"><path fill-rule="evenodd" d="M13.834 11.927V3.59a2 2 0 0 0-2-2h-7.49a2 2 0 0 0-1.92 1.438l-2.342 8a2 2 0 0 0 1.92 2.562h4.316l-.781 2.604a2 2 0 0 0 1.283 2.472l.692.231a2 2 0 0 0 2.25-.72l3.69-5.073a2 2 0 0 0 .382-1.177m-1.5-8.337v8.337a.5.5 0 0 1-.096.294L8.55 17.294a.5.5 0 0 1-.562.18l-.693-.23a.5.5 0 0 1-.32-.619l1.167-3.891a.5.5 0 0 0-.479-.644h-5.66a.5.5 0 0 1-.48-.64l2.342-8a.5.5 0 0 1 .48-.36h7.49a.5.5 0 0 1 .5.5m4.199 10h1.6a1.7 1.7 0 0 0 1.7-1.7v-8.6a1.7 1.7 0 0 0-1.7-1.7h-1.6a1.7 1.7 0 0 0-1.7 1.7v8.6a1.7 1.7 0 0 0 1.7 1.7m1.8-1.7a.2.2 0 0 1-.2.2h-1.6a.2.2 0 0 1-.2-.2v-8.6c0-.11.09-.2.2-.2h1.6c.11 0 .2.09.2.2z" clip-rule="evenodd"/></svg>
