<svg xmlns="http://www.w3.org/2000/svg" viewBox="0 0 20 20"><path fill-rule="evenodd" d="M13.95 11.89V3.51c0-1.11-.903-2.01-2.017-2.01H4.38c-.896 0-1.684.589-1.936 1.446l-2.361 8.04a2.012 2.012 0 0 0 1.935 2.576h4.353l-.788 2.618a2.01 2.01 0 0 0 1.294 2.485l.698.232a2.02 2.02 0 0 0 2.269-.725l3.72-5.099c.25-.343.386-.757.386-1.182m-1.513-8.38v8.38c0 .107-.034.21-.096.296l-3.72 5.1a.505.505 0 0 1-.567.18l-.699-.232a.5.5 0 0 1-.323-.62L8.209 12.7a.503.503 0 0 0-.483-.647H2.018a.503.503 0 0 1-.484-.643l2.362-8.042a.504.504 0 0 1 .484-.361h7.553c.278 0 .504.225.504.502m4.235 10.053h1.614c.947 0 1.714-.765 1.714-1.709V3.21c0-.944-.767-1.709-1.714-1.709h-1.614c-.946 0-1.714.765-1.714 1.709v8.644c0 .944.768 1.709 1.714 1.709m1.815-1.709c0 .111-.09.201-.201.201h-1.614a.2.2 0 0 1-.201-.2V3.208c0-.111.09-.201.201-.201h1.614a.2.2 0 0 1 .201.2z" clip-rule="evenodd"/></svg>