<svg viewBox="0 0 20 20" xmlns="http://www.w3.org/2000/svg"><path d="M2 2.28C2 1.574 2.574 1 3.272 1l11.456.001c.703 0 1.272.573 1.272 1.28v8.106l-.889.899-.611-.619V2.465c0-.003-11-.005-11-.005V16.5h6.458l-.136.138-.003.003c-.372.378-.628.85-.745 1.359l-5.802-.001A1.274 1.274 0 0 1 2 16.719V2.28Z"/><path d="M14.338 18h-3.676c.06-.112.136-.216.227-.308l1.178-1.192H14.5v-3.699l.61.618.89-.899v4.199c0 .383-.168.726-.431.96l-.457-.462-.774.783Z"/><path d="M9.043 11.5a2.853 2.853 0 0 0 .066 1.278H6.18a.635.635 0 0 1-.632-.639.64.64 0 0 1 .633-.639h2.863Z"/><path d="M12.493 9.233a2.816 2.816 0 0 0-2.434.544H6.182a.636.636 0 0 1-.636-.639c0-.352.292-.638.636-.638h5.682a.635.635 0 0 1 .629.733Z"/><path d="M5.546 6.154c0-.353.292-.64.636-.64h5.682a.637.637 0 0 1 .449 1.09.641.641 0 0 1-.449.188H6.182a.636.636 0 0 1-.635-.639l-.001.001Z"/><path d="m15.11 13.42 2.348-2.374a1.318 1.318 0 0 1 1.877 0 1.354 1.354 0 0 1 0 1.9l-2.346 2.372 2.346 2.374a1.354 1.354 0 0 1 0 1.898 1.316 1.316 0 0 1-1.877 0l-2.346-2.373-2.346 2.373a1.316 1.316 0 0 1-1.877 0 1.354 1.354 0 0 1 0-1.898l2.346-2.374-2.346-2.373a1.354 1.354 0 0 1 0-1.899 1.318 1.318 0 0 1 1.877 0l2.346 2.374h-.001Z" style="fill:#DA2020"/></svg>