<svg viewBox="0 0 20 20" xmlns="http://www.w3.org/2000/svg"><path d="M2 2.28C2 1.574 2.574 1 3.272 1l11.456.001c.703 0 1.272.573 1.272 1.28v8.453l-1.5 1.464V2.465c0-.003-11-.005-11-.005V16.5h2.356c.124.225.28.434.462.62l.868.88-3.914-.001A1.274 1.274 0 0 1 2 16.719V2.28Z"/><path d="M14.525 18H9.293l-1.48-1.5h3.75l.332.336.344-.336H14.5v-2.207L16 12.83v3.73L14.525 18Z"/><path d="M9.706 12.638a2.838 2.838 0 0 0-1.38-.36 2.817 2.817 0 0 0-1.602.5H6.18a.635.635 0 0 1-.633-.639.64.64 0 0 1 .633-.639h3.133a.639.639 0 0 1 .393 1.138Z"/><path d="M5.546 6.154c0-.353.292-.64.636-.64h5.682a.637.637 0 0 1 .449 1.09.641.641 0 0 1-.449.188H6.182a.636.636 0 0 1-.635-.639l-.001.001Z"/><path d="M5.546 9.138c0-.352.292-.638.636-.638h5.682a.635.635 0 0 1 .45 1.088.641.641 0 0 1-.45.189H6.182a.636.636 0 0 1-.636-.639Z"/><path d="m13.117 19.374 6.192-6.044a1.316 1.316 0 0 0 0-1.876 1.354 1.354 0 0 0-1.899 0l-5.515 5.382-2.63-2.666a1.312 1.312 0 0 0-.938-.393 1.315 1.315 0 0 0-.939.394 1.354 1.354 0 0 0 0 1.898l3.49 3.538a1.317 1.317 0 0 0 1.447.29 2.74 2.74 0 0 0 .792-.523Z" style="fill:#1FB11F"/></svg>