<svg xmlns="http://www.w3.org/2000/svg" viewBox="0 0 20 20"><path d="M6.182 5.514a.643.643 0 0 0-.636.64v-.001a.636.636 0 0 0 .636.639h5.682a.64.64 0 0 0 .636-.638.637.637 0 0 0-.636-.64zm0 2.986a.642.642 0 0 0-.588.882.64.64 0 0 0 .588.395h5.682a.64.64 0 0 0 .636-.639.635.635 0 0 0-.636-.638zm-.002 3a.64.64 0 0 0 0 1.278h3.133a.64.64 0 0 0 0-1.278zm5.592 6.808.154-.23q-.292-.148-.328-.28-.037-.135.076-.551.093-.248.11-.393a3 3 0 0 0 0-.479q-.206-.614-.186-.83.02-.218.313-.57l4.465-6.207q.534-.9 2.11.118 1.576 1.021 1.177 1.772l-3.876 6.833q-.157.407-.347.515c-.128.07-.4.119-.813.139a3 3 0 0 0-.487.21q-.191.135-.347.31-.29.261-.416.262-.095 0-.346-.15l-.204.27zm-.184.274 1.039.727-.26.34h-1.496z"/><path d="M3.272 1A1.28 1.28 0 0 0 2 2.28v14.439a1.276 1.276 0 0 0 1.272 1.28h6.838a2.1 2.1 0 0 1 .003-.61 4 4 0 0 1 .156-.67l.025-.069v-.008l-.042-.142H3.5V2.46s11 .002 11 .005v6.341l.627-.872c.204-.32.49-.614.873-.819V2.281c0-.707-.569-1.28-1.272-1.28zM16 9.29l-1.5 2.085V16.5h-2.708q.007.177-.007.354l-.013.075-.001.005a3 3 0 0 1-.097.312q-.04.152-.062.266a.7.7 0 0 0-.014.287.25.25 0 0 0 .068.105 1 1 0 0 0 .088.074l.017.011.016.01h.175L14.73 18c.697 0 1.271-.573 1.271-1.281v-7.43Z" clip-rule="evenodd"/></svg>