<svg xmlns="http://www.w3.org/2000/svg" viewBox="0 0 20 20"><path d="M2 2.28C2 1.574 2.574 1 3.272 1l11.456.001c.703 0 1.272.573 1.272 1.28v8.106l-.889.899-.611-.619V2.465c0-.003-11-.005-11-.005V16.5h6.458l-.136.138-.003.003c-.372.378-.628.85-.745 1.359l-5.802-.001A1.274 1.274 0 0 1 2 16.719zM14.338 18h-3.676q.09-.169.227-.308l1.178-1.192H14.5v-3.699l.61.618.89-.899v4.199c0 .383-.168.726-.431.96l-.457-.462z"/><path d="M9.043 11.5a2.85 2.85 0 0 0 .066 1.278H6.18a.635.635 0 0 1-.632-.639.64.64 0 0 1 .633-.639h2.863Zm3.45-2.267a2.82 2.82 0 0 0-2.434.544H6.182a.636.636 0 0 1-.636-.639c0-.352.292-.638.636-.638h5.682a.635.635 0 0 1 .629.733M5.546 6.154c0-.353.292-.64.636-.64h5.682a.637.637 0 0 1 .449 1.09.64.64 0 0 1-.449.188H6.182a.636.636 0 0 1-.635-.639z"/><path d="m15.11 13.42 2.348-2.374a1.32 1.32 0 0 1 1.877 0 1.354 1.354 0 0 1 0 1.9l-2.346 2.372 2.346 2.374a1.354 1.354 0 0 1 0 1.898 1.316 1.316 0 0 1-1.877 0l-2.346-2.373-2.346 2.373a1.316 1.316 0 0 1-1.877 0 1.354 1.354 0 0 1 0-1.898l2.346-2.374-2.346-2.373a1.354 1.354 0 0 1 0-1.899 1.32 1.32 0 0 1 1.877 0l2.346 2.374z" style="fill:#da2020"/></svg>