<svg viewBox="0 0 20 20" xmlns="http://www.w3.org/2000/svg"><path d="M6.182 5.514a.643.643 0 0 0-.636.64v-.001a.636.636 0 0 0 .636.639h5.682a.641.641 0 0 0 .636-.638.637.637 0 0 0-.636-.64H6.182Z"/><path d="M6.182 8.5a.642.642 0 0 0-.588.882.636.636 0 0 0 .588.395h5.682a.641.641 0 0 0 .636-.639.635.635 0 0 0-.636-.638H6.182Z"/><path d="M6.18 11.5a.64.64 0 0 0 0 1.278h3.133a.64.64 0 0 0 0-1.278H6.18Z"/><path d="m11.772 18.308.154-.23c-.195-.098-.304-.192-.328-.28-.024-.09 0-.274.076-.551.062-.166.099-.296.11-.393a2.934 2.934 0 0 0 0-.479c-.137-.41-.2-.685-.186-.83.013-.145.117-.335.313-.57l4.465-6.207c.356-.6 1.059-.56 2.11.118 1.05.68 1.443 1.272 1.177 1.772l-3.876 6.833c-.105.27-.22.444-.347.515-.128.07-.4.119-.813.139a2.954 2.954 0 0 0-.487.21c-.127.09-.244.193-.347.31-.193.174-.332.262-.416.262-.064 0-.178-.05-.346-.15l-.204.27-1.056-.739Zm-.184.274 1.039.727-.26.34h-1.496l.717-1.067Z"/><path clip-rule="evenodd" d="M3.272 1A1.28 1.28 0 0 0 2 2.28v14.439a1.276 1.276 0 0 0 1.272 1.28h6.838a2.13 2.13 0 0 1 .003-.61 4.08 4.08 0 0 1 .156-.67c.011-.029.02-.052.025-.069v-.008a7.395 7.395 0 0 1-.042-.142H3.5V2.46s11 .002 11 .005v6.341l.627-.872c.204-.32.49-.614.873-.819V2.281c0-.707-.569-1.28-1.272-1.28L3.272 1ZM16 9.29l-1.5 2.085V16.5h-2.708c.005.118.002.236-.007.354a.904.904 0 0 1-.013.075l-.001.005a3.108 3.108 0 0 1-.097.312c-.027.101-.048.19-.062.266a.734.734 0 0 0-.014.287.25.25 0 0 0 .068.105.65.65 0 0 0 .088.074l.017.011.016.01h.175L14.73 18c.697 0 1.271-.573 1.271-1.281v-7.43Z"/></svg>