<svg xmlns="http://www.w3.org/2000/svg" viewBox="0 0 20 20"><path d="m11.077 15 .991-1.416a.75.75 0 1 1 1.229.86l-1.148 1.64a.8.8 0 0 1-.217.206 5.251 5.251 0 0 1-8.503-5.955.7.7 0 0 1 .12-.274l1.147-1.639a.75.75 0 1 1 1.228.86L4.933 10.7l.006.003a3.75 3.75 0 0 0 6.132 4.294zm5.494-5.335a.8.8 0 0 1-.12.274l-1.147 1.639a.75.75 0 1 1-1.228-.86l.86-1.23a3.75 3.75 0 0 0-6.144-4.301l-.86 1.229a.75.75 0 0 1-1.229-.86l1.148-1.64a.8.8 0 0 1 .217-.206 5.251 5.251 0 0 1 8.503 5.955m-4.563-2.532a.75.75 0 0 1 .184 1.045l-3.155 4.505a.75.75 0 1 1-1.229-.86l3.155-4.506a.75.75 0 0 1 1.045-.184m4.919 10.562-1.414 1.414a.75.75 0 1 1-1.06-1.06l1.414-1.415-1.415-1.414a.75.75 0 0 1 1.061-1.06l1.414 1.414 1.414-1.415a.75.75 0 0 1 1.061 1.061l-1.414 1.414 1.414 1.415a.75.75 0 0 1-1.06 1.06z"/></svg>