<svg xmlns="http://www.w3.org/2000/svg" viewBox="0 0 20 20"><path d="M12.748 2a4.62 4.62 0 0 0-3.174 1.362L8.02 4.915a.783.783 0 0 0 .002 1.11.786.786 0 0 0 1.11 0l1.55-1.553c1.185-1.185 3.024-1.195 4.116-.104l.851.854c1.092 1.091 1.083 2.927-.101 4.11l-1.555 1.554a.787.787 0 0 0 .557 1.34.78.78 0 0 0 .553-.23l1.554-1.552c1.758-1.757 1.838-4.597.102-6.332l-.854-.853A4.3 4.3 0 0 0 12.748 2m-.488 4.973a.78.78 0 0 0-.553.23L7.2 11.71l-.004.002a.784.784 0 0 0 1.11 1.107l.003-.002 4.504-4.505a.785.785 0 0 0-.554-1.339Zm-6.79.815a.8.8 0 0 0-.554.234L3.36 9.573c-1.757 1.758-1.836 4.597-.101 6.332l.853.852c1.736 1.734 4.572 1.655 6.33-.102l1.547-1.547.006-.008a.78.78 0 0 0 .244-.554.78.78 0 0 0-.799-.797.77.77 0 0 0-.56.248l-1.545 1.547c-1.184 1.184-3.021 1.195-4.113.104l-.854-.854c-1.091-1.091-1.083-2.927.102-4.111l1.552-1.555a.8.8 0 0 0 .233-.555.8.8 0 0 0-.06-.3.8.8 0 0 0-.173-.253s-.104-.14-.183-.185c-.051-.03-.133-.047-.37-.047Z"/></svg>