<svg viewBox="0 0 20 20" xmlns="http://www.w3.org/2000/svg"><path d="M1.201 1C.538 1 0 1.47 0 2.1v14.363c0 .64.534 1.037 1.186 1.037H5.06l5.058-5.078L6.617 9.15a.696.696 0 0 0-.957-.033L1.5 13.6V2.5h15v4.354a3.478 3.478 0 0 1 1.5.049V2.1c0-.63-.547-1.1-1.2-1.1H1.202Zm11.713 2.803a2.147 2.147 0 0 0-2.049 1.992 2.14 2.14 0 0 0 1.28 2.096 2.13 2.13 0 0 0 2.642-3.11 2.129 2.129 0 0 0-1.873-.978ZM8.089 17.635v2.388h2.389l7.046-7.046-2.39-2.39-7.045 7.048Zm11.282-6.507a.637.637 0 0 0 .139-.692.603.603 0 0 0-.139-.205l-1.49-1.488a.63.63 0 0 0-.899 0l-1.166 1.163 2.39 2.39 1.165-1.168Z"/></svg>