<svg viewBox="0 0 21 21" xmlns="http://www.w3.org/2000/svg"><g clip-path="url(#clip0_146_268)"><path d="M1.801 1.4C1.138 1.4.6 1.87.6 2.5v14.363c0 .64.534 1.037 1.186 1.037h9.494a2.97 2.97 0 0 1-.414-.287A2.998 2.998 0 0 1 9.81 15.59v-.007a3.003 3.003 0 0 1 .693-2.186l.383-.455-.02.018-3.65-3.41a.695.695 0 0 0-.957-.034L2.1 14V2.9h15v5.535a2.97 2.97 0 0 1 1.412.932l.088.105V2.5c0-.63-.547-1.1-1.2-1.1H1.802Zm11.713 2.803a2.146 2.146 0 0 0-2.049 1.992 2.14 2.14 0 0 0 1.28 2.096 2.13 2.13 0 0 0 2.644-3.11 2.134 2.134 0 0 0-1.875-.978Z"/><path d="M16.122 19.5a.79.79 0 0 0 .79-.79v-5.373l2.059 2.455a.79.79 0 0 0 1.211-1.015l-3.351-3.995a.79.79 0 0 0-.996-.179.786.786 0 0 0-.299.221l-3.35 3.99a.79.79 0 1 0 1.21 1.017l1.936-2.306v5.185c0 .436.353.79.79.79Z"/><path d="M16.122 19.5a.79.79 0 0 0 .79-.79v-5.373l2.059 2.455a.79.79 0 0 0 1.211-1.015l-3.351-3.995a.79.79 0 0 0-.996-.179.786.786 0 0 0-.299.221l-3.35 3.99a.79.79 0 1 0 1.21 1.017l1.936-2.306v5.185c0 .436.353.79.79.79Z"/></g><defs><clipPath id="clip0_146_268"><rect width="20" height="20" transform="translate(0.599976 0.399963)"/></clipPath></defs></svg>