<svg xmlns="http://www.w3.org/2000/svg" viewBox="0 0 15 15"><path fill-rule="evenodd" d="M14.28 7.3a7 7 0 1 1-14 0 7 7 0 0 1 14 0m-6.763 5.945a6 6 0 0 1-.474 0C6.457 12.324 6 11.194 5.73 9.925h3.1c-.269 1.268-.726 2.399-1.313 3.32m1.27-.187c.47-.93.829-1.988 1.048-3.133h2.786a5.96 5.96 0 0 1-3.834 3.132m4.233-4.183a5.96 5.96 0 0 0 0-3.15H9.993a14.2 14.2 0 0 1 0 3.15zm-.399-4.2a5.96 5.96 0 0 0-3.834-3.132c.47.929.829 1.987 1.048 3.132zm-5.104-3.32c.587.921 1.044 2.052 1.314 3.32H5.73c.27-1.268.727-2.399 1.313-3.32a6 6 0 0 1 .474 0m-1.744.188c-.47.929-.828 1.987-1.048 3.132H1.94a5.96 5.96 0 0 1 3.834-3.132M1.541 5.725a6 6 0 0 0-.21 1.575c0 .545.073 1.073.21 1.575h3.026a14.2 14.2 0 0 1 0-3.15zm.398 4.2a5.96 5.96 0 0 0 3.834 3.132 12 12 0 0 1-1.048-3.132zm7.067-1.05H5.555a13 13 0 0 1 0-3.15h3.45a13 13 0 0 1 0 3.15" clip-rule="evenodd"/></svg>