<svg xmlns="http://www.w3.org/2000/svg" viewBox="0 0 17 17"><path fill-rule="evenodd" d="M16.42 8.48a8 8 0 1 1-16 0 8 8 0 0 1 16 0m-7.73 6.795a7 7 0 0 1-.54 0c-.671-1.053-1.194-2.345-1.502-3.795h3.544c-.308 1.45-.831 2.742-1.501 3.795m1.452-.215a13.6 13.6 0 0 0 1.198-3.58h3.184a6.82 6.82 0 0 1-4.382 3.58m4.837-4.78c.157-.573.24-1.177.24-1.8s-.083-1.227-.24-1.8h-3.458a16.3 16.3 0 0 1 0 3.6zm-.455-4.8a6.82 6.82 0 0 0-4.382-3.58 13.6 13.6 0 0 1 1.198 3.58zM8.691 1.685c.67 1.053 1.193 2.345 1.5 3.795H6.649c.308-1.45.831-2.742 1.501-3.795a7 7 0 0 1 .542 0M6.698 1.9A13.6 13.6 0 0 0 5.5 5.48H2.316A6.82 6.82 0 0 1 6.698 1.9M1.86 6.68a6.8 6.8 0 0 0-.241 1.8c0 .623.084 1.227.24 1.8h3.46a16.3 16.3 0 0 1 0-3.6zm.455 4.8a6.82 6.82 0 0 0 4.382 3.58A13.6 13.6 0 0 1 5.5 11.48zm8.076-1.2H6.448a14.8 14.8 0 0 1 0-3.6h3.944a14.8 14.8 0 0 1 0 3.6" clip-rule="evenodd"/></svg>