<svg xmlns="http://www.w3.org/2000/svg" viewBox="0 0 20 20"><path fill-rule="evenodd" d="M19.04 9.733a9.333 9.333 0 1 1-18.667 0 9.333 9.333 0 0 1 18.667 0m-9.018 7.927a8 8 0 0 1-.632 0c-.78-1.228-1.39-2.735-1.75-4.427h4.133c-.359 1.69-.968 3.199-1.75 4.427m1.693-.25a16 16 0 0 0 1.397-4.177h3.715a7.95 7.95 0 0 1-5.112 4.176m5.644-5.577a7.95 7.95 0 0 0 0-4.2h-4.036a19 19 0 0 1 0 4.2zm-.532-5.6a7.95 7.95 0 0 0-5.112-4.176 15.9 15.9 0 0 1 1.397 4.176zm-6.806-4.427c.783 1.228 1.392 2.736 1.752 4.427H7.64c.36-1.69.97-3.199 1.75-4.427a8 8 0 0 1 .632 0m-2.325.25C7.07 3.296 6.593 4.706 6.3 6.233H2.587a7.95 7.95 0 0 1 5.111-4.176M2.055 7.633a8 8 0 0 0-.28 2.1c0 .727.097 1.43.28 2.1h4.034a19 19 0 0 1 0-4.2zm.53 5.6a7.95 7.95 0 0 0 5.112 4.176A16 16 0 0 1 6.3 13.233zm9.423-1.4H7.406a17.3 17.3 0 0 1 0-4.2h4.6a17.3 17.3 0 0 1 0 4.2" clip-rule="evenodd"/></svg>