<svg xmlns="http://www.w3.org/2000/svg" viewBox="0 0 20 20"><path fill-rule="evenodd" d="M20 10.001c0 5.523-4.477 10-10 10s-10-4.477-10-10 4.477-10 10-10 10 4.477 10 10m-9.662 8.493a9 9 0 0 1-.676 0c-.838-1.316-1.492-2.931-1.877-4.743h4.43c-.385 1.812-1.039 3.427-1.877 4.743m1.815-.268c.671-1.327 1.184-2.84 1.497-4.475h3.98a8.52 8.52 0 0 1-5.477 4.475m6.046-5.975a8.5 8.5 0 0 0 .301-2.25 8.5 8.5 0 0 0-.301-2.25h-4.323a20.3 20.3 0 0 1 0 4.5zm-.569-6a8.52 8.52 0 0 0-5.477-4.475c.671 1.327 1.184 2.84 1.497 4.475zm-7.292-4.743c.838 1.316 1.492 2.93 1.877 4.743h-4.43c.385-1.812 1.039-3.427 1.877-4.743a9 9 0 0 1 .676 0m-2.49.268c-.672 1.327-1.185 2.84-1.498 4.475H2.37a8.52 8.52 0 0 1 5.477-4.475M1.8 7.751a8.5 8.5 0 0 0-.301 2.25c0 .779.105 1.533.301 2.25h4.323a20.3 20.3 0 0 1 0-4.5zm.569 6a8.52 8.52 0 0 0 5.477 4.475c-.671-1.327-1.184-2.84-1.497-4.475zm10.095-1.5h-4.93a18.5 18.5 0 0 1 0-4.5h4.93a18.5 18.5 0 0 1 0 4.5" clip-rule="evenodd"/></svg>