<svg width="20" height="20" viewBox="0 0 20 20" fill="none" xmlns="http://www.w3.org/2000/svg">
<path fill-rule="evenodd" clip-rule="evenodd" d="M6 3C3.79086 3 2 4.79086 2 7V13C2 15.2091 3.79086 17 6 17H14C16.2091 17 18 15.2091 18 13V7C18 4.79086 16.2091 3 14 3H6ZM7.76822 6.35987C7.49869 6.03643 7.05545 5.91645 6.65957 6.05978C6.2637 6.20311 6 6.57903 6 7.00005V13.0001C6 13.5523 6.44772 14.0001 7 14.0001C7.55228 14.0001 8 13.5523 8 13.0001V9.7621L9.23178 11.2402C9.42177 11.4682 9.70322 11.6001 10 11.6001C10.2968 11.6001 10.5782 11.4682 10.7682 11.2402L12 9.7621V13.0001C12 13.5523 12.4477 14.0001 13 14.0001C13.5523 14.0001 14 13.5523 14 13.0001V7.00005C14 6.57903 13.7363 6.20311 13.3404 6.05978C12.9446 5.91645 12.5013 6.03643 12.2318 6.35987L10 9.038L7.76822 6.35987Z"/>
</svg>
