<svg width="16" height="11" viewBox="0 0 16 11" fill="none" xmlns="http://www.w3.org/2000/svg">
<path fill-rule="evenodd" clip-rule="evenodd" d="M14.1538 5.58979H12.6153V2.9744H11.0769V5.58979H9.53839L11.8461 8.2821L14.1538 5.58979ZM3.84617 8.20518V5.20517L5.38463 7.12825L6.92309 5.20517V8.20518H8.46155V2.9744H6.92309L5.38463 4.89748L3.84617 2.9744H2.30771V8.20518H3.84617ZM14.8462 10.5128H1.15385C0.517615 10.5128 0 9.99523 0 9.359V1.82053C0 1.1843 0.517615 0.666687 1.15385 0.666687H14.8462C15.4824 0.666687 16 1.1843 16 1.82053V9.359C16 9.99523 15.4824 10.5128 14.8462 10.5128Z"/>
</svg>
