<svg viewBox="0 0 20 20" xmlns="http://www.w3.org/2000/svg"><path d="m6.395 9.196 2.545-.007V6.498a.598.598 0 0 1 .598-.598h.299a.598.598 0 0 1 .598.598v6.877a.598.598 0 0 1-.598.598h-.299a.598.598 0 0 1-.598-.598v-2.691l-2.545.007v2.691a.598.598 0 0 1-.598.598h-.299a.598.598 0 0 1-.598-.598V6.505a.598.598 0 0 1 .598-.598h.299a.598.598 0 0 1 .598.598v2.691Z"/><path d="M15.094 13.417V6.462a.562.562 0 0 0-.562-.562h-.782a1 1 0 0 0-.39.08l-1.017.43a.562.562 0 0 0-.343.517v.197c0 .4.406.67.775.519l.819-.337v6.111c0 .31.251.562.561.562h.377c.31 0 .562-.251.562-.562Z"/><path d="M0 15.417v1.5h1.5v-1.5H0Z"/><path d="M18.5 15.417v1.5H20v-1.5h-1.5Z"/><path d="M18.5 12.333v1.5H20v-1.5h-1.5Z"/><path d="M18.5 9.25v1.5H20v-1.5h-1.5Z"/><path d="M18.5 6.167v1.5H20v-1.5h-1.5Z"/><path d="M0 18.5v.5a1 1 0 0 0 1 1h.5v-1.5H0Z"/><path d="M3.083 18.5V20h1.5v-1.5h-1.5Z"/><path d="M6.167 18.5V20h1.5v-1.5h-1.5Z"/><path d="M9.25 18.5V20h1.5v-1.5h-1.5Z"/><path d="M12.333 18.5V20h1.5v-1.5h-1.5Z"/><path d="M15.417 18.5V20h1.5v-1.5h-1.5Z"/><path d="M18.5 18.5V20h.5a1 1 0 0 0 1-1v-.5h-1.5Z"/><path clip-rule="evenodd" d="M0 1a1 1 0 0 1 1-1h18a1 1 0 0 1 1 1v3.583h-1.5V1.5h-17v12.333H0V1Z"/></svg>