<svg width="20" height="20" viewBox="0 0 20 20" fill="none" xmlns="http://www.w3.org/2000/svg">
<path d="M10.4395 2.93633L12.3604 7.75372C11.702 8.01315 11.1375 8.50299 10.7958 9.16314L9.00288 4.66667L6.47757 11H10.1005L9.37226 13H5.6801L3.92869 17.3924C3.78297 17.7579 3.4115 18 2.99649 18C2.30136 18 1.82022 17.347 2.06429 16.7349L7.56625 2.93633C7.79082 2.37312 8.36331 2 9.00288 2C9.64246 2 10.2149 2.37312 10.4395 2.93633Z"/>
<path fill-rule="evenodd" clip-rule="evenodd" d="M11.2376 10.8008C11.8045 9.24383 13.5268 8.44107 15.0844 9.00775L16.0244 9.34977C17.582 9.91645 18.3851 11.638 17.8182 13.1949L16.7917 16.014C16.2248 17.5709 14.5026 18.3737 12.945 17.807L12.0049 17.465C10.4473 16.8983 9.64424 15.1768 10.2111 13.6198L11.2376 10.8008ZM14.4 10.8871C13.8808 10.6982 13.3068 10.9658 13.1178 11.4848L12.7756 12.4245L15.5959 13.4506L15.938 12.5109C16.127 11.9919 15.8593 11.418 15.3401 11.2292L14.4 10.8871ZM12.6892 15.5856C12.17 15.3967 11.9023 14.8229 12.0913 14.3039L14.9115 15.3299C14.7226 15.8489 14.1485 16.1165 13.6293 15.9276L12.6892 15.5856Z"/>
</svg>
