<svg width="16" height="16" viewBox="0 0 16 16" fill="none" xmlns="http://www.w3.org/2000/svg">
<path fill-rule="evenodd" clip-rule="evenodd" d="M7.46511 2.66247C7.10374 1.77918 5.85282 1.77917 5.49145 2.66247L2.0478 11.0798C1.91402 11.4068 2.07067 11.7803 2.39768 11.914C2.72468 12.0478 3.09822 11.8912 3.232 11.5642L4.57952 8.27043H8.37703L8.63378 8.89801C8.66141 8.96554 8.72166 9.01426 8.79349 9.02715C8.86532 9.04004 8.93875 9.0153 8.98814 8.96158L9.62592 8.26787C9.68186 8.20703 9.6976 8.11933 9.6663 8.04283L7.46511 2.66247ZM6.47828 3.62931L7.85362 6.99105H5.10294L6.47828 3.62931ZM9.76332 14.0601L8.45772 12.8521C8.11196 12.5322 8.09102 11.9926 8.41096 11.6468L8.98971 11.0214L11.4426 13.4741C11.4469 13.4785 11.4514 13.4827 11.4559 13.4869L10.9687 14.0134C10.6488 14.3591 10.1091 14.38 9.76332 14.0601ZM12.0354 12.8606L13.9202 10.8238C14.2401 10.4781 14.2192 9.93846 13.8734 9.61853L12.5678 8.41053C12.222 8.0906 11.6824 8.11154 11.3624 8.45729L9.56945 10.3949L12.0354 12.8606ZM11.5948 14.5926C10.9549 15.2841 9.87555 15.326 9.18401 14.6861L7.87842 13.4781C7.18688 12.8383 7.145 11.759 7.78489 11.0675L10.7363 7.87802C11.3762 7.18652 12.4556 7.14465 13.1471 7.78449L14.4527 8.9925C15.1442 9.63235 15.1861 10.7116 14.5462 11.4031L11.5948 14.5926Z" fill="#696F7A"/>
</svg>