<?xml version="1.0" encoding="UTF-8"?>
<svg width="266px" height="379px" viewBox="0 0 266 379" version="1.1" xmlns="http://www.w3.org/2000/svg" xmlns:xlink="http://www.w3.org/1999/xlink">
    <title>editor-initalization</title>
    <defs>
        <rect id="path-1" x="0" y="0" width="202" height="57" rx="5"></rect>
        <filter x="-1.0%" y="-3.5%" width="104.0%" height="114.0%" filterUnits="objectBoundingBox" id="filter-2">
            <feOffset dx="4" dy="4" in="SourceAlpha" result="shadowOffsetOuter1"></feOffset>
            <feComposite in="shadowOffsetOuter1" in2="SourceAlpha" operator="out" result="shadowOffsetOuter1"></feComposite>
            <feColorMatrix values="0 0 0 0 0.947998489   0 0 0 0 0.934415808   0 0 0 0 0.911066086  0 0 0 1 0" type="matrix" in="shadowOffsetOuter1"></feColorMatrix>
        </filter>
        <rect id="path-3" x="0" y="0" width="202" height="57" rx="5"></rect>
        <filter x="-1.0%" y="-3.5%" width="104.0%" height="114.0%" filterUnits="objectBoundingBox" id="filter-4">
            <feOffset dx="4" dy="4" in="SourceAlpha" result="shadowOffsetOuter1"></feOffset>
            <feComposite in="shadowOffsetOuter1" in2="SourceAlpha" operator="out" result="shadowOffsetOuter1"></feComposite>
            <feColorMatrix values="0 0 0 0 0.947998489   0 0 0 0 0.934415808   0 0 0 0 0.911066086  0 0 0 1 0" type="matrix" in="shadowOffsetOuter1"></feColorMatrix>
        </filter>
        <rect id="path-5" x="0" y="0" width="134" height="57" rx="5"></rect>
        <filter x="-1.5%" y="-3.5%" width="106.0%" height="114.0%" filterUnits="objectBoundingBox" id="filter-6">
            <feOffset dx="4" dy="4" in="SourceAlpha" result="shadowOffsetOuter1"></feOffset>
            <feComposite in="shadowOffsetOuter1" in2="SourceAlpha" operator="out" result="shadowOffsetOuter1"></feComposite>
            <feColorMatrix values="0 0 0 0 0.947998489   0 0 0 0 0.934415808   0 0 0 0 0.911066086  0 0 0 1 0" type="matrix" in="shadowOffsetOuter1"></feColorMatrix>
        </filter>
        <rect id="path-7" x="0" y="0" width="134" height="57" rx="5"></rect>
        <filter x="-1.5%" y="-3.5%" width="106.0%" height="114.0%" filterUnits="objectBoundingBox" id="filter-8">
            <feOffset dx="4" dy="4" in="SourceAlpha" result="shadowOffsetOuter1"></feOffset>
            <feComposite in="shadowOffsetOuter1" in2="SourceAlpha" operator="out" result="shadowOffsetOuter1"></feComposite>
            <feColorMatrix values="0 0 0 0 0.947998489   0 0 0 0 0.911066086   0 0 0 0 0.942601206  0 0 0 1 0" type="matrix" in="shadowOffsetOuter1"></feColorMatrix>
        </filter>
    </defs>
    <g id="editor-initalization" stroke="none" stroke-width="1" fill="none" fill-rule="evenodd">
        <g id="Group-4" transform="translate(32.000000, 19.000000)">
            <g id="Rectangle-Copy">
                <use fill="black" fill-opacity="1" filter="url(#filter-2)" xlink:href="#path-1"></use>
                <rect stroke="#363636" stroke-width="2" stroke-linejoin="square" fill="#FFFFFF" fill-rule="evenodd" x="1" y="1" width="200" height="55" rx="5"></rect>
            </g>
            <g id="Rectangle-Copy">
                <use fill="black" fill-opacity="1" filter="url(#filter-4)" xlink:href="#path-3"></use>
                <rect stroke="#363636" stroke-width="2" stroke-linejoin="square" fill="#FFFFFF" fill-rule="evenodd" x="1" y="1" width="200" height="55" rx="5"></rect>
            </g>
            <g id="Initial-data-(HTML," transform="translate(18.048000, 12.448000)" fill="#171717" fill-rule="nonzero">
                <polygon id="Path" points="45.84 11.552 45.84 1.12 48.192 1.12 48.192 11.552"></polygon>
                <path d="M50.464,11.552 L50.464,3.616 L52.384,3.616 L52.544,4.624 L52.608,4.624 C52.9493333,4.304 53.3226667,4.024 53.728,3.784 C54.1333333,3.544 54.608,3.424 55.152,3.424 C56.016,3.424 56.6426667,3.70666667 57.032,4.272 C57.4213333,4.83733333 57.616,5.62133333 57.616,6.624 L57.616,11.552 L55.264,11.552 L55.264,6.928 C55.264,6.352 55.1866667,5.95733333 55.032,5.744 C54.8773333,5.53066667 54.6293333,5.424 54.288,5.424 C53.9893333,5.424 53.7333333,5.49066667 53.52,5.624 C53.3066667,5.75733333 53.072,5.94666667 52.816,6.192 L52.816,11.552 L50.464,11.552 Z" id="Path"></path>
                <path d="M59.616,11.552 L59.616,3.616 L61.968,3.616 L61.968,11.552 L59.616,11.552 Z M60.784,2.448 C60.3893333,2.448 60.064,2.33333333 59.808,2.104 C59.552,1.87466667 59.424,1.57866667 59.424,1.216 C59.424,0.853333333 59.552,0.56 59.808,0.336 C60.064,0.112 60.3893333,0 60.784,0 C61.1893333,0 61.5173333,0.112 61.768,0.336 C62.0186667,0.56 62.144,0.853333333 62.144,1.216 C62.144,1.57866667 62.0186667,1.87466667 61.768,2.104 C61.5173333,2.33333333 61.1893333,2.448 60.784,2.448 Z" id="Shape"></path>
                <path d="M67.088,11.744 C66.5973333,11.744 66.1786667,11.6693333 65.832,11.52 C65.4853333,11.3706667 65.2026667,11.1626667 64.984,10.896 C64.7653333,10.6293333 64.6053333,10.3066667 64.504,9.928 C64.4026667,9.54933333 64.352,9.13066667 64.352,8.672 L64.352,5.456 L63.264,5.456 L63.264,3.712 L64.48,3.616 L64.752,1.504 L66.704,1.504 L66.704,3.616 L68.608,3.616 L68.608,5.456 L66.704,5.456 L66.704,8.64 C66.704,9.088 66.7973333,9.41066667 66.984,9.608 C67.1706667,9.80533333 67.4186667,9.904 67.728,9.904 C67.856,9.904 67.9866667,9.888 68.12,9.856 C68.2533333,9.824 68.3733333,9.78666667 68.48,9.744 L68.848,11.456 C68.6346667,11.52 68.384,11.584 68.096,11.648 C67.808,11.712 67.472,11.744 67.088,11.744 Z" id="Path"></path>
                <path d="M70.16,11.552 L70.16,3.616 L72.512,3.616 L72.512,11.552 L70.16,11.552 Z M71.328,2.448 C70.9333333,2.448 70.608,2.33333333 70.352,2.104 C70.096,1.87466667 69.968,1.57866667 69.968,1.216 C69.968,0.853333333 70.096,0.56 70.352,0.336 C70.608,0.112 70.9333333,0 71.328,0 C71.7333333,0 72.0613333,0.112 72.312,0.336 C72.5626667,0.56 72.688,0.853333333 72.688,1.216 C72.688,1.57866667 72.5626667,1.87466667 72.312,2.104 C72.0613333,2.33333333 71.7333333,2.448 71.328,2.448 Z" id="Shape"></path>
                <path d="M76.576,11.744 C76.2133333,11.744 75.8853333,11.6826667 75.592,11.56 C75.2986667,11.4373333 75.0506667,11.2666667 74.848,11.048 C74.6453333,10.8293333 74.488,10.576 74.376,10.288 C74.264,10 74.208,9.68533333 74.208,9.344 C74.208,8.512 74.56,7.86133333 75.264,7.392 C75.968,6.92266667 77.104,6.608 78.672,6.448 C78.6506667,6.096 78.5466667,5.816 78.36,5.608 C78.1733333,5.4 77.8613333,5.296 77.424,5.296 C77.0826667,5.296 76.744,5.36 76.408,5.488 C76.072,5.616 75.712,5.792 75.328,6.016 L74.48,4.464 C74.992,4.15466667 75.528,3.904 76.088,3.712 C76.648,3.52 77.2426667,3.424 77.872,3.424 C78.896,3.424 79.6773333,3.71466667 80.216,4.296 C80.7546667,4.87733333 81.024,5.78133333 81.024,7.008 L81.024,11.552 L79.104,11.552 L78.944,10.736 L78.88,10.736 C78.5386667,11.0346667 78.1813333,11.2773333 77.808,11.464 C77.4346667,11.6506667 77.024,11.744 76.576,11.744 Z M77.376,9.92 C77.6426667,9.92 77.872,9.86133333 78.064,9.744 C78.256,9.62666667 78.4586667,9.46133333 78.672,9.248 L78.672,7.856 C77.84,7.97333333 77.264,8.144 76.944,8.368 C76.624,8.592 76.464,8.85866667 76.464,9.168 C76.464,9.424 76.5466667,9.61333333 76.712,9.736 C76.8773333,9.85866667 77.0986667,9.92 77.376,9.92 Z" id="Shape"></path>
                <path d="M85.168,11.744 C84.7626667,11.744 84.4213333,11.68 84.144,11.552 C83.8666667,11.424 83.6453333,11.2453333 83.48,11.016 C83.3146667,10.7866667 83.1946667,10.5093333 83.12,10.184 C83.0453333,9.85866667 83.008,9.49333333 83.008,9.088 L83.008,0.336 L85.36,0.336 L85.36,9.184 C85.36,9.42933333 85.4053333,9.6 85.496,9.696 C85.5866667,9.792 85.68,9.84 85.776,9.84 C85.8293333,9.84 85.8746667,9.84 85.912,9.84 C85.9493333,9.84 86,9.82933333 86.064,9.808 L86.352,11.552 C86.224,11.6053333 86.0613333,11.6506667 85.864,11.688 C85.6666667,11.7253333 85.4346667,11.744 85.168,11.744 Z" id="Path"></path>
                <path d="M93.616,11.744 C93.1253333,11.744 92.68,11.648 92.28,11.456 C91.88,11.264 91.5386667,10.9893333 91.256,10.632 C90.9733333,10.2746667 90.7546667,9.84 90.6,9.328 C90.4453333,8.816 90.368,8.23466667 90.368,7.584 C90.368,6.93333333 90.4613333,6.352 90.648,5.84 C90.8346667,5.328 91.08,4.89333333 91.384,4.536 C91.688,4.17866667 92.04,3.904 92.44,3.712 C92.84,3.52 93.248,3.424 93.664,3.424 C94.112,3.424 94.48,3.49866667 94.768,3.648 C95.056,3.79733333 95.3386667,4 95.616,4.256 L95.52,3.04 L95.52,0.336 L97.872,0.336 L97.872,11.552 L95.952,11.552 L95.792,10.768 L95.728,10.768 C95.4506667,11.0453333 95.1253333,11.2773333 94.752,11.464 C94.3786667,11.6506667 94,11.744 93.616,11.744 Z M94.224,9.824 C94.48,9.824 94.712,9.77066667 94.92,9.664 C95.128,9.55733333 95.328,9.37066667 95.52,9.104 L95.52,5.856 C95.3066667,5.664 95.088,5.53066667 94.864,5.456 C94.64,5.38133333 94.4213333,5.344 94.208,5.344 C93.8346667,5.344 93.504,5.52266667 93.216,5.88 C92.928,6.23733333 92.784,6.79466667 92.784,7.552 C92.784,8.34133333 92.9093333,8.91733333 93.16,9.28 C93.4106667,9.64266667 93.7653333,9.824 94.224,9.824 Z" id="Shape"></path>
                <path d="M101.952,11.744 C101.589333,11.744 101.261333,11.6826667 100.968,11.56 C100.674667,11.4373333 100.426667,11.2666667 100.224,11.048 C100.021333,10.8293333 99.864,10.576 99.752,10.288 C99.64,10 99.584,9.68533333 99.584,9.344 C99.584,8.512 99.936,7.86133333 100.64,7.392 C101.344,6.92266667 102.48,6.608 104.048,6.448 C104.026667,6.096 103.922667,5.816 103.736,5.608 C103.549333,5.4 103.237333,5.296 102.8,5.296 C102.458667,5.296 102.12,5.36 101.784,5.488 C101.448,5.616 101.088,5.792 100.704,6.016 L99.856,4.464 C100.368,4.15466667 100.904,3.904 101.464,3.712 C102.024,3.52 102.618667,3.424 103.248,3.424 C104.272,3.424 105.053333,3.71466667 105.592,4.296 C106.130667,4.87733333 106.4,5.78133333 106.4,7.008 L106.4,11.552 L104.48,11.552 L104.32,10.736 L104.256,10.736 C103.914667,11.0346667 103.557333,11.2773333 103.184,11.464 C102.810667,11.6506667 102.4,11.744 101.952,11.744 Z M102.752,9.92 C103.018667,9.92 103.248,9.86133333 103.44,9.744 C103.632,9.62666667 103.834667,9.46133333 104.048,9.248 L104.048,7.856 C103.216,7.97333333 102.64,8.144 102.32,8.368 C102,8.592 101.84,8.85866667 101.84,9.168 C101.84,9.424 101.922667,9.61333333 102.088,9.736 C102.253333,9.85866667 102.474667,9.92 102.752,9.92 Z" id="Shape"></path>
                <path d="M111.152,11.744 C110.661333,11.744 110.242667,11.6693333 109.896,11.52 C109.549333,11.3706667 109.266667,11.1626667 109.048,10.896 C108.829333,10.6293333 108.669333,10.3066667 108.568,9.928 C108.466667,9.54933333 108.416,9.13066667 108.416,8.672 L108.416,5.456 L107.328,5.456 L107.328,3.712 L108.544,3.616 L108.816,1.504 L110.768,1.504 L110.768,3.616 L112.672,3.616 L112.672,5.456 L110.768,5.456 L110.768,8.64 C110.768,9.088 110.861333,9.41066667 111.048,9.608 C111.234667,9.80533333 111.482667,9.904 111.792,9.904 C111.92,9.904 112.050667,9.888 112.184,9.856 C112.317333,9.824 112.437333,9.78666667 112.544,9.744 L112.912,11.456 C112.698667,11.52 112.448,11.584 112.16,11.648 C111.872,11.712 111.536,11.744 111.152,11.744 Z" id="Path"></path>
                <path d="M115.904,11.744 C115.541333,11.744 115.213333,11.6826667 114.92,11.56 C114.626667,11.4373333 114.378667,11.2666667 114.176,11.048 C113.973333,10.8293333 113.816,10.576 113.704,10.288 C113.592,10 113.536,9.68533333 113.536,9.344 C113.536,8.512 113.888,7.86133333 114.592,7.392 C115.296,6.92266667 116.432,6.608 118,6.448 C117.978667,6.096 117.874667,5.816 117.688,5.608 C117.501333,5.4 117.189333,5.296 116.752,5.296 C116.410667,5.296 116.072,5.36 115.736,5.488 C115.4,5.616 115.04,5.792 114.656,6.016 L113.808,4.464 C114.32,4.15466667 114.856,3.904 115.416,3.712 C115.976,3.52 116.570667,3.424 117.2,3.424 C118.224,3.424 119.005333,3.71466667 119.544,4.296 C120.082667,4.87733333 120.352,5.78133333 120.352,7.008 L120.352,11.552 L118.432,11.552 L118.272,10.736 L118.208,10.736 C117.866667,11.0346667 117.509333,11.2773333 117.136,11.464 C116.762667,11.6506667 116.352,11.744 115.904,11.744 Z M116.704,9.92 C116.970667,9.92 117.2,9.86133333 117.392,9.744 C117.584,9.62666667 117.786667,9.46133333 118,9.248 L118,7.856 C117.168,7.97333333 116.592,8.144 116.272,8.368 C115.952,8.592 115.792,8.85866667 115.792,9.168 C115.792,9.424 115.874667,9.61333333 116.04,9.736 C116.205333,9.85866667 116.426667,9.92 116.704,9.92 Z" id="Shape"></path>
                <path d="M2.112,34.416 C1.44,33.3173333 0.92,32.176 0.552,30.992 C0.184,29.808 0,28.512 0,27.104 C0,25.696 0.184,24.4 0.552,23.216 C0.92,22.032 1.44,20.8906667 2.112,19.792 L3.584,20.4 C2.99733333,21.4453333 2.57066667,22.5386667 2.304,23.68 C2.03733333,24.8213333 1.904,25.9626667 1.904,27.104 C1.904,28.2453333 2.03733333,29.3866667 2.304,30.528 C2.57066667,31.6693333 2.99733333,32.7626667 3.584,33.808 L2.112,34.416 Z" id="Path"></path>
                <polygon id="Path" points="5.584 31.552 5.584 21.12 7.936 21.12 7.936 25.136 11.536 25.136 11.536 21.12 13.904 21.12 13.904 31.552 11.536 31.552 11.536 27.2 7.936 27.2 7.936 31.552"></polygon>
                <polygon id="Path" points="18.4 31.552 18.4 23.104 15.536 23.104 15.536 21.12 23.632 21.12 23.632 23.104 20.768 23.104 20.768 31.552"></polygon>
                <path d="M25.264,31.552 L25.264,21.12 L27.84,21.12 L29.52,25.76 C29.6266667,26.0693333 29.728,26.3866667 29.824,26.712 C29.92,27.0373333 30.0213333,27.36 30.128,27.68 L30.192,27.68 C30.2986667,27.36 30.3973333,27.0373333 30.488,26.712 C30.5786667,26.3866667 30.6773333,26.0693333 30.784,25.76 L32.432,21.12 L34.992,21.12 L34.992,31.552 L32.848,31.552 L32.848,27.728 C32.848,27.472 32.8586667,27.1893333 32.88,26.88 C32.9013333,26.5706667 32.928,26.2586667 32.96,25.944 C32.992,25.6293333 33.024,25.32 33.056,25.016 C33.088,24.712 33.12,24.432 33.152,24.176 L33.088,24.176 L32.24,26.656 L30.752,30.64 L29.456,30.64 L27.968,26.656 L27.136,24.176 L27.072,24.176 C27.104,24.432 27.136,24.712 27.168,25.016 C27.2,25.32 27.232,25.6293333 27.264,25.944 C27.296,26.2586667 27.3226667,26.5706667 27.344,26.88 C27.3653333,27.1893333 27.376,27.472 27.376,27.728 L27.376,31.552 L25.264,31.552 Z" id="Path"></path>
                <polygon id="Path" points="37.456 31.552 37.456 21.12 39.808 21.12 39.808 29.568 43.936 29.568 43.936 31.552"></polygon>
                <path d="M45.728,34.656 L45.248,33.408 C45.8453333,33.1946667 46.2986667,32.9173333 46.608,32.576 C46.9173333,32.2346667 47.0666667,31.8613333 47.056,31.456 L46.928,31.456 C46.5546667,31.456 46.224,31.3413333 45.936,31.112 C45.648,30.8826667 45.504,30.5546667 45.504,30.128 C45.504,29.7226667 45.648,29.3973333 45.936,29.152 C46.224,28.9066667 46.5706667,28.784 46.976,28.784 C47.5093333,28.784 47.9146667,28.9786667 48.192,29.368 C48.4693333,29.7573333 48.608,30.304 48.608,31.008 C48.608,31.8933333 48.3626667,32.6533333 47.872,33.288 C47.3813333,33.9226667 46.6666667,34.3786667 45.728,34.656 Z" id="Path"></path>
                <path d="M53.744,31.552 L53.744,21.12 L56.32,21.12 L58,25.76 C58.1066667,26.0693333 58.208,26.3866667 58.304,26.712 C58.4,27.0373333 58.5013333,27.36 58.608,27.68 L58.672,27.68 C58.7786667,27.36 58.8773333,27.0373333 58.968,26.712 C59.0586667,26.3866667 59.1573333,26.0693333 59.264,25.76 L60.912,21.12 L63.472,21.12 L63.472,31.552 L61.328,31.552 L61.328,27.728 C61.328,27.472 61.3386667,27.1893333 61.36,26.88 C61.3813333,26.5706667 61.408,26.2586667 61.44,25.944 C61.472,25.6293333 61.504,25.32 61.536,25.016 C61.568,24.712 61.6,24.432 61.632,24.176 L61.568,24.176 L60.72,26.656 L59.232,30.64 L57.936,30.64 L56.448,26.656 L55.616,24.176 L55.552,24.176 C55.584,24.432 55.616,24.712 55.648,25.016 C55.68,25.32 55.712,25.6293333 55.744,25.944 C55.776,26.2586667 55.8026667,26.5706667 55.824,26.88 C55.8453333,27.1893333 55.856,27.472 55.856,27.728 L55.856,31.552 L53.744,31.552 Z" id="Path"></path>
                <path d="M67.744,31.744 C67.3813333,31.744 67.0533333,31.6826667 66.76,31.56 C66.4666667,31.4373333 66.2186667,31.2666667 66.016,31.048 C65.8133333,30.8293333 65.656,30.576 65.544,30.288 C65.432,30 65.376,29.6853333 65.376,29.344 C65.376,28.512 65.728,27.8613333 66.432,27.392 C67.136,26.9226667 68.272,26.608 69.84,26.448 C69.8186667,26.096 69.7146667,25.816 69.528,25.608 C69.3413333,25.4 69.0293333,25.296 68.592,25.296 C68.2506667,25.296 67.912,25.36 67.576,25.488 C67.24,25.616 66.88,25.792 66.496,26.016 L65.648,24.464 C66.16,24.1546667 66.696,23.904 67.256,23.712 C67.816,23.52 68.4106667,23.424 69.04,23.424 C70.064,23.424 70.8453333,23.7146667 71.384,24.296 C71.9226667,24.8773333 72.192,25.7813333 72.192,27.008 L72.192,31.552 L70.272,31.552 L70.112,30.736 L70.048,30.736 C69.7066667,31.0346667 69.3493333,31.2773333 68.976,31.464 C68.6026667,31.6506667 68.192,31.744 67.744,31.744 Z M68.544,29.92 C68.8106667,29.92 69.04,29.8613333 69.232,29.744 C69.424,29.6266667 69.6266667,29.4613333 69.84,29.248 L69.84,27.856 C69.008,27.9733333 68.432,28.144 68.112,28.368 C67.792,28.592 67.632,28.8586667 67.632,29.168 C67.632,29.424 67.7146667,29.6133333 67.88,29.736 C68.0453333,29.8586667 68.2666667,29.92 68.544,29.92 Z" id="Shape"></path>
                <path d="M74.176,31.552 L74.176,23.616 L76.096,23.616 L76.256,25.008 L76.32,25.008 C76.608,24.464 76.9546667,24.064 77.36,23.808 C77.7653333,23.552 78.1706667,23.424 78.576,23.424 C78.8,23.424 78.984,23.4373333 79.128,23.464 C79.272,23.4906667 79.4026667,23.5306667 79.52,23.584 L79.136,25.616 C78.9866667,25.5733333 78.848,25.5413333 78.72,25.52 C78.592,25.4986667 78.4426667,25.488 78.272,25.488 C77.9733333,25.488 77.6613333,25.5946667 77.336,25.808 C77.0106667,26.0213333 76.7413333,26.4 76.528,26.944 L76.528,31.552 L74.176,31.552 Z" id="Path"></path>
                <polygon id="Path" points="80.544 31.552 80.544 20.336 82.832 20.336 82.832 26.768 82.896 26.768 85.408 23.616 87.968 23.616 85.184 26.88 88.176 31.552 85.632 31.552 83.84 28.464 82.832 29.6 82.832 31.552"></polygon>
                <path d="M91.696,31.744 C91.2053333,31.744 90.76,31.648 90.36,31.456 C89.96,31.264 89.6186667,30.9893333 89.336,30.632 C89.0533333,30.2746667 88.8346667,29.84 88.68,29.328 C88.5253333,28.816 88.448,28.2346667 88.448,27.584 C88.448,26.9333333 88.5413333,26.352 88.728,25.84 C88.9146667,25.328 89.16,24.8933333 89.464,24.536 C89.768,24.1786667 90.12,23.904 90.52,23.712 C90.92,23.52 91.328,23.424 91.744,23.424 C92.192,23.424 92.56,23.4986667 92.848,23.648 C93.136,23.7973333 93.4186667,24 93.696,24.256 L93.6,23.04 L93.6,20.336 L95.952,20.336 L95.952,31.552 L94.032,31.552 L93.872,30.768 L93.808,30.768 C93.5306667,31.0453333 93.2053333,31.2773333 92.832,31.464 C92.4586667,31.6506667 92.08,31.744 91.696,31.744 Z M92.304,29.824 C92.56,29.824 92.792,29.7706667 93,29.664 C93.208,29.5573333 93.408,29.3706667 93.6,29.104 L93.6,25.856 C93.3866667,25.664 93.168,25.5306667 92.944,25.456 C92.72,25.3813333 92.5013333,25.344 92.288,25.344 C91.9146667,25.344 91.584,25.5226667 91.296,25.88 C91.008,26.2373333 90.864,26.7946667 90.864,27.552 C90.864,28.3413333 90.9893333,28.9173333 91.24,29.28 C91.4906667,29.6426667 91.8453333,29.824 92.304,29.824 Z" id="Shape"></path>
                <path d="M101.44,31.744 C100.938667,31.744 100.453333,31.6506667 99.984,31.464 C99.5146667,31.2773333 99.1013333,31.008 98.744,30.656 C98.3866667,30.304 98.1013333,29.8693333 97.888,29.352 C97.6746667,28.8346667 97.568,28.2453333 97.568,27.584 C97.568,26.9226667 97.6746667,26.3333333 97.888,25.816 C98.1013333,25.2986667 98.3866667,24.864 98.744,24.512 C99.1013333,24.16 99.5146667,23.8906667 99.984,23.704 C100.453333,23.5173333 100.938667,23.424 101.44,23.424 C101.941333,23.424 102.424,23.5173333 102.888,23.704 C103.352,23.8906667 103.762667,24.16 104.12,24.512 C104.477333,24.864 104.762667,25.2986667 104.976,25.816 C105.189333,26.3333333 105.296,26.9226667 105.296,27.584 C105.296,28.2453333 105.189333,28.8346667 104.976,29.352 C104.762667,29.8693333 104.477333,30.304 104.12,30.656 C103.762667,31.008 103.352,31.2773333 102.888,31.464 C102.424,31.6506667 101.941333,31.744 101.44,31.744 Z M101.44,29.84 C101.92,29.84 102.282667,29.6373333 102.528,29.232 C102.773333,28.8266667 102.896,28.2773333 102.896,27.584 C102.896,26.8906667 102.773333,26.3413333 102.528,25.936 C102.282667,25.5306667 101.92,25.328 101.44,25.328 C100.949333,25.328 100.584,25.5306667 100.344,25.936 C100.104,26.3413333 99.984,26.8906667 99.984,27.584 C99.984,28.2773333 100.104,28.8266667 100.344,29.232 C100.584,29.6373333 100.949333,29.84 101.44,29.84 Z" id="Shape"></path>
                <path d="M108.112,31.552 L106.128,23.616 L108.464,23.616 L109.232,27.296 C109.296,27.6906667 109.354667,28.08 109.408,28.464 C109.461333,28.848 109.52,29.2426667 109.584,29.648 L109.648,29.648 C109.722667,29.2426667 109.794667,28.8426667 109.864,28.448 C109.933333,28.0533333 110.016,27.6693333 110.112,27.296 L110.992,23.616 L113.024,23.616 L113.92,27.296 C114.016,27.6906667 114.101333,28.08 114.176,28.464 C114.250667,28.848 114.330667,29.2426667 114.416,29.648 L114.48,29.648 C114.554667,29.2426667 114.616,28.848 114.664,28.464 C114.712,28.08 114.773333,27.6906667 114.848,27.296 L115.6,23.616 L117.776,23.616 L115.872,31.552 L113.12,31.552 L112.4,28.384 C112.314667,28.0106667 112.24,27.6373333 112.176,27.264 C112.112,26.8906667 112.042667,26.4906667 111.968,26.064 L111.904,26.064 C111.829333,26.4906667 111.762667,26.8906667 111.704,27.264 C111.645333,27.6373333 111.578667,28.0106667 111.504,28.384 L110.8,31.552 L108.112,31.552 Z" id="Path"></path>
                <path d="M119.2,31.552 L119.2,23.616 L121.12,23.616 L121.28,24.624 L121.344,24.624 C121.685333,24.304 122.058667,24.024 122.464,23.784 C122.869333,23.544 123.344,23.424 123.888,23.424 C124.752,23.424 125.378667,23.7066667 125.768,24.272 C126.157333,24.8373333 126.352,25.6213333 126.352,26.624 L126.352,31.552 L124,31.552 L124,26.928 C124,26.352 123.922667,25.9573333 123.768,25.744 C123.613333,25.5306667 123.365333,25.424 123.024,25.424 C122.725333,25.424 122.469333,25.4906667 122.256,25.624 C122.042667,25.7573333 121.808,25.9466667 121.552,26.192 L121.552,31.552 L119.2,31.552 Z" id="Path"></path>
                <path d="M128.528,34.656 L128.048,33.408 C128.645333,33.1946667 129.098667,32.9173333 129.408,32.576 C129.717333,32.2346667 129.866667,31.8613333 129.856,31.456 L129.728,31.456 C129.354667,31.456 129.024,31.3413333 128.736,31.112 C128.448,30.8826667 128.304,30.5546667 128.304,30.128 C128.304,29.7226667 128.448,29.3973333 128.736,29.152 C129.024,28.9066667 129.370667,28.784 129.776,28.784 C130.309333,28.784 130.714667,28.9786667 130.992,29.368 C131.269333,29.7573333 131.408,30.304 131.408,31.008 C131.408,31.8933333 131.162667,32.6533333 130.672,33.288 C130.181333,33.9226667 129.466667,34.3786667 128.528,34.656 Z" id="Path"></path>
                <path d="M139.904,31.744 C139.338667,31.744 138.810667,31.6506667 138.32,31.464 C137.829333,31.2773333 137.402667,31.0053333 137.04,30.648 C136.677333,30.2906667 136.394667,29.856 136.192,29.344 C135.989333,28.832 135.888,28.2453333 135.888,27.584 C135.888,26.944 135.994667,26.3653333 136.208,25.848 C136.421333,25.3306667 136.701333,24.8933333 137.048,24.536 C137.394667,24.1786667 137.792,23.904 138.24,23.712 C138.688,23.52 139.152,23.424 139.632,23.424 C140.197333,23.424 140.690667,23.52 141.112,23.712 C141.533333,23.904 141.885333,24.1706667 142.168,24.512 C142.450667,24.8533333 142.661333,25.256 142.8,25.72 C142.938667,26.184 143.008,26.688 143.008,27.232 C143.008,27.4453333 142.997333,27.648 142.976,27.84 C142.954667,28.032 142.933333,28.176 142.912,28.272 L138.16,28.272 C138.266667,28.848 138.504,29.272 138.872,29.544 C139.24,29.816 139.690667,29.952 140.224,29.952 C140.789333,29.952 141.36,29.776 141.936,29.424 L142.72,30.848 C142.314667,31.1253333 141.864,31.344 141.368,31.504 C140.872,31.664 140.384,31.744 139.904,31.744 Z M138.144,26.72 L141.008,26.72 C141.008,26.272 140.906667,25.9093333 140.704,25.632 C140.501333,25.3546667 140.16,25.216 139.68,25.216 C139.306667,25.216 138.978667,25.3386667 138.696,25.584 C138.413333,25.8293333 138.229333,26.208 138.144,26.72 Z" id="Shape"></path>
                <path d="M147.536,31.744 C147.045333,31.744 146.626667,31.6693333 146.28,31.52 C145.933333,31.3706667 145.650667,31.1626667 145.432,30.896 C145.213333,30.6293333 145.053333,30.3066667 144.952,29.928 C144.850667,29.5493333 144.8,29.1306667 144.8,28.672 L144.8,25.456 L143.712,25.456 L143.712,23.712 L144.928,23.616 L145.2,21.504 L147.152,21.504 L147.152,23.616 L149.056,23.616 L149.056,25.456 L147.152,25.456 L147.152,28.64 C147.152,29.088 147.245333,29.4106667 147.432,29.608 C147.618667,29.8053333 147.866667,29.904 148.176,29.904 C148.304,29.904 148.434667,29.888 148.568,29.856 C148.701333,29.824 148.821333,29.7866667 148.928,29.744 L149.296,31.456 C149.082667,31.52 148.832,31.584 148.544,31.648 C148.256,31.712 147.92,31.744 147.536,31.744 Z" id="Path"></path>
                <path d="M153.776,31.744 C153.221333,31.744 152.706667,31.6506667 152.232,31.464 C151.757333,31.2773333 151.344,31.008 150.992,30.656 C150.64,30.304 150.362667,29.8693333 150.16,29.352 C149.957333,28.8346667 149.856,28.2453333 149.856,27.584 C149.856,26.9226667 149.968,26.3333333 150.192,25.816 C150.416,25.2986667 150.717333,24.864 151.096,24.512 C151.474667,24.16 151.914667,23.8906667 152.416,23.704 C152.917333,23.5173333 153.44,23.424 153.984,23.424 C154.474667,23.424 154.909333,23.504 155.288,23.664 C155.666667,23.824 156.005333,24.0266667 156.304,24.272 L155.2,25.792 C154.826667,25.4826667 154.469333,25.328 154.128,25.328 C153.552,25.328 153.098667,25.5306667 152.768,25.936 C152.437333,26.3413333 152.272,26.8906667 152.272,27.584 C152.272,28.2773333 152.44,28.8266667 152.776,29.232 C153.112,29.6373333 153.536,29.84 154.048,29.84 C154.304,29.84 154.552,29.784 154.792,29.672 C155.032,29.56 155.258667,29.424 155.472,29.264 L156.4,30.8 C156.005333,31.1413333 155.578667,31.384 155.12,31.528 C154.661333,31.672 154.213333,31.744 153.776,31.744 Z" id="Path"></path>
                <path d="M159.152,31.744 C158.746667,31.744 158.408,31.6026667 158.136,31.32 C157.864,31.0373333 157.728,30.688 157.728,30.272 C157.728,29.8453333 157.864,29.4906667 158.136,29.208 C158.408,28.9253333 158.746667,28.784 159.152,28.784 C159.557333,28.784 159.896,28.9253333 160.168,29.208 C160.44,29.4906667 160.576,29.8453333 160.576,30.272 C160.576,30.688 160.44,31.0373333 160.168,31.32 C159.896,31.6026667 159.557333,31.744 159.152,31.744 Z" id="Path"></path>
                <path d="M163.792,34.416 L162.32,33.808 C162.917333,32.7626667 163.349333,31.6693333 163.616,30.528 C163.882667,29.3866667 164.016,28.2453333 164.016,27.104 C164.016,25.9626667 163.882667,24.8213333 163.616,23.68 C163.349333,22.5386667 162.917333,21.4453333 162.32,20.4 L163.792,19.792 C164.464,20.8906667 164.984,22.032 165.352,23.216 C165.72,24.4 165.904,25.696 165.904,27.104 C165.904,28.512 165.72,29.808 165.352,30.992 C164.984,32.176 164.464,33.3173333 163.792,34.416 Z" id="Path"></path>
            </g>
        </g>
        <path id="dv/arrow" d="M133,69.5 C136.865993,69.5 140,72.6340068 140,76.5 C140,80.0261219 137.392812,82.9433024 134.00101,83.4289666 L134,103 L140,103 L133,117 L126,103 L132,103 L131.999992,83.42911 C128.607702,82.9438768 126,80.0264691 126,76.5 C126,72.6340068 129.134007,69.5 133,69.5 Z" fill="#282828" fill-rule="nonzero"></path>
        <g id="Group-3" transform="translate(66.000000, 117.000000)">
            <g id="Rectangle">
                <use fill="black" fill-opacity="1" filter="url(#filter-6)" xlink:href="#path-5"></use>
                <rect stroke="#363636" stroke-width="2" stroke-linejoin="square" fill="#B2EBF2" fill-rule="evenodd" x="1" y="1" width="132" height="55" rx="5"></rect>
            </g>
            <g id="Data-view" transform="translate(33.664000, 22.448000)" fill="#171717" fill-rule="nonzero">
                <path d="M0,11.552 L0,1.12 L2.944,1.12 C3.744,1.12 4.464,1.22133333 5.104,1.424 C5.744,1.62666667 6.29333333,1.93866667 6.752,2.36 C7.21066667,2.78133333 7.56266667,3.31733333 7.808,3.968 C8.05333333,4.61866667 8.176,5.392 8.176,6.288 C8.176,7.184 8.05333333,7.96266667 7.808,8.624 C7.56266667,9.28533333 7.216,9.832 6.768,10.264 C6.32,10.696 5.784,11.0186667 5.16,11.232 C4.536,11.4453333 3.84,11.552 3.072,11.552 L0,11.552 Z M2.352,9.648 L2.8,9.648 C3.248,9.648 3.65333333,9.58933333 4.016,9.472 C4.37866667,9.35466667 4.688,9.16533333 4.944,8.904 C5.2,8.64266667 5.4,8.29866667 5.544,7.872 C5.688,7.44533333 5.76,6.91733333 5.76,6.288 C5.76,5.66933333 5.688,5.14933333 5.544,4.728 C5.4,4.30666667 5.2,3.97066667 4.944,3.72 C4.688,3.46933333 4.37866667,3.29066667 4.016,3.184 C3.65333333,3.07733333 3.248,3.024 2.8,3.024 L2.352,3.024 L2.352,9.648 Z" id="Shape"></path>
                <path d="M11.968,11.744 C11.6053333,11.744 11.2773333,11.6826667 10.984,11.56 C10.6906667,11.4373333 10.4426667,11.2666667 10.24,11.048 C10.0373333,10.8293333 9.88,10.576 9.768,10.288 C9.656,10 9.6,9.68533333 9.6,9.344 C9.6,8.512 9.952,7.86133333 10.656,7.392 C11.36,6.92266667 12.496,6.608 14.064,6.448 C14.0426667,6.096 13.9386667,5.816 13.752,5.608 C13.5653333,5.4 13.2533333,5.296 12.816,5.296 C12.4746667,5.296 12.136,5.36 11.8,5.488 C11.464,5.616 11.104,5.792 10.72,6.016 L9.872,4.464 C10.384,4.15466667 10.92,3.904 11.48,3.712 C12.04,3.52 12.6346667,3.424 13.264,3.424 C14.288,3.424 15.0693333,3.71466667 15.608,4.296 C16.1466667,4.87733333 16.416,5.78133333 16.416,7.008 L16.416,11.552 L14.496,11.552 L14.336,10.736 L14.272,10.736 C13.9306667,11.0346667 13.5733333,11.2773333 13.2,11.464 C12.8266667,11.6506667 12.416,11.744 11.968,11.744 Z M12.768,9.92 C13.0346667,9.92 13.264,9.86133333 13.456,9.744 C13.648,9.62666667 13.8506667,9.46133333 14.064,9.248 L14.064,7.856 C13.232,7.97333333 12.656,8.144 12.336,8.368 C12.016,8.592 11.856,8.85866667 11.856,9.168 C11.856,9.424 11.9386667,9.61333333 12.104,9.736 C12.2693333,9.85866667 12.4906667,9.92 12.768,9.92 Z" id="Shape"></path>
                <path d="M21.168,11.744 C20.6773333,11.744 20.2586667,11.6693333 19.912,11.52 C19.5653333,11.3706667 19.2826667,11.1626667 19.064,10.896 C18.8453333,10.6293333 18.6853333,10.3066667 18.584,9.928 C18.4826667,9.54933333 18.432,9.13066667 18.432,8.672 L18.432,5.456 L17.344,5.456 L17.344,3.712 L18.56,3.616 L18.832,1.504 L20.784,1.504 L20.784,3.616 L22.688,3.616 L22.688,5.456 L20.784,5.456 L20.784,8.64 C20.784,9.088 20.8773333,9.41066667 21.064,9.608 C21.2506667,9.80533333 21.4986667,9.904 21.808,9.904 C21.936,9.904 22.0666667,9.888 22.2,9.856 C22.3333333,9.824 22.4533333,9.78666667 22.56,9.744 L22.928,11.456 C22.7146667,11.52 22.464,11.584 22.176,11.648 C21.888,11.712 21.552,11.744 21.168,11.744 Z" id="Path"></path>
                <path d="M25.92,11.744 C25.5573333,11.744 25.2293333,11.6826667 24.936,11.56 C24.6426667,11.4373333 24.3946667,11.2666667 24.192,11.048 C23.9893333,10.8293333 23.832,10.576 23.72,10.288 C23.608,10 23.552,9.68533333 23.552,9.344 C23.552,8.512 23.904,7.86133333 24.608,7.392 C25.312,6.92266667 26.448,6.608 28.016,6.448 C27.9946667,6.096 27.8906667,5.816 27.704,5.608 C27.5173333,5.4 27.2053333,5.296 26.768,5.296 C26.4266667,5.296 26.088,5.36 25.752,5.488 C25.416,5.616 25.056,5.792 24.672,6.016 L23.824,4.464 C24.336,4.15466667 24.872,3.904 25.432,3.712 C25.992,3.52 26.5866667,3.424 27.216,3.424 C28.24,3.424 29.0213333,3.71466667 29.56,4.296 C30.0986667,4.87733333 30.368,5.78133333 30.368,7.008 L30.368,11.552 L28.448,11.552 L28.288,10.736 L28.224,10.736 C27.8826667,11.0346667 27.5253333,11.2773333 27.152,11.464 C26.7786667,11.6506667 26.368,11.744 25.92,11.744 Z M26.72,9.92 C26.9866667,9.92 27.216,9.86133333 27.408,9.744 C27.6,9.62666667 27.8026667,9.46133333 28.016,9.248 L28.016,7.856 C27.184,7.97333333 26.608,8.144 26.288,8.368 C25.968,8.592 25.808,8.85866667 25.808,9.168 C25.808,9.424 25.8906667,9.61333333 26.056,9.736 C26.2213333,9.85866667 26.4426667,9.92 26.72,9.92 Z" id="Shape"></path>
                <path d="M37.376,11.552 L34.704,3.616 L37.072,3.616 L38.096,7.36 C38.2026667,7.75466667 38.3066667,8.15733333 38.408,8.568 C38.5093333,8.97866667 38.6133333,9.392 38.72,9.808 L38.784,9.808 C38.88,9.392 38.9786667,8.97866667 39.08,8.568 C39.1813333,8.15733333 39.2853333,7.75466667 39.392,7.36 L40.432,3.616 L42.688,3.616 L40.096,11.552 L37.376,11.552 Z" id="Path"></path>
                <path d="M43.92,11.552 L43.92,3.616 L46.272,3.616 L46.272,11.552 L43.92,11.552 Z M45.088,2.448 C44.6933333,2.448 44.368,2.33333333 44.112,2.104 C43.856,1.87466667 43.728,1.57866667 43.728,1.216 C43.728,0.853333333 43.856,0.56 44.112,0.336 C44.368,0.112 44.6933333,0 45.088,0 C45.4933333,0 45.8213333,0.112 46.072,0.336 C46.3226667,0.56 46.448,0.853333333 46.448,1.216 C46.448,1.57866667 46.3226667,1.87466667 46.072,2.104 C45.8213333,2.33333333 45.4933333,2.448 45.088,2.448 Z" id="Shape"></path>
                <path d="M51.888,11.744 C51.3226667,11.744 50.7946667,11.6506667 50.304,11.464 C49.8133333,11.2773333 49.3866667,11.0053333 49.024,10.648 C48.6613333,10.2906667 48.3786667,9.856 48.176,9.344 C47.9733333,8.832 47.872,8.24533333 47.872,7.584 C47.872,6.944 47.9786667,6.36533333 48.192,5.848 C48.4053333,5.33066667 48.6853333,4.89333333 49.032,4.536 C49.3786667,4.17866667 49.776,3.904 50.224,3.712 C50.672,3.52 51.136,3.424 51.616,3.424 C52.1813333,3.424 52.6746667,3.52 53.096,3.712 C53.5173333,3.904 53.8693333,4.17066667 54.152,4.512 C54.4346667,4.85333333 54.6453333,5.256 54.784,5.72 C54.9226667,6.184 54.992,6.688 54.992,7.232 C54.992,7.44533333 54.9813333,7.648 54.96,7.84 C54.9386667,8.032 54.9173333,8.176 54.896,8.272 L50.144,8.272 C50.2506667,8.848 50.488,9.272 50.856,9.544 C51.224,9.816 51.6746667,9.952 52.208,9.952 C52.7733333,9.952 53.344,9.776 53.92,9.424 L54.704,10.848 C54.2986667,11.1253333 53.848,11.344 53.352,11.504 C52.856,11.664 52.368,11.744 51.888,11.744 Z M50.128,6.72 L52.992,6.72 C52.992,6.272 52.8906667,5.90933333 52.688,5.632 C52.4853333,5.35466667 52.144,5.216 51.664,5.216 C51.2906667,5.216 50.9626667,5.33866667 50.68,5.584 C50.3973333,5.82933333 50.2133333,6.208 50.128,6.72 Z" id="Shape"></path>
                <path d="M57.856,11.552 L55.872,3.616 L58.208,3.616 L58.976,7.296 C59.04,7.69066667 59.0986667,8.08 59.152,8.464 C59.2053333,8.848 59.264,9.24266667 59.328,9.648 L59.392,9.648 C59.4666667,9.24266667 59.5386667,8.84266667 59.608,8.448 C59.6773333,8.05333333 59.76,7.66933333 59.856,7.296 L60.736,3.616 L62.768,3.616 L63.664,7.296 C63.76,7.69066667 63.8453333,8.08 63.92,8.464 C63.9946667,8.848 64.0746667,9.24266667 64.16,9.648 L64.224,9.648 C64.2986667,9.24266667 64.36,8.848 64.408,8.464 C64.456,8.08 64.5173333,7.69066667 64.592,7.296 L65.344,3.616 L67.52,3.616 L65.616,11.552 L62.864,11.552 L62.144,8.384 C62.0586667,8.01066667 61.984,7.63733333 61.92,7.264 C61.856,6.89066667 61.7866667,6.49066667 61.712,6.064 L61.648,6.064 C61.5733333,6.49066667 61.5066667,6.89066667 61.448,7.264 C61.3893333,7.63733333 61.3226667,8.01066667 61.248,8.384 L60.544,11.552 L57.856,11.552 Z" id="Path"></path>
            </g>
        </g>
        <path id="dv/arrow" d="M133,167 C136.865993,167 140,170.134007 140,174 C140,177.526122 137.392812,180.443302 134.00101,180.928967 L134,282 L140,282 L133,296 L126,282 L132,282 L131.999992,180.92911 C128.607702,180.443877 126,177.526469 126,174 C126,170.134007 129.134007,167 133,167 Z" fill="#282828" fill-rule="nonzero"></path>
        <g id="Group-2" transform="translate(44.000000, 216.000000)">
            <rect id="Rectangle" stroke="#363636" stroke-width="2" fill="#FFFFFF" x="1" y="1" width="176" height="37" rx="18.5"></rect>
            <g id="Upcast-conversion" transform="translate(25.664000, 13.448000)" fill="#171717" fill-rule="nonzero">
                <path d="M4.176,11.744 C2.82133333,11.744 1.78666667,11.344 1.072,10.544 C0.357333333,9.744 0,8.46933333 0,6.72 L0,1.12 L2.368,1.12 L2.368,6.96 C2.368,7.984 2.52266667,8.69866667 2.832,9.104 C3.14133333,9.50933333 3.58933333,9.712 4.176,9.712 C4.76266667,9.712 5.216,9.50933333 5.536,9.104 C5.856,8.69866667 6.016,7.984 6.016,6.96 L6.016,1.12 L8.288,1.12 L8.288,6.72 C8.288,8.46933333 7.93866667,9.744 7.24,10.544 C6.54133333,11.344 5.52,11.744 4.176,11.744 Z" id="Path"></path>
                <path d="M10.512,14.496 L10.512,3.616 L12.432,3.616 L12.592,4.4 L12.656,4.4 C12.9653333,4.12266667 13.3146667,3.89066667 13.704,3.704 C14.0933333,3.51733333 14.496,3.424 14.912,3.424 C15.392,3.424 15.824,3.52 16.208,3.712 C16.592,3.904 16.9173333,4.176 17.184,4.528 C17.4506667,4.88 17.656,5.304 17.8,5.8 C17.944,6.296 18.016,6.848 18.016,7.456 C18.016,8.13866667 17.9226667,8.744 17.736,9.272 C17.5493333,9.8 17.2986667,10.248 16.984,10.616 C16.6693333,10.984 16.312,11.264 15.912,11.456 C15.512,11.648 15.0986667,11.744 14.672,11.744 C14.3306667,11.744 14,11.672 13.68,11.528 C13.36,11.384 13.0613333,11.1786667 12.784,10.912 L12.864,12.176 L12.864,14.496 L10.512,14.496 Z M14.128,9.824 C14.5333333,9.824 14.88,9.64 15.168,9.272 C15.456,8.904 15.6,8.30933333 15.6,7.488 C15.6,6.05866667 15.1413333,5.344 14.224,5.344 C13.7653333,5.344 13.312,5.584 12.864,6.064 L12.864,9.312 C13.0773333,9.504 13.2906667,9.63733333 13.504,9.712 C13.7173333,9.78666667 13.9253333,9.824 14.128,9.824 Z" id="Shape"></path>
                <path d="M23.136,11.744 C22.5813333,11.744 22.0666667,11.6506667 21.592,11.464 C21.1173333,11.2773333 20.704,11.008 20.352,10.656 C20,10.304 19.7226667,9.86933333 19.52,9.352 C19.3173333,8.83466667 19.216,8.24533333 19.216,7.584 C19.216,6.92266667 19.328,6.33333333 19.552,5.816 C19.776,5.29866667 20.0773333,4.864 20.456,4.512 C20.8346667,4.16 21.2746667,3.89066667 21.776,3.704 C22.2773333,3.51733333 22.8,3.424 23.344,3.424 C23.8346667,3.424 24.2693333,3.504 24.648,3.664 C25.0266667,3.824 25.3653333,4.02666667 25.664,4.272 L24.56,5.792 C24.1866667,5.48266667 23.8293333,5.328 23.488,5.328 C22.912,5.328 22.4586667,5.53066667 22.128,5.936 C21.7973333,6.34133333 21.632,6.89066667 21.632,7.584 C21.632,8.27733333 21.8,8.82666667 22.136,9.232 C22.472,9.63733333 22.896,9.84 23.408,9.84 C23.664,9.84 23.912,9.784 24.152,9.672 C24.392,9.56 24.6186667,9.424 24.832,9.264 L25.76,10.8 C25.3653333,11.1413333 24.9386667,11.384 24.48,11.528 C24.0213333,11.672 23.5733333,11.744 23.136,11.744 Z" id="Path"></path>
                <path d="M28.992,11.744 C28.6293333,11.744 28.3013333,11.6826667 28.008,11.56 C27.7146667,11.4373333 27.4666667,11.2666667 27.264,11.048 C27.0613333,10.8293333 26.904,10.576 26.792,10.288 C26.68,10 26.624,9.68533333 26.624,9.344 C26.624,8.512 26.976,7.86133333 27.68,7.392 C28.384,6.92266667 29.52,6.608 31.088,6.448 C31.0666667,6.096 30.9626667,5.816 30.776,5.608 C30.5893333,5.4 30.2773333,5.296 29.84,5.296 C29.4986667,5.296 29.16,5.36 28.824,5.488 C28.488,5.616 28.128,5.792 27.744,6.016 L26.896,4.464 C27.408,4.15466667 27.944,3.904 28.504,3.712 C29.064,3.52 29.6586667,3.424 30.288,3.424 C31.312,3.424 32.0933333,3.71466667 32.632,4.296 C33.1706667,4.87733333 33.44,5.78133333 33.44,7.008 L33.44,11.552 L31.52,11.552 L31.36,10.736 L31.296,10.736 C30.9546667,11.0346667 30.5973333,11.2773333 30.224,11.464 C29.8506667,11.6506667 29.44,11.744 28.992,11.744 Z M29.792,9.92 C30.0586667,9.92 30.288,9.86133333 30.48,9.744 C30.672,9.62666667 30.8746667,9.46133333 31.088,9.248 L31.088,7.856 C30.256,7.97333333 29.68,8.144 29.36,8.368 C29.04,8.592 28.88,8.85866667 28.88,9.168 C28.88,9.424 28.9626667,9.61333333 29.128,9.736 C29.2933333,9.85866667 29.5146667,9.92 29.792,9.92 Z" id="Shape"></path>
                <path d="M37.76,11.744 C37.2373333,11.744 36.7013333,11.6426667 36.152,11.44 C35.6026667,11.2373333 35.1253333,10.9706667 34.72,10.64 L35.776,9.168 C36.1386667,9.44533333 36.4853333,9.65333333 36.816,9.792 C37.1466667,9.93066667 37.4826667,10 37.824,10 C38.176,10 38.432,9.94133333 38.592,9.824 C38.752,9.70666667 38.832,9.54133333 38.832,9.328 C38.832,9.2 38.7866667,9.08533333 38.696,8.984 C38.6053333,8.88266667 38.4826667,8.78933333 38.328,8.704 C38.1733333,8.61866667 38,8.54133333 37.808,8.472 C37.616,8.40266667 37.4186667,8.32533333 37.216,8.24 C36.9706667,8.144 36.7253333,8.032 36.48,7.904 C36.2346667,7.776 36.0106667,7.61866667 35.808,7.432 C35.6053333,7.24533333 35.44,7.02666667 35.312,6.776 C35.184,6.52533333 35.12,6.23466667 35.12,5.904 C35.12,5.54133333 35.192,5.20533333 35.336,4.896 C35.48,4.58666667 35.6853333,4.32533333 35.952,4.112 C36.2186667,3.89866667 36.5386667,3.73066667 36.912,3.608 C37.2853333,3.48533333 37.7013333,3.424 38.16,3.424 C38.768,3.424 39.3013333,3.528 39.76,3.736 C40.2186667,3.944 40.6186667,4.176 40.96,4.432 L39.904,5.84 C39.616,5.62666667 39.3333333,5.46133333 39.056,5.344 C38.7786667,5.22666667 38.5013333,5.168 38.224,5.168 C37.6266667,5.168 37.328,5.376 37.328,5.792 C37.328,5.92 37.3706667,6.02933333 37.456,6.12 C37.5413333,6.21066667 37.656,6.29333333 37.8,6.368 C37.944,6.44266667 38.1093333,6.51466667 38.296,6.584 C38.4826667,6.65333333 38.6773333,6.72533333 38.88,6.8 C39.136,6.896 39.3893333,7.00533333 39.64,7.128 C39.8906667,7.25066667 40.12,7.40266667 40.328,7.584 C40.536,7.76533333 40.704,7.98666667 40.832,8.248 C40.96,8.50933333 41.024,8.82133333 41.024,9.184 C41.024,9.54666667 40.9546667,9.88266667 40.816,10.192 C40.6773333,10.5013333 40.4693333,10.7706667 40.192,11 C39.9146667,11.2293333 39.5733333,11.4106667 39.168,11.544 C38.7626667,11.6773333 38.2933333,11.744 37.76,11.744 Z" id="Path"></path>
                <path d="M45.248,11.744 C44.7573333,11.744 44.3386667,11.6693333 43.992,11.52 C43.6453333,11.3706667 43.3626667,11.1626667 43.144,10.896 C42.9253333,10.6293333 42.7653333,10.3066667 42.664,9.928 C42.5626667,9.54933333 42.512,9.13066667 42.512,8.672 L42.512,5.456 L41.424,5.456 L41.424,3.712 L42.64,3.616 L42.912,1.504 L44.864,1.504 L44.864,3.616 L46.768,3.616 L46.768,5.456 L44.864,5.456 L44.864,8.64 C44.864,9.088 44.9573333,9.41066667 45.144,9.608 C45.3306667,9.80533333 45.5786667,9.904 45.888,9.904 C46.016,9.904 46.1466667,9.888 46.28,9.856 C46.4133333,9.824 46.5333333,9.78666667 46.64,9.744 L47.008,11.456 C46.7946667,11.52 46.544,11.584 46.256,11.648 C45.968,11.712 45.632,11.744 45.248,11.744 Z" id="Path"></path>
                <path d="M54.976,11.744 C54.4213333,11.744 53.9066667,11.6506667 53.432,11.464 C52.9573333,11.2773333 52.544,11.008 52.192,10.656 C51.84,10.304 51.5626667,9.86933333 51.36,9.352 C51.1573333,8.83466667 51.056,8.24533333 51.056,7.584 C51.056,6.92266667 51.168,6.33333333 51.392,5.816 C51.616,5.29866667 51.9173333,4.864 52.296,4.512 C52.6746667,4.16 53.1146667,3.89066667 53.616,3.704 C54.1173333,3.51733333 54.64,3.424 55.184,3.424 C55.6746667,3.424 56.1093333,3.504 56.488,3.664 C56.8666667,3.824 57.2053333,4.02666667 57.504,4.272 L56.4,5.792 C56.0266667,5.48266667 55.6693333,5.328 55.328,5.328 C54.752,5.328 54.2986667,5.53066667 53.968,5.936 C53.6373333,6.34133333 53.472,6.89066667 53.472,7.584 C53.472,8.27733333 53.64,8.82666667 53.976,9.232 C54.312,9.63733333 54.736,9.84 55.248,9.84 C55.504,9.84 55.752,9.784 55.992,9.672 C56.232,9.56 56.4586667,9.424 56.672,9.264 L57.6,10.8 C57.2053333,11.1413333 56.7786667,11.384 56.32,11.528 C55.8613333,11.672 55.4133333,11.744 54.976,11.744 Z" id="Path"></path>
                <path d="M61.952,11.744 C61.4506667,11.744 60.9653333,11.6506667 60.496,11.464 C60.0266667,11.2773333 59.6133333,11.008 59.256,10.656 C58.8986667,10.304 58.6133333,9.86933333 58.4,9.352 C58.1866667,8.83466667 58.08,8.24533333 58.08,7.584 C58.08,6.92266667 58.1866667,6.33333333 58.4,5.816 C58.6133333,5.29866667 58.8986667,4.864 59.256,4.512 C59.6133333,4.16 60.0266667,3.89066667 60.496,3.704 C60.9653333,3.51733333 61.4506667,3.424 61.952,3.424 C62.4533333,3.424 62.936,3.51733333 63.4,3.704 C63.864,3.89066667 64.2746667,4.16 64.632,4.512 C64.9893333,4.864 65.2746667,5.29866667 65.488,5.816 C65.7013333,6.33333333 65.808,6.92266667 65.808,7.584 C65.808,8.24533333 65.7013333,8.83466667 65.488,9.352 C65.2746667,9.86933333 64.9893333,10.304 64.632,10.656 C64.2746667,11.008 63.864,11.2773333 63.4,11.464 C62.936,11.6506667 62.4533333,11.744 61.952,11.744 Z M61.952,9.84 C62.432,9.84 62.7946667,9.63733333 63.04,9.232 C63.2853333,8.82666667 63.408,8.27733333 63.408,7.584 C63.408,6.89066667 63.2853333,6.34133333 63.04,5.936 C62.7946667,5.53066667 62.432,5.328 61.952,5.328 C61.4613333,5.328 61.096,5.53066667 60.856,5.936 C60.616,6.34133333 60.496,6.89066667 60.496,7.584 C60.496,8.27733333 60.616,8.82666667 60.856,9.232 C61.096,9.63733333 61.4613333,9.84 61.952,9.84 Z" id="Shape"></path>
                <path d="M67.424,11.552 L67.424,3.616 L69.344,3.616 L69.504,4.624 L69.568,4.624 C69.9093333,4.304 70.2826667,4.024 70.688,3.784 C71.0933333,3.544 71.568,3.424 72.112,3.424 C72.976,3.424 73.6026667,3.70666667 73.992,4.272 C74.3813333,4.83733333 74.576,5.62133333 74.576,6.624 L74.576,11.552 L72.224,11.552 L72.224,6.928 C72.224,6.352 72.1466667,5.95733333 71.992,5.744 C71.8373333,5.53066667 71.5893333,5.424 71.248,5.424 C70.9493333,5.424 70.6933333,5.49066667 70.48,5.624 C70.2666667,5.75733333 70.032,5.94666667 69.776,6.192 L69.776,11.552 L67.424,11.552 Z" id="Path"></path>
                <path d="M78.4,11.552 L75.728,3.616 L78.096,3.616 L79.12,7.36 C79.2266667,7.75466667 79.3306667,8.15733333 79.432,8.568 C79.5333333,8.97866667 79.6373333,9.392 79.744,9.808 L79.808,9.808 C79.904,9.392 80.0026667,8.97866667 80.104,8.568 C80.2053333,8.15733333 80.3093333,7.75466667 80.416,7.36 L81.456,3.616 L83.712,3.616 L81.12,11.552 L78.4,11.552 Z" id="Path"></path>
                <path d="M88.368,11.744 C87.8026667,11.744 87.2746667,11.6506667 86.784,11.464 C86.2933333,11.2773333 85.8666667,11.0053333 85.504,10.648 C85.1413333,10.2906667 84.8586667,9.856 84.656,9.344 C84.4533333,8.832 84.352,8.24533333 84.352,7.584 C84.352,6.944 84.4586667,6.36533333 84.672,5.848 C84.8853333,5.33066667 85.1653333,4.89333333 85.512,4.536 C85.8586667,4.17866667 86.256,3.904 86.704,3.712 C87.152,3.52 87.616,3.424 88.096,3.424 C88.6613333,3.424 89.1546667,3.52 89.576,3.712 C89.9973333,3.904 90.3493333,4.17066667 90.632,4.512 C90.9146667,4.85333333 91.1253333,5.256 91.264,5.72 C91.4026667,6.184 91.472,6.688 91.472,7.232 C91.472,7.44533333 91.4613333,7.648 91.44,7.84 C91.4186667,8.032 91.3973333,8.176 91.376,8.272 L86.624,8.272 C86.7306667,8.848 86.968,9.272 87.336,9.544 C87.704,9.816 88.1546667,9.952 88.688,9.952 C89.2533333,9.952 89.824,9.776 90.4,9.424 L91.184,10.848 C90.7786667,11.1253333 90.328,11.344 89.832,11.504 C89.336,11.664 88.848,11.744 88.368,11.744 Z M86.608,6.72 L89.472,6.72 C89.472,6.272 89.3706667,5.90933333 89.168,5.632 C88.9653333,5.35466667 88.624,5.216 88.144,5.216 C87.7706667,5.216 87.4426667,5.33866667 87.16,5.584 C86.8773333,5.82933333 86.6933333,6.208 86.608,6.72 Z" id="Shape"></path>
                <path d="M93.104,11.552 L93.104,3.616 L95.024,3.616 L95.184,5.008 L95.248,5.008 C95.536,4.464 95.8826667,4.064 96.288,3.808 C96.6933333,3.552 97.0986667,3.424 97.504,3.424 C97.728,3.424 97.912,3.43733333 98.056,3.464 C98.2,3.49066667 98.3306667,3.53066667 98.448,3.584 L98.064,5.616 C97.9146667,5.57333333 97.776,5.54133333 97.648,5.52 C97.52,5.49866667 97.3706667,5.488 97.2,5.488 C96.9013333,5.488 96.5893333,5.59466667 96.264,5.808 C95.9386667,6.02133333 95.6693333,6.4 95.456,6.944 L95.456,11.552 L93.104,11.552 Z" id="Path"></path>
                <path d="M101.68,11.744 C101.157333,11.744 100.621333,11.6426667 100.072,11.44 C99.5226667,11.2373333 99.0453333,10.9706667 98.64,10.64 L99.696,9.168 C100.058667,9.44533333 100.405333,9.65333333 100.736,9.792 C101.066667,9.93066667 101.402667,10 101.744,10 C102.096,10 102.352,9.94133333 102.512,9.824 C102.672,9.70666667 102.752,9.54133333 102.752,9.328 C102.752,9.2 102.706667,9.08533333 102.616,8.984 C102.525333,8.88266667 102.402667,8.78933333 102.248,8.704 C102.093333,8.61866667 101.92,8.54133333 101.728,8.472 C101.536,8.40266667 101.338667,8.32533333 101.136,8.24 C100.890667,8.144 100.645333,8.032 100.4,7.904 C100.154667,7.776 99.9306667,7.61866667 99.728,7.432 C99.5253333,7.24533333 99.36,7.02666667 99.232,6.776 C99.104,6.52533333 99.04,6.23466667 99.04,5.904 C99.04,5.54133333 99.112,5.20533333 99.256,4.896 C99.4,4.58666667 99.6053333,4.32533333 99.872,4.112 C100.138667,3.89866667 100.458667,3.73066667 100.832,3.608 C101.205333,3.48533333 101.621333,3.424 102.08,3.424 C102.688,3.424 103.221333,3.528 103.68,3.736 C104.138667,3.944 104.538667,4.176 104.88,4.432 L103.824,5.84 C103.536,5.62666667 103.253333,5.46133333 102.976,5.344 C102.698667,5.22666667 102.421333,5.168 102.144,5.168 C101.546667,5.168 101.248,5.376 101.248,5.792 C101.248,5.92 101.290667,6.02933333 101.376,6.12 C101.461333,6.21066667 101.576,6.29333333 101.72,6.368 C101.864,6.44266667 102.029333,6.51466667 102.216,6.584 C102.402667,6.65333333 102.597333,6.72533333 102.8,6.8 C103.056,6.896 103.309333,7.00533333 103.56,7.128 C103.810667,7.25066667 104.04,7.40266667 104.248,7.584 C104.456,7.76533333 104.624,7.98666667 104.752,8.248 C104.88,8.50933333 104.944,8.82133333 104.944,9.184 C104.944,9.54666667 104.874667,9.88266667 104.736,10.192 C104.597333,10.5013333 104.389333,10.7706667 104.112,11 C103.834667,11.2293333 103.493333,11.4106667 103.088,11.544 C102.682667,11.6773333 102.213333,11.744 101.68,11.744 Z" id="Path"></path>
                <path d="M106.432,11.552 L106.432,3.616 L108.784,3.616 L108.784,11.552 L106.432,11.552 Z M107.6,2.448 C107.205333,2.448 106.88,2.33333333 106.624,2.104 C106.368,1.87466667 106.24,1.57866667 106.24,1.216 C106.24,0.853333333 106.368,0.56 106.624,0.336 C106.88,0.112 107.205333,0 107.6,0 C108.005333,0 108.333333,0.112 108.584,0.336 C108.834667,0.56 108.96,0.853333333 108.96,1.216 C108.96,1.57866667 108.834667,1.87466667 108.584,2.104 C108.333333,2.33333333 108.005333,2.448 107.6,2.448 Z" id="Shape"></path>
                <path d="M114.256,11.744 C113.754667,11.744 113.269333,11.6506667 112.8,11.464 C112.330667,11.2773333 111.917333,11.008 111.56,10.656 C111.202667,10.304 110.917333,9.86933333 110.704,9.352 C110.490667,8.83466667 110.384,8.24533333 110.384,7.584 C110.384,6.92266667 110.490667,6.33333333 110.704,5.816 C110.917333,5.29866667 111.202667,4.864 111.56,4.512 C111.917333,4.16 112.330667,3.89066667 112.8,3.704 C113.269333,3.51733333 113.754667,3.424 114.256,3.424 C114.757333,3.424 115.24,3.51733333 115.704,3.704 C116.168,3.89066667 116.578667,4.16 116.936,4.512 C117.293333,4.864 117.578667,5.29866667 117.792,5.816 C118.005333,6.33333333 118.112,6.92266667 118.112,7.584 C118.112,8.24533333 118.005333,8.83466667 117.792,9.352 C117.578667,9.86933333 117.293333,10.304 116.936,10.656 C116.578667,11.008 116.168,11.2773333 115.704,11.464 C115.24,11.6506667 114.757333,11.744 114.256,11.744 Z M114.256,9.84 C114.736,9.84 115.098667,9.63733333 115.344,9.232 C115.589333,8.82666667 115.712,8.27733333 115.712,7.584 C115.712,6.89066667 115.589333,6.34133333 115.344,5.936 C115.098667,5.53066667 114.736,5.328 114.256,5.328 C113.765333,5.328 113.4,5.53066667 113.16,5.936 C112.92,6.34133333 112.8,6.89066667 112.8,7.584 C112.8,8.27733333 112.92,8.82666667 113.16,9.232 C113.4,9.63733333 113.765333,9.84 114.256,9.84 Z" id="Shape"></path>
                <path d="M119.728,11.552 L119.728,3.616 L121.648,3.616 L121.808,4.624 L121.872,4.624 C122.213333,4.304 122.586667,4.024 122.992,3.784 C123.397333,3.544 123.872,3.424 124.416,3.424 C125.28,3.424 125.906667,3.70666667 126.296,4.272 C126.685333,4.83733333 126.88,5.62133333 126.88,6.624 L126.88,11.552 L124.528,11.552 L124.528,6.928 C124.528,6.352 124.450667,5.95733333 124.296,5.744 C124.141333,5.53066667 123.893333,5.424 123.552,5.424 C123.253333,5.424 122.997333,5.49066667 122.784,5.624 C122.570667,5.75733333 122.336,5.94666667 122.08,6.192 L122.08,11.552 L119.728,11.552 Z" id="Path"></path>
            </g>
        </g>
        <g id="Group" transform="translate(66.000000, 296.000000)">
            <g id="Rectangle">
                <use fill="black" fill-opacity="1" filter="url(#filter-8)" xlink:href="#path-7"></use>
                <rect stroke="#363636" stroke-width="2" stroke-linejoin="square" fill="#F8BBD0" fill-rule="evenodd" x="1" y="1" width="132" height="55" rx="5"></rect>
            </g>
            <g id="Initial-state-of-the" transform="translate(19.512000, 13.448000)" fill="#171717" fill-rule="nonzero">
                <polygon id="Path" points="0 11.552 0 1.12 2.352 1.12 2.352 11.552"></polygon>
                <path d="M4.624,11.552 L4.624,3.616 L6.544,3.616 L6.704,4.624 L6.768,4.624 C7.10933333,4.304 7.48266667,4.024 7.888,3.784 C8.29333333,3.544 8.768,3.424 9.312,3.424 C10.176,3.424 10.8026667,3.70666667 11.192,4.272 C11.5813333,4.83733333 11.776,5.62133333 11.776,6.624 L11.776,11.552 L9.424,11.552 L9.424,6.928 C9.424,6.352 9.34666667,5.95733333 9.192,5.744 C9.03733333,5.53066667 8.78933333,5.424 8.448,5.424 C8.14933333,5.424 7.89333333,5.49066667 7.68,5.624 C7.46666667,5.75733333 7.232,5.94666667 6.976,6.192 L6.976,11.552 L4.624,11.552 Z" id="Path"></path>
                <path d="M13.776,11.552 L13.776,3.616 L16.128,3.616 L16.128,11.552 L13.776,11.552 Z M14.944,2.448 C14.5493333,2.448 14.224,2.33333333 13.968,2.104 C13.712,1.87466667 13.584,1.57866667 13.584,1.216 C13.584,0.853333333 13.712,0.56 13.968,0.336 C14.224,0.112 14.5493333,0 14.944,0 C15.3493333,0 15.6773333,0.112 15.928,0.336 C16.1786667,0.56 16.304,0.853333333 16.304,1.216 C16.304,1.57866667 16.1786667,1.87466667 15.928,2.104 C15.6773333,2.33333333 15.3493333,2.448 14.944,2.448 Z" id="Shape"></path>
                <path d="M21.248,11.744 C20.7573333,11.744 20.3386667,11.6693333 19.992,11.52 C19.6453333,11.3706667 19.3626667,11.1626667 19.144,10.896 C18.9253333,10.6293333 18.7653333,10.3066667 18.664,9.928 C18.5626667,9.54933333 18.512,9.13066667 18.512,8.672 L18.512,5.456 L17.424,5.456 L17.424,3.712 L18.64,3.616 L18.912,1.504 L20.864,1.504 L20.864,3.616 L22.768,3.616 L22.768,5.456 L20.864,5.456 L20.864,8.64 C20.864,9.088 20.9573333,9.41066667 21.144,9.608 C21.3306667,9.80533333 21.5786667,9.904 21.888,9.904 C22.016,9.904 22.1466667,9.888 22.28,9.856 C22.4133333,9.824 22.5333333,9.78666667 22.64,9.744 L23.008,11.456 C22.7946667,11.52 22.544,11.584 22.256,11.648 C21.968,11.712 21.632,11.744 21.248,11.744 Z" id="Path"></path>
                <path d="M24.32,11.552 L24.32,3.616 L26.672,3.616 L26.672,11.552 L24.32,11.552 Z M25.488,2.448 C25.0933333,2.448 24.768,2.33333333 24.512,2.104 C24.256,1.87466667 24.128,1.57866667 24.128,1.216 C24.128,0.853333333 24.256,0.56 24.512,0.336 C24.768,0.112 25.0933333,0 25.488,0 C25.8933333,0 26.2213333,0.112 26.472,0.336 C26.7226667,0.56 26.848,0.853333333 26.848,1.216 C26.848,1.57866667 26.7226667,1.87466667 26.472,2.104 C26.2213333,2.33333333 25.8933333,2.448 25.488,2.448 Z" id="Shape"></path>
                <path d="M30.736,11.744 C30.3733333,11.744 30.0453333,11.6826667 29.752,11.56 C29.4586667,11.4373333 29.2106667,11.2666667 29.008,11.048 C28.8053333,10.8293333 28.648,10.576 28.536,10.288 C28.424,10 28.368,9.68533333 28.368,9.344 C28.368,8.512 28.72,7.86133333 29.424,7.392 C30.128,6.92266667 31.264,6.608 32.832,6.448 C32.8106667,6.096 32.7066667,5.816 32.52,5.608 C32.3333333,5.4 32.0213333,5.296 31.584,5.296 C31.2426667,5.296 30.904,5.36 30.568,5.488 C30.232,5.616 29.872,5.792 29.488,6.016 L28.64,4.464 C29.152,4.15466667 29.688,3.904 30.248,3.712 C30.808,3.52 31.4026667,3.424 32.032,3.424 C33.056,3.424 33.8373333,3.71466667 34.376,4.296 C34.9146667,4.87733333 35.184,5.78133333 35.184,7.008 L35.184,11.552 L33.264,11.552 L33.104,10.736 L33.04,10.736 C32.6986667,11.0346667 32.3413333,11.2773333 31.968,11.464 C31.5946667,11.6506667 31.184,11.744 30.736,11.744 Z M31.536,9.92 C31.8026667,9.92 32.032,9.86133333 32.224,9.744 C32.416,9.62666667 32.6186667,9.46133333 32.832,9.248 L32.832,7.856 C32,7.97333333 31.424,8.144 31.104,8.368 C30.784,8.592 30.624,8.85866667 30.624,9.168 C30.624,9.424 30.7066667,9.61333333 30.872,9.736 C31.0373333,9.85866667 31.2586667,9.92 31.536,9.92 Z" id="Shape"></path>
                <path d="M39.328,11.744 C38.9226667,11.744 38.5813333,11.68 38.304,11.552 C38.0266667,11.424 37.8053333,11.2453333 37.64,11.016 C37.4746667,10.7866667 37.3546667,10.5093333 37.28,10.184 C37.2053333,9.85866667 37.168,9.49333333 37.168,9.088 L37.168,0.336 L39.52,0.336 L39.52,9.184 C39.52,9.42933333 39.5653333,9.6 39.656,9.696 C39.7466667,9.792 39.84,9.84 39.936,9.84 C39.9893333,9.84 40.0346667,9.84 40.072,9.84 C40.1093333,9.84 40.16,9.82933333 40.224,9.808 L40.512,11.552 C40.384,11.6053333 40.2213333,11.6506667 40.024,11.688 C39.8266667,11.7253333 39.5946667,11.744 39.328,11.744 Z" id="Path"></path>
                <path d="M47.28,11.744 C46.7573333,11.744 46.2213333,11.6426667 45.672,11.44 C45.1226667,11.2373333 44.6453333,10.9706667 44.24,10.64 L45.296,9.168 C45.6586667,9.44533333 46.0053333,9.65333333 46.336,9.792 C46.6666667,9.93066667 47.0026667,10 47.344,10 C47.696,10 47.952,9.94133333 48.112,9.824 C48.272,9.70666667 48.352,9.54133333 48.352,9.328 C48.352,9.2 48.3066667,9.08533333 48.216,8.984 C48.1253333,8.88266667 48.0026667,8.78933333 47.848,8.704 C47.6933333,8.61866667 47.52,8.54133333 47.328,8.472 C47.136,8.40266667 46.9386667,8.32533333 46.736,8.24 C46.4906667,8.144 46.2453333,8.032 46,7.904 C45.7546667,7.776 45.5306667,7.61866667 45.328,7.432 C45.1253333,7.24533333 44.96,7.02666667 44.832,6.776 C44.704,6.52533333 44.64,6.23466667 44.64,5.904 C44.64,5.54133333 44.712,5.20533333 44.856,4.896 C45,4.58666667 45.2053333,4.32533333 45.472,4.112 C45.7386667,3.89866667 46.0586667,3.73066667 46.432,3.608 C46.8053333,3.48533333 47.2213333,3.424 47.68,3.424 C48.288,3.424 48.8213333,3.528 49.28,3.736 C49.7386667,3.944 50.1386667,4.176 50.48,4.432 L49.424,5.84 C49.136,5.62666667 48.8533333,5.46133333 48.576,5.344 C48.2986667,5.22666667 48.0213333,5.168 47.744,5.168 C47.1466667,5.168 46.848,5.376 46.848,5.792 C46.848,5.92 46.8906667,6.02933333 46.976,6.12 C47.0613333,6.21066667 47.176,6.29333333 47.32,6.368 C47.464,6.44266667 47.6293333,6.51466667 47.816,6.584 C48.0026667,6.65333333 48.1973333,6.72533333 48.4,6.8 C48.656,6.896 48.9093333,7.00533333 49.16,7.128 C49.4106667,7.25066667 49.64,7.40266667 49.848,7.584 C50.056,7.76533333 50.224,7.98666667 50.352,8.248 C50.48,8.50933333 50.544,8.82133333 50.544,9.184 C50.544,9.54666667 50.4746667,9.88266667 50.336,10.192 C50.1973333,10.5013333 49.9893333,10.7706667 49.712,11 C49.4346667,11.2293333 49.0933333,11.4106667 48.688,11.544 C48.2826667,11.6773333 47.8133333,11.744 47.28,11.744 Z" id="Path"></path>
                <path d="M54.768,11.744 C54.2773333,11.744 53.8586667,11.6693333 53.512,11.52 C53.1653333,11.3706667 52.8826667,11.1626667 52.664,10.896 C52.4453333,10.6293333 52.2853333,10.3066667 52.184,9.928 C52.0826667,9.54933333 52.032,9.13066667 52.032,8.672 L52.032,5.456 L50.944,5.456 L50.944,3.712 L52.16,3.616 L52.432,1.504 L54.384,1.504 L54.384,3.616 L56.288,3.616 L56.288,5.456 L54.384,5.456 L54.384,8.64 C54.384,9.088 54.4773333,9.41066667 54.664,9.608 C54.8506667,9.80533333 55.0986667,9.904 55.408,9.904 C55.536,9.904 55.6666667,9.888 55.8,9.856 C55.9333333,9.824 56.0533333,9.78666667 56.16,9.744 L56.528,11.456 C56.3146667,11.52 56.064,11.584 55.776,11.648 C55.488,11.712 55.152,11.744 54.768,11.744 Z" id="Path"></path>
                <path d="M59.52,11.744 C59.1573333,11.744 58.8293333,11.6826667 58.536,11.56 C58.2426667,11.4373333 57.9946667,11.2666667 57.792,11.048 C57.5893333,10.8293333 57.432,10.576 57.32,10.288 C57.208,10 57.152,9.68533333 57.152,9.344 C57.152,8.512 57.504,7.86133333 58.208,7.392 C58.912,6.92266667 60.048,6.608 61.616,6.448 C61.5946667,6.096 61.4906667,5.816 61.304,5.608 C61.1173333,5.4 60.8053333,5.296 60.368,5.296 C60.0266667,5.296 59.688,5.36 59.352,5.488 C59.016,5.616 58.656,5.792 58.272,6.016 L57.424,4.464 C57.936,4.15466667 58.472,3.904 59.032,3.712 C59.592,3.52 60.1866667,3.424 60.816,3.424 C61.84,3.424 62.6213333,3.71466667 63.16,4.296 C63.6986667,4.87733333 63.968,5.78133333 63.968,7.008 L63.968,11.552 L62.048,11.552 L61.888,10.736 L61.824,10.736 C61.4826667,11.0346667 61.1253333,11.2773333 60.752,11.464 C60.3786667,11.6506667 59.968,11.744 59.52,11.744 Z M60.32,9.92 C60.5866667,9.92 60.816,9.86133333 61.008,9.744 C61.2,9.62666667 61.4026667,9.46133333 61.616,9.248 L61.616,7.856 C60.784,7.97333333 60.208,8.144 59.888,8.368 C59.568,8.592 59.408,8.85866667 59.408,9.168 C59.408,9.424 59.4906667,9.61333333 59.656,9.736 C59.8213333,9.85866667 60.0426667,9.92 60.32,9.92 Z" id="Shape"></path>
                <path d="M68.72,11.744 C68.2293333,11.744 67.8106667,11.6693333 67.464,11.52 C67.1173333,11.3706667 66.8346667,11.1626667 66.616,10.896 C66.3973333,10.6293333 66.2373333,10.3066667 66.136,9.928 C66.0346667,9.54933333 65.984,9.13066667 65.984,8.672 L65.984,5.456 L64.896,5.456 L64.896,3.712 L66.112,3.616 L66.384,1.504 L68.336,1.504 L68.336,3.616 L70.24,3.616 L70.24,5.456 L68.336,5.456 L68.336,8.64 C68.336,9.088 68.4293333,9.41066667 68.616,9.608 C68.8026667,9.80533333 69.0506667,9.904 69.36,9.904 C69.488,9.904 69.6186667,9.888 69.752,9.856 C69.8853333,9.824 70.0053333,9.78666667 70.112,9.744 L70.48,11.456 C70.2666667,11.52 70.016,11.584 69.728,11.648 C69.44,11.712 69.104,11.744 68.72,11.744 Z" id="Path"></path>
                <path d="M75.056,11.744 C74.4906667,11.744 73.9626667,11.6506667 73.472,11.464 C72.9813333,11.2773333 72.5546667,11.0053333 72.192,10.648 C71.8293333,10.2906667 71.5466667,9.856 71.344,9.344 C71.1413333,8.832 71.04,8.24533333 71.04,7.584 C71.04,6.944 71.1466667,6.36533333 71.36,5.848 C71.5733333,5.33066667 71.8533333,4.89333333 72.2,4.536 C72.5466667,4.17866667 72.944,3.904 73.392,3.712 C73.84,3.52 74.304,3.424 74.784,3.424 C75.3493333,3.424 75.8426667,3.52 76.264,3.712 C76.6853333,3.904 77.0373333,4.17066667 77.32,4.512 C77.6026667,4.85333333 77.8133333,5.256 77.952,5.72 C78.0906667,6.184 78.16,6.688 78.16,7.232 C78.16,7.44533333 78.1493333,7.648 78.128,7.84 C78.1066667,8.032 78.0853333,8.176 78.064,8.272 L73.312,8.272 C73.4186667,8.848 73.656,9.272 74.024,9.544 C74.392,9.816 74.8426667,9.952 75.376,9.952 C75.9413333,9.952 76.512,9.776 77.088,9.424 L77.872,10.848 C77.4666667,11.1253333 77.016,11.344 76.52,11.504 C76.024,11.664 75.536,11.744 75.056,11.744 Z M73.296,6.72 L76.16,6.72 C76.16,6.272 76.0586667,5.90933333 75.856,5.632 C75.6533333,5.35466667 75.312,5.216 74.832,5.216 C74.4586667,5.216 74.1306667,5.33866667 73.848,5.584 C73.5653333,5.82933333 73.3813333,6.208 73.296,6.72 Z" id="Shape"></path>
                <path d="M86.4,11.744 C85.8986667,11.744 85.4133333,11.6506667 84.944,11.464 C84.4746667,11.2773333 84.0613333,11.008 83.704,10.656 C83.3466667,10.304 83.0613333,9.86933333 82.848,9.352 C82.6346667,8.83466667 82.528,8.24533333 82.528,7.584 C82.528,6.92266667 82.6346667,6.33333333 82.848,5.816 C83.0613333,5.29866667 83.3466667,4.864 83.704,4.512 C84.0613333,4.16 84.4746667,3.89066667 84.944,3.704 C85.4133333,3.51733333 85.8986667,3.424 86.4,3.424 C86.9013333,3.424 87.384,3.51733333 87.848,3.704 C88.312,3.89066667 88.7226667,4.16 89.08,4.512 C89.4373333,4.864 89.7226667,5.29866667 89.936,5.816 C90.1493333,6.33333333 90.256,6.92266667 90.256,7.584 C90.256,8.24533333 90.1493333,8.83466667 89.936,9.352 C89.7226667,9.86933333 89.4373333,10.304 89.08,10.656 C88.7226667,11.008 88.312,11.2773333 87.848,11.464 C87.384,11.6506667 86.9013333,11.744 86.4,11.744 Z M86.4,9.84 C86.88,9.84 87.2426667,9.63733333 87.488,9.232 C87.7333333,8.82666667 87.856,8.27733333 87.856,7.584 C87.856,6.89066667 87.7333333,6.34133333 87.488,5.936 C87.2426667,5.53066667 86.88,5.328 86.4,5.328 C85.9093333,5.328 85.544,5.53066667 85.304,5.936 C85.064,6.34133333 84.944,6.89066667 84.944,7.584 C84.944,8.27733333 85.064,8.82666667 85.304,9.232 C85.544,9.63733333 85.9093333,9.84 86.4,9.84 Z" id="Shape"></path>
                <path d="M92.192,11.552 L92.192,5.456 L91.136,5.456 L91.136,3.712 L92.192,3.632 L92.192,3.2 C92.192,2.784 92.2426667,2.38933333 92.344,2.016 C92.4453333,1.64266667 92.6133333,1.31733333 92.848,1.04 C93.0826667,0.762666667 93.3866667,0.544 93.76,0.384 C94.1333333,0.224 94.5866667,0.144 95.12,0.144 C95.4506667,0.144 95.752,0.176 96.024,0.24 C96.296,0.304 96.5226667,0.368 96.704,0.432 L96.272,2.16 C95.9733333,2.05333333 95.7013333,2 95.456,2 C95.168,2 94.944,2.088 94.784,2.264 C94.624,2.44 94.544,2.73066667 94.544,3.136 L94.544,3.616 L95.968,3.616 L95.968,5.456 L94.544,5.456 L94.544,11.552 L92.192,11.552 Z" id="Path"></path>
                <path d="M15.896,31.744 C15.4053333,31.744 14.9866667,31.6693333 14.64,31.52 C14.2933333,31.3706667 14.0106667,31.1626667 13.792,30.896 C13.5733333,30.6293333 13.4133333,30.3066667 13.312,29.928 C13.2106667,29.5493333 13.16,29.1306667 13.16,28.672 L13.16,25.456 L12.072,25.456 L12.072,23.712 L13.288,23.616 L13.56,21.504 L15.512,21.504 L15.512,23.616 L17.416,23.616 L17.416,25.456 L15.512,25.456 L15.512,28.64 C15.512,29.088 15.6053333,29.4106667 15.792,29.608 C15.9786667,29.8053333 16.2266667,29.904 16.536,29.904 C16.664,29.904 16.7946667,29.888 16.928,29.856 C17.0613333,29.824 17.1813333,29.7866667 17.288,29.744 L17.656,31.456 C17.4426667,31.52 17.192,31.584 16.904,31.648 C16.616,31.712 16.28,31.744 15.896,31.744 Z" id="Path"></path>
                <path d="M18.968,31.552 L18.968,20.336 L21.32,20.336 L21.32,23.088 L21.208,24.512 C21.5066667,24.2453333 21.8533333,23.9973333 22.248,23.768 C22.6426667,23.5386667 23.112,23.424 23.656,23.424 C24.52,23.424 25.1466667,23.7066667 25.536,24.272 C25.9253333,24.8373333 26.12,25.6213333 26.12,26.624 L26.12,31.552 L23.768,31.552 L23.768,26.928 C23.768,26.352 23.6906667,25.9573333 23.536,25.744 C23.3813333,25.5306667 23.1333333,25.424 22.792,25.424 C22.4933333,25.424 22.2373333,25.4906667 22.024,25.624 C21.8106667,25.7573333 21.576,25.9466667 21.32,26.192 L21.32,31.552 L18.968,31.552 Z" id="Path"></path>
                <path d="M31.656,31.744 C31.0906667,31.744 30.5626667,31.6506667 30.072,31.464 C29.5813333,31.2773333 29.1546667,31.0053333 28.792,30.648 C28.4293333,30.2906667 28.1466667,29.856 27.944,29.344 C27.7413333,28.832 27.64,28.2453333 27.64,27.584 C27.64,26.944 27.7466667,26.3653333 27.96,25.848 C28.1733333,25.3306667 28.4533333,24.8933333 28.8,24.536 C29.1466667,24.1786667 29.544,23.904 29.992,23.712 C30.44,23.52 30.904,23.424 31.384,23.424 C31.9493333,23.424 32.4426667,23.52 32.864,23.712 C33.2853333,23.904 33.6373333,24.1706667 33.92,24.512 C34.2026667,24.8533333 34.4133333,25.256 34.552,25.72 C34.6906667,26.184 34.76,26.688 34.76,27.232 C34.76,27.4453333 34.7493333,27.648 34.728,27.84 C34.7066667,28.032 34.6853333,28.176 34.664,28.272 L29.912,28.272 C30.0186667,28.848 30.256,29.272 30.624,29.544 C30.992,29.816 31.4426667,29.952 31.976,29.952 C32.5413333,29.952 33.112,29.776 33.688,29.424 L34.472,30.848 C34.0666667,31.1253333 33.616,31.344 33.12,31.504 C32.624,31.664 32.136,31.744 31.656,31.744 Z M29.896,26.72 L32.76,26.72 C32.76,26.272 32.6586667,25.9093333 32.456,25.632 C32.2533333,25.3546667 31.912,25.216 31.432,25.216 C31.0586667,25.216 30.7306667,25.3386667 30.448,25.584 C30.1653333,25.8293333 29.9813333,26.208 29.896,26.72 Z" id="Shape"></path>
                <path d="M39.592,31.552 L39.592,23.616 L41.512,23.616 L41.672,24.64 L41.736,24.64 C42.0666667,24.3093333 42.4186667,24.024 42.792,23.784 C43.1653333,23.544 43.6133333,23.424 44.136,23.424 C44.7013333,23.424 45.1573333,23.5386667 45.504,23.768 C45.8506667,23.9973333 46.1253333,24.3253333 46.328,24.752 C46.68,24.3893333 47.0506667,24.0773333 47.44,23.816 C47.8293333,23.5546667 48.2906667,23.424 48.824,23.424 C49.6773333,23.424 50.304,23.7093333 50.704,24.28 C51.104,24.8506667 51.304,25.632 51.304,26.624 L51.304,31.552 L48.952,31.552 L48.952,26.928 C48.952,26.352 48.8746667,25.9573333 48.72,25.744 C48.5653333,25.5306667 48.3173333,25.424 47.976,25.424 C47.5813333,25.424 47.128,25.68 46.616,26.192 L46.616,31.552 L44.264,31.552 L44.264,26.928 C44.264,26.352 44.1866667,25.9573333 44.032,25.744 C43.8773333,25.5306667 43.6293333,25.424 43.288,25.424 C42.8826667,25.424 42.4346667,25.68 41.944,26.192 L41.944,31.552 L39.592,31.552 Z" id="Path"></path>
                <path d="M56.712,31.744 C56.2106667,31.744 55.7253333,31.6506667 55.256,31.464 C54.7866667,31.2773333 54.3733333,31.008 54.016,30.656 C53.6586667,30.304 53.3733333,29.8693333 53.16,29.352 C52.9466667,28.8346667 52.84,28.2453333 52.84,27.584 C52.84,26.9226667 52.9466667,26.3333333 53.16,25.816 C53.3733333,25.2986667 53.6586667,24.864 54.016,24.512 C54.3733333,24.16 54.7866667,23.8906667 55.256,23.704 C55.7253333,23.5173333 56.2106667,23.424 56.712,23.424 C57.2133333,23.424 57.696,23.5173333 58.16,23.704 C58.624,23.8906667 59.0346667,24.16 59.392,24.512 C59.7493333,24.864 60.0346667,25.2986667 60.248,25.816 C60.4613333,26.3333333 60.568,26.9226667 60.568,27.584 C60.568,28.2453333 60.4613333,28.8346667 60.248,29.352 C60.0346667,29.8693333 59.7493333,30.304 59.392,30.656 C59.0346667,31.008 58.624,31.2773333 58.16,31.464 C57.696,31.6506667 57.2133333,31.744 56.712,31.744 Z M56.712,29.84 C57.192,29.84 57.5546667,29.6373333 57.8,29.232 C58.0453333,28.8266667 58.168,28.2773333 58.168,27.584 C58.168,26.8906667 58.0453333,26.3413333 57.8,25.936 C57.5546667,25.5306667 57.192,25.328 56.712,25.328 C56.2213333,25.328 55.856,25.5306667 55.616,25.936 C55.376,26.3413333 55.256,26.8906667 55.256,27.584 C55.256,28.2773333 55.376,28.8266667 55.616,29.232 C55.856,29.6373333 56.2213333,29.84 56.712,29.84 Z" id="Shape"></path>
                <path d="M65.016,31.744 C64.5253333,31.744 64.08,31.648 63.68,31.456 C63.28,31.264 62.9386667,30.9893333 62.656,30.632 C62.3733333,30.2746667 62.1546667,29.84 62,29.328 C61.8453333,28.816 61.768,28.2346667 61.768,27.584 C61.768,26.9333333 61.8613333,26.352 62.048,25.84 C62.2346667,25.328 62.48,24.8933333 62.784,24.536 C63.088,24.1786667 63.44,23.904 63.84,23.712 C64.24,23.52 64.648,23.424 65.064,23.424 C65.512,23.424 65.88,23.4986667 66.168,23.648 C66.456,23.7973333 66.7386667,24 67.016,24.256 L66.92,23.04 L66.92,20.336 L69.272,20.336 L69.272,31.552 L67.352,31.552 L67.192,30.768 L67.128,30.768 C66.8506667,31.0453333 66.5253333,31.2773333 66.152,31.464 C65.7786667,31.6506667 65.4,31.744 65.016,31.744 Z M65.624,29.824 C65.88,29.824 66.112,29.7706667 66.32,29.664 C66.528,29.5573333 66.728,29.3706667 66.92,29.104 L66.92,25.856 C66.7066667,25.664 66.488,25.5306667 66.264,25.456 C66.04,25.3813333 65.8213333,25.344 65.608,25.344 C65.2346667,25.344 64.904,25.5226667 64.616,25.88 C64.328,26.2373333 64.184,26.7946667 64.184,27.552 C64.184,28.3413333 64.3093333,28.9173333 64.56,29.28 C64.8106667,29.6426667 65.1653333,29.824 65.624,29.824 Z" id="Shape"></path>
                <path d="M74.904,31.744 C74.3386667,31.744 73.8106667,31.6506667 73.32,31.464 C72.8293333,31.2773333 72.4026667,31.0053333 72.04,30.648 C71.6773333,30.2906667 71.3946667,29.856 71.192,29.344 C70.9893333,28.832 70.888,28.2453333 70.888,27.584 C70.888,26.944 70.9946667,26.3653333 71.208,25.848 C71.4213333,25.3306667 71.7013333,24.8933333 72.048,24.536 C72.3946667,24.1786667 72.792,23.904 73.24,23.712 C73.688,23.52 74.152,23.424 74.632,23.424 C75.1973333,23.424 75.6906667,23.52 76.112,23.712 C76.5333333,23.904 76.8853333,24.1706667 77.168,24.512 C77.4506667,24.8533333 77.6613333,25.256 77.8,25.72 C77.9386667,26.184 78.008,26.688 78.008,27.232 C78.008,27.4453333 77.9973333,27.648 77.976,27.84 C77.9546667,28.032 77.9333333,28.176 77.912,28.272 L73.16,28.272 C73.2666667,28.848 73.504,29.272 73.872,29.544 C74.24,29.816 74.6906667,29.952 75.224,29.952 C75.7893333,29.952 76.36,29.776 76.936,29.424 L77.72,30.848 C77.3146667,31.1253333 76.864,31.344 76.368,31.504 C75.872,31.664 75.384,31.744 74.904,31.744 Z M73.144,26.72 L76.008,26.72 C76.008,26.272 75.9066667,25.9093333 75.704,25.632 C75.5013333,25.3546667 75.16,25.216 74.68,25.216 C74.3066667,25.216 73.9786667,25.3386667 73.696,25.584 C73.4133333,25.8293333 73.2293333,26.208 73.144,26.72 Z" id="Shape"></path>
                <path d="M81.8,31.744 C81.3946667,31.744 81.0533333,31.68 80.776,31.552 C80.4986667,31.424 80.2773333,31.2453333 80.112,31.016 C79.9466667,30.7866667 79.8266667,30.5093333 79.752,30.184 C79.6773333,29.8586667 79.64,29.4933333 79.64,29.088 L79.64,20.336 L81.992,20.336 L81.992,29.184 C81.992,29.4293333 82.0373333,29.6 82.128,29.696 C82.2186667,29.792 82.312,29.84 82.408,29.84 C82.4613333,29.84 82.5066667,29.84 82.544,29.84 C82.5813333,29.84 82.632,29.8293333 82.696,29.808 L82.984,31.552 C82.856,31.6053333 82.6933333,31.6506667 82.496,31.688 C82.2986667,31.7253333 82.0666667,31.744 81.8,31.744 Z" id="Path"></path>
            </g>
        </g>
    </g>
</svg>