<svg xmlns="http://www.w3.org/2000/svg" xmlns:xlink="http://www.w3.org/1999/xlink" viewBox="0 0 612 381">
  <defs>
    <rect id="a" x="0" y="28" width="351" height="283" rx="19"/>
    <rect id="b" x="372" y="28" width="204" height="283" rx="19"/>
    <rect id="f" x="0" y="0" width="513" height="57" rx="5"/>
    <rect id="h" x="0" y="0" width="134" height="57" rx="5"/>
    <rect id="j" x="0" y="0" width="298" height="57" rx="5"/>
    <filter x="-.4%" y="-3.5%" width="101.6%" height="114%" filterUnits="objectBoundingBox" id="e">
      <feOffset dx="4" dy="4" in="SourceAlpha" result="shadowOffsetOuter1"/>
      <feComposite in="shadowOffsetOuter1" in2="SourceAlpha" operator="out" result="shadowOffsetOuter1"/>
      <feColorMatrix values="0 0 0 0 0.947998489 0 0 0 0 0.911066086 0 0 0 0 0.942601206 0 0 0 1 0" in="shadowOffsetOuter1"/>
    </filter>
    <filter x="-1.5%" y="-3.5%" width="106%" height="114%" filterUnits="objectBoundingBox" id="g">
      <feOffset dx="4" dy="4" in="SourceAlpha" result="shadowOffsetOuter1"/>
      <feComposite in="shadowOffsetOuter1" in2="SourceAlpha" operator="out" result="shadowOffsetOuter1"/>
      <feColorMatrix values="0 0 0 0 0.947998489 0 0 0 0 0.934415808 0 0 0 0 0.911066086 0 0 0 1 0" in="shadowOffsetOuter1"/>
    </filter>
    <filter x="-.7%" y="-3.5%" width="102.7%" height="114%" filterUnits="objectBoundingBox" id="i">
      <feOffset dx="4" dy="4" in="SourceAlpha" result="shadowOffsetOuter1"/>
      <feComposite in="shadowOffsetOuter1" in2="SourceAlpha" operator="out" result="shadowOffsetOuter1"/>
      <feColorMatrix values="0 0 0 0 0.947998489 0 0 0 0 0.934415808 0 0 0 0 0.911066086 0 0 0 1 0" in="shadowOffsetOuter1"/>
    </filter>
    <mask id="c" maskContentUnits="userSpaceOnUse" maskUnits="objectBoundingBox" x="0" y="0" width="351" height="283" fill="#fff">
      <use xlink:href="#a"/>
    </mask>
    <mask id="d" maskContentUnits="userSpaceOnUse" maskUnits="objectBoundingBox" x="0" y="0" width="204" height="283" fill="#fff">
      <use xlink:href="#b"/>
    </mask>
  </defs>
  <g transform="translate(18 20)" fill="none" fill-rule="evenodd">
    <use stroke="#797979" mask="url(#c)" stroke-width="4" fill="#F6F6F6" stroke-dasharray="8,4" xlink:href="#a"/>
    <use stroke="#797979" mask="url(#d)" stroke-width="4" fill="#F6F6F6" stroke-dasharray="8,4" xlink:href="#b"/>
    <g fill="#252525" fill-rule="nonzero">
      <path d="M130.624 341v-10.432h2.944c.8 0 1.52.101 2.16.304.64.203 1.19.515 1.648.936.459.421.81.957 1.056 1.608.245.65.368 1.424.368 2.32 0 .896-.123 1.675-.368 2.336-.245.661-.592 1.208-1.04 1.64a4.273 4.273 0 0 1-1.608.968c-.624.213-1.32.32-2.088.32h-3.072Zm2.352-1.904h.448c.448 0 .853-.059 1.216-.176.363-.117.672-.307.928-.568.256-.261.456-.605.6-1.032.144-.427.216-.955.216-1.584 0-.619-.072-1.139-.216-1.56-.144-.421-.344-.757-.6-1.008a2.183 2.183 0 0 0-.928-.536 4.304 4.304 0 0 0-1.216-.16h-.448v6.624ZM142.592 341.192c-.363 0-.69-.061-.984-.184a2.108 2.108 0 0 1-.744-.512 2.37 2.37 0 0 1-.472-.76 2.583 2.583 0 0 1-.168-.944c0-.832.352-1.483 1.056-1.952.704-.47 1.84-.784 3.408-.944-.021-.352-.125-.632-.312-.84-.187-.208-.499-.312-.936-.312-.341 0-.68.064-1.016.192a7.384 7.384 0 0 0-1.08.528l-.848-1.552a8.32 8.32 0 0 1 1.608-.752 5.463 5.463 0 0 1 1.784-.288c1.024 0 1.805.29 2.344.872.539.581.808 1.485.808 2.712V341h-1.92l-.16-.816h-.064a5.078 5.078 0 0 1-1.072.728c-.373.187-.784.28-1.232.28Zm.8-1.824c.267 0 .496-.059.688-.176.192-.117.395-.283.608-.496v-1.392c-.832.117-1.408.288-1.728.512-.32.224-.48.49-.48.8 0 .256.083.445.248.568.165.123.387.184.664.184ZM151.792 341.192c-.49 0-.91-.075-1.256-.224a2.2 2.2 0 0 1-.848-.624 2.539 2.539 0 0 1-.48-.968 4.854 4.854 0 0 1-.152-1.256v-3.216h-1.088v-1.744l1.216-.096.272-2.112h1.952v2.112h1.904v1.84h-1.904v3.184c0 .448.093.77.28.968.187.197.435.296.744.296.128 0 .259-.016.392-.048s.253-.07.36-.112l.368 1.712a10.82 10.82 0 0 1-.752.192 4.687 4.687 0 0 1-1.008.096ZM156.544 341.192c-.363 0-.69-.061-.984-.184a2.108 2.108 0 0 1-.744-.512 2.37 2.37 0 0 1-.472-.76 2.583 2.583 0 0 1-.168-.944c0-.832.352-1.483 1.056-1.952.704-.47 1.84-.784 3.408-.944-.021-.352-.125-.632-.312-.84-.187-.208-.499-.312-.936-.312-.341 0-.68.064-1.016.192a7.384 7.384 0 0 0-1.08.528l-.848-1.552a8.32 8.32 0 0 1 1.608-.752 5.463 5.463 0 0 1 1.784-.288c1.024 0 1.805.29 2.344.872.539.581.808 1.485.808 2.712V341h-1.92l-.16-.816h-.064a5.078 5.078 0 0 1-1.072.728c-.373.187-.784.28-1.232.28Zm.8-1.824c.267 0 .496-.059.688-.176.192-.117.395-.283.608-.496v-1.392c-.832.117-1.408.288-1.728.512-.32.224-.48.49-.48.8 0 .256.083.445.248.568.165.123.387.184.664.184ZM166.176 343.944v-10.88h1.92l.16.784h.064c.31-.277.659-.51 1.048-.696.39-.187.792-.28 1.208-.28.48 0 .912.096 1.296.288.384.192.71.464.976.816.267.352.472.776.616 1.272a5.93 5.93 0 0 1 .216 1.656c0 .683-.093 1.288-.28 1.816a4.195 4.195 0 0 1-.752 1.344 3.268 3.268 0 0 1-1.072.84c-.4.192-.813.288-1.24.288-.341 0-.672-.072-.992-.216a3.168 3.168 0 0 1-.896-.616l.08 1.264v2.32h-2.352Zm3.616-4.672c.405 0 .752-.184 1.04-.552.288-.368.432-.963.432-1.784 0-1.43-.459-2.144-1.376-2.144-.459 0-.912.24-1.36.72v3.248c.213.192.427.325.64.4.213.075.421.112.624.112ZM175.344 341v-7.936h2.352V341h-2.352Zm1.168-9.104c-.395 0-.72-.115-.976-.344a1.137 1.137 0 0 1-.384-.888c0-.363.128-.656.384-.88.256-.224.581-.336.976-.336.405 0 .733.112.984.336.25.224.376.517.376.88s-.125.659-.376.888c-.25.23-.579.344-.984.344ZM179.76 343.944v-10.88h1.92l.16.784h.064c.31-.277.659-.51 1.048-.696.39-.187.792-.28 1.208-.28.48 0 .912.096 1.296.288.384.192.71.464.976.816.267.352.472.776.616 1.272a5.93 5.93 0 0 1 .216 1.656c0 .683-.093 1.288-.28 1.816a4.195 4.195 0 0 1-.752 1.344 3.268 3.268 0 0 1-1.072.84c-.4.192-.813.288-1.24.288-.341 0-.672-.072-.992-.216a3.168 3.168 0 0 1-.896-.616l.08 1.264v2.32h-2.352Zm3.616-4.672c.405 0 .752-.184 1.04-.552.288-.368.432-.963.432-1.784 0-1.43-.459-2.144-1.376-2.144-.459 0-.912.24-1.36.72v3.248c.213.192.427.325.64.4.213.075.421.112.624.112ZM192.48 341.192a4.418 4.418 0 0 1-1.584-.28 3.65 3.65 0 0 1-1.28-.816 3.731 3.731 0 0 1-.848-1.304c-.203-.512-.304-1.099-.304-1.76 0-.64.107-1.219.32-1.736.213-.517.493-.955.84-1.312a3.651 3.651 0 0 1 1.192-.824 3.5 3.5 0 0 1 1.392-.288c.565 0 1.059.096 1.48.288.421.192.773.459 1.056.8.283.341.493.744.632 1.208.139.464.208.968.208 1.512a5.51 5.51 0 0 1-.096 1.04h-4.752c.107.576.344 1 .712 1.272s.819.408 1.352.408c.565 0 1.136-.176 1.712-.528l.784 1.424a5.212 5.212 0 0 1-1.352.656 4.75 4.75 0 0 1-1.464.24Zm-1.76-5.024h2.864c0-.448-.101-.81-.304-1.088-.203-.277-.544-.416-1.024-.416-.373 0-.701.123-.984.368-.283.245-.467.624-.552 1.136ZM199.376 341.192c-.405 0-.747-.064-1.024-.192a1.654 1.654 0 0 1-.664-.536 2.276 2.276 0 0 1-.36-.832 4.913 4.913 0 0 1-.112-1.096v-8.752h2.352v8.848c0 .245.045.416.136.512.09.096.184.144.28.144h.136c.037 0 .088-.01.152-.032l.288 1.744a2.5 2.5 0 0 1-.488.136c-.197.037-.43.056-.696.056ZM201.792 341v-7.936h2.352V341h-2.352Zm1.168-9.104c-.395 0-.72-.115-.976-.344a1.137 1.137 0 0 1-.384-.888c0-.363.128-.656.384-.88.256-.224.581-.336.976-.336.405 0 .733.112.984.336.25.224.376.517.376.88s-.125.659-.376.888c-.25.23-.579.344-.984.344ZM206.208 341v-7.936h1.92l.16 1.008h.064a6.4 6.4 0 0 1 1.12-.84c.405-.24.88-.36 1.424-.36.864 0 1.49.283 1.88.848.39.565.584 1.35.584 2.352V341h-2.352v-4.624c0-.576-.077-.97-.232-1.184-.155-.213-.403-.32-.744-.32a1.42 1.42 0 0 0-.768.2 4.496 4.496 0 0 0-.704.568V341h-2.352ZM218.912 341.192a4.418 4.418 0 0 1-1.584-.28 3.65 3.65 0 0 1-1.28-.816 3.731 3.731 0 0 1-.848-1.304c-.203-.512-.304-1.099-.304-1.76 0-.64.107-1.219.32-1.736.213-.517.493-.955.84-1.312a3.651 3.651 0 0 1 1.192-.824 3.5 3.5 0 0 1 1.392-.288c.565 0 1.059.096 1.48.288.421.192.773.459 1.056.8.283.341.493.744.632 1.208.139.464.208.968.208 1.512a5.51 5.51 0 0 1-.096 1.04h-4.752c.107.576.344 1 .712 1.272s.819.408 1.352.408c.565 0 1.136-.176 1.712-.528l.784 1.424a5.212 5.212 0 0 1-1.352.656 4.75 4.75 0 0 1-1.464.24Zm-1.76-5.024h2.864c0-.448-.101-.81-.304-1.088-.203-.277-.544-.416-1.024-.416-.373 0-.701.123-.984.368-.283.245-.467.624-.552 1.136Z"/>
    </g>
    <g transform="translate(419.68 329.448)" fill="#252525" fill-rule="nonzero">
      <polygon points="0 11.552 0 1.12 6.528 1.12 6.528 3.104 2.352 3.104 2.352 5.2 5.904 5.2 5.904 7.168 2.352 7.168 2.352 9.568 6.688 9.568 6.688 11.552"/>
      <path d="M11.248 11.744c-.49 0-.936-.096-1.336-.288a2.883 2.883 0 0 1-1.024-.824 3.891 3.891 0 0 1-.656-1.304A6.03 6.03 0 0 1 8 7.584c0-.65.093-1.232.28-1.744.187-.512.432-.947.736-1.304a3.192 3.192 0 0 1 1.056-.824 2.8 2.8 0 0 1 1.224-.288c.448 0 .816.075 1.104.224.288.15.57.352.848.608l-.096-1.216V.336h2.352v11.216h-1.92l-.16-.784h-.064a3.72 3.72 0 0 1-.976.696c-.373.187-.752.28-1.136.28Zm.608-1.92c.256 0 .488-.053.696-.16.208-.107.408-.293.6-.56V5.856a1.876 1.876 0 0 0-.656-.4 2.068 2.068 0 0 0-.656-.112c-.373 0-.704.179-.992.536-.288.357-.432.915-.432 1.672 0 .79.125 1.365.376 1.728.25.363.605.544 1.064.544ZM17.584 11.552V3.616h2.352v7.936h-2.352Zm1.168-9.104c-.395 0-.72-.115-.976-.344a1.137 1.137 0 0 1-.384-.888c0-.363.128-.656.384-.88.256-.224.581-.336.976-.336.405 0 .733.112.984.336.25.224.376.517.376.88s-.125.659-.376.888c-.25.23-.579.344-.984.344ZM25.056 11.744c-.49 0-.91-.075-1.256-.224a2.2 2.2 0 0 1-.848-.624 2.539 2.539 0 0 1-.48-.968 4.854 4.854 0 0 1-.152-1.256V5.456h-1.088V3.712l1.216-.096.272-2.112h1.952v2.112h1.904v1.84h-1.904V8.64c0 .448.093.77.28.968.187.197.435.296.744.296.128 0 .259-.016.392-.048s.253-.07.36-.112l.368 1.712a10.82 10.82 0 0 1-.752.192 4.687 4.687 0 0 1-1.008.096ZM28.128 11.552V3.616h2.352v7.936h-2.352Zm1.168-9.104c-.395 0-.72-.115-.976-.344a1.137 1.137 0 0 1-.384-.888c0-.363.128-.656.384-.88.256-.224.581-.336.976-.336.405 0 .733.112.984.336.25.224.376.517.376.88s-.125.659-.376.888c-.25.23-.579.344-.984.344ZM32.544 11.552V3.616h1.92l.16 1.008h.064a6.4 6.4 0 0 1 1.12-.84c.405-.24.88-.36 1.424-.36.864 0 1.49.283 1.88.848.39.565.584 1.35.584 2.352v4.928h-2.352V6.928c0-.576-.077-.97-.232-1.184-.155-.213-.403-.32-.744-.32a1.42 1.42 0 0 0-.768.2 4.496 4.496 0 0 0-.704.568v5.36h-2.352ZM44.528 14.928c-.47 0-.904-.04-1.304-.12-.4-.08-.752-.2-1.056-.36a1.895 1.895 0 0 1-.712-.624 1.606 1.606 0 0 1-.256-.912c0-.64.379-1.173 1.136-1.6v-.064a1.78 1.78 0 0 1-.528-.528c-.139-.213-.208-.485-.208-.816 0-.288.085-.563.256-.824.17-.261.384-.483.64-.664v-.064c-.277-.192-.525-.467-.744-.824a2.328 2.328 0 0 1-.328-1.24c0-.48.09-.899.272-1.256.181-.357.424-.656.728-.896s.653-.419 1.048-.536a4.3 4.3 0 0 1 1.232-.176c.47 0 .88.064 1.232.192h2.896v1.712h-1.264c.075.117.136.267.184.448.048.181.072.379.072.592 0 .459-.08.856-.24 1.192-.16.336-.381.613-.664.832a2.877 2.877 0 0 1-.992.488c-.379.107-.787.16-1.224.16-.31 0-.63-.053-.96-.16a.803.803 0 0 0-.224.256.754.754 0 0 0-.064.336c0 .203.088.352.264.448.176.096.488.144.936.144h1.28c.981 0 1.73.157 2.248.472.517.315.776.83.776 1.544 0 .416-.104.797-.312 1.144a2.788 2.788 0 0 1-.888.896c-.384.25-.848.448-1.392.592a7.2 7.2 0 0 1-1.84.216Zm.176-7.312c.31 0 .568-.11.776-.328.208-.219.312-.552.312-1 0-.416-.104-.733-.312-.952a1.027 1.027 0 0 0-.776-.328c-.31 0-.568.107-.776.32-.208.213-.312.533-.312.96 0 .448.104.781.312 1 .208.219.467.328.776.328Zm.192 5.84c.533 0 .97-.093 1.312-.28.341-.187.512-.419.512-.696 0-.245-.104-.41-.312-.496-.208-.085-.51-.128-.904-.128h-.816a7.51 7.51 0 0 1-.672-.024c-.17-.016-.32-.04-.448-.072-.288.256-.432.517-.432.784 0 .299.16.525.48.68.32.155.747.232 1.28.232ZM53.44 14.496V3.616h1.92l.16.784h.064c.31-.277.659-.51 1.048-.696.39-.187.792-.28 1.208-.28.48 0 .912.096 1.296.288.384.192.71.464.976.816.267.352.472.776.616 1.272a5.93 5.93 0 0 1 .216 1.656c0 .683-.093 1.288-.28 1.816a4.195 4.195 0 0 1-.752 1.344 3.268 3.268 0 0 1-1.072.84c-.4.192-.813.288-1.24.288-.341 0-.672-.072-.992-.216a3.168 3.168 0 0 1-.896-.616l.08 1.264v2.32H53.44Zm3.616-4.672c.405 0 .752-.184 1.04-.552.288-.368.432-.963.432-1.784 0-1.43-.459-2.144-1.376-2.144-.459 0-.912.24-1.36.72v3.248c.213.192.427.325.64.4.213.075.421.112.624.112ZM62.608 11.552V3.616h2.352v7.936h-2.352Zm1.168-9.104c-.395 0-.72-.115-.976-.344a1.137 1.137 0 0 1-.384-.888c0-.363.128-.656.384-.88.256-.224.581-.336.976-.336.405 0 .733.112.984.336.25.224.376.517.376.88s-.125.659-.376.888c-.25.23-.579.344-.984.344ZM67.024 14.496V3.616h1.92l.16.784h.064c.31-.277.659-.51 1.048-.696.39-.187.792-.28 1.208-.28.48 0 .912.096 1.296.288.384.192.71.464.976.816.267.352.472.776.616 1.272a5.93 5.93 0 0 1 .216 1.656c0 .683-.093 1.288-.28 1.816a4.195 4.195 0 0 1-.752 1.344 3.268 3.268 0 0 1-1.072.84c-.4.192-.813.288-1.24.288-.341 0-.672-.072-.992-.216a3.168 3.168 0 0 1-.896-.616l.08 1.264v2.32h-2.352Zm3.616-4.672c.405 0 .752-.184 1.04-.552.288-.368.432-.963.432-1.784 0-1.43-.459-2.144-1.376-2.144-.459 0-.912.24-1.36.72v3.248c.213.192.427.325.64.4.213.075.421.112.624.112ZM79.744 11.744a4.418 4.418 0 0 1-1.584-.28 3.65 3.65 0 0 1-1.28-.816 3.731 3.731 0 0 1-.848-1.304c-.203-.512-.304-1.099-.304-1.76 0-.64.107-1.219.32-1.736.213-.517.493-.955.84-1.312a3.651 3.651 0 0 1 1.192-.824 3.5 3.5 0 0 1 1.392-.288c.565 0 1.059.096 1.48.288.421.192.773.459 1.056.8.283.341.493.744.632 1.208.139.464.208.968.208 1.512a5.51 5.51 0 0 1-.096 1.04H78c.107.576.344 1 .712 1.272s.819.408 1.352.408c.565 0 1.136-.176 1.712-.528l.784 1.424a5.212 5.212 0 0 1-1.352.656 4.75 4.75 0 0 1-1.464.24Zm-1.76-5.024h2.864c0-.448-.101-.81-.304-1.088-.203-.277-.544-.416-1.024-.416-.373 0-.701.123-.984.368-.283.245-.467.624-.552 1.136ZM86.64 11.744c-.405 0-.747-.064-1.024-.192a1.654 1.654 0 0 1-.664-.536 2.276 2.276 0 0 1-.36-.832 4.913 4.913 0 0 1-.112-1.096V.336h2.352v8.848c0 .245.045.416.136.512.09.096.184.144.28.144h.136c.037 0 .088-.01.152-.032l.288 1.744a2.5 2.5 0 0 1-.488.136c-.197.037-.43.056-.696.056ZM89.056 11.552V3.616h2.352v7.936h-2.352Zm1.168-9.104c-.395 0-.72-.115-.976-.344a1.137 1.137 0 0 1-.384-.888c0-.363.128-.656.384-.88.256-.224.581-.336.976-.336.405 0 .733.112.984.336.25.224.376.517.376.88s-.125.659-.376.888c-.25.23-.579.344-.984.344ZM93.472 11.552V3.616h1.92l.16 1.008h.064a6.4 6.4 0 0 1 1.12-.84c.405-.24.88-.36 1.424-.36.864 0 1.49.283 1.88.848.39.565.584 1.35.584 2.352v4.928h-2.352V6.928c0-.576-.077-.97-.232-1.184-.155-.213-.403-.32-.744-.32a1.42 1.42 0 0 0-.768.2 4.496 4.496 0 0 0-.704.568v5.36h-2.352ZM106.176 11.744a4.418 4.418 0 0 1-1.584-.28 3.65 3.65 0 0 1-1.28-.816 3.731 3.731 0 0 1-.848-1.304c-.203-.512-.304-1.099-.304-1.76 0-.64.107-1.219.32-1.736.213-.517.493-.955.84-1.312a3.651 3.651 0 0 1 1.192-.824 3.5 3.5 0 0 1 1.392-.288c.565 0 1.059.096 1.48.288.421.192.773.459 1.056.8.283.341.493.744.632 1.208.139.464.208.968.208 1.512a5.51 5.51 0 0 1-.096 1.04h-4.752c.107.576.344 1 .712 1.272s.819.408 1.352.408c.565 0 1.136-.176 1.712-.528l.784 1.424a5.212 5.212 0 0 1-1.352.656 4.75 4.75 0 0 1-1.464.24Zm-1.76-5.024h2.864c0-.448-.101-.81-.304-1.088-.203-.277-.544-.416-1.024-.416-.373 0-.701.123-.984.368-.283.245-.467.624-.552 1.136Z"/>
    </g>
    <g transform="translate(27)">
      <use fill="#000" filter="url(#e)" xlink:href="#f"/>
      <rect stroke="#363636" stroke-width="2" stroke-linejoin="square" fill="#F8BBD0" x="1" y="1" width="511" height="55" rx="5"/>
    </g>
    <g fill="#171717" fill-rule="nonzero">
      <path d="M263.18 34V23.568h2.576l1.68 4.64c.107.31.208.627.304.952.096.325.197.648.304.968h.064c.107-.32.205-.643.296-.968.09-.325.19-.643.296-.952l1.648-4.64h2.56V34h-2.144v-3.824c0-.256.01-.539.032-.848.021-.31.048-.621.08-.936l.096-.928c.032-.304.064-.584.096-.84h-.064l-.848 2.48-1.488 3.984h-1.296l-1.488-3.984-.832-2.48h-.064c.032.256.064.536.096.84l.096.928c.032.315.059.627.08.936.021.31.032.592.032.848V34h-2.112ZM278.588 34.192c-.501 0-.987-.093-1.456-.28a3.694 3.694 0 0 1-1.24-.808 3.878 3.878 0 0 1-.856-1.304c-.213-.517-.32-1.107-.32-1.768s.107-1.25.32-1.768c.213-.517.499-.952.856-1.304.357-.352.77-.621 1.24-.808a3.905 3.905 0 0 1 2.904 0c.464.187.875.456 1.232.808.357.352.643.787.856 1.304.213.517.32 1.107.32 1.768s-.107 1.25-.32 1.768a3.878 3.878 0 0 1-.856 1.304 3.714 3.714 0 0 1-1.232.808c-.464.187-.947.28-1.448.28Zm0-1.904c.48 0 .843-.203 1.088-.608.245-.405.368-.955.368-1.648s-.123-1.243-.368-1.648c-.245-.405-.608-.608-1.088-.608-.49 0-.856.203-1.096.608-.24.405-.36.955-.36 1.648s.12 1.243.36 1.648c.24.405.605.608 1.096.608ZM286.892 34.192c-.49 0-.936-.096-1.336-.288a2.883 2.883 0 0 1-1.024-.824 3.891 3.891 0 0 1-.656-1.304 6.03 6.03 0 0 1-.232-1.744c0-.65.093-1.232.28-1.744.187-.512.432-.947.736-1.304a3.192 3.192 0 0 1 1.056-.824 2.8 2.8 0 0 1 1.224-.288c.448 0 .816.075 1.104.224.288.15.57.352.848.608l-.096-1.216v-2.704h2.352V34h-1.92l-.16-.784h-.064a3.72 3.72 0 0 1-.976.696c-.373.187-.752.28-1.136.28Zm.608-1.92c.256 0 .488-.053.696-.16.208-.107.408-.293.6-.56v-3.248a1.876 1.876 0 0 0-.656-.4 2.068 2.068 0 0 0-.656-.112c-.373 0-.704.179-.992.536-.288.357-.432.915-.432 1.672 0 .79.125 1.365.376 1.728.25.363.605.544 1.064.544ZM296.78 34.192a4.418 4.418 0 0 1-1.584-.28 3.65 3.65 0 0 1-1.28-.816 3.731 3.731 0 0 1-.848-1.304c-.203-.512-.304-1.099-.304-1.76 0-.64.107-1.219.32-1.736.213-.517.493-.955.84-1.312a3.651 3.651 0 0 1 1.192-.824 3.5 3.5 0 0 1 1.392-.288c.565 0 1.059.096 1.48.288.421.192.773.459 1.056.8.283.341.493.744.632 1.208.139.464.208.968.208 1.512a5.51 5.51 0 0 1-.096 1.04h-4.752c.107.576.344 1 .712 1.272s.819.408 1.352.408c.565 0 1.136-.176 1.712-.528l.784 1.424a5.212 5.212 0 0 1-1.352.656 4.75 4.75 0 0 1-1.464.24Zm-1.76-5.024h2.864c0-.448-.101-.81-.304-1.088-.203-.277-.544-.416-1.024-.416-.373 0-.701.123-.984.368-.283.245-.467.624-.552 1.136ZM303.676 34.192c-.405 0-.747-.064-1.024-.192a1.654 1.654 0 0 1-.664-.536 2.276 2.276 0 0 1-.36-.832 4.913 4.913 0 0 1-.112-1.096v-8.752h2.352v8.848c0 .245.045.416.136.512.09.096.184.144.28.144h.136c.037 0 .088-.01.152-.032L304.86 34a2.5 2.5 0 0 1-.488.136c-.197.037-.43.056-.696.056Z"/>
    </g>
    <g transform="translate(407 228)">
      <use fill="#000" filter="url(#g)" xlink:href="#h"/>
      <rect stroke="#363636" stroke-width="2" stroke-linejoin="square" fill="#B2EBF2" x="1" y="1" width="132" height="55" rx="5"/>
    </g>
    <g transform="translate(431.72 250.448)" fill="#171717" fill-rule="nonzero">
      <polygon points="0 11.552 0 1.12 6.528 1.12 6.528 3.104 2.352 3.104 2.352 5.2 5.904 5.2 5.904 7.168 2.352 7.168 2.352 9.568 6.688 9.568 6.688 11.552"/>
      <path d="M11.248 11.744c-.49 0-.936-.096-1.336-.288a2.883 2.883 0 0 1-1.024-.824 3.891 3.891 0 0 1-.656-1.304A6.03 6.03 0 0 1 8 7.584c0-.65.093-1.232.28-1.744.187-.512.432-.947.736-1.304a3.192 3.192 0 0 1 1.056-.824 2.8 2.8 0 0 1 1.224-.288c.448 0 .816.075 1.104.224.288.15.57.352.848.608l-.096-1.216V.336h2.352v11.216h-1.92l-.16-.784h-.064a3.72 3.72 0 0 1-.976.696c-.373.187-.752.28-1.136.28Zm.608-1.92c.256 0 .488-.053.696-.16.208-.107.408-.293.6-.56V5.856a1.876 1.876 0 0 0-.656-.4 2.068 2.068 0 0 0-.656-.112c-.373 0-.704.179-.992.536-.288.357-.432.915-.432 1.672 0 .79.125 1.365.376 1.728.25.363.605.544 1.064.544ZM17.584 11.552V3.616h2.352v7.936h-2.352Zm1.168-9.104c-.395 0-.72-.115-.976-.344a1.137 1.137 0 0 1-.384-.888c0-.363.128-.656.384-.88.256-.224.581-.336.976-.336.405 0 .733.112.984.336.25.224.376.517.376.88s-.125.659-.376.888c-.25.23-.579.344-.984.344ZM25.056 11.744c-.49 0-.91-.075-1.256-.224a2.2 2.2 0 0 1-.848-.624 2.539 2.539 0 0 1-.48-.968 4.854 4.854 0 0 1-.152-1.256V5.456h-1.088V3.712l1.216-.096.272-2.112h1.952v2.112h1.904v1.84h-1.904V8.64c0 .448.093.77.28.968.187.197.435.296.744.296.128 0 .259-.016.392-.048s.253-.07.36-.112l.368 1.712a10.82 10.82 0 0 1-.752.192 4.687 4.687 0 0 1-1.008.096ZM28.128 11.552V3.616h2.352v7.936h-2.352Zm1.168-9.104c-.395 0-.72-.115-.976-.344a1.137 1.137 0 0 1-.384-.888c0-.363.128-.656.384-.88.256-.224.581-.336.976-.336.405 0 .733.112.984.336.25.224.376.517.376.88s-.125.659-.376.888c-.25.23-.579.344-.984.344ZM32.544 11.552V3.616h1.92l.16 1.008h.064a6.4 6.4 0 0 1 1.12-.84c.405-.24.88-.36 1.424-.36.864 0 1.49.283 1.88.848.39.565.584 1.35.584 2.352v4.928h-2.352V6.928c0-.576-.077-.97-.232-1.184-.155-.213-.403-.32-.744-.32a1.42 1.42 0 0 0-.768.2 4.496 4.496 0 0 0-.704.568v5.36h-2.352ZM44.528 14.928c-.47 0-.904-.04-1.304-.12-.4-.08-.752-.2-1.056-.36a1.895 1.895 0 0 1-.712-.624 1.606 1.606 0 0 1-.256-.912c0-.64.379-1.173 1.136-1.6v-.064a1.78 1.78 0 0 1-.528-.528c-.139-.213-.208-.485-.208-.816 0-.288.085-.563.256-.824.17-.261.384-.483.64-.664v-.064c-.277-.192-.525-.467-.744-.824a2.328 2.328 0 0 1-.328-1.24c0-.48.09-.899.272-1.256.181-.357.424-.656.728-.896s.653-.419 1.048-.536a4.3 4.3 0 0 1 1.232-.176c.47 0 .88.064 1.232.192h2.896v1.712h-1.264c.075.117.136.267.184.448.048.181.072.379.072.592 0 .459-.08.856-.24 1.192-.16.336-.381.613-.664.832a2.877 2.877 0 0 1-.992.488c-.379.107-.787.16-1.224.16-.31 0-.63-.053-.96-.16a.803.803 0 0 0-.224.256.754.754 0 0 0-.064.336c0 .203.088.352.264.448.176.096.488.144.936.144h1.28c.981 0 1.73.157 2.248.472.517.315.776.83.776 1.544 0 .416-.104.797-.312 1.144a2.788 2.788 0 0 1-.888.896c-.384.25-.848.448-1.392.592a7.2 7.2 0 0 1-1.84.216Zm.176-7.312c.31 0 .568-.11.776-.328.208-.219.312-.552.312-1 0-.416-.104-.733-.312-.952a1.027 1.027 0 0 0-.776-.328c-.31 0-.568.107-.776.32-.208.213-.312.533-.312.96 0 .448.104.781.312 1 .208.219.467.328.776.328Zm.192 5.84c.533 0 .97-.093 1.312-.28.341-.187.512-.419.512-.696 0-.245-.104-.41-.312-.496-.208-.085-.51-.128-.904-.128h-.816a7.51 7.51 0 0 1-.672-.024c-.17-.016-.32-.04-.448-.072-.288.256-.432.517-.432.784 0 .299.16.525.48.68.32.155.747.232 1.28.232ZM55.264 11.552l-2.672-7.936h2.368l1.024 3.744c.107.395.21.797.312 1.208.101.41.205.824.312 1.24h.064c.096-.416.195-.83.296-1.24.101-.41.205-.813.312-1.208l1.04-3.744h2.256l-2.592 7.936h-2.72ZM61.808 11.552V3.616h2.352v7.936h-2.352Zm1.168-9.104c-.395 0-.72-.115-.976-.344a1.137 1.137 0 0 1-.384-.888c0-.363.128-.656.384-.88.256-.224.581-.336.976-.336.405 0 .733.112.984.336.25.224.376.517.376.88s-.125.659-.376.888c-.25.23-.579.344-.984.344ZM69.776 11.744a4.418 4.418 0 0 1-1.584-.28 3.65 3.65 0 0 1-1.28-.816 3.731 3.731 0 0 1-.848-1.304c-.203-.512-.304-1.099-.304-1.76 0-.64.107-1.219.32-1.736.213-.517.493-.955.84-1.312a3.651 3.651 0 0 1 1.192-.824 3.5 3.5 0 0 1 1.392-.288c.565 0 1.059.096 1.48.288.421.192.773.459 1.056.8.283.341.493.744.632 1.208.139.464.208.968.208 1.512a5.51 5.51 0 0 1-.096 1.04h-4.752c.107.576.344 1 .712 1.272s.819.408 1.352.408c.565 0 1.136-.176 1.712-.528l.784 1.424a5.212 5.212 0 0 1-1.352.656 4.75 4.75 0 0 1-1.464.24Zm-1.76-5.024h2.864c0-.448-.101-.81-.304-1.088-.203-.277-.544-.416-1.024-.416-.373 0-.701.123-.984.368-.283.245-.467.624-.552 1.136ZM75.744 11.552 73.76 3.616h2.336l.768 3.68c.064.395.123.784.176 1.168.053.384.112.779.176 1.184h.064c.075-.405.147-.805.216-1.2.07-.395.152-.779.248-1.152l.88-3.68h2.032l.896 3.68c.096.395.181.784.256 1.168.075.384.155.779.24 1.184h.064c.075-.405.136-.8.184-1.184.048-.384.11-.773.184-1.168l.752-3.68h2.176l-1.904 7.936h-2.752l-.72-3.168c-.085-.373-.16-.747-.224-1.12a352.42 352.42 0 0 0-.208-1.2h-.064c-.075.427-.141.827-.2 1.2-.059.373-.125.747-.2 1.12l-.704 3.168h-2.688Z"/>
    </g>
    <path d="M474.02 50.5a7 7 0 0 1 .96 13.932l-.439 149.57 6 .019L473.5 228l-6.959-14.02 6 .017.438-149.57a7.002 7.002 0 0 1 1.042-13.927Z" fill="#282828" fill-rule="nonzero"/>
    <g transform="translate(392 123)">
      <rect stroke="#363636" stroke-width="2" fill="#FFF" x="1" y="1" width="162" height="37" rx="18.5"/>
      <g transform="translate(22.352 13.448)" fill="#171717" fill-rule="nonzero">
        <polygon points="0 11.552 0 1.12 6.528 1.12 6.528 3.104 2.352 3.104 2.352 5.2 5.904 5.2 5.904 7.168 2.352 7.168 2.352 9.568 6.688 9.568 6.688 11.552"/>
        <path d="M11.248 11.744c-.49 0-.936-.096-1.336-.288a2.883 2.883 0 0 1-1.024-.824 3.891 3.891 0 0 1-.656-1.304A6.03 6.03 0 0 1 8 7.584c0-.65.093-1.232.28-1.744.187-.512.432-.947.736-1.304a3.192 3.192 0 0 1 1.056-.824 2.8 2.8 0 0 1 1.224-.288c.448 0 .816.075 1.104.224.288.15.57.352.848.608l-.096-1.216V.336h2.352v11.216h-1.92l-.16-.784h-.064a3.72 3.72 0 0 1-.976.696c-.373.187-.752.28-1.136.28Zm.608-1.92c.256 0 .488-.053.696-.16.208-.107.408-.293.6-.56V5.856a1.876 1.876 0 0 0-.656-.4 2.068 2.068 0 0 0-.656-.112c-.373 0-.704.179-.992.536-.288.357-.432.915-.432 1.672 0 .79.125 1.365.376 1.728.25.363.605.544 1.064.544ZM17.584 11.552V3.616h2.352v7.936h-2.352Zm1.168-9.104c-.395 0-.72-.115-.976-.344a1.137 1.137 0 0 1-.384-.888c0-.363.128-.656.384-.88.256-.224.581-.336.976-.336.405 0 .733.112.984.336.25.224.376.517.376.88s-.125.659-.376.888c-.25.23-.579.344-.984.344ZM25.056 11.744c-.49 0-.91-.075-1.256-.224a2.2 2.2 0 0 1-.848-.624 2.539 2.539 0 0 1-.48-.968 4.854 4.854 0 0 1-.152-1.256V5.456h-1.088V3.712l1.216-.096.272-2.112h1.952v2.112h1.904v1.84h-1.904V8.64c0 .448.093.77.28.968.187.197.435.296.744.296.128 0 .259-.016.392-.048s.253-.07.36-.112l.368 1.712a10.82 10.82 0 0 1-.752.192 4.687 4.687 0 0 1-1.008.096ZM28.128 11.552V3.616h2.352v7.936h-2.352Zm1.168-9.104c-.395 0-.72-.115-.976-.344a1.137 1.137 0 0 1-.384-.888c0-.363.128-.656.384-.88.256-.224.581-.336.976-.336.405 0 .733.112.984.336.25.224.376.517.376.88s-.125.659-.376.888c-.25.23-.579.344-.984.344ZM32.544 11.552V3.616h1.92l.16 1.008h.064a6.4 6.4 0 0 1 1.12-.84c.405-.24.88-.36 1.424-.36.864 0 1.49.283 1.88.848.39.565.584 1.35.584 2.352v4.928h-2.352V6.928c0-.576-.077-.97-.232-1.184-.155-.213-.403-.32-.744-.32a1.42 1.42 0 0 0-.768.2 4.496 4.496 0 0 0-.704.568v5.36h-2.352ZM44.528 14.928c-.47 0-.904-.04-1.304-.12-.4-.08-.752-.2-1.056-.36a1.895 1.895 0 0 1-.712-.624 1.606 1.606 0 0 1-.256-.912c0-.64.379-1.173 1.136-1.6v-.064a1.78 1.78 0 0 1-.528-.528c-.139-.213-.208-.485-.208-.816 0-.288.085-.563.256-.824.17-.261.384-.483.64-.664v-.064c-.277-.192-.525-.467-.744-.824a2.328 2.328 0 0 1-.328-1.24c0-.48.09-.899.272-1.256.181-.357.424-.656.728-.896s.653-.419 1.048-.536a4.3 4.3 0 0 1 1.232-.176c.47 0 .88.064 1.232.192h2.896v1.712h-1.264c.075.117.136.267.184.448.048.181.072.379.072.592 0 .459-.08.856-.24 1.192-.16.336-.381.613-.664.832a2.877 2.877 0 0 1-.992.488c-.379.107-.787.16-1.224.16-.31 0-.63-.053-.96-.16a.803.803 0 0 0-.224.256.754.754 0 0 0-.064.336c0 .203.088.352.264.448.176.096.488.144.936.144h1.28c.981 0 1.73.157 2.248.472.517.315.776.83.776 1.544 0 .416-.104.797-.312 1.144a2.788 2.788 0 0 1-.888.896c-.384.25-.848.448-1.392.592a7.2 7.2 0 0 1-1.84.216Zm.176-7.312c.31 0 .568-.11.776-.328.208-.219.312-.552.312-1 0-.416-.104-.733-.312-.952a1.027 1.027 0 0 0-.776-.328c-.31 0-.568.107-.776.32-.208.213-.312.533-.312.96 0 .448.104.781.312 1 .208.219.467.328.776.328Zm.192 5.84c.533 0 .97-.093 1.312-.28.341-.187.512-.419.512-.696 0-.245-.104-.41-.312-.496-.208-.085-.51-.128-.904-.128h-.816a7.51 7.51 0 0 1-.672-.024c-.17-.016-.32-.04-.448-.072-.288.256-.432.517-.432.784 0 .299.16.525.48.68.32.155.747.232 1.28.232ZM56.272 11.744c-.49 0-.936-.096-1.336-.288a2.883 2.883 0 0 1-1.024-.824 3.891 3.891 0 0 1-.656-1.304 6.03 6.03 0 0 1-.232-1.744c0-.65.093-1.232.28-1.744.187-.512.432-.947.736-1.304a3.192 3.192 0 0 1 1.056-.824 2.8 2.8 0 0 1 1.224-.288c.448 0 .816.075 1.104.224.288.15.57.352.848.608l-.096-1.216V.336h2.352v11.216h-1.92l-.16-.784h-.064a3.72 3.72 0 0 1-.976.696c-.373.187-.752.28-1.136.28Zm.608-1.92c.256 0 .488-.053.696-.16.208-.107.408-.293.6-.56V5.856a1.876 1.876 0 0 0-.656-.4 2.068 2.068 0 0 0-.656-.112c-.373 0-.704.179-.992.536-.288.357-.432.915-.432 1.672 0 .79.125 1.365.376 1.728.25.363.605.544 1.064.544ZM66.016 11.744c-.501 0-.987-.093-1.456-.28a3.694 3.694 0 0 1-1.24-.808 3.878 3.878 0 0 1-.856-1.304c-.213-.517-.32-1.107-.32-1.768s.107-1.25.32-1.768c.213-.517.499-.952.856-1.304.357-.352.77-.621 1.24-.808a3.905 3.905 0 0 1 2.904 0c.464.187.875.456 1.232.808.357.352.643.787.856 1.304.213.517.32 1.107.32 1.768s-.107 1.25-.32 1.768a3.878 3.878 0 0 1-.856 1.304 3.714 3.714 0 0 1-1.232.808c-.464.187-.947.28-1.448.28Zm0-1.904c.48 0 .843-.203 1.088-.608.245-.405.368-.955.368-1.648s-.123-1.243-.368-1.648c-.245-.405-.608-.608-1.088-.608-.49 0-.856.203-1.096.608-.24.405-.36.955-.36 1.648s.12 1.243.36 1.648c.24.405.605.608 1.096.608ZM72.688 11.552l-1.984-7.936h2.336l.768 3.68c.064.395.123.784.176 1.168.053.384.112.779.176 1.184h.064c.075-.405.147-.805.216-1.2.07-.395.152-.779.248-1.152l.88-3.68H77.6l.896 3.68c.096.395.181.784.256 1.168.075.384.155.779.24 1.184h.064c.075-.405.136-.8.184-1.184.048-.384.11-.773.184-1.168l.752-3.68h2.176l-1.904 7.936h-2.752l-.72-3.168c-.085-.373-.16-.747-.224-1.12a352.42 352.42 0 0 0-.208-1.2h-.064c-.075.427-.141.827-.2 1.2-.059.373-.125.747-.2 1.12l-.704 3.168h-2.688ZM83.776 11.552V3.616h1.92l.16 1.008h.064a6.4 6.4 0 0 1 1.12-.84c.405-.24.88-.36 1.424-.36.864 0 1.49.283 1.88.848.39.565.584 1.35.584 2.352v4.928h-2.352V6.928c0-.576-.077-.97-.232-1.184-.155-.213-.403-.32-.744-.32a1.42 1.42 0 0 0-.768.2 4.496 4.496 0 0 0-.704.568v5.36h-2.352ZM96.384 11.744c-.555 0-1.07-.093-1.544-.28a3.592 3.592 0 0 1-1.24-.808 3.75 3.75 0 0 1-.832-1.304c-.203-.517-.304-1.107-.304-1.768s.112-1.25.336-1.768c.224-.517.525-.952.904-1.304a3.932 3.932 0 0 1 1.32-.808 4.457 4.457 0 0 1 1.568-.28c.49 0 .925.08 1.304.24.379.16.717.363 1.016.608l-1.104 1.52c-.373-.31-.73-.464-1.072-.464-.576 0-1.03.203-1.36.608-.33.405-.496.955-.496 1.648s.168 1.243.504 1.648c.336.405.76.608 1.272.608.256 0 .504-.056.744-.168a3.83 3.83 0 0 0 .68-.408l.928 1.536a3.594 3.594 0 0 1-1.28.728 4.474 4.474 0 0 1-1.344.216ZM102.24 11.744c-.363 0-.69-.061-.984-.184a2.108 2.108 0 0 1-.744-.512 2.37 2.37 0 0 1-.472-.76 2.583 2.583 0 0 1-.168-.944c0-.832.352-1.483 1.056-1.952.704-.47 1.84-.784 3.408-.944-.021-.352-.125-.632-.312-.84-.187-.208-.499-.312-.936-.312-.341 0-.68.064-1.016.192a7.384 7.384 0 0 0-1.08.528l-.848-1.552a8.32 8.32 0 0 1 1.608-.752 5.463 5.463 0 0 1 1.784-.288c1.024 0 1.805.29 2.344.872.539.581.808 1.485.808 2.712v4.544h-1.92l-.16-.816h-.064a5.078 5.078 0 0 1-1.072.728c-.373.187-.784.28-1.232.28Zm.8-1.824c.267 0 .496-.059.688-.176.192-.117.395-.283.608-.496V7.856c-.832.117-1.408.288-1.728.512-.32.224-.48.49-.48.8 0 .256.083.445.248.568.165.123.387.184.664.184ZM111.008 11.744a4.63 4.63 0 0 1-1.608-.304 4.959 4.959 0 0 1-1.432-.8l1.056-1.472c.363.277.71.485 1.04.624.33.139.667.208 1.008.208.352 0 .608-.059.768-.176a.58.58 0 0 0 .24-.496.502.502 0 0 0-.136-.344 1.388 1.388 0 0 0-.368-.28 3.625 3.625 0 0 0-.52-.232c-.192-.07-.39-.147-.592-.232a7.5 7.5 0 0 1-.736-.336 3.113 3.113 0 0 1-.672-.472 2.315 2.315 0 0 1-.496-.656 1.892 1.892 0 0 1-.192-.872c0-.363.072-.699.216-1.008.144-.31.35-.57.616-.784.267-.213.587-.381.96-.504s.79-.184 1.248-.184c.608 0 1.141.104 1.6.312.459.208.859.44 1.2.696l-1.056 1.408a4.159 4.159 0 0 0-.848-.496 2.12 2.12 0 0 0-.832-.176c-.597 0-.896.208-.896.624 0 .128.043.237.128.328.085.09.2.173.344.248.144.075.31.147.496.216l.584.216c.256.096.51.205.76.328.25.123.48.275.688.456.208.181.376.403.504.664s.192.573.192.936c0 .363-.07.699-.208 1.008a2.22 2.22 0 0 1-.624.808c-.277.23-.619.41-1.024.544-.405.133-.875.2-1.408.2ZM118.496 11.744c-.49 0-.91-.075-1.256-.224a2.2 2.2 0 0 1-.848-.624 2.539 2.539 0 0 1-.48-.968 4.854 4.854 0 0 1-.152-1.256V5.456h-1.088V3.712l1.216-.096.272-2.112h1.952v2.112h1.904v1.84h-1.904V8.64c0 .448.093.77.28.968.187.197.435.296.744.296.128 0 .259-.016.392-.048s.253-.07.36-.112l.368 1.712a10.82 10.82 0 0 1-.752.192 4.687 4.687 0 0 1-1.008.096Z"/>
      </g>
    </g>
    <g transform="translate(26 228)">
      <use fill="#000" filter="url(#i)" xlink:href="#j"/>
      <rect stroke="#363636" stroke-width="2" stroke-linejoin="square" fill="#B2EBF2" x="1" y="1" width="296" height="55" rx="5"/>
    </g>
    <g fill="#171717" fill-rule="nonzero">
      <path d="M141.664 262v-10.432h2.944c.8 0 1.52.101 2.16.304.64.203 1.19.515 1.648.936.459.421.81.957 1.056 1.608.245.65.368 1.424.368 2.32 0 .896-.123 1.675-.368 2.336-.245.661-.592 1.208-1.04 1.64a4.273 4.273 0 0 1-1.608.968c-.624.213-1.32.32-2.088.32h-3.072Zm2.352-1.904h.448c.448 0 .853-.059 1.216-.176.363-.117.672-.307.928-.568.256-.261.456-.605.6-1.032.144-.427.216-.955.216-1.584 0-.619-.072-1.139-.216-1.56-.144-.421-.344-.757-.6-1.008a2.183 2.183 0 0 0-.928-.536 4.304 4.304 0 0 0-1.216-.16h-.448v6.624ZM153.632 262.192c-.363 0-.69-.061-.984-.184a2.108 2.108 0 0 1-.744-.512 2.37 2.37 0 0 1-.472-.76 2.583 2.583 0 0 1-.168-.944c0-.832.352-1.483 1.056-1.952.704-.47 1.84-.784 3.408-.944-.021-.352-.125-.632-.312-.84-.187-.208-.499-.312-.936-.312-.341 0-.68.064-1.016.192a7.384 7.384 0 0 0-1.08.528l-.848-1.552a8.32 8.32 0 0 1 1.608-.752 5.463 5.463 0 0 1 1.784-.288c1.024 0 1.805.29 2.344.872.539.581.808 1.485.808 2.712V262h-1.92l-.16-.816h-.064a5.078 5.078 0 0 1-1.072.728c-.373.187-.784.28-1.232.28Zm.8-1.824c.267 0 .496-.059.688-.176.192-.117.395-.283.608-.496v-1.392c-.832.117-1.408.288-1.728.512-.32.224-.48.49-.48.8 0 .256.083.445.248.568.165.123.387.184.664.184ZM162.832 262.192c-.49 0-.91-.075-1.256-.224a2.2 2.2 0 0 1-.848-.624 2.539 2.539 0 0 1-.48-.968 4.854 4.854 0 0 1-.152-1.256v-3.216h-1.088v-1.744l1.216-.096.272-2.112h1.952v2.112h1.904v1.84h-1.904v3.184c0 .448.093.77.28.968.187.197.435.296.744.296.128 0 .259-.016.392-.048s.253-.07.36-.112l.368 1.712a10.82 10.82 0 0 1-.752.192 4.687 4.687 0 0 1-1.008.096ZM167.584 262.192c-.363 0-.69-.061-.984-.184a2.108 2.108 0 0 1-.744-.512 2.37 2.37 0 0 1-.472-.76 2.583 2.583 0 0 1-.168-.944c0-.832.352-1.483 1.056-1.952.704-.47 1.84-.784 3.408-.944-.021-.352-.125-.632-.312-.84-.187-.208-.499-.312-.936-.312-.341 0-.68.064-1.016.192a7.384 7.384 0 0 0-1.08.528l-.848-1.552a8.32 8.32 0 0 1 1.608-.752 5.463 5.463 0 0 1 1.784-.288c1.024 0 1.805.29 2.344.872.539.581.808 1.485.808 2.712V262h-1.92l-.16-.816h-.064a5.078 5.078 0 0 1-1.072.728c-.373.187-.784.28-1.232.28Zm.8-1.824c.267 0 .496-.059.688-.176.192-.117.395-.283.608-.496v-1.392c-.832.117-1.408.288-1.728.512-.32.224-.48.49-.48.8 0 .256.083.445.248.568.165.123.387.184.664.184ZM179.04 262l-2.672-7.936h2.368l1.024 3.744c.107.395.21.797.312 1.208.101.41.205.824.312 1.24h.064c.096-.416.195-.83.296-1.24.101-.41.205-.813.312-1.208l1.04-3.744h2.256L181.76 262h-2.72ZM185.584 262v-7.936h2.352V262h-2.352Zm1.168-9.104c-.395 0-.72-.115-.976-.344a1.137 1.137 0 0 1-.384-.888c0-.363.128-.656.384-.88.256-.224.581-.336.976-.336.405 0 .733.112.984.336.25.224.376.517.376.88s-.125.659-.376.888c-.25.23-.579.344-.984.344ZM193.552 262.192a4.418 4.418 0 0 1-1.584-.28 3.65 3.65 0 0 1-1.28-.816 3.731 3.731 0 0 1-.848-1.304c-.203-.512-.304-1.099-.304-1.76 0-.64.107-1.219.32-1.736.213-.517.493-.955.84-1.312a3.651 3.651 0 0 1 1.192-.824 3.5 3.5 0 0 1 1.392-.288c.565 0 1.059.096 1.48.288.421.192.773.459 1.056.8.283.341.493.744.632 1.208.139.464.208.968.208 1.512a5.51 5.51 0 0 1-.096 1.04h-4.752c.107.576.344 1 .712 1.272s.819.408 1.352.408c.565 0 1.136-.176 1.712-.528l.784 1.424a5.212 5.212 0 0 1-1.352.656 4.75 4.75 0 0 1-1.464.24Zm-1.76-5.024h2.864c0-.448-.101-.81-.304-1.088-.203-.277-.544-.416-1.024-.416-.373 0-.701.123-.984.368-.283.245-.467.624-.552 1.136ZM199.52 262l-1.984-7.936h2.336l.768 3.68c.064.395.123.784.176 1.168.053.384.112.779.176 1.184h.064c.075-.405.147-.805.216-1.2.07-.395.152-.779.248-1.152l.88-3.68h2.032l.896 3.68c.096.395.181.784.256 1.168.075.384.155.779.24 1.184h.064c.075-.405.136-.8.184-1.184.048-.384.11-.773.184-1.168l.752-3.68h2.176L207.28 262h-2.752l-.72-3.168c-.085-.373-.16-.747-.224-1.12a352.42 352.42 0 0 0-.208-1.2h-.064c-.075.427-.141.827-.2 1.2-.059.373-.125.747-.2 1.12l-.704 3.168h-2.688Z"/>
    </g>
    <path d="M94.02 50.5a7 7 0 0 1 .96 13.932l-.439 149.57 6 .019L93.5 228l-6.959-14.02 6 .017.438-149.57A7.002 7.002 0 0 1 94.021 50.5Z" fill="#282828" fill-rule="nonzero"/>
    <g transform="translate(25 123)">
      <rect stroke="#363636" stroke-width="2" fill="#FFF" x="1" y="1" width="136" height="37" rx="18.5"/>
      <g fill="#171717" fill-rule="nonzero">
        <path d="M18.296 25V14.568h2.944c.8 0 1.52.101 2.16.304.64.203 1.19.515 1.648.936.459.421.81.957 1.056 1.608.245.65.368 1.424.368 2.32 0 .896-.123 1.675-.368 2.336-.245.661-.592 1.208-1.04 1.64a4.273 4.273 0 0 1-1.608.968c-.624.213-1.32.32-2.088.32h-3.072Zm2.352-1.904h.448c.448 0 .853-.059 1.216-.176.363-.117.672-.307.928-.568.256-.261.456-.605.6-1.032.144-.427.216-.955.216-1.584 0-.619-.072-1.139-.216-1.56-.144-.421-.344-.757-.6-1.008a2.183 2.183 0 0 0-.928-.536 4.304 4.304 0 0 0-1.216-.16h-.448v6.624ZM30.264 25.192c-.363 0-.69-.061-.984-.184a2.108 2.108 0 0 1-.744-.512 2.37 2.37 0 0 1-.472-.76 2.583 2.583 0 0 1-.168-.944c0-.832.352-1.483 1.056-1.952.704-.47 1.84-.784 3.408-.944-.021-.352-.125-.632-.312-.84-.187-.208-.499-.312-.936-.312-.341 0-.68.064-1.016.192a7.384 7.384 0 0 0-1.08.528l-.848-1.552a8.32 8.32 0 0 1 1.608-.752 5.463 5.463 0 0 1 1.784-.288c1.024 0 1.805.29 2.344.872.539.581.808 1.485.808 2.712V25h-1.92l-.16-.816h-.064a5.078 5.078 0 0 1-1.072.728c-.373.187-.784.28-1.232.28Zm.8-1.824c.267 0 .496-.059.688-.176.192-.117.395-.283.608-.496v-1.392c-.832.117-1.408.288-1.728.512-.32.224-.48.49-.48.8 0 .256.083.445.248.568.165.123.387.184.664.184ZM39.464 25.192c-.49 0-.91-.075-1.256-.224a2.2 2.2 0 0 1-.848-.624 2.539 2.539 0 0 1-.48-.968 4.854 4.854 0 0 1-.152-1.256v-3.216H35.64V17.16l1.216-.096.272-2.112h1.952v2.112h1.904v1.84H39.08v3.184c0 .448.093.77.28.968.187.197.435.296.744.296.128 0 .259-.016.392-.048s.253-.07.36-.112l.368 1.712a10.82 10.82 0 0 1-.752.192 4.687 4.687 0 0 1-1.008.096ZM44.216 25.192c-.363 0-.69-.061-.984-.184a2.108 2.108 0 0 1-.744-.512 2.37 2.37 0 0 1-.472-.76 2.583 2.583 0 0 1-.168-.944c0-.832.352-1.483 1.056-1.952.704-.47 1.84-.784 3.408-.944-.021-.352-.125-.632-.312-.84-.187-.208-.499-.312-.936-.312-.341 0-.68.064-1.016.192a7.384 7.384 0 0 0-1.08.528l-.848-1.552a8.32 8.32 0 0 1 1.608-.752 5.463 5.463 0 0 1 1.784-.288c1.024 0 1.805.29 2.344.872.539.581.808 1.485.808 2.712V25h-1.92l-.16-.816h-.064a5.078 5.078 0 0 1-1.072.728c-.373.187-.784.28-1.232.28Zm.8-1.824c.267 0 .496-.059.688-.176.192-.117.395-.283.608-.496v-1.392c-.832.117-1.408.288-1.728.512-.32.224-.48.49-.48.8 0 .256.083.445.248.568.165.123.387.184.664.184ZM56.68 25.192c-.49 0-.936-.096-1.336-.288a2.883 2.883 0 0 1-1.024-.824 3.891 3.891 0 0 1-.656-1.304 6.03 6.03 0 0 1-.232-1.744c0-.65.093-1.232.28-1.744.187-.512.432-.947.736-1.304a3.192 3.192 0 0 1 1.056-.824 2.8 2.8 0 0 1 1.224-.288c.448 0 .816.075 1.104.224.288.15.57.352.848.608l-.096-1.216v-2.704h2.352V25h-1.92l-.16-.784h-.064a3.72 3.72 0 0 1-.976.696c-.373.187-.752.28-1.136.28Zm.608-1.92c.256 0 .488-.053.696-.16.208-.107.408-.293.6-.56v-3.248a1.876 1.876 0 0 0-.656-.4 2.068 2.068 0 0 0-.656-.112c-.373 0-.704.179-.992.536-.288.357-.432.915-.432 1.672 0 .79.125 1.365.376 1.728.25.363.605.544 1.064.544ZM66.424 25.192c-.501 0-.987-.093-1.456-.28a3.694 3.694 0 0 1-1.24-.808 3.878 3.878 0 0 1-.856-1.304c-.213-.517-.32-1.107-.32-1.768s.107-1.25.32-1.768c.213-.517.499-.952.856-1.304.357-.352.77-.621 1.24-.808a3.905 3.905 0 0 1 2.904 0c.464.187.875.456 1.232.808.357.352.643.787.856 1.304.213.517.32 1.107.32 1.768s-.107 1.25-.32 1.768a3.878 3.878 0 0 1-.856 1.304 3.714 3.714 0 0 1-1.232.808c-.464.187-.947.28-1.448.28Zm0-1.904c.48 0 .843-.203 1.088-.608.245-.405.368-.955.368-1.648s-.123-1.243-.368-1.648c-.245-.405-.608-.608-1.088-.608-.49 0-.856.203-1.096.608-.24.405-.36.955-.36 1.648s.12 1.243.36 1.648c.24.405.605.608 1.096.608ZM73.096 25l-1.984-7.936h2.336l.768 3.68c.064.395.123.784.176 1.168.053.384.112.779.176 1.184h.064c.075-.405.147-.805.216-1.2.07-.395.152-.779.248-1.152l.88-3.68h2.032l.896 3.68c.096.395.181.784.256 1.168.075.384.155.779.24 1.184h.064c.075-.405.136-.8.184-1.184.048-.384.11-.773.184-1.168l.752-3.68h2.176L80.856 25h-2.752l-.72-3.168c-.085-.373-.16-.747-.224-1.12a352.42 352.42 0 0 0-.208-1.2h-.064c-.075.427-.141.827-.2 1.2-.059.373-.125.747-.2 1.12L75.784 25h-2.688ZM84.184 25v-7.936h1.92l.16 1.008h.064a6.4 6.4 0 0 1 1.12-.84c.405-.24.88-.36 1.424-.36.864 0 1.49.283 1.88.848.39.565.584 1.35.584 2.352V25h-2.352v-4.624c0-.576-.077-.97-.232-1.184-.155-.213-.403-.32-.744-.32a1.42 1.42 0 0 0-.768.2 4.496 4.496 0 0 0-.704.568V25h-2.352ZM96.792 25.192c-.555 0-1.07-.093-1.544-.28a3.592 3.592 0 0 1-1.24-.808 3.75 3.75 0 0 1-.832-1.304c-.203-.517-.304-1.107-.304-1.768s.112-1.25.336-1.768c.224-.517.525-.952.904-1.304a3.932 3.932 0 0 1 1.32-.808 4.457 4.457 0 0 1 1.568-.28c.49 0 .925.08 1.304.24.379.16.717.363 1.016.608l-1.104 1.52c-.373-.31-.73-.464-1.072-.464-.576 0-1.03.203-1.36.608-.33.405-.496.955-.496 1.648s.168 1.243.504 1.648c.336.405.76.608 1.272.608.256 0 .504-.056.744-.168a3.83 3.83 0 0 0 .68-.408l.928 1.536a3.594 3.594 0 0 1-1.28.728 4.474 4.474 0 0 1-1.344.216ZM102.648 25.192c-.363 0-.69-.061-.984-.184a2.108 2.108 0 0 1-.744-.512 2.37 2.37 0 0 1-.472-.76 2.583 2.583 0 0 1-.168-.944c0-.832.352-1.483 1.056-1.952.704-.47 1.84-.784 3.408-.944-.021-.352-.125-.632-.312-.84-.187-.208-.499-.312-.936-.312-.341 0-.68.064-1.016.192a7.384 7.384 0 0 0-1.08.528l-.848-1.552a8.32 8.32 0 0 1 1.608-.752 5.463 5.463 0 0 1 1.784-.288c1.024 0 1.805.29 2.344.872.539.581.808 1.485.808 2.712V25h-1.92l-.16-.816h-.064a5.078 5.078 0 0 1-1.072.728c-.373.187-.784.28-1.232.28Zm.8-1.824c.267 0 .496-.059.688-.176.192-.117.395-.283.608-.496v-1.392c-.832.117-1.408.288-1.728.512-.32.224-.48.49-.48.8 0 .256.083.445.248.568.165.123.387.184.664.184ZM111.416 25.192a4.63 4.63 0 0 1-1.608-.304 4.959 4.959 0 0 1-1.432-.8l1.056-1.472c.363.277.71.485 1.04.624.33.139.667.208 1.008.208.352 0 .608-.059.768-.176a.58.58 0 0 0 .24-.496.502.502 0 0 0-.136-.344 1.388 1.388 0 0 0-.368-.28 3.625 3.625 0 0 0-.52-.232c-.192-.07-.39-.147-.592-.232a7.5 7.5 0 0 1-.736-.336 3.113 3.113 0 0 1-.672-.472 2.315 2.315 0 0 1-.496-.656 1.892 1.892 0 0 1-.192-.872c0-.363.072-.699.216-1.008.144-.31.35-.57.616-.784.267-.213.587-.381.96-.504s.79-.184 1.248-.184c.608 0 1.141.104 1.6.312.459.208.859.44 1.2.696l-1.056 1.408a4.159 4.159 0 0 0-.848-.496 2.12 2.12 0 0 0-.832-.176c-.597 0-.896.208-.896.624 0 .128.043.237.128.328.085.09.2.173.344.248.144.075.31.147.496.216l.584.216c.256.096.51.205.76.328.25.123.48.275.688.456.208.181.376.403.504.664s.192.573.192.936c0 .363-.07.699-.208 1.008a2.22 2.22 0 0 1-.624.808c-.277.23-.619.41-1.024.544-.405.133-.875.2-1.408.2ZM118.904 25.192c-.49 0-.91-.075-1.256-.224a2.2 2.2 0 0 1-.848-.624 2.539 2.539 0 0 1-.48-.968 4.854 4.854 0 0 1-.152-1.256v-3.216h-1.088V17.16l1.216-.096.272-2.112h1.952v2.112h1.904v1.84h-1.904v3.184c0 .448.093.77.28.968.187.197.435.296.744.296.128 0 .259-.016.392-.048s.253-.07.36-.112l.368 1.712a10.82 10.82 0 0 1-.752.192 4.687 4.687 0 0 1-1.008.096Z"/>
      </g>
    </g>
    <path d="M256.25 234.5a7 7 0 0 1-1-13.93V71l-6-.001 7-14 7 14h-6v149.572a7.002 7.002 0 0 1-1 13.929Z" fill="#00C853" fill-rule="nonzero"/>
    <g transform="translate(187 123)">
      <rect fill="#00C853" width="138" height="39" rx="19.5"/>
      <g fill="#FFF" fill-rule="nonzero">
        <path d="M28.912 25V14.568h2.944c.8 0 1.52.101 2.16.304.64.203 1.19.515 1.648.936.459.421.81.957 1.056 1.608.245.65.368 1.424.368 2.32 0 .896-.123 1.675-.368 2.336-.245.661-.592 1.208-1.04 1.64a4.273 4.273 0 0 1-1.608.968c-.624.213-1.32.32-2.088.32h-3.072Zm2.352-1.904h.448c.448 0 .853-.059 1.216-.176.363-.117.672-.307.928-.568.256-.261.456-.605.6-1.032.144-.427.216-.955.216-1.584 0-.619-.072-1.139-.216-1.56-.144-.421-.344-.757-.6-1.008a2.183 2.183 0 0 0-.928-.536 4.304 4.304 0 0 0-1.216-.16h-.448v6.624ZM40.88 25.192c-.363 0-.69-.061-.984-.184a2.108 2.108 0 0 1-.744-.512 2.37 2.37 0 0 1-.472-.76 2.583 2.583 0 0 1-.168-.944c0-.832.352-1.483 1.056-1.952.704-.47 1.84-.784 3.408-.944-.021-.352-.125-.632-.312-.84-.187-.208-.499-.312-.936-.312-.341 0-.68.064-1.016.192a7.384 7.384 0 0 0-1.08.528l-.848-1.552a8.32 8.32 0 0 1 1.608-.752 5.463 5.463 0 0 1 1.784-.288c1.024 0 1.805.29 2.344.872.539.581.808 1.485.808 2.712V25h-1.92l-.16-.816h-.064a5.078 5.078 0 0 1-1.072.728c-.373.187-.784.28-1.232.28Zm.8-1.824c.267 0 .496-.059.688-.176.192-.117.395-.283.608-.496v-1.392c-.832.117-1.408.288-1.728.512-.32.224-.48.49-.48.8 0 .256.083.445.248.568.165.123.387.184.664.184ZM50.08 25.192c-.49 0-.91-.075-1.256-.224a2.2 2.2 0 0 1-.848-.624 2.539 2.539 0 0 1-.48-.968 4.854 4.854 0 0 1-.152-1.256v-3.216h-1.088V17.16l1.216-.096.272-2.112h1.952v2.112H51.6v1.84h-1.904v3.184c0 .448.093.77.28.968.187.197.435.296.744.296.128 0 .259-.016.392-.048s.253-.07.36-.112l.368 1.712a10.82 10.82 0 0 1-.752.192 4.687 4.687 0 0 1-1.008.096ZM54.832 25.192c-.363 0-.69-.061-.984-.184a2.108 2.108 0 0 1-.744-.512 2.37 2.37 0 0 1-.472-.76 2.583 2.583 0 0 1-.168-.944c0-.832.352-1.483 1.056-1.952.704-.47 1.84-.784 3.408-.944-.021-.352-.125-.632-.312-.84-.187-.208-.499-.312-.936-.312-.341 0-.68.064-1.016.192a7.384 7.384 0 0 0-1.08.528l-.848-1.552a8.32 8.32 0 0 1 1.608-.752 5.463 5.463 0 0 1 1.784-.288c1.024 0 1.805.29 2.344.872.539.581.808 1.485.808 2.712V25h-1.92l-.16-.816h-.064a5.078 5.078 0 0 1-1.072.728c-.373.187-.784.28-1.232.28Zm.8-1.824c.267 0 .496-.059.688-.176.192-.117.395-.283.608-.496v-1.392c-.832.117-1.408.288-1.728.512-.32.224-.48.49-.48.8 0 .256.083.445.248.568.165.123.387.184.664.184ZM66.848 25.192c-.864 0-1.49-.283-1.88-.848-.39-.565-.584-1.35-.584-2.352v-4.928h2.352v4.624c0 .576.08.97.24 1.184.16.213.41.32.752.32.299 0 .55-.07.752-.208.203-.139.421-.363.656-.672v-5.248h2.352V25h-1.92l-.176-1.104h-.048a4.298 4.298 0 0 1-1.096.952c-.39.23-.856.344-1.4.344ZM73.552 27.944v-10.88h1.92l.16.784h.064c.31-.277.659-.51 1.048-.696.39-.187.792-.28 1.208-.28.48 0 .912.096 1.296.288.384.192.71.464.976.816.267.352.472.776.616 1.272a5.93 5.93 0 0 1 .216 1.656c0 .683-.093 1.288-.28 1.816a4.195 4.195 0 0 1-.752 1.344 3.268 3.268 0 0 1-1.072.84c-.4.192-.813.288-1.24.288-.341 0-.672-.072-.992-.216a3.168 3.168 0 0 1-.896-.616l.08 1.264v2.32h-2.352Zm3.616-4.672c.405 0 .752-.184 1.04-.552.288-.368.432-.963.432-1.784 0-1.43-.459-2.144-1.376-2.144-.459 0-.912.24-1.36.72v3.248c.213.192.427.325.64.4.213.075.421.112.624.112ZM86.176 25.192c-.555 0-1.07-.093-1.544-.28a3.592 3.592 0 0 1-1.24-.808 3.75 3.75 0 0 1-.832-1.304c-.203-.517-.304-1.107-.304-1.768s.112-1.25.336-1.768c.224-.517.525-.952.904-1.304a3.932 3.932 0 0 1 1.32-.808 4.457 4.457 0 0 1 1.568-.28c.49 0 .925.08 1.304.24.379.16.717.363 1.016.608L87.6 19.24c-.373-.31-.73-.464-1.072-.464-.576 0-1.03.203-1.36.608-.33.405-.496.955-.496 1.648s.168 1.243.504 1.648c.336.405.76.608 1.272.608.256 0 .504-.056.744-.168a3.83 3.83 0 0 0 .68-.408l.928 1.536a3.594 3.594 0 0 1-1.28.728 4.474 4.474 0 0 1-1.344.216ZM92.032 25.192c-.363 0-.69-.061-.984-.184a2.108 2.108 0 0 1-.744-.512 2.37 2.37 0 0 1-.472-.76 2.583 2.583 0 0 1-.168-.944c0-.832.352-1.483 1.056-1.952.704-.47 1.84-.784 3.408-.944-.021-.352-.125-.632-.312-.84-.187-.208-.499-.312-.936-.312-.341 0-.68.064-1.016.192a7.384 7.384 0 0 0-1.08.528l-.848-1.552a8.32 8.32 0 0 1 1.608-.752 5.463 5.463 0 0 1 1.784-.288c1.024 0 1.805.29 2.344.872.539.581.808 1.485.808 2.712V25h-1.92l-.16-.816h-.064a5.078 5.078 0 0 1-1.072.728c-.373.187-.784.28-1.232.28Zm.8-1.824c.267 0 .496-.059.688-.176.192-.117.395-.283.608-.496v-1.392c-.832.117-1.408.288-1.728.512-.32.224-.48.49-.48.8 0 .256.083.445.248.568.165.123.387.184.664.184ZM100.8 25.192a4.63 4.63 0 0 1-1.608-.304 4.959 4.959 0 0 1-1.432-.8l1.056-1.472c.363.277.71.485 1.04.624.33.139.667.208 1.008.208.352 0 .608-.059.768-.176a.58.58 0 0 0 .24-.496.502.502 0 0 0-.136-.344 1.388 1.388 0 0 0-.368-.28 3.625 3.625 0 0 0-.52-.232c-.192-.07-.39-.147-.592-.232a7.5 7.5 0 0 1-.736-.336 3.113 3.113 0 0 1-.672-.472 2.315 2.315 0 0 1-.496-.656 1.892 1.892 0 0 1-.192-.872c0-.363.072-.699.216-1.008.144-.31.35-.57.616-.784.267-.213.587-.381.96-.504s.79-.184 1.248-.184c.608 0 1.141.104 1.6.312.459.208.859.44 1.2.696l-1.056 1.408a4.159 4.159 0 0 0-.848-.496 2.12 2.12 0 0 0-.832-.176c-.597 0-.896.208-.896.624 0 .128.043.237.128.328.085.09.2.173.344.248.144.075.31.147.496.216l.584.216c.256.096.51.205.76.328.25.123.48.275.688.456.208.181.376.403.504.664s.192.573.192.936c0 .363-.07.699-.208 1.008a2.22 2.22 0 0 1-.624.808c-.277.23-.619.41-1.024.544-.405.133-.875.2-1.408.2ZM108.288 25.192c-.49 0-.91-.075-1.256-.224a2.2 2.2 0 0 1-.848-.624 2.539 2.539 0 0 1-.48-.968 4.854 4.854 0 0 1-.152-1.256v-3.216h-1.088V17.16l1.216-.096.272-2.112h1.952v2.112h1.904v1.84h-1.904v3.184c0 .448.093.77.28.968.187.197.435.296.744.296.128 0 .259-.016.392-.048s.253-.07.36-.112l.368 1.712a10.82 10.82 0 0 1-.752.192 4.687 4.687 0 0 1-1.008.096Z"/>
      </g>
    </g>
  </g>
</svg>
