<?xml version="1.0" encoding="UTF-8"?>
<svg width="24px" height="24px" viewBox="0 0 24 24" version="1.1" xmlns="http://www.w3.org/2000/svg" xmlns:xlink="http://www.w3.org/1999/xlink">
    <title>Combined Shape</title>
    <g id="March-2020" stroke="none" stroke-width="1" fill="none" fill-rule="evenodd">
        <g id="Log-in-aviva-no-image" transform="translate(-147.000000, -194.000000)" fill="#000000" fill-rule="nonzero">
            <path d="M159,194 C165.627417,194 171,199.372583 171,206 C171,212.627417 165.627417,218 159,218 C152.372583,218 147,212.627417 147,206 C147,199.372583 152.372583,194 159,194 Z M159,195.565217 C153.237029,195.565217 148.565217,200.237029 148.565217,206 C148.565217,211.762971 153.237029,216.434783 159,216.434783 C164.762971,216.434783 169.434783,211.762971 169.434783,206 C169.434783,200.237029 164.762971,195.565217 159,195.565217 Z M159,199.73913 C159.576297,199.73913 160.043478,200.206312 160.043478,200.782609 L160.04313,204.95613 L164.217391,204.956522 C164.793688,204.956522 165.26087,205.423703 165.26087,206 C165.26087,206.576297 164.793688,207.043478 164.217391,207.043478 L160.04313,207.04313 L160.043478,211.217391 C160.043478,211.793688 159.576297,212.26087 159,212.26087 C158.423703,212.26087 157.956522,211.793688 157.956522,211.217391 L157.95613,207.04313 L153.782609,207.043478 C153.206312,207.043478 152.73913,206.576297 152.73913,206 C152.73913,205.423703 153.206312,204.956522 153.782609,204.956522 L157.95613,204.95613 L157.956522,200.782609 C157.956522,200.206312 158.423703,199.73913 159,199.73913 Z" id="Combined-Shape"></path>
        </g>
    </g>
</svg>