<svg width="20" height="20" viewBox="0 0 20 20" fill="none" xmlns="http://www.w3.org/2000/svg">
<path d="M2.73242 6C2.53807 6 2.35227 6.07741 2.21484 6.21484C2.07743 6.35227 2 6.53806 2 6.73242V11.6152C2 13.3306 3.37958 14.7422 5.0918 14.7422C5.65888 14.7411 6.21571 14.5834 6.69922 14.2871C7.08386 14.0514 7.35383 13.6862 7.60156 13.3125C7.84937 13.6866 8.11896 14.0512 8.50391 14.2871C8.98741 14.5834 9.54424 14.7411 10.1113 14.7422C11.8241 14.7422 13.2031 13.3312 13.2031 11.6152C13.2031 9.89996 11.8247 8.48828 10.1113 8.48828C9.54424 8.48934 8.98741 8.64703 8.50391 8.94336C8.11896 9.17929 7.84937 9.54385 7.60156 9.91797C7.04753 9.08687 6.16187 8.48828 5.0918 8.48828C4.49108 8.4877 3.96335 8.78947 3.4668 9.11523V6.73242C3.4668 6.53807 3.38938 6.35228 3.25195 6.21484C3.11452 6.07741 2.92678 6 2.73242 6ZM13.5352 8.5625C13.3918 8.57346 13.2534 8.62511 13.1387 8.71484C12.9858 8.83452 12.8869 9.01034 12.8633 9.20312C12.8395 9.39598 12.8943 9.58916 13.0137 9.74219V9.74414L14.5039 11.6504L13.0176 13.5527C12.9554 13.6282 12.9089 13.7151 12.8809 13.8086C12.853 13.9022 12.8428 14.0002 12.8535 14.0977C12.864 14.1952 12.8957 14.2895 12.9434 14.375C12.9909 14.4603 13.0535 14.5353 13.1309 14.5957C13.2079 14.656 13.2962 14.7009 13.3906 14.7266C13.4851 14.7522 13.5847 14.7592 13.6816 14.7461C13.7786 14.733 13.8708 14.7001 13.9551 14.6504C14.0393 14.6006 14.1136 14.5335 14.1719 14.4551L15.4355 12.8398L16.6973 14.4551L16.7012 14.459L16.7032 14.4609C16.7608 14.5368 16.8324 14.6021 16.9141 14.6504C16.9984 14.7001 17.0926 14.733 17.1895 14.7461C17.2865 14.7592 17.3841 14.7522 17.4786 14.7266C17.5731 14.7009 17.6613 14.656 17.7383 14.5957C17.8154 14.5354 17.8802 14.4605 17.9278 14.375C17.9756 14.2892 18.005 14.1945 18.0157 14.0977C18.0263 14.0005 18.0185 13.9026 17.9903 13.8086C17.9623 13.7148 17.9158 13.6282 17.8536 13.5527L16.3653 11.6504L17.8594 9.74023L17.8614 9.73828C17.975 9.58476 18.0235 9.39239 17.998 9.20312C17.9724 9.01375 17.8751 8.84238 17.7246 8.72461C17.5741 8.60686 17.3833 8.55151 17.1934 8.57227C17.0034 8.593 16.8286 8.68647 16.707 8.83398L16.705 8.83789L15.4355 10.4609L14.168 8.83984C14.0481 8.68705 13.8723 8.58791 13.6797 8.56445C13.6315 8.55859 13.583 8.55885 13.5352 8.5625ZM5.0918 9.95508C5.98363 9.95508 6.7168 10.6866 6.7168 11.6152C6.7168 12.5446 5.98363 13.2754 5.0918 13.2754C4.19998 13.2754 3.4668 12.5447 3.4668 11.6152C3.4668 10.6865 4.19998 9.95508 5.0918 9.95508ZM10.1113 9.95508C11.003 9.95508 11.7363 10.6872 11.7363 11.6152C11.7363 12.5447 11.0031 13.2754 10.1113 13.2754C9.2195 13.2754 8.48633 12.5447 8.48633 11.6152C8.48633 10.6865 9.2195 9.95508 10.1113 9.95508Z" fill="#333333"/>
</svg>
