<svg width="18" height="10" viewBox="0 0 18 10" fill="none" xmlns="http://www.w3.org/2000/svg">
<path d="M0.755859 0C0.341622 0 0 0.339669 0 0.753906V6.27148C0 8.17069 1.52538 9.73047 3.41992 9.73047C4.59896 9.72827 5.63894 9.0716 6.25781 8.08398C6.8768 9.07092 7.91322 9.72827 9.0918 9.73047H9.09375C10.9889 9.73047 12.5137 8.1713 12.5137 6.27148C12.5137 4.37239 10.9896 2.8125 9.09375 2.8125H9.0918C7.91276 2.8147 6.87473 3.47137 6.25586 4.45898C5.65038 3.49729 4.63611 2.8125 3.41992 2.8125C2.7134 2.81181 2.08039 3.14352 1.50977 3.54883V0.753906C1.50977 0.339669 1.1701 0 0.755859 0ZM12.7531 2.89453C12.608 2.90446 12.4652 2.95523 12.343 3.05078C12.0171 3.30584 11.9595 3.78314 12.2141 4.10938L13.9348 6.31055L12.218 8.50781C12.0664 8.6917 12.0106 8.91227 12.0441 9.10742C12.0777 9.30258 12.1892 9.46787 12.3352 9.58203C12.4811 9.69619 12.667 9.76435 12.8645 9.75C13.0614 9.73569 13.2616 9.6279 13.4035 9.4375H13.4055L14.8918 7.53516L16.3801 9.4375C16.5221 9.62888 16.7236 9.73565 16.9211 9.75C17.1186 9.76435 17.3045 9.6962 17.4504 9.58203C17.5963 9.46787 17.7078 9.30258 17.7414 9.10742C17.775 8.91226 17.7192 8.6917 17.5676 8.50781L15.8508 6.31055L17.5715 4.10938L17.5754 4.10547C17.7113 3.92216 17.7562 3.70775 17.7199 3.51953C17.6837 3.33132 17.5745 3.17335 17.4328 3.0625C17.2911 2.95165 17.1125 2.88441 16.9211 2.89453C16.7297 2.90465 16.5311 2.99964 16.3859 3.17578L16.382 3.17969L14.8918 5.08594L13.4016 3.17969C13.242 2.97622 12.995 2.87798 12.7531 2.89453ZM3.41992 4.32227C4.46836 4.32227 5.33203 5.18278 5.33203 6.27148C5.33203 7.36097 4.46836 8.22266 3.41992 8.22266C2.37148 8.22266 1.50977 7.36106 1.50977 6.27148C1.50977 5.18269 2.37148 4.32227 3.41992 4.32227ZM9.09375 4.32227C10.1421 4.32227 11.0039 5.18347 11.0039 6.27148C11.0039 7.36106 10.1422 8.22266 9.09375 8.22266C8.04531 8.22266 7.18164 7.36106 7.18164 6.27148C7.18164 5.18269 8.04531 4.32227 9.09375 4.32227Z" fill="#333333"/>
</svg>
