<svg width="20" height="20" viewBox="0 0 20 20" fill="none" xmlns="http://www.w3.org/2000/svg">
<path d="M7.58625 3C7.47059 3 7.35759 3.02642 7.25403 3.0782C7.15085 3.12998 7.05976 3.20446 6.99021 3.29706L5.76174 4.93769H4.19533C3.61259 4.93769 3.05461 5.17008 2.64257 5.58216C2.23053 5.99421 2 6.55226 2 7.13495V13.9162C2 14.4989 2.23053 15.0568 2.64257 15.4689C3.05461 15.881 3.61259 16.1135 4.19533 16.1135H15.8203C16.403 16.1135 16.963 15.881 17.375 15.4689C17.7871 15.0568 18.0176 14.4989 18.0176 13.9162V7.13495C18.0176 6.55226 17.787 5.99421 17.375 5.58216C16.963 5.17012 16.403 4.93769 15.8203 4.93769H14.2559L13.0273 3.29706C12.9582 3.20446 12.8671 3.12998 12.7635 3.0782C12.66 3.02642 12.5451 3 12.4294 3H7.58625ZM7.95929 4.48826H12.0589L13.2874 6.12888C13.3566 6.22148 13.4477 6.29597 13.5512 6.34774C13.6548 6.39952 13.7674 6.42595 13.8834 6.42595H15.8209C16.0092 6.42595 16.1898 6.50006 16.3229 6.6331C16.4559 6.76614 16.5319 6.94719 16.5319 7.13507V13.9163C16.5319 14.1042 16.4559 14.2852 16.3229 14.4182C16.1898 14.5513 16.0088 14.6253 15.8209 14.6253H4.19594C4.00772 14.6253 3.82896 14.5513 3.6959 14.4182C3.56286 14.2852 3.48693 14.1042 3.48693 13.9163V7.13507C3.48693 6.94685 3.56286 6.76618 3.6959 6.6331C3.82894 6.50006 4.0077 6.42595 4.19594 6.42595H6.13345C6.24911 6.42595 6.36398 6.39952 6.46754 6.34774C6.57072 6.29597 6.66182 6.22148 6.73136 6.12888L7.95929 4.48826ZM10.0081 6.87492C9.56053 6.87492 9.11894 6.9634 8.70538 7.13461C8.29186 7.30582 7.91448 7.55636 7.59798 7.87285C7.28163 8.1892 7.03097 8.56479 6.85968 8.97835C6.68846 9.39187 6.60192 9.83541 6.60192 10.283C6.60192 11.1869 6.9587 12.0541 7.59801 12.6932C8.23713 13.3323 9.10429 13.6912 10.0082 13.6912C10.912 13.6912 11.7811 13.3322 12.4203 12.6932C13.0594 12.0541 13.4164 11.1869 13.4164 10.283C13.4164 9.83537 13.3279 9.39183 13.1567 8.97835C12.9855 8.56479 12.7369 8.18935 12.4204 7.87285C12.104 7.55651 11.7265 7.3059 11.3129 7.13461C10.8994 6.9634 10.4557 6.87492 10.0081 6.87492ZM10.0081 8.36323C10.5174 8.36323 11.0055 8.56581 11.3656 8.9257C11.7258 9.28589 11.93 9.77388 11.93 10.2831C11.93 10.7924 11.7255 11.2804 11.3656 11.6406C11.0054 12.0007 10.5174 12.203 10.0081 12.203C9.75604 12.203 9.50865 12.1531 9.27572 12.0568C9.0429 11.9604 8.83092 11.8191 8.65264 11.6408C8.47425 11.4624 8.33327 11.2506 8.23663 11.0177C8.14025 10.7849 8.0881 10.5354 8.0881 10.2833C8.0881 10.0312 8.14025 9.78188 8.23663 9.54895C8.33301 9.31613 8.47436 9.10415 8.65264 8.92587C8.83103 8.74748 9.04282 8.60653 9.27572 8.50989C9.50854 8.41351 9.75604 8.36323 10.0081 8.36323Z" fill="#333333"/>
</svg>
