<svg width="18" height="15" viewBox="0 0 18 15" fill="none" xmlns="http://www.w3.org/2000/svg">
<path d="M6.06445 0C5.82819 0 5.60465 0.111767 5.46289 0.300781L4.0957 2.125H2.3457C1.05321 2.125 0 3.17821 0 4.4707V11.9082C0 13.2007 1.05321 14.2539 2.3457 14.2539H15.0957C16.3882 14.2539 17.4414 13.2007 17.4414 11.9082V4.4707C17.4414 3.17821 16.3882 2.125 15.0957 2.125H13.3457L11.9785 0.300781C11.8368 0.111767 11.6132 0 11.377 0H6.06445ZM6.43945 1.50391H11.002L12.3691 3.32812C12.5109 3.51714 12.7344 3.62891 12.9707 3.62891H15.0957C15.5636 3.62891 15.9375 4.0028 15.9375 4.4707V11.9082C15.9375 12.3761 15.5636 12.75 15.0957 12.75H2.3457C1.8778 12.75 1.50391 12.3761 1.50391 11.9082V4.4707C1.50391 4.0028 1.8778 3.62891 2.3457 3.62891H4.4707C4.70697 3.62891 4.9305 3.51714 5.07227 3.32812L6.43945 1.50391ZM8.7207 4.25C7.80854 4.25 6.89399 4.55408 6.20117 5.16992C5.50835 5.78576 5.04688 6.71779 5.04688 7.92383C5.04688 9.12987 5.50835 10.0619 6.20117 10.6777C6.89399 11.2936 7.80854 11.5977 8.7207 11.5977C9.63287 11.5977 10.5474 11.2936 11.2402 10.6777C11.9331 10.0619 12.3945 9.12987 12.3945 7.92383C12.3945 6.71779 11.9331 5.78576 11.2402 5.16992C10.5474 4.55408 9.63287 4.25 8.7207 4.25ZM8.7207 5.75391C9.46258 5.75391 9.99149 6.0229 10.3496 6.42578C10.7077 6.82866 10.8906 7.37506 10.8906 7.92383C10.8906 8.47259 10.7077 9.01899 10.3496 9.42188C9.99149 9.82476 9.46258 10.0938 8.7207 10.0938C7.97883 10.0938 7.44991 9.82476 7.0918 9.42188C6.73368 9.01899 6.55078 8.47259 6.55078 7.92383C6.55078 7.37506 6.73368 6.82866 7.0918 6.42578C7.44991 6.0229 7.97883 5.75391 8.7207 5.75391Z" fill="#333333"/>
</svg>
