<svg width="18" height="16" viewBox="0 0 18 16" fill="none" xmlns="http://www.w3.org/2000/svg">
<path d="M4.73366 0C4.59298 0 4.45179 0.039895 4.32741 0.119141L0.344988 2.65625C-0.11381 2.94861 -0.11381 3.63928 0.344988 3.93164L3.3196 5.82422L0.344988 7.71875C-0.114996 8.01106 -0.114996 8.70183 0.344988 8.99414L4.32741 11.5312C4.57472 11.6888 4.8926 11.6888 5.13991 11.5312L8.71608 9.25195L12.2923 11.5312C12.5396 11.6888 12.8574 11.6888 13.1048 11.5312L17.0852 8.99414C17.544 8.70178 17.544 8.01306 17.0852 7.7207L14.1106 5.82617L17.0852 3.93164C17.544 3.63928 17.544 2.94861 17.0852 2.65625L13.1048 0.119141C12.8574 -0.0384284 12.5396 -0.0384279 12.2923 0.119141L8.71608 2.39844L5.13991 0.119141C5.01642 0.0404636 4.87434 1e-07 4.73366 0ZM4.73366 1.6543L7.30983 3.29297L4.73366 4.93359L2.15749 3.29297L4.73366 1.6543ZM12.6985 1.6543L15.2747 3.29297L12.6985 4.93359L10.1223 3.29297L12.6985 1.6543ZM8.71608 4.18945L11.2844 5.82422L9.61061 6.89258L8.71608 7.46094L6.14772 5.82422L8.71608 4.18945ZM4.73366 6.7168L7.30983 8.35742L4.73366 9.99805L2.15749 8.35742L4.73366 6.7168ZM12.6985 6.7168L15.2747 8.35742L12.6985 9.99805L10.1223 8.35742L12.6985 6.7168ZM12.7532 11.6934C12.6011 11.6843 12.4398 11.7266 12.2923 11.8223L8.71608 14.0996L5.13991 11.8223C4.8274 11.6236 4.42099 11.6883 4.17897 11.9531H4.16139L4.09694 12.0547C3.87452 12.4045 3.9799 12.8751 4.32936 13.0977L8.30983 15.6328C8.55714 15.7904 8.87502 15.7904 9.12233 15.6328L13.1028 13.0977C13.4266 12.8949 13.52 12.5246 13.427 12.2383C13.3341 11.9519 13.0826 11.713 12.7532 11.6934Z" fill="#333333"/>
</svg>
