<svg width="20" height="20" viewBox="0 0 20 20" fill="none" xmlns="http://www.w3.org/2000/svg">
<path fill-rule="evenodd" clip-rule="evenodd" d="M5.97153 3.11523C6.09483 3.03668 6.23462 3 6.37388 3C6.51314 3 6.65398 3.03735 6.77622 3.11523L10.0047 5.17383L13.2333 3.11719C13.4781 2.96119 13.7931 2.96119 14.0379 3.11719L17.6668 5.42773H17.6688C18.1218 5.71642 18.1218 6.40272 17.6688 6.69141H17.6668L15.034 8.36914L17.6668 10.0469H17.6688C18.1218 10.3356 18.1218 11.0199 17.6688 11.3086H17.6668L14.0379 13.6211C13.9869 13.6537 13.9317 13.6783 13.8758 13.6973C14.11 13.7768 14.285 13.9716 14.3583 14.1973C14.4499 14.4797 14.3517 14.8531 14.036 15.0508L10.4071 17.3594C10.1622 17.5155 9.84729 17.5155 9.60239 17.3594L5.97153 15.0488C5.62581 14.8287 5.52296 14.3636 5.74302 14.0176L5.81919 13.8965H5.84068C5.9304 13.8047 6.04192 13.7431 6.16099 13.707C6.09534 13.6875 6.03098 13.659 5.97153 13.6211L2.34068 11.3086C1.88644 11.0199 1.88644 10.3336 2.34068 10.0449L4.97349 8.36719L2.34068 6.69141C1.88764 6.40272 1.88764 5.71642 2.34068 5.42773L5.97153 3.11523ZM8.61216 6.06055L6.37388 4.63477L4.1356 6.06055L6.37388 7.48438L8.61216 6.06055ZM15.8739 6.06055L13.6376 4.63477L11.3993 6.06055L13.6356 7.48438L15.8739 6.06055ZM12.2372 8.36719L10.0047 6.94531L7.77232 8.36719L10.0067 9.78906L12.2372 8.36719ZM8.61216 10.6777L6.37388 9.25195L4.1356 10.6777L6.37388 12.1016L8.61216 10.6777ZM15.8739 10.6777L13.6376 9.25195L11.3993 10.6777L13.6356 12.1016L15.8739 10.6777ZM13.2333 13.6211L10.0047 11.5645L6.77622 13.6211C6.71803 13.6582 6.65485 13.6856 6.59068 13.7051C6.65438 13.7241 6.71757 13.7478 6.77622 13.7852L10.0047 15.8418L13.2313 13.7871C13.2885 13.75 13.3498 13.7245 13.411 13.7031C13.3495 13.6838 13.2891 13.6567 13.2333 13.6211Z" fill="#333333"/>
</svg>
