<svg width="20" height="20" viewBox="0 0 20 20" fill="none" xmlns="http://www.w3.org/2000/svg">
<path d="M7.78338 2.56835C8.11427 2.21353 8.6012 2 9.14862 2L9.43963 2.00784C9.59497 2.00784 9.75418 2.0181 9.90838 2.03322L9.93378 2.03708C10.0517 2.05409 10.1704 2.07917 10.2853 2.1094L10.2892 2.11136L10.3458 2.12307C10.837 2.24481 11.2586 2.55787 11.5217 2.99021C11.5462 3.02914 11.5654 3.07088 11.5881 3.11132L11.9631 3.1758L13.2658 3.40233H13.2717C13.3238 3.40989 13.3796 3.4202 13.4318 3.42776L13.4497 3.43058C13.7837 3.48318 14.352 3.57266 14.8947 3.82621C15.5917 4.15201 16.2841 4.78455 16.4924 5.87895V5.88282L16.4963 5.90623V5.93166C16.868 7.94388 16.9428 9.91153 16.9201 11.375C16.9076 12.1144 16.872 12.7311 16.8342 13.166C16.8157 13.3834 16.7965 13.555 16.7814 13.6797C16.7727 13.7583 16.7575 13.8386 16.7424 13.916L16.7404 13.9199C16.4574 15.8666 15.7468 16.9854 14.8303 17.5469C14.0169 18.0443 13.1602 18.0329 12.7228 18.0254L12.6017 18.0234C11.9486 18.0229 11.2964 17.7366 10.7951 17.3379C10.299 16.9438 9.82637 16.3293 9.82637 15.5664C9.82637 14.9045 10.1283 14.2975 10.674 13.9785C11.2237 13.6572 11.9076 13.6979 12.4787 14.0527C12.5622 14.1045 12.6361 14.1734 12.6935 14.2539C12.751 14.334 12.7919 14.4255 12.8146 14.5215C12.8373 14.6175 12.8415 14.7169 12.8264 14.8144C12.8105 14.912 12.773 15.004 12.7209 15.0879C12.6687 15.1714 12.6018 15.2453 12.5217 15.3027C12.4415 15.3598 12.3493 15.4011 12.2541 15.4238C12.1581 15.4465 12.0583 15.4468 11.9611 15.4316C11.8636 15.4154 11.7692 15.3819 11.6857 15.3301C11.5141 15.2231 11.4591 15.2598 11.4362 15.2751L11.4357 15.2754C11.4115 15.2898 11.3302 15.3442 11.3302 15.5664C11.3302 15.6714 11.4355 15.9235 11.7326 16.1601C12.0232 16.3918 12.3909 16.5215 12.6056 16.5215H12.7326C13.1831 16.5241 13.6303 16.5222 14.049 16.2656C14.4782 16.001 15.0227 15.3785 15.2639 13.6562C15.2676 13.6313 15.2719 13.6047 15.2795 13.582V13.5781C15.304 13.3989 15.3229 13.2193 15.338 13.039C15.3823 12.4776 15.4125 11.9149 15.4201 11.3516C15.4434 9.94216 15.37 8.05951 15.0158 6.16408C14.9086 5.60203 14.6315 5.36367 14.2599 5.18944C13.9312 5.03637 13.5714 4.97431 13.2365 4.91988C12.727 4.83224 12.2166 4.74433 11.7072 4.65627L10.9259 4.52149C10.7795 4.49579 10.643 4.427 10.5353 4.3242C10.4303 4.22366 10.3584 4.09488 10.3244 3.95314C10.3066 3.89305 10.2803 3.8361 10.2463 3.78319C10.185 3.6853 10.1183 3.61605 9.9826 3.58203L9.89278 3.56248C9.80623 3.5398 9.78247 3.5331 9.75601 3.52932C9.62827 3.5142 9.51522 3.50585 9.43963 3.50585H9.15055C8.90035 3.50585 8.86503 3.61156 8.85369 3.6641C8.85407 3.76664 8.87998 4.40805 8.90643 5.02929C8.91777 5.307 8.93414 5.58743 8.94548 5.86523L8.95914 6.24026V6.27152C8.95914 6.64441 8.91077 7.20158 8.47087 7.61525L8.46891 7.61912C8.14701 7.91683 7.69689 8.07034 7.13885 8.07034C7.11995 8.0703 7.10307 8.06962 7.08417 8.06837L6.73454 8.04098L5.94546 7.98827C5.34833 7.9501 4.72359 7.91642 4.65253 7.91601C4.63099 7.92357 4.6071 7.93019 4.59198 7.9453L4.57442 7.96485C4.5438 8.00227 4.50942 8.06787 4.50602 8.19335C4.51509 8.32601 4.53023 8.46065 4.55291 8.5918L4.55487 8.60939C4.61987 9.01436 4.70016 9.41885 4.79313 9.81834C4.81014 9.90074 4.82891 9.98362 4.84781 10.0664C4.98534 10.6721 5.18151 11.0598 5.32437 11.2832C5.37351 11.3618 5.4288 11.4363 5.49041 11.5059C5.49797 11.5134 5.5024 11.5218 5.50996 11.5293L5.51385 11.5312C5.53048 11.546 5.55144 11.5669 5.56656 11.582C6.27813 12.3115 7.34407 12.6456 8.38102 12.584L8.41228 12.5821C8.41644 12.5818 8.41761 12.5823 8.42006 12.5821C8.45748 12.5783 8.49559 12.572 8.53339 12.5645C8.55531 12.5569 8.57317 12.5486 8.59585 12.5411C8.64347 12.5059 8.72957 12.4246 8.82633 12.2715C8.9314 12.1047 9.02912 11.8937 9.11151 11.6816C9.18294 11.4976 9.24533 11.3112 9.299 11.1211C9.31843 11.0532 9.33623 10.9838 9.35391 10.9148L9.35759 10.9004L9.35955 10.8887C9.39848 10.7127 9.49837 10.5589 9.64275 10.4512C9.7872 10.3435 9.96712 10.2914 10.1466 10.3027C10.3265 10.3156 10.4955 10.3945 10.6232 10.5215C10.7509 10.6488 10.8249 10.8185 10.84 10.9981C10.8595 11.2619 10.9981 11.4373 11.2638 11.6055C11.4994 11.7495 11.7625 11.8439 12.0353 11.8848L12.049 11.8867L12.0685 11.8887C12.2066 11.9083 12.3422 11.9345 12.4787 11.9609H12.4826L12.5236 11.9726L12.5314 11.9746C12.6988 12.0105 12.8605 12.0629 13.0177 12.1309L13.0216 12.1329C13.9053 12.5289 14.6037 13.4194 14.6037 14.4883C14.6037 14.6873 14.5259 14.8785 14.3849 15.0195C14.2441 15.1601 14.0529 15.2402 13.8537 15.2402C13.6542 15.2402 13.4611 15.1601 13.3205 15.0195C13.1795 14.8786 13.1017 14.6874 13.1017 14.4883C13.1017 14.0958 12.8173 13.6833 12.4044 13.5L12.4005 13.498L12.3947 13.4961C12.3716 13.4885 12.3431 13.4802 12.3205 13.4727C12.2838 13.4602 12.2353 13.4507 12.1759 13.4356L12.1525 13.4316C12.0758 13.4154 12.0003 13.4001 11.9474 13.3926L11.9513 13.3946L11.8752 13.3828H11.8713L11.8596 13.3809H11.8537C11.3594 13.3135 10.883 13.1419 10.4592 12.8789C10.3923 12.8366 10.3363 12.78 10.2736 12.7324C10.2158 12.8465 10.1674 12.9611 10.0978 13.0723C9.92673 13.3444 9.69109 13.6419 9.36152 13.8437L9.3537 13.8476L9.34586 13.8516C9.19082 13.9336 9.02294 13.9951 8.85173 14.0332C8.71283 14.0635 8.57035 14.0822 8.46113 14.0859C7.074 14.1657 5.57193 13.7324 4.50406 12.6465C4.45795 12.6034 4.41357 12.5586 4.37124 12.5118C4.28242 12.4138 4.17082 12.2747 4.0529 12.0898C3.81664 11.7211 3.5564 11.1686 3.38103 10.3965L3.3791 10.3926V10.3848L3.37714 10.3769C3.36618 10.3172 3.34719 10.2436 3.32829 10.1582C3.2527 9.8171 3.14269 9.31867 3.0705 8.83984C3.03044 8.61314 3.01543 8.43248 3.00409 8.29491V8.28712C2.99884 8.24933 3.00014 8.22228 3.00014 8.21094C3.00014 7.66037 3.2104 7.16266 3.57437 6.83006L7.78338 2.56835Z" fill="#333333"/>
<path d="M13.0236 8.7012C13.2044 8.6634 13.39 8.64007 13.5744 8.6426C13.636 8.64638 13.6967 8.65053 13.758 8.65431H13.7638C14.2285 8.7025 14.705 8.88075 14.9767 9.33789C15.0776 9.50895 15.1063 9.71461 15.0568 9.90623C15.0073 10.0979 14.8831 10.262 14.7131 10.3633C14.5429 10.4661 14.3406 10.4933 14.1486 10.4453C13.9858 10.4048 13.8463 10.3073 13.7443 10.1758C13.7443 10.1758 13.7126 10.1637 13.6173 10.1524C13.524 10.1448 13.428 10.153 13.3361 10.1719L13.3322 10.1738C13.2774 10.1867 13.2262 10.2018 13.174 10.2207L13.1994 10.2051C13.0236 10.2984 12.8196 10.318 12.6291 10.2598C12.4385 10.2016 12.2771 10.0703 12.1838 9.89453C12.0904 9.71942 12.0705 9.5135 12.1291 9.32226C12.1873 9.13177 12.3186 8.97229 12.4943 8.87894C12.646 8.7973 12.8301 8.74126 13.0236 8.7012Z" fill="#333333"/>
</svg>
