<svg width="16" height="18" viewBox="0 0 16 18" fill="none" xmlns="http://www.w3.org/2000/svg">
<path d="M6.67969 0C6.09611 0 5.58057 0.227995 5.23047 0.603516L0.611328 5.2832C0.226631 5.63502 0 6.15887 0 6.74609C0 6.76046 0.000819275 6.78691 0.00585938 6.82227V6.83398C0.0180824 6.98497 0.0345841 7.17956 0.078125 7.42578C0.156683 7.94851 0.276411 8.49242 0.359375 8.86719V8.86914C0.380296 8.96292 0.400361 9.04487 0.414062 9.11133V9.11523L0.417969 9.125C0.608824 9.96615 0.893077 10.5643 1.14844 10.9629C1.27593 11.1625 1.39492 11.3113 1.49023 11.416C1.53568 11.4665 1.58297 11.5144 1.63281 11.5605C2.78861 12.7359 4.4168 13.2076 5.92188 13.1211C6.03591 13.1165 6.19323 13.097 6.3418 13.0645C6.52393 13.0237 6.70015 12.9582 6.86523 12.8711L6.87109 12.8672L6.87695 12.8633C7.22568 12.6499 7.47761 12.3345 7.66211 12.041C7.7511 11.8988 7.81694 11.7507 7.88867 11.6035C7.97507 11.6725 8.05471 11.7497 8.14844 11.8086H8.15039C8.60751 12.0923 9.11927 12.2769 9.65234 12.3496H9.6582L9.66992 12.3516H9.67773L9.75586 12.3633C9.81527 12.3728 9.89784 12.3881 9.98242 12.4043L10.0117 12.4121C10.0765 12.4283 10.1271 12.4405 10.1699 12.4531H10.1719H10.1738C10.2028 12.4613 10.2316 12.4717 10.2598 12.4824L10.2676 12.4863L10.2695 12.4883C10.7445 12.6994 11.0742 13.1705 11.0742 13.6309C11.0743 13.8655 11.17 14.0691 11.3164 14.1992C11.4628 14.3293 11.6504 14.3906 11.834 14.3906C12.0176 14.3906 12.2032 14.3294 12.3496 14.1992C12.496 14.0691 12.5919 13.8655 12.5918 13.6309C12.5918 12.4874 11.8438 11.5301 10.8965 11.1055H10.8945L10.8926 11.1035C10.7221 11.0297 10.545 10.9743 10.3633 10.9355H10.3691L10.3203 10.9238H10.3164C10.1685 10.8938 10.0205 10.8672 9.87109 10.8457H9.86914L9.85156 10.8438L9.83203 10.8418C9.52309 10.7957 9.22723 10.6885 8.96094 10.5254L8.95703 10.5234C8.65674 10.3328 8.49172 10.1198 8.46875 9.80859C8.43751 9.3963 8.10083 9.13143 7.76562 9.10742C7.43042 9.08341 7.06039 9.29754 6.9707 9.70117L6.9668 9.71094C6.94739 9.79257 6.92729 9.87439 6.9043 9.95508C6.84493 10.1653 6.77424 10.3724 6.69531 10.5762C6.60398 10.8114 6.49535 11.0463 6.37695 11.2344C6.2678 11.4071 6.16933 11.5057 6.10742 11.5508C6.07668 11.5629 6.04595 11.5749 6.01367 11.582C5.96675 11.592 5.91887 11.5993 5.87109 11.6035H5.86719L5.8418 11.6055C4.68688 11.6739 3.50111 11.302 2.70508 10.4844V10.4863C2.6893 10.4699 2.67345 10.4544 2.65625 10.4395L2.6543 10.4375L2.65234 10.4355L2.64844 10.4316C2.63776 10.421 2.6272 10.4097 2.61719 10.3984C2.54738 10.3195 2.48372 10.2358 2.42773 10.1465V10.1445C2.26726 9.89326 2.04909 9.46323 1.89648 8.79102V8.78906C1.87694 8.69921 1.85807 8.60747 1.83789 8.51758C1.73574 8.07792 1.64763 7.63513 1.57617 7.18945V7.1875L1.57422 7.17188V7.16992C1.54897 7.02168 1.53226 6.87274 1.52148 6.72266C1.52523 6.57224 1.56621 6.4851 1.61133 6.43164V6.42969L1.63672 6.4043C1.66512 6.37925 1.69961 6.36436 1.73633 6.35547C1.82087 6.35547 2.51099 6.39443 3.16992 6.4375L4.03516 6.49609L4.41797 6.52148C4.4355 6.52277 4.45312 6.52338 4.4707 6.52344H4.47266C5.07325 6.52344 5.54507 6.35893 5.88477 6.04492L5.88867 6.04102L5.89062 6.03906C6.35366 5.60366 6.40625 5.01861 6.40625 4.61523V4.58398L6.38867 4.17383L6.34766 3.25781C6.3177 2.57221 6.28941 1.86053 6.28906 1.74609C6.30809 1.65911 6.37835 1.51758 6.67969 1.51758H6.99609C7.08177 1.51758 7.20735 1.52806 7.3457 1.54102C7.37998 1.5457 7.40989 1.55178 7.51172 1.57812L7.60938 1.60156C7.77661 1.64298 7.86473 1.7348 7.9375 1.85156C7.9767 1.9146 8.00623 1.98156 8.02734 2.05273L8.0293 2.05664C8.09853 2.35155 8.33773 2.57851 8.63672 2.63086L9.49414 2.7793L11.1699 3.06836H11.1719C11.5399 3.12802 11.9392 3.19564 12.3105 3.36914C12.7301 3.56581 13.0545 3.84672 13.1758 4.48242C13.5657 6.56813 13.6448 8.63603 13.6191 10.1855V10.1875C13.6099 10.8067 13.5795 11.4257 13.5293 12.043C13.5125 12.2426 13.4913 12.442 13.4648 12.6406C13.4582 12.6673 13.4509 12.6935 13.4473 12.7207C13.1811 14.6257 12.5742 15.3295 12.084 15.6309C11.6072 15.923 11.1014 15.9228 10.6074 15.9199H10.4688C10.2115 15.9199 9.7981 15.7743 9.46875 15.5117C9.13222 15.2441 9.00391 14.9544 9.00391 14.8086C9.00391 14.5465 9.10232 14.4618 9.15039 14.4336C9.1961 14.4066 9.28858 14.3662 9.49414 14.4941C9.69343 14.6181 9.91759 14.6435 10.1055 14.5879C10.2933 14.5323 10.4441 14.406 10.541 14.25C10.638 14.094 10.6856 13.904 10.6523 13.7109C10.6191 13.5178 10.4962 13.3291 10.2969 13.2051C9.68786 12.8266 8.96567 12.7836 8.38477 13.123C7.80803 13.46 7.48633 14.1021 7.48633 14.8086C7.48633 15.6177 7.9895 16.2751 8.52344 16.6992C9.06359 17.1289 9.77162 17.4375 10.4688 17.4375L10.5996 17.4395C11.0794 17.446 12.0028 17.462 12.877 16.9258C13.8656 16.3201 14.6366 15.1128 14.9434 12.9766C14.9599 12.8955 14.974 12.8145 14.9844 12.7324C15.0013 12.5966 15.0226 12.4074 15.043 12.1699V12.168C15.0829 11.6924 15.123 11.0203 15.1367 10.2109C15.1633 8.60603 15.0801 6.44728 14.6719 4.24219V4.2207L14.668 4.20117V4.19922C14.4431 3.01958 13.7041 2.34517 12.9531 1.99414C12.3579 1.71608 11.7286 1.618 11.3652 1.56055H11.3613C11.3034 1.55189 11.2452 1.54351 11.1875 1.5332H11.1855L11.1816 1.53125L9.75195 1.2832L9.30859 1.20703C9.28089 1.15398 9.25634 1.09961 9.22461 1.04883L9.22266 1.04687C8.94293 0.588585 8.49384 0.258057 7.97266 0.128906H7.9707L7.91211 0.113281L7.90625 0.111328C7.78289 0.0774789 7.65604 0.0513801 7.5293 0.0332031H7.52734L7.50391 0.03125H7.50195C7.33456 0.0140529 7.1664 0.002708 6.99805 0H6.99609H6.67969ZM11.5312 7.28906C11.3334 7.28636 11.1369 7.30579 10.9434 7.34766C10.7355 7.3909 10.5379 7.45256 10.3809 7.53711C10.0133 7.73271 9.87104 8.19675 10.0664 8.56445L10.1289 8.67969H10.1445C10.3617 8.95149 10.7472 9.04436 11.0684 8.88867C11.1287 8.86576 11.1907 8.84726 11.2539 8.83398H11.2559H11.2578C11.3621 8.81061 11.4696 8.80307 11.5762 8.81055H11.5781C11.6912 8.82294 11.7376 8.83861 11.752 8.84375C11.872 9.01113 12.0379 9.12167 12.2109 9.1543C12.4023 9.19038 12.5911 9.1461 12.748 9.05273C12.905 8.95932 13.0342 8.81432 13.0938 8.62891C13.1533 8.44349 13.1329 8.22072 13.0156 8.01953V8.01758C12.7304 7.53772 12.2337 7.35257 11.7344 7.30078H11.7324L11.7305 7.29883C11.6647 7.29293 11.5972 7.28996 11.5312 7.28906Z" fill="#333333"/>
</svg>
