<svg width="18" height="18" viewBox="0 0 18 18" fill="none" xmlns="http://www.w3.org/2000/svg">
<path d="M8.72461 0C3.90891 0 0 3.90891 0 8.72461C0 13.0846 3.19936 16.6986 7.38086 17.3457C7.83505 17.4162 8.25187 17.0592 8.25195 16.5996V11.0938C8.25195 10.6788 7.91109 10.3379 7.49609 10.3379H6.21094V9.52734H7.49609C7.91109 9.52734 8.25195 9.18648 8.25195 8.77148V6.87891C8.25195 6.35729 8.38753 5.66156 8.8457 5.20898C9.2279 4.83209 10.0053 4.51648 11.5039 4.72266V5.28516C11.3197 5.29581 11.136 5.30498 10.9531 5.33008H10.9512C10.5887 5.38304 10.2393 5.47752 9.94141 5.67773C9.60975 5.90061 9.41745 6.20932 9.31836 6.52734C9.21927 6.84537 9.20508 7.17491 9.20508 7.47656V8.77148C9.20508 9.18648 9.54595 9.52734 9.96094 9.52734H11.3008L11.1738 10.3379H9.96094C9.54595 10.3379 9.20508 10.6807 9.20508 11.0957V16.5996C9.20568 17.0593 9.62397 17.4168 10.0781 17.3457C14.2539 16.6949 17.4492 13.081 17.4492 8.72461C17.4492 3.90891 13.5403 0 8.72461 0ZM8.72461 1.51172C12.7106 1.51172 15.9375 4.73862 15.9375 8.72461C15.9375 12.012 13.7205 14.7427 10.7168 15.6133V11.8516H11.8223C12.1928 11.8511 12.511 11.577 12.5684 11.2109L12.9336 8.88867C13.0048 8.43374 12.646 8.01304 12.1855 8.01367H10.7168V7.47656C10.7168 7.19638 10.7416 7.04456 10.7617 6.98047C10.7819 6.91638 10.7648 6.94719 10.7852 6.93359C10.8113 6.91606 10.9172 6.86368 11.1719 6.82617C11.423 6.78925 11.7752 6.77148 12.2598 6.77148C12.6748 6.77148 13.0176 6.42867 13.0176 6.01367V4.06445C13.0175 3.70955 12.7669 3.39898 12.4199 3.32422C10.1943 2.84585 8.69491 3.23601 7.78516 4.13281C6.90464 5.00113 6.74024 6.1651 6.74024 6.87891V8.01367H5.45508C5.04008 8.01367 4.69727 8.35649 4.69727 8.77148V11.0957C4.69727 11.5107 5.04008 11.8516 5.45508 11.8516H6.74024V15.6152C3.73233 14.7478 1.51172 12.0148 1.51172 8.72461C1.51172 4.73862 4.73862 1.51172 8.72461 1.51172Z" fill="#333333"/>
</svg>
