<svg width="20" height="20" viewBox="0 0 20 20" fill="none" xmlns="http://www.w3.org/2000/svg">
<path d="M10.0098 2C5.58932 2 2 5.58929 2 10.0098C2 14.0119 4.93651 17.3298 8.77539 17.9238C8.8816 17.939 8.99058 17.9345 9.09377 17.9043C9.19687 17.874 9.2915 17.8239 9.37307 17.7539C9.45444 17.684 9.52151 17.5975 9.56641 17.5C9.61123 17.4025 9.63474 17.2972 9.63478 17.1894V12.1699C9.63478 11.9726 9.55361 11.7841 9.41407 11.6446C9.27453 11.5051 9.08602 11.4238 8.88869 11.4238H7.77148V10.7969H8.88869C9.08602 10.7969 9.27455 10.7156 9.41407 10.5761C9.55361 10.4367 9.63478 10.2481 9.63478 10.0508V8.3242C9.63478 7.85773 9.75601 7.24105 10.1582 6.84379C10.4886 6.51799 11.1753 6.24431 12.4902 6.41408V6.82228C12.3379 6.83362 12.1846 6.83864 12.0332 6.86132C11.6983 6.91045 11.3714 6.99815 11.0898 7.18751C10.7766 7.39803 10.5932 7.69319 10.5 7.99219C10.4068 8.29115 10.3926 8.5941 10.3926 8.8711V10.0527C10.3926 10.25 10.4718 10.4387 10.6113 10.5782C10.7509 10.7176 10.9394 10.7988 11.1367 10.7988H12.2949L12.1973 11.4277H11.1367C10.9394 11.4277 10.7509 11.5071 10.6113 11.6465C10.4718 11.786 10.3926 11.9746 10.3926 12.1719V17.1894C10.3927 17.2968 10.416 17.4045 10.4609 17.502C10.506 17.5995 10.5706 17.686 10.6524 17.7559C10.734 17.8258 10.83 17.8748 10.9336 17.9043C11.0371 17.9345 11.1458 17.9413 11.252 17.9258C15.0856 17.3283 18.0176 14.0106 18.0176 10.0117C18.0176 5.59126 14.4302 2 10.0098 2ZM10.0098 3.48636C13.6144 3.48636 16.5312 6.40511 16.5312 10.0098C16.5312 12.9553 14.5581 15.3961 11.8809 16.207V12.916H12.832C13.0091 12.9157 13.1818 12.8516 13.3164 12.7363C13.4511 12.621 13.541 12.4604 13.5684 12.2852L13.9004 10.166C13.917 10.0594 13.9123 9.95082 13.8828 9.84764C13.8533 9.74408 13.8004 9.64808 13.7305 9.56644C13.6605 9.4848 13.5723 9.41957 13.4746 9.37497C13.3769 9.32999 13.2736 9.30669 13.166 9.30669H11.8809V8.86914C11.8809 8.61666 11.9047 8.48455 11.9199 8.43557C11.9227 8.42801 11.9216 8.42372 11.9219 8.41994C11.9385 8.4086 12.026 8.36493 12.2481 8.33205C12.4725 8.29803 12.7921 8.2813 13.2324 8.2813C13.4297 8.2813 13.6202 8.20392 13.7598 8.06445C13.8992 7.92499 13.9766 7.73448 13.9766 7.53711V5.75975C13.9766 5.58967 13.9193 5.42341 13.8125 5.29105C13.7056 5.15877 13.557 5.06715 13.3906 5.03125C11.3507 4.59278 9.95839 4.9481 9.11329 5.78126C8.29525 6.58796 8.14453 7.66479 8.14453 8.3242V9.30669H7.02736C6.83003 9.30669 6.6415 9.38749 6.50197 9.52734C6.36243 9.6668 6.28323 9.85539 6.28323 10.0527V12.1719C6.28323 12.3692 6.36236 12.5578 6.50197 12.6973C6.64148 12.8367 6.82999 12.918 7.02736 12.918H8.14453V16.209C5.46365 15.4005 3.48633 12.9596 3.48633 10.0117C3.48633 6.40707 6.40512 3.48636 10.0098 3.48636Z" fill="#333333"/>
</svg>
