<svg width="18" height="9" viewBox="0 0 18 9" fill="none" xmlns="http://www.w3.org/2000/svg">
<path d="M4.26367 0C1.91876 0 0 1.88395 0 4.2168C0 6.551 1.91876 8.43359 4.26367 8.43359C6.61058 8.43359 8.53125 6.55177 8.53125 4.2168C8.53125 1.88318 6.61058 0 4.26367 0ZM13.4758 0C11.1289 0 9.2082 1.88318 9.2082 4.2168C9.2082 6.55177 11.1289 8.43359 13.4758 8.43359C15.8214 8.43359 17.7395 6.551 17.7395 4.2168C17.7395 1.88395 15.8214 0 13.4758 0ZM4.26367 1.51562C5.79714 1.51562 7.01562 2.73308 7.01562 4.2168C7.01562 5.70283 5.79721 6.91797 4.26367 6.91797C2.73321 6.91797 1.51562 5.70289 1.51562 4.2168C1.51562 2.73224 2.73321 1.51562 4.26367 1.51562ZM13.4758 1.51562C15.007 1.51562 16.2238 2.73224 16.2238 4.2168C16.2238 5.70289 15.007 6.91797 13.4758 6.91797C11.9423 6.91797 10.7238 5.70206 10.7238 4.2168C10.7238 2.73308 11.9431 1.51562 13.4758 1.51562Z" fill="#333333"/>
</svg>
