<svg width="20" height="20" viewBox="0 0 20 20" fill="none" xmlns="http://www.w3.org/2000/svg">
<path d="M5.94533 6C3.77566 6 2 7.74086 2 9.90041C2 12.0611 3.77566 13.8066 5.94533 13.8066C8.11682 13.8066 9.89453 12.0618 9.89453 9.90041C9.89453 7.74014 8.11682 6 5.94533 6ZM14.3703 6C12.1987 6 10.4211 7.74014 10.4211 9.90041C10.4211 12.0618 12.1987 13.8066 14.3703 13.8066C16.5406 13.8066 18.3175 12.0611 18.3175 9.90041C18.3175 7.74086 16.5406 6 14.3703 6ZM5.94533 7.49997C7.31193 7.49997 8.39456 8.58022 8.39456 9.90041C8.39456 11.2227 7.31201 12.3066 5.94533 12.3066C4.58156 12.3066 3.50002 11.2228 3.50002 9.90041C3.50002 8.57942 4.58156 7.49997 5.94533 7.49997ZM14.3703 7.49997C15.7349 7.49997 16.8176 8.5795 16.8176 9.90041C16.8176 11.2228 15.7348 12.3066 14.3703 12.3066C13.0037 12.3066 11.923 11.222 11.923 9.90041C11.923 8.58022 13.0045 7.49997 14.3703 7.49997Z" fill="#333333"/>
</svg>
