<svg width="20" height="20" viewBox="0 0 20 20" fill="none" xmlns="http://www.w3.org/2000/svg">
<path d="M7.66602 3C7.53601 2.99992 7.40797 3.03383 7.29497 3.0996C7.18196 3.16423 7.08567 3.25494 7.01953 3.36719L2.10158 11.7637C2.03543 11.8767 2.00115 12.0036 2.00002 12.1347C1.99915 12.2659 2.03034 12.3941 2.09572 12.5078L4.55666 16.8262C4.62205 16.9403 4.71597 17.0355 4.83011 17.1016C4.94387 17.1674 5.07359 17.2032 5.20511 17.2032H14.8125C14.9444 17.2032 15.0741 17.1693 15.1875 17.1016C15.3013 17.0355 15.3976 16.9403 15.4629 16.8262L17.9219 12.5078C17.9858 12.3959 18.0192 12.2707 18.0196 12.1426C18.02 12.0145 17.9855 11.8857 17.9238 11.7734L13.2363 3.38086C13.1713 3.26521 13.0759 3.17042 12.961 3.10352C12.8465 3.03662 12.7149 3 12.5821 3H7.66602ZM8.95119 4.49218H12.1465L16 11.3926H12.9004L8.95119 4.49218ZM7.65824 5.23441L9.22268 7.96876L5.20707 14.957L3.60745 12.1445L7.65824 5.23441ZM10.0821 9.47069L11.1797 11.3926H8.97657L10.0821 9.47069ZM8.11914 12.8848H15.9883L14.3809 15.7109H6.49415L8.11914 12.8848Z" fill="#333333"/>
</svg>
