<svg width="20" height="20" viewBox="0 0 20 20" fill="none" xmlns="http://www.w3.org/2000/svg">
<path fill-rule="evenodd" clip-rule="evenodd" d="M9.25806 3.08228C9.25806 2.48793 9.7441 2 10.3384 2C11.2344 2.00025 12.1087 2.27452 12.8436 2.78711C13.5784 3.2997 14.1384 4.02578 14.4481 4.86652C14.7577 5.70726 14.8035 6.62215 14.5767 7.48895C14.3966 8.17733 13.9435 8.73419 13.468 9.25621H16.9362C17.531 9.25621 18.0184 9.74371 18.0184 10.3385C18.0186 11.2349 17.744 12.1102 17.2313 12.8455C16.7186 13.5808 15.9932 14.1402 15.1519 14.45C14.3107 14.7598 13.3947 14.8058 12.5276 14.5787V14.5767C11.839 14.3962 11.2823 13.944 10.7604 13.468V16.9362C10.7604 17.5307 10.2733 18.0184 9.6781 18.0184C8.78186 18.0182 7.9061 17.7441 7.17108 17.2313C6.43607 16.7185 5.87612 15.993 5.56659 15.1519C5.25706 14.3108 5.21446 13.3945 5.44171 12.5276C5.62219 11.8391 6.07443 11.2822 6.55048 10.7604H3.08228C2.48817 10.7604 2 10.2748 2 9.67999C1.99979 8.78358 2.27443 7.9083 2.78711 7.17297C3.29979 6.43766 4.02534 5.87825 4.86652 5.56848C5.7077 5.25872 6.62371 5.21452 7.49084 5.44171C8.17949 5.62215 8.73612 6.07436 9.25806 6.55048V3.08228ZM12.4216 4.40106C11.9866 3.94231 11.3788 3.7354 10.7604 3.63477V9.12561C11.3788 9.02498 11.9866 8.81806 12.4216 8.35931C12.9286 7.82478 13.2106 7.11685 13.2106 6.38019C13.2106 5.64351 12.9286 4.9356 12.4216 4.40106ZM7.21082 6.91943C6.83364 6.80568 6.43658 6.76959 6.04529 6.81537C5.36954 6.89467 4.74465 7.21146 4.27997 7.70844C3.88477 8.13109 3.71218 8.69098 3.62341 9.25806H9.18237C9.13832 8.96334 9.09167 8.66721 8.95911 8.39905C8.78452 8.04588 8.53895 7.73209 8.23822 7.4776C7.93748 7.22311 7.58799 7.03318 7.21082 6.91943ZM16.465 10.7604H10.8115C10.8163 10.7934 10.8205 10.8266 10.8248 10.8598C10.8374 10.9582 10.85 11.0568 10.8777 11.152C10.9403 11.3679 11.0278 11.5753 11.1388 11.7708C11.2501 11.9659 11.3826 12.146 11.5361 12.31C11.6896 12.4738 11.8617 12.6195 12.0489 12.7433C12.2362 12.8676 12.4376 12.9703 12.6487 13.0479C12.8596 13.1249 13.0785 13.177 13.3015 13.2031C13.5244 13.2293 13.7502 13.2293 13.9731 13.2031C14.1968 13.1771 14.4163 13.125 14.6278 13.0479C14.8389 12.9703 15.0404 12.8676 15.2276 12.7433C15.4149 12.6195 15.5869 12.4738 15.7404 12.31C15.8933 12.1459 16.027 11.9657 16.1377 11.7707V11.7689C16.2493 11.5736 16.3375 11.3661 16.4007 11.1501C16.4275 11.0578 16.4393 10.9622 16.4511 10.8667C16.4555 10.8312 16.4599 10.7957 16.465 10.7604ZM7.59302 15.6193C8.02955 16.0788 8.63788 16.2862 9.25806 16.3856V10.8909C7.88907 11.1126 6.80212 12.2052 6.80212 13.6382C6.80218 14.3758 7.08512 15.0846 7.59302 15.6193Z" fill="#333333"/>
</svg>
