<svg width="18" height="16" viewBox="0 0 18 16" fill="none" xmlns="http://www.w3.org/2000/svg">
<path d="M6.14215 5.68712e-07C5.87705 -0.000138531 5.63193 0.140589 5.49762 0.369141L0.103086 9.57617C-0.0319649 9.80652 -0.034736 10.0921 0.0972263 10.3242L2.79449 15.0605H2.79645C2.92945 15.2934 3.17673 15.4374 3.44488 15.4375H13.9839C14.2521 15.4374 14.5013 15.2934 14.6343 15.0605L17.3316 10.3242C17.4611 10.0968 17.4611 9.81635 17.3336 9.58789L12.191 0.382813C12.0586 0.146823 11.8073 -0.000333831 11.5367 5.68712e-07H6.14215ZM7.43316 1.49609H11.0992L15.4058 9.20508H11.8453L7.43316 1.49609ZM6.13629 2.24219L7.93121 5.38086L3.44879 13.1836L1.61285 9.95899L6.13629 2.24219ZM8.79254 6.88477L10.1207 9.20508H7.46051L8.79254 6.88477ZM6.60113 10.7012H15.3961L13.5484 13.9414H4.73785L6.60113 10.7012Z" fill="#333333"/>
</svg>
