<svg width="18" height="18" viewBox="0 0 18 18" fill="none" xmlns="http://www.w3.org/2000/svg">
<path d="M9.08203 0C8.46551 0 7.96094 0.506352 7.96094 1.12305V4.95312C6.56043 3.61988 4.688 3.32667 3.10352 3.91016C1.37666 4.54608 -0.000509758 6.16608 1.41548e-07 8.35938C1.41548e-07 8.97644 0.506561 9.48047 1.12305 9.48047H4.95313C3.62013 10.8807 3.32711 12.7535 3.91016 14.3379C4.5456 16.0646 6.16463 17.441 8.35742 17.4414C8.97502 17.4414 9.48047 16.9352 9.48047 16.3184V12.4883C10.881 13.8215 12.7534 14.1147 14.3379 13.5312C16.0647 12.8953 17.4419 11.2753 17.4414 9.08203C17.4414 8.46497 16.9354 7.95898 16.3184 7.95898H12.4883C13.8199 6.55845 14.1126 4.68528 13.5293 3.10156C12.8935 1.37555 11.274 0.0006024 9.08203 0ZM9.48047 1.58008C10.379 1.68566 11.0736 2.04454 11.5352 2.58594C12.0405 3.17864 12.2988 3.95812 12.2988 4.74023C12.2988 5.52235 12.0405 6.30183 11.5352 6.89453C11.0736 7.43593 10.379 7.79481 9.48047 7.90039V1.58008ZM4.69336 5.13281C6.32207 5.10871 7.68908 6.33204 7.89453 7.96094H1.62305C1.81476 6.51171 2.89078 5.32732 4.36523 5.1543C4.47588 5.14135 4.58478 5.13442 4.69336 5.13281ZM9.52539 9.48047H15.877C15.856 9.6518 15.8411 9.82422 15.793 9.99023C15.7223 10.2319 15.6229 10.4649 15.498 10.6836C15.3741 10.9019 15.2259 11.1054 15.0547 11.2891C14.8829 11.4724 14.6901 11.6349 14.4805 11.7734C14.2709 11.9126 14.0448 12.0265 13.8086 12.1133C13.5719 12.1997 13.3265 12.2581 13.0762 12.2871C12.8266 12.3164 12.5738 12.3164 12.3242 12.2871C12.0745 12.258 11.8299 12.1995 11.5938 12.1133C11.3576 12.0265 11.1315 11.9126 10.9219 11.7734C10.7123 11.6349 10.5195 11.4724 10.3477 11.2891C10.1758 11.1055 10.0269 10.902 9.90234 10.6836C9.77811 10.4648 9.67948 10.2338 9.60938 9.99219C9.56092 9.82558 9.54641 9.65244 9.52539 9.48047ZM7.96094 9.5918V15.8105C6.37921 15.5957 5.13881 14.3256 5.13867 12.7012C5.13867 11.0688 6.38813 9.80472 7.96094 9.5918Z" fill="#333333"/>
</svg>
