<svg width="21" height="21" viewBox="0 0 21 21" xmlns="http://www.w3.org/2000/svg">
	<g clip-path="url(#clip0_146_268)">
		<path d="M1.80115 1.39996C1.13816 1.39996 0.599976 1.86957 0.599976 2.49958V16.8629C0.599976 17.5039 1.13352 17.9 1.78552 17.9H11.2797C11.1351 17.8156 10.9953 17.7217 10.8656 17.6129C10.2577 17.1015 9.8815 16.3713 9.8109 15.5914C9.8109 15.5887 9.8109 15.5861 9.8109 15.5835C9.74242 14.7954 9.99381 14.0052 10.5043 13.3979L10.8871 12.9428L10.8674 12.9606L7.21703 9.55044C7.09231 9.42329 6.92239 9.34937 6.74439 9.3434C6.56637 9.33735 6.39293 9.39869 6.26001 9.51722L2.09985 13.9996V2.90003H17.0999V8.43518C17.648 8.60265 18.139 8.92199 18.512 9.36683L18.6001 9.47228V2.49962C18.6001 1.86962 18.0528 1.40001 17.4008 1.40001L1.80115 1.39996ZM13.514 4.2027C13.3447 4.20913 13.175 4.23784 13.0101 4.28471C12.5699 4.41015 12.1815 4.67366 11.9027 5.03667C11.6453 5.37082 11.4931 5.77399 11.4652 6.19488C11.4387 6.61576 11.5355 7.03469 11.7464 7.39995C11.9747 7.79665 12.3248 8.10799 12.7445 8.29058C13.1642 8.47317 13.6306 8.51705 14.0765 8.41364C14.5224 8.31023 14.9226 8.06508 15.2191 7.71637C15.5158 7.36767 15.6927 6.93284 15.723 6.47614C15.7532 6.01945 15.6368 5.56608 15.3889 5.18122C15.1413 4.79636 14.7761 4.50093 14.3479 4.33943C14.0803 4.23851 13.7965 4.19197 13.514 4.2027Z"/>
		<path d="M16.1217 19.5C16.5581 19.5 16.9119 19.1462 16.912 18.7098L16.9124 13.3366L18.9707 15.792C19.1052 15.9526 19.2984 16.0532 19.5071 16.0716C19.7161 16.0901 19.9235 16.0246 20.0841 15.89C20.2447 15.7553 20.3453 15.5624 20.3638 15.3536C20.3827 15.1448 20.3169 14.9372 20.1824 14.7766L16.8305 10.7822C16.7118 10.6407 16.5471 10.5452 16.3652 10.5125C16.1834 10.4796 15.9956 10.5118 15.8351 10.6031C15.7191 10.6519 15.6166 10.7277 15.5361 10.8243L12.1864 14.8145C12.0515 14.975 11.9861 15.1825 12.0043 15.3913C12.0232 15.6001 12.1229 15.7931 12.2832 15.9279C12.4438 16.0627 12.6513 16.1282 12.8599 16.11C13.0689 16.0919 13.2618 15.9915 13.3966 15.831L15.3316 13.5252L15.3318 18.7098C15.3318 19.1462 15.6852 19.5 16.1217 19.5Z"/>
		<path d="M16.1217 19.5C16.5581 19.5 16.9119 19.1462 16.912 18.7098L16.9124 13.3366L18.9707 15.792C19.1052 15.9526 19.2984 16.0532 19.5071 16.0716C19.7161 16.0901 19.9235 16.0246 20.0841 15.89C20.2447 15.7553 20.3453 15.5624 20.3638 15.3536C20.3827 15.1448 20.3169 14.9372 20.1824 14.7766L16.8305 10.7822C16.7118 10.6407 16.5471 10.5452 16.3652 10.5125C16.1834 10.4796 15.9956 10.5118 15.8351 10.6031C15.7191 10.6519 15.6166 10.7277 15.5361 10.8243L12.1864 14.8145C12.0515 14.975 11.9861 15.1825 12.0043 15.3913C12.0232 15.6001 12.1229 15.7931 12.2832 15.9279C12.4438 16.0627 12.6513 16.1282 12.8599 16.11C13.0689 16.0919 13.2618 15.9915 13.3966 15.831L15.3316 13.5252L15.3318 18.7098C15.3318 19.1462 15.6852 19.5 16.1217 19.5Z"/>
	</g>
	<defs>
		<clipPath id="clip0_146_268">
			<rect width="20" height="20" transform="translate(0.599976 0.399963)"/>
		</clipPath>
	</defs>
</svg>
