<svg width="18" height="18" viewBox="0 0 18 18" fill="none" xmlns="http://www.w3.org/2000/svg">
<path d="M8.69141 3.77887e-07C7.1438 3.77887e-07 5.93888 -0.000967197 4.96484 0.0957035C3.97698 0.193099 3.1617 0.399891 2.45117 0.859376C1.81372 1.27136 1.27136 1.81372 0.859375 2.45117C0.400005 3.16228 0.193098 3.97625 0.0957035 4.96484C-0.000972793 5.9382 3.79032e-07 7.14452 3.79032e-07 8.69141V8.75C3.79032e-07 10.2969 -0.000972293 11.5032 0.0957035 12.4766C0.1931 13.4652 0.400118 14.2785 0.859375 14.9902C1.27157 15.6278 1.81345 16.1701 2.45117 16.582C3.16109 17.0416 3.97645 17.2476 4.96484 17.3457C5.93821 17.4424 7.14452 17.4414 8.69141 17.4414H8.75C10.2969 17.4414 11.5032 17.4424 12.4766 17.3457C13.4652 17.2483 14.2791 17.0414 14.9902 16.582C15.6277 16.1701 16.17 15.6277 16.582 14.9902C17.0406 14.2792 17.2476 13.4651 17.3457 12.4766C17.4424 11.5032 17.4414 10.2969 17.4414 8.75V8.69141C17.4414 7.14452 17.4424 5.9382 17.3457 4.96484C17.2483 3.97625 17.0414 3.16228 16.582 2.45117C16.17 1.81372 15.6277 1.27136 14.9902 0.859376C14.2792 0.400798 13.4651 0.193821 12.4766 0.0957035C11.5032 -0.000971794 10.2969 3.77887e-07 8.75 3.77887e-07H8.69141ZM8.7207 1.51953C10.3042 1.51953 11.4487 1.5208 12.3262 1.60742C13.1956 1.69401 13.7362 1.85548 14.166 2.13281C14.6232 2.42837 15.0114 2.81807 15.3066 3.27539C15.5846 3.70516 15.7481 4.24588 15.834 5.11523C15.9213 5.99256 15.9219 7.13722 15.9219 8.7207C15.9219 10.3042 15.9206 11.448 15.834 12.3262C15.7474 13.1949 15.5858 13.7371 15.3086 14.166C15.0132 14.6234 14.6234 15.0132 14.166 15.3086C13.7362 15.5859 13.1956 15.7474 12.3262 15.834C11.449 15.9213 10.3042 15.9219 8.7207 15.9219C7.13722 15.9219 5.99331 15.9213 5.11523 15.834C4.2466 15.7481 3.70425 15.5844 3.27539 15.3066C2.81814 15.0116 2.42842 14.6229 2.13281 14.166C1.85537 13.7353 1.69401 13.1956 1.60742 12.3262C1.52012 11.449 1.51953 10.3043 1.51953 8.7207C1.51953 7.13722 1.52012 5.99181 1.60742 5.11523C1.69401 4.24579 1.8576 3.70628 2.13477 3.27734V3.27539C2.42977 2.81789 2.81843 2.42863 3.27539 2.13281C3.70608 1.85537 4.24653 1.69401 5.11523 1.60742C5.99319 1.52012 7.13716 1.51953 8.7207 1.51953ZM13.3398 2.875C12.9495 2.87512 12.6279 3.02958 12.4199 3.26367C12.212 3.49777 12.1133 3.80306 12.1133 4.10352C12.1133 4.40397 12.2119 4.7074 12.4199 4.94141C12.6279 5.17542 12.9495 5.32825 13.3398 5.32813C13.7304 5.32825 14.0497 5.17541 14.2578 4.94141C14.4659 4.70741 14.5664 4.404 14.5664 4.10352C14.5664 3.80303 14.4659 3.49776 14.2578 3.26367C14.0497 3.02958 13.7304 2.87512 13.3398 2.875ZM8.71875 4.34766C7.63206 4.34766 6.54422 4.70902 5.7207 5.44141C4.89718 6.17379 4.34922 7.28163 4.34961 8.7207C4.34922 10.1591 4.89718 11.266 5.7207 11.998C6.54423 12.73 7.63209 13.0898 8.71875 13.0898C9.80541 13.0898 10.8968 12.73 11.7207 11.998C12.5446 11.2661 13.0914 10.1591 13.0918 8.7207C13.0914 7.28163 12.5446 6.17376 11.7207 5.44141C10.8968 4.70905 9.80544 4.34766 8.71875 4.34766ZM8.7207 5.86719C9.68982 5.86701 10.3896 6.22319 10.8613 6.75391C11.3331 7.28462 11.5723 8.00135 11.5723 8.7207C11.5723 9.44006 11.3331 10.1566 10.8613 10.6875C10.3896 11.2184 9.68982 11.574 8.7207 11.5742C7.75115 11.574 7.05201 11.2184 6.58008 10.6875C6.10815 10.1566 5.86719 9.44004 5.86719 8.7207C5.86719 8.00137 6.10817 7.28463 6.58008 6.75391C7.05199 6.22319 7.7512 5.86701 8.7207 5.86719Z" fill="#333333"/>
</svg>
