<svg width="20" height="20" viewBox="0 0 20 20" fill="none" xmlns="http://www.w3.org/2000/svg">
<path d="M8.97849 2.00055C8.03255 2.00426 7.24784 2.01953 6.57811 2.08643C5.67249 2.17562 4.91816 2.36577 4.25973 2.79157C3.67149 3.17175 3.16925 3.67203 2.78906 4.26028C2.36341 4.9192 2.17525 5.6724 2.08594 6.57865C1.9975 7.471 2.00001 8.57061 2.00001 9.98101V10.0376C2.00001 11.4481 1.99742 12.5477 2.08594 13.44C2.17513 14.3463 2.36371 15.097 2.78906 15.7564C3.16947 16.3447 3.67122 16.8469 4.25973 17.2271C4.91763 17.653 5.67208 17.8422 6.57811 17.9322C7.47045 18.0206 8.57013 18.0181 9.98047 18.0181H10.0371C11.4475 18.0181 12.5471 18.0206 13.4395 17.9322C14.3457 17.843 15.097 17.6528 15.7559 17.2271C16.3441 16.8468 16.8463 16.3446 17.2265 15.7564C17.6514 15.0976 17.8397 14.3461 17.9297 13.44C18.0182 12.5477 18.0176 11.4481 18.0176 10.0376V9.98101C18.0176 8.57061 18.0181 7.471 17.9297 6.57865C17.8405 5.6724 17.6523 4.9192 17.2265 4.26028C16.8463 3.67203 16.3441 3.17175 15.7559 2.79157C15.0971 2.36664 14.3456 2.17638 13.4395 2.08643C12.5471 1.99798 11.4475 2.00055 10.0371 2.00055H9.98047C9.62784 2.00055 9.29382 1.99931 8.97849 2.00055ZM10.0058 3.50248C11.4496 3.50248 12.4939 3.50405 13.2891 3.58259C14.0768 3.66082 14.5598 3.8071 14.9414 4.0533C15.3512 4.31824 15.6982 4.66678 15.9629 5.07667C16.2097 5.45817 16.3558 5.94135 16.4336 6.729C16.5126 7.52399 16.5156 8.56461 16.5156 10.0083C16.5156 11.4521 16.5121 12.4957 16.4336 13.2916C16.355 14.0786 16.2091 14.5613 15.9629 14.9419C15.6979 15.3519 15.3514 15.7006 14.9414 15.9654C14.5598 16.2118 14.0749 16.3576 13.2871 16.4361C12.4922 16.5151 11.4497 16.5162 10.0058 16.5162C8.5621 16.5162 7.5183 16.5132 6.72263 16.4341C5.93558 16.3563 5.45486 16.2119 5.07422 15.9654C4.66433 15.7008 4.31766 15.3515 4.05275 14.9419C3.80632 14.5595 3.65854 14.0773 3.58008 13.2895C3.50109 12.4947 3.49997 11.4522 3.49997 10.0083C3.49997 8.56461 3.5009 7.52331 3.58008 6.729C3.65869 5.94123 3.80455 5.45938 4.05079 5.07863C4.31532 4.66859 4.66463 4.31843 5.07422 4.0533C5.45667 3.80687 5.93551 3.66101 6.72263 3.58259C7.51815 3.50359 8.56202 3.50248 10.0058 3.50248ZM14.2207 4.61968C13.9085 4.61968 13.6055 4.74426 13.3847 4.96536C13.164 5.18609 13.041 5.48516 13.041 5.79738C13.041 6.10957 13.1644 6.41066 13.3847 6.63142C13.6055 6.85215 13.9085 6.97514 14.2207 6.97514C14.3753 6.97514 14.5272 6.94501 14.6699 6.88529C14.8128 6.82633 14.9436 6.74065 15.0527 6.63142C15.162 6.52219 15.2492 6.39137 15.3086 6.24854C15.3679 6.10568 15.3946 5.95185 15.3946 5.79738C15.3946 5.6428 15.366 5.48901 15.3086 5.34622C15.2492 5.20336 15.162 5.07482 15.0527 4.96536C14.9435 4.85614 14.8127 4.77083 14.6699 4.7115C14.5271 4.65216 14.3755 4.61968 14.2207 4.61968ZM10.0078 5.96342C8.93513 5.96342 7.90493 6.39045 7.14645 7.14896C6.38798 7.90744 5.96287 8.93568 5.96287 10.0083C5.96287 11.081 6.38798 12.1112 7.14645 12.8696C7.90493 13.6281 8.9351 14.0552 10.0078 14.0552C11.0805 14.0552 12.1107 13.6281 12.8691 12.8696C13.6276 12.1112 14.0527 11.081 14.0527 10.0083C14.0527 8.93568 13.6276 7.90744 12.8691 7.14896C12.1107 6.39049 11.0805 5.96342 10.0078 5.96342ZM10.0078 7.46731C10.682 7.46731 11.3298 7.73493 11.8066 8.21149C12.2834 8.68824 12.5488 9.33412 12.5488 10.0083C12.5488 10.6826 12.2835 11.3304 11.8066 11.8072C11.3298 12.2839 10.682 12.5493 10.0078 12.5493C9.67407 12.5493 9.34349 12.4857 9.03512 12.358C8.72671 12.2302 8.44698 12.0431 8.21095 11.8072C7.9751 11.5713 7.78784 11.2893 7.66013 10.981C7.53238 10.6726 7.46486 10.3422 7.46486 10.0083C7.46486 9.67462 7.53238 9.34408 7.66013 9.03567C7.78788 8.72726 7.97499 8.44752 8.21095 8.21149C8.44679 7.97565 8.72675 7.78842 9.03512 7.66068C9.34353 7.53293 9.67399 7.46731 10.0078 7.46731Z" fill="#333333"/>
</svg>
