<svg width="20" height="20" viewBox="0 0 20 20" fill="none" xmlns="http://www.w3.org/2000/svg">
<path d="M12.748 2.0009C11.6019 2.02358 10.4527 2.48377 9.57418 3.36228L8.01949 4.91502C7.87258 5.06204 7.79078 5.2616 7.79096 5.4697C7.79116 5.67757 7.87423 5.87743 8.02145 6.02438C8.16866 6.1714 8.36817 6.25495 8.57613 6.25495C8.78411 6.25472 8.98391 6.17178 9.13084 6.02438L10.6816 4.47164C11.866 3.28725 13.705 3.27695 14.7968 4.36807L15.6484 5.2216C16.7397 6.31346 16.7313 8.14855 15.5469 9.33291L13.9922 10.8857C13.8454 11.0327 13.7633 11.2341 13.7636 11.4423C13.7643 11.6498 13.8474 11.8505 13.9941 11.997C14.1413 12.144 14.3408 12.2256 14.5488 12.2256C14.7567 12.2253 14.9546 12.1425 15.1015 11.9951L16.6562 10.4443C18.414 8.68722 18.4935 5.84721 16.7578 4.11229L15.9043 3.25876C15.0368 2.39129 13.8941 1.978 12.748 2.0009ZM12.2596 6.97341C12.0518 6.97341 11.8538 7.05505 11.7069 7.20208L7.20099 11.7099L7.19721 11.7118C7.05866 11.8604 6.98465 12.0577 6.98824 12.2607C6.99184 12.4637 7.07314 12.658 7.21676 12.8016C7.36042 12.9453 7.55469 13.0265 7.75777 13.0303C7.96074 13.0338 8.15794 12.9577 8.3066 12.8194L8.31038 12.8175L12.8143 8.31161C12.9612 8.16459 13.0428 7.96466 13.0428 7.75693C13.0428 7.54906 12.9612 7.34928 12.8143 7.20225C12.6673 7.05561 12.4673 6.97341 12.2596 6.97341ZM5.47051 7.78784C5.26275 7.78784 5.06284 7.87557 4.91583 8.02222L3.36114 9.57299C1.60415 11.3307 1.52461 14.1701 3.25961 15.905L4.11311 16.7566C5.84872 18.4914 8.68545 18.4122 10.4432 16.6549L11.9901 15.108L11.9961 15.1005C12.0706 15.0298 12.1301 14.9463 12.1719 14.8525C12.2148 14.7562 12.2384 14.6511 12.2403 14.546C12.2421 14.4406 12.2229 14.337 12.1836 14.2395C12.1442 14.142 12.0844 14.0525 12.0098 13.9776C11.9353 13.9032 11.8458 13.8453 11.7481 13.8056C11.6505 13.7663 11.5468 13.7471 11.4414 13.7489C11.3362 13.7508 11.2311 13.7716 11.1348 13.8154C11.0389 13.8582 10.9523 13.9205 10.8809 13.9972L9.33597 15.5441C8.15158 16.7285 6.31454 16.7395 5.22267 15.6477L4.36917 14.7942C3.27802 13.703 3.28639 11.8672 4.47073 10.6828L6.02346 9.12818C6.09633 9.05523 6.15593 8.96944 6.19535 8.87419C6.23481 8.77895 6.25591 8.6765 6.25591 8.57332C6.25591 8.47014 6.23473 8.3677 6.19535 8.27245C6.15612 8.17796 6.0958 8.09332 6.02346 8.02037C6.02346 8.02037 5.91853 7.88014 5.83984 7.83479C5.78863 7.80455 5.70692 7.78784 5.47051 7.78784Z" fill="#333333"/>
</svg>
