<svg width="18" height="18" viewBox="0 0 18 18" fill="none" xmlns="http://www.w3.org/2000/svg">
<path d="M11.7232 0.000985039C10.483 0.025906 9.23922 0.522127 8.28767 1.47364L6.58259 3.17677C6.40822 3.35128 6.33012 3.57372 6.34236 3.77833C6.3546 3.98294 6.44816 4.16564 6.58455 4.30177C6.72093 4.43789 6.90335 4.53201 7.10798 4.54395C7.31262 4.5559 7.53517 4.47628 7.70955 4.30177L9.41072 2.59864C10.7336 1.27584 12.7907 1.2626 14.0142 2.48536L14.9498 3.42091C16.1726 4.64441 16.1593 6.70165 14.8365 8.02442L13.1334 9.72755C12.959 9.90206 12.879 10.1226 12.8912 10.3272C12.9034 10.5318 12.997 10.7164 13.1334 10.8525C13.2698 10.9887 13.4541 11.0808 13.6588 11.0928C13.8634 11.1047 14.084 11.0251 14.2584 10.8506L15.9615 9.14942C17.8654 7.24639 17.9526 4.17481 16.0748 2.29786L15.1392 1.36231C14.2007 0.423841 12.9634 -0.0239357 11.7232 0.000985039ZM11.1861 5.45606C10.9825 5.45606 10.7799 5.53243 10.6256 5.68653L5.68416 10.6279L5.6822 10.6299C5.51901 10.805 5.44699 11.0238 5.4615 11.2236C5.47601 11.4235 5.56829 11.6019 5.70173 11.7354C5.83518 11.8688 6.0136 11.9611 6.21345 11.9756C6.41331 11.9901 6.63011 11.9181 6.80525 11.7549L6.80916 11.751L11.7486 6.81153C12.0568 6.50294 12.0568 5.99513 11.7486 5.68653C11.5943 5.53237 11.3897 5.45606 11.1861 5.45606ZM4.14705 6.42872L3.9908 6.58302V6.58497C3.71022 6.4853 3.40157 6.36198 3.1783 6.58497L1.47517 8.28614C-0.427867 10.1899 -0.515161 13.2627 1.36189 15.1397L2.29744 16.0752C4.17519 17.9521 7.24516 17.8649 9.149 15.9619L10.8463 14.2627C11.0322 14.0894 11.1194 13.8646 11.1099 13.6553C11.1004 13.4459 11.0048 13.2592 10.8658 13.1201C10.7268 12.9811 10.54 12.8855 10.3306 12.876C10.1213 12.8665 9.89457 12.9537 9.72127 13.1397L8.024 14.8369C6.70115 16.1597 4.64402 16.1737 3.42048 14.9502L2.48494 14.0147C1.26219 12.7919 1.2754 10.7359 2.59822 9.41309L4.3033 7.70802C4.5264 7.48506 4.40246 7.17606 4.3033 6.89552C4.26516 6.78762 4.38911 6.66877 4.3033 6.58302L4.14705 6.42872Z" fill="#333333"/>
</svg>
