<svg width="20" height="20" viewBox="0 0 20 20" fill="none" xmlns="http://www.w3.org/2000/svg">
<path d="M4.19923 3C3.6165 3 3.05461 3.23058 2.64257 3.64263C2.23053 4.05467 2 4.61654 2 5.19923V13.918C2 14.5006 2.23053 15.0587 2.64257 15.4707C3.05461 15.8828 3.61654 16.1133 4.19923 16.1133H15.8242C16.4069 16.1133 16.9649 15.8828 17.377 15.4707C17.789 15.0587 18.0195 14.5006 18.0195 13.918V7.62112C18.0195 7.03839 17.789 6.47647 17.377 6.06446C16.9649 5.65242 16.4069 5.42189 15.8242 5.42189H10.4316L9.19532 3.36131C9.12918 3.25132 9.0341 3.15923 8.92185 3.09573C8.80997 3.03262 8.68714 3 8.55864 3H4.19923ZM4.19923 4.48832H8.13475L9.37111 6.54884C9.43725 6.65921 9.53227 6.75098 9.64452 6.81448C9.7564 6.87759 9.88321 6.91021 10.0117 6.91021H15.8242C16.0124 6.91021 16.1893 6.98611 16.3223 7.11915C16.4553 7.25219 16.5312 7.43324 16.5312 7.62112V13.918C16.5312 14.1058 16.4553 14.285 16.3223 14.418C16.1892 14.551 16.0123 14.625 15.8242 14.625H4.19923C4.01101 14.625 3.83034 14.551 3.69726 14.418C3.56422 14.285 3.48832 14.1062 3.48832 13.918V5.19923C3.48832 5.01101 3.56422 4.83034 3.69726 4.69726C3.8303 4.56422 4.01135 4.48832 4.19923 4.48832Z" fill="#333333"/>
</svg>
