<svg width="18" height="15" viewBox="0 0 18 15" fill="none" xmlns="http://www.w3.org/2000/svg">
<path d="M2.3457 0C1.05321 0 0 1.05321 0 2.3457V11.9082C0 13.2007 1.05321 14.2539 2.3457 14.2539H15.0957C16.3882 14.2539 17.4414 13.2007 17.4414 11.9082V5.00195C17.4414 3.70946 16.3882 2.65625 15.0957 2.65625H9.14648L7.77148 0.365234C7.63587 0.139319 7.39045 1.52e-05 7.12695 0H2.3457ZM2.3457 1.50391H6.70117L8.07617 3.79492C8.21178 4.02084 8.45721 4.16014 8.7207 4.16016H15.0957C15.5636 4.16016 15.9375 4.53405 15.9375 5.00195V11.9082C15.9375 12.3761 15.5636 12.75 15.0957 12.75H2.3457C1.8778 12.75 1.50391 12.3761 1.50391 11.9082V2.3457C1.50391 1.8778 1.8778 1.50391 2.3457 1.50391Z" fill="#333333"/>
</svg>
