<svg width="20" height="20" viewBox="0 0 20 20" fill="none" xmlns="http://www.w3.org/2000/svg">
<path d="M10.2228 5.00099C8.4821 4.96697 6.83375 5.81359 5.81464 7.25881C2.5913 7.68215 0.907232 11.3822 2.78339 14.0732L2.78731 14.0811L2.78927 14.085C3.26908 14.7122 4.50104 15.9248 6.37716 15.9248H14.3127C14.9802 15.9248 15.6339 15.746 16.2072 15.4033C16.7865 15.0578 17.272 14.5295 17.5881 13.9424V13.9384C18.7178 11.7787 17.455 9.16128 15.0998 8.63963C14.4828 6.78717 12.9227 5.39826 10.9885 5.07515C10.733 5.03244 10.4766 5.0059 10.2228 5.00099ZM10.131 6.50095C10.2089 6.50152 10.2852 6.50196 10.3615 6.5088C10.4379 6.51258 10.5149 6.52269 10.592 6.53025C10.6691 6.54159 10.7437 6.55409 10.8185 6.56543C10.8934 6.58055 10.9715 6.59924 11.0471 6.61814C11.1215 6.63704 11.1941 6.65722 11.2678 6.68066C11.3419 6.70333 11.4147 6.72925 11.4865 6.75684C11.5591 6.7833 11.6318 6.81456 11.7013 6.84669C11.7694 6.87693 11.8377 6.91241 11.9084 6.95021C11.9787 6.98801 12.0469 7.02575 12.1115 7.06544C12.1776 7.10626 12.243 7.14936 12.3068 7.19433C12.3711 7.23969 12.4335 7.2858 12.4943 7.33493C12.5548 7.38369 12.6166 7.43363 12.676 7.4873C12.7346 7.54097 12.7911 7.59658 12.8459 7.65328C12.9007 7.70997 12.9539 7.77296 13.006 7.83494C13.0586 7.89693 13.1084 7.95742 13.1564 8.02243C13.2044 8.08744 13.2521 8.15531 13.297 8.2256C13.342 8.29553 13.3836 8.36748 13.424 8.44043C13.4543 8.49523 13.4832 8.55453 13.5119 8.61425C13.4545 8.62559 13.3979 8.63704 13.3401 8.65329C13.2543 8.67597 13.1722 8.70309 13.092 8.73144C13.0104 8.76167 12.928 8.79038 12.8478 8.82515L11.3576 9.45209L8.67206 7.84278C8.55943 7.77437 8.44076 7.7111 8.32246 7.65328C8.20341 7.5947 8.08323 7.54239 7.96115 7.49514C7.8678 7.46113 7.76765 7.42769 7.67014 7.39745C7.68526 7.38611 7.70223 7.37088 7.71697 7.35841C7.78236 7.30436 7.84578 7.25404 7.9123 7.20604C7.97882 7.15804 8.04784 7.11277 8.11738 7.0693C8.1873 7.02546 8.2588 6.98371 8.32834 6.94629C8.39978 6.90774 8.46977 6.87173 8.54121 6.83885C8.61302 6.80483 8.6855 6.77348 8.75995 6.74513C8.83403 6.7149 8.91012 6.69232 8.98458 6.66889C9.05866 6.64621 9.13047 6.62691 9.20719 6.60839C9.28429 6.5895 9.36445 6.57429 9.43966 6.55955C9.51525 6.54443 9.5903 6.53389 9.66815 6.52633C9.7445 6.51877 9.82233 6.51061 9.90057 6.50684C9.97881 6.50306 10.0551 6.50095 10.131 6.50095ZM6.33027 8.69435H6.33414C6.87317 8.69503 7.44522 8.84965 7.88497 9.12204L9.66815 10.1924L3.80099 12.663C3.26627 11.3729 3.65023 9.87526 4.8596 9.12596L4.86739 9.12204C5.30823 8.85064 5.81263 8.70218 6.33027 8.69435ZM14.3049 10.0244L14.4572 10.0322C14.5434 10.0398 14.6296 10.0503 14.7151 10.0654C14.8005 10.0805 14.8833 10.0995 14.9611 10.124C15.0394 10.1467 15.1152 10.1767 15.1916 10.2099C15.2679 10.244 15.3416 10.2797 15.4103 10.3194C15.4803 10.3598 15.5472 10.4049 15.6115 10.4522C15.6758 10.4994 15.7381 10.552 15.7971 10.6064C15.856 10.6605 15.9109 10.7162 15.9631 10.7763C16.0141 10.8349 16.0627 10.8989 16.1095 10.9658C16.156 11.0324 16.1991 11.0989 16.2365 11.1669C16.2747 11.2365 16.3091 11.3097 16.3401 11.3838C16.3703 11.4575 16.3994 11.5333 16.4221 11.6104C16.4447 11.6867 16.4608 11.7646 16.4748 11.8447C16.4899 11.9237 16.4985 12.0026 16.506 12.0849C16.5098 12.1662 16.5136 12.2498 16.508 12.333C16.5052 12.3878 16.496 12.4442 16.4884 12.499L12.9807 10.3974L13.4397 10.2041L13.4553 10.1963C13.5177 10.1698 13.584 10.1468 13.6506 10.126C13.7216 10.1033 13.7925 10.0864 13.8655 10.0713C13.9395 10.0562 14.0152 10.0456 14.0881 10.0381C14.1611 10.0305 14.2312 10.0244 14.3049 10.0244ZM11.2971 11.1357L15.803 13.8349C15.7576 13.8769 15.7103 13.9186 15.6623 13.956C15.5984 14.0059 15.5339 14.052 15.4651 14.0947C15.397 14.1367 15.3247 14.1756 15.2522 14.21C15.1796 14.244 15.1058 14.2753 15.0295 14.3018C14.9516 14.3282 14.8742 14.3527 14.7971 14.3701C14.7192 14.389 14.6396 14.4005 14.5568 14.4091C14.4756 14.4167 14.3931 14.4248 14.3107 14.4248H6.37324C6.31617 14.4248 6.26048 14.4238 6.2053 14.4209C6.14823 14.4176 6.09225 14.4128 6.04123 14.4053C5.98982 14.3977 5.93943 14.3894 5.8869 14.3818C5.8355 14.3743 5.78487 14.3678 5.73649 14.3564C5.63974 14.3338 5.5472 14.3069 5.45725 14.2763C5.36767 14.2461 5.28104 14.2122 5.1994 14.1748C5.11776 14.137 5.04144 14.098 4.96699 14.0557C4.89253 14.0134 4.82185 13.9682 4.75608 13.9229C4.74475 13.9153 4.73813 13.907 4.72679 13.8994L11.2971 11.1357Z" fill="#333333"/>
</svg>
