<svg width="18" height="12" viewBox="0 0 18 12" fill="none" xmlns="http://www.w3.org/2000/svg">
<path d="M8.95485 0.00116235C7.0582 -0.0374251 5.25786 0.8868 4.15407 2.46796C0.645404 2.90792 -1.18752 6.92913 0.84938 9.85077L0.851334 9.85468L0.85524 9.85858C1.37329 10.5357 2.7088 11.8488 4.73805 11.8488H13.4392C14.1596 11.8488 14.8675 11.656 15.4861 11.2863C16.1098 10.9144 16.6332 10.3419 16.9744 9.70819V9.70624H16.9763C18.2014 7.36426 16.824 4.52169 14.2595 3.97577C13.5988 1.94925 11.8946 0.431706 9.78493 0.0792874C9.508 0.0330212 9.23004 0.00676085 8.95485 0.00116235ZM8.85524 1.51483C8.94167 1.51543 9.02978 1.51691 9.11501 1.52265C9.20019 1.52839 9.28509 1.53705 9.37086 1.54804C9.45669 1.55903 9.54109 1.57319 9.62477 1.58905C9.70849 1.60492 9.79289 1.62258 9.87672 1.64374C9.95984 1.66472 10.0428 1.68997 10.1248 1.71601C10.2071 1.74213 10.2871 1.76925 10.367 1.79999C10.4477 1.8311 10.5274 1.86404 10.6052 1.8996C10.6817 1.93452 10.7596 1.97521 10.8377 2.01679C10.9154 2.05819 10.9899 2.09922 11.0623 2.14374C11.136 2.18909 11.21 2.23823 11.281 2.28827C11.3523 2.3385 11.422 2.38992 11.49 2.44452C11.5575 2.49873 11.6236 2.55647 11.6892 2.6164C11.7546 2.67608 11.8175 2.73641 11.8787 2.79999C11.9398 2.86352 12.0002 2.93041 12.0584 2.99921C12.1166 3.06812 12.1727 3.13956 12.2263 3.2121C12.2801 3.28481 12.3308 3.35909 12.3806 3.43671C12.4306 3.51457 12.4782 3.59352 12.5232 3.67499C12.5676 3.75529 12.6109 3.84106 12.6521 3.9289C12.6542 3.9334 12.6559 3.9381 12.658 3.94257C12.5695 3.96023 12.4793 3.97889 12.3904 4.00311C12.2984 4.02818 12.2099 4.05857 12.1228 4.08905C12.0345 4.11997 11.9477 4.15322 11.8611 4.19061L10.1951 4.88983L7.22047 3.11054L7.21852 3.10858C7.097 3.03471 6.97113 2.96616 6.84352 2.90351C6.71473 2.84027 6.58345 2.78249 6.45094 2.73163C6.31919 2.68106 6.18545 2.63627 6.04665 2.59687C6.04027 2.59506 6.0335 2.59475 6.02711 2.59296C6.07255 2.55223 6.11643 2.5111 6.16383 2.47187C6.23631 2.41188 6.31039 2.3555 6.38454 2.30194C6.45883 2.24828 6.53396 2.196 6.6111 2.14765C6.68872 2.09899 6.76747 2.053 6.84547 2.01093C6.92488 1.96809 7.00366 1.9285 7.08376 1.89179C7.16386 1.85507 7.24709 1.8219 7.32985 1.79022C7.41235 1.75864 7.49475 1.72823 7.5779 1.70233C7.66061 1.67657 7.74251 1.65478 7.8279 1.63397C7.91346 1.61313 7.99965 1.5943 8.08376 1.57929C8.1683 1.5642 8.25505 1.55217 8.34157 1.54218C8.42669 1.53235 8.51063 1.52537 8.59743 1.52069C8.6845 1.516 8.7703 1.51424 8.85524 1.51483ZM4.68727 3.92304H4.69118C5.29449 3.92375 5.93324 4.09325 6.42751 4.3996L6.42946 4.40155L8.49391 5.63983L1.8611 8.4328C1.21698 6.97392 1.66583 5.25719 3.04079 4.40546L3.0486 4.40155C3.54213 4.09848 4.10804 3.93134 4.68727 3.92304ZM13.4353 5.38007L13.6072 5.38593C13.7048 5.39253 13.8006 5.40531 13.8963 5.42304C13.9921 5.44079 14.0854 5.46427 14.1736 5.4914C14.2621 5.51861 14.3478 5.5516 14.4334 5.58905C14.519 5.62651 14.6018 5.66712 14.6795 5.7121C14.7583 5.75779 14.8354 5.80696 14.908 5.86054C14.9804 5.91399 15.0487 5.97125 15.115 6.03241C15.1811 6.09341 15.2436 6.15825 15.3025 6.22577C15.3603 6.29193 15.4161 6.36368 15.4685 6.43866C15.5208 6.51337 15.5686 6.58799 15.6111 6.66523C15.6543 6.74374 15.6937 6.82638 15.7283 6.90936C15.7628 6.99225 15.7926 7.07641 15.8181 7.16327C15.8434 7.24943 15.8627 7.33867 15.8787 7.4289C15.8944 7.51816 15.9061 7.60793 15.9119 7.70038C15.9177 7.79196 15.9168 7.88576 15.9119 7.97968C15.907 8.07372 15.8985 8.16862 15.8826 8.26288L11.8416 5.84296L12.4724 5.57733L12.4763 5.57538C12.5474 5.54539 12.62 5.51699 12.6951 5.49335C12.775 5.46818 12.8569 5.44779 12.9392 5.43085C13.0222 5.41376 13.1046 5.40021 13.1873 5.39179C13.2695 5.38339 13.3524 5.3802 13.4353 5.38007ZM10.1404 6.59101L15.1853 9.61249C15.1804 9.61729 15.1765 9.62332 15.1716 9.62811C15.1058 9.6925 15.0364 9.75369 14.9646 9.80976C14.8929 9.86584 14.8195 9.91811 14.742 9.96601C14.6648 10.0136 14.5839 10.0559 14.5017 10.0949C14.4199 10.1337 14.3359 10.1687 14.2498 10.1984C14.1624 10.2287 14.0755 10.2548 13.9881 10.2746C13.9002 10.2945 13.8091 10.3092 13.7166 10.3195C13.625 10.3298 13.5341 10.3352 13.4412 10.3351H13.4392H4.7361C4.67195 10.3351 4.60823 10.3328 4.54665 10.3293C4.48306 10.3257 4.42252 10.3221 4.36501 10.3156C4.3069 10.3091 4.24944 10.3 4.19118 10.2902C4.13382 10.2806 4.0775 10.2692 4.02321 10.257C3.91441 10.2326 3.80951 10.2033 3.70876 10.1691C3.60838 10.1351 3.51308 10.0954 3.42165 10.0539C3.33036 10.0124 3.24302 9.96856 3.15993 9.92108C3.07674 9.87355 2.99724 9.82346 2.9236 9.77265C2.87988 9.74248 2.84103 9.71161 2.80055 9.68085L10.1404 6.59101Z" fill="#333333"/>
</svg>
