<svg viewBox="0 0 20 20" xmlns="http://www.w3.org/2000/svg" xmlns:xlink="http://www.w3.org/1999/xlink"><defs><path d="M.5.75c0 .41.34.75.75.75h14.5a.75.75 0 100-1.5H1.25A.75.75 0 00.5.75zm0 14c0 .41.34.75.76.75h14.48c.42 0 .76-.34.76-.75a.75.75 0 00-.76-.75H1.26a.75.75 0 00-.76.75z" id="a"/><path d="M12.65 5.35l5.2 3.9v1.3l-5.6 4c-.1.2-.3.2-.5.2-.3-.1-.6-.7-.6-1l.3-.4 4.7-3.5-4.5-3.2-.2-.2c-.1-.3-.1-.6 0-.8.2-.2.5-.4.8-.4a.8.8 0 01.4.1zm-5.2 0l-5.3 3.9v1.3l5.6 4c.1.2.3.2.5.2.3-.1.7-.7.6-1 0-.1 0-.3-.2-.4l-5-3.5 4.7-3.2.2-.2c.1-.3.1-.6 0-.8-.2-.2-.5-.4-.8-.4a.8.8 0 00-.3.1z" id="b"/></defs><g fill="none" fill-rule="evenodd"><use fill="#333" xlink:href="#a" transform="translate(1.5 2)"/><use fill="#333" fill-rule="nonzero" xlink:href="#b"/></g></svg>
