<svg viewBox="0 0 20 20" xmlns="http://www.w3.org/2000/svg"><path d="M2 1.75c0 .414.336.75.75.75h14.5a.75.75 0 100-1.5H2.75a.75.75 0 00-.75.75zM12.872 5.2l5.2 3.9v1.3l-5.6 4c-.1.2-.3.2-.5.2-.3-.1-.6-.7-.6-1l.3-.4 4.7-3.5-4.5-3.2-.2-.2c-.1-.3-.1-.6 0-.8.2-.2.5-.4.8-.4a.8.8 0 01.4.1zM7.672 5.2l-5.3 3.9v1.3l5.6 4c.1.2.3.2.5.2.3-.1.7-.7.6-1 0-.1 0-.3-.2-.4l-5-3.5 4.7-3.2.2-.2c.1-.3.1-.6 0-.8-.2-.2-.5-.4-.8-.4a.8.8 0 00-.3.1zM2 18.25c0 .414.336.75.75.75h14.5a.75.75 0 100-1.5H2.75a.75.75 0 00-.75.75z"/></svg>
