<svg viewBox="0 0 20 20" xmlns="http://www.w3.org/2000/svg"><path d="M15.25 16.5a.75.75 0 110 1.5H.75a.75.75 0 010-1.5zM10.472 4.1a.8.8 0 01.4.1l5.2 3.9v1.3l-5.6 4c-.1.2-.3.2-.5.2-.3-.1-.6-.7-.6-1l.3-.4 4.7-3.5-4.5-3.2-.2-.2c-.1-.3-.1-.6 0-.8.2-.2.5-.4.8-.4zm-4.5 0c.3 0 .6.2.8.4.086.171.098.416.037.672l-.037.128-.2.2-4.7 3.2 5 3.5c.2.1.2.3.2.4.1.3-.3.9-.6 1-.171 0-.343 0-.451-.126l-.049-.074-5.6-4V8.1l5.3-3.9a.8.8 0 01.3-.1zM15.25 0a.75.75 0 01.102 1.493l-.102.007H.75A.75.75 0 01.648.007L.75 0h14.5z"/></svg>
