<svg viewBox="0 0 20 20" xmlns="http://www.w3.org/2000/svg"><path d="M2.75 19a.75.75 0 01-.75-.75v-2.5a.75.75 0 111.5 0v1.75h13v-1.75a.75.75 0 111.5 0v2.5c0 .41-.34.75-.75.75H2.75zM12 5.76c.13 0 .25.03.36.1L17 9.32v1.16l-5 3.57c-.08.18-.26.18-.44.18-.27-.1-.53-.63-.53-.9l.26-.35 4.2-3.12L11.46 7l-.18-.18c-.09-.26-.09-.53 0-.7.18-.19.45-.37.72-.37zm-4 0c.26 0 .53.18.7.36.1.18.1.45 0 .71l-.17.18-4.2 2.86 4.47 3.12c.17.09.17.26.17.35.1.27-.26.8-.53.9-.18 0-.36 0-.45-.18L3 10.49V9.33l4.73-3.48a.71.71 0 01.26-.09zM17.25 1c.41 0 .75.34.75.75v2.5a.75.75 0 11-1.5 0V2.5h-13v1.75a.75.75 0 01-1.5 0v-2.5c0-.41.34-.75.75-.75h14.5z"/></svg>
