<svg width="13" height="10" viewBox="0 0 13 10" fill="none" xmlns="http://www.w3.org/2000/svg">
<path fill-rule="evenodd" clip-rule="evenodd" d="M5.15283 9.11072C5.09815 9.11072 5.04346 9.09933 4.98877 9.07654C4.93408 9.05375 4.88851 9.02413 4.85205 8.98767L0.914551 5.05017C0.868978 5.01371 0.834798 4.96814 0.812012 4.91345C0.789225 4.85877 0.777832 4.79952 0.777832 4.73572C0.777832 4.68103 0.789225 4.62634 0.812012 4.57166C0.834798 4.51697 0.868978 4.4714 0.914551 4.43494L4.85205 0.497437C4.88851 0.442749 4.93636 0.401734 4.99561 0.37439C5.05485 0.347046 5.11637 0.333374 5.18018 0.333374C5.30778 0.333374 5.4126 0.376668 5.49463 0.463257C5.57666 0.549846 5.61768 0.652384 5.61768 0.770874C5.61768 0.834677 5.60401 0.896199 5.57666 0.955444C5.54932 1.01469 5.51286 1.0671 5.46729 1.11267L1.83057 4.73572L5.46729 8.37244C5.50375 8.4089 5.53337 8.45447 5.55615 8.50916C5.57894 8.56384 5.59033 8.61853 5.59033 8.67322C5.59033 8.79171 5.54704 8.89425 5.46045 8.98084C5.37386 9.06743 5.27132 9.11072 5.15283 9.11072ZM8.57079 9.11072C8.4523 9.11072 8.34977 9.06743 8.26318 8.98084C8.17659 8.89425 8.13329 8.79171 8.13329 8.67322C8.13329 8.61853 8.14469 8.56384 8.16747 8.50916C8.19026 8.45447 8.21988 8.4089 8.25634 8.37244L11.8931 4.73572L8.25634 1.11267C8.21077 1.0671 8.17431 1.01697 8.14697 0.96228C8.11962 0.907593 8.10595 0.843791 8.10595 0.770874C8.10595 0.652384 8.14697 0.549846 8.229 0.463257C8.31103 0.376668 8.41585 0.333374 8.54345 0.333374C8.60725 0.333374 8.66878 0.347046 8.72802 0.37439C8.78727 0.401734 8.83512 0.438192 8.87158 0.483765L12.8091 4.43494C12.8547 4.4714 12.8888 4.51697 12.9116 4.57166C12.9344 4.62634 12.9458 4.68103 12.9458 4.73572C12.9458 4.79952 12.9344 4.85649 12.9116 4.90662C12.8888 4.95675 12.8547 5.0046 12.8091 5.05017L8.87158 8.98767C8.83512 9.02413 8.78954 9.05375 8.73486 9.07654C8.68017 9.09933 8.62548 9.11072 8.57079 9.11072Z"/>
</svg>
