<svg width="38" height="38" viewBox="0 0 38 38" fill="none" xmlns="http://www.w3.org/2000/svg">
<g>
<path d="M27.1577 10.8497L27.1577 10.8497C26.7622 10.8274 26.4235 11.1299 26.4013 11.5254L26.293 13.448L25.7641 12.919C21.8226 8.97758 15.4098 8.97762 11.4684 12.919C7.52696 16.8604 7.52692 23.2733 11.4683 27.2147C15.4097 31.1561 21.8227 31.1561 25.7641 27.2147C26.0441 26.9346 26.0441 26.4805 25.7641 26.2005C25.484 25.9204 25.0299 25.9205 24.7499 26.2005C21.3678 29.5826 15.8646 29.5825 12.4826 26.2005C9.10056 22.8185 9.10056 17.3152 12.4826 13.9332C15.8646 10.5512 21.3678 10.5512 24.7499 13.9332L25.2788 14.4622L23.3562 14.5705C23.3562 14.5705 23.3562 14.5705 23.3562 14.5705C22.9608 14.5927 22.6583 14.9314 22.6805 15.3268C22.7027 15.7223 23.0415 16.0248 23.4369 16.0025L26.5838 15.8253C27.1625 15.7927 27.6235 15.3316 27.6561 14.753L27.8333 11.6061C27.8453 11.3937 27.7635 11.1977 27.6243 11.0585C27.5041 10.9383 27.3407 10.8601 27.1577 10.8497Z" fill="#636363" stroke="#636363" stroke-width="0.25"/>
</g>
<defs>
<clipPath id="clip0">
<rect x="19.0972" y="37.1174" width="25.6038" height="25.6038" transform="rotate(-135 19.0972 37.1174)" fill="white"/>
</clipPath>
</defs>
</svg>
