<svg width="20" height="20" viewBox="0 0 20 20" fill="none" xmlns="http://www.w3.org/2000/svg">
<path fill-rule="evenodd" clip-rule="evenodd" d="M14.7915 6.36626L13.6696 5.22994C13.2789 4.83419 13.2789 4.19256 13.6696 3.79681C14.0603 3.40106 14.6938 3.40106 15.0845 3.79681L17.5605 6.30478C18.1465 6.89841 18.1465 7.86086 17.5605 8.45448L15.0845 10.9624C14.6938 11.3582 14.0603 11.3582 13.6696 10.9624C13.2789 10.5667 13.2789 9.92507 13.6696 9.52932L14.7915 8.393H7.00223C5.34464 8.393 4.00089 9.75411 4.00089 11.4331C4.00089 13.1121 5.34463 14.4733 7.00223 14.4733H13.0049C13.5574 14.4733 14.0053 14.927 14.0053 15.4866C14.0053 16.0463 13.5574 16.5 13.0049 16.5H7.00223C4.23957 16.5 2 14.2315 2 11.4331C2 8.63477 4.23957 6.36626 7.00223 6.36626H14.7915Z"/>
</svg>
