<svg width="20" height="20" viewBox="0 0 20 20" xmlns="http://www.w3.org/2000/svg"><path d="M16.31 9.879l-2.89 2.424a.506.506 0 1 0 .65.775l3.856-3.234A.506.506 0 0 0 18 9.146a.524.524 0 0 0-.022-.783l-3.826-3.21a.524.524 0 1 0-.673.803l3.47 2.911h-9.82a.504.504 0 0 0-.199.04C4.756 8.928 3 10.732 3 12.954 3 15.188 4.777 17 6.968 17a3.89 3.89 0 0 0 1.699-.388l-.243-.991a2.918 2.918 0 0 1-1.422.367c-1.643 0-2.976-1.358-2.976-3.034 0-1.676 1.333-3.035 2.976-3.035h2.591a4.015 4.015 0 0 0-.045-.04h6.762z" fill="#000" fill-rule="nonzero"/></svg>