<?xml version="1.0" encoding="UTF-8" standalone="no"?>
<svg width="20px" height="20px" viewBox="0 0 20 20" version="1.1" xmlns="http://www.w3.org/2000/svg" xmlns:xlink="http://www.w3.org/1999/xlink" xmlns:sketch="http://www.bohemiancoding.com/sketch/ns">
    <!-- Generator: Sketch 3.5.2 (25235) - http://www.bohemiancoding.com/sketch -->
    <title>link</title>
    <desc>Created with Sketch.</desc>
    <defs></defs>
    <g id="Page-1" stroke="none" stroke-width="1" fill="none" fill-rule="evenodd" sketch:type="MSPage">
        <g id="link" sketch:type="MSArtboardGroup" fill="#222222">
            <g id="icon:link" sketch:type="MSLayerGroup">
                <g id="Rectangle-18-+-Rectangle-18-Copy-+-Path-28" transform="translate(9.646447, 9.853553) rotate(-315.000000) translate(-9.646447, -9.853553) translate(5.646447, 0.853553)" sketch:type="MSShapeGroup">
                    <path d="M8,6.55919636 L8,4.82450549 C8,2.61334348 6.2104719,0.828427125 4,0.828427125 C1.79353398,0.828427125 -3.20810045e-12,2.61822724 -3.20810045e-12,4.82450549 L-3.20810045e-12,7.75542568 C-3.20810045e-12,9.96658769 1.7895281,11.751504 4,11.751504 C4.5511606,11.751504 5.07655559,11.6398264 5.55466651,11.437876 L5.12132034,11.437876 L5.12132034,10.5346402 C4.77469964,10.6745028 4.39616036,10.751504 4,10.751504 C2.34314575,10.751504 1,9.41562927 1,7.75542568 L1,4.82450549 C1,3.1698171 2.34651712,1.82842712 4,1.82842712 C5.65685425,1.82842712 7,3.1643019 7,4.82450549 L7,6.55919636 L8,6.55919636 Z" id="Shape"></path>
                    <path d="M2.63603897,6.90151354 C3.06184352,6.74698845 3.52119959,6.66270951 4,6.66270951 C6.2104719,6.66270951 8,8.44762587 8,10.6587879 L8,13.5897081 C8,15.7959863 6.20646602,17.5857864 4,17.5857864 C1.7895281,17.5857864 -2.32347475e-12,15.8008701 -2.32347475e-12,13.5897081 L-2.32347475e-12,11.6627095 L1,11.6627095 L1,13.5897081 C1,15.2499117 2.34314575,16.5857864 4,16.5857864 C5.65348288,16.5857864 7,15.2443965 7,13.5897081 L7,10.6587879 C7,8.99858429 5.65685425,7.66270951 4,7.66270951 C3.5092458,7.66270951 3.04553235,7.78087311 2.63603897,7.99032058 L2.63603897,6.90151354 Z" id="Shape"></path>
                </g>
            </g>
        </g>
    </g>
</svg>