<svg width="20" height="20" viewBox="0 0 20 20" fill="none" xmlns="http://www.w3.org/2000/svg">
<path fill-rule="evenodd" clip-rule="evenodd" d="M5.20854 6.36626L6.33036 5.22994C6.72105 4.83419 6.72105 4.19256 6.33036 3.79681C5.93966 3.40106 5.30621 3.40106 4.91551 3.79681L2.43954 6.30478C1.85349 6.89841 1.85349 7.86086 2.43954 8.45448L4.91551 10.9624C5.30621 11.3582 5.93966 11.3582 6.33036 10.9624C6.72105 10.5667 6.72105 9.92507 6.33036 9.52932L5.20854 8.393H12.9978C14.6554 8.393 15.9991 9.75411 15.9991 11.4331C15.9991 13.1121 14.6554 14.4733 12.9978 14.4733H6.9951C6.44257 14.4733 5.99466 14.927 5.99466 15.4866C5.99466 16.0463 6.44257 16.5 6.9951 16.5H12.9978C15.7604 16.5 18 14.2315 18 11.4331C18 8.63477 15.7604 6.36626 12.9978 6.36626H5.20854Z"/>
</svg>
