<svg width="37" height="38" viewBox="0 0 37 38" fill="none" xmlns="http://www.w3.org/2000/svg">
<g >
<path d="M10.209 10.8497L10.209 10.8497C10.6045 10.8274 10.9432 11.1299 10.9654 11.5254L11.0737 13.448L11.6026 12.919C15.5441 8.97758 21.9569 8.97762 25.8983 12.919C29.8397 16.8604 29.8398 23.2733 25.8984 27.2147C21.957 31.1561 15.544 31.1561 11.6026 27.2147C11.3226 26.9346 11.3226 26.4805 11.6026 26.2005C11.8827 25.9204 12.3368 25.9205 12.6168 26.2005C15.9989 29.5826 21.5021 29.5825 24.8841 26.2005C28.2661 22.8185 28.2661 17.3152 24.8841 13.9332C21.5021 10.5512 15.9989 10.5512 12.6168 13.9332L12.0879 14.4622L14.0105 14.5705C14.0105 14.5705 14.0105 14.5705 14.0105 14.5705C14.4059 14.5927 14.7084 14.9314 14.6862 15.3268C14.664 15.7223 14.3252 16.0248 13.9298 16.0025L10.7829 15.8253C10.2042 15.7927 9.7432 15.3316 9.7106 14.753L9.53336 11.6061C9.52137 11.3937 9.60323 11.1977 9.74242 11.0585C9.86259 10.9383 10.026 10.8601 10.209 10.8497Z" fill="#636363" stroke="#636363" stroke-width="0.25"/>
</g>
<defs>
<clipPath id="clip0">
<rect width="25.6038" height="25.6038" transform="matrix(0.707107 -0.707107 -0.707107 -0.707107 18.2695 37.1174)" fill="white"/>
</clipPath>
</defs>
</svg>
