<svg width="20" height="20" viewBox="0 0 20 20" xmlns="http://www.w3.org/2000/svg"><path d="M3.69 9.879l2.89 2.424a.506.506 0 1 1-.65.775L2.073 9.844A.506.506 0 0 1 2 9.146a.524.524 0 0 1 .022-.783l3.826-3.21a.524.524 0 1 1 .673.803l-3.47 2.911h9.82c.07 0 .138.015.199.04 2.174.021 3.93 1.825 3.93 4.047C17 15.188 15.223 17 13.032 17a3.89 3.89 0 0 1-1.699-.388l.243-.991c.422.234.907.367 1.422.367 1.643 0 2.976-1.358 2.976-3.034 0-1.676-1.333-3.035-2.976-3.035h-2.591l.045-.04H3.69z" fill="#000" fill-rule="nonzero"/></svg>