<svg viewBox="0 0 20 20" xmlns="http://www.w3.org/2000/svg"><path clip-rule="evenodd" d="M5.802 8.942a.607.607 0 0 0-.838-.029L1.429 12.8V3.158h12.93v5.25l1.429-1.319V2.758c0-.553-.467-1-1.039-1H1.05c-.582 0-1.049.447-1.049 1v11.281c0 .562.467 1.01 1.039 1.01h6.583v-.228c0-.124.052-.242.143-.326l4.504-4.157-.312-.367a.61.61 0 0 0-.829 0l-2.124 1.962-3.202-2.991Zm3.74-2.578a1.87 1.87 0 1 0 3.707-.486 1.87 1.87 0 0 0-3.707.486Z"/><path d="M8.874 15.926v2.316h2.317l6.836-6.834-2.32-2.32-6.833 6.84v-.002Zm10.944-6.312a.612.612 0 0 0 0-.87L18.372 7.3a.614.614 0 0 0-.87 0l-1.133 1.128 2.32 2.319 1.13-1.133Z"/></svg>