<svg viewBox="0 0 20 20" xmlns="http://www.w3.org/2000/svg"><path d="M1.201 1C.538 1 0 1.47 0 2.1v12.86C0 15.603.534 16 1.186 16H6.45l3.647-3.596-3.48-3.254a.694.694 0 0 0-.958-.033L1.5 13.6V2.5h15v4.59a3.477 3.477 0 0 1 1.5.15V2.1c0-.63-.547-1.1-1.2-1.1H1.202Zm11.723 2.805a2.137 2.137 0 0 0-2.045 2.406 2.13 2.13 0 0 0 4.172.277 2.134 2.134 0 0 0-.76-2.244 2.13 2.13 0 0 0-1.367-.44Z"/><path d="M8.1 17.612V20h2.39l7.046-7.046-2.39-2.39L8.1 17.612Zm11.283-6.506a.638.638 0 0 0 .139-.692.603.603 0 0 0-.139-.206L17.892 8.72a.63.63 0 0 0-.898 0l-1.167 1.163 2.391 2.39 1.165-1.167Z"/></svg>