<svg width="113" height="10" viewBox="0 0 113 10" fill="none" xmlns="http://www.w3.org/2000/svg">
<path d="M3.05469 5.92969H1.83203V8H0.636719V2.24219H3.14453C3.72266 2.24219 4.18359 2.39062 4.52734 2.6875C4.87109 2.98438 5.04297 3.44401 5.04297 4.06641C5.04297 4.74609 4.87109 5.22656 4.52734 5.50781C4.18359 5.78906 3.69271 5.92969 3.05469 5.92969ZM3.61719 4.73047C3.77344 4.59245 3.85156 4.3737 3.85156 4.07422C3.85156 3.77474 3.77214 3.5612 3.61328 3.43359C3.45703 3.30599 3.23698 3.24219 2.95312 3.24219H1.83203V4.9375H2.95312C3.23698 4.9375 3.45833 4.86849 3.61719 4.73047ZM8.49219 8.16016C7.66927 8.16016 7.04036 7.9362 6.60547 7.48828C6.02214 6.9388 5.73047 6.14714 5.73047 5.11328C5.73047 4.05859 6.02214 3.26693 6.60547 2.73828C7.04036 2.29036 7.66927 2.06641 8.49219 2.06641C9.3151 2.06641 9.94401 2.29036 10.3789 2.73828C10.9596 3.26693 11.25 4.05859 11.25 5.11328C11.25 6.14714 10.9596 6.9388 10.3789 7.48828C9.94401 7.9362 9.3151 8.16016 8.49219 8.16016ZM9.62891 6.61328C9.90755 6.26172 10.0469 5.76172 10.0469 5.11328C10.0469 4.46745 9.90625 3.96875 9.625 3.61719C9.34635 3.26302 8.96875 3.08594 8.49219 3.08594C8.01562 3.08594 7.63542 3.26172 7.35156 3.61328C7.06771 3.96484 6.92578 4.46484 6.92578 5.11328C6.92578 5.76172 7.06771 6.26172 7.35156 6.61328C7.63542 6.96484 8.01562 7.14062 8.49219 7.14062C8.96875 7.14062 9.34766 6.96484 9.62891 6.61328ZM17.7734 2.24219H18.9961L17.375 8H16.2266L15.5312 4.63281L15.3281 3.51953L15.125 4.63281L14.4297 8H13.3125L11.6797 2.24219H12.957L13.7188 5.53906L13.8828 6.45703L14.0508 5.55859L14.6992 2.24219H15.9688L16.6523 5.53906L16.8281 6.45703L17.0039 5.57422L17.7734 2.24219ZM23.7344 5.48438H20.9375V6.96484H24.125V8H19.7617V2.24219H23.9844V3.26172H20.9375V4.48438H23.7344V5.48438ZM27.5078 5.74219H26.2656V8H25.0898V2.24219H27.9141C28.3177 2.25 28.6276 2.29948 28.8438 2.39062C29.0625 2.48177 29.2474 2.61589 29.3984 2.79297C29.5234 2.9388 29.6224 3.10026 29.6953 3.27734C29.7682 3.45443 29.8047 3.65625 29.8047 3.88281C29.8047 4.15625 29.7357 4.42578 29.5977 4.69141C29.4596 4.95443 29.2318 5.14062 28.9141 5.25C29.1797 5.35677 29.3672 5.50911 29.4766 5.70703C29.5885 5.90234 29.6445 6.20182 29.6445 6.60547V6.99219C29.6445 7.25521 29.6549 7.43359 29.6758 7.52734C29.707 7.67578 29.7799 7.78516 29.8945 7.85547V8H28.5703C28.5339 7.8724 28.5078 7.76953 28.4922 7.69141C28.4609 7.52995 28.444 7.36458 28.4414 7.19531L28.4336 6.66016C28.4284 6.29297 28.3607 6.04818 28.2305 5.92578C28.1029 5.80339 27.862 5.74219 27.5078 5.74219ZM28.2383 4.69531C28.4779 4.58594 28.5977 4.36979 28.5977 4.04688C28.5977 3.69792 28.4818 3.46354 28.25 3.34375C28.1198 3.27604 27.9245 3.24219 27.6641 3.24219H26.2656V4.78906H27.6289C27.8997 4.78906 28.1029 4.75781 28.2383 4.69531ZM34.8516 5.48438H32.0547V6.96484H35.2422V8H30.8789V2.24219H35.1016V3.26172H32.0547V4.48438H34.8516V5.48438ZM38.6602 8H36.1797V2.24219H38.6602C39.0169 2.2474 39.3138 2.28906 39.5508 2.36719C39.9544 2.5 40.2812 2.74349 40.5312 3.09766C40.7318 3.38411 40.8685 3.69401 40.9414 4.02734C41.0143 4.36068 41.0508 4.67839 41.0508 4.98047C41.0508 5.74609 40.8971 6.39453 40.5898 6.92578C40.1732 7.64193 39.5299 8 38.6602 8ZM39.5547 3.71094C39.3698 3.39844 39.0039 3.24219 38.457 3.24219H37.3477V7H38.457C39.0247 7 39.4206 6.72005 39.6445 6.16016C39.7669 5.85286 39.8281 5.48698 39.8281 5.0625C39.8281 4.47656 39.737 4.02604 39.5547 3.71094ZM46.8164 8H44.207V2.24219H47.0039C47.7096 2.2526 48.2096 2.45703 48.5039 2.85547C48.681 3.10026 48.7695 3.39323 48.7695 3.73438C48.7695 4.08594 48.681 4.36849 48.5039 4.58203C48.4049 4.70182 48.2591 4.8112 48.0664 4.91016C48.3607 5.01693 48.582 5.1862 48.7305 5.41797C48.8815 5.64974 48.957 5.93099 48.957 6.26172C48.957 6.60286 48.8711 6.90885 48.6992 7.17969C48.5898 7.35938 48.4531 7.51042 48.2891 7.63281C48.1042 7.77344 47.8854 7.86979 47.6328 7.92188C47.3828 7.97396 47.1107 8 46.8164 8ZM46.7891 5.46484H45.3555V7H46.7695C47.0221 7 47.2188 6.96615 47.3594 6.89844C47.6146 6.77344 47.7422 6.53385 47.7422 6.17969C47.7422 5.88021 47.6185 5.67448 47.3711 5.5625C47.2331 5.5 47.0391 5.46745 46.7891 5.46484ZM47.3867 4.36719C47.543 4.27344 47.6211 4.10547 47.6211 3.86328C47.6211 3.59505 47.5169 3.41797 47.3086 3.33203C47.1289 3.27214 46.8997 3.24219 46.6211 3.24219H45.3555V4.51172H46.7695C47.0221 4.51172 47.2279 4.46354 47.3867 4.36719ZM54.6172 2.24219L52.6914 5.83594V8H51.4883V5.83594L49.4961 2.24219H50.9141L52.1094 4.75L53.2539 2.24219H54.6172Z" fill="#505050"/>
<g clip-path="url(#clip0_31_36)">
<path d="M91.7235 1.49218C91.7235 1.73603 91.729 1.97428 91.74 2.20695C91.7469 2.3561 91.7573 2.5043 91.7687 2.65197C91.5591 2.50322 91.3273 2.38862 91.0819 2.31242C90.7249 2.20131 90.3532 2.14524 89.9794 2.14613C89.5837 2.13285 89.1911 2.22054 88.8387 2.40092C88.5108 2.59652 88.2667 2.90638 88.1533 3.27098C88.0033 3.68101 87.9282 4.25175 87.9282 4.98315C87.9282 5.92159 88.0763 6.64195 88.3724 7.14423C88.6685 7.64651 89.1639 7.89767 89.8587 7.89779C90.3108 7.91283 90.7584 7.80359 91.1528 7.58203C91.4485 7.40791 91.71 7.18123 91.9243 6.91319L92.0632 7.76495H93.3464V0.00701904H91.7231L91.7235 1.49218ZM90.9996 6.49603C90.8388 6.53951 90.6726 6.56007 90.506 6.55707C90.3237 6.56475 90.1431 6.52047 89.9849 6.42951C89.8312 6.31711 89.7254 6.15091 89.6887 5.96403C89.6163 5.63859 89.585 5.30539 89.5956 4.97215C89.5841 4.61851 89.6173 4.26487 89.6943 3.91954C89.7307 3.72675 89.8408 3.55574 90.0013 3.44291C90.1703 3.35451 90.3597 3.3125 90.5503 3.32112C90.7837 3.31717 91.0165 3.34699 91.2414 3.40966C91.3881 3.45369 91.5489 3.5017 91.7239 3.5537V6.10719C91.6134 6.18299 91.5105 6.25043 91.417 6.30775C91.2868 6.38871 91.1465 6.45203 90.9996 6.49603Z" fill="#1C2331"/>
<path d="M95.6799 1.89637e-05L94.9779 0.00441472C94.6562 0.00646076 94.4964 0.172013 94.4986 0.501048L94.5022 1.08231C94.5043 1.41148 94.6662 1.575 94.9878 1.57285L95.6898 1.56846C96.0115 1.56641 96.1714 1.40087 96.1694 1.07184L96.1658 0.49056C96.1637 0.161489 96.0018 -0.00202706 95.6799 1.89637e-05Z" fill="#1C2331"/>
<path d="M96.1451 2.31329L94.5327 2.32352L94.5672 7.80538L96.1796 7.79518L96.1451 2.31329Z" fill="#1C2331"/>
<path d="M99.6228 0.789062L97.9886 0.799291L98.001 2.30747L97.0547 2.36282L97.061 3.37192L98.0095 3.36594L98.0341 6.3494C98.0371 6.82496 98.1766 7.19336 98.4525 7.4546C98.7284 7.71584 99.1114 7.84508 99.6014 7.84228C99.7328 7.84148 99.8936 7.83132 100.084 7.81192C100.274 7.79248 100.464 7.76568 100.654 7.73148C100.817 7.70396 100.978 7.66448 101.136 7.61328L100.953 6.51752L100.251 6.52192C100.089 6.53808 99.9266 6.4942 99.7948 6.39864C99.7437 6.34188 99.7048 6.27512 99.6808 6.2026C99.6566 6.13004 99.6479 6.05328 99.6552 5.97716L99.6387 3.35586L101.152 3.34629L101.146 2.28209L99.632 2.29161L99.6228 0.789062Z" fill="#1C2331"/>
<path d="M106.226 2.38789C105.816 2.20375 105.27 2.11383 104.59 2.11813C103.917 2.12239 103.375 2.21914 102.963 2.4084C102.561 2.5869 102.243 2.9128 102.075 3.31888C101.894 3.73688 101.807 4.29685 101.811 4.99881C101.815 5.68589 101.91 6.23737 102.096 6.65333C102.268 7.05661 102.591 7.37705 102.996 7.54717C103.41 7.72729 103.953 7.81529 104.626 7.81113C105.306 7.80685 105.85 7.71201 106.258 7.52665C106.658 7.35069 106.972 7.02601 107.136 6.62165C107.312 6.20361 107.399 5.65097 107.394 4.96369C107.39 4.26169 107.297 3.70286 107.115 3.28718C106.946 2.88417 106.627 2.56204 106.226 2.38789ZM105.613 5.99525C105.593 6.09713 105.553 6.19401 105.495 6.28013C105.437 6.36625 105.363 6.43977 105.276 6.49641C105.068 6.58817 104.845 6.63629 104.618 6.63773C104.392 6.63917 104.168 6.59389 103.959 6.50473C103.872 6.44925 103.796 6.37665 103.737 6.29129C103.678 6.20593 103.637 6.10949 103.616 6.00781C103.538 5.67381 103.503 5.33129 103.511 4.98841C103.498 4.64213 103.529 4.29565 103.603 3.95714C103.623 3.85478 103.663 3.75739 103.721 3.67069C103.779 3.5838 103.853 3.50918 103.94 3.4511C104.146 3.35582 104.37 3.30578 104.597 3.30431C104.824 3.30288 105.049 3.35012 105.256 3.44282C105.344 3.49983 105.419 3.57352 105.478 3.65965C105.537 3.74586 105.578 3.84273 105.6 3.94482C105.678 4.28241 105.713 4.62841 105.705 4.97477C105.717 5.31753 105.686 5.66025 105.613 5.99525Z" fill="#1C2331"/>
<path d="M112.114 2.07034C111.722 2.07899 111.337 2.17385 110.986 2.34818C110.596 2.53937 110.234 2.78541 109.914 3.07883L109.757 2.23187L108.484 2.23985L108.52 7.81241L110.143 7.80217L110.119 4.02216C110.47 3.89819 110.765 3.8027 111.006 3.7357C111.266 3.66136 111.535 3.62181 111.806 3.61806L112.256 3.61524L112.4 2.06876L112.114 2.07034Z" fill="#1C2331"/>
<path d="M82.0826 7.42599C81.5574 6.58215 81.0323 5.73831 80.5072 4.89447C80.4558 4.80603 80.3982 4.72139 80.3347 4.64123C80.2442 4.53407 80.1424 4.43699 80.031 4.35163C80.0418 4.33495 80.0561 4.32075 80.0729 4.31007C80.2001 4.20263 80.3108 4.07711 80.4015 3.93749C80.9844 3.03417 81.5674 2.13088 82.1505 1.22763C82.1604 1.21228 82.1758 1.19909 82.175 1.17909C82.165 1.16886 82.1539 1.17233 82.1439 1.17223C81.5926 1.17162 81.0413 1.17075 80.4901 1.16962C80.4745 1.16885 80.4592 1.17272 80.4459 1.18072C80.4325 1.18871 80.4218 1.20051 80.4152 1.21459C80.1262 1.67648 79.8367 2.13802 79.5467 2.59923C79.3171 2.96532 79.0867 3.33069 78.859 3.6978C78.849 3.71833 78.8328 3.73517 78.8126 3.74593C78.7925 3.75666 78.7695 3.76078 78.747 3.75769C78.6494 3.75257 78.5513 3.75657 78.4533 3.7559C78.4351 3.7559 78.4153 3.76219 78.398 3.74863C78.3997 3.72951 78.4003 3.71018 78.4031 3.6913C78.4361 3.45892 78.4513 3.22436 78.4485 2.98967V1.20349C78.4485 1.18277 78.4405 1.17121 78.4185 1.17213H78.3864L76.9301 1.17085C76.8461 1.17085 76.8566 1.16098 76.8566 1.24661V7.69287C76.8566 7.70795 76.8573 7.72287 76.8566 7.73783C76.8556 7.75623 76.8629 7.76555 76.8822 7.76499H78.3765C78.4593 7.76499 78.4484 7.77183 78.4484 7.69379V5.50455C78.4484 5.44923 78.4455 5.39375 78.4437 5.33823C78.4361 5.19819 78.4197 5.05871 78.3947 4.92071H78.4539C78.5583 4.92071 78.6627 4.92343 78.7668 4.91947C78.7843 4.91767 78.8018 4.92151 78.8169 4.93047C78.832 4.93947 78.8438 4.95311 78.8505 4.96935C79.3859 5.88151 79.9217 6.79343 80.4579 7.70503C80.4667 7.72475 80.4814 7.74123 80.4999 7.75223C80.5184 7.76327 80.5399 7.76827 80.5613 7.76663C81.1146 7.76427 81.6681 7.76515 82.2215 7.76503C82.242 7.76503 82.2621 7.76335 82.2898 7.76211C82.2811 7.74679 82.2764 7.73819 82.2711 7.72963L82.0826 7.42599Z" fill="#1C2331"/>
<path d="M87.1116 6.55456C87.1068 6.475 87.1084 6.475 87.0301 6.475H84.6163C84.5631 6.47532 84.51 6.47156 84.4574 6.4638C84.3997 6.459 84.3449 6.43632 84.3007 6.39896C84.2566 6.36152 84.2252 6.31124 84.2109 6.25512C84.1966 6.20612 84.189 6.15536 84.1885 6.10432C84.1885 5.72344 84.1882 5.34256 84.1875 4.96168C84.1875 4.92996 84.194 4.91328 84.2291 4.91788C84.244 4.91884 84.259 4.91884 84.2739 4.91788H86.6877C86.7026 4.91788 86.7177 4.91664 86.7327 4.91788C86.7619 4.9208 86.7699 4.90588 86.7675 4.87988C86.7665 4.86708 86.7675 4.85428 86.7675 4.84172V3.8141C86.7675 3.72545 86.7803 3.73568 86.6908 3.73568H84.2514C84.1803 3.73568 84.1889 3.73937 84.1889 3.67518V2.83901C84.189 2.79223 84.1932 2.74556 84.2016 2.69953C84.2092 2.63765 84.237 2.58 84.2807 2.53549C84.3243 2.49095 84.3814 2.46199 84.4431 2.45308C84.4911 2.4444 84.5399 2.44065 84.5887 2.44188H87.0282C87.0431 2.44188 87.058 2.44076 87.0729 2.44188C87.0971 2.44388 87.1083 2.43313 87.1091 2.4095C87.1091 2.39671 87.1115 2.38393 87.1123 2.37135C87.1221 2.20586 87.1319 2.04026 87.1415 1.87456C87.1528 1.69196 87.1658 1.50961 87.1764 1.32726C87.1812 1.24158 87.1791 1.23979 87.0939 1.23273C86.8757 1.21483 86.6569 1.19498 86.4392 1.18234C86.2215 1.16971 86.0012 1.16137 85.7821 1.15677C85.1969 1.14446 84.6116 1.13919 84.0262 1.14096C83.8667 1.1402 83.7079 1.16188 83.5545 1.20536C83.3802 1.25114 83.2175 1.33306 83.0769 1.44578C82.9364 1.55854 82.8211 1.6996 82.7385 1.85979C82.6392 2.056 82.5892 2.27349 82.5929 2.49339C82.5921 3.14659 82.5921 3.79969 82.5929 4.45272V6.3676C82.5923 6.43988 82.5961 6.51216 82.6041 6.584C82.6238 6.80228 82.6997 7.01176 82.8243 7.19204C82.9489 7.37236 83.1181 7.51732 83.3154 7.6128C83.5429 7.72552 83.7948 7.78 84.0486 7.77136C84.8061 7.76624 85.5639 7.77348 86.3207 7.72948C86.5948 7.7134 86.8686 7.69548 87.1419 7.67568C87.1705 7.67356 87.1835 7.66784 87.1808 7.635C87.1729 7.53116 87.1686 7.42704 87.1622 7.323C87.1441 7.06812 87.127 6.81144 87.1116 6.55456Z" fill="#1C2331"/>
<path d="M76.1391 7.41461C76.0969 7.05653 76.0548 6.69849 76.0129 6.34045C76.0095 6.31061 75.9995 6.29953 75.9695 6.30325C75.8957 6.31193 75.8219 6.32069 75.7479 6.32741C75.4895 6.35041 75.2306 6.36897 74.9715 6.37661C74.6354 6.38621 74.2994 6.39573 73.9633 6.39157C73.8465 6.39097 73.7301 6.37821 73.616 6.35349C73.4391 6.32313 73.2791 6.23001 73.1652 6.09121C73.0908 5.99181 73.0345 5.88005 72.999 5.76105C72.9265 5.50913 72.8842 5.24949 72.8727 4.98761C72.8546 4.73845 72.8555 4.48885 72.8579 4.23917C72.8581 3.95377 72.88 3.66879 72.9233 3.38669C72.9461 3.22889 72.9888 3.0746 73.0504 2.92751C73.0939 2.81735 73.1638 2.7195 73.2537 2.64245C73.3443 2.56496 73.4522 2.51046 73.5683 2.48357C73.6982 2.45161 73.8315 2.43564 73.9653 2.43605C74.5926 2.43461 75.22 2.43943 75.8473 2.48546C75.8688 2.48699 75.8798 2.48035 75.8827 2.46015C75.8841 2.44992 75.8847 2.43922 75.8859 2.42884C75.9058 2.24535 75.9257 2.06196 75.9456 1.87871C75.9647 1.70193 75.9824 1.52424 76.0029 1.34726C76.0067 1.31324 75.9977 1.30122 75.9636 1.29099C75.5681 1.17666 75.1613 1.10634 74.7504 1.08128C74.5151 1.0647 74.2784 1.06251 74.0423 1.06143C73.802 1.0581 73.5618 1.07177 73.3234 1.10234C73.1112 1.12985 72.9021 1.17689 72.6985 1.24286C72.392 1.33789 72.1143 1.50851 71.8911 1.73902C71.7057 1.93824 71.5616 2.17218 71.467 2.42735C71.3393 2.78062 71.2583 3.14908 71.2261 3.52336C71.1959 3.80867 71.1823 4.09549 71.1852 4.38237C71.1787 4.81309 71.2091 5.24357 71.2762 5.66909C71.3152 5.91981 71.3799 6.16585 71.4691 6.40341C71.5671 6.68157 71.7292 6.93281 71.9421 7.13689C72.1563 7.34221 72.4151 7.49504 72.6983 7.58344C73.0422 7.69384 73.4004 7.7534 73.7615 7.7602C74.2887 7.7814 74.8167 7.75352 75.3387 7.67688C75.5977 7.63372 75.8536 7.57393 76.1049 7.49785C76.135 7.48893 76.1523 7.47417 76.1423 7.44017C76.1405 7.43177 76.1395 7.42321 76.1391 7.41461Z" fill="#1C2331"/>
<path d="M66.0157 6.6904C65.7989 6.71736 65.5899 6.7886 65.4019 6.8998C65.1723 7.032 64.9796 7.21964 64.8413 7.44556C64.7979 7.51788 64.5548 7.98456 64.5548 7.98456L63.7188 9.51268L63.7276 9.51888C63.7665 9.54412 63.8078 9.56532 63.8509 9.58224C63.9776 9.62776 64.111 9.65224 64.2456 9.65472C64.7512 9.67772 65.257 9.64792 65.7628 9.6516C66.0526 9.6608 66.3427 9.65376 66.6317 9.63048C66.7709 9.62344 66.9064 9.58368 67.0273 9.51444C67.1514 9.44324 67.258 9.34524 67.3394 9.22764C67.3949 9.14548 67.4527 9.0646 67.503 8.97944C67.7436 8.57124 67.9828 8.16256 68.2208 7.75344C68.2957 7.62512 68.3691 7.49592 68.4428 7.36724C68.4798 7.30308 68.5182 7.23932 68.5554 7.17472C68.6496 7.018 68.702 6.8398 68.7078 6.65704L67.4042 6.68012C67.4042 6.68012 66.1458 6.675 66.0157 6.6904Z" fill="#AFE229"/>
<path d="M62.8478 9.04367L63.6086 7.65327C63.6086 7.65327 63.6951 7.48699 63.7923 7.30223C63.6681 7.23511 63.5467 7.16243 63.4251 7.09107C63.0787 6.88815 62.7188 6.70831 62.3801 6.49211C62.2882 6.43691 62.2058 6.36703 62.1364 6.28523C62.0282 6.15087 62 5.99071 61.9916 5.82551C61.9706 5.41627 61.9904 5.00707 61.9833 4.59787C61.9799 4.40303 61.9833 4.20815 61.9858 4.01323C61.9899 3.69096 62.1392 3.46028 62.4131 3.30002C62.691 3.13747 62.9686 2.97465 63.246 2.81154C63.4662 2.68278 63.6868 2.55464 63.9078 2.42714C63.9585 2.39809 64.0128 2.37538 64.0658 2.35042C64.3378 2.22182 64.585 2.30295 64.8257 2.43548C64.841 2.44392 64.8554 2.45375 64.8703 2.46296C64.993 2.52225 65.1125 2.5878 65.2284 2.65937C65.5461 2.83727 65.8632 3.0163 66.1798 3.19645C66.2751 3.25186 66.367 3.31305 66.4549 3.37967C66.6489 3.52366 66.709 3.72974 66.7214 3.95766C66.7368 4.24191 66.7278 4.52655 66.7265 4.81107C66.7255 5.09035 66.7307 5.36943 66.7276 5.64883C67.3186 5.64619 67.9858 5.64883 67.9858 5.64883L68.709 5.63607C68.7062 5.34411 68.7022 5.05215 68.7022 4.76011C68.7022 4.23635 68.7168 3.71231 68.6864 3.18878C68.662 2.76873 68.5505 2.38883 68.1937 2.12238C68.0322 1.99915 67.8633 1.88584 67.688 1.78306C67.1063 1.44963 66.5238 1.11763 65.9403 0.787096C65.7221 0.663824 65.513 0.523716 65.2823 0.4229C65.255 0.405864 65.2284 0.387724 65.2004 0.372123C64.7581 0.126599 64.3045 -0.0247051 63.8065 0.210179C63.7096 0.255959 63.6101 0.297115 63.5173 0.350619C63.1126 0.582912 62.7091 0.817288 62.3067 1.05374C61.7984 1.351 61.2905 1.64887 60.7831 1.94735C60.2818 2.24065 60.0097 2.66406 60.0045 3.25766C60.0013 3.61654 59.9964 3.97538 60.004 4.33415C60.02 5.08771 59.9866 5.84179 60.0277 6.59499C60.0444 6.89931 60.0972 7.19435 60.2966 7.44255C60.4243 7.59355 60.5757 7.72279 60.745 7.82519C61.3673 8.22571 62.0284 8.55927 62.665 8.93515C62.726 8.97127 62.7869 9.00747 62.8478 9.04367Z" fill="#771BFF"/>
</g>
<defs>
<clipPath id="clip0_31_36">
<rect width="52.4" height="10" fill="white" transform="translate(60)"/>
</clipPath>
</defs>
</svg>
