<svg viewBox="0 0 20 20" xmlns="http://www.w3.org/2000/svg"><path d="M10.209 18.717A8.5 8.5 0 1 1 18.686 9.6h-.008l.002.12a3 3 0 0 1-2.866 2.997h-.268l-.046-.002v.002h-4.791a2 2 0 1 0 0 4 1 1 0 1 1-.128 1.992 8.665 8.665 0 0 1-.372.008Zm-3.918-7.01a1.25 1.25 0 1 0-2.415-.648 1.25 1.25 0 0 0 2.415.647ZM5.723 8.18a1.25 1.25 0 1 0 .647-2.414 1.25 1.25 0 0 0-.647 2.414ZM9.76 6.155a1.25 1.25 0 1 0 .647-2.415 1.25 1.25 0 0 0-.647 2.415Zm4.028 1.759a1.25 1.25 0 1 0 .647-2.415 1.25 1.25 0 0 0-.647 2.415Z"/></svg>