<svg xmlns="http://www.w3.org/2000/svg" viewBox="0 0 448 512"><path d="M160 80C160 115.8 136.5 146.1 104 156.3V255.1C124.1 240.9 148.1 232 176 232H272C311.8 232 344 199.8 344 160V156.3C311.5 146.1 288 115.8 288 80C288 35.82 323.8 0 368 0C412.2 0 448 35.82 448 80C448 115.8 424.5 146.1 392 156.3V160C392 226.3 338.3 280 272 280H176C136.2 280 104 312.2 104 352V355.7C136.5 365.9 160 396.2 160 432C160 476.2 124.2 512 80 512C35.82 512 0 476.2 0 432C0 396.2 23.54 365.9 56 355.7V156.3C23.54 146.1 0 115.8 0 80C0 35.82 35.82 0 80 0C124.2 0 160 35.82 160 80V80zM80 112C97.67 112 112 97.67 112 80C112 62.33 97.67 48 80 48C62.33 48 48 62.33 48 80C48 97.67 62.33 112 80 112zM368 48C350.3 48 336 62.33 336 80C336 97.67 350.3 112 368 112C385.7 112 400 97.67 400 80C400 62.33 385.7 48 368 48zM80 464C97.67 464 112 449.7 112 432C112 414.3 97.67 400 80 400C62.33 400 48 414.3 48 432C48 449.7 62.33 464 80 464z"/></svg>
