<svg xmlns="http://www.w3.org/2000/svg" viewBox="0 0 512 512"><!-- Font Awesome Pro 5.15.4 by @fontawesome - https://fontawesome.com License - https://fontawesome.com/license (Commercial License) --><path d="M492.88 354.58L413.19 320l79.68-34.58c12.16-5.28 17.72-19.41 12.47-31.56-5.28-12.17-19.38-17.67-31.59-12.47l-217.22 94.72L71.91 256l170.5-73.98c12.16-5.28 17.72-19.41 12.47-31.56-5.28-12.19-19.38-17.67-31.59-12.47L19.16 226.56C7.53 231.59 0 243.16 0 256s7.53 24.41 19.12 29.42L98.82 320l-79.67 34.56C7.53 359.59 0 371.16 0 384.02c0 12.84 7.53 24.41 19.12 29.42l218.28 94.69a46.488 46.488 0 0 0 18.59 3.88c6.34-.02 12.69-1.3 18.59-3.86l218.25-94.69c11.62-5.03 19.16-16.59 19.16-29.44.01-12.86-7.52-24.43-19.11-29.44zM256.53 464.11L71.91 384l87.22-37.84 78.28 33.96c5.91 2.58 12.25 3.86 18.59 3.86s12.69-1.28 18.59-3.84l78.3-33.98 87.29 37.88-183.65 80.07zM496 88h-72V16c0-8.84-7.16-16-16-16h-16c-8.84 0-16 7.16-16 16v72h-72c-8.84 0-16 7.16-16 16v16c0 8.84 7.16 16 16 16h72v72c0 8.84 7.16 16 16 16h16c8.84 0 16-7.16 16-16v-72h72c8.84 0 16-7.16 16-16v-16c0-8.84-7.16-16-16-16z"/></svg>
