<svg viewBox="0 0 20 20" xmlns="http://www.w3.org/2000/svg"><path d="M15.5 6.5a3.5 3.5 0 013.495 3.308L19 10v2a1 1 0 011 1v5a1 1 0 01-1 1h-7a1 1 0 01-1-1v-5a1 1 0 011-1v-2l.005-.192A3.5 3.5 0 0115.5 6.5zm0 7.5a.5.5 0 00-.492.41L15 14.5v2a.5.5 0 00.992.09L16 16.5v-2a.5.5 0 00-.5-.5zm0-6a2 2 0 00-2 2v2h4v-2a2 2 0 00-2-2zm-9.25 8a.75.75 0 110 1.5H.75a.75.75 0 110-1.5h5.5zm0-5a.75.75 0 110 1.5H.75a.75.75 0 110-1.5h5.5zm3-5a.75.75 0 010 1.5H.75a.75.75 0 010-1.5h8.5zm6-5a.75.75 0 110 1.5H.75a.75.75 0 010-1.5h14.5z"/></svg>