<svg xmlns="http://www.w3.org/2000/svg" viewBox="0 0 20 20"><path d="M2.15 3.93c0 .4.33.75.75.75h11.78a.75.75 0 100-1.5H2.9a.75.75 0 00-.75.75zm.75 8.75h3a.75.75 0 000-1.5h-3a.75.75 0 100 1.5zm-.75 3.25c0 .4.33.75.75.75h2.94a.75.75 0 000-1.5H2.9a.75.75 0 00-.75.75zm.75-7.25h4.96a.75.75 0 000-1.5H2.9a.75.75 0 100 1.5zm11.25-2.12a3.01 3.01 0 013 3l.01 1.53h.3c.58 0 1.04.46 1.04 1.03v4.54c0 .57-.46 1.03-1.03 1.03h-6.44c-.57 0-1.03-.46-1.03-1.03v-4.54c0-.57.46-1.03 1.03-1.03h.11V9.57a3.01 3.01 0 013-3.01zm.1 6.64a.5.5 0 00-.5.5v1.5a.5.5 0 101 0v-1.5a.5.5 0 00-.5-.5zm-.1-5.54a1.9 1.9 0 00-1.9 1.9v1.53h3.8V9.56a1.9 1.9 0 00-1.9-1.9z"/></svg>