<svg width="10" height="12" viewBox="0 0 10 12" fill="none" xmlns="http://www.w3.org/2000/svg">
<g clip-path="url(#clip0)">
<path d="M9.03567 2.29812H0.554822C0.253633 2.29812 0 2.04449 0 1.7433C0 1.44211 0.253633 1.18848 0.554822 1.18848H9.03567C9.33686 1.18848 9.59049 1.44211 9.59049 1.7433C9.59049 2.04449 9.35271 2.29812 9.03567 2.29812Z" fill="#818181"/>
<path d="M3.37709 9.2736C3.0759 9.2736 2.82227 9.01996 2.82227 8.71878V4.08998C2.82227 3.78879 3.0759 3.53516 3.37709 3.53516C3.67828 3.53516 3.93191 3.78879 3.93191 4.08998V8.71878C3.93191 9.01996 3.69413 9.2736 3.37709 9.2736Z" fill="#818181"/>
<path d="M6.0558 9.2736C5.75461 9.2736 5.50098 9.01996 5.50098 8.71878V4.08998C5.50098 3.78879 5.75461 3.53516 6.0558 3.53516C6.35699 3.53516 6.61062 3.78879 6.61062 4.08998V8.71878C6.61062 9.01996 6.37284 9.2736 6.0558 9.2736Z" fill="#818181"/>
<path d="M5.65845 1.88639C5.35726 1.88639 5.10362 1.63276 5.10362 1.33157C5.10362 1.20476 4.96096 1.10964 4.80243 1.10964C4.64391 1.10964 4.50125 1.22061 4.50125 1.33157C4.50125 1.63276 4.24761 1.88639 3.94642 1.88639C3.64523 1.88639 3.3916 1.63276 3.3916 1.33157C3.3916 0.602378 4.02568 0 4.80243 0C5.57919 0 6.21327 0.602378 6.21327 1.33157C6.21327 1.64861 5.95964 1.88639 5.65845 1.88639Z" fill="#818181"/>
<path d="M6.10352 12.0002H3.32941C1.7442 12.0002 0.444336 10.7162 0.444336 9.11512V3.67787C0.444336 3.37668 0.697969 3.12305 0.999158 3.12305C1.30035 3.12305 1.55398 3.37668 1.55398 3.67787V9.13097C1.55398 10.0979 2.34658 10.9064 3.32941 10.9064H6.10352C7.07049 10.9064 7.87895 10.1138 7.87895 9.13097V3.67787C7.87895 3.37668 8.13258 3.12305 8.43377 3.12305C8.73496 3.12305 8.98859 3.37668 8.98859 3.67787V9.13097C8.98859 10.7162 7.68872 12.0002 6.10352 12.0002Z" fill="#818181"/>
</g>
<defs>
<clipPath id="clip0">
<rect width="9.59049" height="12" fill="white"/>
</clipPath>
</defs>
</svg>
