<svg viewBox="0 0 20 20" xmlns="http://www.w3.org/2000/svg"><path d="M10.5 5c4.694 0 8.5 2.764 8.5 5s-3.806 5-8.5 5S2 12.031 2 10s3.806-5 8.5-5zm3.081 1.921l.03.028A4.487 4.487 0 0 1 15 10.2a4.48 4.48 0 0 1-.919 2.725c2.047-.692 3.419-1.89 3.419-2.925 0-1.117-1.598-2.423-3.919-3.079zm-6.203.038l-.186.057C4.994 7.724 3.5 9.018 3.5 10c0 .936 1.356 2.155 3.385 2.88A4.476 4.476 0 0 1 6 10.2c0-1.273.529-2.423 1.378-3.241zm3.018-.066h-.013l-.069.002a.508.508 0 0 0-.254.097.496.496 0 0 0-.104.679.498.498 0 0 0 .326.199l.045.005c.091.003.181.003.272.012A2.45 2.45 0 0 1 12.616 9.4c.024.061.043.125.069.185a.494.494 0 0 0 .45.287h.008a.496.496 0 0 0 .35-.158.482.482 0 0 0 .13-.335.639.639 0 0 0-.048-.219 3.379 3.379 0 0 0-.36-.723 3.438 3.438 0 0 0-2.791-1.543l-.028-.001z"/></svg>
