<svg xmlns="http://www.w3.org/2000/svg" viewBox="0 0 110 110"><title>html</title><g id="Layer_2" data-name="Layer 2"><g id="Layer_1-2" data-name="Layer 1"><path d="M39.61,37.36a2.92,2.92,0,0,0-2.06-.88,2.81,2.81,0,0,0-2.08.85L22.65,50.05a3,3,0,0,0,0,4.19L35.47,67a2.92,2.92,0,0,0,2.05.84,2.87,2.87,0,0,0,2.09-.88,3,3,0,0,0,0-4.15L28.87,52.15,39.58,41.52A3,3,0,0,0,39.61,37.36Z" fill="#636363" /><path d="M69.85,37.33a3,3,0,0,0-2.08-.85,2.92,2.92,0,0,0-2.06.88,3,3,0,0,0,0,4.16l10.7,10.63L65.75,62.78a3,3,0,0,0,0,4.15,2.92,2.92,0,0,0,4.14,0L82.67,54.24a3,3,0,0,0,0-4.19Z" fill="#636363" /><path d="M58.27,33.17a2.93,2.93,0,0,0-3.64,2L45.09,67.47a2.94,2.94,0,0,0,2,3.65,2.72,2.72,0,0,0,.84.13,2.93,2.93,0,0,0,2.8-2.11l9.54-32.31A3,3,0,0,0,58.27,33.17Z" fill="#636363" /><path d="M89.15,0H26.33a4,4,0,0,0-3.5,2.09L1.15,24.19a3.6,3.6,0,0,0-.43.52,1.4,1.4,0,0,0-.1.16,5.05,5.05,0,0,0-.25.45l-.09.21a5,5,0,0,0-.17.55l0,.13a3.35,3.35,0,0,0-.07.71S0,27,0,27v64.3c0,7.17,6.8,13,15.15,13h74c8.35,0,15.15-5.84,15.15-13V13C104.3,5.84,97.5,0,89.15,0ZM22.57,13.78V23h-9ZM96.3,91.29c0,2.71-3.28,5-7.15,5h-74C11.27,96.3,8,94,8,91.29V31H26.57a4,4,0,0,0,4-4V8H89.15C93,8,96.3,10.29,96.3,13Z" fill="#636363" /></g></g></svg>
