<svg width="11" height="11" viewBox="0 0 11 11" fill="none" xmlns="http://www.w3.org/2000/svg">
<path d="M11 3.23849V9.81497C11 10.4663 10.4753 10.991 9.82401 10.991H1.17599C0.524671 10.991 0 10.4663 0 9.81497V1.17599C0 0.524671 0.524671 0 1.17599 0H7.75247C8.02385 0 8.39474 0.153783 8.5847 0.34375L10.6472 2.40625C10.8372 2.59622 11 2.96711 11 3.23849ZM7.77056 1.74589L7.68914 1.66447C7.63487 1.6102 7.5625 1.57401 7.48108 1.57401H1.87253C1.7097 1.57401 1.57401 1.7097 1.57401 1.87253V4.42352C1.57401 4.58635 1.7097 4.72204 1.87253 4.72204H7.5625C7.72533 4.72204 7.86102 4.58635 7.86102 4.42352V1.95395C7.85197 1.88158 7.81579 1.79112 7.77056 1.74589ZM7.06497 7.85197C7.06497 6.98355 6.35938 6.27796 5.49095 6.27796C4.62253 6.27796 3.91694 6.98355 3.91694 7.85197C3.91694 8.7204 4.62253 9.42599 5.49095 9.42599C6.35938 9.42599 7.06497 8.7204 7.06497 7.85197Z" fill="white"/>
</svg>
