<svg width="435" height="297" viewBox="0 0 435 297" xmlns="http://www.w3.org/2000/svg" xmlns:xlink="http://www.w3.org/1999/xlink"><title>icon-ei-1</title><defs><rect id="b" x="11" width="314" height="225" rx="3.18"/><path id="c" d="M208 267h-80l8.533-46h62.934z"/><path d="M1.028 69C.46 69 0 68.393 0 67.637V1.363C0 .61.461 0 1.029 0H111.97C112.54 0 113 .607 113 1.363v66.274c0 .753-.46 1.363-1.025 1.363H1.028z" id="a"/><mask id="d" x="0" y="0" width="113" height="69" fill="#fff"><use xlink:href="#a"/></mask></defs><g fill="none" fill-rule="evenodd"><g transform="translate(2)"><use fill="#FFF" xlink:href="#b"/><rect stroke="#256782" stroke-width="4" x="13" y="2" width="310" height="221" rx="3.18"/></g><g transform="translate(2)"><use fill="#FFF" xlink:href="#c"/><path stroke="#256782" stroke-width="4" d="M205.595 265l-7.791-42h-59.608l-7.79 42h75.189z"/></g><path fill="#BDD1D9" opacity=".567" d="M133.1 236.5l2.133-11.5h62.934l2.133 11.5z"/><path d="M15 172h310M116 265h109" stroke="#256782" stroke-width="4" stroke-linecap="round" stroke-linejoin="round"/><g transform="translate(2 163)" stroke="#256782" stroke-linecap="round" stroke-linejoin="round"><rect stroke-width="4" fill="#FFF" x=".09" y=".823" width="88.859" height="119.661" rx="8.338"/><ellipse stroke-width="3.63" cx="44.517" cy="109.656" rx="1.317" ry="1.318"/><path d="M38.02 10.246h12.182M.988 99.333h87.036" stroke-width="3.63"/></g><g transform="translate(100 194)" stroke="#256782" stroke-linecap="round" stroke-linejoin="round" stroke-width="3.63"><rect fill="#FFF" x=".745" y=".834" width="55.992" height="99.639" rx="8.338"/><ellipse cx="28.719" cy="92.12" rx="1.315" ry="1.317"/><path d="M22.252 9.595h12.145M1.315 82.864h54.83"/></g><path d="M34 23.618h268M34 36.5h179M34 62h268M34 75h268M34 88h148M34 101h148M34 114h148M34 127h148M34 140h148M34 153h148M13 187h69M13 196h50" stroke="#256782" stroke-width="4" opacity=".3" stroke-linecap="round"/><g transform="translate(192 86)"><use stroke="#BDD1D9" mask="url(#d)" stroke-width="8" fill="#FFF" stroke-linecap="square" stroke-linejoin="round" stroke-dasharray="8,8,8,8" xlink:href="#a"/><path d="M67.222 41V29c0-1.1-.909-2-2.02-2H47.02c-1.11 0-2.02.9-2.02 2v12c0 1.1.91 2 2.02 2h18.182c1.111 0 2.02-.9 2.02-2zm-14.646-5.5l2.525 3.01L58.636 34l4.546 6H49.04l3.536-4.5z" fill="#BDD1D9"/></g><g fill="#19B159"><path d="M200 94h42.257v5H200z"/><path opacity=".254" d="M242.257 94H297v5h-54.743z"/></g><path d="M56.787 235.637v-10.574c0-.97-.734-1.763-1.63-1.763H40.482c-.896 0-1.63.793-1.63 1.763v10.574c0 .969.734 1.762 1.63 1.762h14.675c.896 0 1.63-.793 1.63-1.762zm-11.82-4.847l2.037 2.653 2.854-3.974 3.668 5.286H42.113l2.853-3.965z" fill="#BDD1D9"/><g fill="#19B159"><path d="M18 216h25.703v4H18z"/><path opacity=".254" d="M43.703 216H77v4H43.703z"/></g><path d="M290.019 188L289 186.48v-73.96l1.02-1.52h109.96l1.02 1.52v73.96l-1.016 1.52H290.019z" stroke="#256782" stroke-width="4" fill="#FFF" stroke-linecap="round" stroke-linejoin="round" stroke-dasharray="1,1,1"/><path d="M366 161.25v-22.5c0-2.063-1.677-3.75-3.727-3.75h-33.546c-2.05 0-3.727 1.688-3.727 3.75v22.5c0 2.063 1.677 3.75 3.727 3.75h33.546c2.05 0 3.727-1.688 3.727-3.75zm-27.06-10l4.686 5.853 6.56-8.77L358.62 160h-26.24l6.56-8.75z" fill="#256782"/><path d="M408.5 225.866l24-14s-3-16-7-22c-1.298-1.947-4.27-12.688-8-15-3.73-2.312-8 2-8 2s-4.285-.488-7 0c-1.02.184-12 3-12 3s-5.793-10.278-9-11c-7.057-1.588-5 3-5 3s-.418 4.608 1 7c.662 1.118 6.93 12.305 14 23 .721 1.091-5.32-2.027-9-2-3.68.027-3.608 3.12-3 4 .302.437-1.224 2.256 1 4 1.09.855 9.4 2.794 16 7 6.6 4.206 12 11 12 11z" fill="#FFF"/><path d="M410.03 179.03a7.856 7.856 0 0 0-.464-.654 7.834 7.834 0 0 0-1.561-1.541c-1.805-1.326-3.71-1.41-5.712-.254-1.163.672-2.055 1.157-2.676 1.458l-.545.315 1.575 2.729 2.813 4.873m-2.813-4.873a7.856 7.856 0 0 0-.464-.655 7.834 7.834 0 0 0-1.562-1.541c-1.805-1.326-3.709-1.41-5.712-.254-1.163.672-2.055 1.158-2.675 1.458l-.546.315 4.389 7.602m-4.387-7.603l-4.693-8.127a7.639 7.639 0 0 0-.458-.659 8.408 8.408 0 0 0-1.522-1.564c-1.631-1.27-3.31-1.479-5.036-.627-1.598 1.068-2.255 2.625-1.971 4.673.095.684.293 1.385.593 2.1.12.287.232.53.338.728l13.993 24.237c-10.091-3.885-13.787-1.637-11.088 6.744 10.616 2.218 20.344 8.268 29.184 18.147l23.612-13.718c-.53-2.972-1.434-6.89-2.716-11.756-1.279-4.866-3.996-11.36-8.15-19.48l-1.897-3.323a6.852 6.852 0 0 0-.545-.794 7.834 7.834 0 0 0-1.561-1.542c-1.805-1.325-3.71-1.41-5.712-.253-1.163.671-2.055 1.157-2.676 1.457l-.583.25 1.23 2.132.047.08 2.556 4.45.593 1.005" stroke="#256782" stroke-width="3" stroke-linecap="round" stroke-linejoin="round"/><path stroke="#BDD1D9" stroke-width="4" d="M13 211h69v40H13z"/><path d="M110 216h38M110 223h25" stroke="#256782" stroke-width="3" opacity=".3" stroke-linecap="round"/><g fill="#BDD1D9"><path d="M135.832 254.976v-8.348c0-.765-.58-1.39-1.287-1.39H122.96c-.708 0-1.287.625-1.287 1.39v8.348c0 .766.579 1.392 1.287 1.392h11.585c.708 0 1.287-.626 1.287-1.392zm-9.332-3.826l1.609 2.094 2.252-3.137 2.896 4.174h-9.01l2.253-3.13z"/></g><g fill="#19B159"><path d="M114 238h13.069v3H114z"/><path opacity=".254" d="M127.069 238H144v3h-16.931z"/></g><path stroke="#BDD1D9" stroke-width="3" d="M109.5 233.5h39v35h-39z"/></g></svg>