<svg viewBox="0 0 20 20" xmlns="http://www.w3.org/2000/svg"><path d="M17.492 3c.517 0 .508-.03.508.552v12.886c0 .592.009.562-.508.562H2.508c-.517 0-.508.03-.508-.562V3.552C2 2.97 1.991 3 2.517 3h14.975zm-2.508 12.013V4.977H5.016v10.036h9.968zM3.12 4.475V5.48h.862V4.475H3.12zm0 2.008v1.003h.862V6.483H3.12zm0 2.007v1.003h.862V8.49H3.12zm0 2.007V11.5h.862v-1.003H3.12zm0 2.007v1.003h.862v-1.003H3.12zm0 2.007v1.004h.862V14.51H3.12zM16.044 4.475V5.48h.862V4.475h-.862zm0 2.008v1.003h.862V6.483h-.862zm0 2.007v1.003h.862V8.49h-.862zm0 2.007V11.5h.862v-1.003h-.862zm0 2.007v1.003h.862v-1.003h-.862zm0 2.007v1.004h.862V14.51h-.862zM7.86 7.162c0-.07.015-.139.045-.2a.38.38 0 01.124-.146.307.307 0 01.342-.006l4.422 2.834a.377.377 0 01.13.147.452.452 0 010 .408.377.377 0 01-.13.147L8.37 13.18a.306.306 0 01-.342-.006.379.379 0 01-.124-.146.453.453 0 01-.045-.199V7.161v.001z"/></svg>

