<svg width="28" height="21" viewBox="0 0 28 21" fill="none" xmlns="http://www.w3.org/2000/svg">
<g>
<path d="M25.1062 21H2.58661C1.16397 21 0 19.836 0 18.4134V2.58661C0 1.16397 1.16397 0 2.58661 0H25.1062C26.5289 0 27.6928 1.16397 27.6928 2.58661V18.4134C27.6928 19.8522 26.545 21 25.1062 21ZM2.58661 1.2933C1.87529 1.2933 1.2933 1.87529 1.2933 2.58661V18.4134C1.2933 19.1247 1.87529 19.7067 2.58661 19.7067H25.1062C25.8176 19.7067 26.3995 19.1247 26.3995 18.4134V2.58661C26.3995 1.87529 25.8176 1.2933 25.1062 1.2933H2.58661Z" fill="#636363"/>
<path d="M11.2033 14.6789C11.0901 14.6789 10.977 14.6466 10.88 14.5981C10.686 14.4849 10.5566 14.2747 10.5566 14.0323V6.96759C10.5566 6.74126 10.686 6.51493 10.88 6.40177C11.074 6.2886 11.3326 6.2886 11.5266 6.40177L17.6536 9.94218C17.8476 10.0553 17.977 10.2655 17.977 10.508C17.977 10.7505 17.8476 10.9607 17.6536 11.0738L11.5266 14.5981C11.4296 14.6627 11.3165 14.6789 11.2033 14.6789ZM11.8499 8.08306V12.9168L16.037 10.508L11.8499 8.08306Z" fill="#636363"/>
</g>
<defs>
<clipPath id="clip0">
<rect width="27.6928" style="height: 30px;width: 30px;" height="21" fill="white"/>
</clipPath>
</defs>
</svg>
