<svg width="20" height="20" viewBox="0 0 20 20" fill="none" xmlns="http://www.w3.org/2000/svg">
<path d="M8.86989 8.10452C8.86989 8.91243 8.74102 9.67891 8.48327 10.404C8.22553 11.129 7.86865 11.8023 7.41264 12.4237C6.97646 13.0452 6.46097 13.6149 5.86617 14.1328C5.44391 14.5131 5.0056 14.8599 4.55125 15.1732C4.26021 15.3739 3.87127 15.3374 3.60846 15.1009C3.26834 14.7949 3.25852 14.2656 3.53183 13.8986C3.68979 13.6866 3.84337 13.4539 3.99257 13.2006C4.30979 12.662 4.51797 12.1337 4.6171 11.6158C3.86369 11.3879 3.23916 10.9633 2.74349 10.3418C2.24783 9.69962 2 8.95386 2 8.10452C2 7.60734 2.08922 7.14124 2.26766 6.70621C2.4461 6.27119 2.68401 5.8983 2.98141 5.58757C3.29864 5.25612 3.66543 4.99718 4.08178 4.81073C4.49814 4.60358 4.94424 4.5 5.42007 4.5C5.89591 4.5 6.34201 4.60358 6.75836 4.81073C7.17472 4.99718 7.5316 5.25612 7.829 5.58757C8.14622 5.8983 8.39405 6.27119 8.57249 6.70621C8.77076 7.14124 8.86989 7.60734 8.86989 8.10452ZM18 8.10452C18 8.91243 17.8711 9.67891 17.6134 10.404C17.3556 11.129 17.0087 11.8023 16.5725 12.4237C16.1363 13.0452 15.6208 13.6149 15.026 14.1328C14.6036 14.5133 14.1651 14.8602 13.7106 15.1736C13.419 15.3746 13.0299 15.3407 12.7634 15.1074C12.4113 14.7992 12.3973 14.2565 12.6756 13.8803C12.8287 13.6732 12.9778 13.4466 13.1227 13.2006C13.4399 12.662 13.6481 12.1337 13.7472 11.6158C12.9938 11.3879 12.3693 10.9633 11.8736 10.3418C11.3779 9.69962 11.1301 8.95386 11.1301 8.10452C11.1301 7.60734 11.2193 7.14124 11.3978 6.70621C11.5762 6.27119 11.8141 5.8983 12.1115 5.58757C12.4287 5.25612 12.7955 4.99718 13.2119 4.81073C13.6283 4.60358 14.0743 4.5 14.5502 4.5C15.026 4.5 15.4721 4.60358 15.8885 4.81073C16.3048 4.99718 16.6617 5.25612 16.9591 5.58757C17.2763 5.8983 17.5242 6.27119 17.7026 6.70621C17.9009 7.14124 18 7.60734 18 8.10452Z"/>
</svg>
