<svg width="11" height="8" viewBox="0 0 11 8" fill="none" xmlns="http://www.w3.org/2000/svg">
<path fill-rule="evenodd" clip-rule="evenodd" d="M5.2041 2.42847V2.79077C5.2041 2.94572 5.19954 3.09611 5.19043 3.24194C5.18131 3.38778 5.16309 3.5245 5.13574 3.6521C5.03548 4.29012 4.82129 4.87345 4.49316 5.4021C4.16504 5.93075 3.764 6.4047 3.29004 6.82398C3.0166 7.07007 2.72038 7.28882 2.40137 7.48023C2.08235 7.67163 1.74056 7.83569 1.37598 7.97241C1.35775 7.97241 1.33724 7.97469 1.31445 7.97925C1.29167 7.98381 1.27116 7.98609 1.25293 7.98609C1.13444 7.98609 1.0319 7.94279 0.945312 7.8562C0.858723 7.76961 0.81543 7.66708 0.81543 7.54859C0.81543 7.44833 0.845052 7.36174 0.904297 7.28882C0.963542 7.2159 1.04329 7.16122 1.14355 7.12476C1.75423 6.89689 2.29655 6.55966 2.77051 6.11304C3.24447 5.66642 3.61816 5.13778 3.8916 4.5271C3.73665 4.60002 3.57487 4.65698 3.40625 4.698C3.23763 4.73902 3.06218 4.75952 2.87988 4.75952C2.23274 4.75952 1.6836 4.53394 1.23242 4.08276C0.781248 3.63159 0.555664 3.08244 0.555664 2.4353C0.555664 1.79728 0.781248 1.25041 1.23242 0.794678C1.6836 0.338946 2.22819 0.111084 2.86621 0.111084C3.51335 0.111084 4.05566 0.338946 4.49316 0.794678C4.93067 1.25041 5.16764 1.79728 5.2041 2.4353V2.42847ZM10.9736 2.4353V2.42163C10.9736 2.48543 10.9759 2.54696 10.9805 2.6062C10.985 2.66545 10.9873 2.72697 10.9873 2.79077C10.9873 2.94572 10.9805 3.09611 10.9668 3.24194C10.9531 3.38778 10.9372 3.5245 10.9189 3.6521C10.8096 4.29012 10.5908 4.87345 10.2627 5.4021C9.93457 5.93075 9.53353 6.4047 9.05957 6.82398C8.79525 7.07007 8.50358 7.28882 8.18457 7.48023C7.86556 7.67163 7.51921 7.83569 7.14551 7.97241C7.12728 7.97241 7.10905 7.97469 7.09082 7.97925C7.07259 7.98381 7.0498 7.98609 7.02246 7.98609C6.90397 7.98609 6.80143 7.94279 6.71484 7.8562C6.62825 7.76961 6.58496 7.66708 6.58496 7.54859C6.58496 7.44833 6.61458 7.36174 6.67383 7.28882C6.73307 7.2159 6.81738 7.16122 6.92676 7.12476C7.52832 6.89689 8.06608 6.55966 8.54004 6.11304C9.014 5.66642 9.3877 5.13778 9.66114 4.5271C9.50619 4.60002 9.3444 4.65698 9.17578 4.698C9.00716 4.73902 8.83171 4.75952 8.64942 4.75952C8.01139 4.75952 7.46452 4.53394 7.00879 4.08276C6.55306 3.63159 6.32519 3.08244 6.32519 2.4353C6.32519 1.79728 6.55078 1.25041 7.00195 0.794678C7.45313 0.338946 8.00228 0.111084 8.64942 0.111084C9.28744 0.111084 9.8252 0.338946 10.2627 0.794678C10.7002 1.25041 10.9372 1.79728 10.9736 2.4353Z"/>
</svg>
