<svg xmlns="http://www.w3.org/2000/svg" version="1.1" viewBox="0, 0, 400,357.29537366548044" height="20" width="20">
    <path fill-rule="evenodd" stroke="none" d="M229.669 12.134 C 228.097 12.270,225.925 12.650,224.844 12.979 C 223.762 13.307,221.147 14.054,219.033 14.638 C 215.116 15.720,204.811 19.482,199.643 21.717 C 195.312 23.590,195.270 23.597,185.702 23.942 C 177.592 24.234,172.206 24.816,169.258 25.717 C 168.668 25.897,167.462 26.152,166.577 26.284 C 165.693 26.416,163.483 26.904,161.668 27.370 C 149.169 30.575,145.948 32.187,138.195 39.117 C 135.871 41.195,133.846 42.895,133.696 42.895 C 133.546 42.895,132.025 44.014,130.316 45.381 C 126.071 48.777,124.916 50.284,120.720 57.909 C 120.125 58.990,118.961 61.081,118.132 62.556 C 115.528 67.193,114.470 69.484,112.830 74.039 C 111.012 79.092,108.311 87.971,108.311 88.898 C 108.311 89.241,107.996 90.813,107.611 92.392 C 104.891 103.560,103.286 131.182,104.361 148.347 C 105.580 167.824,105.373 170.408,102.172 175.576 C 99.788 179.424,96.746 187.125,96.052 191.063 C 94.074 202.296,94.192 198.524,94.192 250.402 C 94.191 303.263,94.007 298.556,96.400 306.881 C 98.506 314.208,106.590 325.615,113.392 330.857 C 121.455 337.071,141.868 341.011,152.279 338.363 C 166.091 334.850,167.933 334.037,173.369 329.051 C 177.361 325.389,181.029 323.355,185.015 322.593 C 186.458 322.317,188.329 321.929,189.172 321.732 C 190.883 321.332,196.009 320.867,207.084 320.106 C 215.785 319.508,221.351 318.202,224.457 316.029 C 227.234 314.085,232.530 311.705,239.742 309.159 C 249.310 305.781,249.328 305.773,252.547 303.143 C 253.923 302.018,256.015 300.388,257.196 299.521 C 275.788 285.866,288.221 270.553,294.603 253.450 C 300.761 236.950,300.710 207.843,294.495 191.063 C 291.311 182.466,291.233 182.277,288.210 175.871 C 282.432 163.630,281.852 161.777,281.882 155.675 C 281.897 152.613,282.100 150.296,282.478 148.883 C 282.792 147.703,283.157 145.853,283.287 144.772 C 283.418 143.691,283.665 142.243,283.838 141.555 C 284.714 138.052,285.625 129.351,285.952 121.358 C 286.152 116.443,286.589 105.987,286.921 98.123 C 287.729 79.003,287.742 63.318,286.953 59.696 C 286.632 58.222,286.266 56.291,286.139 55.407 C 285.746 52.659,280.731 37.726,279.168 34.646 C 278.009 32.365,277.678 32.008,272.744 27.705 C 270.286 25.563,267.069 22.646,265.594 21.224 C 262.839 18.567,261.749 17.951,256.479 16.075 C 247.576 12.905,237.640 11.445,229.669 12.134 M238.450 51.406 C 249.398 54.442,250.334 59.225,249.518 107.954 C 248.949 141.904,248.663 143.870,243.515 149.263 C 234.326 158.889,218.845 148.019,214.211 128.686 C 213.539 125.883,213.053 123.606,211.981 118.247 C 211.519 115.933,209.534 112.645,208.084 111.788 C 206.243 110.701,203.712 108.203,201.716 105.503 C 196.454 98.385,196.387 98.317,193.208 96.905 C 184.697 93.123,178.230 94.515,174.964 100.831 C 171.868 106.818,171.768 140.468,174.817 150.419 C 177.168 158.095,179.737 159.366,194.459 160.137 C 202.017 160.533,202.861 160.621,207.144 161.456 C 210.459 162.101,211.931 162.993,215.034 166.233 C 220.110 171.534,223.154 173.153,230.793 174.618 C 235.917 175.600,238.270 177.214,246.954 185.700 C 258.350 196.835,258.944 198.269,259.941 217.046 C 260.671 230.798,259.464 245.668,257.244 250.278 C 253.010 259.069,241.491 270.167,230.742 275.812 C 215.153 283.999,192.974 284.991,173.209 278.388 C 166.900 276.280,165.862 276.940,162.130 285.433 C 158.251 294.263,156.813 296.059,151.687 298.481 C 145.669 301.324,139.706 301.192,136.772 298.151 C 130.725 291.885,128.341 273.769,130.440 250.045 C 131.775 234.949,131.854 233.654,132.088 223.056 C 132.479 205.363,132.815 203.633,136.652 199.588 C 140.566 195.461,143.516 194.830,148.895 196.966 C 158.741 200.878,160.977 204.358,162.291 217.815 C 163.236 227.495,170.237 236.568,185.545 247.952 C 195.349 255.242,206.294 254.553,217.873 245.915 C 230.973 236.143,233.199 228.867,227.712 213.762 C 225.949 208.910,223.457 206.447,219.011 205.162 C 205.347 201.215,205.099 201.102,200.453 196.714 C 195.433 191.972,193.954 191.613,174.263 190.353 C 166.097 189.831,162.004 188.603,159.071 185.796 C 154.293 181.224,148.036 174.143,146.825 171.939 C 143.294 165.512,142.402 144.139,144.065 105.809 C 144.946 85.506,145.438 84.112,155.881 72.329 C 162.146 65.260,164.053 64.009,172.118 61.675 C 179.052 59.667,184.568 59.275,190.349 60.378 C 194.063 61.086,194.314 61.171,202.453 64.473 C 214.998 69.563,217.605 68.802,224.853 57.928 C 227.125 54.519,229.780 52.365,232.811 51.470 C 235.636 50.636,235.671 50.635,238.450 51.406 "/>
</svg>