<svg viewBox="0 0 20 20" xmlns="http://www.w3.org/2000/svg"><path d="m12.87 13.786 1.532-1.286 3.857 4.596a1 1 0 1 1-1.532 1.286l-3.857-4.596z"/><path d="M16.004 8.5a6.5 6.5 0 0 1-9.216 5.905c-1.154-.53-.863-1.415-.663-1.615.194-.194.564-.592 1.635-.141a4.5 4.5 0 0 0 5.89-5.904l-.104-.227 1.332-1.331c.045-.046.196-.041.224.007a6.47 6.47 0 0 1 .902 3.306zm-3.4-5.715c.562.305.742 1.106.354 1.494-.388.388-.995.414-1.476.178a4.5 4.5 0 0 0-6.086 5.882l.114.236-1.348 1.349c-.038.037-.17.022-.198-.023a6.5 6.5 0 0 1 5.54-9.9 6.469 6.469 0 0 1 3.1.784z"/><path d="M4.001 11.93.948 8.877a.2.2 0 0 1 .141-.341h6.106a.2.2 0 0 1 .141.341L4.283 11.93a.2.2 0 0 1-.282 0zm11.083-6.789 3.053 3.053a.2.2 0 0 1-.14.342H11.89a.2.2 0 0 1-.14-.342l3.052-3.053a.2.2 0 0 1 .282 0z"/></svg>