<svg width="20" height="20" viewBox="0 0 20 20" xmlns="http://www.w3.org/2000/svg"><g fill="none" fill-rule="evenodd"><path d="M3.596 15.196l.707.707-.53.53-1.379-.035 1.202-1.202zm8.927-10.872l2.652 2.652L8.9 14.842 4.657 10.6l7.866-6.275z" class="ck-icon__fill"/><path d="M8.542 15.906a2.15 2.15 0 0 0-2.82 0l-.004-.003-.708.707-.353-.354-.746.746-2.79-.039 2.122-2.12-.354-.354.6-.6.001-.001v-.001l.106-.106-.003-.003a2.15 2.15 0 0 0 0-2.821l.003-.004-.353-.354 10.26-8.274a1 1 0 0 1 1.335.071l2.265 2.265a1 1 0 0 1 .071 1.335L8.9 16.256l-.353-.353-.004.003zm-4.946-.71l-1.202 1.202 1.379.035.53-.53-.707-.707zm8.927-10.872l-7.866 6.275 4.242 4.243 6.276-7.866-2.652-2.652zm1.482-1.347l-.792.622L15.9 6.286l.622-.792-2.517-2.517zM5.03 18.998h13v-1h-12l-.464.463-.281.282z" fill="#333"/></g></svg>
