<svg viewBox="0 0 20 20" xmlns="http://www.w3.org/2000/svg"><path class="ck-icon__fill" d="M10.126 2.268L2.002 13.874l1.895 1.852 2.521 1.402L14.47 5.481l-1.543-2.568-2.801-.645z"/><path d="M4.5 18.088l-2.645-1.852-.04-2.95-.006-.005.006-.008v-.025l.011.008L8.73 2.97c.165-.233.356-.417.567-.557l-1.212.308L4.604 7.9l-.83-.558 3.694-5.495 2.708-.69 1.65 1.145.046.018.85-1.216 2.16 1.512-.856 1.222c.828.967 1.144 2.141.432 3.158L7.55 17.286l.006.005-3.055.797H4.5zm-.634.166l-1.976.516-.026-1.918 2.002 1.402zM9.968 3.817l-.006-.004-6.123 9.184 3.277 2.294 6.108-9.162.005.003c.317-.452-.16-1.332-1.064-1.966-.891-.624-1.865-.776-2.197-.349zM8.245 18.5L9.59 17h9.406v1.5H8.245z"/></svg>