<svg width="20" height="20" viewBox="0 0 20 20" xmlns="http://www.w3.org/2000/svg"><g fill="none" fill-rule="evenodd"><path d="M4.062 15.488l.708.707-.682.983-1.336.328.27-1.393 1.04-.625zM15.83 3.014l1.415 1.414L6.559 15.112l-1.414-1.414L15.829 3.014z" class="ck-icon__fill"/><path d="M13.88 3.549l-.758.017-4.557 4.262-.683-.73 4.836-4.523 2.795-.063.395.423.688-.688 1.414 1.414-.707.707a1 1 0 0 1 0 1.414L7.857 15.23l-.56.56c-.444.044-.88.225-1.24.54l-.004-.003-.725.725-.354-.354-.725.726-1.792.383.378-1.798.725-.725-.354-.353.616-.616.002-.002.108-.108-.004-.003c.315-.361.496-.797.541-1.241l.56-.56L13.88 3.55zm1.87.68l-.568-.568-9.475 9.475 1.414 1.415 9.475-9.476-.451-.451-.014.012-.38-.406zM3.914 15.638l-.726.725-.225.935.932-.228.726-.725-.707-.707zM6.05 19.01h13v-1h-12l-.464.464-.281.281z" fill="#333"/></g></svg>
