<svg width="20" height="20" viewBox="0 0 20 20" xmlns="http://www.w3.org/2000/svg"><g fill="#222" fill-rule="evenodd"><path d="M14.2 10.956l1.227-1.227a3.995 3.995 0 0 0-.002-5.654 4 4 0 0 0-5.654-.002L7.698 6.145a3.995 3.995 0 0 0 .003 5.654c.39.39.84.682 1.32.878l-.305-.307.638-.638a2.99 2.99 0 0 1-.946-.64 2.995 2.995 0 0 1-.003-4.24l2.073-2.072a3 3 0 0 1 4.242 4.242l-1.226 1.227.707.707z"/><path d="M10.166 7.405c.41.192.795.457 1.133.796a3.995 3.995 0 0 1 .003 5.654l-2.073 2.072a4 4 0 0 1-5.654-.002 3.995 3.995 0 0 1-.002-5.654l1.362-1.363.707.707-1.362 1.363a3 3 0 0 0 4.243 4.243l2.072-2.073a2.995 2.995 0 0 0-.003-4.24 2.987 2.987 0 0 0-1.196-.733l.77-.77z"/></g></svg>