<svg width="11" height="11" viewBox="0 0 11 11" fill="none" xmlns="http://www.w3.org/2000/svg">
<path fill-rule="evenodd" clip-rule="evenodd" d="M4.58856 7.48724C4.39715 7.48724 4.23309 7.41888 4.09637 7.28216C3.95965 7.14544 3.8913 6.98138 3.8913 6.78998C3.8913 6.68972 3.90952 6.59857 3.94598 6.51654C3.98244 6.43451 4.03257 6.36159 4.09637 6.29779L6.57098 3.82318C6.63478 3.75938 6.70998 3.70925 6.79657 3.67279C6.88316 3.63633 6.97202 3.6181 7.06317 3.6181C7.26369 3.6181 7.43231 3.68646 7.56903 3.82318C7.70575 3.9599 7.77411 4.12396 7.77411 4.31537C7.77411 4.41563 7.75588 4.50677 7.71942 4.58881C7.68296 4.67084 7.63283 4.74375 7.56903 4.80756L5.09442 7.28216C5.03062 7.34597 4.95542 7.3961 4.86883 7.43255C4.78225 7.46901 4.68882 7.48724 4.58856 7.48724ZM3.37176 10.8369C2.97983 10.8369 2.61526 10.7639 2.27801 10.6181C1.93166 10.4632 1.63088 10.2581 1.37567 10.0029C1.12046 9.74766 0.919943 9.45144 0.774109 9.11419C0.628275 8.76784 0.555359 8.40326 0.555359 8.02044C0.555359 7.62852 0.628275 7.26166 0.774109 6.91986C0.919943 6.57806 1.12046 6.27956 1.37567 6.02435L1.93622 5.46381C2.18231 5.21771 2.46714 5.02175 2.79071 4.87592C3.11428 4.73008 3.46291 4.64805 3.83661 4.62982H3.85028C3.96877 4.62982 4.07131 4.67312 4.1579 4.7597C4.24449 4.84629 4.28778 4.94883 4.28778 5.06732C4.28778 5.18581 4.24676 5.28835 4.16473 5.37494C4.0827 5.46153 3.98244 5.50482 3.86395 5.50482C3.60874 5.51394 3.36949 5.56862 3.14618 5.66888C2.92287 5.76914 2.72463 5.90586 2.55145 6.07904L1.99091 6.63959C1.80861 6.81276 1.66506 7.02012 1.56024 7.26166C1.45542 7.50319 1.40301 7.76068 1.40301 8.03412C1.40301 8.57188 1.59214 9.02988 1.9704 9.40814C2.34865 9.7864 2.80666 9.97552 3.34442 9.97552C3.61786 9.97552 3.87534 9.92311 4.11688 9.8183C4.35842 9.71348 4.56577 9.56992 4.73895 9.38763L5.2995 8.82709C5.47268 8.66302 5.60939 8.46706 5.70965 8.23919C5.80991 8.01133 5.8646 7.76979 5.87372 7.51459C5.87372 7.3961 5.91701 7.29584 6.0036 7.2138C6.09019 7.13177 6.19273 7.09076 6.31122 7.09076C6.42971 7.09076 6.53224 7.13405 6.61883 7.22064C6.70542 7.30723 6.74872 7.40977 6.74872 7.52826V7.54193C6.7396 7.91563 6.65985 8.26426 6.50946 8.58783C6.35907 8.9114 6.16538 9.19622 5.9284 9.44232L5.36786 10.0029C5.11265 10.2581 4.81415 10.4609 4.47235 10.6113C4.13055 10.7617 3.76369 10.8369 3.37176 10.8369ZM7.55536 6.72162C7.43687 6.72162 7.33433 6.67832 7.24774 6.59173C7.16115 6.50514 7.11786 6.40261 7.11786 6.28412C7.11786 6.16563 7.15887 6.06309 7.2409 5.9765C7.32294 5.88991 7.42319 5.84662 7.54169 5.84662C7.80601 5.8375 8.04982 5.78281 8.27313 5.68255C8.49644 5.58229 8.69012 5.44558 8.85418 5.2724L9.41473 4.71185C9.59702 4.53867 9.7383 4.3336 9.83856 4.09662C9.93882 3.85964 9.98895 3.60899 9.98895 3.34466C9.98895 2.8069 9.79982 2.34662 9.42157 1.96381C9.04331 1.58099 8.58531 1.38959 8.04754 1.38959C7.77411 1.38959 7.52118 1.442 7.28876 1.54681C7.05633 1.65163 6.84898 1.79063 6.66669 1.96381L6.10614 2.52435C5.94208 2.69753 5.80992 2.89577 5.70965 3.11908C5.60939 3.34239 5.55471 3.58164 5.54559 3.83685C5.53648 3.95534 5.49091 4.0556 5.40887 4.13763C5.32684 4.21966 5.22658 4.26068 5.10809 4.26068C4.9896 4.26068 4.88706 4.21739 4.80048 4.1308C4.71389 4.04421 4.67059 3.94167 4.67059 3.82318V3.80951C4.67971 3.43581 4.75718 3.08718 4.90301 2.76361C5.04885 2.44004 5.24481 2.15521 5.4909 1.90912L6.05145 1.34857C6.30666 1.10248 6.60288 0.908794 6.94012 0.767517C7.27736 0.62624 7.63283 0.555603 8.00653 0.555603C8.39846 0.555603 8.76759 0.628519 9.11395 0.774353C9.45119 0.920187 9.74741 1.12071 10.0026 1.37592C10.2578 1.63112 10.4583 1.9319 10.6042 2.27826C10.7591 2.6155 10.8366 2.98008 10.8366 3.37201C10.8366 3.75482 10.7637 4.11484 10.6179 4.45209C10.472 4.78933 10.2806 5.08555 10.0436 5.34076L9.48309 5.88763C9.237 6.13373 8.94989 6.32969 8.62176 6.47552C8.29364 6.62136 7.94729 6.70339 7.5827 6.72162H7.55536Z"/>
</svg>
