<svg width="20" height="20" viewBox="0 0 20 20" fill="none" xmlns="http://www.w3.org/2000/svg">
<path d="M12.2521 4.74517C13.0813 3.91598 14.4256 3.91598 15.2548 4.74517C16.084 5.57436 16.084 6.91874 15.2548 7.74794L13.0028 10C12.5882 10.4146 12.5882 11.0868 13.0028 11.5014C13.4174 11.916 14.0895 11.916 14.5041 11.5014L16.7562 9.24932C18.4146 7.59094 18.4146 4.90217 16.7562 3.24379C15.0978 1.5854 12.4091 1.5854 10.7507 3.24379L8.49861 5.49586C8.08401 5.91046 8.08401 6.58265 8.49861 6.99724C8.9132 7.41184 9.5854 7.41184 9.99999 6.99724L12.2521 4.74517Z"/>
<path d="M4.74517 12.2521C3.91598 13.0813 3.91598 14.4256 4.74517 15.2548C5.57436 16.084 6.91874 16.084 7.74794 15.2548L10 13.0028C10.4146 12.5882 11.0868 12.5882 11.5014 13.0028C11.916 13.4174 11.916 14.0895 11.5014 14.5041L9.24932 16.7562C7.59094 18.4146 4.90217 18.4146 3.24379 16.7562C1.5854 15.0978 1.5854 12.4091 3.24379 10.7507L5.49586 8.49861C5.91046 8.08401 6.58265 8.08401 6.99724 8.49861C7.41184 8.9132 7.41184 9.5854 6.99724 9.99999L4.74517 12.2521Z"/>
<path d="M6.99725 11.5014C6.58265 11.916 6.58265 12.5882 6.99725 13.0028C7.41184 13.4174 8.08404 13.4174 8.49863 13.0028L13.0028 8.49861C13.4174 8.08401 13.4174 7.41182 13.0028 6.99722C12.5882 6.58263 11.916 6.58263 11.5014 6.99722L6.99725 11.5014Z"/>
</svg>
