<svg width="20" height="20" viewBox="0 0 20 20" xmlns="http://www.w3.org/2000/svg"><path d="M10.423 15.856a4.501 4.501 0 0 1-6.279-6.279.498.498 0 0 1 .126-.21l.707-.708a.5.5 0 0 1 .707.707l-.353.354a3.5 3.5 0 0 0 4.95 4.95l.353-.354a.5.5 0 1 1 .707.707l-.707.707a.498.498 0 0 1-.211.126zm4.454-4.369l-.708.708a.5.5 0 1 1-.707-.708l.354-.353-.03-.03c.123-.084.25-.19.383-.324a3.5 3.5 0 0 0-4.95-4.95c-.132.134-.24.261-.322.385l-.03-.03-.354.353a.5.5 0 0 1-.708-.707l.708-.708a4.5 4.5 0 0 1 6.364 6.364zM11.73 8.341a.5.5 0 0 1 0 .707l-3.536 3.535a.5.5 0 1 1-.707-.707l3.536-3.535a.5.5 0 0 1 .707 0z" fill="#000" fill-rule="evenodd"/></svg>