<svg width="20" height="20" viewBox="0 0 20 20" xmlns="http://www.w3.org/2000/svg"><g fill="#000" fill-rule="evenodd"><path d="M10.177 14.42l.884-.884a.75.75 0 1 1 1.06 1.06l-1.06 1.06A4.75 4.75 0 1 1 4.343 8.94l1.06-1.06a.75.75 0 1 1 1.061 1.06l-.883.884.013.013a3.25 3.25 0 1 0 4.57 4.57l.013.013zm5.48-3.36l-1.06 1.061a.75.75 0 1 1-1.061-1.06l.883-.884-.013-.013a3.25 3.25 0 1 0-4.57-4.57l-.013-.013-.884.883a.75.75 0 0 1-1.06-1.06l1.06-1.06a4.75 4.75 0 0 1 6.718 6.717zm-3.182-3.535a.75.75 0 0 1 0 1.06l-3.89 3.89a.75.75 0 1 1-1.06-1.06l3.89-3.89a.75.75 0 0 1 1.06 0zM15.883 17.65l-1.58 1.327a.75.75 0 0 1-.964-1.15l1.48-1.241-1.367-1.366a.75.75 0 0 1 1.061-1.06l1.459 1.458 1.58-1.326a.75.75 0 1 1 .964 1.15l-1.48 1.24 1.366 1.367a.75.75 0 0 1-1.06 1.06l-1.46-1.458z"/></g></svg>