<svg viewBox="0 0 20 20" xmlns="http://www.w3.org/2000/svg"><path d="M11.077 15l.991-1.416a.75.75 0 111.229.86l-1.148 1.64a.748.748 0 01-.217.206 5.251 5.251 0 01-8.503-5.955.741.741 0 01.12-.274l1.147-1.639a.75.75 0 111.228.86L4.933 10.7l.006.003a3.75 3.75 0 006.132 4.294l.006.004zm5.494-5.335a.748.748 0 01-.12.274l-1.147 1.639a.75.75 0 11-1.228-.86l.86-1.23a3.75 3.75 0 00-6.144-4.301l-.86 1.229a.75.75 0 01-1.229-.86l1.148-1.64a.748.748 0 01.217-.206 5.251 5.251 0 018.503 5.955zm-4.563-2.532a.75.75 0 01.184 1.045l-3.155 4.505a.75.75 0 11-1.229-.86l3.155-4.506a.75.75 0 011.045-.184zm4.919 10.562l-1.414 1.414a.75.75 0 11-1.06-1.06l1.414-1.415-1.415-1.414a.75.75 0 011.061-1.06l1.414 1.414 1.414-1.415a.75.75 0 011.061 1.061l-1.414 1.414 1.414 1.415a.75.75 0 01-1.06 1.06l-1.415-1.414z"/></svg>