<svg width="20" height="20" viewBox="0 0 20 20" xmlns="http://www.w3.org/2000/svg"><g fill="#222" fill-rule="evenodd"><path d="M14.2 10.956l1.227-1.227a3.995 3.995 0 0 0-.002-5.654 4 4 0 0 0-5.654-.002L7.698 6.145a3.995 3.995 0 0 0 .003 5.654c.39.39.84.682 1.32.878l-.305-.307.638-.638a2.99 2.99 0 0 1-.946-.64 2.995 2.995 0 0 1-.003-4.24l2.073-2.072a3 3 0 0 1 4.242 4.242l-1.226 1.227.707.707z"/><path d="M14.906 16.092l2.557-2.557-.722-.721-2.556 2.556-2.345-2.345-.722.721 2.345 2.346-2.556 2.556.721.722 2.557-2.557 2.768 2.768.721-.722-2.768-2.767zm-2.513-3.999A4.067 4.067 0 0 0 10.148 7.5l-.794.794c.448.142.869.39 1.223.745a3.054 3.054 0 0 1 .758 3.055h1.058zm-2.204 3.104l-1.049 1.05c-1.609 1.608-4.208 1.62-5.8.028-1.595-1.595-1.584-4.188.028-5.8l1.406-1.406.721.722-1.405 1.405c-1.21 1.21-1.216 3.154-.02 4.35 1.192 1.192 3.142 1.186 4.349-.021l1.77-1.771v1.443z"/></g></svg>