<svg aria-hidden="true" focusable="false" data-prefix="far" data-icon="layer-group" class="svg-inline--fa fa-layer-group fa-w-16" role="img" xmlns="http://www.w3.org/2000/svg" viewBox="0 0 512 512"><path fill="currentColor" d="M512 256.01c0-12.86-7.53-24.42-19.12-29.44l-79.69-34.58 79.66-34.57c11.62-5.03 19.16-16.59 19.16-29.44s-7.53-24.41-19.12-29.42L274.66 3.89c-11.84-5.17-25.44-5.19-37.28-.02L19.16 98.55C7.53 103.58 0 115.14 0 127.99s7.53 24.41 19.12 29.42l79.7 34.58-79.67 34.57C7.53 231.58 0 243.15 0 256.01c0 12.84 7.53 24.41 19.12 29.42L98.81 320l-79.65 34.56C7.53 359.59 0 371.15 0 384.01c0 12.84 7.53 24.41 19.12 29.42l218.28 94.69a46.488 46.488 0 0 0 18.59 3.88c6.34-.02 12.69-1.3 18.59-3.86l218.25-94.69c11.62-5.03 19.16-16.59 19.16-29.44 0-12.86-7.53-24.42-19.12-29.44L413.19 320l79.65-34.56c11.63-5.03 19.16-16.59 19.16-29.43zM255.47 47.89l.03.02h-.06l.03-.02zm.53.23l184.16 79.89-183.63 80.09-184.62-80.11L256 48.12zm184.19 335.92l-183.66 80.07L71.91 384l87.21-37.84 78.29 33.96A46.488 46.488 0 0 0 256 384c6.34-.02 12.69-1.3 18.59-3.86l78.29-33.97 87.31 37.87zM256.53 336.1L71.91 255.99l87.22-37.84 78.28 33.96a46.488 46.488 0 0 0 18.59 3.88c6.34-.02 12.69-1.3 18.59-3.86l78.29-33.97 87.31 37.88-183.66 80.06z"></path></svg>
