<svg xmlns="http://www.w3.org/2000/svg" viewBox="0 0 512 512"><path d="M425 182c-3.027 0-6.031 .1758-9 .5195V170C416 126.4 372.8 96 333.1 96h-4.519c.3457-2.969 .5193-5.973 .5193-9c0-48.79-43.92-87-100-87c-56.07 0-100 38.21-100 87c0 3.027 .1761 6.031 .5218 9h-56.52C33.2 96 0 129.2 0 170v66.21C0 253.8 6.77 269.9 17.85 282C6.77 294.1 0 310.2 0 327.8V438C0 478.8 33.2 512 73.1 512h110.2c17.63 0 33.72-6.77 45.79-17.85C242.1 505.2 258.2 512 275.8 512h58.21C372.8 512 416 481.6 416 438v-56.52c2.969 .3438 5.973 .5195 9 .5195C473.8 382 512 338.1 512 282S473.8 182 425 182zM425 334c-26.35 0-25.77-26-45.21-26C368.9 308 368 316.9 368 327.8V438c0 14.36-19.64 26-34 26h-58.21C264.9 464 256 455.1 256 444.2c0-19.25 25.1-18.88 25.1-45.21c0-21.54-23.28-39-52-39c-28.72 0-52 17.46-52 39c0 26.35 26 25.77 26 45.21C204 455.1 195.1 464 184.2 464H73.1C59.64 464 48 452.4 48 438v-110.2C48 316.9 56.86 308 67.79 308c19.25 0 18.88 26 45.21 26c21.54 0 39-23.28 39-52s-17.46-52-39-52C86.65 230 87.23 256 67.79 256C56.86 256 48 247.1 48 236.2V170C48 155.6 59.64 144 73.1 144h110.2C195.1 144 204 143.1 204 132.2c0-19.25-26-18.88-26-45.21c0-21.54 23.28-39 52-39c28.72 0 52 17.46 52 39C281.1 113.4 256 112.8 256 132.2C256 143.1 264.9 144 275.8 144h58.21C348.4 144 368 155.6 368 170v66.21C368 247.1 368.9 256 379.8 256c19.25 0 18.88-26 45.21-26c21.54 0 39 23.28 39 52S446.5 334 425 334z"/></svg>
