<svg width="8" height="12" viewBox="0 0 8 12" fill="none" xmlns="http://www.w3.org/2000/svg">
<path fill-rule="evenodd" clip-rule="evenodd" d="M6.8103 5.79187C7.13843 6.06531 7.39819 6.39799 7.5896 6.78992C7.78101 7.18185 7.87671 7.60567 7.87671 8.0614C7.87671 8.47156 7.79924 8.85437 7.64429 9.20984C7.48022 9.56531 7.26603 9.87748 7.00171 10.1464C6.73739 10.4152 6.42294 10.6272 6.05835 10.7821C5.70288 10.9371 5.32007 11.0145 4.90991 11.0145H0.80835C0.616942 11.0145 0.452882 10.9462 0.316162 10.8094C0.179443 10.6727 0.111084 10.5087 0.111084 10.3173V1.25281C0.111084 1.0614 0.179443 0.89734 0.316162 0.76062C0.452882 0.623901 0.616942 0.555542 0.80835 0.555542H4.90991C5.32007 0.555542 5.70288 0.633015 6.05835 0.787964C6.42294 0.942913 6.73739 1.15482 7.00171 1.42371C7.26603 1.69259 7.48022 2.00476 7.64429 2.36023C7.79924 2.72481 7.87671 3.11218 7.87671 3.52234C7.87671 3.96896 7.78101 4.3905 7.5896 4.78699C7.39819 5.18347 7.13843 5.51843 6.8103 5.79187ZM1.50562 1.95007V5.08093H4.89624C5.32463 5.08093 5.69149 4.92827 5.99683 4.62293C6.30217 4.31759 6.45483 3.95073 6.45483 3.52234C6.45483 3.08484 6.30217 2.71342 5.99683 2.40808C5.69149 2.10274 5.32463 1.95007 4.89624 1.95007H1.50562ZM4.89624 9.62C5.32463 9.62 5.69149 9.46733 5.99683 9.16199C6.30217 8.85665 6.45483 8.48523 6.45483 8.04773C6.45483 7.61934 6.30217 7.25248 5.99683 6.94714C5.69149 6.6418 5.32463 6.48914 4.89624 6.48914H1.50562V9.62H4.89624Z"/>
</svg>
