<svg width="13" height="22" viewBox="0 0 13 22" fill="none" xmlns="http://www.w3.org/2000/svg">
<path d="M9.53645 10.448C10.2684 10.652 10.8324 11.024 11.2284 11.564C11.6364 12.104 11.8404 12.764 11.8404 13.544C11.8404 14.624 11.4504 15.47 10.6704 16.082C9.90245 16.694 8.84045 17 7.48445 17H1.72445V4.31H7.30445C8.62445 4.31 9.65645 4.604 10.4004 5.192C11.1564 5.768 11.5344 6.578 11.5344 7.622C11.5344 8.294 11.3544 8.876 10.9944 9.368C10.6464 9.86 10.1604 10.22 9.53645 10.448ZM3.99245 9.656H6.92645C8.52245 9.656 9.32045 9.062 9.32045 7.874C9.32045 7.274 9.12245 6.83 8.72645 6.542C8.33045 6.254 7.73045 6.11 6.92645 6.11H3.99245V9.656ZM7.23245 15.2C8.07245 15.2 8.68445 15.05 9.06845 14.75C9.45245 14.45 9.64445 13.982 9.64445 13.346C9.64445 12.71 9.44645 12.236 9.05045 11.924C8.66645 11.612 8.06045 11.456 7.23245 11.456H3.99245V15.2H7.23245Z" fill="#636363"/>
</svg>
