<svg width="20" height="20" viewBox="0 0 20 20" xmlns="http://www.w3.org/2000/svg"><path d="M10.569 16.89H6.596c-.573 0-.983-.129-1.228-.386S5 15.838 5 15.276V5.504c0-.574.126-.986.377-1.237.251-.251.658-.377 1.22-.377h4.211c.621 0 1.159.038 1.614.115.455.077.863.225 1.224.444a3.21 3.21 0 0 1 1.357 1.627c.124.34.186.699.186 1.077 0 1.3-.65 2.253-1.95 2.856 1.708.544 2.562 1.602 2.562 3.174 0 .727-.186 1.382-.559 1.965a3.353 3.353 0 0 1-1.507 1.29 5.36 5.36 0 0 1-1.366.35c-.514.068-1.114.102-1.8.102zm-.2-5.935H7.128v4.49h3.346c2.105 0 3.157-.76 3.157-2.277 0-.776-.273-1.339-.818-1.689-.546-.35-1.36-.524-2.444-.524zM7.147 5.41v3.896h2.795c.761 0 1.349-.072 1.763-.216.415-.144.732-.418.951-.823.171-.287.257-.61.257-.966 0-.76-.27-1.266-.812-1.516-.541-.25-1.367-.375-2.477-.375H7.147z" fill="#000" fill-rule="evenodd"/></svg>