<svg width="20" height="20" viewBox="0 0 20 20" fill="none" xmlns="http://www.w3.org/2000/svg">
<path d="M5.45975 18C4.48658 18 4 17.4856 4 16.4567V3.54326C4 2.51442 4.48658 2 5.45975 2H10.6118C12.2004 2 13.4311 2.37069 14.3041 3.11206C15.1771 3.8383 15.6136 4.85201 15.6136 6.15319C15.6136 7.0156 15.4061 7.75697 14.9911 8.37731C14.576 8.99764 14.0036 9.45154 13.2737 9.73901C14.1324 9.99622 14.7979 10.4501 15.2701 11.1007C15.7567 11.7362 16 12.5456 16 13.5291C16 14.9513 15.542 16.0558 14.6261 16.8426C13.7245 17.6142 12.4651 18 10.8479 18H5.45975ZM6.64043 8.78582H10.1395C12.0143 8.78582 12.9517 8.02175 12.9517 6.49362C12.9517 4.96548 12.0143 4.20142 10.1395 4.20142H6.64043V8.78582ZM6.64043 15.7986H10.5045C12.3936 15.7986 13.3381 14.9967 13.3381 13.3929C13.3381 11.7891 12.3936 10.9872 10.5045 10.9872H6.64043V15.7986Z"/>
</svg>
