<svg width="20" height="20" xmlns="http://www.w3.org/2000/svg"><path d="M10.967 16.819H6.71c-.614 0-1.053-.138-1.316-.413C5.131 16.13 5 15.692 5 15.09V4.62c0-.615.135-1.057.404-1.326.269-.269.704-.404 1.306-.404h4.513c.665 0 1.242.042 1.73.124.487.082.924.24 1.31.475a3.44 3.44 0 0 1 1.454 1.743c.133.365.2.75.2 1.155 0 1.393-.697 2.413-2.09 3.06 1.83.582 2.745 1.716 2.745 3.4 0 .78-.2 1.481-.598 2.105a3.592 3.592 0 0 1-1.615 1.382 5.743 5.743 0 0 1-1.464.376 14.91 14.91 0 0 1-1.928.109zm-.21-6.185H7.823V14.7h3.03c1.907 0 2.86-.687 2.86-2.061 0-.704-.247-1.213-.74-1.53-.495-.317-1.233-.475-2.214-.475zM7.823 5.009V8.61h2.584c.703 0 1.246-.066 1.63-.2.383-.132.676-.386.878-.76.159-.266.238-.563.238-.893 0-.703-.25-1.17-.75-1.401-.501-.231-1.264-.347-2.29-.347h-2.29z" fill="#464646" fill-rule="evenodd"/></svg>
