<svg width="20" height="20" viewBox="0 0 20 20" xmlns="http://www.w3.org/2000/svg"><path d="M15.135 10.409c.361.248.654.56.88.934.225.375.338.816.338 1.324 0 .609-.128 1.123-.385 1.543-.256.42-.624.751-1.103.994a5.908 5.908 0 0 1-1.755.55c-.663.107-1.442.16-2.338.16H4.539v-.66a22.5 22.5 0 0 0 .66-.076c.265-.033.45-.073.558-.118.208-.085.35-.196.427-.334.076-.138.114-.317.114-.537V5.732c0-.203-.031-.372-.093-.507s-.211-.254-.448-.355a3.326 3.326 0 0 0-.61-.182 14.136 14.136 0 0 0-.608-.114v-.66h6.52c1.64 0 2.825.226 3.552.677.727.45 1.09 1.116 1.09 1.995 0 .406-.08.763-.244 1.07a2.388 2.388 0 0 1-.702.8 4.214 4.214 0 0 1-.99.54c-.383.153-.795.28-1.234.381v.16c.44.046.896.143 1.37.292.473.15.885.343 1.234.58zm-2.723-3.611c0-.665-.187-1.184-.562-1.556-.375-.372-.937-.558-1.687-.558-.107 0-.247.004-.419.012l-.444.021v4.449h.44c.913 0 1.587-.213 2.021-.639.434-.425.651-1.002.651-1.73zm.592 5.759c0-.835-.248-1.475-.744-1.92-.496-.445-1.21-.668-2.14-.668a22.977 22.977 0 0 0-.82.034v4.389c.05.208.209.385.474.528.265.144.586.216.964.216.67 0 1.216-.225 1.636-.676.42-.452.63-1.086.63-1.903z" fill="#454545" fill-rule="evenodd"/></svg>