<svg width="20" height="20" xmlns="http://www.w3.org/2000/svg" fill-rule="evenodd" clip-rule="evenodd" stroke-linejoin="round" stroke-miterlimit="1.414"><path d="M11.893 5.376c.123.01.23.046.333.114l5.6 3.967.004 1.017-5.6 4.033a.633.633 0 0 1-.509.101.63.63 0 0 1-.473-.708.642.642 0 0 1 .252-.407l4.89-3.522-4.886-3.461c-.036-.027-.036-.027-.069-.057a.658.658 0 0 1-.15-.219.633.633 0 0 1 .228-.751.66.66 0 0 1 .291-.105c.044-.003.044-.003.089-.002zm-3.697.002a.66.66 0 0 1 .291.105.633.633 0 0 1 .21.791.664.664 0 0 1-.201.236L3.61 9.971l4.89 3.522c.036.027.036.027.069.057a.649.649 0 0 1 .189.394.63.63 0 0 1-.7.676.655.655 0 0 1-.288-.113l-5.6-4.033.004-1.017 5.6-3.967a.685.685 0 0 1 .333-.114c.045-.001.045-.001.089.002z" fill="#353535"/></svg>