<svg width="20" height="20" viewBox="0 0 20 20" fill="none" xmlns="http://www.w3.org/2000/svg">
<path fill-rule="evenodd" clip-rule="evenodd" d="M5.58385 5.32289L2.61489 8.44096C1.79504 9.30199 1.79504 10.698 2.61489 11.559L5.58385 14.6771C5.99378 15.1076 6.65841 15.1076 7.06834 14.6771C7.47826 14.2466 7.47826 13.5486 7.06834 13.1181L4.42767 10.3448C4.24381 10.1517 4.24381 9.8483 4.42767 9.65521L7.06834 6.88192C7.47826 6.45141 7.47826 5.7534 7.06834 5.32289C6.65841 4.89237 5.99378 4.89237 5.58385 5.32289ZM12.9317 5.32289C13.3416 4.89237 14.0062 4.89237 14.4161 5.32289L17.3851 8.44096C18.205 9.30199 18.205 10.698 17.3851 11.559L14.4161 14.6771C14.0062 15.1076 13.3416 15.1076 12.9317 14.6771C12.5217 14.2466 12.5217 13.5486 12.9317 13.1181L15.5723 10.3448C15.7562 10.1517 15.7562 9.8483 15.5723 9.65521L12.9317 6.88192C12.5217 6.45141 12.5217 5.7534 12.9317 5.32289Z"/>
</svg>
