<svg width="10" height="12" viewBox="0 0 10 12" fill="none" xmlns="http://www.w3.org/2000/svg">
<path fill-rule="evenodd" clip-rule="evenodd" d="M5.70654 1.43054H3.91528C3.79679 1.43054 3.69426 1.38725 3.60767 1.30066C3.52108 1.21407 3.47778 1.11153 3.47778 0.993043C3.47778 0.874552 3.52108 0.772014 3.60767 0.685425C3.69426 0.598836 3.79679 0.555542 3.91528 0.555542H8.64576C8.76425 0.555542 8.86679 0.598836 8.95337 0.685425C9.03996 0.772014 9.08326 0.874552 9.08326 0.993043C9.08326 1.11153 9.03996 1.21407 8.95337 1.30066C8.86679 1.38725 8.76425 1.43054 8.64576 1.43054H6.63579L3.71068 10.1805H5.50122C5.61971 10.1805 5.72225 10.2238 5.80884 10.3104C5.89543 10.397 5.93872 10.4996 5.93872 10.618C5.93872 10.7365 5.89543 10.8391 5.80884 10.9257C5.72225 11.0122 5.61971 11.0555 5.50122 11.0555H0.770752C0.652262 11.0555 0.549724 11.0122 0.463135 10.9257C0.376546 10.8391 0.333252 10.7365 0.333252 10.618C0.333252 10.4996 0.376546 10.397 0.463135 10.3104C0.549724 10.2238 0.652262 10.1805 0.770752 10.1805H2.79409L5.70654 1.43054Z"/>
</svg>
