<svg width="20" height="20" viewBox="0 0 20 20" xmlns="http://www.w3.org/2000/svg"><path d="M8.57 14.62l1.903-8.245-.055.013c.13-.478.082-.869-.148-1.172a.912.912 0 0 0-.234-.22H8.199a.498.498 0 0 1 0-.996h6.259a.498.498 0 1 1 0 .996H12.65a.959.959 0 0 0-.398.22c-.181.18-.414.46-.698.84L9.498 14.97c.047.294.18.577.396.848.062.078.131.14.208.187h1.655a.498.498 0 1 1 0 .996h-6.26a.498.498 0 1 1 0-.996h1.679c.36-.066.614-.17.764-.311.189-.18.4-.537.63-1.074z" fill="#333" fill-rule="evenodd"/></svg>