<svg width="20" height="20" viewBox="0 0 20 20" xmlns="http://www.w3.org/2000/svg"><path d="M13.825 3.914l-.126.558a5.701 5.701 0 0 0-.685.076c-.282.045-.49.088-.626.127-.237.073-.406.186-.508.338a1.586 1.586 0 0 0-.22.5l-2.03 8.769a1.24 1.24 0 0 0-.034.27c.001.13.03.24.086.33.056.09.157.17.304.237.085.04.27.086.558.14.288.053.502.086.643.097l-.127.558H5.656l.127-.558.677-.05c.293-.023.501-.057.625-.102a1.11 1.11 0 0 0 .5-.326c.112-.138.188-.306.228-.503l2.02-8.778a1.428 1.428 0 0 0 .035-.305.59.59 0 0 0-.072-.295c-.048-.085-.148-.161-.3-.229a3.457 3.457 0 0 0-.622-.19 5.001 5.001 0 0 0-.58-.106l.128-.558h5.403z" fill="#454545" fill-rule="evenodd"/></svg>