<svg viewBox="0 0 20 20" xmlns="http://www.w3.org/2000/svg"><g><path d="M7 16.4c-.8-.4-1.5-.9-2.2-1.5a.6.6 0 0 1-.2-.5l.3-.6h1c1 1.2 2.1 1.7 3.7 1.7 1 0 1.8-.3 2.3-.6.6-.4.6-1.2.6-1.3.2-1.2-.9-2.1-.9-2.1h2.1c.3.7.4 1.2.4 1.7v.8l-.6 1.2c-.6.8-1.1 1-1.6 1.2a6 6 0 0 1-2.4.6c-1 0-1.8-.3-2.5-.6zM6.8 9L6 8.3c-.4-.5-.5-.8-.5-1.6 0-.7.1-1.3.5-1.8.4-.6 1-1 1.6-1.3a6.3 6.3 0 0 1 4.7 0 4 4 0 0 1 1.7 1l.3.7c0 .1.2.4-.2.7-.4.2-.9.1-1 0a3 3 0 0 0-1.2-1c-.4-.2-1-.3-2-.4-.7 0-1.4.2-2 .6-.8.6-1 .8-1 1.5 0 .8.5 1 1.2 1.5.6.4 1.1.7 1.9 1H6.8z"/><path d="M3 10.5V9h14v1.5z"/></g></svg>