<svg viewBox="0 0 20 20" xmlns="http://www.w3.org/2000/svg"><g fill="none" fill-rule="evenodd"><g fill="#333"><path d="M9.4 17c-.9 0-2-.3-3.2-.6-.3 0-.3-.2-.3-.4v-1.2c0-.1 0-.3.3-.2a9 9 0 0 0 3.5.9c.7 0 1.3-.2 1.8-.6.4-.4.7-1 .7-1.6 0-.5 0-1-.5-1.3l-.6-.5h2.4c.3 0 .4 0 .4.2l.3 1.3c0 1.2-.5 2.1-1.4 2.9-.8.7-2 1-3.4 1zM6.2 7.7C6 7.3 6 7 6 6.3c0-1 .3-2 1-2.6.9-.7 1.8-1 3-1 1 0 1.8 0 2.9.4 0 0 .4 0 .4.4v1c0 .4-.4.3-.5.3a8 8 0 0 0-2.7-.7c-.7 0-1.2.2-1.6.5-.5.4-.7.8-.7 1.4 0 .4.2.8.5 1.2l.7.6c.2 0 0 .2 0 .2H6.9c-.4 0-.5-.1-.6-.3z"/><path fill-rule="nonzero" d="M3 10.5V9h14v1.5z"/></g></g></svg>
