<svg width="12" height="12" viewBox="0 0 12 12" fill="none" xmlns="http://www.w3.org/2000/svg">
<path fill-rule="evenodd" clip-rule="evenodd" d="M4.17871 4.91687H2.86621C2.70214 4.70724 2.57226 4.47254 2.47656 4.21277C2.38086 3.953 2.32845 3.67729 2.31933 3.38562C2.31933 2.99369 2.41048 2.62911 2.59277 2.29187C2.78418 1.94551 3.0371 1.64474 3.35156 1.38953C3.66601 1.13432 4.03287 0.929241 4.45214 0.774292C4.88053 0.628458 5.33626 0.555542 5.81933 0.555542C6.45736 0.555542 7.05208 0.689981 7.60351 0.958862C8.15495 1.22774 8.58105 1.59005 8.88183 2.04578C8.90917 2.08224 8.9274 2.12097 8.93652 2.16199C8.94563 2.203 8.95019 2.24174 8.95019 2.2782C8.95019 2.4058 8.90917 2.51062 8.82714 2.59265C8.74511 2.67468 8.6403 2.7157 8.51269 2.7157C8.43977 2.7157 8.37141 2.69975 8.30761 2.66785C8.24381 2.63595 8.19368 2.5881 8.15722 2.52429C7.93847 2.18705 7.61718 1.92045 7.19335 1.72449C6.76952 1.52852 6.31152 1.43054 5.81933 1.43054C5.09016 1.43054 4.47038 1.62195 3.95996 2.00476C3.44954 2.38758 3.19433 2.84786 3.19433 3.38562C3.19433 3.66817 3.25585 3.90971 3.3789 4.11023C3.50195 4.31075 3.62727 4.47481 3.75488 4.60242C3.81868 4.65711 3.88476 4.71179 3.95312 4.76648C4.02148 4.82117 4.09668 4.8713 4.17871 4.91687ZM7.44628 6.66687H8.75878V6.6532C8.92285 6.86284 9.05273 7.09753 9.14843 7.3573C9.24414 7.61707 9.29655 7.89278 9.30566 8.18445C9.30566 8.57638 9.21451 8.94552 9.03222 9.29187C8.84081 9.63823 8.58789 9.93901 8.27343 10.1942C7.95898 10.4494 7.59212 10.6499 7.17285 10.7958C6.74446 10.9507 6.29329 11.0282 5.81933 11.0282C5.16308 11.0282 4.55924 10.8938 4.00781 10.6249C3.45637 10.356 3.03027 9.98914 2.72949 9.5243C2.71126 9.48784 2.69531 9.4491 2.68164 9.40808C2.66796 9.36707 2.66113 9.32378 2.66113 9.2782C2.66113 9.15971 2.70442 9.05717 2.79101 8.97058C2.8776 8.884 2.98014 8.8407 3.09863 8.8407C3.17155 8.8407 3.2399 8.85893 3.30371 8.89539C3.36751 8.93185 3.4222 8.98198 3.46777 9.04578C3.68652 9.37391 4.00781 9.64051 4.43164 9.84559C4.85547 10.0507 5.31803 10.1532 5.81933 10.1532C6.53939 10.1532 7.15461 9.9618 7.66503 9.57898C8.17545 9.19617 8.43066 8.73133 8.43066 8.18445C8.43066 7.91101 8.36914 7.67176 8.24609 7.46668C8.12304 7.2616 7.99772 7.09981 7.87011 6.98132C7.80631 6.92664 7.74023 6.87195 7.67187 6.81726C7.60351 6.76257 7.52832 6.71244 7.44628 6.66687ZM10.6182 5.35438C10.7367 5.35438 10.8392 5.39767 10.9258 5.48426C11.0124 5.57085 11.0557 5.67339 11.0557 5.79188C11.0557 5.91037 11.0124 6.01291 10.9258 6.0995C10.8392 6.18609 10.7367 6.22938 10.6182 6.22938H0.993164C0.874674 6.22938 0.772136 6.18609 0.685547 6.0995C0.598958 6.01291 0.555664 5.91037 0.555664 5.79188C0.555664 5.67339 0.598958 5.57085 0.685547 5.48426C0.772136 5.39767 0.874674 5.35438 0.993164 5.35438H10.6182Z"/>
</svg>
