<svg width="20" height="20" viewBox="0 0 20 20" fill="none" xmlns="http://www.w3.org/2000/svg">
<path fill-rule="evenodd" clip-rule="evenodd" d="M7.24975 17.4343C8.12618 17.8114 9.10777 18 10.1945 18C10.9728 18 11.7125 17.9004 12.4136 17.7011C13.1148 17.5019 13.7318 17.2066 14.2647 16.8152C14.8045 16.4167 15.2287 15.9257 15.5372 15.3422C15.8457 14.7516 16 14.0685 16 13.2929C16 12.578 15.8748 11.9804 15.6245 11.5H12.031C12.224 11.5689 12.4041 11.647 12.5714 11.7345C12.8098 11.8483 13.0096 11.9871 13.1709 12.1508C13.3391 12.3073 13.4689 12.4923 13.56 12.7058C13.6582 12.9193 13.7072 13.1648 13.7072 13.4423C13.7072 13.9546 13.5495 14.3958 13.234 14.7658C12.9255 15.1288 12.5153 15.4098 12.0035 15.6091C11.4916 15.8012 10.9307 15.8973 10.3207 15.8973C9.33915 15.8973 8.48025 15.6375 7.74406 15.1181C7.29996 14.8004 6.94771 14.4077 6.68731 13.9399C6.38516 13.397 5.82207 12.9916 5.208 13.0859C4.54447 13.1879 4.07923 13.8227 4.32287 14.4482C4.51537 14.9424 4.77232 15.3934 5.09375 15.8012C5.66167 16.5057 6.38034 17.05 7.24975 17.4343ZM8.26813 8H16C16.5523 8 17 8.44772 17 9C17 9.55228 16.5523 10 16 10H4C3.44772 10 3 9.55228 3 9C3 8.44772 3.44772 8 4 8H4.88964C4.68917 7.56063 4.58893 7.03006 4.58893 6.40827C4.58893 5.46187 4.82732 4.66133 5.30409 4.00667C5.78788 3.3449 6.43994 2.84679 7.26027 2.51234C8.0806 2.17078 8.9991 2 10.0157 2C11.0394 2.01423 11.9544 2.19924 12.7607 2.55504C13.574 2.91083 14.2471 3.42317 14.78 4.09206C15.0821 4.46236 15.3315 4.87721 15.5282 5.33662C15.7914 5.95131 15.3458 6.59887 14.6868 6.71232C14.051 6.82178 13.4707 6.37682 13.1435 5.82085C13.0617 5.68192 12.9692 5.5504 12.8659 5.42629C12.5223 5.00645 12.1016 4.68624 11.6038 4.46564C11.106 4.23794 10.5661 4.12053 9.9842 4.11341C9.42329 4.09918 8.90795 4.18457 8.43818 4.36958C7.97543 4.55459 7.60383 4.81432 7.32337 5.14877C7.04993 5.48321 6.91321 5.86747 6.91321 6.30153C6.91321 6.72849 7.03591 7.07361 7.2813 7.33689C7.5267 7.60018 7.82819 7.8101 8.18577 7.96665C8.21325 7.9779 8.2407 7.98902 8.26813 8Z"/>
</svg>
