<svg width="20" height="20" xmlns="http://www.w3.org/2000/svg"><g fill="#333" fill-rule="evenodd"><path fill-rule="nonzero" d="M3 11.5V10h14v1.5z"/><path d="M10.75 12.8v3.483c0 .488-.286.74-.774.74-.488 0-.726-.252-.726-.74V12.8h1.5zM9.25 4.424H5.005c-.452 0-.698-.297-.698-.712 0-.434.264-.712.698-.712h9.942c.434 0 .697.278.697.712 0 .415-.28.712-.697.712H10.75V8.5h-1.5V4.424z"/><path d="M9.26 6.004h1.484c-.028-.67.063-1.09.271-1.26.209-.17.477-.361.805-.572H8.09c.39.213.68.404.872.572.192.168.292.588.299 1.26z"/></g></svg>
