<svg viewBox="0 0 20 20" version="1.1" xmlns="http://www.w3.org/2000/svg" xmlns:xlink="http://www.w3.org/1999/xlink">
    <g id="Page-1" stroke="none" stroke-width="1" fill="none" fill-rule="evenodd">
        <g id="subscript" fill="#000000">
            <g id="Group" transform="translate(3.000000, 6.000000)">
                <polygon id="x" points="0.900000095 8.89257812 1.91953135 8.69042969 4.72324228 5.19238281 2.00742197 1.80859375 0.98789072 1.60644531 0.98789072 0.490234375 4.71445322 0.490234375 4.71445322 1.60644531 3.8531251 1.71191406 5.62851572 3.99707031 7.41269541 1.703125 6.56015635 1.60644531 6.56015635 0.490234375 10.313086 0.490234375 10.313086 1.60644531 9.29355478 1.80859375 6.57773447 5.19238281 9.37265635 8.69042969 10.4009767 8.89257812 10.4009767 10 6.67441416 10 6.67441416 8.89257812 7.51816416 8.79589844 5.65488291 6.40527344 3.79160166 8.79589844 4.64414072 8.89257812 4.64414072 10 0.900000095 10"></polygon>
                <path d="M11.0905438,11.7695312 L11.0905438,11.0234375 L12.9303876,9.05078125 C13.1960139,8.74609223 13.3848141,8.48893334 13.4967938,8.27929688 C13.6087735,8.06966041 13.6647626,7.8750009 13.6647626,7.6953125 C13.6647626,7.45572797 13.6003101,7.25976639 13.4714032,7.10742188 C13.3424963,6.95507736 13.1595554,6.87890625 12.9225751,6.87890625 C12.6595529,6.87890625 12.4596851,6.96809807 12.3229657,7.14648438 C12.1862462,7.32487068 12.1178876,7.56249852 12.1178876,7.859375 L11.0085126,7.859375 L11.0007001,7.8359375 C10.9876792,7.3229141 11.1562973,6.88867365 11.5065594,6.53320312 C11.8568216,6.1777326 12.3288221,6 12.9225751,6 C13.5085155,6 13.9694484,6.15234223 14.3053876,6.45703125 C14.6413267,6.76172027 14.8092938,7.16796621 14.8092938,7.67578125 C14.8092938,8.01953297 14.7148937,8.33723812 14.5260907,8.62890625 C14.3372877,8.92057438 14.0241397,9.30077891 13.5866376,9.76953125 L12.5749188,10.875 L12.5827313,10.8945312 L14.0592938,10.8945312 L14.1061688,10.3320312 L14.9733563,10.3320312 L14.9733563,11.7695312 L11.0905438,11.7695312 Z" id="2"></path>
            </g>
        </g>
    </g>
</svg>