<svg viewBox="0 0 20 20" xmlns="http://www.w3.org/2000/svg"><path d="M7.03 10.349l3.818-3.819a.8.8 0 1 1 1.132 1.132L8.16 11.48l3.819 3.818a.8.8 0 1 1-1.132 1.132L7.03 12.61l-3.818 3.82a.8.8 0 1 1-1.132-1.132L5.9 11.48 2.08 7.662A.8.8 0 1 1 3.212 6.53l3.818 3.82zm8.147 7.829h2.549c.254 0 .447.05.58.152a.49.49 0 0 1 .201.413.54.54 0 0 1-.159.393c-.105.108-.266.162-.48.162h-3.594c-.245 0-.435-.066-.572-.197a.621.621 0 0 1-.205-.463c0-.114.044-.265.132-.453a1.62 1.62 0 0 1 .288-.444c.433-.436.824-.81 1.172-1.122.348-.312.597-.517.747-.615.267-.183.49-.368.667-.553.177-.185.312-.375.405-.57.093-.194.139-.384.139-.57a1.008 1.008 0 0 0-.554-.917 1.197 1.197 0 0 0-.56-.133c-.426 0-.761.182-1.005.546a2.332 2.332 0 0 0-.164.39 1.609 1.609 0 0 1-.258.488c-.096.114-.237.17-.423.17a.558.558 0 0 1-.405-.156.568.568 0 0 1-.161-.427c0-.218.05-.446.151-.683.101-.238.252-.453.452-.646s.454-.349.762-.467a2.998 2.998 0 0 1 1.081-.178c.498 0 .923.076 1.274.228a1.916 1.916 0 0 1 1.004 1.032 1.984 1.984 0 0 1-.156 1.794c-.2.32-.405.572-.613.754-.208.182-.558.468-1.048.857-.49.39-.826.691-1.008.906a2.703 2.703 0 0 0-.24.309z"/></svg>