<svg viewBox="0 0 20 20" xmlns="http://www.w3.org/2000/svg"><path d="M15.677 8.678h2.549c.254 0 .447.05.58.152a.49.49 0 01.201.413.54.54 0 01-.159.393c-.105.108-.266.162-.48.162h-3.594c-.245 0-.435-.066-.572-.197a.621.621 0 01-.205-.463c0-.114.044-.265.132-.453a1.62 1.62 0 01.288-.444c.433-.436.824-.81 1.172-1.122.348-.312.597-.517.747-.615.267-.183.49-.368.667-.553.177-.185.312-.375.405-.57.093-.194.139-.384.139-.57a1.008 1.008 0 00-.554-.917 1.197 1.197 0 00-.56-.133c-.426 0-.761.182-1.005.546a2.332 2.332 0 00-.164.39 1.609 1.609 0 01-.258.488c-.096.114-.237.17-.423.17a.558.558 0 01-.405-.156.568.568 0 01-.161-.427c0-.218.05-.446.151-.683.101-.238.252-.453.452-.646s.454-.349.762-.467a2.998 2.998 0 011.081-.178c.498 0 .923.076 1.274.228a1.916 1.916 0 011.004 1.032 1.984 1.984 0 01-.156 1.794c-.2.32-.405.572-.613.754-.208.182-.558.468-1.048.857-.49.39-.826.691-1.008.906a2.703 2.703 0 00-.24.309zM7.03 10.349l3.818-3.819a.8.8 0 111.132 1.132L8.16 11.48l3.819 3.818a.8.8 0 11-1.132 1.132L7.03 12.61l-3.818 3.82a.8.8 0 11-1.132-1.132L5.9 11.48 2.08 7.662A.8.8 0 113.212 6.53l3.818 3.82z"/></svg>