<svg viewBox="0 0 20 20" version="1.1" xmlns="http://www.w3.org/2000/svg" xmlns:xlink="http://www.w3.org/1999/xlink">
    <g id="Page-1" stroke="none" stroke-width="1" fill="none" fill-rule="evenodd">
        <g id="superscript" fill="#000000">
            <g id="Group-2" transform="translate(3.000000, 3.000000)">
                <polygon id="x" points="0.900000095 11.8925781 1.91953135 11.6904297 4.72324228 8.19238281 2.00742197 4.80859375 0.98789072 4.60644531 0.98789072 3.49023438 4.71445322 3.49023438 4.71445322 4.60644531 3.8531251 4.71191406 5.62851572 6.99707031 7.41269541 4.703125 6.56015635 4.60644531 6.56015635 3.49023438 10.313086 3.49023438 10.313086 4.60644531 9.29355478 4.80859375 6.57773447 8.19238281 9.37265635 11.6904297 10.4009767 11.8925781 10.4009767 13 6.67441416 13 6.67441416 11.8925781 7.51816416 11.7958984 5.65488291 9.40527344 3.79160166 11.7958984 4.64414072 11.8925781 4.64414072 13 0.900000095 13"></polygon>
                <path d="M11.0905438,5.76953125 L11.0905438,5.0234375 L12.9303876,3.05078125 C13.1960139,2.74609223 13.3848141,2.48893334 13.4967938,2.27929688 C13.6087735,2.06966041 13.6647626,1.8750009 13.6647626,1.6953125 C13.6647626,1.45572797 13.6003101,1.25976639 13.4714032,1.10742188 C13.3424963,0.955077363 13.1595554,0.87890625 12.9225751,0.87890625 C12.6595529,0.87890625 12.4596851,0.968098066 12.3229657,1.14648438 C12.1862462,1.32487068 12.1178876,1.56249852 12.1178876,1.859375 L11.0085126,1.859375 L11.0007001,1.8359375 C10.9876792,1.3229141 11.1562973,0.888673652 11.5065594,0.533203125 C11.8568216,0.177732598 12.3288221,0 12.9225751,0 C13.5085155,0 13.9694484,0.152342227 14.3053876,0.45703125 C14.6413267,0.761720273 14.8092938,1.16796621 14.8092938,1.67578125 C14.8092938,2.01953297 14.7148937,2.33723812 14.5260907,2.62890625 C14.3372877,2.92057438 14.0241397,3.30077891 13.5866376,3.76953125 L12.5749188,4.875 L12.5827313,4.89453125 L14.0592938,4.89453125 L14.1061688,4.33203125 L14.9733563,4.33203125 L14.9733563,5.76953125 L11.0905438,5.76953125 Z" id="2"></path>
            </g>
        </g>
    </g>
</svg>