<svg width="8" height="12" viewBox="0 0 8 12" fill="none" xmlns="http://www.w3.org/2000/svg">
<path fill-rule="evenodd" clip-rule="evenodd" d="M4.04858 9.30555C3.51082 9.30555 3.00497 9.20529 2.53101 9.00477C2.05705 8.79513 1.64234 8.51258 1.28687 8.15711C0.931395 7.80164 0.653403 7.38237 0.452881 6.8993C0.252359 6.42533 0.1521 5.91492 0.1521 5.36804V0.993042C0.1521 0.874552 0.193115 0.772014 0.275146 0.685425C0.357178 0.598836 0.461995 0.555542 0.5896 0.555542C0.70809 0.555542 0.810628 0.598836 0.897217 0.685425C0.983806 0.772014 1.0271 0.874552 1.0271 0.993042V5.36804C1.0271 5.78732 1.10457 6.17924 1.25952 6.54383C1.41447 6.91753 1.62866 7.24109 1.9021 7.51453C2.17554 7.78797 2.4991 8.00216 2.8728 8.15711C3.23739 8.32117 3.62931 8.4032 4.04858 8.4032C4.46786 8.4032 4.85978 8.32117 5.22437 8.15711C5.59807 8.00216 5.92163 7.78797 6.19507 7.51453C6.46851 7.24109 6.6827 6.91753 6.83765 6.54383C6.9926 6.17924 7.07007 5.78732 7.07007 5.36804V0.993042C7.07007 0.874552 7.11336 0.772014 7.19995 0.685425C7.28654 0.598836 7.38908 0.555542 7.50757 0.555542C7.63517 0.555542 7.73999 0.598836 7.82202 0.685425C7.90405 0.772014 7.94507 0.874552 7.94507 0.993042V5.36804C7.94507 5.91492 7.84481 6.42533 7.64429 6.8993C7.44377 7.38237 7.16577 7.80164 6.8103 8.15711C6.45483 8.51258 6.04012 8.79513 5.56616 9.00477C5.0922 9.20529 4.58635 9.30555 4.04858 9.30555ZM7.54858 11.0555H0.548584C0.430094 11.0555 0.327556 11.0122 0.240967 10.9257C0.154378 10.8391 0.111084 10.7365 0.111084 10.618C0.111084 10.4995 0.154378 10.397 0.240967 10.3104C0.327556 10.2238 0.430094 10.1805 0.548584 10.1805H7.54858C7.66708 10.1805 7.76961 10.2238 7.8562 10.3104C7.94279 10.397 7.98608 10.4995 7.98608 10.618C7.98608 10.7365 7.94279 10.8391 7.8562 10.9257C7.76961 11.0122 7.66708 11.0555 7.54858 11.0555Z"/>
</svg>
