<svg width="15" height="22" viewBox="0 0 15 22" fill="none" xmlns="http://www.w3.org/2000/svg">
<path d="M7.50331 17.144C5.8473 17.144 4.5933 16.712 3.7413 15.848C2.8893 14.984 2.4633 13.712 2.4633 12.032V4.31H3.9213V12.158C3.9213 13.394 4.2213 14.324 4.8213 14.948C5.4333 15.572 6.3273 15.884 7.50331 15.884C8.6793 15.884 9.56731 15.572 10.1673 14.948C10.7673 14.324 11.0673 13.394 11.0673 12.158V4.31H12.5433V12.032C12.5433 13.7 12.1113 14.972 11.2473 15.848C10.3953 16.712 9.1473 17.144 7.50331 17.144Z" fill="#636363"/>
<path d="M0.987305 18.8H14.0193V19.7H0.987305V18.8Z" fill="#636363"/>
</svg>
