<svg xmlns="http://www.w3.org/2000/svg" viewBox="0 0 448 512"><!-- Font Awesome Pro 5.15.4 by @fontawesome - https://fontawesome.com License - https://fontawesome.com/license (Commercial License) --><path d="M108.1 88h231.81A12.09 12.09 0 0 0 352 75.9V52.09A12.09 12.09 0 0 0 339.91 40H108.1A12.09 12.09 0 0 0 96 52.09V75.9A12.1 12.1 0 0 0 108.1 88zM432 424H16a16 16 0 0 0-16 16v16a16 16 0 0 0 16 16h416a16 16 0 0 0 16-16v-16a16 16 0 0 0-16-16zm0-256H16a16 16 0 0 0-16 16v16a16 16 0 0 0 16 16h416a16 16 0 0 0 16-16v-16a16 16 0 0 0-16-16zm-92.09 176A12.09 12.09 0 0 0 352 331.9v-23.81A12.09 12.09 0 0 0 339.91 296H108.1A12.09 12.09 0 0 0 96 308.09v23.81a12.1 12.1 0 0 0 12.1 12.1z"/></svg>