<svg xmlns="http://www.w3.org/2000/svg" viewBox="0 0 448 512"><!-- Font Awesome Pro 5.15.4 by @fontawesome - https://fontawesome.com License - https://fontawesome.com/license (Commercial License) --><path d="M432 424H16a16 16 0 0 0-16 16v16a16 16 0 0 0 16 16h416a16 16 0 0 0 16-16v-16a16 16 0 0 0-16-16zM27.31 363.3l96-96a16 16 0 0 0 0-22.62l-96-96C17.27 138.66 0 145.78 0 160v192c0 14.31 17.33 21.3 27.31 11.3zM435.17 168H204.83A12.82 12.82 0 0 0 192 180.83v22.34A12.82 12.82 0 0 0 204.83 216h230.34A12.82 12.82 0 0 0 448 203.17v-22.34A12.82 12.82 0 0 0 435.17 168zM432 48H16A16 16 0 0 0 0 64v16a16 16 0 0 0 16 16h416a16 16 0 0 0 16-16V64a16 16 0 0 0-16-16zm3.17 248H204.83A12.82 12.82 0 0 0 192 308.83v22.34A12.82 12.82 0 0 0 204.83 344h230.34A12.82 12.82 0 0 0 448 331.17v-22.34A12.82 12.82 0 0 0 435.17 296z"/></svg>