<svg xmlns="http://www.w3.org/2000/svg" viewBox="0 0 576 512"><!-- Font Awesome Pro 5.15.4 by @fontawesome - https://fontawesome.com License - https://fontawesome.com/license (Commercial License) --><path d="M504 224h-56v-8c0-22.1 17.9-40 40-40h8c26.5 0 48-21.5 48-48V80c0-26.5-21.5-48-48-48h-8c-101.5 0-184 82.5-184 184v192c0 39.7 32.3 72 72 72h128c39.7 0 72-32.3 72-72V296c0-39.7-32.3-72-72-72zm24 184c0 13.2-10.8 24-24 24H376c-13.2 0-24-10.8-24-24V216c0-75 61-136 136-136h8v48h-8c-48.5 0-88 39.5-88 88v56h104c13.2 0 24 10.8 24 24v112zM200 224h-56v-8c0-22.1 17.9-40 40-40h8c26.5 0 48-21.5 48-48V80c0-26.5-21.5-48-48-48h-8C82.5 32 0 114.5 0 216v192c0 39.7 32.3 72 72 72h128c39.7 0 72-32.3 72-72V296c0-39.7-32.3-72-72-72zm24 184c0 13.2-10.8 24-24 24H72c-13.2 0-24-10.8-24-24V216c0-75 61-136 136-136h8v48h-8c-48.5 0-88 39.5-88 88v56h104c13.2 0 24 10.8 24 24v112z"/></svg>