<svg xmlns="http://www.w3.org/2000/svg" viewBox="0 0 352 512"><!-- Font Awesome Pro 5.15.4 by @fontawesome - https://fontawesome.com License - https://fontawesome.com/license (Commercial License) --><path d="M205.22 22.09C201.21 7.53 188.61 0 175.97 0c-12.35 0-24.74 7.2-29.19 22.09C100.01 179.85 0 222.72 0 333.91 0 432.35 78.72 512 176 512s176-79.65 176-178.09c0-111.75-99.79-153.34-146.78-311.82zM176 464c-70.58 0-128-58.36-128-130.09 0-43.33 20.67-72.95 51.96-117.79 24.15-34.61 52.98-75.92 76.04-132.46 23.15 56.83 52.02 98.1 76.2 132.66 31.19 44.58 51.8 74.03 51.8 117.6C304 405.64 246.58 464 176 464zm16-64c-44.12 0-80-35.89-80-80 0-8.84-7.16-16-16-16s-16 7.16-16 16c0 61.75 50.25 112 112 112 8.84 0 16-7.16 16-16s-7.16-16-16-16z"/></svg>