<svg viewBox="0 0 20 20" xmlns="http://www.w3.org/2000/svg"><path d="M10 2.5a7.47 7.47 0 014.231 1.31 7.268 7.268 0 012.703 3.454 7.128 7.128 0 01.199 4.353c-.39 1.436-1.475 2.72-2.633 3.677h2.013c0-.226.092-.443.254-.603a.876.876 0 011.229 0c.163.16.254.377.254.603v.853c0 .209-.078.41-.22.567a.873.873 0 01-.547.28l-.101.006h-4.695a.517.517 0 01-.516-.518v-1.265c0-.21.128-.398.317-.489a5.601 5.601 0 002.492-2.371 5.459 5.459 0 00.552-3.693 5.53 5.53 0 00-1.955-3.2A5.71 5.71 0 0010 4.206 5.708 5.708 0 006.419 5.46 5.527 5.527 0 004.46 8.663a5.457 5.457 0 00.554 3.695 5.6 5.6 0 002.497 2.37.55.55 0 01.317.49v1.264c0 .286-.23.518-.516.518H2.618a.877.877 0 01-.614-.25.845.845 0 01-.254-.603v-.853c0-.226.091-.443.254-.603a.876.876 0 011.228 0c.163.16.255.377.255.603h1.925c-1.158-.958-2.155-2.241-2.545-3.678a7.128 7.128 0 01.199-4.352 7.268 7.268 0 012.703-3.455A7.475 7.475 0 0110 2.5z"/></svg>