<svg xmlns="http://www.w3.org/2000/svg" viewBox="0 0 448 512"><!-- Font Awesome Pro 5.15.4 by @fontawesome - https://fontawesome.com License - https://fontawesome.com/license (Commercial License) --><path d="M12.83 344h262.34A12.82 12.82 0 0 0 288 331.17v-22.34A12.82 12.82 0 0 0 275.17 296H12.83A12.82 12.82 0 0 0 0 308.83v22.34A12.82 12.82 0 0 0 12.83 344zm0-256h262.34A12.82 12.82 0 0 0 288 75.17V52.83A12.82 12.82 0 0 0 275.17 40H12.83A12.82 12.82 0 0 0 0 52.83v22.34A12.82 12.82 0 0 0 12.83 88zM432 168H16a16 16 0 0 0-16 16v16a16 16 0 0 0 16 16h416a16 16 0 0 0 16-16v-16a16 16 0 0 0-16-16zm0 256H16a16 16 0 0 0-16 16v16a16 16 0 0 0 16 16h416a16 16 0 0 0 16-16v-16a16 16 0 0 0-16-16z"/></svg>