<svg xmlns="http://www.w3.org/2000/svg" viewBox="0 0 576 512"><!-- Font Awesome Pro 5.15.4 by @fontawesome - https://fontawesome.com License - https://fontawesome.com/license (Commercial License) --><path d="M543.9 96c-6.2 0-12.5 1.8-18.2 5.7L416 170.1v-58.3c0-26.4-23.2-47.8-51.8-47.8H51.8C23.2 64 0 85.4 0 111.8v288.4C0 426.6 23.2 448 51.8 448h312.4c28.6 0 51.8-21.4 51.8-47.8v-58.3l109.7 68.3c5.7 4 12.1 5.7 18.2 5.7 16.6 0 32.1-13 32.1-31.5V127.5C576 109 560.5 96 543.9 96zM368 398.9c-.6.4-1.8 1.1-3.8 1.1H51.8c-2 0-3.2-.6-3.8-1.1V113.1c.6-.4 1.8-1.1 3.8-1.1h312.4c2 0 3.2.6 3.8 1.1v285.8zm160-43.7l-112-69.8v-58.7l112-69.8v198.3zM288 232h-56v-56c0-8.8-7.2-16-16-16h-16c-8.8 0-16 7.2-16 16v56h-56c-8.8 0-16 7.2-16 16v16c0 8.8 7.2 16 16 16h56v56c0 8.8 7.2 16 16 16h16c8.8 0 16-7.2 16-16v-56h56c8.8 0 16-7.2 16-16v-16c0-8.8-7.2-16-16-16z"/></svg>
