<svg xmlns="http://www.w3.org/2000/svg" viewBox="0 0 512 512"><!-- Font Awesome Pro 5.15.4 by @fontawesome - https://fontawesome.com License - https://fontawesome.com/license (Commercial License) --><path d="M455.59 0c-15.81 0-30.62 6.99-41.93 17.15C195.73 211.82 169.77 216.5 179.98 281.99c-41.52 4.96-78.59 24.05-100.32 81.32-2.68 7.08-9.12 11.38-16.64 11.38-12.67 0-51.85-31.56-63.02-39.19C0 429.45 43.26 512 146 512c117.18 0 152.72-87.75 145.06-145.89 56.9-7.01 97.15-62.51 206.45-266.49C505.2 84.65 512 68.48 512 51.66 512 21.52 484.89 0 455.59 0zM222.08 432.89c-16.24 18.52-41.84 27.91-76.08 27.91-35.97 0-58.6-14.93-72.68-35.65 24.56-3.6 45.23-19.96 54.21-43.67 13.79-36.33 32.61-45.55 58.52-48.65l16.43-1.96 36.06 28.51 1.77 13.41c2.07 15.77-1.46 40.97-18.23 60.1zm62.72-117.6l-16.87 2.08L233 289.75l-2.44-15.64C224.3 233.92 444.24 44.8 456.12 54.57c12.12 9.98-121.27 254.56-171.32 260.72z"/></svg>