<svg xmlns="http://www.w3.org/2000/svg" viewBox="0 0 448 512"><!-- Font Awesome Pro 5.15.4 by @fontawesome - https://fontawesome.com License - https://fontawesome.com/license (Commercial License) --><path d="M32 48h32v208c0 88.22 71.78 160 160 160s160-71.78 160-160V48h32a16 16 0 0 0 16-16V16a16 16 0 0 0-16-16H288a16 16 0 0 0-16 16v16a16 16 0 0 0 16 16h32v208a96 96 0 0 1-192 0V48h32a16 16 0 0 0 16-16V16a16 16 0 0 0-16-16H32a16 16 0 0 0-16 16v16a16 16 0 0 0 16 16zm400 416H16a16 16 0 0 0-16 16v16a16 16 0 0 0 16 16h416a16 16 0 0 0 16-16v-16a16 16 0 0 0-16-16z"/></svg>