<svg viewBox="0 0 20 20" xmlns="http://www.w3.org/2000/svg"><circle cx="9.00037" cy="9.79993" r="1.5"/><path d="M5.75 2.75V2h-.035a6.279 6.279 0 0 0-.363.014 4.55 4.55 0 0 0-.785.109 2.13 2.13 0 0 0-1.007.55 2.119 2.119 0 0 0-.525.907c-.181.608-.15 1.314-.108 1.913l.031.408c.038.487.073.93.052 1.353-.025.527-.135.879-.332 1.112a2.013 2.013 0 0 1-.72.528 2.073 2.073 0 0 1-.335.117l-.01.002L1 9.122v.628h2.402a3.28 3.28 0 0 0 .42-.415c.509-.601.654-1.345.687-2.009.025-.527-.02-1.094-.059-1.592-.01-.12-.018-.236-.026-.347-.044-.621-.044-1.067.049-1.377a.629.629 0 0 1 .148-.276.642.642 0 0 1 .312-.157c.13-.032.324-.054.513-.066a6.028 6.028 0 0 1 .286-.01h.015l.004-.001h.75V2h-.75v.75Z"/><path d="M5.75 16.75v.75h-.035a6.861 6.861 0 0 1-.363-.014 4.549 4.549 0 0 1-.785-.109 2.131 2.131 0 0 1-1.007-.55 2.119 2.119 0 0 1-.525-.907c-.181-.608-.15-1.314-.108-1.912l.031-.41c.038-.486.073-.93.052-1.352-.025-.527-.135-.879-.332-1.112a2.013 2.013 0 0 0-.72-.528 2.075 2.075 0 0 0-.335-.117l-.01-.002L1 10.378V9.75h2.402c.144.119.286.257.42.416.509.6.654 1.344.687 2.008.025.527-.02 1.095-.059 1.592-.01.12-.018.236-.026.347-.044.621-.044 1.067.049 1.378a.63.63 0 0 0 .148.275c.052.052.14.113.312.157.13.032.324.054.513.066a6.18 6.18 0 0 0 .286.01l.015.001h.754v1.5h-.75v-.75Z"/><path clip-rule="evenodd" d="M12.251 2H11.5v1.5h.768a4.701 4.701 0 0 1 .286.011c.19.012.383.034.513.066.172.044.26.105.312.157a.63.63 0 0 1 .149.276c.092.31.092.756.048 1.377-.007.11-.017.227-.026.347-.04.498-.084 1.065-.058 1.592.032.664.177 1.408.685 2.009.135.159.277.296.42.415a3.341 3.341 0 0 0-.42.416c-.465.55-.626 1.22-.675 1.838a9.805 9.805 0 0 1 1.5.069c.04-.433.146-.732.32-.939.223-.263.494-.428.72-.528a2.08 2.08 0 0 1 .336-.117l.01-.002.612-.109V9.122l-.613-.11-.01-.001a2.077 2.077 0 0 1-.336-.116 2.013 2.013 0 0 1-.719-.53c-.196-.232-.307-.584-.332-1.111-.02-.422.014-.866.052-1.353l.03-.408c.043-.6.074-1.305-.107-1.913a2.118 2.118 0 0 0-.524-.906 2.13 2.13 0 0 0-1.008-.551 4.548 4.548 0 0 0-.785-.109A7.587 7.587 0 0 0 12.285 2h-.034Z"/><path clip-rule="evenodd" d="M9.003 17.206a.75.75 0 0 1-1.106-1.012l.553.506-.553-.507.001-.001.003-.003.008-.008.026-.028.095-.098a11.676 11.676 0 0 1 1.598-1.324c1.037-.711 2.538-1.481 4.222-1.481 1.684 0 3.185.77 4.223 1.481a11.665 11.665 0 0 1 1.598 1.324l.094.098.026.028.008.008.003.003.001.001-.553.507.553-.506a.75.75 0 0 1-1.105 1.013h-.001l-.002-.003-.017-.018a8.15 8.15 0 0 0-.366-.354c-.257-.235-.63-.55-1.088-.864a8.817 8.817 0 0 0-.782-.48 3 3 0 1 1-5.184 0 8.8 8.8 0 0 0-.782.48 10.184 10.184 0 0 0-1.382 1.144 4.83 4.83 0 0 0-.072.075l-.016.017-.003.002Z"/><circle cx="14.8253" cy="16.1749" r="1.125"/></svg>