<svg viewBox="0 0 20 20" xmlns="http://www.w3.org/2000/svg"><g><path d="M15 2.5H5v4h10v-4zm-1 1v2H6v-2h8z"/><path d="M16 5.5a2.5 2.5 0 012.495 2.336L18.5 8v5a2.5 2.5 0 01-2.336 2.495L16 15.5h-1V14h1a1 1 0 00.993-.883L17 13V8a1 1 0 00-.883-.993L16 7H4a1 1 0 00-.993.883L3 8v5a1 1 0 00.883.993L4 14h1v1.5H4a2.5 2.5 0 01-2.495-2.336L1.5 13V8a2.5 2.5 0 012.336-2.495L4 5.5h12zM6.5 8a.5.5 0 010 1h-2a.5.5 0 010-1h2z"/><path d="M15 12H5v7h10v-7zm-1 1v5H6v-5h8z"/><path d="M7 14h6v1H7zM7 16h6v1H7z"/></g></svg>
