<svg width="12" height="12" viewBox="0 0 12 12" fill="none" xmlns="http://www.w3.org/2000/svg">
<path fill-rule="evenodd" clip-rule="evenodd" d="M1.49998 0.599976C1.00292 0.599976 0.599976 1.00292 0.599976 1.49998V10.5C0.599976 10.997 1.00292 11.4 1.49998 11.4H10.5C10.997 11.4 11.4 10.997 11.4 10.5V1.49998C11.4 1.00292 10.997 0.599976 10.5 0.599976H1.49998ZM1.39998 1.49998C1.39998 1.44475 1.44475 1.39998 1.49998 1.39998H3.59998L3.59998 3.59998H1.39998V1.49998ZM3.59998 4.39998H1.39998V7.59998H3.59998V4.39998ZM4.39998 7.59998V4.39998H10.6V7.59998H4.39998ZM3.59998 8.39998H1.39998V10.5C1.39998 10.5552 1.44475 10.6 1.49998 10.6H3.59998L3.59998 8.39998ZM4.39998 10.6L4.39998 8.39998H10.6V10.5C10.6 10.5552 10.5552 10.6 10.5 10.6H4.39998ZM4.39998 3.59998L4.39998 1.39998H10.5C10.5552 1.39998 10.6 1.44475 10.6 1.49998V3.59998H4.39998Z"/>
</svg>
