<svg width="16" height="16" viewBox="0 0 28 20" fill="none" xmlns="http://www.w3.org/2000/svg">
<path d="M18.4134 0H10.5404C10.5243 0 10.5243 0 10.5081 0C10.4919 0 10.4919 0 10.4758 0H2.58661C1.16397 0 0 1.16308 0 2.58462V18.4154C0 19.8369 1.16397 21 2.58661 21H18.4134C19.836 21 21 19.8369 21 18.4154V2.58462C21 1.16308 19.8522 0 18.4134 0ZM1.2933 7.83462H9.86143V13.1654H1.2933V7.83462ZM11.1547 7.83462H19.7229V13.1654H11.1547V7.83462ZM19.7067 2.58462V6.54231H11.1547V1.29231H18.4296C19.1409 1.29231 19.7067 1.87385 19.7067 2.58462ZM2.58661 1.29231H9.86143V6.54231H1.2933V2.58462C1.2933 1.87385 1.87529 1.29231 2.58661 1.29231ZM1.2933 18.4154V14.4577H9.86143V19.7077H2.58661C1.87529 19.7077 1.2933 19.1262 1.2933 18.4154ZM18.4134 19.7077H11.1547V14.4577H19.7229V18.4154C19.7067 19.1262 19.1409 19.7077 18.4134 19.7077Z" fill="#636363"/>
</svg>
