<svg xmlns="http://www.w3.org/2000/svg" viewBox="0 0 512 512" width="16px" class="layer-group-icon"><path d="M231.2 5.092C239 1.732 247.5 0 256 0C264.5 0 272.1 1.732 280.8 5.092L490.1 94.79C503.4 100.5 512 113.5 512 128C512 142.5 503.4 155.5 490.1 161.2L280.8 250.9C272.1 254.3 264.5 256 256 256C247.5 256 239 254.3 231.2 250.9L21.9 161.2C8.614 155.5 0 142.5 0 128C0 113.5 8.614 100.5 21.9 94.79L231.2 5.092zM256 48C253.1 48 251.1 48.41 250.1 49.21L66.26 128L250.1 206.8C251.1 207.6 253.1 208 256 208C258 208 260 207.6 261.9 206.8L445.7 128L261.9 49.21C260 48.41 258 48 256 48V48zM250.1 334.8C251.1 335.6 253.1 336 256 336C258 336 260 335.6 261.9 334.8L452 253.3C447.4 246.4 446.5 237.2 450.5 229.3C456.5 217.4 470.9 212.6 482.7 218.5L491.8 223.1C504.2 229.3 512 241.9 512 255.7C512 270.4 503.3 283.6 489.9 289.3L280.8 378.9C272.1 382.3 264.5 384 256 384C247.5 384 239 382.3 231.2 378.9L22.81 289.6C8.971 283.7 .0006 270.1 .0006 255C.0006 242.9 5.869 231.5 15.76 224.4L26.05 217C36.84 209.3 51.83 211.8 59.53 222.6C66.15 231.9 65.24 244.3 57.1 252.5L250.1 334.8zM59.53 350.6C66.15 359.9 65.24 372.3 57.1 380.5L250.1 462.8C251.1 463.6 253.1 464 256 464C258 464 260 463.6 261.9 462.8L452 381.3C447.4 374.4 446.5 365.2 450.5 357.3C456.5 345.4 470.9 340.6 482.7 346.5L491.8 351.1C504.2 357.3 512 369.9 512 383.7C512 398.4 503.3 411.6 489.9 417.3L280.8 506.9C272.1 510.3 264.5 512 256 512C247.5 512 239 510.3 231.2 506.9L22.81 417.6C8.971 411.7 .001 398.1 .001 383C.001 370.9 5.87 359.5 15.76 352.4L26.05 345C36.84 337.3 51.83 339.8 59.53 350.6L59.53 350.6z"/></svg>
