<?xml version="1.0" encoding="utf-8"?>
<!-- Svg Vector Icons : http://www.onlinewebfonts.com/icon -->
<!DOCTYPE svg PUBLIC "-//W3C//DTD SVG 1.1//EN" "http://www.w3.org/Graphics/SVG/1.1/DTD/svg11.dtd">
<svg version="1.1" xmlns="http://www.w3.org/2000/svg" xmlns:xlink="http://www.w3.org/1999/xlink" x="0px" y="0px" viewBox="0 0 1000 1000" enable-background="new 0 0 1000 1000" xml:space="preserve">
<metadata> Svg Vector Icons : http://www.onlinewebfonts.com/icon </metadata>
<g><g><g><path d="M465.7,112.5c-13.2-5.4-28.6-2.4-38.9,7.9L211.6,337.1h-166c-19.7,0-35.6,15.9-35.6,35.6v257.2c0,19.7,15.9,35.6,35.6,35.6h165L427,882.2c6.8,6.9,15.9,10.5,25.2,10.5c4.6,0,9.2-0.9,13.7-2.7c13.3-5.5,22-18.5,22-32.9l-0.1-711.6C487.8,131,479,118.1,465.7,112.5z M250.7,604.7c-6.7-6.7-15.8-10.4-25.2-10.4H81.3V408.4h145.1c9.5,0,18.6-3.8,25.3-10.5l164.8-166l0.1,539.1L250.7,604.7z"/><path d="M836.6,500.4c0-133.5-79.4-253.8-202.4-306.4c-17.9-7.8-39,0.5-46.7,18.7c-7.7,18.1,0.7,39,18.8,46.8c96.6,41.5,159.1,136,159.1,241c0,104.4-62.1,198.7-158.3,240.2c-18.1,7.8-26.4,28.8-18.7,46.8c5.8,13.5,18.9,21.5,32.7,21.5c4.7,0,9.5-0.9,14.1-2.9C757.5,753.3,836.6,633.3,836.6,500.4z"/><path d="M678.8,500.2c0-70.6-41.9-133.9-106.8-161.4c-18.1-7.5-39,0.8-46.8,18.9c-7.7,18.1,0.8,39,18.9,46.7c38.6,16.3,63.4,53.9,63.4,95.8c0,41.4-24.6,78.9-62.8,95.5c-18,7.8-26.4,28.8-18.4,46.8C532.2,656,545.3,664,559,664c4.7,0,9.5-0.9,14.1-3C637.3,633.1,678.8,570,678.8,500.2z"/><path d="M694.8,52.9c-18-7.9-39,0.6-46.8,18.7c-7.7,18.1,0.7,39,18.7,46.8c153.2,65.7,252.1,215.6,252.1,382c0,165.9-98.6,315.5-251.2,381.3c-18.1,7.8-26.4,28.8-18.7,46.8c5.8,13.5,18.9,21.6,32.7,21.6c4.7,0,9.4-1,14-2.9C874.5,870,990,694.7,990,500.4C990.1,305.5,874.1,129.8,694.8,52.9z"/></g></g><g></g><g></g><g></g><g></g><g></g><g></g><g></g><g></g><g></g><g></g><g></g><g></g><g></g><g></g><g></g></g>
</svg>