<svg width="20" height="20" viewBox="0 0 20 20" fill="none" xmlns="http://www.w3.org/2000/svg">
<path fill-rule="evenodd" clip-rule="evenodd" d="M5.68 3.41705C5.54745 3.41705 5.44 3.52278 5.44 3.65322V16.3135L9.23296 13.2111C9.67756 12.8475 10.3224 12.8475 10.767 13.2111L14.56 16.3135V3.65322C14.56 3.52278 14.4525 3.41705 14.32 3.41705H5.68ZM4 3.65322C4 2.74017 4.75216 2 5.68 2H14.32C15.2478 2 16 2.74017 16 3.65322V16.8169C16 17.8174 14.8148 18.3645 14.033 17.725L10 14.4264L5.96704 17.725C5.18517 18.3645 4 17.8174 4 16.8169V3.65322Z" fill="#333333"/>
</svg>
