<svg width="32" height="32" viewBox="0 0 32 32" fill="none" xmlns="http://www.w3.org/2000/svg">
<g clip-path="url(#clip0_3673_2905)">
<path d="M21.8357 18.6118C21.8554 18.6256 21.8695 18.6458 21.8759 18.6691C21.8694 18.646 21.8553 18.6256 21.8357 18.6118Z" fill="#141A25"/>
<path d="M21.4393 22.0078C20.7207 22.0976 20.0282 22.3352 19.4049 22.7058C18.6442 23.1467 18.0054 23.7722 17.547 24.5255C17.403 24.7666 16.5976 26.3225 16.5976 26.3225L13.8264 31.4174L13.8557 31.4381C13.9846 31.5222 14.1215 31.5929 14.2645 31.6493C14.6845 31.8011 15.1264 31.8827 15.5726 31.891C17.2484 31.9677 18.925 31.8684 20.6011 31.8807C21.5617 31.9114 22.5231 31.8878 23.4811 31.8102C23.9423 31.7867 24.3915 31.6541 24.7923 31.4233C25.2034 31.1859 25.5567 30.8592 25.8264 30.4671C26.0106 30.1931 26.2021 29.9235 26.369 29.6396C27.166 28.2785 27.959 26.916 28.7477 25.552C28.9961 25.1241 29.2394 24.6934 29.4837 24.2643C29.6062 24.0505 29.7334 23.8379 29.8567 23.6225C30.1689 23.1 30.3428 22.5057 30.3619 21.8965L26.0414 21.9734C26.0414 21.9734 21.8704 21.9563 21.4393 22.0078ZM25.1047 23.2121C25.0783 23.2398 25.0622 23.276 25.0593 23.3144C25.0622 23.2761 25.0782 23.24 25.1043 23.2121H25.1047Z" fill="#AFE229"/>
<path d="M10.9388 29.8522L13.4604 25.2164C13.4604 25.2164 13.7473 24.6621 14.0692 24.0461C13.6576 23.8223 13.2555 23.58 12.8523 23.3421C11.7042 22.6655 10.5114 22.0659 9.38891 21.3451C9.08407 21.1611 8.81119 20.9281 8.58109 20.6555C8.22236 20.2073 8.12897 19.6733 8.101 19.1225C8.03165 17.7582 8.09726 16.3938 8.07369 15.0295C8.06251 14.38 8.07369 13.7302 8.08183 13.0802C8.09539 12.0058 8.59042 11.2367 9.49826 10.7024C10.419 10.1604 11.3391 9.61757 12.2586 9.07377C12.9885 8.64447 13.7196 8.21724 14.4519 7.79215C14.62 7.69527 14.8002 7.61956 14.9757 7.53633C15.8775 7.10759 16.6964 7.37808 17.4944 7.81996C17.5453 7.8481 17.5929 7.88086 17.6422 7.91156C18.0487 8.10923 18.4448 8.32778 18.829 8.5664C19.8821 9.15955 20.9332 9.75644 21.9823 10.3571C22.2982 10.5418 22.6027 10.7458 22.894 10.968C23.537 11.448 23.7362 12.1351 23.7774 12.8951C23.8283 13.8427 23.7986 14.7918 23.7944 15.7404C23.791 16.6715 23.8081 17.602 23.7977 18.5335C25.7569 18.5248 27.9683 18.5335 27.9683 18.5335L30.3649 18.491C30.3557 17.5175 30.3426 16.5441 30.3424 15.5705C30.3424 13.8242 30.3911 12.077 30.2901 10.3315C30.2093 8.93103 29.8397 7.6644 28.6572 6.77606C28.1218 6.36519 27.5622 5.9874 26.9812 5.64472C25.0531 4.53303 23.1224 3.42612 21.1887 2.32409C20.4652 1.91308 19.7724 1.44596 19.0076 1.10982C18.9171 1.05303 18.829 0.992545 18.7363 0.94053C17.2703 0.121934 15.7671 -0.382528 14.1164 0.400595C13.7952 0.553229 13.4653 0.690447 13.1579 0.868832C11.8166 1.64332 10.4791 2.42475 9.14548 3.2131C7.46078 4.20417 5.7775 5.19733 4.09564 6.19248C2.43423 7.17037 1.53247 8.58205 1.51518 10.5612C1.50467 11.7577 1.48839 12.9541 1.51365 14.1502C1.56654 16.6627 1.45567 19.1769 1.59215 21.6881C1.64724 22.7027 1.82237 23.6865 2.4832 24.5139C2.90654 25.0174 3.40846 25.4483 3.96931 25.7897C6.03201 27.1251 8.22305 28.2372 10.3329 29.4904C10.5351 29.6108 10.737 29.7315 10.9388 29.8522Z" fill="#771BFF"/>
</g>
<defs>
<clipPath id="clip0_3673_2905">
<rect width="28.9684" height="32" fill="white" transform="translate(1.5)"/>
</clipPath>
</defs>
</svg>
