<?xml version="1.0" encoding="UTF-8" standalone="no"?><!DOCTYPE svg PUBLIC "-//W3C//DTD SVG 1.1//EN" "http://www.w3.org/Graphics/SVG/1.1/DTD/svg11.dtd"><svg width="100%" height="100%" viewBox="0 0 34 35" version="1.1" xmlns="http://www.w3.org/2000/svg" xmlns:xlink="http://www.w3.org/1999/xlink" xml:space="preserve" style="fill-rule:evenodd;clip-rule:evenodd;stroke-linecap:round;stroke-linejoin:bevel;stroke-miterlimit:1.5;"><g><path d="M20.505,1.722c-2.308,-0.518 -4.702,-0.518 -7.01,0c-0.563,1.641 -0.846,3.33 -0.849,5.065c-0.93,0.384 -1.805,0.889 -2.603,1.503c-1.504,-0.866 -3.107,-1.465 -4.811,-1.798c-1.602,1.74 -2.799,3.813 -3.504,6.071c1.139,1.308 2.46,2.398 3.962,3.268c-0.133,0.997 -0.133,2.008 0,3.005c-1.502,0.87 -2.823,1.959 -3.962,3.268c0.705,2.258 1.902,4.331 3.504,6.07c1.704,-0.333 3.307,-0.932 4.811,-1.797c0.798,0.613 1.673,1.119 2.603,1.503c0.003,1.735 0.286,3.423 0.849,5.065c2.308,0.518 4.702,0.518 7.01,0c0.563,-1.642 0.846,-3.33 0.849,-5.065c0.93,-0.384 1.805,-0.89 2.603,-1.503c1.504,0.865 3.107,1.464 4.811,1.797c1.602,-1.739 2.799,-3.812 3.504,-6.07c-1.139,-1.309 -2.46,-2.398 -3.962,-3.268c0.133,-0.997 0.133,-2.008 0,-3.005c1.502,-0.87 2.823,-1.96 3.962,-3.268c-0.705,-2.258 -1.902,-4.331 -3.504,-6.071c-1.704,0.333 -3.307,0.932 -4.811,1.798c-0.798,-0.614 -1.673,-1.119 -2.603,-1.503c-0.003,-1.735 -0.286,-3.424 -0.849,-5.065Zm-3.505,9.388c3.435,0 6.223,2.789 6.223,6.223c0,3.435 -2.788,6.223 -6.223,6.223c-3.435,0 -6.223,-2.788 -6.223,-6.223c0,-3.434 2.788,-6.223 6.223,-6.223Z" style="fill:none;stroke:#02c7cd;stroke-width:1.5px;"/></g></svg>