<svg width="132" height="126" viewBox="0 0 132 126" xmlns="http://www.w3.org/2000/svg"><title>logo 3</title><g fill="none" fill-rule="evenodd"><path d="M89.342 18.25A24.228 24.228 0 0 0 87 28.678C87 42.11 97.89 53 111.322 53h.104v35.072a12 12 0 0 1-6 10.392L62 123.536a12 12 0 0 1-12 0L6.574 98.464a12 12 0 0 1-6-10.392V37.928a12 12 0 0 1 6-10.392L50 2.464a12 12 0 0 1 12 0L89.342 18.25zM32 41a3 3 0 0 0-3 3v1.213a3 3 0 0 0 3 3h49a3 3 0 0 0 3-3V44a3 3 0 0 0-3-3H32zm0 17.934a3 3 0 0 0-3 3v1.214a3 3 0 0 0 3 3h35.475a3 3 0 0 0 3-3v-1.214a3 3 0 0 0-3-3H32zm0 17.935a3 3 0 0 0-3 3v1.213a3 3 0 0 0 3 3h49a3 3 0 0 0 3-3v-1.213a3 3 0 0 0-3-3H32z" fill="#FFF"/><g fill="#FFF"><path d="M111.5 49C100.178 49 91 39.822 91 28.5S100.178 8 111.5 8 132 17.178 132 28.5 122.822 49 111.5 49zm7.06-17.141c0-.934-.167-1.752-.5-2.452a5.096 5.096 0 0 0-1.364-1.764 5.726 5.726 0 0 0-2.039-1.063 8.721 8.721 0 0 0-2.502-.35c-.267 0-.563.012-.888.037a5.37 5.37 0 0 0-.888.138l.15-2.802h7.13V20h-10.858l-.425 10.132a12.54 12.54 0 0 1 2.164-.562c.809-.142 1.53-.213 2.164-.213.434 0 .868.042 1.301.125.434.083.822.23 1.164.438.341.208.62.488.838.838.216.35.325.784.325 1.3 0 .852-.263 1.494-.788 1.927-.526.434-1.147.65-1.864.65-.7 0-1.305-.2-1.814-.6a2.979 2.979 0 0 1-1.038-1.526L105 33.685c.2.7.513 1.33.938 1.889a6.01 6.01 0 0 0 1.526 1.414c.592.383 1.251.68 1.977.888a8.25 8.25 0 0 0 2.289.312c.867 0 1.71-.129 2.527-.387a6.656 6.656 0 0 0 2.189-1.164 5.627 5.627 0 0 0 1.539-1.964c.383-.792.575-1.73.575-2.814z"/></g></g></svg>