<?xml version="1.0" encoding="UTF-8" standalone="no"?>
<svg width="143px" height="25px" viewBox="0 0 143 25" version="1.1" xmlns="http://www.w3.org/2000/svg" xmlns:xlink="http://www.w3.org/1999/xlink">
    <!-- Generator: Sketch 3.8.3 (29802) - http://www.bohemiancoding.com/sketch -->
    <title>Logo</title>
    <desc>Created with Sketch.</desc>
    <defs></defs>
    <g id="Page-1" stroke="none" stroke-width="1" fill="none" fill-rule="evenodd">
        <g id="Desktop-Portrait" transform="translate(-697.000000, -49.000000)" fill="#FFFFFF">
            <g id="Logo" transform="translate(697.000000, 49.000000)">
                <path d="M18.3865421,1.75777085 L18.2562149,4.49784309 C16.5600576,3.77431684 14.8646435,3.41218213 13.1692293,3.41218213 C10.4518987,3.41218213 8.29440562,4.20754534 6.69674258,5.796793 C5.09907197,7.38751183 4.30042623,9.53217831 4.30042623,12.2326276 C4.30042623,14.9549321 5.09352129,17.099591 6.68044694,18.6680982 C8.26737259,20.2366054 10.4411613,21.0201159 13.201813,21.0201159 C14.9405483,21.0201159 16.6037503,20.6898312 18.1910475,20.0292467 L18.288791,22.8670757 C16.7233401,23.3899089 14.9409198,23.6505862 12.941151,23.6505862 C9.22375014,23.6505862 6.30167372,22.6389841 4.17416343,20.6157723 C2.04666073,18.5940393 0.982909379,15.8524883 0.982909379,12.3940693 C0.982909379,8.89233419 2.07369375,6.09745717 4.25562648,4.00907422 C6.43718765,1.92069886 9.3651939,0.876503592 13.0388945,0.876503592 C15.016817,0.876503592 16.7992449,1.16976643 18.3865421,1.75777085 L18.3865421,1.75777085 Z" id="Fill-8"></path>
                <path d="M39.2291393,23.5794924 L35.1533329,23.5794924 L25.2089264,12.5244117 L25.2089264,23.5794924 L22.0572854,23.5794924 L22.0572854,0.947597383 L25.2089264,0.947597383 L25.2089264,10.8936983 L34.5668415,0.947597383 L38.3819858,0.947597383 L28.2087654,11.512802 L39.2291393,23.5794924 L39.2291393,23.5794924 Z" id="Fill-9"></path>
                <path d="M40.3947138,23.5794924 L40.3947138,1.23197255 L52.361471,1.23197255 L52.8117055,3.10410904 L42.3615274,3.10410904 L42.3615274,11.2565686 L51.2240367,11.2565686 L51.2240367,13.0813093 L42.3615274,13.0813093 L42.3615274,21.6836579 L53.2856364,21.6836579 L52.8590986,23.5794924 L40.3947138,23.5794924 L40.3947138,23.5794924 Z" id="Fill-10"></path>
                <path d="M128.051201,0.746557971 L141.203007,0.746557971 L141.203007,3.29613861 L131.145744,3.29613861 L131.011199,9.93180212 C131.594231,9.81923729 132.149225,9.73481493 132.676197,9.67853252 C133.203169,9.6222501 133.724527,9.59410932 134.240286,9.59410932 C136.695751,9.59410932 138.635426,10.2526037 140.059371,11.5696122 C141.483316,12.8866207 142.195278,14.6707465 142.195278,16.9220431 C142.195278,19.4097258 141.343166,21.3795808 139.638917,22.8316671 C137.934668,24.2837534 135.61939,25.0097856 132.693015,25.0097856 C131.863315,25.0097856 131.016809,24.9309914 130.153472,24.7734007 C129.290135,24.6158099 128.438023,24.3850555 127.597111,24.0811304 L127.563475,20.9743567 C128.281053,21.3908465 129.077105,21.7088374 129.951654,21.9283388 C130.826203,22.1478402 131.751193,22.2575893 132.726651,22.2575893 C134.576659,22.2575893 136.051036,21.7763819 137.149829,20.8139526 C138.248621,19.8515233 138.798009,18.5767457 138.798009,16.9895816 C138.798009,15.5262388 138.273848,14.3555822 137.225511,13.4775765 C136.177173,12.5995708 134.77287,12.1605746 133.01256,12.1605746 C132.328618,12.1605746 131.549384,12.2224843 130.674835,12.3463056 C129.800286,12.4701269 128.852872,12.6614843 127.832565,12.9203834 L128.051201,0.746557971 Z" id="5"></path>
                <path d="M56.317316,15.462955 C56.317316,17.3202813 56.9763758,18.9035988 58.2974527,20.2143863 C59.6170586,21.5251813 61.206206,22.1813145 63.0619453,22.1813145 C64.9191633,22.1813145 66.5009023,21.5251813 67.8116209,20.2143863 C69.1208534,18.9035988 69.7769558,17.3202813 69.7769558,15.462955 C69.7769558,13.6056288 69.1208534,12.020825 67.8116209,10.7100375 C66.5009023,9.39961398 64.9191633,8.74421644 63.0619453,8.74421644 C61.206206,8.74421644 59.6170586,9.39961398 58.2974527,10.7100375 C56.9763758,12.020825 56.317316,13.6056288 56.317316,15.462955 L56.317316,15.462955 Z M69.7769558,20.3817581 C68.9268374,21.550358 67.9301037,22.4419917 66.7837822,23.0581379 C65.6374607,23.6742841 64.3948743,23.9823572 63.0575018,23.9823572 C60.6167572,23.9823572 58.5714455,23.1647824 56.9200956,21.5296252 C55.2702243,19.894468 54.4452887,17.872735 54.4452887,15.462955 C54.4452887,13.0531675 55.2672594,11.0388434 56.9126871,9.41961124 C58.5581148,7.80074306 60.6063914,6.9905696 63.0575018,6.9905696 C64.4585555,6.9905696 65.729282,7.29864269 66.8711599,7.91478888 C68.0115591,8.53093506 68.9801527,9.42849891 69.7769558,10.6063581 L69.7769558,0.781711871 L71.554197,0.568430499 L71.554197,23.5794924 L69.7769558,23.7927737 L69.7769558,20.3817581 L69.7769558,20.3817581 Z" id="Fill-11"></path>
                <path d="M75.1190452,23.8401696 L75.1190452,7.34603855 L76.9910725,7.13275718 L76.9910725,23.5794924 L75.1190452,23.8401696 L75.1190452,23.8401696 Z M74.6688107,2.21988428 L76.0298798,0.544732568 L77.4413069,2.0451111 L76.0298798,3.72025522 L74.6688107,2.21988428 L74.6688107,2.21988428 Z" id="Fill-12"></path>
                <path d="M87.5656556,23.5794924 C87.2472346,23.6505862 86.9406582,23.7039046 86.6488987,23.7394553 C86.3571316,23.7749984 86.0846175,23.7927737 85.8298853,23.7927737 C84.1948234,23.7927737 83.0381361,23.3365905 82.3583371,22.4227376 C81.6785456,21.5103711 81.3393855,19.8381845 81.3393855,17.4061853 L81.3393855,9.12338332 L78.9934271,9.12338332 L79.5147512,7.34603855 L81.3393855,7.34603855 L81.3393855,3.49216359 L83.1640197,2.39317113 L83.1640197,7.34603855 L87.405702,7.34603855 L87.405702,9.12338332 L83.1640197,9.12338332 L83.1640197,17.6283544 C83.1640197,19.3775574 83.3684015,20.5372696 83.7756864,21.108985 C84.1829713,21.6821792 84.9012763,21.9680331 85.929115,21.9680331 C86.1512711,21.9680331 86.3971162,21.948779 86.6666654,21.9102708 C86.9376932,21.8717626 87.2368688,21.8199229 87.5656556,21.7547517 L87.5656556,23.5794924 L87.5656556,23.5794924 Z" id="Fill-13"></path>
                <path d="M90.452191,15.462955 C90.452191,17.3202813 91.1112508,18.9035988 92.4323353,20.2143863 C93.7519335,21.5251813 95.3410885,22.1813145 97.1968203,22.1813145 C99.0540382,22.1813145 100.635785,21.5251813 101.946496,20.2143863 C103.255736,18.9035988 103.911831,17.3202813 103.911831,15.462955 C103.911831,13.6056288 103.255736,12.020825 101.946496,10.7100375 C100.635785,9.39961398 99.0540382,8.74421644 97.1968203,8.74421644 C95.3410885,8.74421644 93.7519335,9.39961398 92.4323353,10.7100375 C91.1112508,12.020825 90.452191,13.6056288 90.452191,15.462955 L90.452191,15.462955 Z M88.5801636,15.462955 C88.5801636,13.0531675 89.4021343,11.0388434 91.0490483,9.41961124 C92.694476,7.80074306 94.7442312,6.9905696 97.1968203,6.9905696 C99.6390435,6.9905696 101.68139,7.80074306 103.322382,9.41961124 C104.963366,11.0388434 105.783858,13.0531675 105.783858,15.462955 C105.783858,17.8831014 104.963366,19.9077995 103.322382,21.5385129 C101.68139,23.1677399 99.6390435,23.9823572 97.1968203,23.9823572 C94.7545971,23.9823572 92.7078067,23.1647824 91.0564568,21.5296252 C89.4050992,19.894468 88.5801636,17.872735 88.5801636,15.462955 L88.5801636,15.462955 Z" id="Fill-14"></path>
                <path d="M108.378634,23.7927737 L108.378634,7.34603855 L110.203268,7.13275718 L110.203268,10.646345 C110.860842,9.37221538 111.665046,8.41688925 112.615873,7.78001022 C113.565213,7.14313119 114.66562,6.82468409 115.918573,6.82468409 L116.364371,6.82468409 L115.616447,8.62572679 C113.769595,8.80643014 112.405561,9.61215977 111.524345,11.0432873 C110.643129,12.4755295 110.203268,14.6127871 110.203268,17.4550599 L110.203268,23.5794924 L108.378634,23.7927737 L108.378634,23.7927737 Z" id="Fill-15"></path>
                <path d="M118.945773,1.48581136 L117.769833,1.48581136 L117.769833,5.212309 L117.177419,5.212309 L117.177419,1.48581136 L116,1.48581136 L116,1 L118.945773,1 L118.945773,1.48581136 L118.945773,1.48581136 Z" id="Fill-16"></path>
                <path d="M124.508274,5.212309 L123.939557,5.212309 L123.939557,1.90422202 C123.939557,1.70205024 123.955845,1.48358944 123.988429,1.24883206 C123.935113,1.46729285 123.877347,1.66132013 123.812187,1.83164948 L122.476293,5.212309 L121.954969,5.212309 L120.624997,1.7768447 C120.580569,1.66354205 120.534655,1.49173395 120.485783,1.26067723 C120.50948,1.64132287 120.521324,1.85979124 120.521324,1.91681036 L120.521324,5.212309 L120,5.212309 L120,1 L120.891582,1 L122.135654,4.26512737 C122.193413,4.41546704 122.227476,4.59541965 122.239328,4.80573593 C122.267468,4.53024844 122.300051,4.34881709 122.337071,4.25920479 L123.628537,1 L124.508274,1 L124.508274,5.212309 L124.508274,5.212309 Z" id="Fill-17"></path>
            </g>
        </g>
    </g>
</svg>