<svg width="20" height="20" viewBox="0 0 20 20" fill="none" xmlns="http://www.w3.org/2000/svg">
<path fill-rule="evenodd" clip-rule="evenodd" d="M3.5 6.5C4.32843 6.5 5 5.82843 5 5C5 4.17157 4.32843 3.5 3.5 3.5C2.67157 3.5 2 4.17157 2 5C2 5.82843 2.67157 6.5 3.5 6.5ZM8 4C7.44772 4 7 4.44772 7 5C7 5.55228 7.44771 6 8 6H17C17.5523 6 18 5.55228 18 5C18 4.44772 17.5523 4 17 4H8ZM8 9C7.44772 9 7 9.44772 7 10C7 10.5523 7.44771 11 8 11H17C17.5523 11 18 10.5523 18 10C18 9.44772 17.5523 9 17 9H8ZM7 15C7 14.4477 7.44772 14 8 14H17C17.5523 14 18 14.4477 18 15C18 15.5523 17.5523 16 17 16H8C7.44771 16 7 15.5523 7 15ZM5 10C5 10.8284 4.32843 11.5 3.5 11.5C2.67157 11.5 2 10.8284 2 10C2 9.17157 2.67157 8.5 3.5 8.5C4.32843 8.5 5 9.17157 5 10ZM3.5 16.5C4.32843 16.5 5 15.8284 5 15C5 14.1716 4.32843 13.5 3.5 13.5C2.67157 13.5 2 14.1716 2 15C2 15.8284 2.67157 16.5 3.5 16.5Z"/>
</svg>
