<svg width="14" height="10" viewBox="0 0 14 10" fill="none" xmlns="http://www.w3.org/2000/svg">
<path fill-rule="evenodd" clip-rule="evenodd" d="M2.52783 1.20837C2.52783 1.45447 2.44352 1.66182 2.2749 1.83044C2.10628 1.99906 1.89893 2.08337 1.65283 2.08337C1.40674 2.08337 1.19938 1.99906 1.03076 1.83044C0.862141 1.66182 0.777832 1.45447 0.777832 1.20837C0.777832 0.971394 0.862141 0.766318 1.03076 0.59314C1.19938 0.419962 1.40674 0.333374 1.65283 0.333374C1.89893 0.333374 2.10628 0.419962 2.2749 0.59314C2.44352 0.766318 2.52783 0.971394 2.52783 1.20837ZM2.52783 4.70837C2.52783 4.95447 2.44352 5.16182 2.2749 5.33044C2.10628 5.49907 1.89893 5.58337 1.65283 5.58337C1.40674 5.58337 1.19938 5.49907 1.03076 5.33044C0.862141 5.16182 0.777832 4.95447 0.777832 4.70837C0.777832 4.47139 0.862141 4.26631 1.03076 4.09314C1.19938 3.91996 1.40674 3.83337 1.65283 3.83337C1.89893 3.83337 2.10628 3.91996 2.2749 4.09314C2.44352 4.26631 2.52783 4.47139 2.52783 4.70837ZM2.52783 8.20837C2.52783 8.45446 2.44352 8.66182 2.2749 8.83044C2.10628 8.99906 1.89893 9.08336 1.65283 9.08336C1.40674 9.08336 1.19938 8.99906 1.03076 8.83044C0.862141 8.66182 0.777832 8.45446 0.777832 8.20837C0.777832 7.97139 0.862141 7.76631 1.03076 7.59314C1.19938 7.41996 1.40674 7.33337 1.65283 7.33337C1.89893 7.33337 2.10628 7.41996 2.2749 7.59314C2.44352 7.76631 2.52783 7.97139 2.52783 8.20837ZM12.5903 1.64587H3.84033C3.72184 1.64587 3.6193 1.60258 3.53271 1.51599C3.44613 1.4294 3.40283 1.32686 3.40283 1.20837C3.40283 1.08988 3.44613 0.987346 3.53271 0.900757C3.6193 0.814168 3.72184 0.770874 3.84033 0.770874H12.5903C12.7088 0.770874 12.8114 0.814168 12.898 0.900757C12.9845 0.987346 13.0278 1.08988 13.0278 1.20837C13.0278 1.32686 12.9845 1.4294 12.898 1.51599C12.8114 1.60258 12.7088 1.64587 12.5903 1.64587ZM12.5903 5.14588H3.84033C3.72184 5.14588 3.6193 5.10258 3.53271 5.01599C3.44613 4.9294 3.40283 4.82686 3.40283 4.70837C3.40283 4.58988 3.44613 4.48734 3.53271 4.40075C3.6193 4.31416 3.72184 4.27087 3.84033 4.27087H12.5903C12.7088 4.27087 12.8114 4.31416 12.898 4.40075C12.9845 4.48734 13.0278 4.58988 13.0278 4.70837C13.0278 4.82686 12.9845 4.9294 12.898 5.01599C12.8114 5.10258 12.7088 5.14588 12.5903 5.14588ZM12.5903 8.64586H3.84033C3.72184 8.64586 3.6193 8.60257 3.53271 8.51598C3.44613 8.42939 3.40283 8.32686 3.40283 8.20837C3.40283 8.08988 3.44613 7.98734 3.53271 7.90075C3.6193 7.81417 3.72184 7.77087 3.84033 7.77087H12.5903C12.7088 7.77087 12.8114 7.81417 12.898 7.90075C12.9845 7.98734 13.0278 8.08988 13.0278 8.20837C13.0278 8.32686 12.9845 8.42939 12.898 8.51598C12.8114 8.60257 12.7088 8.64586 12.5903 8.64586Z"/>
</svg>
