<svg viewBox="0 0 44 44" xmlns="http://www.w3.org/2000/svg"><path d="M35 29a1 1 0 0 1 1 1v1a1 1 0 0 1-1 1H18a1 1 0 0 1-1-1v-1a1 1 0 0 1 1-1h17zm0-9a1 1 0 0 1 1 1v1a1 1 0 0 1-1 1H18a1 1 0 0 1-1-1v-1a1 1 0 0 1 1-1h17zm0-9a1 1 0 0 1 1 1v1a1 1 0 0 1-1 1H18a1 1 0 0 1-1-1v-1a1 1 0 0 1 1-1h17z" fill-opacity=".163"/><path d="M11.88 8.7V7.558h-1.234V8.7h1.234zm0 5.3V9.333h-1.234V14h1.234zm2.5 0v-1.235h-1.234V14h1.235zm-4.75 4.7v-1.142H8.395V18.7H9.63zm0 5.3v-4.667H8.395V24H9.63zm2.5-5.3v-1.142h-1.234V18.7h1.235zm0 5.3v-4.667h-1.234V24h1.235zm2.501 0v-1.235h-1.235V24h1.235zM7.38 28.7v-1.142H6.145V28.7H7.38zm0 5.3v-4.667H6.145V34H7.38zm2.5-5.3v-1.142H8.646V28.7H9.88zm0 5.3v-4.667H8.646V34H9.88zm2.5-5.3v-1.142h-1.234V28.7h1.235zm0 5.3v-4.667h-1.234V34h1.235zm2.501 0v-1.235h-1.235V34h1.235z"/></svg>