<svg viewBox="0 0 44 44" xmlns="http://www.w3.org/2000/svg"><g><path d="M35 29a1 1 0 0 1 1 1v1a1 1 0 0 1-1 1H18a1 1 0 0 1-1-1v-1a1 1 0 0 1 1-1h17zm0-9a1 1 0 0 1 1 1v1a1 1 0 0 1-1 1H18a1 1 0 0 1-1-1v-1a1 1 0 0 1 1-1h17zm0-9a1 1 0 0 1 1 1v1a1 1 0 0 1-1 1H18a1 1 0 0 1-1-1v-1a1 1 0 0 1 1-1h17z" fill-opacity=".163"/><path d="M11.916 15V8.558h-1.301V15h1.3zm2.465 0v-1.235h-1.235V15h1.235zM9.665 25v-6.442h-1.3V25h1.3zm2.5 0v-6.442h-1.3V25h1.3zm2.466 0v-1.235h-1.235V25h1.235zM7.415 34v-6.442h-1.3V34h1.3zm2.5 0v-6.442h-1.3V34h1.3zm2.501 0v-6.442h-1.3V34h1.3zm2.465 0v-1.235h-1.235V34h1.235z"/></g></svg>
