<svg viewBox="0 0 44 44" xmlns="http://www.w3.org/2000/svg"><g><path d="M35 29a1 1 0 0 1 1 1v1a1 1 0 0 1-1 1H18a1 1 0 0 1-1-1v-1a1 1 0 0 1 1-1h17zm0-9a1 1 0 0 1 1 1v1a1 1 0 0 1-1 1H18a1 1 0 0 1-1-1v-1a1 1 0 0 1 1-1h17zm0-9a1 1 0 0 1 1 1v1a1 1 0 0 1-1 1H18a1 1 0 0 1-1-1v-1a1 1 0 0 1 1-1h17z" fill-opacity=".163"/><path d="M5.714 15.11c.624 0 1.11-.22 1.46-.66.421-.533.632-1.408.632-2.627 0-1.222-.21-2.096-.629-2.624-.351-.445-.839-.668-1.463-.668-.624 0-1.11.22-1.459.66-.422.533-.633 1.406-.633 2.619 0 1.236.192 2.095.576 2.577.384.482.89.723 1.516.723zm0-1.024a.614.614 0 01-.398-.14c-.115-.094-.211-.283-.287-.565-.077-.283-.115-.802-.115-1.558s.043-1.294.128-1.613c.064-.246.155-.417.272-.512a.617.617 0 01.4-.143c.15 0 .282.048.398.143.116.095.211.284.288.567.076.283.114.802.114 1.558s-.043 1.292-.128 1.608c-.064.246-.155.417-.272.512a.617.617 0 01-.4.143zm6.078.914V8.531H10.79c-.14.393-.4.736-.778 1.03-.378.295-.728.495-1.05.6v1.121a4.257 4.257 0 001.595-.936V15h1.235zm3.344 0v-1.235h-1.235V15h1.235zM5.714 24.11c.624 0 1.11-.22 1.46-.66.421-.533.632-1.408.632-2.627 0-1.222-.21-2.096-.629-2.624-.351-.445-.839-.668-1.463-.668-.624 0-1.11.22-1.459.66-.422.533-.633 1.406-.633 2.619 0 1.236.192 2.095.576 2.577.384.482.89.723 1.516.723zm0-1.024a.614.614 0 01-.398-.14c-.115-.094-.211-.283-.287-.565-.077-.283-.115-.802-.115-1.558s.043-1.294.128-1.613c.064-.246.155-.417.272-.512a.617.617 0 01.4-.143c.15 0 .282.048.398.143.116.095.211.284.288.567.076.283.114.802.114 1.558s-.043 1.292-.128 1.608c-.064.246-.155.417-.272.512a.617.617 0 01-.4.143zm7.088.914v-1.147H10.35c.065-.111.149-.226.253-.343.104-.117.35-.354.74-.712.39-.357.66-.631.81-.821.225-.288.39-.562.493-.824.104-.263.156-.539.156-.829 0-.51-.181-.936-.544-1.279-.364-.342-.863-.514-1.499-.514-.58 0-1.063.148-1.45.444-.387.296-.617.784-.69 1.463l1.23.124c.024-.36.112-.619.264-.774.152-.155.357-.233.615-.233.261 0 .465.074.613.222.148.148.222.36.222.635 0 .25-.085.501-.255.756-.126.185-.467.536-1.024 1.055-.691.641-1.154 1.156-1.388 1.544-.235.389-.375.8-.422 1.233h4.328zm2.334 0v-1.235h-1.235V24h1.235zM5.714 34.11c.624 0 1.11-.22 1.46-.66.421-.533.632-1.408.632-2.627 0-1.222-.21-2.096-.629-2.624-.351-.445-.839-.668-1.463-.668-.624 0-1.11.22-1.459.66-.422.533-.633 1.406-.633 2.619 0 1.236.192 2.095.576 2.577.384.482.89.723 1.516.723zm0-1.024a.614.614 0 01-.398-.14c-.115-.094-.211-.283-.287-.565-.077-.283-.115-.802-.115-1.558s.043-1.294.128-1.613c.064-.246.155-.417.272-.512a.617.617 0 01.4-.143c.15 0 .282.048.398.143.116.095.211.284.288.567.076.283.114.802.114 1.558s-.043 1.292-.128 1.608c-.064.246-.155.417-.272.512a.617.617 0 01-.4.143zm4.992 1.024c.616 0 1.13-.2 1.543-.598.413-.398.62-.88.62-1.446 0-.39-.111-.722-.332-.997a1.5 1.5 0 00-.886-.532c.618-.337.927-.788.927-1.353 0-.399-.15-.756-.452-1.073-.366-.386-.853-.58-1.46-.58-.354 0-.674.067-.96.2a1.617 1.617 0 00-.667.55c-.16.232-.28.544-.359.933l1.139.194c.032-.282.123-.495.272-.642.15-.146.33-.22.54-.22.214 0 .386.065.515.194s.193.302.193.518c0 .255-.088.46-.264.613-.175.154-.43.227-.764.218l-.136 1.006c.22-.061.408-.092.566-.092.24 0 .444.09.611.272.167.182.25.428.25.739 0 .328-.086.589-.26.782a.833.833 0 01-.644.29.841.841 0 01-.607-.242c-.167-.16-.27-.394-.308-.698l-1.195.145c.062.542.284.98.668 1.316.384.335.867.503 1.45.503zm4.43-.11v-1.235h-1.235V34h1.235z"/></g></svg>
