<svg viewBox="0 0 44 44" xmlns="http://www.w3.org/2000/svg"><g><path d="M35 29a1 1 0 0 1 1 1v1a1 1 0 0 1-1 1H18a1 1 0 0 1-1-1v-1a1 1 0 0 1 1-1h17zm0-9a1 1 0 0 1 1 1v1a1 1 0 0 1-1 1H18a1 1 0 0 1-1-1v-1a1 1 0 0 1 1-1h17zm0-9a1 1 0 0 1 1 1v1a1 1 0 0 1-1 1H18a1 1 0 0 1-1-1v-1a1 1 0 0 1 1-1h17z" fill-opacity=".163"/><path d="M10.29 15V8.531H9.286c-.14.393-.4.736-.778 1.03-.378.295-.728.495-1.05.6v1.121a4.257 4.257 0 001.595-.936V15h1.235zm3.343 0v-1.235h-1.235V15h1.235zM11.3 24v-1.147H8.848c.064-.111.148-.226.252-.343.104-.117.351-.354.74-.712.39-.357.66-.631.81-.821.225-.288.39-.562.494-.824.104-.263.156-.539.156-.829 0-.51-.182-.936-.545-1.279-.363-.342-.863-.514-1.499-.514-.58 0-1.063.148-1.45.444-.387.296-.617.784-.69 1.463l1.23.124c.024-.36.112-.619.264-.774.153-.155.358-.233.616-.233.26 0 .465.074.613.222.148.148.222.36.222.635 0 .25-.085.501-.255.756-.126.185-.468.536-1.024 1.055-.692.641-1.155 1.156-1.389 1.544-.234.389-.375.8-.422 1.233H11.3zm2.333 0v-1.235h-1.235V24h1.235zM9.204 34.11c.615 0 1.129-.2 1.542-.598.413-.398.62-.88.62-1.446 0-.39-.11-.722-.332-.997a1.5 1.5 0 00-.886-.532c.619-.337.928-.788.928-1.353 0-.399-.151-.756-.453-1.073-.366-.386-.852-.58-1.459-.58-.354 0-.674.067-.96.2a1.617 1.617 0 00-.668.55c-.16.232-.28.544-.358.933l1.138.194c.032-.282.123-.495.272-.642.15-.146.33-.22.54-.22.215 0 .386.065.515.194s.193.302.193.518c0 .255-.087.46-.263.613-.176.154-.43.227-.765.218l-.136 1.006c.22-.061.409-.092.567-.092.24 0 .444.09.61.272.168.182.251.428.251.739 0 .328-.087.589-.261.782a.833.833 0 01-.644.29.841.841 0 01-.607-.242c-.167-.16-.27-.394-.307-.698l-1.196.145c.062.542.285.98.668 1.316.384.335.868.503 1.45.503zm4.43-.11v-1.235h-1.236V34h1.235z"/></g></svg>
