<svg viewBox="0 0 44 44" xmlns="http://www.w3.org/2000/svg"><path d="M35 29a1 1 0 0 1 1 1v1a1 1 0 0 1-1 1H18a1 1 0 0 1-1-1v-1a1 1 0 0 1 1-1h17zm0-9a1 1 0 0 1 1 1v1a1 1 0 0 1-1 1H18a1 1 0 0 1-1-1v-1a1 1 0 0 1 1-1h17zm0-9a1 1 0 0 1 1 1v1a1 1 0 0 1-1 1H18a1 1 0 0 1-1-1v-1a1 1 0 0 1 1-1h17z" fill-opacity=".163"/><path d="M7.88 15l.532-1.463h2.575L11.549 15h1.415l-2.58-6.442H9.01L6.5 15h1.38zm2.69-2.549H8.811l.87-2.39.887 2.39zM14.88 15v-1.235h-1.234V15h1.234zM9.352 25c.83-.006 1.352-.02 1.569-.044.346-.038.636-.14.872-.305.236-.166.422-.387.558-.664.137-.277.205-.562.205-.855 0-.372-.106-.695-.317-.97-.21-.276-.512-.471-.905-.585a1.51 1.51 0 0 0 .661-.567 1.5 1.5 0 0 0 .244-.83c0-.28-.066-.53-.197-.754a1.654 1.654 0 0 0-.495-.539 1.676 1.676 0 0 0-.672-.266c-.25-.042-.63-.063-1.14-.063H7.158V25h2.193zm.142-3.88H8.46v-1.49h.747c.612 0 .983.007 1.112.022.217.026.38.102.49.226.11.125.165.287.165.486a.68.68 0 0 1-.192.503.86.86 0 0 1-.525.23 11.47 11.47 0 0 1-.944.023h.18zm.17 2.795H8.46v-1.723h1.05c.592 0 .977.03 1.154.092.177.062.313.16.406.295a.84.84 0 0 1 .14.492c0 .228-.06.41-.181.547a.806.806 0 0 1-.473.257c-.126.026-.423.04-.892.04zM14.88 25v-1.235h-1.234V25h1.234zm-5.018 9.11c.691 0 1.262-.17 1.711-.512.45-.341.772-.864.965-1.567l-1.261-.4c-.109.472-.287.818-.536 1.037-.25.22-.547.33-.892.33-.47 0-.85-.173-1.143-.519-.293-.345-.44-.925-.44-1.74 0-.767.15-1.322.447-1.665.297-.343.684-.514 1.162-.514.346 0 .64.096.881.29.242.193.4.457.477.79l1.288-.307c-.147-.516-.367-.911-.66-1.187-.492-.465-1.132-.698-1.92-.698-.902 0-1.63.296-2.184.89-.554.593-.83 1.426-.83 2.498 0 1.014.275 1.813.825 2.397.551.585 1.254.877 2.11.877zM14.88 34v-1.235h-1.234V34h1.234z"/></svg>