<svg viewBox="0 0 44 44" xmlns="http://www.w3.org/2000/svg"><path d="M35 29a1 1 0 0 1 1 1v1a1 1 0 0 1-1 1H18a1 1 0 0 1-1-1v-1a1 1 0 0 1 1-1h17zm0-9a1 1 0 0 1 1 1v1a1 1 0 0 1-1 1H18a1 1 0 0 1-1-1v-1a1 1 0 0 1 1-1h17zm0-9a1 1 0 0 1 1 1v1a1 1 0 0 1-1 1H18a1 1 0 0 1-1-1v-1a1 1 0 0 1 1-1h17z" fill-opacity=".163"/><path d="M9.62 14.105c.272 0 .528-.05.768-.153s.466-.257.677-.462c.009.024.023.072.044.145.047.161.086.283.119.365h1.221a2.649 2.649 0 0 1-.222-.626c-.04-.195-.059-.498-.059-.908l.013-1.441c0-.536-.055-.905-.165-1.105-.11-.201-.3-.367-.569-.497-.27-.13-.68-.195-1.23-.195-.607 0-1.064.108-1.371.325-.308.217-.525.55-.65 1.002l1.12.202c.076-.217.176-.369.299-.455.123-.086.294-.13.514-.13.325 0 .546.05.663.152.118.101.176.27.176.508v.123c-.222.093-.622.194-1.2.303-.427.082-.755.178-.982.288-.227.11-.403.268-.53.474a1.327 1.327 0 0 0-.188.706c0 .398.138.728.415.988.277.261.656.391 1.136.391zm.368-.87a.675.675 0 0 1-.492-.189.606.606 0 0 1-.193-.448c0-.176.08-.32.241-.435.106-.07.33-.142.673-.215a7.19 7.19 0 0 0 .751-.19v.247c0 .296-.016.496-.048.602a.773.773 0 0 1-.295.409 1.07 1.07 0 0 1-.637.22zm4.645.765v-1.235h-1.235V14h1.235zM10.2 25.105c.542 0 1.003-.215 1.382-.646.38-.43.57-1.044.57-1.84 0-.771-.187-1.362-.559-1.774a1.82 1.82 0 0 0-1.41-.617c-.522 0-.973.216-1.354.65v-2.32H7.594V25h1.147v-.686a1.9 1.9 0 0 0 .67.592c.26.133.523.2.79.2zm-.299-.975c-.354 0-.638-.164-.852-.492-.153-.232-.229-.59-.229-1.073 0-.468.098-.818.295-1.048a.93.93 0 0 1 .738-.345c.302 0 .55.118.743.354.193.236.29.62.29 1.154 0 .5-.096.868-.288 1.1-.192.233-.424.35-.697.35zm4.478.87v-1.235h-1.234V25h1.234zm-4.017 9.105c.6 0 1.08-.142 1.437-.426.357-.284.599-.704.725-1.261l-1.213-.207c-.061.326-.167.555-.316.688a.832.832 0 0 1-.576.2.916.916 0 0 1-.75-.343c-.185-.228-.278-.62-.278-1.173 0-.498.091-.853.274-1.066.183-.212.429-.318.736-.318.232 0 .42.061.565.184.145.123.238.306.28.55l1.216-.22c-.146-.501-.387-.874-.722-1.119-.336-.244-.788-.366-1.356-.366-.695 0-1.245.214-1.653.643-.407.43-.61 1.03-.61 1.8 0 .762.202 1.358.608 1.788.406.431.95.646 1.633.646zM14.633 34v-1.235h-1.235V34h1.235z"/></svg>