<?xml version="1.0" encoding="UTF-8" standalone="no"?>
<svg width="20px" height="20px" viewBox="0 0 20 20" version="1.1" xmlns="http://www.w3.org/2000/svg" xmlns:xlink="http://www.w3.org/1999/xlink" xmlns:sketch="http://www.bohemiancoding.com/sketch/ns">
    <!-- Generator: Sketch 3.5.2 (25235) - http://www.bohemiancoding.com/sketch -->
    <title>numberedlist</title>
    <desc>Created with Sketch.</desc>
    <defs></defs>
    <g id="Page-1" stroke="none" stroke-width="1" fill="none" fill-rule="evenodd" sketch:type="MSPage">
        <g id="numberedlist" sketch:type="MSArtboardGroup" fill="#454545">
            <g id="icon:numberedlist" sketch:type="MSLayerGroup" transform="translate(2.000000, 2.000000)">
                <path d="M5,15 L15,15 L15,14 L5,14 L5,15 Z M4,2 L4,3 L17,3 L17,2 L4,2 L4,2 Z M5,8 L5,9 L16,9 L16,8 L5,8 L5,8 Z" id="path4634" sketch:type="MSShapeGroup"></path>
                <g id="path4712-path-+-path4712-path-+-path4712-path-copy" sketch:type="MSShapeGroup">
                    <path d="M0,0.5 C0,0.77699 0.223,1 0.5,1 L1,1 L1,4.5 C1,4.77699 1.223,5 1.5,5 C1.777,5 2,4.77699 2,4.5 L2,0.5 C2,0.223 1.777,0 1.5,0 L0.5,0 C0.223,0 0,0.223 0,0.5 Z" id="path4712-path"></path>
                    <path d="M0.5,6 C0.223,6 0,6.223 0,6.5 C0,6.77699 0.223,7 0.5,7 L2,7 L2,8 L0.5,8 C0.223,8 0,8.223 0,8.5 L0,10.5 C0,10.77699 0.223,11 0.5,11 L2.5,11 C2.777,11 3,10.77699 3,10.5 C3,10.223 2.777,10 2.5,10 L1,10 L1,9 L2.5,9 C2.5693,9 2.62764,8.994 2.6875,8.9688 C2.81468,8.9278 2.9182,8.82667 2.96875,8.68755 C2.99395,8.62765 2.99995,8.5693 2.99995,8.50005 L2.99995,6.50005 C2.99995,6.43075 2.99395,6.3724 2.96875,6.31255 C2.91825,6.17342 2.81468,6.07227 2.6875,6.0313 C2.6471,6.0142 2.6076,6.006 2.5625,6.0001 L2.5,6.0001 L0.5,6.0001 L0.5,6 Z" id="path4712-path"></path>
                    <path d="M2.85209534,16.8526748 C2.94267961,16.7627344 3,16.6389489 3,16.5023012 L3,12.4976988 C3,12.3570579 2.94465639,12.2332311 2.85505992,12.1442682 C2.76454727,12.057652 2.64101746,12 2.50461102,12 L0.495388985,12 C0.215752602,12 0,12.2238576 0,12.5 C0,12.7680664 0.221793203,13 0.495388985,13 L2,13 L2,14 L0.495388985,14 C0.215752602,14 0,14.2238576 0,14.5 C0,14.7680664 0.221793203,15 0.495388985,15 L2,15 L2,16 L0.495388985,16 C0.215752602,16 0,16.2238576 0,16.5 C0,16.7680664 0.221793203,17 0.495388985,17 L2.50461102,17 C2.6440432,17 2.76759251,16.9443442 2.85643212,16.854302 Z" id="Rectangle-403"></path>
                </g>
            </g>
        </g>
    </g>
</svg>