<svg width="20" height="20" viewBox="0 0 20 20" xmlns="http://www.w3.org/2000/svg"><path d="M7 17h10v-1H7v1zM6 4v1h13V4H6zm1 6v1h11v-1H7zM2 2.5c0 .277.223.5.5.5H3v3.5a.499.499 0 1 0 1 0v-4c0-.277-.223-.5-.5-.5h-1c-.277 0-.5.223-.5.5zM2.5 8a.499.499 0 1 0 0 1H4v1H2.5c-.277 0-.5.223-.5.5v2c0 .277.223.5.5.5h2a.499.499 0 1 0 0-1H3v-1h1.5a.46.46 0 0 0 .188-.031.45.45 0 0 0 .28-.281A.461.461 0 0 0 5 10.5v-2a.46.46 0 0 0-.031-.187.45.45 0 0 0-.282-.282.463.463 0 0 0-.125-.03H2.5V8zm2.352 10.853a.493.493 0 0 0 .148-.35v-4.005A.493.493 0 0 0 4.505 14h-2.01a.494.494 0 0 0-.495.5c0 .268.222.5.495.5H4v1H2.495a.494.494 0 0 0-.495.5c0 .268.222.5.495.5H4v1H2.495a.494.494 0 0 0-.495.5c0 .268.222.5.495.5h2.01a.49.49 0 0 0 .351-.146z" fill="#454545" fill-rule="evenodd"/></svg>