<svg width="14" height="10" viewBox="0 0 14 10" fill="none" xmlns="http://www.w3.org/2000/svg">
<path fill-rule="evenodd" clip-rule="evenodd" d="M12.5903 1.98767H3.84033C3.72184 1.98767 3.6193 1.94438 3.53271 1.85779C3.44613 1.7712 3.40283 1.66866 3.40283 1.55017C3.40283 1.43168 3.44613 1.32914 3.53271 1.24255C3.6193 1.15596 3.72184 1.11267 3.84033 1.11267H12.5903C12.7088 1.11267 12.8114 1.15596 12.898 1.24255C12.9845 1.32914 13.0278 1.43168 13.0278 1.55017C13.0278 1.66866 12.9845 1.7712 12.898 1.85779C12.8114 1.94438 12.7088 1.98767 12.5903 1.98767ZM12.5903 5.48767H3.84033C3.72184 5.48767 3.6193 5.44438 3.53271 5.35779C3.44613 5.2712 3.40283 5.16866 3.40283 5.05017C3.40283 4.93168 3.44613 4.82914 3.53271 4.74255C3.6193 4.65596 3.72184 4.61267 3.84033 4.61267H12.5903C12.7088 4.61267 12.8114 4.65596 12.898 4.74255C12.9845 4.82914 13.0278 4.93168 13.0278 5.05017C13.0278 5.16866 12.9845 5.2712 12.898 5.35779C12.8114 5.44438 12.7088 5.48767 12.5903 5.48767ZM12.5903 8.98767H3.84033C3.72184 8.98767 3.6193 8.94438 3.53271 8.85779C3.44613 8.7712 3.40283 8.66866 3.40283 8.55017C3.40283 8.43168 3.44613 8.32914 3.53271 8.24256C3.6193 8.15597 3.72184 8.11267 3.84033 8.11267H12.5903C12.7088 8.11267 12.8114 8.15597 12.898 8.24256C12.9845 8.32914 13.0278 8.43168 13.0278 8.55017C13.0278 8.66866 12.9845 8.7712 12.898 8.85779C12.8114 8.94438 12.7088 8.98767 12.5903 8.98767ZM1.4751 2.78064V1.0033L1.06494 1.41345L0.777832 1.099L1.54346 0.333374H2.0083V2.78064H1.4751ZM0.83252 6.23963V5.84314C1.31559 5.48767 1.646 5.22563 1.82373 5.05701C2.00147 4.88839 2.09033 4.73116 2.09033 4.58533C2.09033 4.48506 2.04932 4.40987 1.96729 4.35974C1.88525 4.30961 1.79867 4.28454 1.70752 4.28454H1.69385C1.56624 4.28454 1.45003 4.30733 1.34521 4.3529C1.2404 4.39848 1.14697 4.46684 1.06494 4.55798L0.777832 4.21618C0.887208 4.09769 1.01937 4.00427 1.17432 3.93591C1.32927 3.86755 1.49333 3.83337 1.6665 3.83337H1.69385C1.94906 3.83337 2.16325 3.89945 2.33643 4.03161C2.5096 4.16378 2.59619 4.34834 2.59619 4.58533C2.59619 4.78585 2.51644 4.98181 2.35693 5.17322C2.19743 5.36463 1.96273 5.5697 1.65283 5.78845H2.60986V6.23963H0.83252ZM0.777832 9.41149L1.0376 9.08337C1.11963 9.15629 1.21533 9.21781 1.32471 9.26794C1.43408 9.31807 1.54801 9.34313 1.6665 9.34313C1.81234 9.34313 1.92171 9.31579 1.99463 9.2611C2.06755 9.20642 2.104 9.1335 2.104 9.04235C2.104 8.96032 2.06755 8.89652 1.99463 8.85095C1.92171 8.80538 1.80322 8.78259 1.63916 8.78259H1.35205V8.34509H1.63916C1.76676 8.34509 1.87158 8.32458 1.95361 8.28357C2.03564 8.24255 2.07666 8.18103 2.07666 8.099C2.07666 8.00785 2.03337 7.93949 1.94678 7.89392C1.86019 7.84835 1.75765 7.82556 1.63916 7.82556C1.52978 7.82556 1.42497 7.84607 1.32471 7.88708C1.22445 7.9281 1.1333 7.98507 1.05127 8.05798L0.805176 7.7572C0.914551 7.63871 1.03988 7.54757 1.18115 7.48377C1.32243 7.41996 1.47965 7.38806 1.65283 7.38806H1.69385C1.96729 7.38806 2.18148 7.44503 2.33643 7.55896C2.49137 7.67289 2.56885 7.82556 2.56885 8.01697C2.56885 8.1628 2.51644 8.28129 2.41162 8.37243C2.3068 8.46358 2.19059 8.51827 2.06299 8.5365C2.18148 8.54561 2.30225 8.59802 2.42529 8.69372C2.54834 8.78943 2.60986 8.92386 2.60986 9.09704C2.60986 9.29756 2.52555 9.45934 2.35693 9.58239C2.18831 9.70544 1.96729 9.76696 1.69385 9.76696C1.4751 9.77608 1.28825 9.74417 1.1333 9.67126C0.978352 9.59834 0.859864 9.51175 0.777832 9.41149Z"/>
</svg>
