<svg width="29" height="25" viewBox="0 0 29 25" fill="none" xmlns="http://www.w3.org/2000/svg">
<rect x="7.28711" y="1.54321" width="20.848" height="1.73734" style="height: 2px; width: 20px;" rx="0.868668" fill="#636363"/>
<rect x="7.28711" y="11.0986" width="20.848" height="1.73734" style="height: 2px; width: 20px;" rx="0.868668" fill="#636363"/>
<rect x="7.28711" y="20.6541" width="20.848" height="1.73734" style="height: 2px; width: 20px;" rx="0.868668" fill="#636363"/>
<path d="M2.99789 4.405H4.08289V5H1.19889V4.405H2.27689V0.926L1.41589 1.451L1.10789 0.912L2.47989 0.0649997H2.99789V4.405Z" fill="#636363"/>
<path d="M4.13189 13.9604V14.5554H0.897891V14.0164L2.59889 12.1544C2.81822 11.9164 2.97689 11.6994 3.07489 11.5034C3.17289 11.3074 3.22189 11.1138 3.22189 10.9224C3.22189 10.6704 3.14956 10.4791 3.00489 10.3484C2.86022 10.2178 2.65256 10.1524 2.38189 10.1524C1.91989 10.1524 1.46256 10.3321 1.00989 10.6914L0.757891 10.1594C0.953891 9.97742 1.20122 9.83275 1.49989 9.72542C1.79856 9.61809 2.09956 9.56442 2.40289 9.56442C2.87422 9.56442 3.24756 9.68342 3.52289 9.92142C3.79822 10.1548 3.93589 10.4721 3.93589 10.8734C3.93589 11.1581 3.87289 11.4288 3.74689 11.6854C3.62556 11.9421 3.42022 12.2291 3.13089 12.5464L1.80789 13.9604H4.13189Z" fill="#636363"/>
<path d="M3.16589 21.5766C3.45522 21.6606 3.67456 21.8053 3.82389 22.0106C3.97789 22.2113 4.05489 22.4656 4.05489 22.7736C4.05489 23.2029 3.90322 23.5413 3.59989 23.7886C3.29656 24.0359 2.88589 24.1596 2.36789 24.1596C2.04122 24.1596 1.72856 24.1083 1.42989 24.0056C1.13122 23.8983 0.881557 23.7513 0.680891 23.5646L0.939891 23.0326C1.38322 23.3919 1.85222 23.5716 2.34689 23.5716C2.67822 23.5716 2.92789 23.5016 3.09589 23.3616C3.26856 23.2169 3.35489 23.0046 3.35489 22.7246C3.35489 22.4493 3.26622 22.2439 3.08889 22.1086C2.91622 21.9686 2.65256 21.8986 2.29789 21.8986H1.68889V21.3176H2.18589C2.52656 21.3176 2.78556 21.2476 2.96289 21.1076C3.14489 20.9629 3.23589 20.7529 3.23589 20.4776C3.23589 20.2303 3.16122 20.0413 3.01189 19.9106C2.86256 19.7753 2.65256 19.7076 2.38189 19.7076C1.91056 19.7076 1.45322 19.8873 1.00989 20.2466L0.757891 19.7146C0.953891 19.5279 1.19889 19.3833 1.49289 19.2806C1.79156 19.1733 2.09956 19.1196 2.41689 19.1196C2.87889 19.1196 3.24756 19.2339 3.52289 19.4626C3.79822 19.6913 3.93589 20.0016 3.93589 20.3936C3.93589 20.6689 3.86822 20.9116 3.73289 21.1216C3.59756 21.3316 3.40856 21.4833 3.16589 21.5766Z" fill="#636363"/>
</svg>
