<svg width="20" height="20" viewBox="0 0 20 20" fill="none" xmlns="http://www.w3.org/2000/svg">
<path fill-rule="evenodd" clip-rule="evenodd" d="M2.02832 6.35609C2.02832 6.6187 2.15231 6.75 2.40029 6.75H4.12802C4.37601 6.75 4.5 6.6187 4.5 6.35609C4.5 6.09699 4.37601 5.96744 4.12802 5.96744H3.73647V3.39916C3.73647 3.26961 3.70221 3.17157 3.63369 3.10504C3.56517 3.03501 3.46891 3 3.34492 3C3.18177 3 3.02678 3.04902 2.87995 3.14706L2.20452 3.59874C2.11642 3.65476 2.05768 3.72304 2.02832 3.80357C1.99895 3.8841 1.99243 3.96464 2.00874 4.04517C2.02505 4.1257 2.05932 4.19398 2.11152 4.25C2.16373 4.30602 2.22736 4.34104 2.30241 4.35504C2.37745 4.36555 2.4574 4.34279 2.54223 4.28676L2.84079 4.09244V5.96744H2.40029C2.15231 5.96744 2.02832 6.09699 2.02832 6.35609ZM8 3.75C7.44772 3.75 7 4.19772 7 4.75C7 5.30228 7.44771 5.75 8 5.75H17C17.5523 5.75 18 5.30228 18 4.75C18 4.19772 17.5523 3.75 17 3.75H8ZM8 8.75C7.44772 8.75 7 9.19772 7 9.75C7 10.3023 7.44771 10.75 8 10.75H17C17.5523 10.75 18 10.3023 18 9.75C18 9.19772 17.5523 8.75 17 8.75H8ZM7 14.75C7 14.1977 7.44772 13.75 8 13.75H17C17.5523 13.75 18 14.1977 18 14.75C18 15.3023 17.5523 15.75 17 15.75H8C7.44771 15.75 7 15.3023 7 14.75ZM2.17483 11.6453C2.11447 11.5719 2.0843 11.4654 2.0843 11.3258C2.0843 11.228 2.10336 11.1407 2.14147 11.0639C2.17959 10.9871 2.232 10.912 2.29871 10.8387L3.13253 9.88024C3.25641 9.73708 3.34377 9.61313 3.39459 9.50838C3.44859 9.40014 3.47559 9.29365 3.47559 9.1889C3.47559 8.92353 3.32153 8.79085 3.01341 8.79085C2.93718 8.79085 2.85459 8.80307 2.76565 8.82751C2.67989 8.84846 2.58936 8.88687 2.49406 8.94274C2.4083 8.98813 2.33047 9.0021 2.26059 8.98464C2.19071 8.96369 2.13353 8.92353 2.08906 8.86418C2.04459 8.80482 2.016 8.73673 2.0033 8.65992C1.99377 8.5831 2.00489 8.50803 2.03665 8.43471C2.06842 8.35789 2.12559 8.29504 2.20818 8.24616C2.3543 8.16236 2.50518 8.10126 2.66083 8.06285C2.81965 8.02095 2.97847 8 3.1373 8C3.52483 8 3.82024 8.09253 4.02353 8.27758C4.23 8.46264 4.33324 8.72975 4.33324 9.07891C4.33324 9.30237 4.28718 9.51536 4.19506 9.71788C4.10294 9.92039 3.94888 10.1386 3.73288 10.3726L3.18971 10.9696H4.13788C4.37929 10.9696 4.5 11.0988 4.5 11.3572C4.5 11.6191 4.37929 11.75 4.13788 11.75H2.47977C2.34 11.75 2.23836 11.7151 2.17483 11.6453ZM2.68231 16.6984C2.84538 16.7328 3.01004 16.75 3.1763 16.75C3.58876 16.75 3.91169 16.6554 4.1451 16.4663C4.3817 16.2737 4.5 16.0124 4.5 15.6823C4.5 15.4622 4.44724 15.2748 4.34173 15.12C4.23942 14.9653 4.09394 14.8587 3.90529 14.8002C4.05877 14.7349 4.17867 14.6317 4.265 14.4907C4.35132 14.3497 4.39449 14.1864 4.39449 14.0007C4.39449 13.6878 4.28898 13.4436 4.07795 13.2682C3.86693 13.0894 3.57277 13 3.19549 13C2.85976 13 2.55442 13.0739 2.27945 13.2218C2.19312 13.2699 2.13237 13.3301 2.0972 13.4023C2.06203 13.4711 2.04924 13.545 2.05883 13.6241C2.06842 13.6998 2.0956 13.7669 2.14036 13.8253C2.18513 13.8838 2.24108 13.9233 2.30822 13.9439C2.37857 13.9646 2.4553 13.956 2.53843 13.9182C2.64394 13.8666 2.74306 13.8305 2.83578 13.8098C2.92851 13.7892 3.01963 13.7789 3.10916 13.7789C3.40651 13.7789 3.55519 13.8941 3.55519 14.1245C3.55519 14.2414 3.51522 14.3308 3.43529 14.3927C3.35855 14.4546 3.25144 14.4856 3.11395 14.4856H2.9413C2.8198 14.4856 2.72708 14.5182 2.66313 14.5836C2.59918 14.6489 2.56721 14.7417 2.56721 14.8621C2.56721 14.9825 2.59918 15.0753 2.66313 15.1406C2.72708 15.206 2.8198 15.2387 2.9413 15.2387H3.20028C3.50723 15.2387 3.6607 15.3556 3.6607 15.5894C3.6607 15.8439 3.48804 15.9711 3.14273 15.9711C3.04361 15.9711 2.94449 15.9608 2.84538 15.9402C2.74626 15.9195 2.63755 15.8817 2.51925 15.8267C2.42333 15.782 2.337 15.7717 2.26026 15.7957C2.18672 15.8164 2.12598 15.8576 2.07802 15.9195C2.03325 15.9814 2.00767 16.0519 2.00128 16.131C1.99488 16.2101 2.01247 16.2875 2.05404 16.3631C2.0956 16.4388 2.16594 16.5024 2.26506 16.554C2.38336 16.6159 2.52245 16.664 2.68231 16.6984Z"/>
</svg>
