<svg viewBox="0 0 20 20" xmlns="http://www.w3.org/2000/svg"><path d="m2.315 14.705 2.224-2.24a.689.689 0 0 1 .963 0 .664.664 0 0 1 0 .949L2.865 16.07a.682.682 0 0 1-.112.089.647.647 0 0 1-.852-.051L.688 14.886a.635.635 0 0 1 0-.903.647.647 0 0 1 .91 0l.717.722zm5.185.045a.75.75 0 0 1 .75-.75h9.5a.75.75 0 1 1 0 1.5h-9.5a.75.75 0 0 1-.75-.75zM2.329 5.745l2.21-2.226a.689.689 0 0 1 .963 0 .664.664 0 0 1 0 .95L2.865 7.125a.685.685 0 0 1-.496.196.644.644 0 0 1-.468-.187L.688 5.912a.635.635 0 0 1 0-.903.647.647 0 0 1 .91 0l.73.736zM7.5 5.75A.75.75 0 0 1 8.25 5h9.5a.75.75 0 1 1 0 1.5h-9.5a.75.75 0 0 1-.75-.75z"/></svg>