<svg viewBox="0 0 20 20" xmlns="http://www.w3.org/2000/svg"><path d="M2.3148 14.7048l2.2237-2.2406c.2661-.2622.6975-.2622.9636 0a.6644.6644 0 0 1 0 .9494l-2.6373 2.6573a.6823.6823 0 0 1-.1115.089c-.2526.1968-.6193.1797-.852-.0512L.6885 14.886a.6352.6352 0 0 1 0-.9032.6471.6471 0 0 1 .9102 0l.7161.722zM7.5 14.75a.75.75 0 0 1 .75-.75h9.5a.75.75 0 1 1 0 1.5h-9.5c-.414 0-.75-.336-.75-.75zM2.3288 5.7453l2.2097-2.2265c.2661-.2622.6975-.2622.9636 0a.6644.6644 0 0 1 0 .9494L2.8648 7.1256a.6848.6848 0 0 1-.4953.1965.6444.6444 0 0 1-.4682-.187L.6885 5.9125a.6352.6352 0 0 1 0-.9033.6471.6471 0 0 1 .9102 0l.7301.7361zM7.5 5.75A.75.75 0 0 1 8.25 5h9.5a.75.75 0 1 1 0 1.5h-9.5c-.414 0-.75-.336-.75-.75z"/></svg>