<?xml version="1.0" encoding="UTF-8" standalone="no"?>
<svg width="20px" height="20px" viewBox="0 0 20 20" version="1.1" xmlns="http://www.w3.org/2000/svg" xmlns:xlink="http://www.w3.org/1999/xlink" xmlns:sketch="http://www.bohemiancoding.com/sketch/ns">
    <!-- Generator: Sketch 3.5.2 (25235) - http://www.bohemiancoding.com/sketch -->
    <title>align-center</title>
    <desc>Created with Sketch.</desc>
    <defs></defs>
    <g id="Page-1" stroke="none" stroke-width="1" fill="none" fill-rule="evenodd" sketch:type="MSPage">
        <g id="align-center" sketch:type="MSArtboardGroup" fill="#444444">
            <g id="icon:align-center" sketch:type="MSLayerGroup" transform="translate(2.000000, 4.000000)">
                <path d="M2,6 L2,7 L14,7 L14,6 L2,6 L2,6 Z M3,12 L3,13 L13,13 L13,12 L3,12 L3,12 Z M0,9 L0,10 L16,10 L16,9 L0,9 L0,9 Z M2,0 L2,1 L14,1 L14,0 L2,0 L2,0 Z M0,3 L0,4 L16,4 L16,3 L0,3 L0,3 Z" id="path4634-copy-3" sketch:type="MSShapeGroup" transform="translate(8.000000, 6.500000) scale(-1, 1) translate(-8.000000, -6.500000) "></path>
            </g>
        </g>
    </g>
</svg>