<?xml version="1.0" encoding="UTF-8" standalone="no"?>
<svg width="20px" height="20px" viewBox="0 0 20 20" version="1.1" xmlns="http://www.w3.org/2000/svg" xmlns:xlink="http://www.w3.org/1999/xlink" xmlns:sketch="http://www.bohemiancoding.com/sketch/ns">
    <!-- Generator: Sketch 3.5.2 (25235) - http://www.bohemiancoding.com/sketch -->
    <title>bold</title>
    <desc>Created with Sketch.</desc>
    <defs></defs>
    <g id="Page-1" stroke="none" stroke-width="1" fill="none" fill-rule="evenodd" sketch:type="MSPage">
        <g id="bold" sketch:type="MSArtboardGroup" fill="#454545">
            <g id="icon:bold" sketch:type="MSLayerGroup" transform="translate(4.000000, 3.000000)">
                <path d="M11.135257,7.40877709 C11.4960763,7.65684034 11.7892376,7.96832419 12.0147496,8.34323798 C12.2402617,8.71815176 12.353016,9.15930309 12.353016,9.66670521 C12.353016,10.2755877 12.2247579,10.7900294 11.968238,11.2100456 C11.711718,11.6300618 11.343857,11.9612776 10.8646439,12.2037031 C10.3572418,12.463042 9.77232867,12.6462677 9.10988702,12.753386 C8.44744538,12.8605042 7.66803104,12.9140625 6.77162064,12.9140625 L0.5390625,12.9140625 L0.5390625,12.254443 C0.713834339,12.2375296 0.933705291,12.2121599 1.19868195,12.1783331 C1.46365861,12.1445063 1.64970326,12.1050423 1.75682149,12.0599399 C1.96542013,11.9753729 2.10777248,11.864028 2.1838828,11.7259018 C2.25999311,11.5877757 2.2980477,11.4087782 2.2980477,11.1889039 L2.2980477,2.73224432 C2.2980477,2.52928347 2.26704026,2.36015197 2.20502445,2.22484474 C2.14300863,2.08953751 1.99360914,1.97114546 1.75682149,1.86966504 C1.58204965,1.79637362 1.37909184,1.73576817 1.14794199,1.68784686 C0.916792141,1.63992554 0.713834339,1.60187096 0.5390625,1.57368195 L0.5390625,0.9140625 L7.05914707,0.9140625 C8.69974724,0.9140625 9.88366774,1.13957117 10.6109441,1.59059527 C11.3382205,2.04161937 11.7018532,2.70686994 11.7018532,3.58636694 C11.7018532,3.99228863 11.6201063,4.34887421 11.4566101,4.65613438 C11.2931138,4.96339455 11.0591486,5.22977666 10.7547073,5.45528872 C10.4784551,5.66388736 10.1486486,5.8442943 9.76527814,5.99651493 C9.38190766,6.14873557 8.97035434,6.27558419 8.53060584,6.37706461 L8.53060584,6.53774115 C8.97035434,6.58284356 9.42700939,6.68009417 9.9005847,6.8294959 C10.37416,6.97889764 10.7857133,7.17198943 11.135257,7.40877709 L11.135257,7.40877709 Z M8.41221261,3.79778343 C8.41221261,3.13252288 8.22475853,2.61385294 7.84984474,2.24175806 C7.47493096,1.86966318 6.91256872,1.68361853 6.16274115,1.68361853 C6.05562292,1.68361853 5.91608943,1.68784681 5.7441365,1.69630351 C5.57218356,1.70476022 5.42419349,1.71180736 5.30016187,1.71744516 L5.30016187,6.16564812 L5.73990817,6.16564812 C6.65323197,6.16564812 7.32693912,5.95282432 7.76104982,5.52717032 C8.19516051,5.10151633 8.41221261,4.52505979 8.41221261,3.79778343 L8.41221261,3.79778343 Z M9.00417878,9.55676863 C9.00417878,8.72237404 8.75611924,8.0824932 8.25999273,7.6371069 C7.76386622,7.1917206 7.05069506,6.96903079 6.12045785,6.96903079 C6.01333962,6.96903079 5.87098728,6.97325908 5.69339654,6.98171578 C5.5158058,6.99017248 5.38472888,6.99721962 5.30016187,7.00285743 L5.30016187,11.3918638 C5.35090208,11.6004624 5.50875814,11.7766411 5.7737348,11.920405 C6.03871146,12.0641689 6.36006132,12.1360498 6.737794,12.1360498 C7.40869235,12.1360498 7.95414144,11.9105411 8.37415764,11.459517 C8.79417383,11.0084929 9.00417878,10.3742498 9.00417878,9.55676863 L9.00417878,9.55676863 Z" id="B" sketch:type="MSShapeGroup"></path>
            </g>
        </g>
    </g>
</svg>