<?xml version="1.0" encoding="UTF-8" standalone="no"?>
<svg width="20px" height="20px" viewBox="0 0 20 20" version="1.1" xmlns="http://www.w3.org/2000/svg" xmlns:xlink="http://www.w3.org/1999/xlink" xmlns:sketch="http://www.bohemiancoding.com/sketch/ns">
    <!-- Generator: Sketch 3.5.2 (25235) - http://www.bohemiancoding.com/sketch -->
    <title>bulletedlist</title>
    <desc>Created with Sketch.</desc>
    <defs></defs>
    <g id="Page-1" stroke="none" stroke-width="1" fill="none" fill-rule="evenodd" sketch:type="MSPage">
        <g id="bulletedlist" sketch:type="MSArtboardGroup" fill="#454545">
            <g id="icon:bulletedlist" sketch:type="MSLayerGroup" transform="translate(1.000000, 3.000000)">
                <path d="M5,13 L5,14 L15,14 L15,13 L5,13 L5,13 Z M5,1 L5,2 L17,2 L17,1 L5,1 L5,1 Z M5,7 L5,8 L16,8 L16,7 L5,7 L5,7 Z M0,1.5 C0,0.671572875 0.665797234,0 1.5,0 L1.5,0 C2.32842712,0 3,0.665797234 3,1.5 L3,1.5 C3,2.32842712 2.33420277,3 1.5,3 L1.5,3 C0.671572875,3 0,2.33420277 0,1.5 L0,1.5 Z M0,7.5 C0,6.67157288 0.665797234,6 1.5,6 L1.5,6 C2.32842712,6 3,6.66579723 3,7.5 L3,7.5 C3,8.32842712 2.33420277,9 1.5,9 L1.5,9 C0.671572875,9 0,8.33420277 0,7.5 L0,7.5 Z M0,13.5 C0,12.6715729 0.665797234,12 1.5,12 L1.5,12 C2.32842712,12 3,12.6657972 3,13.5 L3,13.5 C3,14.3284271 2.33420277,15 1.5,15 L1.5,15 C0.671572875,15 0,14.3342028 0,13.5 L0,13.5 Z" id="path4634" sketch:type="MSShapeGroup"></path>
            </g>
        </g>
    </g>
</svg>