<?xml version="1.0" encoding="UTF-8" standalone="no"?>
<svg width="20px" height="20px" viewBox="0 0 20 20" version="1.1" xmlns="http://www.w3.org/2000/svg" xmlns:xlink="http://www.w3.org/1999/xlink" xmlns:sketch="http://www.bohemiancoding.com/sketch/ns">
    <!-- Generator: Sketch 3.5.2 (25235) - http://www.bohemiancoding.com/sketch -->
    <title>italic</title>
    <desc>Created with Sketch.</desc>
    <defs></defs>
    <g id="Page-1" stroke="none" stroke-width="1" fill="none" fill-rule="evenodd" sketch:type="MSPage">
        <g id="italic" sketch:type="MSArtboardGroup" fill="#454545">
            <g id="icon:italic" sketch:type="MSLayerGroup" transform="translate(5.000000, 3.000000)">
                <path d="M8.82538319,0.9140625 L8.6985333,1.47220203 C8.52376146,1.47783984 8.29543393,1.50320956 8.01354387,1.54831197 C7.73165381,1.59341438 7.52305829,1.63569726 7.38775106,1.67516187 C7.1509634,1.74845328 6.9818319,1.86120762 6.88035148,2.01342825 C6.77887106,2.16564888 6.70558074,2.33196153 6.66047833,2.51237117 L4.63088002,11.2819272 C4.61960442,11.3213918 4.61114784,11.3664935 4.60551004,11.4172337 C4.59987224,11.467974 4.59705338,11.5130757 4.59705338,11.5525403 C4.59705338,11.6822097 4.62524197,11.7921452 4.68161998,11.88235 C4.73799799,11.9725548 4.83947689,12.0514829 4.98605973,12.1191365 C5.07062674,12.1586011 5.2566714,12.2051123 5.54419926,12.2586714 C5.83172712,12.3122305 6.04596036,12.3446474 6.18690539,12.355923 L6.0600555,12.9140625 L0.65625,12.9140625 L0.783099894,12.355923 C0.94095833,12.3446474 1.166467,12.3277342 1.45963266,12.305183 C1.75279833,12.2826318 1.96139385,12.2488055 2.08542548,12.2037031 C2.30529973,12.1247739 2.47161237,12.0162478 2.58436839,11.8781217 C2.69712442,11.7399956 2.77323359,11.5722735 2.8126982,11.3749504 L4.83383985,2.59693776 C4.84511545,2.54619755 4.85357203,2.4954581 4.85920983,2.44471789 C4.86484763,2.39397768 4.86766649,2.34323823 4.86766649,2.29249802 C4.86766649,2.17974199 4.84370619,2.08108195 4.79578488,1.99651493 C4.74786357,1.91194791 4.6477941,1.83583874 4.49557347,1.76818512 C4.34335283,1.70053151 4.13616674,1.63710719 3.87400899,1.57791028 C3.61185123,1.51871337 3.41875943,1.48347764 3.2947278,1.47220203 L3.4215777,0.9140625 L8.82538319,0.9140625 Z" id="I" sketch:type="MSShapeGroup"></path>
            </g>
        </g>
    </g>
</svg>