<?xml version="1.0" encoding="UTF-8" standalone="no"?>
<svg width="20px" height="20px" viewBox="0 0 20 20" version="1.1" xmlns="http://www.w3.org/2000/svg" xmlns:xlink="http://www.w3.org/1999/xlink" xmlns:sketch="http://www.bohemiancoding.com/sketch/ns">
    <!-- Generator: Sketch 3.5.2 (25235) - http://www.bohemiancoding.com/sketch -->
    <title>quote</title>
    <desc>Created with Sketch.</desc>
    <defs></defs>
    <g id="Page-1" stroke="none" stroke-width="1" fill="none" fill-rule="evenodd" sketch:type="MSPage">
        <g id="quote" sketch:type="MSArtboardGroup" fill="#454545">
            <g id="icon:blockquote" sketch:type="MSLayerGroup" transform="translate(2.000000, 4.000000)">
                <path d="M6.04296875,0.887157207 L6.04296875,1.76899314 C4.64843053,2.61665363 3.69824472,3.40277858 3.19238281,4.12739158 C2.82324034,4.66059737 2.63867188,5.28949733 2.63867188,6.01411033 C2.63867188,6.45161252 2.7207023,6.77289837 2.88476562,6.97797752 C3.035157,7.18305667 3.2128896,7.28559471 3.41796875,7.28559471 C3.55468818,7.28559471 3.74609252,7.23774362 3.9921875,7.14204002 C4.36132997,7.01899253 4.66210821,6.95746971 4.89453125,6.95746971 C5.44140898,6.95746971 5.92675569,7.16254578 6.35058594,7.57270408 C6.77441618,7.98286238 6.98632812,8.49555257 6.98632812,9.11079002 C6.98632812,9.80805913 6.77441618,10.3480928 6.35058594,10.7309072 C5.76269237,11.2504411 5.07910546,11.5102041 4.29980469,11.5102041 C3.37011254,11.5102041 2.54297237,11.1205595 1.81835938,10.3412588 C1.09374638,9.561958 0.731445312,8.59810045 0.731445312,7.44965721 C0.731445312,5.83636789 1.3330018,4.36665602 2.53613281,3.04047752 C3.34277747,2.16547314 4.51171109,1.44770688 6.04296875,0.887157207 L6.04296875,0.887157207 Z M14.429297,0.887157207 L14.429297,1.76899314 C13.0347587,2.61665363 12.0845729,3.40277858 11.578711,4.12739158 C11.2095686,4.66059737 11.0250001,5.28949733 11.0250001,6.01411033 C11.0250001,6.45161252 11.1070305,6.77289837 11.2710938,6.97797752 C11.4214852,7.18305667 11.5992178,7.28559471 11.804297,7.28559471 C11.9410164,7.28559471 12.1324207,7.23774362 12.3785157,7.14204002 C12.7476582,7.01899253 13.0484364,6.95746971 13.2808595,6.95746971 C13.8277372,6.95746971 14.3130839,7.16254578 14.7369142,7.57270408 C15.1607444,7.98286238 15.3726563,8.49555257 15.3726563,9.11079002 C15.3726563,9.80805913 15.1607444,10.3480928 14.7369142,10.7309072 C14.1490206,11.2504411 13.4654337,11.5102041 12.6861329,11.5102041 C11.7564408,11.5102041 10.9293006,11.1205595 10.2046876,10.3412588 C9.4800746,9.561958 9.11777353,8.59810045 9.11777353,7.44965721 C9.11777353,5.83636789 9.71933002,4.36665602 10.922461,3.04047752 C11.7291057,2.16547314 12.8980393,1.44770688 14.429297,0.887157207 L14.429297,0.887157207 Z" id="‘‘" sketch:type="MSShapeGroup" transform="translate(8.052051, 6.198681) rotate(-180.000000) translate(-8.052051, -6.198681) "></path>
            </g>
        </g>
    </g>
</svg>