<?xml version="1.0" encoding="UTF-8" standalone="no"?>
<svg width="20px" height="20px" viewBox="0 0 20 20" version="1.1" xmlns="http://www.w3.org/2000/svg" xmlns:xlink="http://www.w3.org/1999/xlink" xmlns:sketch="http://www.bohemiancoding.com/sketch/ns">
    <!-- Generator: Sketch 3.5.2 (25235) - http://www.bohemiancoding.com/sketch -->
    <title>underline</title>
    <desc>Created with Sketch.</desc>
    <defs></defs>
    <g id="Page-1" stroke="none" stroke-width="1" fill="none" fill-rule="evenodd" sketch:type="MSPage">
        <g id="underline" sketch:type="MSArtboardGroup">
            <g id="icon:underline" sketch:type="MSLayerGroup" transform="translate(4.000000, 3.000000)">
                <path d="M12.6276776,1.50043552 C12.4735131,1.5059414 12.2477755,1.53897617 11.9504581,1.59954082 C11.6531407,1.66010547 11.4108857,1.75095109 11.2236859,1.87208039 C11.0364861,1.99871558 10.9070999,2.26024083 10.8355235,2.65666401 C10.7639471,3.05308719 10.7281594,3.53759715 10.7281594,4.11020841 L10.7281594,9.20587255 C10.7281594,9.85556609 10.5932674,10.4199101 10.3234794,10.8989214 C10.0536914,11.3779328 9.69856767,11.7715971 9.25809747,12.0799262 C8.82313315,12.3772436 8.36477572,12.5905932 7.88301144,12.7199813 C7.40124716,12.8493694 6.94013684,12.9140625 6.49966664,12.9140625 C5.79491432,12.9140625 5.1672537,12.8218404 4.61666595,12.6373935 C4.0660782,12.4529466 3.60359143,12.2038094 3.22919176,11.8899744 C2.86029797,11.5761394 2.58225532,11.2168863 2.39505549,10.8122043 C2.20785565,10.4075223 2.11425714,9.98495252 2.11425714,9.54448232 L2.11425714,2.61537014 C2.11425714,2.42266443 2.08259882,2.26161993 2.01928123,2.1322318 C1.95596364,2.00284368 1.82795391,1.88309264 1.63524819,1.77297509 C1.49760126,1.69589281 1.32141582,1.63395262 1.1066866,1.58715266 C0.891957374,1.5403527 0.715771937,1.51144728 0.578125,1.50043552 L0.578125,0.9140625 L5.45906099,0.9140625 L5.45906099,1.50043552 C5.30489642,1.5059414 5.11081715,1.53071748 4.87681736,1.5747645 C4.64281757,1.61881152 4.47076148,1.66010498 4.36064393,1.69864612 C4.17344409,1.76471665 4.04818726,1.87483255 3.98486967,2.02899712 C3.92155208,2.18316169 3.88989375,2.35108843 3.88989375,2.53278239 L3.88989375,9.00766195 C3.88989375,9.32149697 3.92430497,9.65046821 3.99312844,9.99458556 C4.06195191,10.3387029 4.19822033,10.6594155 4.4019378,10.9567328 C4.61666702,11.2595561 4.90847415,11.5073169 5.27736795,11.7000226 C5.64626174,11.8927283 6.15279487,11.9890797 6.79698254,11.9890797 C7.40262906,11.9890797 7.91053864,11.8927283 8.32072651,11.7000226 C8.73091439,11.5073169 9.05437984,11.2540503 9.29113257,10.9402153 C9.51687355,10.6428979 9.6765416,10.3318205 9.77014152,10.0069737 C9.86374143,9.68212695 9.91054069,9.35453215 9.91054069,9.0241795 L9.91054069,4.21757248 C9.91054069,3.60642008 9.86649433,3.10676919 9.77840029,2.71860483 C9.69030625,2.33044046 9.56092007,2.07579745 9.39023787,1.95466814 C9.19753216,1.81702121 8.93463045,1.70965821 8.60152486,1.63257592 C8.26841927,1.55549364 8.01377626,1.51144728 7.83758818,1.50043552 L7.83758818,0.9140625 L12.6276776,0.9140625 L12.6276776,1.50043552 Z" id="U" fill="#454545" sketch:type="MSShapeGroup"></path>
                <rect id="Rectangle-259" fill="#585858" sketch:type="MSShapeGroup" x="0" y="14" width="12" height="1"></rect>
            </g>
        </g>
    </g>
</svg>