<?xml version="1.0" encoding="UTF-8" standalone="no"?>
<svg width="20px" height="20px" viewBox="0 0 20 20" version="1.1" xmlns="http://www.w3.org/2000/svg" xmlns:xlink="http://www.w3.org/1999/xlink" xmlns:sketch="http://www.bohemiancoding.com/sketch/ns">
    <!-- Generator: Sketch 3.5.2 (25235) - http://www.bohemiancoding.com/sketch -->
    <title>unlink</title>
    <desc>Created with Sketch.</desc>
    <defs></defs>
    <g id="Page-1" stroke="none" stroke-width="1" fill="none" fill-rule="evenodd" sketch:type="MSPage">
        <g id="unlink" sketch:type="MSArtboardGroup" fill="#222222">
            <g id="icon:unlink" sketch:type="MSLayerGroup">
                <g id="Rectangle-18-+-Rectangle-18-Copy-+-Path-28-Copy" transform="translate(12.828427, 13.035534) rotate(-315.000000) translate(-12.828427, -13.035534) translate(4.328427, 4.035534)" sketch:type="MSShapeGroup">
                    <path d="M8,6.55919636 L8,4.82450549 C8,2.61334348 6.2104719,0.828427125 4,0.828427125 C1.79353398,0.828427125 -3.20454774e-12,2.61822724 -3.20454774e-12,4.82450549 L-3.20454774e-12,7.75542568 C-3.20454774e-12,9.96658769 1.7895281,11.751504 4,11.751504 C4.5511606,11.751504 5.07655559,11.6398264 5.55466651,11.437876 L5.12132034,11.437876 L5.12132034,10.5346402 C4.77469964,10.6745028 4.39616036,10.751504 4,10.751504 C2.34314575,10.751504 1,9.41562927 1,7.75542568 L1,4.82450549 C1,3.1698171 2.34651712,1.82842712 4,1.82842712 C5.65685425,1.82842712 7,3.1643019 7,4.82450549 L7,6.55919636 L8,6.55919636 Z" id="Shape"></path>
                    <path d="M12.1301896,9.691731 L12.1301896,6.07623654 L11.1099103,6.07623654 L11.1099103,9.691731 L7.79324873,9.691731 L7.79324873,10.7120103 L11.1099103,10.7120103 L11.1099103,14.3275047 L12.1301896,14.3275047 L12.1301896,10.7120103 L16.0445169,10.7120103 L16.0445169,9.691731 L12.1301896,9.691731 Z M7.52584209,8.6418508 C6.80172121,7.49371533 5.53005392,6.73384534 4.08111717,6.73384534 C3.59260703,6.73384534 3.12393555,6.82077136 2.68949598,6.98014985 L2.68949598,8.10315471 C3.10729359,7.8871288 3.58041083,7.76525387 4.08111717,7.76525387 C5.2472836,7.76525387 6.26112906,8.4209623 6.77783518,9.38985772 L7.52584209,8.6418508 Z M8.16223435,12.3942945 L8.16223435,13.8784107 C8.16223435,16.1539849 6.33232877,18 4.08111717,18 C1.82581847,18 -8.17124146e-14,16.1590221 -8.17124146e-14,13.8784107 L-8.17124146e-14,11.890888 L1.02027929,11.890888 L1.02027929,13.8784107 C1.02027929,15.5907588 2.39066309,16.9685915 4.08111717,16.9685915 C5.76813152,16.9685915 7.14195505,15.5850704 7.14195505,13.8784107 L7.14195505,11.3740152 L8.16223435,12.3942945 Z" id="Shape"></path>
                </g>
            </g>
        </g>
    </g>
</svg>