<svg viewBox="0 0 20 20" xmlns="http://www.w3.org/2000/svg"><path d="m11.333 2 .19 2.263a5.899 5.899 0 0 1 1.458.604L14.714 3.4 16.6 5.286l-1.467 1.733c.263.452.468.942.605 1.46L18 8.666v2.666l-2.263.19a5.899 5.899 0 0 1-.604 1.458l1.467 1.733-1.886 1.886-1.733-1.467a5.899 5.899 0 0 1-1.46.605L11.334 18H8.667l-.19-2.263a5.899 5.899 0 0 1-1.458-.604L5.286 16.6 3.4 14.714l1.467-1.733a5.899 5.899 0 0 1-.604-1.458L2 11.333V8.667l2.262-.189a5.899 5.899 0 0 1 .605-1.459L3.4 5.286 5.286 3.4l1.733 1.467a5.899 5.899 0 0 1 1.46-.605L8.666 2h2.666zM10 6.267a3.733 3.733 0 1 0 0 7.466 3.733 3.733 0 0 0 0-7.466z"/></svg>